999
FBX AutoCAD (*.DXF) exporter
  0
SECTION
  2
HEADER
  9
$ACADVER
  1
AC1008
  9
$UCSORG
 10
0.0
 20
0.0
 30
0.0
  9
$UCSXDIR
 10
1.0
 20
0.0
 30
0.0
  9
$TILEMODE
 70
   1
  9
$UCSYDIR
 10
0.0
 20
1.0
 30
0.0
  0
ENDSEC
  0
SECTION
  2
TABLES
  0
TABLE
  2
LTYPE
 70
   1
  0
LTYPE
  2
CONTINUOUS
 70
   64
  3
Solid line
 72
   65
 73
   0
 40
0.0
  0
ENDTAB
  0
TABLE
  2
LAYER
 70
   1
  0
LAYER
  2
front_plate_for_encasing_assuming_this_is_the_front
 70
   0
 62
   7
  6
CONTINUOUS
  0
ENDTAB
  0
ENDSEC
  0
SECTION
  2
BLOCKS
  0
ENDSEC
  0
SECTION
  2
ENTITIES
  0
POLYLINE
  8
front_plate_for_encasing_assuming_this_is_the_front
 62
   7
 66
   1
 10
0.0
 20
0.0
 30
0.0
 70
   64
 71
   92
 72
   180
  0
VERTEX
  8
front_plate_for_encasing_assuming_this_is_the_front
 10
3.150001
 20
1.637595
 30
0.000000
 70
   192
  0
VERTEX
  8
front_plate_for_encasing_assuming_this_is_the_front
 10
3.150001
 20
1.637595
 30
0.600000
 70
   192
  0
VERTEX
  8
front_plate_for_encasing_assuming_this_is_the_front
 10
12.573001
 20
1.637595
 30
0.600000
 70
   192
  0
VERTEX
  8
front_plate_for_encasing_assuming_this_is_the_front
 10
12.573001
 20
1.637595
 30
0.000000
 70
   192
  0
VERTEX
  8
front_plate_for_encasing_assuming_this_is_the_front
 10
-0.592666
 20
-7.277805
 30
0.000000
 70
   192
  0
VERTEX
  8
front_plate_for_encasing_assuming_this_is_the_front
 10
-0.592666
 20
-7.877527
 30
0.000000
 70
   192
  0
VERTEX
  8
front_plate_for_encasing_assuming_this_is_the_front
 10
-0.592666
 20
-7.877527
 30
0.600000
 70
   192
  0
VERTEX
  8
front_plate_for_encasing_assuming_this_is_the_front
 10
-0.592666
 20
-7.277805
 30
0.600000
 70
   192
  0
VERTEX
  8
front_plate_for_encasing_assuming_this_is_the_front
 10
0.606778
 20
-7.877527
 30
0.000000
 70
   192
  0
VERTEX
  8
front_plate_for_encasing_assuming_this_is_the_front
 10
0.606778
 20
-7.877527
 30
0.600000
 70
   192
  0
VERTEX
  8
front_plate_for_encasing_assuming_this_is_the_front
 10
0.606778
 20
-7.277805
 30
0.000000
 70
   192
  0
VERTEX
  8
front_plate_for_encasing_assuming_this_is_the_front
 10
0.606778
 20
-7.277805
 30
0.600000
 70
   192
  0
VERTEX
  8
front_plate_for_encasing_assuming_this_is_the_front
 10
1.806223
 20
-7.277805
 30
0.000000
 70
   192
  0
VERTEX
  8
front_plate_for_encasing_assuming_this_is_the_front
 10
1.806223
 20
-7.277805
 30
0.600000
 70
   192
  0
VERTEX
  8
front_plate_for_encasing_assuming_this_is_the_front
 10
1.806223
 20
-7.877527
 30
0.000000
 70
   192
  0
VERTEX
  8
front_plate_for_encasing_assuming_this_is_the_front
 10
1.806223
 20
-7.877527
 30
0.600000
 70
   192
  0
VERTEX
  8
front_plate_for_encasing_assuming_this_is_the_front
 10
3.005667
 20
-7.877527
 30
0.000000
 70
   192
  0
VERTEX
  8
front_plate_for_encasing_assuming_this_is_the_front
 10
3.005667
 20
-7.877527
 30
0.600000
 70
   192
  0
VERTEX
  8
front_plate_for_encasing_assuming_this_is_the_front
 10
3.005667
 20
-7.277805
 30
0.000000
 70
   192
  0
VERTEX
  8
front_plate_for_encasing_assuming_this_is_the_front
 10
3.005667
 20
-7.277805
 30
0.600000
 70
   192
  0
VERTEX
  8
front_plate_for_encasing_assuming_this_is_the_front
 10
4.205112
 20
-7.277805
 30
0.000000
 70
   192
  0
VERTEX
  8
front_plate_for_encasing_assuming_this_is_the_front
 10
4.205112
 20
-7.277805
 30
0.600000
 70
   192
  0
VERTEX
  8
front_plate_for_encasing_assuming_this_is_the_front
 10
4.205112
 20
-7.877527
 30
0.000000
 70
   192
  0
VERTEX
  8
front_plate_for_encasing_assuming_this_is_the_front
 10
4.205112
 20
-7.877527
 30
0.600000
 70
   192
  0
VERTEX
  8
front_plate_for_encasing_assuming_this_is_the_front
 10
5.404556
 20
-7.877527
 30
0.000000
 70
   192
  0
VERTEX
  8
front_plate_for_encasing_assuming_this_is_the_front
 10
5.404556
 20
-7.877527
 30
0.600000
 70
   192
  0
VERTEX
  8
front_plate_for_encasing_assuming_this_is_the_front
 10
5.404556
 20
-7.277805
 30
0.000000
 70
   192
  0
VERTEX
  8
front_plate_for_encasing_assuming_this_is_the_front
 10
5.404556
 20
-7.277805
 30
0.600000
 70
   192
  0
VERTEX
  8
front_plate_for_encasing_assuming_this_is_the_front
 10
6.604000
 20
-7.277805
 30
0.000000
 70
   192
  0
VERTEX
  8
front_plate_for_encasing_assuming_this_is_the_front
 10
6.604000
 20
-7.277805
 30
0.600000
 70
   192
  0
VERTEX
  8
front_plate_for_encasing_assuming_this_is_the_front
 10
6.604000
 20
-7.877527
 30
0.000000
 70
   192
  0
VERTEX
  8
front_plate_for_encasing_assuming_this_is_the_front
 10
6.604000
 20
-7.877527
 30
0.600000
 70
   192
  0
VERTEX
  8
front_plate_for_encasing_assuming_this_is_the_front
 10
7.803445
 20
-7.877527
 30
0.000000
 70
   192
  0
VERTEX
  8
front_plate_for_encasing_assuming_this_is_the_front
 10
7.803445
 20
-7.877527
 30
0.600000
 70
   192
  0
VERTEX
  8
front_plate_for_encasing_assuming_this_is_the_front
 10
7.803445
 20
-7.277805
 30
0.000000
 70
   192
  0
VERTEX
  8
front_plate_for_encasing_assuming_this_is_the_front
 10
7.803445
 20
-7.277805
 30
0.600000
 70
   192
  0
VERTEX
  8
front_plate_for_encasing_assuming_this_is_the_front
 10
9.002889
 20
-7.277805
 30
0.000000
 70
   192
  0
VERTEX
  8
front_plate_for_encasing_assuming_this_is_the_front
 10
9.002889
 20
-7.277805
 30
0.600000
 70
   192
  0
VERTEX
  8
front_plate_for_encasing_assuming_this_is_the_front
 10
9.002889
 20
-7.877527
 30
0.000000
 70
   192
  0
VERTEX
  8
front_plate_for_encasing_assuming_this_is_the_front
 10
9.002889
 20
-7.877527
 30
0.600000
 70
   192
  0
VERTEX
  8
front_plate_for_encasing_assuming_this_is_the_front
 10
10.202334
 20
-7.877527
 30
0.000000
 70
   192
  0
VERTEX
  8
front_plate_for_encasing_assuming_this_is_the_front
 10
10.202334
 20
-7.877527
 30
0.600000
 70
   192
  0
VERTEX
  8
front_plate_for_encasing_assuming_this_is_the_front
 10
10.202334
 20
-7.277805
 30
0.000000
 70
   192
  0
VERTEX
  8
front_plate_for_encasing_assuming_this_is_the_front
 10
10.202334
 20
-7.277805
 30
0.600000
 70
   192
  0
VERTEX
  8
front_plate_for_encasing_assuming_this_is_the_front
 10
11.401778
 20
-7.277805
 30
0.000000
 70
   192
  0
VERTEX
  8
front_plate_for_encasing_assuming_this_is_the_front
 10
11.401778
 20
-7.277805
 30
0.600000
 70
   192
  0
VERTEX
  8
front_plate_for_encasing_assuming_this_is_the_front
 10
11.401778
 20
-7.877527
 30
0.000000
 70
   192
  0
VERTEX
  8
front_plate_for_encasing_assuming_this_is_the_front
 10
11.401778
 20
-7.877527
 30
0.600000
 70
   192
  0
VERTEX
  8
front_plate_for_encasing_assuming_this_is_the_front
 10
12.573001
 20
-7.877527
 30
0.000000
 70
   192
  0
VERTEX
  8
front_plate_for_encasing_assuming_this_is_the_front
 10
12.573001
 20
-7.877527
 30
0.600000
 70
   192
  0
VERTEX
  8
front_plate_for_encasing_assuming_this_is_the_front
 10
12.573001
 20
-7.006166
 30
0.000000
 70
   192
  0
VERTEX
  8
front_plate_for_encasing_assuming_this_is_the_front
 10
12.573001
 20
-7.006166
 30
0.600000
 70
   192
  0
VERTEX
  8
front_plate_for_encasing_assuming_this_is_the_front
 10
11.973279
 20
-7.006166
 30
0.000000
 70
   192
  0
VERTEX
  8
front_plate_for_encasing_assuming_this_is_the_front
 10
11.973279
 20
-7.006166
 30
0.600000
 70
   192
  0
VERTEX
  8
front_plate_for_encasing_assuming_this_is_the_front
 10
11.973279
 20
-5.806721
 30
0.000000
 70
   192
  0
VERTEX
  8
front_plate_for_encasing_assuming_this_is_the_front
 10
11.973279
 20
-5.806721
 30
0.600000
 70
   192
  0
VERTEX
  8
front_plate_for_encasing_assuming_this_is_the_front
 10
12.573001
 20
-5.806721
 30
0.000000
 70
   192
  0
VERTEX
  8
front_plate_for_encasing_assuming_this_is_the_front
 10
12.573001
 20
-5.806721
 30
0.600000
 70
   192
  0
VERTEX
  8
front_plate_for_encasing_assuming_this_is_the_front
 10
12.573001
 20
-4.607277
 30
0.000000
 70
   192
  0
VERTEX
  8
front_plate_for_encasing_assuming_this_is_the_front
 10
12.573001
 20
-4.607277
 30
0.600000
 70
   192
  0
VERTEX
  8
front_plate_for_encasing_assuming_this_is_the_front
 10
11.973279
 20
-4.607277
 30
0.000000
 70
   192
  0
VERTEX
  8
front_plate_for_encasing_assuming_this_is_the_front
 10
11.973279
 20
-4.607277
 30
0.600000
 70
   192
  0
VERTEX
  8
front_plate_for_encasing_assuming_this_is_the_front
 10
11.973279
 20
-3.407832
 30
0.000000
 70
   192
  0
VERTEX
  8
front_plate_for_encasing_assuming_this_is_the_front
 10
11.973279
 20
-3.407832
 30
0.600000
 70
   192
  0
VERTEX
  8
front_plate_for_encasing_assuming_this_is_the_front
 10
12.573001
 20
-3.407832
 30
0.000000
 70
   192
  0
VERTEX
  8
front_plate_for_encasing_assuming_this_is_the_front
 10
12.573001
 20
-3.407832
 30
0.600000
 70
   192
  0
VERTEX
  8
front_plate_for_encasing_assuming_this_is_the_front
 10
12.573001
 20
-2.208388
 30
0.000000
 70
   192
  0
VERTEX
  8
front_plate_for_encasing_assuming_this_is_the_front
 10
12.573001
 20
-2.208388
 30
0.600000
 70
   192
  0
VERTEX
  8
front_plate_for_encasing_assuming_this_is_the_front
 10
11.973279
 20
-2.208388
 30
0.000000
 70
   192
  0
VERTEX
  8
front_plate_for_encasing_assuming_this_is_the_front
 10
11.973279
 20
-2.208388
 30
0.600000
 70
   192
  0
VERTEX
  8
front_plate_for_encasing_assuming_this_is_the_front
 10
11.973279
 20
-1.008944
 30
0.000000
 70
   192
  0
VERTEX
  8
front_plate_for_encasing_assuming_this_is_the_front
 10
11.973279
 20
-1.008944
 30
0.600000
 70
   192
  0
VERTEX
  8
front_plate_for_encasing_assuming_this_is_the_front
 10
12.573001
 20
-1.008944
 30
0.000000
 70
   192
  0
VERTEX
  8
front_plate_for_encasing_assuming_this_is_the_front
 10
12.573001
 20
-1.008944
 30
0.600000
 70
   192
  0
VERTEX
  8
front_plate_for_encasing_assuming_this_is_the_front
 10
12.573001
 20
0.190501
 30
0.000000
 70
   192
  0
VERTEX
  8
front_plate_for_encasing_assuming_this_is_the_front
 10
12.573001
 20
0.190501
 30
0.600000
 70
   192
  0
VERTEX
  8
front_plate_for_encasing_assuming_this_is_the_front
 10
11.973279
 20
0.190501
 30
0.000000
 70
   192
  0
VERTEX
  8
front_plate_for_encasing_assuming_this_is_the_front
 10
11.973279
 20
0.190501
 30
0.600000
 70
   192
  0
VERTEX
  8
front_plate_for_encasing_assuming_this_is_the_front
 10
11.973279
 20
1.389945
 30
0.000000
 70
   192
  0
VERTEX
  8
front_plate_for_encasing_assuming_this_is_the_front
 10
11.973279
 20
1.389945
 30
0.600000
 70
   192
  0
VERTEX
  8
front_plate_for_encasing_assuming_this_is_the_front
 10
12.573001
 20
1.389945
 30
0.000000
 70
   192
  0
VERTEX
  8
front_plate_for_encasing_assuming_this_is_the_front
 10
12.573001
 20
1.389945
 30
0.600000
 70
   192
  0
VERTEX
  8
front_plate_for_encasing_assuming_this_is_the_front
 10
-1.845028
 20
1.637595
 30
0.600000
 70
   192
  0
VERTEX
  8
front_plate_for_encasing_assuming_this_is_the_front
 10
-1.845028
 20
-7.277805
 30
0.600000
 70
   192
  0
VERTEX
  8
front_plate_for_encasing_assuming_this_is_the_front
 10
-1.845028
 20
1.637595
 30
0.000000
 70
   192
  0
VERTEX
  8
front_plate_for_encasing_assuming_this_is_the_front
 10
-1.845028
 20
-7.277805
 30
0.000000
 70
   192
  0
VERTEX
  8
front_plate_for_encasing_assuming_this_is_the_front
 10
-0.679999
 20
1.637595
 30
0.600000
 70
   192
  0
VERTEX
  8
front_plate_for_encasing_assuming_this_is_the_front
 10
-0.679999
 20
-0.922405
 30
0.600000
 70
   192
  0
VERTEX
  8
front_plate_for_encasing_assuming_this_is_the_front
 10
3.150001
 20
-0.922405
 30
0.600000
 70
   192
  0
VERTEX
  8
front_plate_for_encasing_assuming_this_is_the_front
 10
-0.679999
 20
1.637595
 30
0.000000
 70
   192
  0
VERTEX
  8
front_plate_for_encasing_assuming_this_is_the_front
 10
-0.679999
 20
-0.922405
 30
0.000000
 70
   192
  0
VERTEX
  8
front_plate_for_encasing_assuming_this_is_the_front
 10
3.150001
 20
-0.922405
 30
0.000000
 70
   192
  0
VERTEX
  8
front_plate_for_encasing_assuming_this_is_the_front
 62
   7
 10
0.0
 20
0.0
 30
0.0
 70
   128
 71
   1
 72
   4
 73
   3
  0
VERTEX
  8
front_plate_for_encasing_assuming_this_is_the_front
 62
   7
 10
0.0
 20
0.0
 30
0.0
 70
   128
 71
   1
 72
   3
 73
   2
  0
VERTEX
  8
front_plate_for_encasing_assuming_this_is_the_front
 62
   7
 10
0.0
 20
0.0
 30
0.0
 70
   128
 71
   5
 72
   8
 73
   7
  0
VERTEX
  8
front_plate_for_encasing_assuming_this_is_the_front
 62
   7
 10
0.0
 20
0.0
 30
0.0
 70
   128
 71
   5
 72
   7
 73
   6
  0
VERTEX
  8
front_plate_for_encasing_assuming_this_is_the_front
 62
   7
 10
0.0
 20
0.0
 30
0.0
 70
   128
 71
   6
 72
   7
 73
   10
  0
VERTEX
  8
front_plate_for_encasing_assuming_this_is_the_front
 62
   7
 10
0.0
 20
0.0
 30
0.0
 70
   128
 71
   6
 72
   10
 73
   9
  0
VERTEX
  8
front_plate_for_encasing_assuming_this_is_the_front
 62
   7
 10
0.0
 20
0.0
 30
0.0
 70
   128
 71
   9
 72
   10
 73
   12
  0
VERTEX
  8
front_plate_for_encasing_assuming_this_is_the_front
 62
   7
 10
0.0
 20
0.0
 30
0.0
 70
   128
 71
   9
 72
   12
 73
   11
  0
VERTEX
  8
front_plate_for_encasing_assuming_this_is_the_front
 62
   7
 10
0.0
 20
0.0
 30
0.0
 70
   128
 71
   11
 72
   12
 73
   14
  0
VERTEX
  8
front_plate_for_encasing_assuming_this_is_the_front
 62
   7
 10
0.0
 20
0.0
 30
0.0
 70
   128
 71
   11
 72
   14
 73
   13
  0
VERTEX
  8
front_plate_for_encasing_assuming_this_is_the_front
 62
   7
 10
0.0
 20
0.0
 30
0.0
 70
   128
 71
   13
 72
   14
 73
   16
  0
VERTEX
  8
front_plate_for_encasing_assuming_this_is_the_front
 62
   7
 10
0.0
 20
0.0
 30
0.0
 70
   128
 71
   13
 72
   16
 73
   15
  0
VERTEX
  8
front_plate_for_encasing_assuming_this_is_the_front
 62
   7
 10
0.0
 20
0.0
 30
0.0
 70
   128
 71
   15
 72
   16
 73
   18
  0
VERTEX
  8
front_plate_for_encasing_assuming_this_is_the_front
 62
   7
 10
0.0
 20
0.0
 30
0.0
 70
   128
 71
   15
 72
   18
 73
   17
  0
VERTEX
  8
front_plate_for_encasing_assuming_this_is_the_front
 62
   7
 10
0.0
 20
0.0
 30
0.0
 70
   128
 71
   17
 72
   18
 73
   20
  0
VERTEX
  8
front_plate_for_encasing_assuming_this_is_the_front
 62
   7
 10
0.0
 20
0.0
 30
0.0
 70
   128
 71
   17
 72
   20
 73
   19
  0
VERTEX
  8
front_plate_for_encasing_assuming_this_is_the_front
 62
   7
 10
0.0
 20
0.0
 30
0.0
 70
   128
 71
   19
 72
   20
 73
   22
  0
VERTEX
  8
front_plate_for_encasing_assuming_this_is_the_front
 62
   7
 10
0.0
 20
0.0
 30
0.0
 70
   128
 71
   19
 72
   22
 73
   21
  0
VERTEX
  8
front_plate_for_encasing_assuming_this_is_the_front
 62
   7
 10
0.0
 20
0.0
 30
0.0
 70
   128
 71
   21
 72
   22
 73
   24
  0
VERTEX
  8
front_plate_for_encasing_assuming_this_is_the_front
 62
   7
 10
0.0
 20
0.0
 30
0.0
 70
   128
 71
   21
 72
   24
 73
   23
  0
VERTEX
  8
front_plate_for_encasing_assuming_this_is_the_front
 62
   7
 10
0.0
 20
0.0
 30
0.0
 70
   128
 71
   23
 72
   24
 73
   26
  0
VERTEX
  8
front_plate_for_encasing_assuming_this_is_the_front
 62
   7
 10
0.0
 20
0.0
 30
0.0
 70
   128
 71
   23
 72
   26
 73
   25
  0
VERTEX
  8
front_plate_for_encasing_assuming_this_is_the_front
 62
   7
 10
0.0
 20
0.0
 30
0.0
 70
   128
 71
   25
 72
   26
 73
   28
  0
VERTEX
  8
front_plate_for_encasing_assuming_this_is_the_front
 62
   7
 10
0.0
 20
0.0
 30
0.0
 70
   128
 71
   25
 72
   28
 73
   27
  0
VERTEX
  8
front_plate_for_encasing_assuming_this_is_the_front
 62
   7
 10
0.0
 20
0.0
 30
0.0
 70
   128
 71
   27
 72
   28
 73
   30
  0
VERTEX
  8
front_plate_for_encasing_assuming_this_is_the_front
 62
   7
 10
0.0
 20
0.0
 30
0.0
 70
   128
 71
   27
 72
   30
 73
   29
  0
VERTEX
  8
front_plate_for_encasing_assuming_this_is_the_front
 62
   7
 10
0.0
 20
0.0
 30
0.0
 70
   128
 71
   29
 72
   30
 73
   32
  0
VERTEX
  8
front_plate_for_encasing_assuming_this_is_the_front
 62
   7
 10
0.0
 20
0.0
 30
0.0
 70
   128
 71
   29
 72
   32
 73
   31
  0
VERTEX
  8
front_plate_for_encasing_assuming_this_is_the_front
 62
   7
 10
0.0
 20
0.0
 30
0.0
 70
   128
 71
   31
 72
   32
 73
   34
  0
VERTEX
  8
front_plate_for_encasing_assuming_this_is_the_front
 62
   7
 10
0.0
 20
0.0
 30
0.0
 70
   128
 71
   31
 72
   34
 73
   33
  0
VERTEX
  8
front_plate_for_encasing_assuming_this_is_the_front
 62
   7
 10
0.0
 20
0.0
 30
0.0
 70
   128
 71
   33
 72
   34
 73
   36
  0
VERTEX
  8
front_plate_for_encasing_assuming_this_is_the_front
 62
   7
 10
0.0
 20
0.0
 30
0.0
 70
   128
 71
   33
 72
   36
 73
   35
  0
VERTEX
  8
front_plate_for_encasing_assuming_this_is_the_front
 62
   7
 10
0.0
 20
0.0
 30
0.0
 70
   128
 71
   35
 72
   36
 73
   38
  0
VERTEX
  8
front_plate_for_encasing_assuming_this_is_the_front
 62
   7
 10
0.0
 20
0.0
 30
0.0
 70
   128
 71
   35
 72
   38
 73
   37
  0
VERTEX
  8
front_plate_for_encasing_assuming_this_is_the_front
 62
   7
 10
0.0
 20
0.0
 30
0.0
 70
   128
 71
   37
 72
   38
 73
   40
  0
VERTEX
  8
front_plate_for_encasing_assuming_this_is_the_front
 62
   7
 10
0.0
 20
0.0
 30
0.0
 70
   128
 71
   37
 72
   40
 73
   39
  0
VERTEX
  8
front_plate_for_encasing_assuming_this_is_the_front
 62
   7
 10
0.0
 20
0.0
 30
0.0
 70
   128
 71
   39
 72
   40
 73
   42
  0
VERTEX
  8
front_plate_for_encasing_assuming_this_is_the_front
 62
   7
 10
0.0
 20
0.0
 30
0.0
 70
   128
 71
   39
 72
   42
 73
   41
  0
VERTEX
  8
front_plate_for_encasing_assuming_this_is_the_front
 62
   7
 10
0.0
 20
0.0
 30
0.0
 70
   128
 71
   41
 72
   42
 73
   44
  0
VERTEX
  8
front_plate_for_encasing_assuming_this_is_the_front
 62
   7
 10
0.0
 20
0.0
 30
0.0
 70
   128
 71
   41
 72
   44
 73
   43
  0
VERTEX
  8
front_plate_for_encasing_assuming_this_is_the_front
 62
   7
 10
0.0
 20
0.0
 30
0.0
 70
   128
 71
   43
 72
   44
 73
   46
  0
VERTEX
  8
front_plate_for_encasing_assuming_this_is_the_front
 62
   7
 10
0.0
 20
0.0
 30
0.0
 70
   128
 71
   43
 72
   46
 73
   45
  0
VERTEX
  8
front_plate_for_encasing_assuming_this_is_the_front
 62
   7
 10
0.0
 20
0.0
 30
0.0
 70
   128
 71
   45
 72
   46
 73
   48
  0
VERTEX
  8
front_plate_for_encasing_assuming_this_is_the_front
 62
   7
 10
0.0
 20
0.0
 30
0.0
 70
   128
 71
   45
 72
   48
 73
   47
  0
VERTEX
  8
front_plate_for_encasing_assuming_this_is_the_front
 62
   7
 10
0.0
 20
0.0
 30
0.0
 70
   128
 71
   47
 72
   48
 73
   50
  0
VERTEX
  8
front_plate_for_encasing_assuming_this_is_the_front
 62
   7
 10
0.0
 20
0.0
 30
0.0
 70
   128
 71
   47
 72
   50
 73
   49
  0
VERTEX
  8
front_plate_for_encasing_assuming_this_is_the_front
 62
   7
 10
0.0
 20
0.0
 30
0.0
 70
   128
 71
   49
 72
   50
 73
   52
  0
VERTEX
  8
front_plate_for_encasing_assuming_this_is_the_front
 62
   7
 10
0.0
 20
0.0
 30
0.0
 70
   128
 71
   49
 72
   52
 73
   51
  0
VERTEX
  8
front_plate_for_encasing_assuming_this_is_the_front
 62
   7
 10
0.0
 20
0.0
 30
0.0
 70
   128
 71
   51
 72
   52
 73
   54
  0
VERTEX
  8
front_plate_for_encasing_assuming_this_is_the_front
 62
   7
 10
0.0
 20
0.0
 30
0.0
 70
   128
 71
   51
 72
   54
 73
   53
  0
VERTEX
  8
front_plate_for_encasing_assuming_this_is_the_front
 62
   7
 10
0.0
 20
0.0
 30
0.0
 70
   128
 71
   53
 72
   54
 73
   56
  0
VERTEX
  8
front_plate_for_encasing_assuming_this_is_the_front
 62
   7
 10
0.0
 20
0.0
 30
0.0
 70
   128
 71
   53
 72
   56
 73
   55
  0
VERTEX
  8
front_plate_for_encasing_assuming_this_is_the_front
 62
   7
 10
0.0
 20
0.0
 30
0.0
 70
   128
 71
   55
 72
   56
 73
   58
  0
VERTEX
  8
front_plate_for_encasing_assuming_this_is_the_front
 62
   7
 10
0.0
 20
0.0
 30
0.0
 70
   128
 71
   55
 72
   58
 73
   57
  0
VERTEX
  8
front_plate_for_encasing_assuming_this_is_the_front
 62
   7
 10
0.0
 20
0.0
 30
0.0
 70
   128
 71
   57
 72
   58
 73
   60
  0
VERTEX
  8
front_plate_for_encasing_assuming_this_is_the_front
 62
   7
 10
0.0
 20
0.0
 30
0.0
 70
   128
 71
   57
 72
   60
 73
   59
  0
VERTEX
  8
front_plate_for_encasing_assuming_this_is_the_front
 62
   7
 10
0.0
 20
0.0
 30
0.0
 70
   128
 71
   59
 72
   60
 73
   62
  0
VERTEX
  8
front_plate_for_encasing_assuming_this_is_the_front
 62
   7
 10
0.0
 20
0.0
 30
0.0
 70
   128
 71
   59
 72
   62
 73
   61
  0
VERTEX
  8
front_plate_for_encasing_assuming_this_is_the_front
 62
   7
 10
0.0
 20
0.0
 30
0.0
 70
   128
 71
   61
 72
   62
 73
   64
  0
VERTEX
  8
front_plate_for_encasing_assuming_this_is_the_front
 62
   7
 10
0.0
 20
0.0
 30
0.0
 70
   128
 71
   61
 72
   64
 73
   63
  0
VERTEX
  8
front_plate_for_encasing_assuming_this_is_the_front
 62
   7
 10
0.0
 20
0.0
 30
0.0
 70
   128
 71
   63
 72
   64
 73
   66
  0
VERTEX
  8
front_plate_for_encasing_assuming_this_is_the_front
 62
   7
 10
0.0
 20
0.0
 30
0.0
 70
   128
 71
   63
 72
   66
 73
   65
  0
VERTEX
  8
front_plate_for_encasing_assuming_this_is_the_front
 62
   7
 10
0.0
 20
0.0
 30
0.0
 70
   128
 71
   65
 72
   66
 73
   68
  0
VERTEX
  8
front_plate_for_encasing_assuming_this_is_the_front
 62
   7
 10
0.0
 20
0.0
 30
0.0
 70
   128
 71
   65
 72
   68
 73
   67
  0
VERTEX
  8
front_plate_for_encasing_assuming_this_is_the_front
 62
   7
 10
0.0
 20
0.0
 30
0.0
 70
   128
 71
   67
 72
   68
 73
   70
  0
VERTEX
  8
front_plate_for_encasing_assuming_this_is_the_front
 62
   7
 10
0.0
 20
0.0
 30
0.0
 70
   128
 71
   67
 72
   70
 73
   69
  0
VERTEX
  8
front_plate_for_encasing_assuming_this_is_the_front
 62
   7
 10
0.0
 20
0.0
 30
0.0
 70
   128
 71
   69
 72
   70
 73
   72
  0
VERTEX
  8
front_plate_for_encasing_assuming_this_is_the_front
 62
   7
 10
0.0
 20
0.0
 30
0.0
 70
   128
 71
   69
 72
   72
 73
   71
  0
VERTEX
  8
front_plate_for_encasing_assuming_this_is_the_front
 62
   7
 10
0.0
 20
0.0
 30
0.0
 70
   128
 71
   71
 72
   72
 73
   74
  0
VERTEX
  8
front_plate_for_encasing_assuming_this_is_the_front
 62
   7
 10
0.0
 20
0.0
 30
0.0
 70
   128
 71
   71
 72
   74
 73
   73
  0
VERTEX
  8
front_plate_for_encasing_assuming_this_is_the_front
 62
   7
 10
0.0
 20
0.0
 30
0.0
 70
   128
 71
   73
 72
   74
 73
   76
  0
VERTEX
  8
front_plate_for_encasing_assuming_this_is_the_front
 62
   7
 10
0.0
 20
0.0
 30
0.0
 70
   128
 71
   73
 72
   76
 73
   75
  0
VERTEX
  8
front_plate_for_encasing_assuming_this_is_the_front
 62
   7
 10
0.0
 20
0.0
 30
0.0
 70
   128
 71
   75
 72
   76
 73
   78
  0
VERTEX
  8
front_plate_for_encasing_assuming_this_is_the_front
 62
   7
 10
0.0
 20
0.0
 30
0.0
 70
   128
 71
   75
 72
   78
 73
   77
  0
VERTEX
  8
front_plate_for_encasing_assuming_this_is_the_front
 62
   7
 10
0.0
 20
0.0
 30
0.0
 70
   128
 71
   77
 72
   78
 73
   80
  0
VERTEX
  8
front_plate_for_encasing_assuming_this_is_the_front
 62
   7
 10
0.0
 20
0.0
 30
0.0
 70
   128
 71
   77
 72
   80
 73
   79
  0
VERTEX
  8
front_plate_for_encasing_assuming_this_is_the_front
 62
   7
 10
0.0
 20
0.0
 30
0.0
 70
   128
 71
   79
 72
   80
 73
   82
  0
VERTEX
  8
front_plate_for_encasing_assuming_this_is_the_front
 62
   7
 10
0.0
 20
0.0
 30
0.0
 70
   128
 71
   79
 72
   82
 73
   81
  0
VERTEX
  8
front_plate_for_encasing_assuming_this_is_the_front
 62
   7
 10
0.0
 20
0.0
 30
0.0
 70
   128
 71
   81
 72
   82
 73
   3
  0
VERTEX
  8
front_plate_for_encasing_assuming_this_is_the_front
 62
   7
 10
0.0
 20
0.0
 30
0.0
 70
   128
 71
   81
 72
   3
 73
   4
  0
VERTEX
  8
front_plate_for_encasing_assuming_this_is_the_front
 62
   7
 10
0.0
 20
0.0
 30
0.0
 70
   128
 71
   84
 72
   86
 73
   85
  0
VERTEX
  8
front_plate_for_encasing_assuming_this_is_the_front
 62
   7
 10
0.0
 20
0.0
 30
0.0
 70
   128
 71
   84
 72
   85
 73
   83
  0
VERTEX
  8
front_plate_for_encasing_assuming_this_is_the_front
 62
   7
 10
0.0
 20
0.0
 30
0.0
 70
   128
 71
   86
 72
   84
 73
   8
  0
VERTEX
  8
front_plate_for_encasing_assuming_this_is_the_front
 62
   7
 10
0.0
 20
0.0
 30
0.0
 70
   128
 71
   86
 72
   8
 73
   5
  0
VERTEX
  8
front_plate_for_encasing_assuming_this_is_the_front
 62
   7
 10
0.0
 20
0.0
 30
0.0
 70
   128
 71
   10
 72
   8
 73
   12
  0
VERTEX
  8
front_plate_for_encasing_assuming_this_is_the_front
 62
   7
 10
0.0
 20
0.0
 30
0.0
 70
   128
 71
   88
 72
   84
 73
   83
  0
VERTEX
  8
front_plate_for_encasing_assuming_this_is_the_front
 62
   7
 10
0.0
 20
0.0
 30
0.0
 70
   128
 71
   87
 72
   88
 73
   83
  0
VERTEX
  8
front_plate_for_encasing_assuming_this_is_the_front
 62
   7
 10
0.0
 20
0.0
 30
0.0
 70
   128
 71
   62
 72
   38
 73
   64
  0
VERTEX
  8
front_plate_for_encasing_assuming_this_is_the_front
 62
   7
 10
0.0
 20
0.0
 30
0.0
 70
   128
 71
   84
 72
   88
 73
   8
  0
VERTEX
  8
front_plate_for_encasing_assuming_this_is_the_front
 62
   7
 10
0.0
 20
0.0
 30
0.0
 70
   128
 71
   8
 72
   88
 73
   12
  0
VERTEX
  8
front_plate_for_encasing_assuming_this_is_the_front
 62
   7
 10
0.0
 20
0.0
 30
0.0
 70
   128
 71
   7
 72
   8
 73
   10
  0
VERTEX
  8
front_plate_for_encasing_assuming_this_is_the_front
 62
   7
 10
0.0
 20
0.0
 30
0.0
 70
   128
 71
   12
 72
   88
 73
   14
  0
VERTEX
  8
front_plate_for_encasing_assuming_this_is_the_front
 62
   7
 10
0.0
 20
0.0
 30
0.0
 70
   128
 71
   14
 72
   88
 73
   89
  0
VERTEX
  8
front_plate_for_encasing_assuming_this_is_the_front
 62
   7
 10
0.0
 20
0.0
 30
0.0
 70
   128
 71
   16
 72
   14
 73
   18
  0
VERTEX
  8
front_plate_for_encasing_assuming_this_is_the_front
 62
   7
 10
0.0
 20
0.0
 30
0.0
 70
   128
 71
   18
 72
   14
 73
   20
  0
VERTEX
  8
front_plate_for_encasing_assuming_this_is_the_front
 62
   7
 10
0.0
 20
0.0
 30
0.0
 70
   128
 71
   20
 72
   14
 73
   89
  0
VERTEX
  8
front_plate_for_encasing_assuming_this_is_the_front
 62
   7
 10
0.0
 20
0.0
 30
0.0
 70
   128
 71
   24
 72
   22
 73
   26
  0
VERTEX
  8
front_plate_for_encasing_assuming_this_is_the_front
 62
   7
 10
0.0
 20
0.0
 30
0.0
 70
   128
 71
   26
 72
   22
 73
   28
  0
VERTEX
  8
front_plate_for_encasing_assuming_this_is_the_front
 62
   7
 10
0.0
 20
0.0
 30
0.0
 70
   128
 71
   70
 72
   36
 73
   89
  0
VERTEX
  8
front_plate_for_encasing_assuming_this_is_the_front
 62
   7
 10
0.0
 20
0.0
 30
0.0
 70
   128
 71
   28
 72
   22
 73
   89
  0
VERTEX
  8
front_plate_for_encasing_assuming_this_is_the_front
 62
   7
 10
0.0
 20
0.0
 30
0.0
 70
   128
 71
   89
 72
   78
 73
   72
  0
VERTEX
  8
front_plate_for_encasing_assuming_this_is_the_front
 62
   7
 10
0.0
 20
0.0
 30
0.0
 70
   128
 71
   32
 72
   30
 73
   34
  0
VERTEX
  8
front_plate_for_encasing_assuming_this_is_the_front
 62
   7
 10
0.0
 20
0.0
 30
0.0
 70
   128
 71
   34
 72
   30
 73
   36
  0
VERTEX
  8
front_plate_for_encasing_assuming_this_is_the_front
 62
   7
 10
0.0
 20
0.0
 30
0.0
 70
   128
 71
   36
 72
   30
 73
   89
  0
VERTEX
  8
front_plate_for_encasing_assuming_this_is_the_front
 62
   7
 10
0.0
 20
0.0
 30
0.0
 70
   128
 71
   38
 72
   36
 73
   64
  0
VERTEX
  8
front_plate_for_encasing_assuming_this_is_the_front
 62
   7
 10
0.0
 20
0.0
 30
0.0
 70
   128
 71
   40
 72
   38
 73
   42
  0
VERTEX
  8
front_plate_for_encasing_assuming_this_is_the_front
 62
   7
 10
0.0
 20
0.0
 30
0.0
 70
   128
 71
   42
 72
   38
 73
   44
  0
VERTEX
  8
front_plate_for_encasing_assuming_this_is_the_front
 62
   7
 10
0.0
 20
0.0
 30
0.0
 70
   128
 71
   46
 72
   56
 73
   54
  0
VERTEX
  8
front_plate_for_encasing_assuming_this_is_the_front
 62
   7
 10
0.0
 20
0.0
 30
0.0
 70
   128
 71
   46
 72
   44
 73
   56
  0
VERTEX
  8
front_plate_for_encasing_assuming_this_is_the_front
 62
   7
 10
0.0
 20
0.0
 30
0.0
 70
   128
 71
   48
 72
   46
 73
   54
  0
VERTEX
  8
front_plate_for_encasing_assuming_this_is_the_front
 62
   7
 10
0.0
 20
0.0
 30
0.0
 70
   128
 71
   50
 72
   48
 73
   54
  0
VERTEX
  8
front_plate_for_encasing_assuming_this_is_the_front
 62
   7
 10
0.0
 20
0.0
 30
0.0
 70
   128
 71
   44
 72
   38
 73
   62
  0
VERTEX
  8
front_plate_for_encasing_assuming_this_is_the_front
 62
   7
 10
0.0
 20
0.0
 30
0.0
 70
   128
 71
   52
 72
   50
 73
   54
  0
VERTEX
  8
front_plate_for_encasing_assuming_this_is_the_front
 62
   7
 10
0.0
 20
0.0
 30
0.0
 70
   128
 71
   56
 72
   44
 73
   62
  0
VERTEX
  8
front_plate_for_encasing_assuming_this_is_the_front
 62
   7
 10
0.0
 20
0.0
 30
0.0
 70
   128
 71
   58
 72
   56
 73
   60
  0
VERTEX
  8
front_plate_for_encasing_assuming_this_is_the_front
 62
   7
 10
0.0
 20
0.0
 30
0.0
 70
   128
 71
   30
 72
   28
 73
   89
  0
VERTEX
  8
front_plate_for_encasing_assuming_this_is_the_front
 62
   7
 10
0.0
 20
0.0
 30
0.0
 70
   128
 71
   60
 72
   56
 73
   62
  0
VERTEX
  8
front_plate_for_encasing_assuming_this_is_the_front
 62
   7
 10
0.0
 20
0.0
 30
0.0
 70
   128
 71
   66
 72
   64
 73
   68
  0
VERTEX
  8
front_plate_for_encasing_assuming_this_is_the_front
 62
   7
 10
0.0
 20
0.0
 30
0.0
 70
   128
 71
   64
 72
   36
 73
   70
  0
VERTEX
  8
front_plate_for_encasing_assuming_this_is_the_front
 62
   7
 10
0.0
 20
0.0
 30
0.0
 70
   128
 71
   68
 72
   64
 73
   70
  0
VERTEX
  8
front_plate_for_encasing_assuming_this_is_the_front
 62
   7
 10
0.0
 20
0.0
 30
0.0
 70
   128
 71
   74
 72
   72
 73
   76
  0
VERTEX
  8
front_plate_for_encasing_assuming_this_is_the_front
 62
   7
 10
0.0
 20
0.0
 30
0.0
 70
   128
 71
   72
 72
   70
 73
   89
  0
VERTEX
  8
front_plate_for_encasing_assuming_this_is_the_front
 62
   7
 10
0.0
 20
0.0
 30
0.0
 70
   128
 71
   76
 72
   72
 73
   78
  0
VERTEX
  8
front_plate_for_encasing_assuming_this_is_the_front
 62
   7
 10
0.0
 20
0.0
 30
0.0
 70
   128
 71
   80
 72
   2
 73
   3
  0
VERTEX
  8
front_plate_for_encasing_assuming_this_is_the_front
 62
   7
 10
0.0
 20
0.0
 30
0.0
 70
   128
 71
   82
 72
   80
 73
   3
  0
VERTEX
  8
front_plate_for_encasing_assuming_this_is_the_front
 62
   7
 10
0.0
 20
0.0
 30
0.0
 70
   128
 71
   80
 72
   78
 73
   2
  0
VERTEX
  8
front_plate_for_encasing_assuming_this_is_the_front
 62
   7
 10
0.0
 20
0.0
 30
0.0
 70
   128
 71
   22
 72
   20
 73
   89
  0
VERTEX
  8
front_plate_for_encasing_assuming_this_is_the_front
 62
   7
 10
0.0
 20
0.0
 30
0.0
 70
   128
 71
   2
 72
   78
 73
   89
  0
VERTEX
  8
front_plate_for_encasing_assuming_this_is_the_front
 62
   7
 10
0.0
 20
0.0
 30
0.0
 70
   128
 71
   85
 72
   86
 73
   91
  0
VERTEX
  8
front_plate_for_encasing_assuming_this_is_the_front
 62
   7
 10
0.0
 20
0.0
 30
0.0
 70
   128
 71
   5
 72
   6
 73
   9
  0
VERTEX
  8
front_plate_for_encasing_assuming_this_is_the_front
 62
   7
 10
0.0
 20
0.0
 30
0.0
 70
   128
 71
   5
 72
   9
 73
   11
  0
VERTEX
  8
front_plate_for_encasing_assuming_this_is_the_front
 62
   7
 10
0.0
 20
0.0
 30
0.0
 70
   128
 71
   11
 72
   91
 73
   5
  0
VERTEX
  8
front_plate_for_encasing_assuming_this_is_the_front
 62
   7
 10
0.0
 20
0.0
 30
0.0
 70
   128
 71
   13
 72
   15
 73
   17
  0
VERTEX
  8
front_plate_for_encasing_assuming_this_is_the_front
 62
   7
 10
0.0
 20
0.0
 30
0.0
 70
   128
 71
   13
 72
   17
 73
   19
  0
VERTEX
  8
front_plate_for_encasing_assuming_this_is_the_front
 62
   7
 10
0.0
 20
0.0
 30
0.0
 70
   128
 71
   13
 72
   91
 73
   11
  0
VERTEX
  8
front_plate_for_encasing_assuming_this_is_the_front
 62
   7
 10
0.0
 20
0.0
 30
0.0
 70
   128
 71
   13
 72
   19
 73
   92
  0
VERTEX
  8
front_plate_for_encasing_assuming_this_is_the_front
 62
   7
 10
0.0
 20
0.0
 30
0.0
 70
   128
 71
   21
 72
   23
 73
   25
  0
VERTEX
  8
front_plate_for_encasing_assuming_this_is_the_front
 62
   7
 10
0.0
 20
0.0
 30
0.0
 70
   128
 71
   37
 72
   61
 73
   63
  0
VERTEX
  8
front_plate_for_encasing_assuming_this_is_the_front
 62
   7
 10
0.0
 20
0.0
 30
0.0
 70
   128
 71
   21
 72
   25
 73
   27
  0
VERTEX
  8
front_plate_for_encasing_assuming_this_is_the_front
 62
   7
 10
0.0
 20
0.0
 30
0.0
 70
   128
 71
   21
 72
   27
 73
   92
  0
VERTEX
  8
front_plate_for_encasing_assuming_this_is_the_front
 62
   7
 10
0.0
 20
0.0
 30
0.0
 70
   128
 71
   35
 72
   69
 73
   92
  0
VERTEX
  8
front_plate_for_encasing_assuming_this_is_the_front
 62
   7
 10
0.0
 20
0.0
 30
0.0
 70
   128
 71
   29
 72
   31
 73
   33
  0
VERTEX
  8
front_plate_for_encasing_assuming_this_is_the_front
 62
   7
 10
0.0
 20
0.0
 30
0.0
 70
   128
 71
   29
 72
   33
 73
   35
  0
VERTEX
  8
front_plate_for_encasing_assuming_this_is_the_front
 62
   7
 10
0.0
 20
0.0
 30
0.0
 70
   128
 71
   29
 72
   35
 73
   92
  0
VERTEX
  8
front_plate_for_encasing_assuming_this_is_the_front
 62
   7
 10
0.0
 20
0.0
 30
0.0
 70
   128
 71
   35
 72
   37
 73
   63
  0
VERTEX
  8
front_plate_for_encasing_assuming_this_is_the_front
 62
   7
 10
0.0
 20
0.0
 30
0.0
 70
   128
 71
   37
 72
   39
 73
   41
  0
VERTEX
  8
front_plate_for_encasing_assuming_this_is_the_front
 62
   7
 10
0.0
 20
0.0
 30
0.0
 70
   128
 71
   37
 72
   41
 73
   43
  0
VERTEX
  8
front_plate_for_encasing_assuming_this_is_the_front
 62
   7
 10
0.0
 20
0.0
 30
0.0
 70
   128
 71
   55
 72
   45
 73
   53
  0
VERTEX
  8
front_plate_for_encasing_assuming_this_is_the_front
 62
   7
 10
0.0
 20
0.0
 30
0.0
 70
   128
 71
   43
 72
   45
 73
   55
  0
VERTEX
  8
front_plate_for_encasing_assuming_this_is_the_front
 62
   7
 10
0.0
 20
0.0
 30
0.0
 70
   128
 71
   45
 72
   47
 73
   53
  0
VERTEX
  8
front_plate_for_encasing_assuming_this_is_the_front
 62
   7
 10
0.0
 20
0.0
 30
0.0
 70
   128
 71
   47
 72
   49
 73
   53
  0
VERTEX
  8
front_plate_for_encasing_assuming_this_is_the_front
 62
   7
 10
0.0
 20
0.0
 30
0.0
 70
   128
 71
   37
 72
   43
 73
   61
  0
VERTEX
  8
front_plate_for_encasing_assuming_this_is_the_front
 62
   7
 10
0.0
 20
0.0
 30
0.0
 70
   128
 71
   49
 72
   51
 73
   53
  0
VERTEX
  8
front_plate_for_encasing_assuming_this_is_the_front
 62
   7
 10
0.0
 20
0.0
 30
0.0
 70
   128
 71
   43
 72
   55
 73
   61
  0
VERTEX
  8
front_plate_for_encasing_assuming_this_is_the_front
 62
   7
 10
0.0
 20
0.0
 30
0.0
 70
   128
 71
   55
 72
   57
 73
   59
  0
VERTEX
  8
front_plate_for_encasing_assuming_this_is_the_front
 62
   7
 10
0.0
 20
0.0
 30
0.0
 70
   128
 71
   27
 72
   29
 73
   92
  0
VERTEX
  8
front_plate_for_encasing_assuming_this_is_the_front
 62
   7
 10
0.0
 20
0.0
 30
0.0
 70
   128
 71
   55
 72
   59
 73
   61
  0
VERTEX
  8
front_plate_for_encasing_assuming_this_is_the_front
 62
   7
 10
0.0
 20
0.0
 30
0.0
 70
   128
 71
   71
 72
   77
 73
   92
  0
VERTEX
  8
front_plate_for_encasing_assuming_this_is_the_front
 62
   7
 10
0.0
 20
0.0
 30
0.0
 70
   128
 71
   63
 72
   65
 73
   67
  0
VERTEX
  8
front_plate_for_encasing_assuming_this_is_the_front
 62
   7
 10
0.0
 20
0.0
 30
0.0
 70
   128
 71
   35
 72
   63
 73
   69
  0
VERTEX
  8
front_plate_for_encasing_assuming_this_is_the_front
 62
   7
 10
0.0
 20
0.0
 30
0.0
 70
   128
 71
   63
 72
   67
 73
   69
  0
VERTEX
  8
front_plate_for_encasing_assuming_this_is_the_front
 62
   7
 10
0.0
 20
0.0
 30
0.0
 70
   128
 71
   71
 72
   73
 73
   75
  0
VERTEX
  8
front_plate_for_encasing_assuming_this_is_the_front
 62
   7
 10
0.0
 20
0.0
 30
0.0
 70
   128
 71
   69
 72
   71
 73
   92
  0
VERTEX
  8
front_plate_for_encasing_assuming_this_is_the_front
 62
   7
 10
0.0
 20
0.0
 30
0.0
 70
   128
 71
   71
 72
   75
 73
   77
  0
VERTEX
  8
front_plate_for_encasing_assuming_this_is_the_front
 62
   7
 10
0.0
 20
0.0
 30
0.0
 70
   128
 71
   1
 72
   79
 73
   4
  0
VERTEX
  8
front_plate_for_encasing_assuming_this_is_the_front
 62
   7
 10
0.0
 20
0.0
 30
0.0
 70
   128
 71
   79
 72
   81
 73
   4
  0
VERTEX
  8
front_plate_for_encasing_assuming_this_is_the_front
 62
   7
 10
0.0
 20
0.0
 30
0.0
 70
   128
 71
   77
 72
   79
 73
   1
  0
VERTEX
  8
front_plate_for_encasing_assuming_this_is_the_front
 62
   7
 10
0.0
 20
0.0
 30
0.0
 70
   128
 71
   19
 72
   21
 73
   92
  0
VERTEX
  8
front_plate_for_encasing_assuming_this_is_the_front
 62
   7
 10
0.0
 20
0.0
 30
0.0
 70
   128
 71
   77
 72
   1
 73
   92
  0
VERTEX
  8
front_plate_for_encasing_assuming_this_is_the_front
 62
   7
 10
0.0
 20
0.0
 30
0.0
 70
   128
 71
   86
 72
   5
 73
   91
  0
VERTEX
  8
front_plate_for_encasing_assuming_this_is_the_front
 62
   7
 10
0.0
 20
0.0
 30
0.0
 70
   128
 71
   13
 72
   92
 73
   91
  0
VERTEX
  8
front_plate_for_encasing_assuming_this_is_the_front
 62
   7
 10
0.0
 20
0.0
 30
0.0
 70
   128
 71
   85
 72
   91
 73
   90
  0
VERTEX
  8
front_plate_for_encasing_assuming_this_is_the_front
 62
   7
 10
0.0
 20
0.0
 30
0.0
 70
   128
 71
   83
 72
   85
 73
   90
  0
VERTEX
  8
front_plate_for_encasing_assuming_this_is_the_front
 62
   7
 10
0.0
 20
0.0
 30
0.0
 70
   128
 71
   83
 72
   90
 73
   87
  0
VERTEX
  8
front_plate_for_encasing_assuming_this_is_the_front
 62
   7
 10
0.0
 20
0.0
 30
0.0
 70
   128
 71
   87
 72
   90
 73
   91
  0
VERTEX
  8
front_plate_for_encasing_assuming_this_is_the_front
 62
   7
 10
0.0
 20
0.0
 30
0.0
 70
   128
 71
   87
 72
   91
 73
   88
  0
VERTEX
  8
front_plate_for_encasing_assuming_this_is_the_front
 62
   7
 10
0.0
 20
0.0
 30
0.0
 70
   128
 71
   2
 72
   89
 73
   1
  0
VERTEX
  8
front_plate_for_encasing_assuming_this_is_the_front
 62
   7
 10
0.0
 20
0.0
 30
0.0
 70
   128
 71
   1
 72
   89
 73
   92
  0
VERTEX
  8
front_plate_for_encasing_assuming_this_is_the_front
 62
   7
 10
0.0
 20
0.0
 30
0.0
 70
   128
 71
   88
 72
   91
 73
   92
  0
VERTEX
  8
front_plate_for_encasing_assuming_this_is_the_front
 62
   7
 10
0.0
 20
0.0
 30
0.0
 70
   128
 71
   88
 72
   92
 73
   89
  0
SEQEND
  0
ENDSEC
  0
EOF
