999
FBX AutoCAD (*.DXF) exporter
  0
SECTION
  2
HEADER
  9
$ACADVER
  1
AC1008
  9
$UCSORG
 10
0.0
 20
0.0
 30
0.0
  9
$UCSXDIR
 10
1.0
 20
0.0
 30
0.0
  9
$TILEMODE
 70
   1
  9
$UCSYDIR
 10
0.0
 20
1.0
 30
0.0
  0
ENDSEC
  0
SECTION
  2
TABLES
  0
TABLE
  2
LTYPE
 70
   1
  0
LTYPE
  2
CONTINUOUS
 70
   64
  3
Solid line
 72
   65
 73
   0
 40
0.0
  0
ENDTAB
  0
TABLE
  2
LAYER
 70
   1
  0
LAYER
  2
front_piece
 70
   0
 62
   7
  6
CONTINUOUS
  0
ENDTAB
  0
ENDSEC
  0
SECTION
  2
BLOCKS
  0
ENDSEC
  0
SECTION
  2
ENTITIES
  0
POLYLINE
  8
front_piece
 62
   7
 66
   1
 10
0.0
 20
0.0
 30
0.0
 70
   64
 71
   455
 72
   900
  0
VERTEX
  8
front_piece
 10
1.778000
 20
-0.000000
 30
-2.540000
 70
   192
  0
VERTEX
  8
front_piece
 10
2.032000
 20
-0.000000
 30
-2.540000
 70
   192
  0
VERTEX
  8
front_piece
 10
1.778000
 20
-0.000000
 30
0.000000
 70
   192
  0
VERTEX
  8
front_piece
 10
-1.892007
 20
-0.698657
 30
-1.917406
 70
   192
  0
VERTEX
  8
front_piece
 10
-1.895567
 20
-0.690209
 30
-1.926405
 70
   192
  0
VERTEX
  8
front_piece
 10
1.270000
 20
-0.000000
 30
0.000000
 70
   192
  0
VERTEX
  8
front_piece
 10
1.905000
 20
-0.000000
 30
3.810000
 70
   192
  0
VERTEX
  8
front_piece
 10
-1.627597
 20
0.000000
 30
3.810000
 70
   192
  0
VERTEX
  8
front_piece
 10
1.568435
 20
-0.000000
 30
-0.254000
 70
   192
  0
VERTEX
  8
front_piece
 10
-1.622296
 20
-0.690209
 30
-1.926405
 70
   192
  0
VERTEX
  8
front_piece
 10
-1.041478
 20
0.000000
 30
-0.254000
 70
   192
  0
VERTEX
  8
front_piece
 10
1.750988
 20
0.308746
 30
-2.540000
 70
   192
  0
VERTEX
  8
front_piece
 10
1.670773
 20
0.608112
 30
-2.540000
 70
   192
  0
VERTEX
  8
front_piece
 10
1.539793
 20
0.889000
 30
-2.540000
 70
   192
  0
VERTEX
  8
front_piece
 10
1.362027
 20
1.142876
 30
-2.540000
 70
   192
  0
VERTEX
  8
front_piece
 10
1.142876
 20
1.362027
 30
-2.540000
 70
   192
  0
VERTEX
  8
front_piece
 10
0.889000
 20
1.539793
 30
-2.540000
 70
   192
  0
VERTEX
  8
front_piece
 10
0.608112
 20
1.670773
 30
-2.540000
 70
   192
  0
VERTEX
  8
front_piece
 10
0.308746
 20
1.750988
 30
-2.540000
 70
   192
  0
VERTEX
  8
front_piece
 10
0.000000
 20
1.778000
 30
-2.540000
 70
   192
  0
VERTEX
  8
front_piece
 10
-0.308746
 20
1.750988
 30
-2.540000
 70
   192
  0
VERTEX
  8
front_piece
 10
-0.608112
 20
1.670773
 30
-2.540000
 70
   192
  0
VERTEX
  8
front_piece
 10
-0.889000
 20
1.539793
 30
-2.540000
 70
   192
  0
VERTEX
  8
front_piece
 10
-1.142876
 20
1.362027
 30
-2.540000
 70
   192
  0
VERTEX
  8
front_piece
 10
-1.362027
 20
1.142876
 30
-2.540000
 70
   192
  0
VERTEX
  8
front_piece
 10
-1.539793
 20
0.889000
 30
-2.540000
 70
   192
  0
VERTEX
  8
front_piece
 10
-1.670773
 20
0.608112
 30
-2.540000
 70
   192
  0
VERTEX
  8
front_piece
 10
-1.750988
 20
0.308746
 30
-2.540000
 70
   192
  0
VERTEX
  8
front_piece
 10
-1.778000
 20
0.000000
 30
-2.540000
 70
   192
  0
VERTEX
  8
front_piece
 10
-1.750988
 20
-0.308746
 30
-2.540000
 70
   192
  0
VERTEX
  8
front_piece
 10
-1.670773
 20
-0.608112
 30
-2.540000
 70
   192
  0
VERTEX
  8
front_piece
 10
-1.539793
 20
-0.889000
 30
-2.540000
 70
   192
  0
VERTEX
  8
front_piece
 10
-1.362027
 20
-1.142876
 30
-2.540000
 70
   192
  0
VERTEX
  8
front_piece
 10
-1.142876
 20
-1.362027
 30
-2.540000
 70
   192
  0
VERTEX
  8
front_piece
 10
-0.889000
 20
-1.539793
 30
-2.540000
 70
   192
  0
VERTEX
  8
front_piece
 10
-0.608112
 20
-1.670773
 30
-2.540000
 70
   192
  0
VERTEX
  8
front_piece
 10
-0.308746
 20
-1.750988
 30
-2.540000
 70
   192
  0
VERTEX
  8
front_piece
 10
-0.000000
 20
-1.778000
 30
-2.540000
 70
   192
  0
VERTEX
  8
front_piece
 10
0.308746
 20
-1.750988
 30
-2.540000
 70
   192
  0
VERTEX
  8
front_piece
 10
0.608112
 20
-1.670773
 30
-2.540000
 70
   192
  0
VERTEX
  8
front_piece
 10
0.889000
 20
-1.539793
 30
-2.540000
 70
   192
  0
VERTEX
  8
front_piece
 10
1.142876
 20
-1.362027
 30
-2.540000
 70
   192
  0
VERTEX
  8
front_piece
 10
1.362027
 20
-1.142876
 30
-2.540000
 70
   192
  0
VERTEX
  8
front_piece
 10
1.539793
 20
-0.889000
 30
-2.540000
 70
   192
  0
VERTEX
  8
front_piece
 10
1.670773
 20
-0.608112
 30
-2.540000
 70
   192
  0
VERTEX
  8
front_piece
 10
1.750988
 20
-0.308746
 30
-2.540000
 70
   192
  0
VERTEX
  8
front_piece
 10
2.001129
 20
0.352853
 30
-2.540000
 70
   192
  0
VERTEX
  8
front_piece
 10
1.909455
 20
0.694985
 30
-2.540000
 70
   192
  0
VERTEX
  8
front_piece
 10
1.759764
 20
1.016000
 30
-2.540000
 70
   192
  0
VERTEX
  8
front_piece
 10
1.556602
 20
1.306144
 30
-2.540000
 70
   192
  0
VERTEX
  8
front_piece
 10
1.306144
 20
1.556602
 30
-2.540000
 70
   192
  0
VERTEX
  8
front_piece
 10
1.016000
 20
1.759764
 30
-2.540000
 70
   192
  0
VERTEX
  8
front_piece
 10
0.694985
 20
1.909455
 30
-2.540000
 70
   192
  0
VERTEX
  8
front_piece
 10
0.352853
 20
2.001129
 30
-2.540000
 70
   192
  0
VERTEX
  8
front_piece
 10
0.000000
 20
2.032000
 30
-2.540000
 70
   192
  0
VERTEX
  8
front_piece
 10
-0.352853
 20
2.001129
 30
-2.540000
 70
   192
  0
VERTEX
  8
front_piece
 10
-0.694985
 20
1.909455
 30
-2.540000
 70
   192
  0
VERTEX
  8
front_piece
 10
-1.016000
 20
1.759764
 30
-2.540000
 70
   192
  0
VERTEX
  8
front_piece
 10
-1.306144
 20
1.556602
 30
-2.540000
 70
   192
  0
VERTEX
  8
front_piece
 10
-1.556602
 20
1.306144
 30
-2.540000
 70
   192
  0
VERTEX
  8
front_piece
 10
-1.759764
 20
1.016000
 30
-2.540000
 70
   192
  0
VERTEX
  8
front_piece
 10
-1.909455
 20
0.694985
 30
-2.540000
 70
   192
  0
VERTEX
  8
front_piece
 10
-2.001129
 20
0.352853
 30
-2.540000
 70
   192
  0
VERTEX
  8
front_piece
 10
-2.032000
 20
0.000000
 30
-2.540000
 70
   192
  0
VERTEX
  8
front_piece
 10
-2.001129
 20
-0.352853
 30
-2.540000
 70
   192
  0
VERTEX
  8
front_piece
 10
-1.909455
 20
-0.694985
 30
-2.540000
 70
   192
  0
VERTEX
  8
front_piece
 10
-1.759764
 20
-1.016000
 30
-2.540000
 70
   192
  0
VERTEX
  8
front_piece
 10
-1.556602
 20
-1.306144
 30
-2.540000
 70
   192
  0
VERTEX
  8
front_piece
 10
-1.306144
 20
-1.556602
 30
-2.540000
 70
   192
  0
VERTEX
  8
front_piece
 10
-1.016000
 20
-1.759764
 30
-2.540000
 70
   192
  0
VERTEX
  8
front_piece
 10
-0.694985
 20
-1.909455
 30
-2.540000
 70
   192
  0
VERTEX
  8
front_piece
 10
-0.352853
 20
-2.001129
 30
-2.540000
 70
   192
  0
VERTEX
  8
front_piece
 10
-0.000000
 20
-2.032000
 30
-2.540000
 70
   192
  0
VERTEX
  8
front_piece
 10
0.352853
 20
-2.001129
 30
-2.540000
 70
   192
  0
VERTEX
  8
front_piece
 10
0.694985
 20
-1.909455
 30
-2.540000
 70
   192
  0
VERTEX
  8
front_piece
 10
1.016000
 20
-1.759764
 30
-2.540000
 70
   192
  0
VERTEX
  8
front_piece
 10
1.306144
 20
-1.556602
 30
-2.540000
 70
   192
  0
VERTEX
  8
front_piece
 10
1.556602
 20
-1.306144
 30
-2.540000
 70
   192
  0
VERTEX
  8
front_piece
 10
1.759764
 20
-1.016000
 30
-2.540000
 70
   192
  0
VERTEX
  8
front_piece
 10
1.909455
 20
-0.694985
 30
-2.540000
 70
   192
  0
VERTEX
  8
front_piece
 10
2.001129
 20
-0.352853
 30
-2.540000
 70
   192
  0
VERTEX
  8
front_piece
 10
1.750988
 20
0.308746
 30
0.000000
 70
   192
  0
VERTEX
  8
front_piece
 10
1.670773
 20
0.608112
 30
0.000000
 70
   192
  0
VERTEX
  8
front_piece
 10
1.539793
 20
0.889000
 30
0.000000
 70
   192
  0
VERTEX
  8
front_piece
 10
1.362027
 20
1.142876
 30
0.000000
 70
   192
  0
VERTEX
  8
front_piece
 10
1.142876
 20
1.362027
 30
0.000000
 70
   192
  0
VERTEX
  8
front_piece
 10
0.889000
 20
1.539793
 30
0.000000
 70
   192
  0
VERTEX
  8
front_piece
 10
0.608112
 20
1.670773
 30
0.000000
 70
   192
  0
VERTEX
  8
front_piece
 10
0.308746
 20
1.750988
 30
0.000000
 70
   192
  0
VERTEX
  8
front_piece
 10
0.000000
 20
1.778000
 30
0.000000
 70
   192
  0
VERTEX
  8
front_piece
 10
-0.308746
 20
1.750988
 30
0.000000
 70
   192
  0
VERTEX
  8
front_piece
 10
-0.608112
 20
1.670773
 30
0.000000
 70
   192
  0
VERTEX
  8
front_piece
 10
-0.889000
 20
1.539793
 30
0.000000
 70
   192
  0
VERTEX
  8
front_piece
 10
-1.142876
 20
1.362027
 30
0.000000
 70
   192
  0
VERTEX
  8
front_piece
 10
-1.362027
 20
1.142876
 30
0.000000
 70
   192
  0
VERTEX
  8
front_piece
 10
-1.539793
 20
0.889000
 30
0.000000
 70
   192
  0
VERTEX
  8
front_piece
 10
-1.670773
 20
0.608112
 30
0.000000
 70
   192
  0
VERTEX
  8
front_piece
 10
-1.750988
 20
0.308746
 30
0.000000
 70
   192
  0
VERTEX
  8
front_piece
 10
-1.778000
 20
0.000000
 30
0.000000
 70
   192
  0
VERTEX
  8
front_piece
 10
-1.750988
 20
-0.308746
 30
0.000000
 70
   192
  0
VERTEX
  8
front_piece
 10
-1.670773
 20
-0.608112
 30
0.000000
 70
   192
  0
VERTEX
  8
front_piece
 10
-1.539793
 20
-0.889000
 30
0.000000
 70
   192
  0
VERTEX
  8
front_piece
 10
-1.362027
 20
-1.142876
 30
0.000000
 70
   192
  0
VERTEX
  8
front_piece
 10
-1.142876
 20
-1.362027
 30
0.000000
 70
   192
  0
VERTEX
  8
front_piece
 10
-0.889000
 20
-1.539793
 30
0.000000
 70
   192
  0
VERTEX
  8
front_piece
 10
-0.608112
 20
-1.670773
 30
0.000000
 70
   192
  0
VERTEX
  8
front_piece
 10
-0.308746
 20
-1.750988
 30
0.000000
 70
   192
  0
VERTEX
  8
front_piece
 10
-0.000000
 20
-1.778000
 30
0.000000
 70
   192
  0
VERTEX
  8
front_piece
 10
0.308746
 20
-1.750988
 30
0.000000
 70
   192
  0
VERTEX
  8
front_piece
 10
0.608112
 20
-1.670773
 30
0.000000
 70
   192
  0
VERTEX
  8
front_piece
 10
0.889000
 20
-1.539793
 30
0.000000
 70
   192
  0
VERTEX
  8
front_piece
 10
1.142876
 20
-1.362027
 30
0.000000
 70
   192
  0
VERTEX
  8
front_piece
 10
1.362027
 20
-1.142876
 30
0.000000
 70
   192
  0
VERTEX
  8
front_piece
 10
1.539793
 20
-0.889000
 30
0.000000
 70
   192
  0
VERTEX
  8
front_piece
 10
1.670773
 20
-0.608112
 30
0.000000
 70
   192
  0
VERTEX
  8
front_piece
 10
1.750988
 20
-0.308746
 30
0.000000
 70
   192
  0
VERTEX
  8
front_piece
 10
1.968342
 20
-0.000000
 30
-1.263666
 70
   192
  0
VERTEX
  8
front_piece
 10
-1.932201
 20
-0.593359
 30
-2.015107
 70
   192
  0
VERTEX
  8
front_piece
 10
-1.965276
 20
-0.484477
 30
-2.090097
 70
   192
  0
VERTEX
  8
front_piece
 10
-1.992966
 20
-0.364779
 30
-2.149904
 70
   192
  0
VERTEX
  8
front_piece
 10
-2.013376
 20
-0.237199
 30
-2.192514
 70
   192
  0
VERTEX
  8
front_piece
 10
-2.025303
 20
-0.103267
 30
-2.216896
 70
   192
  0
VERTEX
  8
front_piece
 10
-2.027792
 20
0.032832
 30
-2.221939
 70
   192
  0
VERTEX
  8
front_piece
 10
-2.020688
 20
0.168370
 30
-2.207502
 70
   192
  0
VERTEX
  8
front_piece
 10
-2.004485
 20
0.299793
 30
-2.174091
 70
   192
  0
VERTEX
  8
front_piece
 10
-1.980316
 20
0.424086
 30
-2.122882
 70
   192
  0
VERTEX
  8
front_piece
 10
-1.949724
 20
0.538949
 30
-2.055364
 70
   192
  0
VERTEX
  8
front_piece
 10
-1.914614
 20
0.642304
 30
-1.973359
 70
   192
  0
VERTEX
  8
front_piece
 10
-1.876848
 20
0.733042
 30
-1.878224
 70
   192
  0
VERTEX
  8
front_piece
 10
-1.838681
 20
0.809504
 30
-1.771990
 70
   192
  0
VERTEX
  8
front_piece
 10
-1.801992
 20
0.871034
 30
-1.655463
 70
   192
  0
VERTEX
  8
front_piece
 10
-1.769233
 20
0.915959
 30
-1.531296
 70
   192
  0
VERTEX
  8
front_piece
 10
-1.742258
 20
0.943480
 30
-1.400838
 70
   192
  0
VERTEX
  8
front_piece
 10
-1.722787
 20
0.952509
 30
-1.265905
 70
   192
  0
VERTEX
  8
front_piece
 10
-1.712186
 20
0.942270
 30
-1.130629
 70
   192
  0
VERTEX
  8
front_piece
 10
-1.710677
 20
0.912580
 30
-0.997096
 70
   192
  0
VERTEX
  8
front_piece
 10
-1.717580
 20
0.864297
 30
-0.869668
 70
   192
  0
VERTEX
  8
front_piece
 10
-1.731351
 20
0.798382
 30
-0.750524
 70
   192
  0
VERTEX
  8
front_piece
 10
-1.749802
 20
0.716716
 30
-0.642641
 70
   192
  0
VERTEX
  8
front_piece
 10
-1.770658
 20
0.620719
 30
-0.547528
 70
   192
  0
VERTEX
  8
front_piece
 10
-1.791545
 20
0.512465
 30
-0.467104
 70
   192
  0
VERTEX
  8
front_piece
 10
-1.810356
 20
0.393769
 30
-0.402691
 70
   192
  0
VERTEX
  8
front_piece
 10
-1.825296
 20
0.266266
 30
-0.355453
 70
   192
  0
VERTEX
  8
front_piece
 10
-1.834797
 20
0.133434
 30
-0.326873
 70
   192
  0
VERTEX
  8
front_piece
 10
-1.837990
 20
-0.002980
 30
-0.317495
 70
   192
  0
VERTEX
  8
front_piece
 10
-1.834525
 20
-0.138931
 30
-0.327683
 70
   192
  0
VERTEX
  8
front_piece
 10
-1.824749
 20
-0.271931
 30
-0.357142
 70
   192
  0
VERTEX
  8
front_piece
 10
-1.809627
 20
-0.398970
 30
-0.405083
 70
   192
  0
VERTEX
  8
front_piece
 10
-1.790665
 20
-0.517411
 30
-0.470279
 70
   192
  0
VERTEX
  8
front_piece
 10
-1.769681
 20
-0.625425
 30
-0.551581
 70
   192
  0
VERTEX
  8
front_piece
 10
-1.748931
 20
-0.720585
 30
-0.647066
 70
   192
  0
VERTEX
  8
front_piece
 10
-1.730599
 20
-0.801764
 30
-0.755737
 70
   192
  0
VERTEX
  8
front_piece
 10
-1.717150
 20
-0.866628
 30
-0.874742
 70
   192
  0
VERTEX
  8
front_piece
 10
-1.710568
 20
-0.914165
 30
-1.002496
 70
   192
  0
VERTEX
  8
front_piece
 10
-1.712432
 20
-0.943006
 30
-1.135839
 70
   192
  0
VERTEX
  8
front_piece
 10
-1.723410
 20
-0.952506
 30
-1.271396
 70
   192
  0
VERTEX
  8
front_piece
 10
-1.743267
 20
-0.942675
 30
-1.406511
 70
   192
  0
VERTEX
  8
front_piece
 10
-1.770648
 20
-0.914247
 30
-1.537259
 70
   192
  0
VERTEX
  8
front_piece
 10
-1.803877
 20
-0.868149
 30
-1.661918
 70
   192
  0
VERTEX
  8
front_piece
 10
-1.840647
 20
-0.805884
 30
-1.777773
 70
   192
  0
VERTEX
  8
front_piece
 10
-1.866246
 20
-0.755640
 30
-1.849883
 70
   192
  0
VERTEX
  8
front_piece
 10
1.250706
 20
0.220533
 30
0.000000
 70
   192
  0
VERTEX
  8
front_piece
 10
1.193410
 20
0.434366
 30
0.000000
 70
   192
  0
VERTEX
  8
front_piece
 10
1.099852
 20
0.635000
 30
0.000000
 70
   192
  0
VERTEX
  8
front_piece
 10
0.972876
 20
0.816340
 30
0.000000
 70
   192
  0
VERTEX
  8
front_piece
 10
0.816340
 20
0.972876
 30
0.000000
 70
   192
  0
VERTEX
  8
front_piece
 10
0.635000
 20
1.099852
 30
0.000000
 70
   192
  0
VERTEX
  8
front_piece
 10
0.434366
 20
1.193410
 30
0.000000
 70
   192
  0
VERTEX
  8
front_piece
 10
0.220533
 20
1.250706
 30
0.000000
 70
   192
  0
VERTEX
  8
front_piece
 10
0.000000
 20
1.270000
 30
0.000000
 70
   192
  0
VERTEX
  8
front_piece
 10
-0.220533
 20
1.250706
 30
0.000000
 70
   192
  0
VERTEX
  8
front_piece
 10
-0.434366
 20
1.193410
 30
0.000000
 70
   192
  0
VERTEX
  8
front_piece
 10
-0.635000
 20
1.099852
 30
0.000000
 70
   192
  0
VERTEX
  8
front_piece
 10
-0.816340
 20
0.972876
 30
0.000000
 70
   192
  0
VERTEX
  8
front_piece
 10
-0.972876
 20
0.816340
 30
0.000000
 70
   192
  0
VERTEX
  8
front_piece
 10
-1.099852
 20
0.635000
 30
0.000000
 70
   192
  0
VERTEX
  8
front_piece
 10
-1.193410
 20
0.434366
 30
0.000000
 70
   192
  0
VERTEX
  8
front_piece
 10
-1.250706
 20
0.220533
 30
0.000000
 70
   192
  0
VERTEX
  8
front_piece
 10
-1.270000
 20
0.000000
 30
0.000000
 70
   192
  0
VERTEX
  8
front_piece
 10
-1.250706
 20
-0.220533
 30
0.000000
 70
   192
  0
VERTEX
  8
front_piece
 10
-1.193410
 20
-0.434366
 30
0.000000
 70
   192
  0
VERTEX
  8
front_piece
 10
-1.099852
 20
-0.635000
 30
0.000000
 70
   192
  0
VERTEX
  8
front_piece
 10
-0.972876
 20
-0.816340
 30
0.000000
 70
   192
  0
VERTEX
  8
front_piece
 10
-0.816340
 20
-0.972876
 30
0.000000
 70
   192
  0
VERTEX
  8
front_piece
 10
-0.635000
 20
-1.099852
 30
0.000000
 70
   192
  0
VERTEX
  8
front_piece
 10
-0.434366
 20
-1.193410
 30
0.000000
 70
   192
  0
VERTEX
  8
front_piece
 10
-0.220533
 20
-1.250706
 30
0.000000
 70
   192
  0
VERTEX
  8
front_piece
 10
-0.000000
 20
-1.270000
 30
0.000000
 70
   192
  0
VERTEX
  8
front_piece
 10
0.220533
 20
-1.250706
 30
0.000000
 70
   192
  0
VERTEX
  8
front_piece
 10
0.434366
 20
-1.193410
 30
0.000000
 70
   192
  0
VERTEX
  8
front_piece
 10
0.635000
 20
-1.099852
 30
0.000000
 70
   192
  0
VERTEX
  8
front_piece
 10
0.816340
 20
-0.972876
 30
0.000000
 70
   192
  0
VERTEX
  8
front_piece
 10
0.972876
 20
-0.816340
 30
0.000000
 70
   192
  0
VERTEX
  8
front_piece
 10
1.099852
 20
-0.635000
 30
0.000000
 70
   192
  0
VERTEX
  8
front_piece
 10
1.193410
 20
-0.434366
 30
0.000000
 70
   192
  0
VERTEX
  8
front_piece
 10
1.250706
 20
-0.220533
 30
0.000000
 70
   192
  0
VERTEX
  8
front_piece
 10
1.876059
 20
0.330800
 30
3.810000
 70
   192
  0
VERTEX
  8
front_piece
 10
1.790114
 20
0.651548
 30
3.810000
 70
   192
  0
VERTEX
  8
front_piece
 10
1.649778
 20
0.952500
 30
3.810000
 70
   192
  0
VERTEX
  8
front_piece
 10
1.459315
 20
1.224510
 30
3.810000
 70
   192
  0
VERTEX
  8
front_piece
 10
1.224510
 20
1.459315
 30
3.810000
 70
   192
  0
VERTEX
  8
front_piece
 10
0.952500
 20
1.649778
 30
3.810000
 70
   192
  0
VERTEX
  8
front_piece
 10
0.651548
 20
1.790114
 30
3.810000
 70
   192
  0
VERTEX
  8
front_piece
 10
0.330800
 20
1.876059
 30
3.810000
 70
   192
  0
VERTEX
  8
front_piece
 10
0.000000
 20
1.905000
 30
3.810000
 70
   192
  0
VERTEX
  8
front_piece
 10
-0.330800
 20
1.876059
 30
3.810000
 70
   192
  0
VERTEX
  8
front_piece
 10
-0.651548
 20
1.790114
 30
3.810000
 70
   192
  0
VERTEX
  8
front_piece
 10
-0.952500
 20
1.649778
 30
3.810000
 70
   192
  0
VERTEX
  8
front_piece
 10
-1.224510
 20
1.459315
 30
3.810000
 70
   192
  0
VERTEX
  8
front_piece
 10
-1.459315
 20
1.224510
 30
3.810000
 70
   192
  0
VERTEX
  8
front_piece
 10
-1.649778
 20
0.952500
 30
3.810000
 70
   192
  0
VERTEX
  8
front_piece
 10
-1.790114
 20
0.651548
 30
3.810000
 70
   192
  0
VERTEX
  8
front_piece
 10
-1.876059
 20
0.330800
 30
3.810000
 70
   192
  0
VERTEX
  8
front_piece
 10
-1.905000
 20
0.000000
 30
3.810000
 70
   192
  0
VERTEX
  8
front_piece
 10
-1.876059
 20
-0.330800
 30
3.810000
 70
   192
  0
VERTEX
  8
front_piece
 10
-1.790114
 20
-0.651548
 30
3.810000
 70
   192
  0
VERTEX
  8
front_piece
 10
-1.649778
 20
-0.952500
 30
3.810000
 70
   192
  0
VERTEX
  8
front_piece
 10
-1.459315
 20
-1.224510
 30
3.810000
 70
   192
  0
VERTEX
  8
front_piece
 10
-1.224510
 20
-1.459315
 30
3.810000
 70
   192
  0
VERTEX
  8
front_piece
 10
-0.952500
 20
-1.649778
 30
3.810000
 70
   192
  0
VERTEX
  8
front_piece
 10
-0.651548
 20
-1.790114
 30
3.810000
 70
   192
  0
VERTEX
  8
front_piece
 10
-0.330800
 20
-1.876059
 30
3.810000
 70
   192
  0
VERTEX
  8
front_piece
 10
-0.000000
 20
-1.905000
 30
3.810000
 70
   192
  0
VERTEX
  8
front_piece
 10
0.330800
 20
-1.876059
 30
3.810000
 70
   192
  0
VERTEX
  8
front_piece
 10
0.651548
 20
-1.790114
 30
3.810000
 70
   192
  0
VERTEX
  8
front_piece
 10
0.952500
 20
-1.649778
 30
3.810000
 70
   192
  0
VERTEX
  8
front_piece
 10
1.224510
 20
-1.459315
 30
3.810000
 70
   192
  0
VERTEX
  8
front_piece
 10
1.459315
 20
-1.224510
 30
3.810000
 70
   192
  0
VERTEX
  8
front_piece
 10
1.649778
 20
-0.952500
 30
3.810000
 70
   192
  0
VERTEX
  8
front_piece
 10
1.790114
 20
-0.651548
 30
3.810000
 70
   192
  0
VERTEX
  8
front_piece
 10
1.876059
 20
-0.330800
 30
3.810000
 70
   192
  0
VERTEX
  8
front_piece
 10
1.476727
 20
0.000000
 30
2.582474
 70
   192
  0
VERTEX
  8
front_piece
 10
1.262993
 20
0.000000
 30
1.300072
 70
   192
  0
VERTEX
  8
front_piece
 10
-1.602870
 20
-0.282629
 30
3.810000
 70
   192
  0
VERTEX
  8
front_piece
 10
-1.529441
 20
-0.556671
 30
3.810000
 70
   192
  0
VERTEX
  8
front_piece
 10
-1.409540
 20
-0.813799
 30
3.810000
 70
   192
  0
VERTEX
  8
front_piece
 10
-1.246812
 20
-1.046199
 30
3.810000
 70
   192
  0
VERTEX
  8
front_piece
 10
-1.046199
 20
-1.246812
 30
3.810000
 70
   192
  0
VERTEX
  8
front_piece
 10
-0.813799
 20
-1.409540
 30
3.810000
 70
   192
  0
VERTEX
  8
front_piece
 10
-0.556671
 20
-1.529441
 30
3.810000
 70
   192
  0
VERTEX
  8
front_piece
 10
-0.282629
 20
-1.602870
 30
3.810000
 70
   192
  0
VERTEX
  8
front_piece
 10
-0.000000
 20
-1.627597
 30
3.810000
 70
   192
  0
VERTEX
  8
front_piece
 10
0.282629
 20
-1.602870
 30
3.810000
 70
   192
  0
VERTEX
  8
front_piece
 10
0.556671
 20
-1.529441
 30
3.810000
 70
   192
  0
VERTEX
  8
front_piece
 10
0.813799
 20
-1.409540
 30
3.810000
 70
   192
  0
VERTEX
  8
front_piece
 10
1.046199
 20
-1.246812
 30
3.810000
 70
   192
  0
VERTEX
  8
front_piece
 10
1.246812
 20
-1.046199
 30
3.810000
 70
   192
  0
VERTEX
  8
front_piece
 10
1.409540
 20
-0.813799
 30
3.810000
 70
   192
  0
VERTEX
  8
front_piece
 10
1.529441
 20
-0.556671
 30
3.810000
 70
   192
  0
VERTEX
  8
front_piece
 10
1.602870
 20
-0.282629
 30
3.810000
 70
   192
  0
VERTEX
  8
front_piece
 10
1.627597
 20
-0.000000
 30
3.810000
 70
   192
  0
VERTEX
  8
front_piece
 10
1.602870
 20
0.282629
 30
3.810000
 70
   192
  0
VERTEX
  8
front_piece
 10
1.529441
 20
0.556671
 30
3.810000
 70
   192
  0
VERTEX
  8
front_piece
 10
1.409540
 20
0.813799
 30
3.810000
 70
   192
  0
VERTEX
  8
front_piece
 10
1.246812
 20
1.046199
 30
3.810000
 70
   192
  0
VERTEX
  8
front_piece
 10
1.046199
 20
1.246812
 30
3.810000
 70
   192
  0
VERTEX
  8
front_piece
 10
0.813799
 20
1.409540
 30
3.810000
 70
   192
  0
VERTEX
  8
front_piece
 10
0.556671
 20
1.529441
 30
3.810000
 70
   192
  0
VERTEX
  8
front_piece
 10
0.282629
 20
1.602870
 30
3.810000
 70
   192
  0
VERTEX
  8
front_piece
 10
0.000000
 20
1.627597
 30
3.810000
 70
   192
  0
VERTEX
  8
front_piece
 10
-0.282629
 20
1.602870
 30
3.810000
 70
   192
  0
VERTEX
  8
front_piece
 10
-0.556671
 20
1.529441
 30
3.810000
 70
   192
  0
VERTEX
  8
front_piece
 10
-0.813799
 20
1.409540
 30
3.810000
 70
   192
  0
VERTEX
  8
front_piece
 10
-1.046199
 20
1.246812
 30
3.810000
 70
   192
  0
VERTEX
  8
front_piece
 10
-1.246812
 20
1.046199
 30
3.810000
 70
   192
  0
VERTEX
  8
front_piece
 10
-1.409540
 20
0.813799
 30
3.810000
 70
   192
  0
VERTEX
  8
front_piece
 10
-1.529441
 20
0.556671
 30
3.810000
 70
   192
  0
VERTEX
  8
front_piece
 10
-1.602870
 20
0.282629
 30
3.810000
 70
   192
  0
VERTEX
  8
front_piece
 10
1.544607
 20
0.272356
 30
-0.254000
 70
   192
  0
VERTEX
  8
front_piece
 10
1.473847
 20
0.536436
 30
-0.254000
 70
   192
  0
VERTEX
  8
front_piece
 10
1.358305
 20
0.784218
 30
-0.254000
 70
   192
  0
VERTEX
  8
front_piece
 10
1.201491
 20
1.008171
 30
-0.254000
 70
   192
  0
VERTEX
  8
front_piece
 10
1.008171
 20
1.201491
 30
-0.254000
 70
   192
  0
VERTEX
  8
front_piece
 10
0.784218
 20
1.358305
 30
-0.254000
 70
   192
  0
VERTEX
  8
front_piece
 10
0.536436
 20
1.473847
 30
-0.254000
 70
   192
  0
VERTEX
  8
front_piece
 10
0.272356
 20
1.544607
 30
-0.254000
 70
   192
  0
VERTEX
  8
front_piece
 10
0.000000
 20
1.568435
 30
-0.254000
 70
   192
  0
VERTEX
  8
front_piece
 10
-0.272356
 20
1.544607
 30
-0.254000
 70
   192
  0
VERTEX
  8
front_piece
 10
-0.536436
 20
1.473847
 30
-0.254000
 70
   192
  0
VERTEX
  8
front_piece
 10
-0.784218
 20
1.358305
 30
-0.254000
 70
   192
  0
VERTEX
  8
front_piece
 10
-1.008171
 20
1.201491
 30
-0.254000
 70
   192
  0
VERTEX
  8
front_piece
 10
-1.201491
 20
1.008171
 30
-0.254000
 70
   192
  0
VERTEX
  8
front_piece
 10
-1.358305
 20
0.784218
 30
-0.254000
 70
   192
  0
VERTEX
  8
front_piece
 10
-1.473847
 20
0.536436
 30
-0.254000
 70
   192
  0
VERTEX
  8
front_piece
 10
-1.544607
 20
0.272356
 30
-0.254000
 70
   192
  0
VERTEX
  8
front_piece
 10
-1.568435
 20
0.000000
 30
-0.254000
 70
   192
  0
VERTEX
  8
front_piece
 10
-1.544607
 20
-0.272356
 30
-0.254000
 70
   192
  0
VERTEX
  8
front_piece
 10
-1.473847
 20
-0.536436
 30
-0.254000
 70
   192
  0
VERTEX
  8
front_piece
 10
-1.358305
 20
-0.784218
 30
-0.254000
 70
   192
  0
VERTEX
  8
front_piece
 10
-1.201491
 20
-1.008171
 30
-0.254000
 70
   192
  0
VERTEX
  8
front_piece
 10
-1.008171
 20
-1.201491
 30
-0.254000
 70
   192
  0
VERTEX
  8
front_piece
 10
-0.784218
 20
-1.358305
 30
-0.254000
 70
   192
  0
VERTEX
  8
front_piece
 10
-0.536436
 20
-1.473847
 30
-0.254000
 70
   192
  0
VERTEX
  8
front_piece
 10
-0.272356
 20
-1.544607
 30
-0.254000
 70
   192
  0
VERTEX
  8
front_piece
 10
-0.000000
 20
-1.568435
 30
-0.254000
 70
   192
  0
VERTEX
  8
front_piece
 10
0.272356
 20
-1.544607
 30
-0.254000
 70
   192
  0
VERTEX
  8
front_piece
 10
0.536436
 20
-1.473847
 30
-0.254000
 70
   192
  0
VERTEX
  8
front_piece
 10
0.784218
 20
-1.358305
 30
-0.254000
 70
   192
  0
VERTEX
  8
front_piece
 10
1.008171
 20
-1.201491
 30
-0.254000
 70
   192
  0
VERTEX
  8
front_piece
 10
1.201491
 20
-1.008171
 30
-0.254000
 70
   192
  0
VERTEX
  8
front_piece
 10
1.358305
 20
-0.784218
 30
-0.254000
 70
   192
  0
VERTEX
  8
front_piece
 10
1.473847
 20
-0.536436
 30
-0.254000
 70
   192
  0
VERTEX
  8
front_piece
 10
1.544607
 20
-0.272356
 30
-0.254000
 70
   192
  0
VERTEX
  8
front_piece
 10
1.725499
 20
-0.000000
 30
-1.392207
 70
   192
  0
VERTEX
  8
front_piece
 10
-1.664545
 20
-0.593089
 30
-2.015326
 70
   192
  0
VERTEX
  8
front_piece
 10
-1.702599
 20
-0.483684
 30
-2.090568
 70
   192
  0
VERTEX
  8
front_piece
 10
-1.734398
 20
-0.363006
 30
-2.150638
 70
   192
  0
VERTEX
  8
front_piece
 10
-1.757715
 20
-0.234044
 30
-2.193319
 70
   192
  0
VERTEX
  8
front_piece
 10
-1.771135
 20
-0.098385
 30
-2.217414
 70
   192
  0
VERTEX
  8
front_piece
 10
-1.773530
 20
0.039593
 30
-2.221682
 70
   192
  0
VERTEX
  8
front_piece
 10
-1.764729
 20
0.176789
 30
-2.205951
 70
   192
  0
VERTEX
  8
front_piece
 10
-1.745384
 20
0.309317
 30
-2.170878
 70
   192
  0
VERTEX
  8
front_piece
 10
-1.716873
 20
0.434129
 30
-2.117814
 70
   192
  0
VERTEX
  8
front_piece
 10
-1.681129
 20
0.548655
 30
-2.048610
 70
   192
  0
VERTEX
  8
front_piece
 10
-1.640280
 20
0.651282
 30
-1.965046
 70
   192
  0
VERTEX
  8
front_piece
 10
-1.596600
 20
0.740762
 30
-1.868786
 70
   192
  0
VERTEX
  8
front_piece
 10
-1.552527
 20
0.815931
 30
-1.761471
 70
   192
  0
VERTEX
  8
front_piece
 10
-1.510341
 20
0.876070
 30
-1.643906
 70
   192
  0
VERTEX
  8
front_piece
 10
-1.472993
 20
0.919517
 30
-1.518522
 70
   192
  0
VERTEX
  8
front_piece
 10
-1.442841
 20
0.945363
 30
-1.386389
 70
   192
  0
VERTEX
  8
front_piece
 10
-1.422266
 20
0.952297
 30
-1.249906
 70
   192
  0
VERTEX
  8
front_piece
 10
-1.412925
 20
0.939487
 30
-1.112975
 70
   192
  0
VERTEX
  8
front_piece
 10
-1.415052
 20
0.906698
 30
-0.978149
 70
   192
  0
VERTEX
  8
front_piece
 10
-1.427434
 20
0.855081
 30
-0.850339
 70
   192
  0
VERTEX
  8
front_piece
 10
-1.447773
 20
0.785805
 30
-0.731678
 70
   192
  0
VERTEX
  8
front_piece
 10
-1.473033
 20
0.701004
 30
-0.625118
 70
   192
  0
VERTEX
  8
front_piece
 10
-1.500354
 20
0.601898
 30
-0.531754
 70
   192
  0
VERTEX
  8
front_piece
 10
-1.526736
 20
0.490853
 30
-0.453705
 70
   192
  0
VERTEX
  8
front_piece
 10
-1.549814
 20
0.368997
 30
-0.391876
 70
   192
  0
VERTEX
  8
front_piece
 10
-1.567306
 20
0.239174
 30
-0.348016
 70
   192
  0
VERTEX
  8
front_piece
 10
-1.577620
 20
0.103752
 30
-0.323156
 70
   192
  0
VERTEX
  8
front_piece
 10
-1.579742
 20
-0.034877
 30
-0.318125
 70
   192
  0
VERTEX
  8
front_piece
 10
-1.573429
 20
-0.172157
 30
-0.333171
 70
   192
  0
VERTEX
  8
front_piece
 10
-1.559250
 20
-0.305854
 30
-0.367927
 70
   192
  0
VERTEX
  8
front_piece
 10
-1.538673
 20
-0.432009
 30
-0.421090
 70
   192
  0
VERTEX
  8
front_piece
 10
-1.513533
 20
-0.548985
 30
-0.491607
 70
   192
  0
VERTEX
  8
front_piece
 10
-1.486369
 20
-0.654036
 30
-0.577537
 70
   192
  0
VERTEX
  8
front_piece
 10
-1.459737
 20
-0.746040
 30
-0.677815
 70
   192
  0
VERTEX
  8
front_piece
 10
-1.436680
 20
-0.822900
 30
-0.790315
 70
   192
  0
VERTEX
  8
front_piece
 10
-1.420070
 20
-0.883249
 30
-0.913411
 70
   192
  0
VERTEX
  8
front_piece
 10
-1.412583
 20
-0.925627
 30
-1.045268
 70
   192
  0
VERTEX
  8
front_piece
 10
-1.416154
 20
-0.948390
 30
-1.181407
 70
   192
  0
VERTEX
  8
front_piece
 10
-1.431359
 20
-0.951230
 30
-1.319383
 70
   192
  0
VERTEX
  8
front_piece
 10
-1.457154
 20
-0.934478
 30
-1.454467
 70
   192
  0
VERTEX
  8
front_piece
 10
-1.491600
 20
-0.899124
 30
-1.584410
 70
   192
  0
VERTEX
  8
front_piece
 10
-1.531902
 20
-0.846718
 30
-1.706282
 70
   192
  0
VERTEX
  8
front_piece
 10
-1.575589
 20
-0.778262
 30
-1.819152
 70
   192
  0
VERTEX
  8
front_piece
 10
-1.599023
 20
-0.736218
 30
-1.874352
 70
   192
  0
VERTEX
  8
front_piece
 10
-1.025656
 20
-0.180851
 30
-0.254000
 70
   192
  0
VERTEX
  8
front_piece
 10
-0.978669
 20
-0.356207
 30
-0.254000
 70
   192
  0
VERTEX
  8
front_piece
 10
-0.901947
 20
-0.520739
 30
-0.254000
 70
   192
  0
VERTEX
  8
front_piece
 10
-0.797819
 20
-0.669449
 30
-0.254000
 70
   192
  0
VERTEX
  8
front_piece
 10
-0.669449
 20
-0.797819
 30
-0.254000
 70
   192
  0
VERTEX
  8
front_piece
 10
-0.520739
 20
-0.901947
 30
-0.254000
 70
   192
  0
VERTEX
  8
front_piece
 10
-0.356207
 20
-0.978669
 30
-0.254000
 70
   192
  0
VERTEX
  8
front_piece
 10
-0.180851
 20
-1.025656
 30
-0.254000
 70
   192
  0
VERTEX
  8
front_piece
 10
-0.000000
 20
-1.041478
 30
-0.254000
 70
   192
  0
VERTEX
  8
front_piece
 10
0.180851
 20
-1.025656
 30
-0.254000
 70
   192
  0
VERTEX
  8
front_piece
 10
0.356207
 20
-0.978669
 30
-0.254000
 70
   192
  0
VERTEX
  8
front_piece
 10
0.520739
 20
-0.901947
 30
-0.254000
 70
   192
  0
VERTEX
  8
front_piece
 10
0.669449
 20
-0.797819
 30
-0.254000
 70
   192
  0
VERTEX
  8
front_piece
 10
0.797819
 20
-0.669449
 30
-0.254000
 70
   192
  0
VERTEX
  8
front_piece
 10
0.901947
 20
-0.520739
 30
-0.254000
 70
   192
  0
VERTEX
  8
front_piece
 10
0.978669
 20
-0.356207
 30
-0.254000
 70
   192
  0
VERTEX
  8
front_piece
 10
1.025656
 20
-0.180851
 30
-0.254000
 70
   192
  0
VERTEX
  8
front_piece
 10
1.041478
 20
-0.000000
 30
-0.254000
 70
   192
  0
VERTEX
  8
front_piece
 10
1.025656
 20
0.180851
 30
-0.254000
 70
   192
  0
VERTEX
  8
front_piece
 10
0.978669
 20
0.356207
 30
-0.254000
 70
   192
  0
VERTEX
  8
front_piece
 10
0.901947
 20
0.520739
 30
-0.254000
 70
   192
  0
VERTEX
  8
front_piece
 10
0.797819
 20
0.669449
 30
-0.254000
 70
   192
  0
VERTEX
  8
front_piece
 10
0.669449
 20
0.797819
 30
-0.254000
 70
   192
  0
VERTEX
  8
front_piece
 10
0.520739
 20
0.901947
 30
-0.254000
 70
   192
  0
VERTEX
  8
front_piece
 10
0.356207
 20
0.978669
 30
-0.254000
 70
   192
  0
VERTEX
  8
front_piece
 10
0.180851
 20
1.025656
 30
-0.254000
 70
   192
  0
VERTEX
  8
front_piece
 10
0.000000
 20
1.041478
 30
-0.254000
 70
   192
  0
VERTEX
  8
front_piece
 10
-0.180851
 20
1.025656
 30
-0.254000
 70
   192
  0
VERTEX
  8
front_piece
 10
-0.356207
 20
0.978669
 30
-0.254000
 70
   192
  0
VERTEX
  8
front_piece
 10
-0.520739
 20
0.901947
 30
-0.254000
 70
   192
  0
VERTEX
  8
front_piece
 10
-0.669449
 20
0.797819
 30
-0.254000
 70
   192
  0
VERTEX
  8
front_piece
 10
-0.797819
 20
0.669449
 30
-0.254000
 70
   192
  0
VERTEX
  8
front_piece
 10
-0.901947
 20
0.520739
 30
-0.254000
 70
   192
  0
VERTEX
  8
front_piece
 10
-0.978669
 20
0.356207
 30
-0.254000
 70
   192
  0
VERTEX
  8
front_piece
 10
-1.025656
 20
0.180851
 30
-0.254000
 70
   192
  0
VERTEX
  8
front_piece
 10
-1.227058
 20
0.000000
 30
2.631324
 70
   192
  0
VERTEX
  8
front_piece
 10
-1.016976
 20
0.000000
 30
1.404306
 70
   192
  0
VERTEX
  8
front_piece
 10
-0.985515
 20
0.000000
 30
0.574507
 70
   192
  0
VERTEX
  8
front_piece
 10
1.968342
 20
-0.000000
 30
-1.263666
 70
   192
  0
VERTEX
  8
front_piece
 10
1.476727
 20
0.000000
 30
2.582474
 70
   192
  0
VERTEX
  8
front_piece
 10
1.262993
 20
0.000000
 30
1.300072
 70
   192
  0
VERTEX
  8
front_piece
 10
1.316710
 20
0.261910
 30
1.945832
 70
   192
  0
VERTEX
  8
front_piece
 10
1.240314
 20
0.513755
 30
1.945832
 70
   192
  0
VERTEX
  8
front_piece
 10
1.116253
 20
0.745856
 30
1.945832
 70
   192
  0
VERTEX
  8
front_piece
 10
0.949295
 20
0.949295
 30
1.945832
 70
   192
  0
VERTEX
  8
front_piece
 10
0.745856
 20
1.116253
 30
1.945832
 70
   192
  0
VERTEX
  8
front_piece
 10
0.513755
 20
1.240314
 30
1.945832
 70
   192
  0
VERTEX
  8
front_piece
 10
0.261910
 20
1.316710
 30
1.945832
 70
   192
  0
VERTEX
  8
front_piece
 10
0.000000
 20
1.342506
 30
1.945832
 70
   192
  0
VERTEX
  8
front_piece
 10
-0.261910
 20
1.316710
 30
1.945832
 70
   192
  0
VERTEX
  8
front_piece
 10
-0.513755
 20
1.240314
 30
1.945832
 70
   192
  0
VERTEX
  8
front_piece
 10
-0.745856
 20
1.116253
 30
1.945832
 70
   192
  0
VERTEX
  8
front_piece
 10
-0.949295
 20
0.949295
 30
1.945832
 70
   192
  0
VERTEX
  8
front_piece
 10
-1.116253
 20
0.745856
 30
1.945832
 70
   192
  0
VERTEX
  8
front_piece
 10
-1.240314
 20
0.513755
 30
1.945832
 70
   192
  0
VERTEX
  8
front_piece
 10
-1.316710
 20
0.261910
 30
1.945832
 70
   192
  0
VERTEX
  8
front_piece
 10
-1.342506
 20
0.000000
 30
1.945832
 70
   192
  0
VERTEX
  8
front_piece
 10
-1.316710
 20
-0.261910
 30
1.945832
 70
   192
  0
VERTEX
  8
front_piece
 10
-1.240314
 20
-0.513755
 30
1.945832
 70
   192
  0
VERTEX
  8
front_piece
 10
-1.116253
 20
-0.745856
 30
1.945832
 70
   192
  0
VERTEX
  8
front_piece
 10
-0.949295
 20
-0.949295
 30
1.945832
 70
   192
  0
VERTEX
  8
front_piece
 10
-0.745856
 20
-1.116253
 30
1.945832
 70
   192
  0
VERTEX
  8
front_piece
 10
-0.513755
 20
-1.240314
 30
1.945832
 70
   192
  0
VERTEX
  8
front_piece
 10
-0.261910
 20
-1.316710
 30
1.945832
 70
   192
  0
VERTEX
  8
front_piece
 10
0.000000
 20
-1.342506
 30
1.945832
 70
   192
  0
VERTEX
  8
front_piece
 10
0.261910
 20
-1.316710
 30
1.945832
 70
   192
  0
VERTEX
  8
front_piece
 10
0.513755
 20
-1.240314
 30
1.945832
 70
   192
  0
VERTEX
  8
front_piece
 10
0.745856
 20
-1.116253
 30
1.945832
 70
   192
  0
VERTEX
  8
front_piece
 10
0.949295
 20
-0.949295
 30
1.945832
 70
   192
  0
VERTEX
  8
front_piece
 10
1.116253
 20
-0.745856
 30
1.945832
 70
   192
  0
VERTEX
  8
front_piece
 10
1.240314
 20
-0.513755
 30
1.945832
 70
   192
  0
VERTEX
  8
front_piece
 10
1.316710
 20
-0.261910
 30
1.945832
 70
   192
  0
VERTEX
  8
front_piece
 10
1.725499
 20
-0.000000
 30
-1.392207
 70
   192
  0
VERTEX
  8
front_piece
 10
-1.227058
 20
0.000000
 30
2.631324
 70
   192
  0
VERTEX
  8
front_piece
 10
-1.016976
 20
0.000000
 30
1.404306
 70
   192
  0
VERTEX
  8
front_piece
 10
-0.985515
 20
0.000000
 30
0.574507
 70
   192
  0
VERTEX
  8
front_piece
 10
-1.044947
 20
-0.207853
 30
1.816813
 70
   192
  0
VERTEX
  8
front_piece
 10
-0.984319
 20
-0.407718
 30
1.816813
 70
   192
  0
VERTEX
  8
front_piece
 10
-0.885863
 20
-0.591915
 30
1.816813
 70
   192
  0
VERTEX
  8
front_piece
 10
-0.753365
 20
-0.753365
 30
1.816813
 70
   192
  0
VERTEX
  8
front_piece
 10
-0.591915
 20
-0.885863
 30
1.816813
 70
   192
  0
VERTEX
  8
front_piece
 10
-0.407718
 20
-0.984319
 30
1.816813
 70
   192
  0
VERTEX
  8
front_piece
 10
-0.207853
 20
-1.044947
 30
1.816813
 70
   192
  0
VERTEX
  8
front_piece
 10
0.000000
 20
-1.065419
 30
1.816813
 70
   192
  0
VERTEX
  8
front_piece
 10
0.207853
 20
-1.044947
 30
1.816813
 70
   192
  0
VERTEX
  8
front_piece
 10
0.407718
 20
-0.984319
 30
1.816813
 70
   192
  0
VERTEX
  8
front_piece
 10
0.591915
 20
-0.885863
 30
1.816813
 70
   192
  0
VERTEX
  8
front_piece
 10
0.753365
 20
-0.753365
 30
1.816813
 70
   192
  0
VERTEX
  8
front_piece
 10
0.885863
 20
-0.591915
 30
1.816813
 70
   192
  0
VERTEX
  8
front_piece
 10
0.984319
 20
-0.407718
 30
1.816813
 70
   192
  0
VERTEX
  8
front_piece
 10
1.044947
 20
-0.207853
 30
1.816813
 70
   192
  0
VERTEX
  8
front_piece
 10
1.065419
 20
0.000000
 30
1.816813
 70
   192
  0
VERTEX
  8
front_piece
 10
1.044947
 20
0.207853
 30
1.816813
 70
   192
  0
VERTEX
  8
front_piece
 10
0.984319
 20
0.407718
 30
1.816813
 70
   192
  0
VERTEX
  8
front_piece
 10
0.885863
 20
0.591915
 30
1.816813
 70
   192
  0
VERTEX
  8
front_piece
 10
0.753365
 20
0.753365
 30
1.816813
 70
   192
  0
VERTEX
  8
front_piece
 10
0.591915
 20
0.885863
 30
1.816813
 70
   192
  0
VERTEX
  8
front_piece
 10
0.407718
 20
0.984319
 30
1.816813
 70
   192
  0
VERTEX
  8
front_piece
 10
0.207853
 20
1.044947
 30
1.816813
 70
   192
  0
VERTEX
  8
front_piece
 10
0.000000
 20
1.065419
 30
1.816813
 70
   192
  0
VERTEX
  8
front_piece
 10
-0.207853
 20
1.044947
 30
1.816813
 70
   192
  0
VERTEX
  8
front_piece
 10
-0.407718
 20
0.984319
 30
1.816813
 70
   192
  0
VERTEX
  8
front_piece
 10
-0.591915
 20
0.885863
 30
1.816813
 70
   192
  0
VERTEX
  8
front_piece
 10
-0.753365
 20
0.753365
 30
1.816813
 70
   192
  0
VERTEX
  8
front_piece
 10
-0.885863
 20
0.591915
 30
1.816813
 70
   192
  0
VERTEX
  8
front_piece
 10
-0.984319
 20
0.407718
 30
1.816813
 70
   192
  0
VERTEX
  8
front_piece
 10
-1.044947
 20
0.207853
 30
1.816813
 70
   192
  0
VERTEX
  8
front_piece
 62
   7
 10
0.0
 20
0.0
 30
0.0
 70
   128
 71
   2
 72
   1
 73
   46
  0
VERTEX
  8
front_piece
 62
   7
 10
0.0
 20
0.0
 30
0.0
 70
   128
 71
   2
 72
   46
 73
   81
  0
VERTEX
  8
front_piece
 62
   7
 10
0.0
 20
0.0
 30
0.0
 70
   128
 71
   46
 72
   45
 73
   80
  0
VERTEX
  8
front_piece
 62
   7
 10
0.0
 20
0.0
 30
0.0
 70
   128
 71
   73
 72
   38
 73
   72
  0
VERTEX
  8
front_piece
 62
   7
 10
0.0
 20
0.0
 30
0.0
 70
   128
 71
   39
 72
   38
 73
   73
  0
VERTEX
  8
front_piece
 62
   7
 10
0.0
 20
0.0
 30
0.0
 70
   128
 71
   29
 72
   28
 73
   63
  0
VERTEX
  8
front_piece
 62
   7
 10
0.0
 20
0.0
 30
0.0
 70
   128
 71
   19
 72
   18
 73
   53
  0
VERTEX
  8
front_piece
 62
   7
 10
0.0
 20
0.0
 30
0.0
 70
   128
 71
   18
 72
   17
 73
   52
  0
VERTEX
  8
front_piece
 62
   7
 10
0.0
 20
0.0
 30
0.0
 70
   128
 71
   12
 72
   1
 73
   2
  0
VERTEX
  8
front_piece
 62
   7
 10
0.0
 20
0.0
 30
0.0
 70
   128
 71
   14
 72
   13
 73
   48
  0
VERTEX
  8
front_piece
 62
   7
 10
0.0
 20
0.0
 30
0.0
 70
   128
 71
   43
 72
   77
 73
   78
  0
VERTEX
  8
front_piece
 62
   7
 10
0.0
 20
0.0
 30
0.0
 70
   128
 71
   13
 72
   12
 73
   47
  0
VERTEX
  8
front_piece
 62
   7
 10
0.0
 20
0.0
 30
0.0
 70
   128
 71
   15
 72
   14
 73
   49
  0
VERTEX
  8
front_piece
 62
   7
 10
0.0
 20
0.0
 30
0.0
 70
   128
 71
   12
 72
   2
 73
   47
  0
VERTEX
  8
front_piece
 62
   7
 10
0.0
 20
0.0
 30
0.0
 70
   128
 71
   16
 72
   15
 73
   50
  0
VERTEX
  8
front_piece
 62
   7
 10
0.0
 20
0.0
 30
0.0
 70
   128
 71
   13
 72
   47
 73
   48
  0
VERTEX
  8
front_piece
 62
   7
 10
0.0
 20
0.0
 30
0.0
 70
   128
 71
   17
 72
   16
 73
   51
  0
VERTEX
  8
front_piece
 62
   7
 10
0.0
 20
0.0
 30
0.0
 70
   128
 71
   14
 72
   48
 73
   49
  0
VERTEX
  8
front_piece
 62
   7
 10
0.0
 20
0.0
 30
0.0
 70
   128
 71
   15
 72
   49
 73
   50
  0
VERTEX
  8
front_piece
 62
   7
 10
0.0
 20
0.0
 30
0.0
 70
   128
 71
   16
 72
   50
 73
   51
  0
VERTEX
  8
front_piece
 62
   7
 10
0.0
 20
0.0
 30
0.0
 70
   128
 71
   17
 72
   51
 73
   52
  0
VERTEX
  8
front_piece
 62
   7
 10
0.0
 20
0.0
 30
0.0
 70
   128
 71
   20
 72
   19
 73
   54
  0
VERTEX
  8
front_piece
 62
   7
 10
0.0
 20
0.0
 30
0.0
 70
   128
 71
   18
 72
   52
 73
   53
  0
VERTEX
  8
front_piece
 62
   7
 10
0.0
 20
0.0
 30
0.0
 70
   128
 71
   21
 72
   20
 73
   55
  0
VERTEX
  8
front_piece
 62
   7
 10
0.0
 20
0.0
 30
0.0
 70
   128
 71
   19
 72
   53
 73
   54
  0
VERTEX
  8
front_piece
 62
   7
 10
0.0
 20
0.0
 30
0.0
 70
   128
 71
   22
 72
   21
 73
   56
  0
VERTEX
  8
front_piece
 62
   7
 10
0.0
 20
0.0
 30
0.0
 70
   128
 71
   20
 72
   54
 73
   55
  0
VERTEX
  8
front_piece
 62
   7
 10
0.0
 20
0.0
 30
0.0
 70
   128
 71
   23
 72
   22
 73
   57
  0
VERTEX
  8
front_piece
 62
   7
 10
0.0
 20
0.0
 30
0.0
 70
   128
 71
   21
 72
   55
 73
   56
  0
VERTEX
  8
front_piece
 62
   7
 10
0.0
 20
0.0
 30
0.0
 70
   128
 71
   24
 72
   23
 73
   58
  0
VERTEX
  8
front_piece
 62
   7
 10
0.0
 20
0.0
 30
0.0
 70
   128
 71
   22
 72
   56
 73
   57
  0
VERTEX
  8
front_piece
 62
   7
 10
0.0
 20
0.0
 30
0.0
 70
   128
 71
   25
 72
   24
 73
   59
  0
VERTEX
  8
front_piece
 62
   7
 10
0.0
 20
0.0
 30
0.0
 70
   128
 71
   23
 72
   57
 73
   58
  0
VERTEX
  8
front_piece
 62
   7
 10
0.0
 20
0.0
 30
0.0
 70
   128
 71
   26
 72
   25
 73
   60
  0
VERTEX
  8
front_piece
 62
   7
 10
0.0
 20
0.0
 30
0.0
 70
   128
 71
   24
 72
   58
 73
   59
  0
VERTEX
  8
front_piece
 62
   7
 10
0.0
 20
0.0
 30
0.0
 70
   128
 71
   27
 72
   26
 73
   61
  0
VERTEX
  8
front_piece
 62
   7
 10
0.0
 20
0.0
 30
0.0
 70
   128
 71
   25
 72
   59
 73
   60
  0
VERTEX
  8
front_piece
 62
   7
 10
0.0
 20
0.0
 30
0.0
 70
   128
 71
   28
 72
   27
 73
   62
  0
VERTEX
  8
front_piece
 62
   7
 10
0.0
 20
0.0
 30
0.0
 70
   128
 71
   26
 72
   60
 73
   61
  0
VERTEX
  8
front_piece
 62
   7
 10
0.0
 20
0.0
 30
0.0
 70
   128
 71
   27
 72
   61
 73
   62
  0
VERTEX
  8
front_piece
 62
   7
 10
0.0
 20
0.0
 30
0.0
 70
   128
 71
   30
 72
   29
 73
   64
  0
VERTEX
  8
front_piece
 62
   7
 10
0.0
 20
0.0
 30
0.0
 70
   128
 71
   28
 72
   62
 73
   63
  0
VERTEX
  8
front_piece
 62
   7
 10
0.0
 20
0.0
 30
0.0
 70
   128
 71
   31
 72
   30
 73
   65
  0
VERTEX
  8
front_piece
 62
   7
 10
0.0
 20
0.0
 30
0.0
 70
   128
 71
   29
 72
   63
 73
   64
  0
VERTEX
  8
front_piece
 62
   7
 10
0.0
 20
0.0
 30
0.0
 70
   128
 71
   32
 72
   31
 73
   66
  0
VERTEX
  8
front_piece
 62
   7
 10
0.0
 20
0.0
 30
0.0
 70
   128
 71
   30
 72
   64
 73
   65
  0
VERTEX
  8
front_piece
 62
   7
 10
0.0
 20
0.0
 30
0.0
 70
   128
 71
   33
 72
   32
 73
   67
  0
VERTEX
  8
front_piece
 62
   7
 10
0.0
 20
0.0
 30
0.0
 70
   128
 71
   31
 72
   65
 73
   66
  0
VERTEX
  8
front_piece
 62
   7
 10
0.0
 20
0.0
 30
0.0
 70
   128
 71
   34
 72
   33
 73
   68
  0
VERTEX
  8
front_piece
 62
   7
 10
0.0
 20
0.0
 30
0.0
 70
   128
 71
   32
 72
   66
 73
   67
  0
VERTEX
  8
front_piece
 62
   7
 10
0.0
 20
0.0
 30
0.0
 70
   128
 71
   35
 72
   34
 73
   69
  0
VERTEX
  8
front_piece
 62
   7
 10
0.0
 20
0.0
 30
0.0
 70
   128
 71
   33
 72
   67
 73
   68
  0
VERTEX
  8
front_piece
 62
   7
 10
0.0
 20
0.0
 30
0.0
 70
   128
 71
   36
 72
   35
 73
   70
  0
VERTEX
  8
front_piece
 62
   7
 10
0.0
 20
0.0
 30
0.0
 70
   128
 71
   34
 72
   68
 73
   69
  0
VERTEX
  8
front_piece
 62
   7
 10
0.0
 20
0.0
 30
0.0
 70
   128
 71
   37
 72
   36
 73
   71
  0
VERTEX
  8
front_piece
 62
   7
 10
0.0
 20
0.0
 30
0.0
 70
   128
 71
   35
 72
   69
 73
   70
  0
VERTEX
  8
front_piece
 62
   7
 10
0.0
 20
0.0
 30
0.0
 70
   128
 71
   38
 72
   37
 73
   72
  0
VERTEX
  8
front_piece
 62
   7
 10
0.0
 20
0.0
 30
0.0
 70
   128
 71
   36
 72
   70
 73
   71
  0
VERTEX
  8
front_piece
 62
   7
 10
0.0
 20
0.0
 30
0.0
 70
   128
 71
   40
 72
   39
 73
   74
  0
VERTEX
  8
front_piece
 62
   7
 10
0.0
 20
0.0
 30
0.0
 70
   128
 71
   37
 72
   71
 73
   72
  0
VERTEX
  8
front_piece
 62
   7
 10
0.0
 20
0.0
 30
0.0
 70
   128
 71
   41
 72
   40
 73
   75
  0
VERTEX
  8
front_piece
 62
   7
 10
0.0
 20
0.0
 30
0.0
 70
   128
 71
   42
 72
   41
 73
   76
  0
VERTEX
  8
front_piece
 62
   7
 10
0.0
 20
0.0
 30
0.0
 70
   128
 71
   39
 72
   73
 73
   74
  0
VERTEX
  8
front_piece
 62
   7
 10
0.0
 20
0.0
 30
0.0
 70
   128
 71
   43
 72
   42
 73
   77
  0
VERTEX
  8
front_piece
 62
   7
 10
0.0
 20
0.0
 30
0.0
 70
   128
 71
   40
 72
   74
 73
   75
  0
VERTEX
  8
front_piece
 62
   7
 10
0.0
 20
0.0
 30
0.0
 70
   128
 71
   44
 72
   43
 73
   78
  0
VERTEX
  8
front_piece
 62
   7
 10
0.0
 20
0.0
 30
0.0
 70
   128
 71
   41
 72
   75
 73
   76
  0
VERTEX
  8
front_piece
 62
   7
 10
0.0
 20
0.0
 30
0.0
 70
   128
 71
   45
 72
   44
 73
   79
  0
VERTEX
  8
front_piece
 62
   7
 10
0.0
 20
0.0
 30
0.0
 70
   128
 71
   42
 72
   76
 73
   77
  0
VERTEX
  8
front_piece
 62
   7
 10
0.0
 20
0.0
 30
0.0
 70
   128
 71
   44
 72
   78
 73
   79
  0
VERTEX
  8
front_piece
 62
   7
 10
0.0
 20
0.0
 30
0.0
 70
   128
 71
   45
 72
   79
 73
   80
  0
VERTEX
  8
front_piece
 62
   7
 10
0.0
 20
0.0
 30
0.0
 70
   128
 71
   46
 72
   80
 73
   81
  0
VERTEX
  8
front_piece
 62
   7
 10
0.0
 20
0.0
 30
0.0
 70
   128
 71
   111
 72
   112
 73
   76
  0
VERTEX
  8
front_piece
 62
   7
 10
0.0
 20
0.0
 30
0.0
 70
   128
 71
   89
 72
   90
 73
   54
  0
VERTEX
  8
front_piece
 62
   7
 10
0.0
 20
0.0
 30
0.0
 70
   128
 71
   88
 72
   89
 73
   53
  0
VERTEX
  8
front_piece
 62
   7
 10
0.0
 20
0.0
 30
0.0
 70
   128
 71
   86
 72
   87
 73
   51
  0
VERTEX
  8
front_piece
 62
   7
 10
0.0
 20
0.0
 30
0.0
 70
   128
 71
   85
 72
   86
 73
   50
  0
VERTEX
  8
front_piece
 62
   7
 10
0.0
 20
0.0
 30
0.0
 70
   128
 71
   84
 72
   85
 73
   49
  0
VERTEX
  8
front_piece
 62
   7
 10
0.0
 20
0.0
 30
0.0
 70
   128
 71
   83
 72
   84
 73
   48
  0
VERTEX
  8
front_piece
 62
   7
 10
0.0
 20
0.0
 30
0.0
 70
   128
 71
   82
 72
   83
 73
   47
  0
VERTEX
  8
front_piece
 62
   7
 10
0.0
 20
0.0
 30
0.0
 70
   128
 71
   3
 72
   82
 73
   387
  0
VERTEX
  8
front_piece
 62
   7
 10
0.0
 20
0.0
 30
0.0
 70
   128
 71
   87
 72
   88
 73
   52
  0
VERTEX
  8
front_piece
 62
   7
 10
0.0
 20
0.0
 30
0.0
 70
   128
 71
   387
 72
   82
 73
   47
  0
VERTEX
  8
front_piece
 62
   7
 10
0.0
 20
0.0
 30
0.0
 70
   128
 71
   90
 72
   91
 73
   55
  0
VERTEX
  8
front_piece
 62
   7
 10
0.0
 20
0.0
 30
0.0
 70
   128
 71
   2
 72
   387
 73
   47
  0
VERTEX
  8
front_piece
 62
   7
 10
0.0
 20
0.0
 30
0.0
 70
   128
 71
   91
 72
   92
 73
   56
  0
VERTEX
  8
front_piece
 62
   7
 10
0.0
 20
0.0
 30
0.0
 70
   128
 71
   47
 72
   83
 73
   48
  0
VERTEX
  8
front_piece
 62
   7
 10
0.0
 20
0.0
 30
0.0
 70
   128
 71
   92
 72
   93
 73
   57
  0
VERTEX
  8
front_piece
 62
   7
 10
0.0
 20
0.0
 30
0.0
 70
   128
 71
   48
 72
   84
 73
   49
  0
VERTEX
  8
front_piece
 62
   7
 10
0.0
 20
0.0
 30
0.0
 70
   128
 71
   93
 72
   94
 73
   58
  0
VERTEX
  8
front_piece
 62
   7
 10
0.0
 20
0.0
 30
0.0
 70
   128
 71
   49
 72
   85
 73
   50
  0
VERTEX
  8
front_piece
 62
   7
 10
0.0
 20
0.0
 30
0.0
 70
   128
 71
   94
 72
   95
 73
   59
  0
VERTEX
  8
front_piece
 62
   7
 10
0.0
 20
0.0
 30
0.0
 70
   128
 71
   50
 72
   86
 73
   51
  0
VERTEX
  8
front_piece
 62
   7
 10
0.0
 20
0.0
 30
0.0
 70
   128
 71
   51
 72
   87
 73
   52
  0
VERTEX
  8
front_piece
 62
   7
 10
0.0
 20
0.0
 30
0.0
 70
   128
 71
   52
 72
   88
 73
   53
  0
VERTEX
  8
front_piece
 62
   7
 10
0.0
 20
0.0
 30
0.0
 70
   128
 71
   53
 72
   89
 73
   54
  0
VERTEX
  8
front_piece
 62
   7
 10
0.0
 20
0.0
 30
0.0
 70
   128
 71
   54
 72
   90
 73
   55
  0
VERTEX
  8
front_piece
 62
   7
 10
0.0
 20
0.0
 30
0.0
 70
   128
 71
   55
 72
   91
 73
   56
  0
VERTEX
  8
front_piece
 62
   7
 10
0.0
 20
0.0
 30
0.0
 70
   128
 71
   56
 72
   92
 73
   57
  0
VERTEX
  8
front_piece
 62
   7
 10
0.0
 20
0.0
 30
0.0
 70
   128
 71
   57
 72
   93
 73
   58
  0
VERTEX
  8
front_piece
 62
   7
 10
0.0
 20
0.0
 30
0.0
 70
   128
 71
   103
 72
   104
 73
   68
  0
VERTEX
  8
front_piece
 62
   7
 10
0.0
 20
0.0
 30
0.0
 70
   128
 71
   58
 72
   94
 73
   59
  0
VERTEX
  8
front_piece
 62
   7
 10
0.0
 20
0.0
 30
0.0
 70
   128
 71
   104
 72
   105
 73
   69
  0
VERTEX
  8
front_piece
 62
   7
 10
0.0
 20
0.0
 30
0.0
 70
   128
 71
   59
 72
   95
 73
   60
  0
VERTEX
  8
front_piece
 62
   7
 10
0.0
 20
0.0
 30
0.0
 70
   128
 71
   105
 72
   106
 73
   70
  0
VERTEX
  8
front_piece
 62
   7
 10
0.0
 20
0.0
 30
0.0
 70
   128
 71
   106
 72
   107
 73
   71
  0
VERTEX
  8
front_piece
 62
   7
 10
0.0
 20
0.0
 30
0.0
 70
   128
 71
   107
 72
   108
 73
   72
  0
VERTEX
  8
front_piece
 62
   7
 10
0.0
 20
0.0
 30
0.0
 70
   128
 71
   108
 72
   109
 73
   73
  0
VERTEX
  8
front_piece
 62
   7
 10
0.0
 20
0.0
 30
0.0
 70
   128
 71
   109
 72
   110
 73
   74
  0
VERTEX
  8
front_piece
 62
   7
 10
0.0
 20
0.0
 30
0.0
 70
   128
 71
   110
 72
   111
 73
   75
  0
VERTEX
  8
front_piece
 62
   7
 10
0.0
 20
0.0
 30
0.0
 70
   128
 71
   112
 72
   113
 73
   77
  0
VERTEX
  8
front_piece
 62
   7
 10
0.0
 20
0.0
 30
0.0
 70
   128
 71
   113
 72
   114
 73
   78
  0
VERTEX
  8
front_piece
 62
   7
 10
0.0
 20
0.0
 30
0.0
 70
   128
 71
   114
 72
   115
 73
   79
  0
VERTEX
  8
front_piece
 62
   7
 10
0.0
 20
0.0
 30
0.0
 70
   128
 71
   68
 72
   104
 73
   69
  0
VERTEX
  8
front_piece
 62
   7
 10
0.0
 20
0.0
 30
0.0
 70
   128
 71
   115
 72
   116
 73
   80
  0
VERTEX
  8
front_piece
 62
   7
 10
0.0
 20
0.0
 30
0.0
 70
   128
 71
   69
 72
   105
 73
   70
  0
VERTEX
  8
front_piece
 62
   7
 10
0.0
 20
0.0
 30
0.0
 70
   128
 71
   116
 72
   3
 73
   117
  0
VERTEX
  8
front_piece
 62
   7
 10
0.0
 20
0.0
 30
0.0
 70
   128
 71
   70
 72
   106
 73
   71
  0
VERTEX
  8
front_piece
 62
   7
 10
0.0
 20
0.0
 30
0.0
 70
   128
 71
   71
 72
   107
 73
   72
  0
VERTEX
  8
front_piece
 62
   7
 10
0.0
 20
0.0
 30
0.0
 70
   128
 71
   72
 72
   108
 73
   73
  0
VERTEX
  8
front_piece
 62
   7
 10
0.0
 20
0.0
 30
0.0
 70
   128
 71
   73
 72
   109
 73
   74
  0
VERTEX
  8
front_piece
 62
   7
 10
0.0
 20
0.0
 30
0.0
 70
   128
 71
   74
 72
   110
 73
   75
  0
VERTEX
  8
front_piece
 62
   7
 10
0.0
 20
0.0
 30
0.0
 70
   128
 71
   75
 72
   111
 73
   76
  0
VERTEX
  8
front_piece
 62
   7
 10
0.0
 20
0.0
 30
0.0
 70
   128
 71
   76
 72
   112
 73
   77
  0
VERTEX
  8
front_piece
 62
   7
 10
0.0
 20
0.0
 30
0.0
 70
   128
 71
   77
 72
   113
 73
   78
  0
VERTEX
  8
front_piece
 62
   7
 10
0.0
 20
0.0
 30
0.0
 70
   128
 71
   78
 72
   114
 73
   79
  0
VERTEX
  8
front_piece
 62
   7
 10
0.0
 20
0.0
 30
0.0
 70
   128
 71
   79
 72
   115
 73
   80
  0
VERTEX
  8
front_piece
 62
   7
 10
0.0
 20
0.0
 30
0.0
 70
   128
 71
   80
 72
   116
 73
   81
  0
VERTEX
  8
front_piece
 62
   7
 10
0.0
 20
0.0
 30
0.0
 70
   128
 71
   81
 72
   116
 73
   117
  0
VERTEX
  8
front_piece
 62
   7
 10
0.0
 20
0.0
 30
0.0
 70
   128
 71
   2
 72
   81
 73
   117
  0
VERTEX
  8
front_piece
 62
   7
 10
0.0
 20
0.0
 30
0.0
 70
   128
 71
   66
 72
   65
 73
   5
  0
VERTEX
  8
front_piece
 62
   7
 10
0.0
 20
0.0
 30
0.0
 70
   128
 71
   4
 72
   66
 73
   5
  0
VERTEX
  8
front_piece
 62
   7
 10
0.0
 20
0.0
 30
0.0
 70
   128
 71
   5
 72
   65
 73
   118
  0
VERTEX
  8
front_piece
 62
   7
 10
0.0
 20
0.0
 30
0.0
 70
   128
 71
   118
 72
   65
 73
   119
  0
VERTEX
  8
front_piece
 62
   7
 10
0.0
 20
0.0
 30
0.0
 70
   128
 71
   65
 72
   64
 73
   121
  0
VERTEX
  8
front_piece
 62
   7
 10
0.0
 20
0.0
 30
0.0
 70
   128
 71
   119
 72
   65
 73
   120
  0
VERTEX
  8
front_piece
 62
   7
 10
0.0
 20
0.0
 30
0.0
 70
   128
 71
   120
 72
   65
 73
   121
  0
VERTEX
  8
front_piece
 62
   7
 10
0.0
 20
0.0
 30
0.0
 70
   128
 71
   64
 72
   123
 73
   122
  0
VERTEX
  8
front_piece
 62
   7
 10
0.0
 20
0.0
 30
0.0
 70
   128
 71
   121
 72
   64
 73
   122
  0
VERTEX
  8
front_piece
 62
   7
 10
0.0
 20
0.0
 30
0.0
 70
   128
 71
   64
 72
   63
 73
   123
  0
VERTEX
  8
front_piece
 62
   7
 10
0.0
 20
0.0
 30
0.0
 70
   128
 71
   123
 72
   63
 73
   124
  0
VERTEX
  8
front_piece
 62
   7
 10
0.0
 20
0.0
 30
0.0
 70
   128
 71
   63
 72
   126
 73
   125
  0
VERTEX
  8
front_piece
 62
   7
 10
0.0
 20
0.0
 30
0.0
 70
   128
 71
   124
 72
   63
 73
   125
  0
VERTEX
  8
front_piece
 62
   7
 10
0.0
 20
0.0
 30
0.0
 70
   128
 71
   63
 72
   62
 73
   126
  0
VERTEX
  8
front_piece
 62
   7
 10
0.0
 20
0.0
 30
0.0
 70
   128
 71
   126
 72
   62
 73
   127
  0
VERTEX
  8
front_piece
 62
   7
 10
0.0
 20
0.0
 30
0.0
 70
   128
 71
   62
 72
   129
 73
   128
  0
VERTEX
  8
front_piece
 62
   7
 10
0.0
 20
0.0
 30
0.0
 70
   128
 71
   127
 72
   62
 73
   128
  0
VERTEX
  8
front_piece
 62
   7
 10
0.0
 20
0.0
 30
0.0
 70
   128
 71
   62
 72
   61
 73
   129
  0
VERTEX
  8
front_piece
 62
   7
 10
0.0
 20
0.0
 30
0.0
 70
   128
 71
   129
 72
   61
 73
   130
  0
VERTEX
  8
front_piece
 62
   7
 10
0.0
 20
0.0
 30
0.0
 70
   128
 71
   130
 72
   61
 73
   131
  0
VERTEX
  8
front_piece
 62
   7
 10
0.0
 20
0.0
 30
0.0
 70
   128
 71
   131
 72
   61
 73
   132
  0
VERTEX
  8
front_piece
 62
   7
 10
0.0
 20
0.0
 30
0.0
 70
   128
 71
   132
 72
   61
 73
   133
  0
VERTEX
  8
front_piece
 62
   7
 10
0.0
 20
0.0
 30
0.0
 70
   128
 71
   96
 72
   136
 73
   135
  0
VERTEX
  8
front_piece
 62
   7
 10
0.0
 20
0.0
 30
0.0
 70
   128
 71
   134
 72
   96
 73
   135
  0
VERTEX
  8
front_piece
 62
   7
 10
0.0
 20
0.0
 30
0.0
 70
   128
 71
   96
 72
   137
 73
   136
  0
VERTEX
  8
front_piece
 62
   7
 10
0.0
 20
0.0
 30
0.0
 70
   128
 71
   96
 72
   97
 73
   137
  0
VERTEX
  8
front_piece
 62
   7
 10
0.0
 20
0.0
 30
0.0
 70
   128
 71
   137
 72
   97
 73
   138
  0
VERTEX
  8
front_piece
 62
   7
 10
0.0
 20
0.0
 30
0.0
 70
   128
 71
   138
 72
   97
 73
   139
  0
VERTEX
  8
front_piece
 62
   7
 10
0.0
 20
0.0
 30
0.0
 70
   128
 71
   97
 72
   98
 73
   140
  0
VERTEX
  8
front_piece
 62
   7
 10
0.0
 20
0.0
 30
0.0
 70
   128
 71
   97
 72
   140
 73
   139
  0
VERTEX
  8
front_piece
 62
   7
 10
0.0
 20
0.0
 30
0.0
 70
   128
 71
   140
 72
   98
 73
   141
  0
VERTEX
  8
front_piece
 62
   7
 10
0.0
 20
0.0
 30
0.0
 70
   128
 71
   141
 72
   98
 73
   142
  0
VERTEX
  8
front_piece
 62
   7
 10
0.0
 20
0.0
 30
0.0
 70
   128
 71
   98
 72
   99
 73
   143
  0
VERTEX
  8
front_piece
 62
   7
 10
0.0
 20
0.0
 30
0.0
 70
   128
 71
   98
 72
   143
 73
   142
  0
VERTEX
  8
front_piece
 62
   7
 10
0.0
 20
0.0
 30
0.0
 70
   128
 71
   143
 72
   99
 73
   144
  0
VERTEX
  8
front_piece
 62
   7
 10
0.0
 20
0.0
 30
0.0
 70
   128
 71
   99
 72
   146
 73
   145
  0
VERTEX
  8
front_piece
 62
   7
 10
0.0
 20
0.0
 30
0.0
 70
   128
 71
   99
 72
   145
 73
   144
  0
VERTEX
  8
front_piece
 62
   7
 10
0.0
 20
0.0
 30
0.0
 70
   128
 71
   99
 72
   100
 73
   146
  0
VERTEX
  8
front_piece
 62
   7
 10
0.0
 20
0.0
 30
0.0
 70
   128
 71
   146
 72
   100
 73
   147
  0
VERTEX
  8
front_piece
 62
   7
 10
0.0
 20
0.0
 30
0.0
 70
   128
 71
   100
 72
   101
 73
   148
  0
VERTEX
  8
front_piece
 62
   7
 10
0.0
 20
0.0
 30
0.0
 70
   128
 71
   100
 72
   148
 73
   147
  0
VERTEX
  8
front_piece
 62
   7
 10
0.0
 20
0.0
 30
0.0
 70
   128
 71
   148
 72
   101
 73
   149
  0
VERTEX
  8
front_piece
 62
   7
 10
0.0
 20
0.0
 30
0.0
 70
   128
 71
   149
 72
   101
 73
   150
  0
VERTEX
  8
front_piece
 62
   7
 10
0.0
 20
0.0
 30
0.0
 70
   128
 71
   101
 72
   102
 73
   151
  0
VERTEX
  8
front_piece
 62
   7
 10
0.0
 20
0.0
 30
0.0
 70
   128
 71
   101
 72
   151
 73
   150
  0
VERTEX
  8
front_piece
 62
   7
 10
0.0
 20
0.0
 30
0.0
 70
   128
 71
   151
 72
   102
 73
   152
  0
VERTEX
  8
front_piece
 62
   7
 10
0.0
 20
0.0
 30
0.0
 70
   128
 71
   152
 72
   102
 73
   153
  0
VERTEX
  8
front_piece
 62
   7
 10
0.0
 20
0.0
 30
0.0
 70
   128
 71
   153
 72
   102
 73
   154
  0
VERTEX
  8
front_piece
 62
   7
 10
0.0
 20
0.0
 30
0.0
 70
   128
 71
   154
 72
   102
 73
   155
  0
VERTEX
  8
front_piece
 62
   7
 10
0.0
 20
0.0
 30
0.0
 70
   128
 71
   67
 72
   157
 73
   156
  0
VERTEX
  8
front_piece
 62
   7
 10
0.0
 20
0.0
 30
0.0
 70
   128
 71
   155
 72
   67
 73
   156
  0
VERTEX
  8
front_piece
 62
   7
 10
0.0
 20
0.0
 30
0.0
 70
   128
 71
   67
 72
   158
 73
   157
  0
VERTEX
  8
front_piece
 62
   7
 10
0.0
 20
0.0
 30
0.0
 70
   128
 71
   67
 72
   159
 73
   158
  0
VERTEX
  8
front_piece
 62
   7
 10
0.0
 20
0.0
 30
0.0
 70
   128
 71
   159
 72
   67
 73
   160
  0
VERTEX
  8
front_piece
 62
   7
 10
0.0
 20
0.0
 30
0.0
 70
   128
 71
   160
 72
   67
 73
   161
  0
VERTEX
  8
front_piece
 62
   7
 10
0.0
 20
0.0
 30
0.0
 70
   128
 71
   60
 72
   95
 73
   61
  0
VERTEX
  8
front_piece
 62
   7
 10
0.0
 20
0.0
 30
0.0
 70
   128
 71
   95
 72
   96
 73
   61
  0
VERTEX
  8
front_piece
 62
   7
 10
0.0
 20
0.0
 30
0.0
 70
   128
 71
   133
 72
   61
 73
   134
  0
VERTEX
  8
front_piece
 62
   7
 10
0.0
 20
0.0
 30
0.0
 70
   128
 71
   134
 72
   61
 73
   96
  0
VERTEX
  8
front_piece
 62
   7
 10
0.0
 20
0.0
 30
0.0
 70
   128
 71
   4
 72
   161
 73
   66
  0
VERTEX
  8
front_piece
 62
   7
 10
0.0
 20
0.0
 30
0.0
 70
   128
 71
   67
 72
   66
 73
   161
  0
VERTEX
  8
front_piece
 62
   7
 10
0.0
 20
0.0
 30
0.0
 70
   128
 71
   155
 72
   102
 73
   67
  0
VERTEX
  8
front_piece
 62
   7
 10
0.0
 20
0.0
 30
0.0
 70
   128
 71
   103
 72
   68
 73
   102
  0
VERTEX
  8
front_piece
 62
   7
 10
0.0
 20
0.0
 30
0.0
 70
   128
 71
   68
 72
   67
 73
   102
  0
VERTEX
  8
front_piece
 62
   7
 10
0.0
 20
0.0
 30
0.0
 70
   128
 71
   82
 72
   3
 73
   6
  0
VERTEX
  8
front_piece
 62
   7
 10
0.0
 20
0.0
 30
0.0
 70
   128
 71
   82
 72
   6
 73
   162
  0
VERTEX
  8
front_piece
 62
   7
 10
0.0
 20
0.0
 30
0.0
 70
   128
 71
   3
 72
   116
 73
   6
  0
VERTEX
  8
front_piece
 62
   7
 10
0.0
 20
0.0
 30
0.0
 70
   128
 71
   6
 72
   116
 73
   196
  0
VERTEX
  8
front_piece
 62
   7
 10
0.0
 20
0.0
 30
0.0
 70
   128
 71
   113
 72
   194
 73
   114
  0
VERTEX
  8
front_piece
 62
   7
 10
0.0
 20
0.0
 30
0.0
 70
   128
 71
   114
 72
   195
 73
   115
  0
VERTEX
  8
front_piece
 62
   7
 10
0.0
 20
0.0
 30
0.0
 70
   128
 71
   115
 72
   196
 73
   116
  0
VERTEX
  8
front_piece
 62
   7
 10
0.0
 20
0.0
 30
0.0
 70
   128
 71
   113
 72
   112
 73
   193
  0
VERTEX
  8
front_piece
 62
   7
 10
0.0
 20
0.0
 30
0.0
 70
   128
 71
   112
 72
   111
 73
   192
  0
VERTEX
  8
front_piece
 62
   7
 10
0.0
 20
0.0
 30
0.0
 70
   128
 71
   196
 72
   115
 73
   195
  0
VERTEX
  8
front_piece
 62
   7
 10
0.0
 20
0.0
 30
0.0
 70
   128
 71
   111
 72
   110
 73
   191
  0
VERTEX
  8
front_piece
 62
   7
 10
0.0
 20
0.0
 30
0.0
 70
   128
 71
   195
 72
   114
 73
   194
  0
VERTEX
  8
front_piece
 62
   7
 10
0.0
 20
0.0
 30
0.0
 70
   128
 71
   110
 72
   109
 73
   190
  0
VERTEX
  8
front_piece
 62
   7
 10
0.0
 20
0.0
 30
0.0
 70
   128
 71
   194
 72
   113
 73
   193
  0
VERTEX
  8
front_piece
 62
   7
 10
0.0
 20
0.0
 30
0.0
 70
   128
 71
   109
 72
   108
 73
   189
  0
VERTEX
  8
front_piece
 62
   7
 10
0.0
 20
0.0
 30
0.0
 70
   128
 71
   193
 72
   112
 73
   192
  0
VERTEX
  8
front_piece
 62
   7
 10
0.0
 20
0.0
 30
0.0
 70
   128
 71
   108
 72
   107
 73
   188
  0
VERTEX
  8
front_piece
 62
   7
 10
0.0
 20
0.0
 30
0.0
 70
   128
 71
   192
 72
   111
 73
   191
  0
VERTEX
  8
front_piece
 62
   7
 10
0.0
 20
0.0
 30
0.0
 70
   128
 71
   107
 72
   106
 73
   187
  0
VERTEX
  8
front_piece
 62
   7
 10
0.0
 20
0.0
 30
0.0
 70
   128
 71
   191
 72
   110
 73
   190
  0
VERTEX
  8
front_piece
 62
   7
 10
0.0
 20
0.0
 30
0.0
 70
   128
 71
   106
 72
   105
 73
   186
  0
VERTEX
  8
front_piece
 62
   7
 10
0.0
 20
0.0
 30
0.0
 70
   128
 71
   190
 72
   109
 73
   189
  0
VERTEX
  8
front_piece
 62
   7
 10
0.0
 20
0.0
 30
0.0
 70
   128
 71
   105
 72
   104
 73
   185
  0
VERTEX
  8
front_piece
 62
   7
 10
0.0
 20
0.0
 30
0.0
 70
   128
 71
   189
 72
   108
 73
   188
  0
VERTEX
  8
front_piece
 62
   7
 10
0.0
 20
0.0
 30
0.0
 70
   128
 71
   104
 72
   103
 73
   184
  0
VERTEX
  8
front_piece
 62
   7
 10
0.0
 20
0.0
 30
0.0
 70
   128
 71
   188
 72
   107
 73
   187
  0
VERTEX
  8
front_piece
 62
   7
 10
0.0
 20
0.0
 30
0.0
 70
   128
 71
   103
 72
   102
 73
   183
  0
VERTEX
  8
front_piece
 62
   7
 10
0.0
 20
0.0
 30
0.0
 70
   128
 71
   187
 72
   106
 73
   186
  0
VERTEX
  8
front_piece
 62
   7
 10
0.0
 20
0.0
 30
0.0
 70
   128
 71
   102
 72
   101
 73
   182
  0
VERTEX
  8
front_piece
 62
   7
 10
0.0
 20
0.0
 30
0.0
 70
   128
 71
   186
 72
   105
 73
   185
  0
VERTEX
  8
front_piece
 62
   7
 10
0.0
 20
0.0
 30
0.0
 70
   128
 71
   101
 72
   100
 73
   181
  0
VERTEX
  8
front_piece
 62
   7
 10
0.0
 20
0.0
 30
0.0
 70
   128
 71
   185
 72
   104
 73
   184
  0
VERTEX
  8
front_piece
 62
   7
 10
0.0
 20
0.0
 30
0.0
 70
   128
 71
   100
 72
   99
 73
   180
  0
VERTEX
  8
front_piece
 62
   7
 10
0.0
 20
0.0
 30
0.0
 70
   128
 71
   184
 72
   103
 73
   183
  0
VERTEX
  8
front_piece
 62
   7
 10
0.0
 20
0.0
 30
0.0
 70
   128
 71
   99
 72
   98
 73
   179
  0
VERTEX
  8
front_piece
 62
   7
 10
0.0
 20
0.0
 30
0.0
 70
   128
 71
   183
 72
   102
 73
   182
  0
VERTEX
  8
front_piece
 62
   7
 10
0.0
 20
0.0
 30
0.0
 70
   128
 71
   98
 72
   97
 73
   178
  0
VERTEX
  8
front_piece
 62
   7
 10
0.0
 20
0.0
 30
0.0
 70
   128
 71
   182
 72
   101
 73
   181
  0
VERTEX
  8
front_piece
 62
   7
 10
0.0
 20
0.0
 30
0.0
 70
   128
 71
   97
 72
   96
 73
   177
  0
VERTEX
  8
front_piece
 62
   7
 10
0.0
 20
0.0
 30
0.0
 70
   128
 71
   181
 72
   100
 73
   180
  0
VERTEX
  8
front_piece
 62
   7
 10
0.0
 20
0.0
 30
0.0
 70
   128
 71
   96
 72
   95
 73
   176
  0
VERTEX
  8
front_piece
 62
   7
 10
0.0
 20
0.0
 30
0.0
 70
   128
 71
   180
 72
   99
 73
   179
  0
VERTEX
  8
front_piece
 62
   7
 10
0.0
 20
0.0
 30
0.0
 70
   128
 71
   95
 72
   94
 73
   175
  0
VERTEX
  8
front_piece
 62
   7
 10
0.0
 20
0.0
 30
0.0
 70
   128
 71
   179
 72
   98
 73
   178
  0
VERTEX
  8
front_piece
 62
   7
 10
0.0
 20
0.0
 30
0.0
 70
   128
 71
   94
 72
   93
 73
   174
  0
VERTEX
  8
front_piece
 62
   7
 10
0.0
 20
0.0
 30
0.0
 70
   128
 71
   178
 72
   97
 73
   177
  0
VERTEX
  8
front_piece
 62
   7
 10
0.0
 20
0.0
 30
0.0
 70
   128
 71
   93
 72
   92
 73
   173
  0
VERTEX
  8
front_piece
 62
   7
 10
0.0
 20
0.0
 30
0.0
 70
   128
 71
   177
 72
   96
 73
   176
  0
VERTEX
  8
front_piece
 62
   7
 10
0.0
 20
0.0
 30
0.0
 70
   128
 71
   92
 72
   91
 73
   172
  0
VERTEX
  8
front_piece
 62
   7
 10
0.0
 20
0.0
 30
0.0
 70
   128
 71
   176
 72
   95
 73
   175
  0
VERTEX
  8
front_piece
 62
   7
 10
0.0
 20
0.0
 30
0.0
 70
   128
 71
   91
 72
   90
 73
   171
  0
VERTEX
  8
front_piece
 62
   7
 10
0.0
 20
0.0
 30
0.0
 70
   128
 71
   175
 72
   94
 73
   174
  0
VERTEX
  8
front_piece
 62
   7
 10
0.0
 20
0.0
 30
0.0
 70
   128
 71
   90
 72
   89
 73
   170
  0
VERTEX
  8
front_piece
 62
   7
 10
0.0
 20
0.0
 30
0.0
 70
   128
 71
   174
 72
   93
 73
   173
  0
VERTEX
  8
front_piece
 62
   7
 10
0.0
 20
0.0
 30
0.0
 70
   128
 71
   89
 72
   88
 73
   169
  0
VERTEX
  8
front_piece
 62
   7
 10
0.0
 20
0.0
 30
0.0
 70
   128
 71
   173
 72
   92
 73
   172
  0
VERTEX
  8
front_piece
 62
   7
 10
0.0
 20
0.0
 30
0.0
 70
   128
 71
   88
 72
   87
 73
   168
  0
VERTEX
  8
front_piece
 62
   7
 10
0.0
 20
0.0
 30
0.0
 70
   128
 71
   172
 72
   91
 73
   171
  0
VERTEX
  8
front_piece
 62
   7
 10
0.0
 20
0.0
 30
0.0
 70
   128
 71
   87
 72
   86
 73
   167
  0
VERTEX
  8
front_piece
 62
   7
 10
0.0
 20
0.0
 30
0.0
 70
   128
 71
   171
 72
   90
 73
   170
  0
VERTEX
  8
front_piece
 62
   7
 10
0.0
 20
0.0
 30
0.0
 70
   128
 71
   86
 72
   85
 73
   166
  0
VERTEX
  8
front_piece
 62
   7
 10
0.0
 20
0.0
 30
0.0
 70
   128
 71
   170
 72
   89
 73
   169
  0
VERTEX
  8
front_piece
 62
   7
 10
0.0
 20
0.0
 30
0.0
 70
   128
 71
   169
 72
   88
 73
   168
  0
VERTEX
  8
front_piece
 62
   7
 10
0.0
 20
0.0
 30
0.0
 70
   128
 71
   85
 72
   84
 73
   165
  0
VERTEX
  8
front_piece
 62
   7
 10
0.0
 20
0.0
 30
0.0
 70
   128
 71
   168
 72
   87
 73
   167
  0
VERTEX
  8
front_piece
 62
   7
 10
0.0
 20
0.0
 30
0.0
 70
   128
 71
   167
 72
   86
 73
   166
  0
VERTEX
  8
front_piece
 62
   7
 10
0.0
 20
0.0
 30
0.0
 70
   128
 71
   84
 72
   83
 73
   164
  0
VERTEX
  8
front_piece
 62
   7
 10
0.0
 20
0.0
 30
0.0
 70
   128
 71
   166
 72
   85
 73
   165
  0
VERTEX
  8
front_piece
 62
   7
 10
0.0
 20
0.0
 30
0.0
 70
   128
 71
   165
 72
   84
 73
   164
  0
VERTEX
  8
front_piece
 62
   7
 10
0.0
 20
0.0
 30
0.0
 70
   128
 71
   83
 72
   82
 73
   163
  0
VERTEX
  8
front_piece
 62
   7
 10
0.0
 20
0.0
 30
0.0
 70
   128
 71
   164
 72
   83
 73
   163
  0
VERTEX
  8
front_piece
 62
   7
 10
0.0
 20
0.0
 30
0.0
 70
   128
 71
   163
 72
   82
 73
   162
  0
VERTEX
  8
front_piece
 62
   7
 10
0.0
 20
0.0
 30
0.0
 70
   128
 71
   217
 72
   408
 73
   407
  0
VERTEX
  8
front_piece
 62
   7
 10
0.0
 20
0.0
 30
0.0
 70
   128
 71
   218
 72
   409
 73
   408
  0
VERTEX
  8
front_piece
 62
   7
 10
0.0
 20
0.0
 30
0.0
 70
   128
 71
   219
 72
   410
 73
   409
  0
VERTEX
  8
front_piece
 62
   7
 10
0.0
 20
0.0
 30
0.0
 70
   128
 71
   220
 72
   411
 73
   410
  0
VERTEX
  8
front_piece
 62
   7
 10
0.0
 20
0.0
 30
0.0
 70
   128
 71
   221
 72
   412
 73
   411
  0
VERTEX
  8
front_piece
 62
   7
 10
0.0
 20
0.0
 30
0.0
 70
   128
 71
   222
 72
   413
 73
   412
  0
VERTEX
  8
front_piece
 62
   7
 10
0.0
 20
0.0
 30
0.0
 70
   128
 71
   223
 72
   224
 73
   413
  0
VERTEX
  8
front_piece
 62
   7
 10
0.0
 20
0.0
 30
0.0
 70
   128
 71
   224
 72
   414
 73
   413
  0
VERTEX
  8
front_piece
 62
   7
 10
0.0
 20
0.0
 30
0.0
 70
   128
 71
   225
 72
   415
 73
   414
  0
VERTEX
  8
front_piece
 62
   7
 10
0.0
 20
0.0
 30
0.0
 70
   128
 71
   226
 72
   416
 73
   415
  0
VERTEX
  8
front_piece
 62
   7
 10
0.0
 20
0.0
 30
0.0
 70
   128
 71
   227
 72
   417
 73
   416
  0
VERTEX
  8
front_piece
 62
   7
 10
0.0
 20
0.0
 30
0.0
 70
   128
 71
   228
 72
   418
 73
   417
  0
VERTEX
  8
front_piece
 62
   7
 10
0.0
 20
0.0
 30
0.0
 70
   128
 71
   229
 72
   419
 73
   418
  0
VERTEX
  8
front_piece
 62
   7
 10
0.0
 20
0.0
 30
0.0
 70
   128
 71
   230
 72
   420
 73
   419
  0
VERTEX
  8
front_piece
 62
   7
 10
0.0
 20
0.0
 30
0.0
 70
   128
 71
   231
 72
   7
 73
   388
  0
VERTEX
  8
front_piece
 62
   7
 10
0.0
 20
0.0
 30
0.0
 70
   128
 71
   231
 72
   420
 73
   230
  0
VERTEX
  8
front_piece
 62
   7
 10
0.0
 20
0.0
 30
0.0
 70
   128
 71
   231
 72
   388
 73
   420
  0
VERTEX
  8
front_piece
 62
   7
 10
0.0
 20
0.0
 30
0.0
 70
   128
 71
   216
 72
   407
 73
   406
  0
VERTEX
  8
front_piece
 62
   7
 10
0.0
 20
0.0
 30
0.0
 70
   128
 71
   389
 72
   6
 73
   196
  0
VERTEX
  8
front_piece
 62
   7
 10
0.0
 20
0.0
 30
0.0
 70
   128
 71
   215
 72
   406
 73
   405
  0
VERTEX
  8
front_piece
 62
   7
 10
0.0
 20
0.0
 30
0.0
 70
   128
 71
   389
 72
   196
 73
   420
  0
VERTEX
  8
front_piece
 62
   7
 10
0.0
 20
0.0
 30
0.0
 70
   128
 71
   214
 72
   215
 73
   405
  0
VERTEX
  8
front_piece
 62
   7
 10
0.0
 20
0.0
 30
0.0
 70
   128
 71
   229
 72
   230
 73
   419
  0
VERTEX
  8
front_piece
 62
   7
 10
0.0
 20
0.0
 30
0.0
 70
   128
 71
   213
 72
   405
 73
   404
  0
VERTEX
  8
front_piece
 62
   7
 10
0.0
 20
0.0
 30
0.0
 70
   128
 71
   228
 72
   229
 73
   418
  0
VERTEX
  8
front_piece
 62
   7
 10
0.0
 20
0.0
 30
0.0
 70
   128
 71
   212
 72
   404
 73
   403
  0
VERTEX
  8
front_piece
 62
   7
 10
0.0
 20
0.0
 30
0.0
 70
   128
 71
   227
 72
   228
 73
   417
  0
VERTEX
  8
front_piece
 62
   7
 10
0.0
 20
0.0
 30
0.0
 70
   128
 71
   211
 72
   403
 73
   402
  0
VERTEX
  8
front_piece
 62
   7
 10
0.0
 20
0.0
 30
0.0
 70
   128
 71
   226
 72
   227
 73
   416
  0
VERTEX
  8
front_piece
 62
   7
 10
0.0
 20
0.0
 30
0.0
 70
   128
 71
   210
 72
   402
 73
   401
  0
VERTEX
  8
front_piece
 62
   7
 10
0.0
 20
0.0
 30
0.0
 70
   128
 71
   225
 72
   226
 73
   415
  0
VERTEX
  8
front_piece
 62
   7
 10
0.0
 20
0.0
 30
0.0
 70
   128
 71
   209
 72
   401
 73
   400
  0
VERTEX
  8
front_piece
 62
   7
 10
0.0
 20
0.0
 30
0.0
 70
   128
 71
   224
 72
   225
 73
   414
  0
VERTEX
  8
front_piece
 62
   7
 10
0.0
 20
0.0
 30
0.0
 70
   128
 71
   189
 72
   188
 73
   413
  0
VERTEX
  8
front_piece
 62
   7
 10
0.0
 20
0.0
 30
0.0
 70
   128
 71
   208
 72
   400
 73
   399
  0
VERTEX
  8
front_piece
 62
   7
 10
0.0
 20
0.0
 30
0.0
 70
   128
 71
   187
 72
   412
 73
   413
  0
VERTEX
  8
front_piece
 62
   7
 10
0.0
 20
0.0
 30
0.0
 70
   128
 71
   207
 72
   399
 73
   398
  0
VERTEX
  8
front_piece
 62
   7
 10
0.0
 20
0.0
 30
0.0
 70
   128
 71
   221
 72
   222
 73
   412
  0
VERTEX
  8
front_piece
 62
   7
 10
0.0
 20
0.0
 30
0.0
 70
   128
 71
   206
 72
   398
 73
   397
  0
VERTEX
  8
front_piece
 62
   7
 10
0.0
 20
0.0
 30
0.0
 70
   128
 71
   220
 72
   221
 73
   411
  0
VERTEX
  8
front_piece
 62
   7
 10
0.0
 20
0.0
 30
0.0
 70
   128
 71
   205
 72
   206
 73
   397
  0
VERTEX
  8
front_piece
 62
   7
 10
0.0
 20
0.0
 30
0.0
 70
   128
 71
   219
 72
   220
 73
   410
  0
VERTEX
  8
front_piece
 62
   7
 10
0.0
 20
0.0
 30
0.0
 70
   128
 71
   204
 72
   397
 73
   396
  0
VERTEX
  8
front_piece
 62
   7
 10
0.0
 20
0.0
 30
0.0
 70
   128
 71
   218
 72
   219
 73
   409
  0
VERTEX
  8
front_piece
 62
   7
 10
0.0
 20
0.0
 30
0.0
 70
   128
 71
   203
 72
   396
 73
   395
  0
VERTEX
  8
front_piece
 62
   7
 10
0.0
 20
0.0
 30
0.0
 70
   128
 71
   217
 72
   218
 73
   408
  0
VERTEX
  8
front_piece
 62
   7
 10
0.0
 20
0.0
 30
0.0
 70
   128
 71
   202
 72
   395
 73
   394
  0
VERTEX
  8
front_piece
 62
   7
 10
0.0
 20
0.0
 30
0.0
 70
   128
 71
   216
 72
   217
 73
   407
  0
VERTEX
  8
front_piece
 62
   7
 10
0.0
 20
0.0
 30
0.0
 70
   128
 71
   201
 72
   394
 73
   393
  0
VERTEX
  8
front_piece
 62
   7
 10
0.0
 20
0.0
 30
0.0
 70
   128
 71
   215
 72
   216
 73
   406
  0
VERTEX
  8
front_piece
 62
   7
 10
0.0
 20
0.0
 30
0.0
 70
   128
 71
   200
 72
   393
 73
   392
  0
VERTEX
  8
front_piece
 62
   7
 10
0.0
 20
0.0
 30
0.0
 70
   128
 71
   180
 72
   179
 73
   405
  0
VERTEX
  8
front_piece
 62
   7
 10
0.0
 20
0.0
 30
0.0
 70
   128
 71
   199
 72
   392
 73
   391
  0
VERTEX
  8
front_piece
 62
   7
 10
0.0
 20
0.0
 30
0.0
 70
   128
 71
   178
 72
   404
 73
   405
  0
VERTEX
  8
front_piece
 62
   7
 10
0.0
 20
0.0
 30
0.0
 70
   128
 71
   212
 72
   213
 73
   404
  0
VERTEX
  8
front_piece
 62
   7
 10
0.0
 20
0.0
 30
0.0
 70
   128
 71
   198
 72
   391
 73
   390
  0
VERTEX
  8
front_piece
 62
   7
 10
0.0
 20
0.0
 30
0.0
 70
   128
 71
   211
 72
   212
 73
   403
  0
VERTEX
  8
front_piece
 62
   7
 10
0.0
 20
0.0
 30
0.0
 70
   128
 71
   197
 72
   198
 73
   390
  0
VERTEX
  8
front_piece
 62
   7
 10
0.0
 20
0.0
 30
0.0
 70
   128
 71
   210
 72
   211
 73
   402
  0
VERTEX
  8
front_piece
 62
   7
 10
0.0
 20
0.0
 30
0.0
 70
   128
 71
   7
 72
   197
 73
   232
  0
VERTEX
  8
front_piece
 62
   7
 10
0.0
 20
0.0
 30
0.0
 70
   128
 71
   209
 72
   210
 73
   401
  0
VERTEX
  8
front_piece
 62
   7
 10
0.0
 20
0.0
 30
0.0
 70
   128
 71
   208
 72
   209
 73
   400
  0
VERTEX
  8
front_piece
 62
   7
 10
0.0
 20
0.0
 30
0.0
 70
   128
 71
   207
 72
   208
 73
   399
  0
VERTEX
  8
front_piece
 62
   7
 10
0.0
 20
0.0
 30
0.0
 70
   128
 71
   206
 72
   207
 73
   398
  0
VERTEX
  8
front_piece
 62
   7
 10
0.0
 20
0.0
 30
0.0
 70
   128
 71
   172
 72
   171
 73
   398
  0
VERTEX
  8
front_piece
 62
   7
 10
0.0
 20
0.0
 30
0.0
 70
   128
 71
   204
 72
   205
 73
   397
  0
VERTEX
  8
front_piece
 62
   7
 10
0.0
 20
0.0
 30
0.0
 70
   128
 71
   203
 72
   204
 73
   396
  0
VERTEX
  8
front_piece
 62
   7
 10
0.0
 20
0.0
 30
0.0
 70
   128
 71
   202
 72
   203
 73
   395
  0
VERTEX
  8
front_piece
 62
   7
 10
0.0
 20
0.0
 30
0.0
 70
   128
 71
   201
 72
   202
 73
   394
  0
VERTEX
  8
front_piece
 62
   7
 10
0.0
 20
0.0
 30
0.0
 70
   128
 71
   200
 72
   201
 73
   393
  0
VERTEX
  8
front_piece
 62
   7
 10
0.0
 20
0.0
 30
0.0
 70
   128
 71
   199
 72
   200
 73
   392
  0
VERTEX
  8
front_piece
 62
   7
 10
0.0
 20
0.0
 30
0.0
 70
   128
 71
   198
 72
   199
 73
   391
  0
VERTEX
  8
front_piece
 62
   7
 10
0.0
 20
0.0
 30
0.0
 70
   128
 71
   232
 72
   197
 73
   390
  0
VERTEX
  8
front_piece
 62
   7
 10
0.0
 20
0.0
 30
0.0
 70
   128
 71
   390
 72
   162
 73
   233
  0
VERTEX
  8
front_piece
 62
   7
 10
0.0
 20
0.0
 30
0.0
 70
   128
 71
   162
 72
   6
 73
   233
  0
VERTEX
  8
front_piece
 62
   7
 10
0.0
 20
0.0
 30
0.0
 70
   128
 71
   390
 72
   233
 73
   232
  0
VERTEX
  8
front_piece
 62
   7
 10
0.0
 20
0.0
 30
0.0
 70
   128
 71
   164
 72
   163
 73
   391
  0
VERTEX
  8
front_piece
 62
   7
 10
0.0
 20
0.0
 30
0.0
 70
   128
 71
   163
 72
   162
 73
   390
  0
VERTEX
  8
front_piece
 62
   7
 10
0.0
 20
0.0
 30
0.0
 70
   128
 71
   165
 72
   164
 73
   392
  0
VERTEX
  8
front_piece
 62
   7
 10
0.0
 20
0.0
 30
0.0
 70
   128
 71
   163
 72
   390
 73
   391
  0
VERTEX
  8
front_piece
 62
   7
 10
0.0
 20
0.0
 30
0.0
 70
   128
 71
   166
 72
   165
 73
   393
  0
VERTEX
  8
front_piece
 62
   7
 10
0.0
 20
0.0
 30
0.0
 70
   128
 71
   164
 72
   391
 73
   392
  0
VERTEX
  8
front_piece
 62
   7
 10
0.0
 20
0.0
 30
0.0
 70
   128
 71
   167
 72
   166
 73
   394
  0
VERTEX
  8
front_piece
 62
   7
 10
0.0
 20
0.0
 30
0.0
 70
   128
 71
   165
 72
   392
 73
   393
  0
VERTEX
  8
front_piece
 62
   7
 10
0.0
 20
0.0
 30
0.0
 70
   128
 71
   168
 72
   167
 73
   395
  0
VERTEX
  8
front_piece
 62
   7
 10
0.0
 20
0.0
 30
0.0
 70
   128
 71
   166
 72
   393
 73
   394
  0
VERTEX
  8
front_piece
 62
   7
 10
0.0
 20
0.0
 30
0.0
 70
   128
 71
   169
 72
   168
 73
   396
  0
VERTEX
  8
front_piece
 62
   7
 10
0.0
 20
0.0
 30
0.0
 70
   128
 71
   167
 72
   394
 73
   395
  0
VERTEX
  8
front_piece
 62
   7
 10
0.0
 20
0.0
 30
0.0
 70
   128
 71
   170
 72
   169
 73
   397
  0
VERTEX
  8
front_piece
 62
   7
 10
0.0
 20
0.0
 30
0.0
 70
   128
 71
   168
 72
   395
 73
   396
  0
VERTEX
  8
front_piece
 62
   7
 10
0.0
 20
0.0
 30
0.0
 70
   128
 71
   171
 72
   170
 73
   397
  0
VERTEX
  8
front_piece
 62
   7
 10
0.0
 20
0.0
 30
0.0
 70
   128
 71
   169
 72
   396
 73
   397
  0
VERTEX
  8
front_piece
 62
   7
 10
0.0
 20
0.0
 30
0.0
 70
   128
 71
   173
 72
   172
 73
   399
  0
VERTEX
  8
front_piece
 62
   7
 10
0.0
 20
0.0
 30
0.0
 70
   128
 71
   171
 72
   397
 73
   398
  0
VERTEX
  8
front_piece
 62
   7
 10
0.0
 20
0.0
 30
0.0
 70
   128
 71
   174
 72
   173
 73
   400
  0
VERTEX
  8
front_piece
 62
   7
 10
0.0
 20
0.0
 30
0.0
 70
   128
 71
   172
 72
   398
 73
   399
  0
VERTEX
  8
front_piece
 62
   7
 10
0.0
 20
0.0
 30
0.0
 70
   128
 71
   175
 72
   174
 73
   401
  0
VERTEX
  8
front_piece
 62
   7
 10
0.0
 20
0.0
 30
0.0
 70
   128
 71
   173
 72
   399
 73
   400
  0
VERTEX
  8
front_piece
 62
   7
 10
0.0
 20
0.0
 30
0.0
 70
   128
 71
   176
 72
   175
 73
   402
  0
VERTEX
  8
front_piece
 62
   7
 10
0.0
 20
0.0
 30
0.0
 70
   128
 71
   174
 72
   400
 73
   401
  0
VERTEX
  8
front_piece
 62
   7
 10
0.0
 20
0.0
 30
0.0
 70
   128
 71
   177
 72
   176
 73
   403
  0
VERTEX
  8
front_piece
 62
   7
 10
0.0
 20
0.0
 30
0.0
 70
   128
 71
   175
 72
   401
 73
   402
  0
VERTEX
  8
front_piece
 62
   7
 10
0.0
 20
0.0
 30
0.0
 70
   128
 71
   178
 72
   177
 73
   404
  0
VERTEX
  8
front_piece
 62
   7
 10
0.0
 20
0.0
 30
0.0
 70
   128
 71
   176
 72
   402
 73
   403
  0
VERTEX
  8
front_piece
 62
   7
 10
0.0
 20
0.0
 30
0.0
 70
   128
 71
   179
 72
   178
 73
   405
  0
VERTEX
  8
front_piece
 62
   7
 10
0.0
 20
0.0
 30
0.0
 70
   128
 71
   177
 72
   403
 73
   404
  0
VERTEX
  8
front_piece
 62
   7
 10
0.0
 20
0.0
 30
0.0
 70
   128
 71
   213
 72
   214
 73
   405
  0
VERTEX
  8
front_piece
 62
   7
 10
0.0
 20
0.0
 30
0.0
 70
   128
 71
   181
 72
   180
 73
   406
  0
VERTEX
  8
front_piece
 62
   7
 10
0.0
 20
0.0
 30
0.0
 70
   128
 71
   182
 72
   181
 73
   407
  0
VERTEX
  8
front_piece
 62
   7
 10
0.0
 20
0.0
 30
0.0
 70
   128
 71
   180
 72
   405
 73
   406
  0
VERTEX
  8
front_piece
 62
   7
 10
0.0
 20
0.0
 30
0.0
 70
   128
 71
   183
 72
   182
 73
   408
  0
VERTEX
  8
front_piece
 62
   7
 10
0.0
 20
0.0
 30
0.0
 70
   128
 71
   181
 72
   406
 73
   407
  0
VERTEX
  8
front_piece
 62
   7
 10
0.0
 20
0.0
 30
0.0
 70
   128
 71
   184
 72
   183
 73
   409
  0
VERTEX
  8
front_piece
 62
   7
 10
0.0
 20
0.0
 30
0.0
 70
   128
 71
   182
 72
   407
 73
   408
  0
VERTEX
  8
front_piece
 62
   7
 10
0.0
 20
0.0
 30
0.0
 70
   128
 71
   185
 72
   184
 73
   410
  0
VERTEX
  8
front_piece
 62
   7
 10
0.0
 20
0.0
 30
0.0
 70
   128
 71
   183
 72
   408
 73
   409
  0
VERTEX
  8
front_piece
 62
   7
 10
0.0
 20
0.0
 30
0.0
 70
   128
 71
   186
 72
   185
 73
   411
  0
VERTEX
  8
front_piece
 62
   7
 10
0.0
 20
0.0
 30
0.0
 70
   128
 71
   184
 72
   409
 73
   410
  0
VERTEX
  8
front_piece
 62
   7
 10
0.0
 20
0.0
 30
0.0
 70
   128
 71
   187
 72
   186
 73
   412
  0
VERTEX
  8
front_piece
 62
   7
 10
0.0
 20
0.0
 30
0.0
 70
   128
 71
   185
 72
   410
 73
   411
  0
VERTEX
  8
front_piece
 62
   7
 10
0.0
 20
0.0
 30
0.0
 70
   128
 71
   188
 72
   187
 73
   413
  0
VERTEX
  8
front_piece
 62
   7
 10
0.0
 20
0.0
 30
0.0
 70
   128
 71
   186
 72
   411
 73
   412
  0
VERTEX
  8
front_piece
 62
   7
 10
0.0
 20
0.0
 30
0.0
 70
   128
 71
   222
 72
   223
 73
   413
  0
VERTEX
  8
front_piece
 62
   7
 10
0.0
 20
0.0
 30
0.0
 70
   128
 71
   190
 72
   189
 73
   414
  0
VERTEX
  8
front_piece
 62
   7
 10
0.0
 20
0.0
 30
0.0
 70
   128
 71
   191
 72
   190
 73
   415
  0
VERTEX
  8
front_piece
 62
   7
 10
0.0
 20
0.0
 30
0.0
 70
   128
 71
   189
 72
   413
 73
   414
  0
VERTEX
  8
front_piece
 62
   7
 10
0.0
 20
0.0
 30
0.0
 70
   128
 71
   192
 72
   191
 73
   416
  0
VERTEX
  8
front_piece
 62
   7
 10
0.0
 20
0.0
 30
0.0
 70
   128
 71
   190
 72
   414
 73
   415
  0
VERTEX
  8
front_piece
 62
   7
 10
0.0
 20
0.0
 30
0.0
 70
   128
 71
   193
 72
   192
 73
   417
  0
VERTEX
  8
front_piece
 62
   7
 10
0.0
 20
0.0
 30
0.0
 70
   128
 71
   191
 72
   415
 73
   416
  0
VERTEX
  8
front_piece
 62
   7
 10
0.0
 20
0.0
 30
0.0
 70
   128
 71
   194
 72
   193
 73
   418
  0
VERTEX
  8
front_piece
 62
   7
 10
0.0
 20
0.0
 30
0.0
 70
   128
 71
   192
 72
   416
 73
   417
  0
VERTEX
  8
front_piece
 62
   7
 10
0.0
 20
0.0
 30
0.0
 70
   128
 71
   195
 72
   194
 73
   419
  0
VERTEX
  8
front_piece
 62
   7
 10
0.0
 20
0.0
 30
0.0
 70
   128
 71
   193
 72
   417
 73
   418
  0
VERTEX
  8
front_piece
 62
   7
 10
0.0
 20
0.0
 30
0.0
 70
   128
 71
   196
 72
   195
 73
   420
  0
VERTEX
  8
front_piece
 62
   7
 10
0.0
 20
0.0
 30
0.0
 70
   128
 71
   194
 72
   418
 73
   419
  0
VERTEX
  8
front_piece
 62
   7
 10
0.0
 20
0.0
 30
0.0
 70
   128
 71
   388
 72
   389
 73
   420
  0
VERTEX
  8
front_piece
 62
   7
 10
0.0
 20
0.0
 30
0.0
 70
   128
 71
   195
 72
   419
 73
   420
  0
VERTEX
  8
front_piece
 62
   7
 10
0.0
 20
0.0
 30
0.0
 70
   128
 71
   8
 72
   234
 73
   214
  0
VERTEX
  8
front_piece
 62
   7
 10
0.0
 20
0.0
 30
0.0
 70
   128
 71
   266
 72
   267
 73
   211
  0
VERTEX
  8
front_piece
 62
   7
 10
0.0
 20
0.0
 30
0.0
 70
   128
 71
   258
 72
   259
 73
   203
  0
VERTEX
  8
front_piece
 62
   7
 10
0.0
 20
0.0
 30
0.0
 70
   128
 71
   257
 72
   258
 73
   202
  0
VERTEX
  8
front_piece
 62
   7
 10
0.0
 20
0.0
 30
0.0
 70
   128
 71
   253
 72
   254
 73
   198
  0
VERTEX
  8
front_piece
 62
   7
 10
0.0
 20
0.0
 30
0.0
 70
   128
 71
   227
 72
   247
 73
   228
  0
VERTEX
  8
front_piece
 62
   7
 10
0.0
 20
0.0
 30
0.0
 70
   128
 71
   251
 72
   7
 73
   250
  0
VERTEX
  8
front_piece
 62
   7
 10
0.0
 20
0.0
 30
0.0
 70
   128
 71
   250
 72
   7
 73
   231
  0
VERTEX
  8
front_piece
 62
   7
 10
0.0
 20
0.0
 30
0.0
 70
   128
 71
   249
 72
   250
 73
   230
  0
VERTEX
  8
front_piece
 62
   7
 10
0.0
 20
0.0
 30
0.0
 70
   128
 71
   241
 72
   242
 73
   222
  0
VERTEX
  8
front_piece
 62
   7
 10
0.0
 20
0.0
 30
0.0
 70
   128
 71
   212
 72
   268
 73
   213
  0
VERTEX
  8
front_piece
 62
   7
 10
0.0
 20
0.0
 30
0.0
 70
   128
 71
   252
 72
   253
 73
   197
  0
VERTEX
  8
front_piece
 62
   7
 10
0.0
 20
0.0
 30
0.0
 70
   128
 71
   251
 72
   252
 73
   7
  0
VERTEX
  8
front_piece
 62
   7
 10
0.0
 20
0.0
 30
0.0
 70
   128
 71
   254
 72
   255
 73
   199
  0
VERTEX
  8
front_piece
 62
   7
 10
0.0
 20
0.0
 30
0.0
 70
   128
 71
   7
 72
   252
 73
   197
  0
VERTEX
  8
front_piece
 62
   7
 10
0.0
 20
0.0
 30
0.0
 70
   128
 71
   255
 72
   256
 73
   200
  0
VERTEX
  8
front_piece
 62
   7
 10
0.0
 20
0.0
 30
0.0
 70
   128
 71
   197
 72
   253
 73
   198
  0
VERTEX
  8
front_piece
 62
   7
 10
0.0
 20
0.0
 30
0.0
 70
   128
 71
   256
 72
   257
 73
   201
  0
VERTEX
  8
front_piece
 62
   7
 10
0.0
 20
0.0
 30
0.0
 70
   128
 71
   198
 72
   254
 73
   199
  0
VERTEX
  8
front_piece
 62
   7
 10
0.0
 20
0.0
 30
0.0
 70
   128
 71
   199
 72
   255
 73
   200
  0
VERTEX
  8
front_piece
 62
   7
 10
0.0
 20
0.0
 30
0.0
 70
   128
 71
   200
 72
   256
 73
   201
  0
VERTEX
  8
front_piece
 62
   7
 10
0.0
 20
0.0
 30
0.0
 70
   128
 71
   259
 72
   260
 73
   204
  0
VERTEX
  8
front_piece
 62
   7
 10
0.0
 20
0.0
 30
0.0
 70
   128
 71
   201
 72
   257
 73
   202
  0
VERTEX
  8
front_piece
 62
   7
 10
0.0
 20
0.0
 30
0.0
 70
   128
 71
   260
 72
   261
 73
   205
  0
VERTEX
  8
front_piece
 62
   7
 10
0.0
 20
0.0
 30
0.0
 70
   128
 71
   202
 72
   258
 73
   203
  0
VERTEX
  8
front_piece
 62
   7
 10
0.0
 20
0.0
 30
0.0
 70
   128
 71
   203
 72
   259
 73
   204
  0
VERTEX
  8
front_piece
 62
   7
 10
0.0
 20
0.0
 30
0.0
 70
   128
 71
   261
 72
   262
 73
   206
  0
VERTEX
  8
front_piece
 62
   7
 10
0.0
 20
0.0
 30
0.0
 70
   128
 71
   204
 72
   260
 73
   205
  0
VERTEX
  8
front_piece
 62
   7
 10
0.0
 20
0.0
 30
0.0
 70
   128
 71
   262
 72
   263
 73
   207
  0
VERTEX
  8
front_piece
 62
   7
 10
0.0
 20
0.0
 30
0.0
 70
   128
 71
   205
 72
   261
 73
   206
  0
VERTEX
  8
front_piece
 62
   7
 10
0.0
 20
0.0
 30
0.0
 70
   128
 71
   263
 72
   264
 73
   208
  0
VERTEX
  8
front_piece
 62
   7
 10
0.0
 20
0.0
 30
0.0
 70
   128
 71
   206
 72
   262
 73
   207
  0
VERTEX
  8
front_piece
 62
   7
 10
0.0
 20
0.0
 30
0.0
 70
   128
 71
   264
 72
   265
 73
   209
  0
VERTEX
  8
front_piece
 62
   7
 10
0.0
 20
0.0
 30
0.0
 70
   128
 71
   207
 72
   263
 73
   208
  0
VERTEX
  8
front_piece
 62
   7
 10
0.0
 20
0.0
 30
0.0
 70
   128
 71
   265
 72
   266
 73
   210
  0
VERTEX
  8
front_piece
 62
   7
 10
0.0
 20
0.0
 30
0.0
 70
   128
 71
   208
 72
   264
 73
   209
  0
VERTEX
  8
front_piece
 62
   7
 10
0.0
 20
0.0
 30
0.0
 70
   128
 71
   267
 72
   268
 73
   212
  0
VERTEX
  8
front_piece
 62
   7
 10
0.0
 20
0.0
 30
0.0
 70
   128
 71
   209
 72
   265
 73
   210
  0
VERTEX
  8
front_piece
 62
   7
 10
0.0
 20
0.0
 30
0.0
 70
   128
 71
   268
 72
   8
 73
   213
  0
VERTEX
  8
front_piece
 62
   7
 10
0.0
 20
0.0
 30
0.0
 70
   128
 71
   210
 72
   266
 73
   211
  0
VERTEX
  8
front_piece
 62
   7
 10
0.0
 20
0.0
 30
0.0
 70
   128
 71
   211
 72
   267
 73
   212
  0
VERTEX
  8
front_piece
 62
   7
 10
0.0
 20
0.0
 30
0.0
 70
   128
 71
   234
 72
   235
 73
   215
  0
VERTEX
  8
front_piece
 62
   7
 10
0.0
 20
0.0
 30
0.0
 70
   128
 71
   213
 72
   8
 73
   214
  0
VERTEX
  8
front_piece
 62
   7
 10
0.0
 20
0.0
 30
0.0
 70
   128
 71
   235
 72
   236
 73
   216
  0
VERTEX
  8
front_piece
 62
   7
 10
0.0
 20
0.0
 30
0.0
 70
   128
 71
   214
 72
   234
 73
   215
  0
VERTEX
  8
front_piece
 62
   7
 10
0.0
 20
0.0
 30
0.0
 70
   128
 71
   236
 72
   237
 73
   217
  0
VERTEX
  8
front_piece
 62
   7
 10
0.0
 20
0.0
 30
0.0
 70
   128
 71
   215
 72
   235
 73
   216
  0
VERTEX
  8
front_piece
 62
   7
 10
0.0
 20
0.0
 30
0.0
 70
   128
 71
   237
 72
   238
 73
   218
  0
VERTEX
  8
front_piece
 62
   7
 10
0.0
 20
0.0
 30
0.0
 70
   128
 71
   216
 72
   236
 73
   217
  0
VERTEX
  8
front_piece
 62
   7
 10
0.0
 20
0.0
 30
0.0
 70
   128
 71
   238
 72
   239
 73
   219
  0
VERTEX
  8
front_piece
 62
   7
 10
0.0
 20
0.0
 30
0.0
 70
   128
 71
   217
 72
   237
 73
   218
  0
VERTEX
  8
front_piece
 62
   7
 10
0.0
 20
0.0
 30
0.0
 70
   128
 71
   239
 72
   240
 73
   220
  0
VERTEX
  8
front_piece
 62
   7
 10
0.0
 20
0.0
 30
0.0
 70
   128
 71
   218
 72
   238
 73
   219
  0
VERTEX
  8
front_piece
 62
   7
 10
0.0
 20
0.0
 30
0.0
 70
   128
 71
   240
 72
   241
 73
   221
  0
VERTEX
  8
front_piece
 62
   7
 10
0.0
 20
0.0
 30
0.0
 70
   128
 71
   219
 72
   239
 73
   220
  0
VERTEX
  8
front_piece
 62
   7
 10
0.0
 20
0.0
 30
0.0
 70
   128
 71
   242
 72
   243
 73
   223
  0
VERTEX
  8
front_piece
 62
   7
 10
0.0
 20
0.0
 30
0.0
 70
   128
 71
   220
 72
   240
 73
   221
  0
VERTEX
  8
front_piece
 62
   7
 10
0.0
 20
0.0
 30
0.0
 70
   128
 71
   243
 72
   244
 73
   224
  0
VERTEX
  8
front_piece
 62
   7
 10
0.0
 20
0.0
 30
0.0
 70
   128
 71
   221
 72
   241
 73
   222
  0
VERTEX
  8
front_piece
 62
   7
 10
0.0
 20
0.0
 30
0.0
 70
   128
 71
   244
 72
   245
 73
   225
  0
VERTEX
  8
front_piece
 62
   7
 10
0.0
 20
0.0
 30
0.0
 70
   128
 71
   222
 72
   242
 73
   223
  0
VERTEX
  8
front_piece
 62
   7
 10
0.0
 20
0.0
 30
0.0
 70
   128
 71
   245
 72
   246
 73
   226
  0
VERTEX
  8
front_piece
 62
   7
 10
0.0
 20
0.0
 30
0.0
 70
   128
 71
   223
 72
   243
 73
   224
  0
VERTEX
  8
front_piece
 62
   7
 10
0.0
 20
0.0
 30
0.0
 70
   128
 71
   246
 72
   247
 73
   227
  0
VERTEX
  8
front_piece
 62
   7
 10
0.0
 20
0.0
 30
0.0
 70
   128
 71
   224
 72
   244
 73
   225
  0
VERTEX
  8
front_piece
 62
   7
 10
0.0
 20
0.0
 30
0.0
 70
   128
 71
   247
 72
   248
 73
   228
  0
VERTEX
  8
front_piece
 62
   7
 10
0.0
 20
0.0
 30
0.0
 70
   128
 71
   225
 72
   245
 73
   226
  0
VERTEX
  8
front_piece
 62
   7
 10
0.0
 20
0.0
 30
0.0
 70
   128
 71
   248
 72
   249
 73
   229
  0
VERTEX
  8
front_piece
 62
   7
 10
0.0
 20
0.0
 30
0.0
 70
   128
 71
   226
 72
   246
 73
   227
  0
VERTEX
  8
front_piece
 62
   7
 10
0.0
 20
0.0
 30
0.0
 70
   128
 71
   228
 72
   248
 73
   229
  0
VERTEX
  8
front_piece
 62
   7
 10
0.0
 20
0.0
 30
0.0
 70
   128
 71
   229
 72
   249
 73
   230
  0
VERTEX
  8
front_piece
 62
   7
 10
0.0
 20
0.0
 30
0.0
 70
   128
 71
   230
 72
   250
 73
   231
  0
VERTEX
  8
front_piece
 62
   7
 10
0.0
 20
0.0
 30
0.0
 70
   128
 71
   9
 72
   303
 73
   304
  0
VERTEX
  8
front_piece
 62
   7
 10
0.0
 20
0.0
 30
0.0
 70
   128
 71
   293
 72
   292
 73
   35
  0
VERTEX
  8
front_piece
 62
   7
 10
0.0
 20
0.0
 30
0.0
 70
   128
 71
   279
 72
   278
 73
   21
  0
VERTEX
  8
front_piece
 62
   7
 10
0.0
 20
0.0
 30
0.0
 70
   128
 71
   276
 72
   275
 73
   18
  0
VERTEX
  8
front_piece
 62
   7
 10
0.0
 20
0.0
 30
0.0
 70
   128
 71
   274
 72
   273
 73
   16
  0
VERTEX
  8
front_piece
 62
   7
 10
0.0
 20
0.0
 30
0.0
 70
   128
 71
   273
 72
   272
 73
   15
  0
VERTEX
  8
front_piece
 62
   7
 10
0.0
 20
0.0
 30
0.0
 70
   128
 71
   272
 72
   271
 73
   14
  0
VERTEX
  8
front_piece
 62
   7
 10
0.0
 20
0.0
 30
0.0
 70
   128
 71
   271
 72
   270
 73
   13
  0
VERTEX
  8
front_piece
 62
   7
 10
0.0
 20
0.0
 30
0.0
 70
   128
 71
   270
 72
   269
 73
   12
  0
VERTEX
  8
front_piece
 62
   7
 10
0.0
 20
0.0
 30
0.0
 70
   128
 71
   269
 72
   9
 73
   421
  0
VERTEX
  8
front_piece
 62
   7
 10
0.0
 20
0.0
 30
0.0
 70
   128
 71
   275
 72
   274
 73
   17
  0
VERTEX
  8
front_piece
 62
   7
 10
0.0
 20
0.0
 30
0.0
 70
   128
 71
   269
 72
   421
 73
   12
  0
VERTEX
  8
front_piece
 62
   7
 10
0.0
 20
0.0
 30
0.0
 70
   128
 71
   277
 72
   276
 73
   19
  0
VERTEX
  8
front_piece
 62
   7
 10
0.0
 20
0.0
 30
0.0
 70
   128
 71
   421
 72
   1
 73
   12
  0
VERTEX
  8
front_piece
 62
   7
 10
0.0
 20
0.0
 30
0.0
 70
   128
 71
   278
 72
   277
 73
   20
  0
VERTEX
  8
front_piece
 62
   7
 10
0.0
 20
0.0
 30
0.0
 70
   128
 71
   270
 72
   12
 73
   13
  0
VERTEX
  8
front_piece
 62
   7
 10
0.0
 20
0.0
 30
0.0
 70
   128
 71
   280
 72
   279
 73
   22
  0
VERTEX
  8
front_piece
 62
   7
 10
0.0
 20
0.0
 30
0.0
 70
   128
 71
   271
 72
   13
 73
   14
  0
VERTEX
  8
front_piece
 62
   7
 10
0.0
 20
0.0
 30
0.0
 70
   128
 71
   281
 72
   280
 73
   23
  0
VERTEX
  8
front_piece
 62
   7
 10
0.0
 20
0.0
 30
0.0
 70
   128
 71
   272
 72
   14
 73
   15
  0
VERTEX
  8
front_piece
 62
   7
 10
0.0
 20
0.0
 30
0.0
 70
   128
 71
   282
 72
   281
 73
   24
  0
VERTEX
  8
front_piece
 62
   7
 10
0.0
 20
0.0
 30
0.0
 70
   128
 71
   273
 72
   15
 73
   16
  0
VERTEX
  8
front_piece
 62
   7
 10
0.0
 20
0.0
 30
0.0
 70
   128
 71
   325
 72
   283
 73
   324
  0
VERTEX
  8
front_piece
 62
   7
 10
0.0
 20
0.0
 30
0.0
 70
   128
 71
   274
 72
   16
 73
   17
  0
VERTEX
  8
front_piece
 62
   7
 10
0.0
 20
0.0
 30
0.0
 70
   128
 71
   275
 72
   17
 73
   18
  0
VERTEX
  8
front_piece
 62
   7
 10
0.0
 20
0.0
 30
0.0
 70
   128
 71
   276
 72
   18
 73
   19
  0
VERTEX
  8
front_piece
 62
   7
 10
0.0
 20
0.0
 30
0.0
 70
   128
 71
   277
 72
   19
 73
   20
  0
VERTEX
  8
front_piece
 62
   7
 10
0.0
 20
0.0
 30
0.0
 70
   128
 71
   278
 72
   20
 73
   21
  0
VERTEX
  8
front_piece
 62
   7
 10
0.0
 20
0.0
 30
0.0
 70
   128
 71
   279
 72
   21
 73
   22
  0
VERTEX
  8
front_piece
 62
   7
 10
0.0
 20
0.0
 30
0.0
 70
   128
 71
   280
 72
   22
 73
   23
  0
VERTEX
  8
front_piece
 62
   7
 10
0.0
 20
0.0
 30
0.0
 70
   128
 71
   281
 72
   23
 73
   24
  0
VERTEX
  8
front_piece
 62
   7
 10
0.0
 20
0.0
 30
0.0
 70
   128
 71
   291
 72
   290
 73
   33
  0
VERTEX
  8
front_piece
 62
   7
 10
0.0
 20
0.0
 30
0.0
 70
   128
 71
   282
 72
   24
 73
   25
  0
VERTEX
  8
front_piece
 62
   7
 10
0.0
 20
0.0
 30
0.0
 70
   128
 71
   292
 72
   291
 73
   34
  0
VERTEX
  8
front_piece
 62
   7
 10
0.0
 20
0.0
 30
0.0
 70
   128
 71
   294
 72
   293
 73
   36
  0
VERTEX
  8
front_piece
 62
   7
 10
0.0
 20
0.0
 30
0.0
 70
   128
 71
   295
 72
   294
 73
   37
  0
VERTEX
  8
front_piece
 62
   7
 10
0.0
 20
0.0
 30
0.0
 70
   128
 71
   296
 72
   295
 73
   38
  0
VERTEX
  8
front_piece
 62
   7
 10
0.0
 20
0.0
 30
0.0
 70
   128
 71
   297
 72
   296
 73
   39
  0
VERTEX
  8
front_piece
 62
   7
 10
0.0
 20
0.0
 30
0.0
 70
   128
 71
   298
 72
   297
 73
   40
  0
VERTEX
  8
front_piece
 62
   7
 10
0.0
 20
0.0
 30
0.0
 70
   128
 71
   299
 72
   298
 73
   41
  0
VERTEX
  8
front_piece
 62
   7
 10
0.0
 20
0.0
 30
0.0
 70
   128
 71
   300
 72
   299
 73
   42
  0
VERTEX
  8
front_piece
 62
   7
 10
0.0
 20
0.0
 30
0.0
 70
   128
 71
   301
 72
   300
 73
   43
  0
VERTEX
  8
front_piece
 62
   7
 10
0.0
 20
0.0
 30
0.0
 70
   128
 71
   291
 72
   33
 73
   34
  0
VERTEX
  8
front_piece
 62
   7
 10
0.0
 20
0.0
 30
0.0
 70
   128
 71
   302
 72
   301
 73
   44
  0
VERTEX
  8
front_piece
 62
   7
 10
0.0
 20
0.0
 30
0.0
 70
   128
 71
   292
 72
   34
 73
   35
  0
VERTEX
  8
front_piece
 62
   7
 10
0.0
 20
0.0
 30
0.0
 70
   128
 71
   303
 72
   302
 73
   45
  0
VERTEX
  8
front_piece
 62
   7
 10
0.0
 20
0.0
 30
0.0
 70
   128
 71
   293
 72
   35
 73
   36
  0
VERTEX
  8
front_piece
 62
   7
 10
0.0
 20
0.0
 30
0.0
 70
   128
 71
   294
 72
   36
 73
   37
  0
VERTEX
  8
front_piece
 62
   7
 10
0.0
 20
0.0
 30
0.0
 70
   128
 71
   295
 72
   37
 73
   38
  0
VERTEX
  8
front_piece
 62
   7
 10
0.0
 20
0.0
 30
0.0
 70
   128
 71
   296
 72
   38
 73
   39
  0
VERTEX
  8
front_piece
 62
   7
 10
0.0
 20
0.0
 30
0.0
 70
   128
 71
   297
 72
   39
 73
   40
  0
VERTEX
  8
front_piece
 62
   7
 10
0.0
 20
0.0
 30
0.0
 70
   128
 71
   298
 72
   40
 73
   41
  0
VERTEX
  8
front_piece
 62
   7
 10
0.0
 20
0.0
 30
0.0
 70
   128
 71
   299
 72
   41
 73
   42
  0
VERTEX
  8
front_piece
 62
   7
 10
0.0
 20
0.0
 30
0.0
 70
   128
 71
   300
 72
   42
 73
   43
  0
VERTEX
  8
front_piece
 62
   7
 10
0.0
 20
0.0
 30
0.0
 70
   128
 71
   301
 72
   43
 73
   44
  0
VERTEX
  8
front_piece
 62
   7
 10
0.0
 20
0.0
 30
0.0
 70
   128
 71
   302
 72
   44
 73
   45
  0
VERTEX
  8
front_piece
 62
   7
 10
0.0
 20
0.0
 30
0.0
 70
   128
 71
   303
 72
   45
 73
   46
  0
VERTEX
  8
front_piece
 62
   7
 10
0.0
 20
0.0
 30
0.0
 70
   128
 71
   303
 72
   46
 73
   304
  0
VERTEX
  8
front_piece
 62
   7
 10
0.0
 20
0.0
 30
0.0
 70
   128
 71
   46
 72
   1
 73
   304
  0
VERTEX
  8
front_piece
 62
   7
 10
0.0
 20
0.0
 30
0.0
 70
   128
 71
   305
 72
   31
 73
   10
  0
VERTEX
  8
front_piece
 62
   7
 10
0.0
 20
0.0
 30
0.0
 70
   128
 71
   31
 72
   32
 73
   10
  0
VERTEX
  8
front_piece
 62
   7
 10
0.0
 20
0.0
 30
0.0
 70
   128
 71
   30
 72
   31
 73
   305
  0
VERTEX
  8
front_piece
 62
   7
 10
0.0
 20
0.0
 30
0.0
 70
   128
 71
   30
 72
   305
 73
   306
  0
VERTEX
  8
front_piece
 62
   7
 10
0.0
 20
0.0
 30
0.0
 70
   128
 71
   308
 72
   30
 73
   307
  0
VERTEX
  8
front_piece
 62
   7
 10
0.0
 20
0.0
 30
0.0
 70
   128
 71
   30
 72
   306
 73
   307
  0
VERTEX
  8
front_piece
 62
   7
 10
0.0
 20
0.0
 30
0.0
 70
   128
 71
   29
 72
   30
 73
   308
  0
VERTEX
  8
front_piece
 62
   7
 10
0.0
 20
0.0
 30
0.0
 70
   128
 71
   310
 72
   29
 73
   309
  0
VERTEX
  8
front_piece
 62
   7
 10
0.0
 20
0.0
 30
0.0
 70
   128
 71
   29
 72
   308
 73
   309
  0
VERTEX
  8
front_piece
 62
   7
 10
0.0
 20
0.0
 30
0.0
 70
   128
 71
   28
 72
   29
 73
   310
  0
VERTEX
  8
front_piece
 62
   7
 10
0.0
 20
0.0
 30
0.0
 70
   128
 71
   28
 72
   310
 73
   311
  0
VERTEX
  8
front_piece
 62
   7
 10
0.0
 20
0.0
 30
0.0
 70
   128
 71
   27
 72
   28
 73
   312
  0
VERTEX
  8
front_piece
 62
   7
 10
0.0
 20
0.0
 30
0.0
 70
   128
 71
   312
 72
   28
 73
   311
  0
VERTEX
  8
front_piece
 62
   7
 10
0.0
 20
0.0
 30
0.0
 70
   128
 71
   27
 72
   312
 73
   313
  0
VERTEX
  8
front_piece
 62
   7
 10
0.0
 20
0.0
 30
0.0
 70
   128
 71
   315
 72
   27
 73
   314
  0
VERTEX
  8
front_piece
 62
   7
 10
0.0
 20
0.0
 30
0.0
 70
   128
 71
   27
 72
   313
 73
   314
  0
VERTEX
  8
front_piece
 62
   7
 10
0.0
 20
0.0
 30
0.0
 70
   128
 71
   26
 72
   27
 73
   315
  0
VERTEX
  8
front_piece
 62
   7
 10
0.0
 20
0.0
 30
0.0
 70
   128
 71
   26
 72
   315
 73
   316
  0
VERTEX
  8
front_piece
 62
   7
 10
0.0
 20
0.0
 30
0.0
 70
   128
 71
   318
 72
   26
 73
   317
  0
VERTEX
  8
front_piece
 62
   7
 10
0.0
 20
0.0
 30
0.0
 70
   128
 71
   26
 72
   316
 73
   317
  0
VERTEX
  8
front_piece
 62
   7
 10
0.0
 20
0.0
 30
0.0
 70
   128
 71
   25
 72
   26
 73
   318
  0
VERTEX
  8
front_piece
 62
   7
 10
0.0
 20
0.0
 30
0.0
 70
   128
 71
   25
 72
   318
 73
   319
  0
VERTEX
  8
front_piece
 62
   7
 10
0.0
 20
0.0
 30
0.0
 70
   128
 71
   282
 72
   25
 73
   320
  0
VERTEX
  8
front_piece
 62
   7
 10
0.0
 20
0.0
 30
0.0
 70
   128
 71
   25
 72
   319
 73
   320
  0
VERTEX
  8
front_piece
 62
   7
 10
0.0
 20
0.0
 30
0.0
 70
   128
 71
   322
 72
   282
 73
   321
  0
VERTEX
  8
front_piece
 62
   7
 10
0.0
 20
0.0
 30
0.0
 70
   128
 71
   282
 72
   320
 73
   321
  0
VERTEX
  8
front_piece
 62
   7
 10
0.0
 20
0.0
 30
0.0
 70
   128
 71
   283
 72
   282
 73
   322
  0
VERTEX
  8
front_piece
 62
   7
 10
0.0
 20
0.0
 30
0.0
 70
   128
 71
   324
 72
   283
 73
   323
  0
VERTEX
  8
front_piece
 62
   7
 10
0.0
 20
0.0
 30
0.0
 70
   128
 71
   283
 72
   322
 73
   323
  0
VERTEX
  8
front_piece
 62
   7
 10
0.0
 20
0.0
 30
0.0
 70
   128
 71
   284
 72
   283
 73
   325
  0
VERTEX
  8
front_piece
 62
   7
 10
0.0
 20
0.0
 30
0.0
 70
   128
 71
   284
 72
   325
 73
   326
  0
VERTEX
  8
front_piece
 62
   7
 10
0.0
 20
0.0
 30
0.0
 70
   128
 71
   284
 72
   326
 73
   327
  0
VERTEX
  8
front_piece
 62
   7
 10
0.0
 20
0.0
 30
0.0
 70
   128
 71
   285
 72
   284
 73
   328
  0
VERTEX
  8
front_piece
 62
   7
 10
0.0
 20
0.0
 30
0.0
 70
   128
 71
   328
 72
   284
 73
   327
  0
VERTEX
  8
front_piece
 62
   7
 10
0.0
 20
0.0
 30
0.0
 70
   128
 71
   285
 72
   328
 73
   329
  0
VERTEX
  8
front_piece
 62
   7
 10
0.0
 20
0.0
 30
0.0
 70
   128
 71
   286
 72
   285
 73
   330
  0
VERTEX
  8
front_piece
 62
   7
 10
0.0
 20
0.0
 30
0.0
 70
   128
 71
   330
 72
   285
 73
   329
  0
VERTEX
  8
front_piece
 62
   7
 10
0.0
 20
0.0
 30
0.0
 70
   128
 71
   286
 72
   330
 73
   331
  0
VERTEX
  8
front_piece
 62
   7
 10
0.0
 20
0.0
 30
0.0
 70
   128
 71
   287
 72
   286
 73
   332
  0
VERTEX
  8
front_piece
 62
   7
 10
0.0
 20
0.0
 30
0.0
 70
   128
 71
   332
 72
   286
 73
   331
  0
VERTEX
  8
front_piece
 62
   7
 10
0.0
 20
0.0
 30
0.0
 70
   128
 71
   287
 72
   332
 73
   333
  0
VERTEX
  8
front_piece
 62
   7
 10
0.0
 20
0.0
 30
0.0
 70
   128
 71
   288
 72
   287
 73
   334
  0
VERTEX
  8
front_piece
 62
   7
 10
0.0
 20
0.0
 30
0.0
 70
   128
 71
   334
 72
   287
 73
   333
  0
VERTEX
  8
front_piece
 62
   7
 10
0.0
 20
0.0
 30
0.0
 70
   128
 71
   288
 72
   334
 73
   335
  0
VERTEX
  8
front_piece
 62
   7
 10
0.0
 20
0.0
 30
0.0
 70
   128
 71
   288
 72
   335
 73
   336
  0
VERTEX
  8
front_piece
 62
   7
 10
0.0
 20
0.0
 30
0.0
 70
   128
 71
   289
 72
   288
 73
   337
  0
VERTEX
  8
front_piece
 62
   7
 10
0.0
 20
0.0
 30
0.0
 70
   128
 71
   337
 72
   288
 73
   336
  0
VERTEX
  8
front_piece
 62
   7
 10
0.0
 20
0.0
 30
0.0
 70
   128
 71
   289
 72
   337
 73
   338
  0
VERTEX
  8
front_piece
 62
   7
 10
0.0
 20
0.0
 30
0.0
 70
   128
 71
   290
 72
   289
 73
   340
  0
VERTEX
  8
front_piece
 62
   7
 10
0.0
 20
0.0
 30
0.0
 70
   128
 71
   289
 72
   338
 73
   339
  0
VERTEX
  8
front_piece
 62
   7
 10
0.0
 20
0.0
 30
0.0
 70
   128
 71
   289
 72
   339
 73
   340
  0
VERTEX
  8
front_piece
 62
   7
 10
0.0
 20
0.0
 30
0.0
 70
   128
 71
   345
 72
   32
 73
   344
  0
VERTEX
  8
front_piece
 62
   7
 10
0.0
 20
0.0
 30
0.0
 70
   128
 71
   33
 72
   290
 73
   341
  0
VERTEX
  8
front_piece
 62
   7
 10
0.0
 20
0.0
 30
0.0
 70
   128
 71
   290
 72
   340
 73
   341
  0
VERTEX
  8
front_piece
 62
   7
 10
0.0
 20
0.0
 30
0.0
 70
   128
 71
   344
 72
   32
 73
   343
  0
VERTEX
  8
front_piece
 62
   7
 10
0.0
 20
0.0
 30
0.0
 70
   128
 71
   33
 72
   341
 73
   342
  0
VERTEX
  8
front_piece
 62
   7
 10
0.0
 20
0.0
 30
0.0
 70
   128
 71
   32
 72
   33
 73
   343
  0
VERTEX
  8
front_piece
 62
   7
 10
0.0
 20
0.0
 30
0.0
 70
   128
 71
   33
 72
   342
 73
   343
  0
VERTEX
  8
front_piece
 62
   7
 10
0.0
 20
0.0
 30
0.0
 70
   128
 71
   346
 72
   32
 73
   345
  0
VERTEX
  8
front_piece
 62
   7
 10
0.0
 20
0.0
 30
0.0
 70
   128
 71
   347
 72
   32
 73
   346
  0
VERTEX
  8
front_piece
 62
   7
 10
0.0
 20
0.0
 30
0.0
 70
   128
 71
   10
 72
   32
 73
   348
  0
VERTEX
  8
front_piece
 62
   7
 10
0.0
 20
0.0
 30
0.0
 70
   128
 71
   32
 72
   347
 73
   348
  0
VERTEX
  8
front_piece
 62
   7
 10
0.0
 20
0.0
 30
0.0
 70
   128
 71
   281
 72
   282
 73
   380
  0
VERTEX
  8
front_piece
 62
   7
 10
0.0
 20
0.0
 30
0.0
 70
   128
 71
   282
 72
   283
 73
   381
  0
VERTEX
  8
front_piece
 62
   7
 10
0.0
 20
0.0
 30
0.0
 70
   128
 71
   283
 72
   284
 73
   382
  0
VERTEX
  8
front_piece
 62
   7
 10
0.0
 20
0.0
 30
0.0
 70
   128
 71
   284
 72
   285
 73
   383
  0
VERTEX
  8
front_piece
 62
   7
 10
0.0
 20
0.0
 30
0.0
 70
   128
 71
   285
 72
   286
 73
   11
  0
VERTEX
  8
front_piece
 62
   7
 10
0.0
 20
0.0
 30
0.0
 70
   128
 71
   286
 72
   287
 73
   11
  0
VERTEX
  8
front_piece
 62
   7
 10
0.0
 20
0.0
 30
0.0
 70
   128
 71
   280
 72
   281
 73
   379
  0
VERTEX
  8
front_piece
 62
   7
 10
0.0
 20
0.0
 30
0.0
 70
   128
 71
   285
 72
   11
 73
   383
  0
VERTEX
  8
front_piece
 62
   7
 10
0.0
 20
0.0
 30
0.0
 70
   128
 71
   279
 72
   280
 73
   378
  0
VERTEX
  8
front_piece
 62
   7
 10
0.0
 20
0.0
 30
0.0
 70
   128
 71
   284
 72
   383
 73
   382
  0
VERTEX
  8
front_piece
 62
   7
 10
0.0
 20
0.0
 30
0.0
 70
   128
 71
   278
 72
   279
 73
   377
  0
VERTEX
  8
front_piece
 62
   7
 10
0.0
 20
0.0
 30
0.0
 70
   128
 71
   283
 72
   382
 73
   381
  0
VERTEX
  8
front_piece
 62
   7
 10
0.0
 20
0.0
 30
0.0
 70
   128
 71
   277
 72
   278
 73
   376
  0
VERTEX
  8
front_piece
 62
   7
 10
0.0
 20
0.0
 30
0.0
 70
   128
 71
   282
 72
   381
 73
   380
  0
VERTEX
  8
front_piece
 62
   7
 10
0.0
 20
0.0
 30
0.0
 70
   128
 71
   276
 72
   277
 73
   375
  0
VERTEX
  8
front_piece
 62
   7
 10
0.0
 20
0.0
 30
0.0
 70
   128
 71
   281
 72
   380
 73
   379
  0
VERTEX
  8
front_piece
 62
   7
 10
0.0
 20
0.0
 30
0.0
 70
   128
 71
   275
 72
   276
 73
   374
  0
VERTEX
  8
front_piece
 62
   7
 10
0.0
 20
0.0
 30
0.0
 70
   128
 71
   280
 72
   379
 73
   378
  0
VERTEX
  8
front_piece
 62
   7
 10
0.0
 20
0.0
 30
0.0
 70
   128
 71
   274
 72
   275
 73
   373
  0
VERTEX
  8
front_piece
 62
   7
 10
0.0
 20
0.0
 30
0.0
 70
   128
 71
   279
 72
   378
 73
   377
  0
VERTEX
  8
front_piece
 62
   7
 10
0.0
 20
0.0
 30
0.0
 70
   128
 71
   273
 72
   274
 73
   372
  0
VERTEX
  8
front_piece
 62
   7
 10
0.0
 20
0.0
 30
0.0
 70
   128
 71
   278
 72
   377
 73
   376
  0
VERTEX
  8
front_piece
 62
   7
 10
0.0
 20
0.0
 30
0.0
 70
   128
 71
   272
 72
   273
 73
   371
  0
VERTEX
  8
front_piece
 62
   7
 10
0.0
 20
0.0
 30
0.0
 70
   128
 71
   277
 72
   376
 73
   375
  0
VERTEX
  8
front_piece
 62
   7
 10
0.0
 20
0.0
 30
0.0
 70
   128
 71
   271
 72
   272
 73
   370
  0
VERTEX
  8
front_piece
 62
   7
 10
0.0
 20
0.0
 30
0.0
 70
   128
 71
   276
 72
   375
 73
   374
  0
VERTEX
  8
front_piece
 62
   7
 10
0.0
 20
0.0
 30
0.0
 70
   128
 71
   270
 72
   271
 73
   369
  0
VERTEX
  8
front_piece
 62
   7
 10
0.0
 20
0.0
 30
0.0
 70
   128
 71
   275
 72
   374
 73
   373
  0
VERTEX
  8
front_piece
 62
   7
 10
0.0
 20
0.0
 30
0.0
 70
   128
 71
   269
 72
   270
 73
   368
  0
VERTEX
  8
front_piece
 62
   7
 10
0.0
 20
0.0
 30
0.0
 70
   128
 71
   274
 72
   373
 73
   372
  0
VERTEX
  8
front_piece
 62
   7
 10
0.0
 20
0.0
 30
0.0
 70
   128
 71
   9
 72
   269
 73
   367
  0
VERTEX
  8
front_piece
 62
   7
 10
0.0
 20
0.0
 30
0.0
 70
   128
 71
   273
 72
   372
 73
   371
  0
VERTEX
  8
front_piece
 62
   7
 10
0.0
 20
0.0
 30
0.0
 70
   128
 71
   303
 72
   9
 73
   366
  0
VERTEX
  8
front_piece
 62
   7
 10
0.0
 20
0.0
 30
0.0
 70
   128
 71
   272
 72
   371
 73
   370
  0
VERTEX
  8
front_piece
 62
   7
 10
0.0
 20
0.0
 30
0.0
 70
   128
 71
   302
 72
   303
 73
   365
  0
VERTEX
  8
front_piece
 62
   7
 10
0.0
 20
0.0
 30
0.0
 70
   128
 71
   271
 72
   370
 73
   369
  0
VERTEX
  8
front_piece
 62
   7
 10
0.0
 20
0.0
 30
0.0
 70
   128
 71
   301
 72
   302
 73
   364
  0
VERTEX
  8
front_piece
 62
   7
 10
0.0
 20
0.0
 30
0.0
 70
   128
 71
   270
 72
   369
 73
   368
  0
VERTEX
  8
front_piece
 62
   7
 10
0.0
 20
0.0
 30
0.0
 70
   128
 71
   300
 72
   301
 73
   363
  0
VERTEX
  8
front_piece
 62
   7
 10
0.0
 20
0.0
 30
0.0
 70
   128
 71
   269
 72
   368
 73
   367
  0
VERTEX
  8
front_piece
 62
   7
 10
0.0
 20
0.0
 30
0.0
 70
   128
 71
   299
 72
   300
 73
   362
  0
VERTEX
  8
front_piece
 62
   7
 10
0.0
 20
0.0
 30
0.0
 70
   128
 71
   9
 72
   367
 73
   366
  0
VERTEX
  8
front_piece
 62
   7
 10
0.0
 20
0.0
 30
0.0
 70
   128
 71
   298
 72
   299
 73
   361
  0
VERTEX
  8
front_piece
 62
   7
 10
0.0
 20
0.0
 30
0.0
 70
   128
 71
   303
 72
   366
 73
   365
  0
VERTEX
  8
front_piece
 62
   7
 10
0.0
 20
0.0
 30
0.0
 70
   128
 71
   297
 72
   298
 73
   360
  0
VERTEX
  8
front_piece
 62
   7
 10
0.0
 20
0.0
 30
0.0
 70
   128
 71
   302
 72
   365
 73
   364
  0
VERTEX
  8
front_piece
 62
   7
 10
0.0
 20
0.0
 30
0.0
 70
   128
 71
   296
 72
   297
 73
   359
  0
VERTEX
  8
front_piece
 62
   7
 10
0.0
 20
0.0
 30
0.0
 70
   128
 71
   301
 72
   364
 73
   363
  0
VERTEX
  8
front_piece
 62
   7
 10
0.0
 20
0.0
 30
0.0
 70
   128
 71
   295
 72
   296
 73
   358
  0
VERTEX
  8
front_piece
 62
   7
 10
0.0
 20
0.0
 30
0.0
 70
   128
 71
   300
 72
   363
 73
   362
  0
VERTEX
  8
front_piece
 62
   7
 10
0.0
 20
0.0
 30
0.0
 70
   128
 71
   294
 72
   295
 73
   357
  0
VERTEX
  8
front_piece
 62
   7
 10
0.0
 20
0.0
 30
0.0
 70
   128
 71
   299
 72
   362
 73
   361
  0
VERTEX
  8
front_piece
 62
   7
 10
0.0
 20
0.0
 30
0.0
 70
   128
 71
   293
 72
   294
 73
   356
  0
VERTEX
  8
front_piece
 62
   7
 10
0.0
 20
0.0
 30
0.0
 70
   128
 71
   298
 72
   361
 73
   360
  0
VERTEX
  8
front_piece
 62
   7
 10
0.0
 20
0.0
 30
0.0
 70
   128
 71
   292
 72
   293
 73
   355
  0
VERTEX
  8
front_piece
 62
   7
 10
0.0
 20
0.0
 30
0.0
 70
   128
 71
   297
 72
   360
 73
   359
  0
VERTEX
  8
front_piece
 62
   7
 10
0.0
 20
0.0
 30
0.0
 70
   128
 71
   291
 72
   292
 73
   354
  0
VERTEX
  8
front_piece
 62
   7
 10
0.0
 20
0.0
 30
0.0
 70
   128
 71
   296
 72
   359
 73
   358
  0
VERTEX
  8
front_piece
 62
   7
 10
0.0
 20
0.0
 30
0.0
 70
   128
 71
   295
 72
   358
 73
   357
  0
VERTEX
  8
front_piece
 62
   7
 10
0.0
 20
0.0
 30
0.0
 70
   128
 71
   290
 72
   291
 73
   353
  0
VERTEX
  8
front_piece
 62
   7
 10
0.0
 20
0.0
 30
0.0
 70
   128
 71
   294
 72
   357
 73
   356
  0
VERTEX
  8
front_piece
 62
   7
 10
0.0
 20
0.0
 30
0.0
 70
   128
 71
   293
 72
   356
 73
   355
  0
VERTEX
  8
front_piece
 62
   7
 10
0.0
 20
0.0
 30
0.0
 70
   128
 71
   289
 72
   290
 73
   352
  0
VERTEX
  8
front_piece
 62
   7
 10
0.0
 20
0.0
 30
0.0
 70
   128
 71
   292
 72
   355
 73
   354
  0
VERTEX
  8
front_piece
 62
   7
 10
0.0
 20
0.0
 30
0.0
 70
   128
 71
   291
 72
   354
 73
   353
  0
VERTEX
  8
front_piece
 62
   7
 10
0.0
 20
0.0
 30
0.0
 70
   128
 71
   288
 72
   289
 73
   351
  0
VERTEX
  8
front_piece
 62
   7
 10
0.0
 20
0.0
 30
0.0
 70
   128
 71
   290
 72
   353
 73
   352
  0
VERTEX
  8
front_piece
 62
   7
 10
0.0
 20
0.0
 30
0.0
 70
   128
 71
   289
 72
   352
 73
   351
  0
VERTEX
  8
front_piece
 62
   7
 10
0.0
 20
0.0
 30
0.0
 70
   128
 71
   287
 72
   288
 73
   350
  0
VERTEX
  8
front_piece
 62
   7
 10
0.0
 20
0.0
 30
0.0
 70
   128
 71
   288
 72
   351
 73
   350
  0
VERTEX
  8
front_piece
 62
   7
 10
0.0
 20
0.0
 30
0.0
 70
   128
 71
   11
 72
   287
 73
   349
  0
VERTEX
  8
front_piece
 62
   7
 10
0.0
 20
0.0
 30
0.0
 70
   128
 71
   287
 72
   350
 73
   349
  0
VERTEX
  8
front_piece
 62
   7
 10
0.0
 20
0.0
 30
0.0
 70
   128
 71
   440
 72
   250
 73
   439
  0
VERTEX
  8
front_piece
 62
   7
 10
0.0
 20
0.0
 30
0.0
 70
   128
 71
   252
 72
   251
 73
   440
  0
VERTEX
  8
front_piece
 62
   7
 10
0.0
 20
0.0
 30
0.0
 70
   128
 71
   441
 72
   252
 73
   440
  0
VERTEX
  8
front_piece
 62
   7
 10
0.0
 20
0.0
 30
0.0
 70
   128
 71
   442
 72
   253
 73
   441
  0
VERTEX
  8
front_piece
 62
   7
 10
0.0
 20
0.0
 30
0.0
 70
   128
 71
   443
 72
   254
 73
   442
  0
VERTEX
  8
front_piece
 62
   7
 10
0.0
 20
0.0
 30
0.0
 70
   128
 71
   444
 72
   255
 73
   443
  0
VERTEX
  8
front_piece
 62
   7
 10
0.0
 20
0.0
 30
0.0
 70
   128
 71
   445
 72
   256
 73
   444
  0
VERTEX
  8
front_piece
 62
   7
 10
0.0
 20
0.0
 30
0.0
 70
   128
 71
   446
 72
   257
 73
   445
  0
VERTEX
  8
front_piece
 62
   7
 10
0.0
 20
0.0
 30
0.0
 70
   128
 71
   447
 72
   258
 73
   446
  0
VERTEX
  8
front_piece
 62
   7
 10
0.0
 20
0.0
 30
0.0
 70
   128
 71
   448
 72
   259
 73
   447
  0
VERTEX
  8
front_piece
 62
   7
 10
0.0
 20
0.0
 30
0.0
 70
   128
 71
   261
 72
   260
 73
   448
  0
VERTEX
  8
front_piece
 62
   7
 10
0.0
 20
0.0
 30
0.0
 70
   128
 71
   449
 72
   261
 73
   448
  0
VERTEX
  8
front_piece
 62
   7
 10
0.0
 20
0.0
 30
0.0
 70
   128
 71
   450
 72
   262
 73
   449
  0
VERTEX
  8
front_piece
 62
   7
 10
0.0
 20
0.0
 30
0.0
 70
   128
 71
   451
 72
   263
 73
   450
  0
VERTEX
  8
front_piece
 62
   7
 10
0.0
 20
0.0
 30
0.0
 70
   128
 71
   452
 72
   264
 73
   451
  0
VERTEX
  8
front_piece
 62
   7
 10
0.0
 20
0.0
 30
0.0
 70
   128
 71
   453
 72
   265
 73
   452
  0
VERTEX
  8
front_piece
 62
   7
 10
0.0
 20
0.0
 30
0.0
 70
   128
 71
   454
 72
   266
 73
   453
  0
VERTEX
  8
front_piece
 62
   7
 10
0.0
 20
0.0
 30
0.0
 70
   128
 71
   455
 72
   267
 73
   454
  0
VERTEX
  8
front_piece
 62
   7
 10
0.0
 20
0.0
 30
0.0
 70
   128
 71
   8
 72
   268
 73
   422
  0
VERTEX
  8
front_piece
 62
   7
 10
0.0
 20
0.0
 30
0.0
 70
   128
 71
   455
 72
   268
 73
   267
  0
VERTEX
  8
front_piece
 62
   7
 10
0.0
 20
0.0
 30
0.0
 70
   128
 71
   422
 72
   268
 73
   455
  0
VERTEX
  8
front_piece
 62
   7
 10
0.0
 20
0.0
 30
0.0
 70
   128
 71
   424
 72
   423
 73
   455
  0
VERTEX
  8
front_piece
 62
   7
 10
0.0
 20
0.0
 30
0.0
 70
   128
 71
   439
 72
   249
 73
   438
  0
VERTEX
  8
front_piece
 62
   7
 10
0.0
 20
0.0
 30
0.0
 70
   128
 71
   11
 72
   424
 73
   383
  0
VERTEX
  8
front_piece
 62
   7
 10
0.0
 20
0.0
 30
0.0
 70
   128
 71
   438
 72
   248
 73
   437
  0
VERTEX
  8
front_piece
 62
   7
 10
0.0
 20
0.0
 30
0.0
 70
   128
 71
   383
 72
   424
 73
   455
  0
VERTEX
  8
front_piece
 62
   7
 10
0.0
 20
0.0
 30
0.0
 70
   128
 71
   437
 72
   247
 73
   436
  0
VERTEX
  8
front_piece
 62
   7
 10
0.0
 20
0.0
 30
0.0
 70
   128
 71
   267
 72
   266
 73
   454
  0
VERTEX
  8
front_piece
 62
   7
 10
0.0
 20
0.0
 30
0.0
 70
   128
 71
   436
 72
   246
 73
   435
  0
VERTEX
  8
front_piece
 62
   7
 10
0.0
 20
0.0
 30
0.0
 70
   128
 71
   266
 72
   265
 73
   453
  0
VERTEX
  8
front_piece
 62
   7
 10
0.0
 20
0.0
 30
0.0
 70
   128
 71
   265
 72
   264
 73
   452
  0
VERTEX
  8
front_piece
 62
   7
 10
0.0
 20
0.0
 30
0.0
 70
   128
 71
   435
 72
   245
 73
   434
  0
VERTEX
  8
front_piece
 62
   7
 10
0.0
 20
0.0
 30
0.0
 70
   128
 71
   264
 72
   263
 73
   451
  0
VERTEX
  8
front_piece
 62
   7
 10
0.0
 20
0.0
 30
0.0
 70
   128
 71
   434
 72
   244
 73
   433
  0
VERTEX
  8
front_piece
 62
   7
 10
0.0
 20
0.0
 30
0.0
 70
   128
 71
   263
 72
   262
 73
   450
  0
VERTEX
  8
front_piece
 62
   7
 10
0.0
 20
0.0
 30
0.0
 70
   128
 71
   433
 72
   243
 73
   432
  0
VERTEX
  8
front_piece
 62
   7
 10
0.0
 20
0.0
 30
0.0
 70
   128
 71
   262
 72
   261
 73
   449
  0
VERTEX
  8
front_piece
 62
   7
 10
0.0
 20
0.0
 30
0.0
 70
   128
 71
   243
 72
   242
 73
   432
  0
VERTEX
  8
front_piece
 62
   7
 10
0.0
 20
0.0
 30
0.0
 70
   128
 71
   375
 72
   376
 73
   448
  0
VERTEX
  8
front_piece
 62
   7
 10
0.0
 20
0.0
 30
0.0
 70
   128
 71
   432
 72
   241
 73
   431
  0
VERTEX
  8
front_piece
 62
   7
 10
0.0
 20
0.0
 30
0.0
 70
   128
 71
   447
 72
   374
 73
   448
  0
VERTEX
  8
front_piece
 62
   7
 10
0.0
 20
0.0
 30
0.0
 70
   128
 71
   431
 72
   240
 73
   430
  0
VERTEX
  8
front_piece
 62
   7
 10
0.0
 20
0.0
 30
0.0
 70
   128
 71
   259
 72
   258
 73
   447
  0
VERTEX
  8
front_piece
 62
   7
 10
0.0
 20
0.0
 30
0.0
 70
   128
 71
   258
 72
   257
 73
   446
  0
VERTEX
  8
front_piece
 62
   7
 10
0.0
 20
0.0
 30
0.0
 70
   128
 71
   430
 72
   239
 73
   429
  0
VERTEX
  8
front_piece
 62
   7
 10
0.0
 20
0.0
 30
0.0
 70
   128
 71
   257
 72
   256
 73
   445
  0
VERTEX
  8
front_piece
 62
   7
 10
0.0
 20
0.0
 30
0.0
 70
   128
 71
   429
 72
   238
 73
   428
  0
VERTEX
  8
front_piece
 62
   7
 10
0.0
 20
0.0
 30
0.0
 70
   128
 71
   256
 72
   255
 73
   444
  0
VERTEX
  8
front_piece
 62
   7
 10
0.0
 20
0.0
 30
0.0
 70
   128
 71
   428
 72
   237
 73
   427
  0
VERTEX
  8
front_piece
 62
   7
 10
0.0
 20
0.0
 30
0.0
 70
   128
 71
   255
 72
   254
 73
   443
  0
VERTEX
  8
front_piece
 62
   7
 10
0.0
 20
0.0
 30
0.0
 70
   128
 71
   427
 72
   236
 73
   426
  0
VERTEX
  8
front_piece
 62
   7
 10
0.0
 20
0.0
 30
0.0
 70
   128
 71
   254
 72
   253
 73
   442
  0
VERTEX
  8
front_piece
 62
   7
 10
0.0
 20
0.0
 30
0.0
 70
   128
 71
   426
 72
   235
 73
   425
  0
VERTEX
  8
front_piece
 62
   7
 10
0.0
 20
0.0
 30
0.0
 70
   128
 71
   253
 72
   252
 73
   441
  0
VERTEX
  8
front_piece
 62
   7
 10
0.0
 20
0.0
 30
0.0
 70
   128
 71
   425
 72
   234
 73
   384
  0
VERTEX
  8
front_piece
 62
   7
 10
0.0
 20
0.0
 30
0.0
 70
   128
 71
   366
 72
   367
 73
   440
  0
VERTEX
  8
front_piece
 62
   7
 10
0.0
 20
0.0
 30
0.0
 70
   128
 71
   234
 72
   8
 73
   384
  0
VERTEX
  8
front_piece
 62
   7
 10
0.0
 20
0.0
 30
0.0
 70
   128
 71
   439
 72
   365
 73
   440
  0
VERTEX
  8
front_piece
 62
   7
 10
0.0
 20
0.0
 30
0.0
 70
   128
 71
   250
 72
   249
 73
   439
  0
VERTEX
  8
front_piece
 62
   7
 10
0.0
 20
0.0
 30
0.0
 70
   128
 71
   249
 72
   248
 73
   438
  0
VERTEX
  8
front_piece
 62
   7
 10
0.0
 20
0.0
 30
0.0
 70
   128
 71
   248
 72
   247
 73
   437
  0
VERTEX
  8
front_piece
 62
   7
 10
0.0
 20
0.0
 30
0.0
 70
   128
 71
   247
 72
   246
 73
   436
  0
VERTEX
  8
front_piece
 62
   7
 10
0.0
 20
0.0
 30
0.0
 70
   128
 71
   246
 72
   245
 73
   435
  0
VERTEX
  8
front_piece
 62
   7
 10
0.0
 20
0.0
 30
0.0
 70
   128
 71
   245
 72
   244
 73
   434
  0
VERTEX
  8
front_piece
 62
   7
 10
0.0
 20
0.0
 30
0.0
 70
   128
 71
   244
 72
   243
 73
   433
  0
VERTEX
  8
front_piece
 62
   7
 10
0.0
 20
0.0
 30
0.0
 70
   128
 71
   358
 72
   359
 73
   433
  0
VERTEX
  8
front_piece
 62
   7
 10
0.0
 20
0.0
 30
0.0
 70
   128
 71
   242
 72
   241
 73
   432
  0
VERTEX
  8
front_piece
 62
   7
 10
0.0
 20
0.0
 30
0.0
 70
   128
 71
   241
 72
   240
 73
   431
  0
VERTEX
  8
front_piece
 62
   7
 10
0.0
 20
0.0
 30
0.0
 70
   128
 71
   240
 72
   239
 73
   430
  0
VERTEX
  8
front_piece
 62
   7
 10
0.0
 20
0.0
 30
0.0
 70
   128
 71
   239
 72
   238
 73
   429
  0
VERTEX
  8
front_piece
 62
   7
 10
0.0
 20
0.0
 30
0.0
 70
   128
 71
   238
 72
   237
 73
   428
  0
VERTEX
  8
front_piece
 62
   7
 10
0.0
 20
0.0
 30
0.0
 70
   128
 71
   237
 72
   236
 73
   427
  0
VERTEX
  8
front_piece
 62
   7
 10
0.0
 20
0.0
 30
0.0
 70
   128
 71
   236
 72
   235
 73
   426
  0
VERTEX
  8
front_piece
 62
   7
 10
0.0
 20
0.0
 30
0.0
 70
   128
 71
   235
 72
   234
 73
   425
  0
VERTEX
  8
front_piece
 62
   7
 10
0.0
 20
0.0
 30
0.0
 70
   128
 71
   349
 72
   350
 73
   425
  0
VERTEX
  8
front_piece
 62
   7
 10
0.0
 20
0.0
 30
0.0
 70
   128
 71
   11
 72
   349
 73
   386
  0
VERTEX
  8
front_piece
 62
   7
 10
0.0
 20
0.0
 30
0.0
 70
   128
 71
   386
 72
   349
 73
   425
  0
VERTEX
  8
front_piece
 62
   7
 10
0.0
 20
0.0
 30
0.0
 70
   128
 71
   385
 72
   425
 73
   384
  0
VERTEX
  8
front_piece
 62
   7
 10
0.0
 20
0.0
 30
0.0
 70
   128
 71
   350
 72
   351
 73
   426
  0
VERTEX
  8
front_piece
 62
   7
 10
0.0
 20
0.0
 30
0.0
 70
   128
 71
   385
 72
   386
 73
   425
  0
VERTEX
  8
front_piece
 62
   7
 10
0.0
 20
0.0
 30
0.0
 70
   128
 71
   351
 72
   352
 73
   427
  0
VERTEX
  8
front_piece
 62
   7
 10
0.0
 20
0.0
 30
0.0
 70
   128
 71
   425
 72
   350
 73
   426
  0
VERTEX
  8
front_piece
 62
   7
 10
0.0
 20
0.0
 30
0.0
 70
   128
 71
   352
 72
   353
 73
   428
  0
VERTEX
  8
front_piece
 62
   7
 10
0.0
 20
0.0
 30
0.0
 70
   128
 71
   426
 72
   351
 73
   427
  0
VERTEX
  8
front_piece
 62
   7
 10
0.0
 20
0.0
 30
0.0
 70
   128
 71
   353
 72
   354
 73
   429
  0
VERTEX
  8
front_piece
 62
   7
 10
0.0
 20
0.0
 30
0.0
 70
   128
 71
   427
 72
   352
 73
   428
  0
VERTEX
  8
front_piece
 62
   7
 10
0.0
 20
0.0
 30
0.0
 70
   128
 71
   354
 72
   355
 73
   430
  0
VERTEX
  8
front_piece
 62
   7
 10
0.0
 20
0.0
 30
0.0
 70
   128
 71
   428
 72
   353
 73
   429
  0
VERTEX
  8
front_piece
 62
   7
 10
0.0
 20
0.0
 30
0.0
 70
   128
 71
   355
 72
   356
 73
   431
  0
VERTEX
  8
front_piece
 62
   7
 10
0.0
 20
0.0
 30
0.0
 70
   128
 71
   429
 72
   354
 73
   430
  0
VERTEX
  8
front_piece
 62
   7
 10
0.0
 20
0.0
 30
0.0
 70
   128
 71
   356
 72
   357
 73
   432
  0
VERTEX
  8
front_piece
 62
   7
 10
0.0
 20
0.0
 30
0.0
 70
   128
 71
   430
 72
   355
 73
   431
  0
VERTEX
  8
front_piece
 62
   7
 10
0.0
 20
0.0
 30
0.0
 70
   128
 71
   357
 72
   358
 73
   432
  0
VERTEX
  8
front_piece
 62
   7
 10
0.0
 20
0.0
 30
0.0
 70
   128
 71
   431
 72
   356
 73
   432
  0
VERTEX
  8
front_piece
 62
   7
 10
0.0
 20
0.0
 30
0.0
 70
   128
 71
   359
 72
   360
 73
   434
  0
VERTEX
  8
front_piece
 62
   7
 10
0.0
 20
0.0
 30
0.0
 70
   128
 71
   432
 72
   358
 73
   433
  0
VERTEX
  8
front_piece
 62
   7
 10
0.0
 20
0.0
 30
0.0
 70
   128
 71
   360
 72
   361
 73
   435
  0
VERTEX
  8
front_piece
 62
   7
 10
0.0
 20
0.0
 30
0.0
 70
   128
 71
   433
 72
   359
 73
   434
  0
VERTEX
  8
front_piece
 62
   7
 10
0.0
 20
0.0
 30
0.0
 70
   128
 71
   361
 72
   362
 73
   436
  0
VERTEX
  8
front_piece
 62
   7
 10
0.0
 20
0.0
 30
0.0
 70
   128
 71
   434
 72
   360
 73
   435
  0
VERTEX
  8
front_piece
 62
   7
 10
0.0
 20
0.0
 30
0.0
 70
   128
 71
   362
 72
   363
 73
   437
  0
VERTEX
  8
front_piece
 62
   7
 10
0.0
 20
0.0
 30
0.0
 70
   128
 71
   435
 72
   361
 73
   436
  0
VERTEX
  8
front_piece
 62
   7
 10
0.0
 20
0.0
 30
0.0
 70
   128
 71
   363
 72
   364
 73
   438
  0
VERTEX
  8
front_piece
 62
   7
 10
0.0
 20
0.0
 30
0.0
 70
   128
 71
   436
 72
   362
 73
   437
  0
VERTEX
  8
front_piece
 62
   7
 10
0.0
 20
0.0
 30
0.0
 70
   128
 71
   364
 72
   365
 73
   439
  0
VERTEX
  8
front_piece
 62
   7
 10
0.0
 20
0.0
 30
0.0
 70
   128
 71
   437
 72
   363
 73
   438
  0
VERTEX
  8
front_piece
 62
   7
 10
0.0
 20
0.0
 30
0.0
 70
   128
 71
   365
 72
   366
 73
   440
  0
VERTEX
  8
front_piece
 62
   7
 10
0.0
 20
0.0
 30
0.0
 70
   128
 71
   438
 72
   364
 73
   439
  0
VERTEX
  8
front_piece
 62
   7
 10
0.0
 20
0.0
 30
0.0
 70
   128
 71
   251
 72
   250
 73
   440
  0
VERTEX
  8
front_piece
 62
   7
 10
0.0
 20
0.0
 30
0.0
 70
   128
 71
   367
 72
   368
 73
   441
  0
VERTEX
  8
front_piece
 62
   7
 10
0.0
 20
0.0
 30
0.0
 70
   128
 71
   368
 72
   369
 73
   442
  0
VERTEX
  8
front_piece
 62
   7
 10
0.0
 20
0.0
 30
0.0
 70
   128
 71
   440
 72
   367
 73
   441
  0
VERTEX
  8
front_piece
 62
   7
 10
0.0
 20
0.0
 30
0.0
 70
   128
 71
   369
 72
   370
 73
   443
  0
VERTEX
  8
front_piece
 62
   7
 10
0.0
 20
0.0
 30
0.0
 70
   128
 71
   441
 72
   368
 73
   442
  0
VERTEX
  8
front_piece
 62
   7
 10
0.0
 20
0.0
 30
0.0
 70
   128
 71
   370
 72
   371
 73
   444
  0
VERTEX
  8
front_piece
 62
   7
 10
0.0
 20
0.0
 30
0.0
 70
   128
 71
   442
 72
   369
 73
   443
  0
VERTEX
  8
front_piece
 62
   7
 10
0.0
 20
0.0
 30
0.0
 70
   128
 71
   371
 72
   372
 73
   445
  0
VERTEX
  8
front_piece
 62
   7
 10
0.0
 20
0.0
 30
0.0
 70
   128
 71
   443
 72
   370
 73
   444
  0
VERTEX
  8
front_piece
 62
   7
 10
0.0
 20
0.0
 30
0.0
 70
   128
 71
   372
 72
   373
 73
   446
  0
VERTEX
  8
front_piece
 62
   7
 10
0.0
 20
0.0
 30
0.0
 70
   128
 71
   444
 72
   371
 73
   445
  0
VERTEX
  8
front_piece
 62
   7
 10
0.0
 20
0.0
 30
0.0
 70
   128
 71
   373
 72
   374
 73
   447
  0
VERTEX
  8
front_piece
 62
   7
 10
0.0
 20
0.0
 30
0.0
 70
   128
 71
   445
 72
   372
 73
   446
  0
VERTEX
  8
front_piece
 62
   7
 10
0.0
 20
0.0
 30
0.0
 70
   128
 71
   374
 72
   375
 73
   448
  0
VERTEX
  8
front_piece
 62
   7
 10
0.0
 20
0.0
 30
0.0
 70
   128
 71
   446
 72
   373
 73
   447
  0
VERTEX
  8
front_piece
 62
   7
 10
0.0
 20
0.0
 30
0.0
 70
   128
 71
   260
 72
   259
 73
   448
  0
VERTEX
  8
front_piece
 62
   7
 10
0.0
 20
0.0
 30
0.0
 70
   128
 71
   376
 72
   377
 73
   449
  0
VERTEX
  8
front_piece
 62
   7
 10
0.0
 20
0.0
 30
0.0
 70
   128
 71
   377
 72
   378
 73
   450
  0
VERTEX
  8
front_piece
 62
   7
 10
0.0
 20
0.0
 30
0.0
 70
   128
 71
   448
 72
   376
 73
   449
  0
VERTEX
  8
front_piece
 62
   7
 10
0.0
 20
0.0
 30
0.0
 70
   128
 71
   378
 72
   379
 73
   451
  0
VERTEX
  8
front_piece
 62
   7
 10
0.0
 20
0.0
 30
0.0
 70
   128
 71
   449
 72
   377
 73
   450
  0
VERTEX
  8
front_piece
 62
   7
 10
0.0
 20
0.0
 30
0.0
 70
   128
 71
   379
 72
   380
 73
   452
  0
VERTEX
  8
front_piece
 62
   7
 10
0.0
 20
0.0
 30
0.0
 70
   128
 71
   450
 72
   378
 73
   451
  0
VERTEX
  8
front_piece
 62
   7
 10
0.0
 20
0.0
 30
0.0
 70
   128
 71
   380
 72
   381
 73
   453
  0
VERTEX
  8
front_piece
 62
   7
 10
0.0
 20
0.0
 30
0.0
 70
   128
 71
   451
 72
   379
 73
   452
  0
VERTEX
  8
front_piece
 62
   7
 10
0.0
 20
0.0
 30
0.0
 70
   128
 71
   381
 72
   382
 73
   454
  0
VERTEX
  8
front_piece
 62
   7
 10
0.0
 20
0.0
 30
0.0
 70
   128
 71
   452
 72
   380
 73
   453
  0
VERTEX
  8
front_piece
 62
   7
 10
0.0
 20
0.0
 30
0.0
 70
   128
 71
   382
 72
   383
 73
   455
  0
VERTEX
  8
front_piece
 62
   7
 10
0.0
 20
0.0
 30
0.0
 70
   128
 71
   453
 72
   381
 73
   454
  0
VERTEX
  8
front_piece
 62
   7
 10
0.0
 20
0.0
 30
0.0
 70
   128
 71
   423
 72
   422
 73
   455
  0
VERTEX
  8
front_piece
 62
   7
 10
0.0
 20
0.0
 30
0.0
 70
   128
 71
   454
 72
   382
 73
   455
  0
VERTEX
  8
front_piece
 62
   7
 10
0.0
 20
0.0
 30
0.0
 70
   128
 71
   5
 72
   305
 73
   10
  0
VERTEX
  8
front_piece
 62
   7
 10
0.0
 20
0.0
 30
0.0
 70
   128
 71
   10
 72
   160
 73
   161
  0
VERTEX
  8
front_piece
 62
   7
 10
0.0
 20
0.0
 30
0.0
 70
   128
 71
   10
 72
   161
 73
   4
  0
VERTEX
  8
front_piece
 62
   7
 10
0.0
 20
0.0
 30
0.0
 70
   128
 71
   10
 72
   4
 73
   5
  0
VERTEX
  8
front_piece
 62
   7
 10
0.0
 20
0.0
 30
0.0
 70
   128
 71
   305
 72
   5
 73
   118
  0
VERTEX
  8
front_piece
 62
   7
 10
0.0
 20
0.0
 30
0.0
 70
   128
 71
   118
 72
   307
 73
   306
  0
VERTEX
  8
front_piece
 62
   7
 10
0.0
 20
0.0
 30
0.0
 70
   128
 71
   118
 72
   306
 73
   305
  0
VERTEX
  8
front_piece
 62
   7
 10
0.0
 20
0.0
 30
0.0
 70
   128
 71
   118
 72
   119
 73
   307
  0
VERTEX
  8
front_piece
 62
   7
 10
0.0
 20
0.0
 30
0.0
 70
   128
 71
   307
 72
   119
 73
   120
  0
VERTEX
  8
front_piece
 62
   7
 10
0.0
 20
0.0
 30
0.0
 70
   128
 71
   120
 72
   308
 73
   307
  0
VERTEX
  8
front_piece
 62
   7
 10
0.0
 20
0.0
 30
0.0
 70
   128
 71
   308
 72
   120
 73
   121
  0
VERTEX
  8
front_piece
 62
   7
 10
0.0
 20
0.0
 30
0.0
 70
   128
 71
   121
 72
   309
 73
   308
  0
VERTEX
  8
front_piece
 62
   7
 10
0.0
 20
0.0
 30
0.0
 70
   128
 71
   121
 72
   122
 73
   123
  0
VERTEX
  8
front_piece
 62
   7
 10
0.0
 20
0.0
 30
0.0
 70
   128
 71
   310
 72
   309
 73
   121
  0
VERTEX
  8
front_piece
 62
   7
 10
0.0
 20
0.0
 30
0.0
 70
   128
 71
   310
 72
   121
 73
   123
  0
VERTEX
  8
front_piece
 62
   7
 10
0.0
 20
0.0
 30
0.0
 70
   128
 71
   310
 72
   123
 73
   124
  0
VERTEX
  8
front_piece
 62
   7
 10
0.0
 20
0.0
 30
0.0
 70
   128
 71
   311
 72
   310
 73
   124
  0
VERTEX
  8
front_piece
 62
   7
 10
0.0
 20
0.0
 30
0.0
 70
   128
 71
   311
 72
   124
 73
   125
  0
VERTEX
  8
front_piece
 62
   7
 10
0.0
 20
0.0
 30
0.0
 70
   128
 71
   312
 72
   311
 73
   125
  0
VERTEX
  8
front_piece
 62
   7
 10
0.0
 20
0.0
 30
0.0
 70
   128
 71
   126
 72
   312
 73
   125
  0
VERTEX
  8
front_piece
 62
   7
 10
0.0
 20
0.0
 30
0.0
 70
   128
 71
   126
 72
   127
 73
   312
  0
VERTEX
  8
front_piece
 62
   7
 10
0.0
 20
0.0
 30
0.0
 70
   128
 71
   313
 72
   312
 73
   127
  0
VERTEX
  8
front_piece
 62
   7
 10
0.0
 20
0.0
 30
0.0
 70
   128
 71
   314
 72
   313
 73
   127
  0
VERTEX
  8
front_piece
 62
   7
 10
0.0
 20
0.0
 30
0.0
 70
   128
 71
   128
 72
   314
 73
   127
  0
VERTEX
  8
front_piece
 62
   7
 10
0.0
 20
0.0
 30
0.0
 70
   128
 71
   315
 72
   314
 73
   128
  0
VERTEX
  8
front_piece
 62
   7
 10
0.0
 20
0.0
 30
0.0
 70
   128
 71
   128
 72
   129
 73
   315
  0
VERTEX
  8
front_piece
 62
   7
 10
0.0
 20
0.0
 30
0.0
 70
   128
 71
   129
 72
   130
 73
   315
  0
VERTEX
  8
front_piece
 62
   7
 10
0.0
 20
0.0
 30
0.0
 70
   128
 71
   316
 72
   315
 73
   130
  0
VERTEX
  8
front_piece
 62
   7
 10
0.0
 20
0.0
 30
0.0
 70
   128
 71
   130
 72
   131
 73
   316
  0
VERTEX
  8
front_piece
 62
   7
 10
0.0
 20
0.0
 30
0.0
 70
   128
 71
   317
 72
   316
 73
   131
  0
VERTEX
  8
front_piece
 62
   7
 10
0.0
 20
0.0
 30
0.0
 70
   128
 71
   318
 72
   317
 73
   131
  0
VERTEX
  8
front_piece
 62
   7
 10
0.0
 20
0.0
 30
0.0
 70
   128
 71
   131
 72
   132
 73
   318
  0
VERTEX
  8
front_piece
 62
   7
 10
0.0
 20
0.0
 30
0.0
 70
   128
 71
   319
 72
   318
 73
   132
  0
VERTEX
  8
front_piece
 62
   7
 10
0.0
 20
0.0
 30
0.0
 70
   128
 71
   133
 72
   134
 73
   319
  0
VERTEX
  8
front_piece
 62
   7
 10
0.0
 20
0.0
 30
0.0
 70
   128
 71
   132
 72
   133
 73
   319
  0
VERTEX
  8
front_piece
 62
   7
 10
0.0
 20
0.0
 30
0.0
 70
   128
 71
   320
 72
   319
 73
   321
  0
VERTEX
  8
front_piece
 62
   7
 10
0.0
 20
0.0
 30
0.0
 70
   128
 71
   321
 72
   319
 73
   134
  0
VERTEX
  8
front_piece
 62
   7
 10
0.0
 20
0.0
 30
0.0
 70
   128
 71
   134
 72
   135
 73
   321
  0
VERTEX
  8
front_piece
 62
   7
 10
0.0
 20
0.0
 30
0.0
 70
   128
 71
   322
 72
   321
 73
   135
  0
VERTEX
  8
front_piece
 62
   7
 10
0.0
 20
0.0
 30
0.0
 70
   128
 71
   322
 72
   135
 73
   323
  0
VERTEX
  8
front_piece
 62
   7
 10
0.0
 20
0.0
 30
0.0
 70
   128
 71
   135
 72
   136
 73
   323
  0
VERTEX
  8
front_piece
 62
   7
 10
0.0
 20
0.0
 30
0.0
 70
   128
 71
   323
 72
   136
 73
   137
  0
VERTEX
  8
front_piece
 62
   7
 10
0.0
 20
0.0
 30
0.0
 70
   128
 71
   325
 72
   324
 73
   323
  0
VERTEX
  8
front_piece
 62
   7
 10
0.0
 20
0.0
 30
0.0
 70
   128
 71
   323
 72
   137
 73
   325
  0
VERTEX
  8
front_piece
 62
   7
 10
0.0
 20
0.0
 30
0.0
 70
   128
 71
   325
 72
   137
 73
   138
  0
VERTEX
  8
front_piece
 62
   7
 10
0.0
 20
0.0
 30
0.0
 70
   128
 71
   138
 72
   326
 73
   325
  0
VERTEX
  8
front_piece
 62
   7
 10
0.0
 20
0.0
 30
0.0
 70
   128
 71
   326
 72
   138
 73
   139
  0
VERTEX
  8
front_piece
 62
   7
 10
0.0
 20
0.0
 30
0.0
 70
   128
 71
   139
 72
   327
 73
   326
  0
VERTEX
  8
front_piece
 62
   7
 10
0.0
 20
0.0
 30
0.0
 70
   128
 71
   327
 72
   139
 73
   140
  0
VERTEX
  8
front_piece
 62
   7
 10
0.0
 20
0.0
 30
0.0
 70
   128
 71
   327
 72
   140
 73
   141
  0
VERTEX
  8
front_piece
 62
   7
 10
0.0
 20
0.0
 30
0.0
 70
   128
 71
   141
 72
   329
 73
   328
  0
VERTEX
  8
front_piece
 62
   7
 10
0.0
 20
0.0
 30
0.0
 70
   128
 71
   141
 72
   328
 73
   327
  0
VERTEX
  8
front_piece
 62
   7
 10
0.0
 20
0.0
 30
0.0
 70
   128
 71
   329
 72
   141
 73
   142
  0
VERTEX
  8
front_piece
 62
   7
 10
0.0
 20
0.0
 30
0.0
 70
   128
 71
   142
 72
   330
 73
   329
  0
VERTEX
  8
front_piece
 62
   7
 10
0.0
 20
0.0
 30
0.0
 70
   128
 71
   330
 72
   142
 73
   143
  0
VERTEX
  8
front_piece
 62
   7
 10
0.0
 20
0.0
 30
0.0
 70
   128
 71
   143
 72
   331
 73
   330
  0
VERTEX
  8
front_piece
 62
   7
 10
0.0
 20
0.0
 30
0.0
 70
   128
 71
   143
 72
   144
 73
   145
  0
VERTEX
  8
front_piece
 62
   7
 10
0.0
 20
0.0
 30
0.0
 70
   128
 71
   332
 72
   331
 73
   143
  0
VERTEX
  8
front_piece
 62
   7
 10
0.0
 20
0.0
 30
0.0
 70
   128
 71
   332
 72
   143
 73
   145
  0
VERTEX
  8
front_piece
 62
   7
 10
0.0
 20
0.0
 30
0.0
 70
   128
 71
   332
 72
   145
 73
   146
  0
VERTEX
  8
front_piece
 62
   7
 10
0.0
 20
0.0
 30
0.0
 70
   128
 71
   333
 72
   332
 73
   146
  0
VERTEX
  8
front_piece
 62
   7
 10
0.0
 20
0.0
 30
0.0
 70
   128
 71
   146
 72
   147
 73
   148
  0
VERTEX
  8
front_piece
 62
   7
 10
0.0
 20
0.0
 30
0.0
 70
   128
 71
   333
 72
   146
 73
   148
  0
VERTEX
  8
front_piece
 62
   7
 10
0.0
 20
0.0
 30
0.0
 70
   128
 71
   334
 72
   333
 73
   148
  0
VERTEX
  8
front_piece
 62
   7
 10
0.0
 20
0.0
 30
0.0
 70
   128
 71
   148
 72
   149
 73
   334
  0
VERTEX
  8
front_piece
 62
   7
 10
0.0
 20
0.0
 30
0.0
 70
   128
 71
   335
 72
   334
 73
   149
  0
VERTEX
  8
front_piece
 62
   7
 10
0.0
 20
0.0
 30
0.0
 70
   128
 71
   336
 72
   335
 73
   149
  0
VERTEX
  8
front_piece
 62
   7
 10
0.0
 20
0.0
 30
0.0
 70
   128
 71
   149
 72
   150
 73
   336
  0
VERTEX
  8
front_piece
 62
   7
 10
0.0
 20
0.0
 30
0.0
 70
   128
 71
   337
 72
   336
 73
   150
  0
VERTEX
  8
front_piece
 62
   7
 10
0.0
 20
0.0
 30
0.0
 70
   128
 71
   151
 72
   152
 73
   337
  0
VERTEX
  8
front_piece
 62
   7
 10
0.0
 20
0.0
 30
0.0
 70
   128
 71
   150
 72
   151
 73
   337
  0
VERTEX
  8
front_piece
 62
   7
 10
0.0
 20
0.0
 30
0.0
 70
   128
 71
   338
 72
   337
 73
   152
  0
VERTEX
  8
front_piece
 62
   7
 10
0.0
 20
0.0
 30
0.0
 70
   128
 71
   152
 72
   153
 73
   338
  0
VERTEX
  8
front_piece
 62
   7
 10
0.0
 20
0.0
 30
0.0
 70
   128
 71
   339
 72
   338
 73
   340
  0
VERTEX
  8
front_piece
 62
   7
 10
0.0
 20
0.0
 30
0.0
 70
   128
 71
   340
 72
   338
 73
   153
  0
VERTEX
  8
front_piece
 62
   7
 10
0.0
 20
0.0
 30
0.0
 70
   128
 71
   340
 72
   153
 73
   154
  0
VERTEX
  8
front_piece
 62
   7
 10
0.0
 20
0.0
 30
0.0
 70
   128
 71
   341
 72
   340
 73
   154
  0
VERTEX
  8
front_piece
 62
   7
 10
0.0
 20
0.0
 30
0.0
 70
   128
 71
   341
 72
   154
 73
   342
  0
VERTEX
  8
front_piece
 62
   7
 10
0.0
 20
0.0
 30
0.0
 70
   128
 71
   154
 72
   155
 73
   342
  0
VERTEX
  8
front_piece
 62
   7
 10
0.0
 20
0.0
 30
0.0
 70
   128
 71
   342
 72
   155
 73
   156
  0
VERTEX
  8
front_piece
 62
   7
 10
0.0
 20
0.0
 30
0.0
 70
   128
 71
   344
 72
   343
 73
   342
  0
VERTEX
  8
front_piece
 62
   7
 10
0.0
 20
0.0
 30
0.0
 70
   128
 71
   342
 72
   156
 73
   344
  0
VERTEX
  8
front_piece
 62
   7
 10
0.0
 20
0.0
 30
0.0
 70
   128
 71
   344
 72
   156
 73
   157
  0
VERTEX
  8
front_piece
 62
   7
 10
0.0
 20
0.0
 30
0.0
 70
   128
 71
   157
 72
   345
 73
   344
  0
VERTEX
  8
front_piece
 62
   7
 10
0.0
 20
0.0
 30
0.0
 70
   128
 71
   345
 72
   157
 73
   158
  0
VERTEX
  8
front_piece
 62
   7
 10
0.0
 20
0.0
 30
0.0
 70
   128
 71
   345
 72
   158
 73
   159
  0
VERTEX
  8
front_piece
 62
   7
 10
0.0
 20
0.0
 30
0.0
 70
   128
 71
   347
 72
   346
 73
   159
  0
VERTEX
  8
front_piece
 62
   7
 10
0.0
 20
0.0
 30
0.0
 70
   128
 71
   159
 72
   346
 73
   345
  0
VERTEX
  8
front_piece
 62
   7
 10
0.0
 20
0.0
 30
0.0
 70
   128
 71
   347
 72
   159
 73
   160
  0
VERTEX
  8
front_piece
 62
   7
 10
0.0
 20
0.0
 30
0.0
 70
   128
 71
   160
 72
   10
 73
   348
  0
VERTEX
  8
front_piece
 62
   7
 10
0.0
 20
0.0
 30
0.0
 70
   128
 71
   160
 72
   348
 73
   347
  0
SEQEND
  0
ENDSEC
  0
EOF
