999
FBX AutoCAD (*.DXF) exporter
  0
SECTION
  2
HEADER
  9
$ACADVER
  1
AC1008
  9
$UCSORG
 10
0.0
 20
0.0
 30
0.0
  9
$UCSXDIR
 10
1.0
 20
0.0
 30
0.0
  9
$TILEMODE
 70
   1
  9
$UCSYDIR
 10
0.0
 20
1.0
 30
0.0
  0
ENDSEC
  0
SECTION
  2
TABLES
  0
TABLE
  2
LTYPE
 70
   1
  0
LTYPE
  2
CONTINUOUS
 70
   64
  3
Solid line
 72
   65
 73
   0
 40
0.0
  0
ENDTAB
  0
TABLE
  2
LAYER
 70
   1
  0
LAYER
  2
front_attachment_snapon
 70
   0
 62
   254
  6
CONTINUOUS
  0
ENDTAB
  0
ENDSEC
  0
SECTION
  2
BLOCKS
  0
ENDSEC
  0
SECTION
  2
ENTITIES
  0
POLYLINE
  8
front_attachment_snapon
 62
   254
 66
   1
 10
0.0
 20
0.0
 30
0.0
 70
   64
 71
   224
 72
   448
  0
VERTEX
  8
front_attachment_snapon
 10
0.889000
 20
-0.000000
 30
2.540000
 70
   192
  0
VERTEX
  8
front_attachment_snapon
 10
5.334000
 20
0.000000
 30
2.540000
 70
   192
  0
VERTEX
  8
front_attachment_snapon
 10
5.334000
 20
0.000000
 30
3.810000
 70
   192
  0
VERTEX
  8
front_attachment_snapon
 10
0.000000
 20
0.000000
 30
3.810000
 70
   192
  0
VERTEX
  8
front_attachment_snapon
 10
0.000000
 20
0.000000
 30
3.110242
 70
   192
  0
VERTEX
  8
front_attachment_snapon
 10
-0.571500
 20
0.000000
 30
3.224542
 70
   192
  0
VERTEX
  8
front_attachment_snapon
 10
-0.571500
 20
0.000000
 30
2.490458
 70
   192
  0
VERTEX
  8
front_attachment_snapon
 10
0.000000
 20
0.000000
 30
2.604758
 70
   192
  0
VERTEX
  8
front_attachment_snapon
 10
0.000000
 20
0.000000
 30
1.205242
 70
   192
  0
VERTEX
  8
front_attachment_snapon
 10
-0.571500
 20
0.000000
 30
1.319542
 70
   192
  0
VERTEX
  8
front_attachment_snapon
 10
-0.571500
 20
0.000000
 30
0.585458
 70
   192
  0
VERTEX
  8
front_attachment_snapon
 10
0.000000
 20
0.000000
 30
0.699758
 70
   192
  0
VERTEX
  8
front_attachment_snapon
 10
0.000000
 20
0.000000
 30
0.000000
 70
   192
  0
VERTEX
  8
front_attachment_snapon
 10
5.334000
 20
0.000000
 30
0.000000
 70
   192
  0
VERTEX
  8
front_attachment_snapon
 10
5.334000
 20
0.000000
 30
1.270000
 70
   192
  0
VERTEX
  8
front_attachment_snapon
 10
0.889000
 20
-0.000000
 30
1.270000
 70
   192
  0
VERTEX
  8
front_attachment_snapon
 10
5.334000
 20
1.905000
 30
2.540000
 70
   192
  0
VERTEX
  8
front_attachment_snapon
 10
5.334000
 20
1.905000
 30
1.270000
 70
   192
  0
VERTEX
  8
front_attachment_snapon
 10
5.334000
 20
12.700000
 30
0.000000
 70
   192
  0
VERTEX
  8
front_attachment_snapon
 10
5.334000
 20
12.700000
 30
3.810000
 70
   192
  0
VERTEX
  8
front_attachment_snapon
 10
12.598400
 20
17.500600
 30
2.756942
 70
   192
  0
VERTEX
  8
front_attachment_snapon
 10
12.598400
 20
15.875000
 30
2.756942
 70
   192
  0
VERTEX
  8
front_attachment_snapon
 10
11.074400
 20
17.500600
 30
2.756942
 70
   192
  0
VERTEX
  8
front_attachment_snapon
 10
11.074400
 20
15.875000
 30
2.756942
 70
   192
  0
VERTEX
  8
front_attachment_snapon
 10
0.000000
 20
0.762000
 30
0.699758
 70
   192
  0
VERTEX
  8
front_attachment_snapon
 10
0.000000
 20
0.762000
 30
1.205242
 70
   192
  0
VERTEX
  8
front_attachment_snapon
 10
-0.571500
 20
0.762000
 30
0.585458
 70
   192
  0
VERTEX
  8
front_attachment_snapon
 10
-0.571500
 20
0.762000
 30
1.319542
 70
   192
  0
VERTEX
  8
front_attachment_snapon
 10
-0.000000
 20
0.762000
 30
2.604758
 70
   192
  0
VERTEX
  8
front_attachment_snapon
 10
0.000000
 20
0.762000
 30
3.110242
 70
   192
  0
VERTEX
  8
front_attachment_snapon
 10
0.000000
 20
2.540000
 30
3.810000
 70
   192
  0
VERTEX
  8
front_attachment_snapon
 10
0.000000
 20
2.540000
 30
0.000000
 70
   192
  0
VERTEX
  8
front_attachment_snapon
 10
11.074400
 20
15.875000
 30
1.053058
 70
   192
  0
VERTEX
  8
front_attachment_snapon
 10
12.598400
 20
15.875000
 30
1.053058
 70
   192
  0
VERTEX
  8
front_attachment_snapon
 10
14.122400
 20
15.875000
 30
2.756942
 70
   192
  0
VERTEX
  8
front_attachment_snapon
 10
14.122400
 20
15.875000
 30
1.053058
 70
   192
  0
VERTEX
  8
front_attachment_snapon
 10
8.509000
 20
15.875000
 30
3.810000
 70
   192
  0
VERTEX
  8
front_attachment_snapon
 10
18.669000
 20
15.875000
 30
3.810000
 70
   192
  0
VERTEX
  8
front_attachment_snapon
 10
8.509000
 20
15.875000
 30
0.000000
 70
   192
  0
VERTEX
  8
front_attachment_snapon
 10
18.669000
 20
15.875000
 30
0.000000
 70
   192
  0
VERTEX
  8
front_attachment_snapon
 10
18.669000
 20
17.500600
 30
0.000000
 70
   192
  0
VERTEX
  8
front_attachment_snapon
 10
18.669000
 20
17.500600
 30
3.810000
 70
   192
  0
VERTEX
  8
front_attachment_snapon
 10
11.074400
 20
17.500600
 30
1.053058
 70
   192
  0
VERTEX
  8
front_attachment_snapon
 10
12.598400
 20
17.500600
 30
1.053058
 70
   192
  0
VERTEX
  8
front_attachment_snapon
 10
14.122400
 20
17.500600
 30
1.053058
 70
   192
  0
VERTEX
  8
front_attachment_snapon
 10
14.122400
 20
17.500600
 30
2.756942
 70
   192
  0
VERTEX
  8
front_attachment_snapon
 10
7.874000
 20
17.500600
 30
0.000000
 70
   192
  0
VERTEX
  8
front_attachment_snapon
 10
7.874000
 20
17.500600
 30
3.810000
 70
   192
  0
VERTEX
  8
front_attachment_snapon
 10
2.794000
 20
12.420600
 30
3.810000
 70
   192
  0
VERTEX
  8
front_attachment_snapon
 10
2.794000
 20
2.540000
 30
3.810000
 70
   192
  0
VERTEX
  8
front_attachment_snapon
 10
2.794000
 20
12.420600
 30
0.000000
 70
   192
  0
VERTEX
  8
front_attachment_snapon
 10
2.794000
 20
2.540000
 30
0.000000
 70
   192
  0
VERTEX
  8
front_attachment_snapon
 10
-0.571500
 20
0.762000
 30
3.224542
 70
   192
  0
VERTEX
  8
front_attachment_snapon
 10
-0.571500
 20
0.762000
 30
2.490458
 70
   192
  0
VERTEX
  8
front_attachment_snapon
 10
0.889000
 20
1.905000
 30
2.540000
 70
   192
  0
VERTEX
  8
front_attachment_snapon
 10
0.889000
 20
1.905000
 30
1.270000
 70
   192
  0
VERTEX
  8
front_attachment_snapon
 10
11.221945
 20
17.500600
 30
2.868791
 70
   192
  0
VERTEX
  8
front_attachment_snapon
 10
11.385612
 20
17.500600
 30
2.955352
 70
   192
  0
VERTEX
  8
front_attachment_snapon
 10
11.561107
 20
17.500600
 30
3.014352
 70
   192
  0
VERTEX
  8
front_attachment_snapon
 10
11.743826
 20
17.500600
 30
3.044245
 70
   192
  0
VERTEX
  8
front_attachment_snapon
 10
11.928974
 20
17.500600
 30
3.044245
 70
   192
  0
VERTEX
  8
front_attachment_snapon
 10
12.111693
 20
17.500600
 30
3.014352
 70
   192
  0
VERTEX
  8
front_attachment_snapon
 10
12.287188
 20
17.500600
 30
2.955352
 70
   192
  0
VERTEX
  8
front_attachment_snapon
 10
12.450855
 20
17.500600
 30
2.868791
 70
   192
  0
VERTEX
  8
front_attachment_snapon
 10
12.450855
 20
15.875000
 30
2.868791
 70
   192
  0
VERTEX
  8
front_attachment_snapon
 10
12.287188
 20
15.875000
 30
2.955352
 70
   192
  0
VERTEX
  8
front_attachment_snapon
 10
12.111693
 20
15.875000
 30
3.014352
 70
   192
  0
VERTEX
  8
front_attachment_snapon
 10
11.928974
 20
15.875000
 30
3.044245
 70
   192
  0
VERTEX
  8
front_attachment_snapon
 10
11.743826
 20
15.875000
 30
3.044245
 70
   192
  0
VERTEX
  8
front_attachment_snapon
 10
11.561107
 20
15.875000
 30
3.014352
 70
   192
  0
VERTEX
  8
front_attachment_snapon
 10
11.385612
 20
15.875000
 30
2.955352
 70
   192
  0
VERTEX
  8
front_attachment_snapon
 10
11.221945
 20
15.875000
 30
2.868791
 70
   192
  0
VERTEX
  8
front_attachment_snapon
 10
11.221945
 20
15.875000
 30
0.941209
 70
   192
  0
VERTEX
  8
front_attachment_snapon
 10
11.385612
 20
15.875000
 30
0.854648
 70
   192
  0
VERTEX
  8
front_attachment_snapon
 10
11.561107
 20
15.875000
 30
0.795648
 70
   192
  0
VERTEX
  8
front_attachment_snapon
 10
11.743826
 20
15.875000
 30
0.765755
 70
   192
  0
VERTEX
  8
front_attachment_snapon
 10
11.928974
 20
15.875000
 30
0.765755
 70
   192
  0
VERTEX
  8
front_attachment_snapon
 10
12.111693
 20
15.875000
 30
0.795648
 70
   192
  0
VERTEX
  8
front_attachment_snapon
 10
12.287188
 20
15.875000
 30
0.854648
 70
   192
  0
VERTEX
  8
front_attachment_snapon
 10
12.450855
 20
15.875000
 30
0.941209
 70
   192
  0
VERTEX
  8
front_attachment_snapon
 10
10.918886
 20
15.875000
 30
2.873826
 70
   192
  0
VERTEX
  8
front_attachment_snapon
 10
10.745802
 20
15.875000
 30
2.962644
 70
   192
  0
VERTEX
  8
front_attachment_snapon
 10
10.560163
 20
15.875000
 30
3.020824
 70
   192
  0
VERTEX
  8
front_attachment_snapon
 10
10.367347
 20
15.875000
 30
3.046679
 70
   192
  0
VERTEX
  8
front_attachment_snapon
 10
10.172939
 20
15.875000
 30
3.039460
 70
   192
  0
VERTEX
  8
front_attachment_snapon
 10
9.982571
 20
15.875000
 30
2.999377
 70
   192
  0
VERTEX
  8
front_attachment_snapon
 10
9.801757
 20
15.875000
 30
2.927591
 70
   192
  0
VERTEX
  8
front_attachment_snapon
 10
9.635737
 20
15.875000
 30
2.826182
 70
   192
  0
VERTEX
  8
front_attachment_snapon
 10
9.489319
 20
15.875000
 30
2.698087
 70
   192
  0
VERTEX
  8
front_attachment_snapon
 10
9.366745
 20
15.875000
 30
2.547016
 70
   192
  0
VERTEX
  8
front_attachment_snapon
 10
9.271565
 20
15.875000
 30
2.377348
 70
   192
  0
VERTEX
  8
front_attachment_snapon
 10
9.206538
 20
15.875000
 30
2.193995
 70
   192
  0
VERTEX
  8
front_attachment_snapon
 10
9.173546
 20
15.875000
 30
2.002271
 70
   192
  0
VERTEX
  8
front_attachment_snapon
 10
9.173546
 20
15.875000
 30
1.807729
 70
   192
  0
VERTEX
  8
front_attachment_snapon
 10
9.206538
 20
15.875000
 30
1.616005
 70
   192
  0
VERTEX
  8
front_attachment_snapon
 10
9.271565
 20
15.875000
 30
1.432652
 70
   192
  0
VERTEX
  8
front_attachment_snapon
 10
9.366745
 20
15.875000
 30
1.262984
 70
   192
  0
VERTEX
  8
front_attachment_snapon
 10
9.489319
 20
15.875000
 30
1.111913
 70
   192
  0
VERTEX
  8
front_attachment_snapon
 10
9.635737
 20
15.875000
 30
0.983818
 70
   192
  0
VERTEX
  8
front_attachment_snapon
 10
9.801757
 20
15.875000
 30
0.882409
 70
   192
  0
VERTEX
  8
front_attachment_snapon
 10
9.982571
 20
15.875000
 30
0.810623
 70
   192
  0
VERTEX
  8
front_attachment_snapon
 10
10.172939
 20
15.875000
 30
0.770540
 70
   192
  0
VERTEX
  8
front_attachment_snapon
 10
10.367347
 20
15.875000
 30
0.763321
 70
   192
  0
VERTEX
  8
front_attachment_snapon
 10
10.560163
 20
15.875000
 30
0.789176
 70
   192
  0
VERTEX
  8
front_attachment_snapon
 10
10.745802
 20
15.875000
 30
0.847356
 70
   192
  0
VERTEX
  8
front_attachment_snapon
 10
10.918886
 20
15.875000
 30
0.936174
 70
   192
  0
VERTEX
  8
front_attachment_snapon
 10
13.974855
 20
15.875000
 30
2.868791
 70
   192
  0
VERTEX
  8
front_attachment_snapon
 10
13.811188
 20
15.875000
 30
2.955352
 70
   192
  0
VERTEX
  8
front_attachment_snapon
 10
13.635693
 20
15.875000
 30
3.014352
 70
   192
  0
VERTEX
  8
front_attachment_snapon
 10
13.452974
 20
15.875000
 30
3.044245
 70
   192
  0
VERTEX
  8
front_attachment_snapon
 10
13.267826
 20
15.875000
 30
3.044245
 70
   192
  0
VERTEX
  8
front_attachment_snapon
 10
13.085107
 20
15.875000
 30
3.014352
 70
   192
  0
VERTEX
  8
front_attachment_snapon
 10
12.909612
 20
15.875000
 30
2.955352
 70
   192
  0
VERTEX
  8
front_attachment_snapon
 10
12.745945
 20
15.875000
 30
2.868791
 70
   192
  0
VERTEX
  8
front_attachment_snapon
 10
14.277914
 20
15.875000
 30
0.936174
 70
   192
  0
VERTEX
  8
front_attachment_snapon
 10
14.450998
 20
15.875000
 30
0.847356
 70
   192
  0
VERTEX
  8
front_attachment_snapon
 10
14.636637
 20
15.875000
 30
0.789176
 70
   192
  0
VERTEX
  8
front_attachment_snapon
 10
14.829453
 20
15.875000
 30
0.763321
 70
   192
  0
VERTEX
  8
front_attachment_snapon
 10
15.023861
 20
15.875000
 30
0.770540
 70
   192
  0
VERTEX
  8
front_attachment_snapon
 10
15.214229
 20
15.875000
 30
0.810623
 70
   192
  0
VERTEX
  8
front_attachment_snapon
 10
15.395043
 20
15.875000
 30
0.882409
 70
   192
  0
VERTEX
  8
front_attachment_snapon
 10
15.561063
 20
15.875000
 30
0.983818
 70
   192
  0
VERTEX
  8
front_attachment_snapon
 10
15.707481
 20
15.875000
 30
1.111913
 70
   192
  0
VERTEX
  8
front_attachment_snapon
 10
15.830055
 20
15.875000
 30
1.262984
 70
   192
  0
VERTEX
  8
front_attachment_snapon
 10
15.925235
 20
15.875000
 30
1.432652
 70
   192
  0
VERTEX
  8
front_attachment_snapon
 10
15.990262
 20
15.875000
 30
1.616005
 70
   192
  0
VERTEX
  8
front_attachment_snapon
 10
16.023254
 20
15.875000
 30
1.807729
 70
   192
  0
VERTEX
  8
front_attachment_snapon
 10
16.023254
 20
15.875000
 30
2.002271
 70
   192
  0
VERTEX
  8
front_attachment_snapon
 10
15.990262
 20
15.875000
 30
2.193995
 70
   192
  0
VERTEX
  8
front_attachment_snapon
 10
15.925235
 20
15.875000
 30
2.377348
 70
   192
  0
VERTEX
  8
front_attachment_snapon
 10
15.830055
 20
15.875000
 30
2.547016
 70
   192
  0
VERTEX
  8
front_attachment_snapon
 10
15.707481
 20
15.875000
 30
2.698087
 70
   192
  0
VERTEX
  8
front_attachment_snapon
 10
15.561063
 20
15.875000
 30
2.826182
 70
   192
  0
VERTEX
  8
front_attachment_snapon
 10
15.395043
 20
15.875000
 30
2.927591
 70
   192
  0
VERTEX
  8
front_attachment_snapon
 10
15.214229
 20
15.875000
 30
2.999377
 70
   192
  0
VERTEX
  8
front_attachment_snapon
 10
15.023861
 20
15.875000
 30
3.039460
 70
   192
  0
VERTEX
  8
front_attachment_snapon
 10
14.829453
 20
15.875000
 30
3.046679
 70
   192
  0
VERTEX
  8
front_attachment_snapon
 10
14.636637
 20
15.875000
 30
3.020824
 70
   192
  0
VERTEX
  8
front_attachment_snapon
 10
14.450998
 20
15.875000
 30
2.962644
 70
   192
  0
VERTEX
  8
front_attachment_snapon
 10
14.277914
 20
15.875000
 30
2.873826
 70
   192
  0
VERTEX
  8
front_attachment_snapon
 10
12.745945
 20
15.875000
 30
0.941209
 70
   192
  0
VERTEX
  8
front_attachment_snapon
 10
12.909612
 20
15.875000
 30
0.854648
 70
   192
  0
VERTEX
  8
front_attachment_snapon
 10
13.085107
 20
15.875000
 30
0.795648
 70
   192
  0
VERTEX
  8
front_attachment_snapon
 10
13.267826
 20
15.875000
 30
0.765755
 70
   192
  0
VERTEX
  8
front_attachment_snapon
 10
13.452974
 20
15.875000
 30
0.765755
 70
   192
  0
VERTEX
  8
front_attachment_snapon
 10
13.635693
 20
15.875000
 30
0.795648
 70
   192
  0
VERTEX
  8
front_attachment_snapon
 10
13.811188
 20
15.875000
 30
0.854648
 70
   192
  0
VERTEX
  8
front_attachment_snapon
 10
13.974855
 20
15.875000
 30
0.941209
 70
   192
  0
VERTEX
  8
front_attachment_snapon
 10
10.918886
 20
17.500600
 30
0.936174
 70
   192
  0
VERTEX
  8
front_attachment_snapon
 10
10.745802
 20
17.500600
 30
0.847356
 70
   192
  0
VERTEX
  8
front_attachment_snapon
 10
10.560163
 20
17.500600
 30
0.789176
 70
   192
  0
VERTEX
  8
front_attachment_snapon
 10
10.367347
 20
17.500600
 30
0.763321
 70
   192
  0
VERTEX
  8
front_attachment_snapon
 10
10.172939
 20
17.500600
 30
0.770540
 70
   192
  0
VERTEX
  8
front_attachment_snapon
 10
9.982571
 20
17.500600
 30
0.810623
 70
   192
  0
VERTEX
  8
front_attachment_snapon
 10
9.801757
 20
17.500600
 30
0.882409
 70
   192
  0
VERTEX
  8
front_attachment_snapon
 10
9.635737
 20
17.500600
 30
0.983818
 70
   192
  0
VERTEX
  8
front_attachment_snapon
 10
9.489319
 20
17.500600
 30
1.111913
 70
   192
  0
VERTEX
  8
front_attachment_snapon
 10
9.366745
 20
17.500600
 30
1.262984
 70
   192
  0
VERTEX
  8
front_attachment_snapon
 10
9.271565
 20
17.500600
 30
1.432652
 70
   192
  0
VERTEX
  8
front_attachment_snapon
 10
9.206538
 20
17.500600
 30
1.616005
 70
   192
  0
VERTEX
  8
front_attachment_snapon
 10
9.173546
 20
17.500600
 30
1.807729
 70
   192
  0
VERTEX
  8
front_attachment_snapon
 10
9.173546
 20
17.500600
 30
2.002271
 70
   192
  0
VERTEX
  8
front_attachment_snapon
 10
9.206538
 20
17.500600
 30
2.193995
 70
   192
  0
VERTEX
  8
front_attachment_snapon
 10
9.271565
 20
17.500600
 30
2.377348
 70
   192
  0
VERTEX
  8
front_attachment_snapon
 10
9.366745
 20
17.500600
 30
2.547016
 70
   192
  0
VERTEX
  8
front_attachment_snapon
 10
9.489319
 20
17.500600
 30
2.698087
 70
   192
  0
VERTEX
  8
front_attachment_snapon
 10
9.635737
 20
17.500600
 30
2.826182
 70
   192
  0
VERTEX
  8
front_attachment_snapon
 10
9.801757
 20
17.500600
 30
2.927591
 70
   192
  0
VERTEX
  8
front_attachment_snapon
 10
9.982571
 20
17.500600
 30
2.999377
 70
   192
  0
VERTEX
  8
front_attachment_snapon
 10
10.172939
 20
17.500600
 30
3.039460
 70
   192
  0
VERTEX
  8
front_attachment_snapon
 10
10.367347
 20
17.500600
 30
3.046679
 70
   192
  0
VERTEX
  8
front_attachment_snapon
 10
10.560163
 20
17.500600
 30
3.020824
 70
   192
  0
VERTEX
  8
front_attachment_snapon
 10
10.745802
 20
17.500600
 30
2.962644
 70
   192
  0
VERTEX
  8
front_attachment_snapon
 10
10.918886
 20
17.500600
 30
2.873826
 70
   192
  0
VERTEX
  8
front_attachment_snapon
 10
12.450855
 20
17.500600
 30
0.941209
 70
   192
  0
VERTEX
  8
front_attachment_snapon
 10
12.287188
 20
17.500600
 30
0.854648
 70
   192
  0
VERTEX
  8
front_attachment_snapon
 10
12.111693
 20
17.500600
 30
0.795648
 70
   192
  0
VERTEX
  8
front_attachment_snapon
 10
11.928974
 20
17.500600
 30
0.765755
 70
   192
  0
VERTEX
  8
front_attachment_snapon
 10
11.743826
 20
17.500600
 30
0.765755
 70
   192
  0
VERTEX
  8
front_attachment_snapon
 10
11.561107
 20
17.500600
 30
0.795648
 70
   192
  0
VERTEX
  8
front_attachment_snapon
 10
11.385612
 20
17.500600
 30
0.854648
 70
   192
  0
VERTEX
  8
front_attachment_snapon
 10
11.221945
 20
17.500600
 30
0.941209
 70
   192
  0
VERTEX
  8
front_attachment_snapon
 10
13.974855
 20
17.500600
 30
0.941209
 70
   192
  0
VERTEX
  8
front_attachment_snapon
 10
13.811188
 20
17.500600
 30
0.854648
 70
   192
  0
VERTEX
  8
front_attachment_snapon
 10
13.635693
 20
17.500600
 30
0.795648
 70
   192
  0
VERTEX
  8
front_attachment_snapon
 10
13.452974
 20
17.500600
 30
0.765755
 70
   192
  0
VERTEX
  8
front_attachment_snapon
 10
13.267826
 20
17.500600
 30
0.765755
 70
   192
  0
VERTEX
  8
front_attachment_snapon
 10
13.085107
 20
17.500600
 30
0.795648
 70
   192
  0
VERTEX
  8
front_attachment_snapon
 10
12.909612
 20
17.500600
 30
0.854648
 70
   192
  0
VERTEX
  8
front_attachment_snapon
 10
12.745945
 20
17.500600
 30
0.941209
 70
   192
  0
VERTEX
  8
front_attachment_snapon
 10
14.277914
 20
17.500600
 30
2.873826
 70
   192
  0
VERTEX
  8
front_attachment_snapon
 10
14.450998
 20
17.500600
 30
2.962644
 70
   192
  0
VERTEX
  8
front_attachment_snapon
 10
14.636637
 20
17.500600
 30
3.020824
 70
   192
  0
VERTEX
  8
front_attachment_snapon
 10
14.829453
 20
17.500600
 30
3.046679
 70
   192
  0
VERTEX
  8
front_attachment_snapon
 10
15.023861
 20
17.500600
 30
3.039460
 70
   192
  0
VERTEX
  8
front_attachment_snapon
 10
15.214229
 20
17.500600
 30
2.999377
 70
   192
  0
VERTEX
  8
front_attachment_snapon
 10
15.395043
 20
17.500600
 30
2.927591
 70
   192
  0
VERTEX
  8
front_attachment_snapon
 10
15.561063
 20
17.500600
 30
2.826182
 70
   192
  0
VERTEX
  8
front_attachment_snapon
 10
15.707481
 20
17.500600
 30
2.698087
 70
   192
  0
VERTEX
  8
front_attachment_snapon
 10
15.830055
 20
17.500600
 30
2.547016
 70
   192
  0
VERTEX
  8
front_attachment_snapon
 10
15.925235
 20
17.500600
 30
2.377348
 70
   192
  0
VERTEX
  8
front_attachment_snapon
 10
15.990262
 20
17.500600
 30
2.193995
 70
   192
  0
VERTEX
  8
front_attachment_snapon
 10
16.023254
 20
17.500600
 30
2.002271
 70
   192
  0
VERTEX
  8
front_attachment_snapon
 10
16.023254
 20
17.500600
 30
1.807729
 70
   192
  0
VERTEX
  8
front_attachment_snapon
 10
15.990262
 20
17.500600
 30
1.616005
 70
   192
  0
VERTEX
  8
front_attachment_snapon
 10
15.925235
 20
17.500600
 30
1.432652
 70
   192
  0
VERTEX
  8
front_attachment_snapon
 10
15.830055
 20
17.500600
 30
1.262984
 70
   192
  0
VERTEX
  8
front_attachment_snapon
 10
15.707481
 20
17.500600
 30
1.111913
 70
   192
  0
VERTEX
  8
front_attachment_snapon
 10
15.561063
 20
17.500600
 30
0.983818
 70
   192
  0
VERTEX
  8
front_attachment_snapon
 10
15.395043
 20
17.500600
 30
0.882409
 70
   192
  0
VERTEX
  8
front_attachment_snapon
 10
15.214229
 20
17.500600
 30
0.810623
 70
   192
  0
VERTEX
  8
front_attachment_snapon
 10
15.023861
 20
17.500600
 30
0.770540
 70
   192
  0
VERTEX
  8
front_attachment_snapon
 10
14.829453
 20
17.500600
 30
0.763321
 70
   192
  0
VERTEX
  8
front_attachment_snapon
 10
14.636637
 20
17.500600
 30
0.789176
 70
   192
  0
VERTEX
  8
front_attachment_snapon
 10
14.450998
 20
17.500600
 30
0.847356
 70
   192
  0
VERTEX
  8
front_attachment_snapon
 10
14.277914
 20
17.500600
 30
0.936174
 70
   192
  0
VERTEX
  8
front_attachment_snapon
 10
12.745945
 20
17.500600
 30
2.868791
 70
   192
  0
VERTEX
  8
front_attachment_snapon
 10
12.909612
 20
17.500600
 30
2.955352
 70
   192
  0
VERTEX
  8
front_attachment_snapon
 10
13.085107
 20
17.500600
 30
3.014352
 70
   192
  0
VERTEX
  8
front_attachment_snapon
 10
13.267826
 20
17.500600
 30
3.044245
 70
   192
  0
VERTEX
  8
front_attachment_snapon
 10
13.452974
 20
17.500600
 30
3.044245
 70
   192
  0
VERTEX
  8
front_attachment_snapon
 10
13.635693
 20
17.500600
 30
3.014352
 70
   192
  0
VERTEX
  8
front_attachment_snapon
 10
13.811188
 20
17.500600
 30
2.955352
 70
   192
  0
VERTEX
  8
front_attachment_snapon
 10
13.974855
 20
17.500600
 30
2.868791
 70
   192
  0
VERTEX
  8
front_attachment_snapon
 62
   254
 10
0.0
 20
0.0
 30
0.0
 70
   128
 71
   16
 72
   14
 73
   13
  0
VERTEX
  8
front_attachment_snapon
 62
   254
 10
0.0
 20
0.0
 30
0.0
 70
   128
 71
   1
 72
   5
 73
   4
  0
VERTEX
  8
front_attachment_snapon
 62
   254
 10
0.0
 20
0.0
 30
0.0
 70
   128
 71
   16
 72
   15
 73
   14
  0
VERTEX
  8
front_attachment_snapon
 62
   254
 10
0.0
 20
0.0
 30
0.0
 70
   128
 71
   1
 72
   9
 73
   8
  0
VERTEX
  8
front_attachment_snapon
 62
   254
 10
0.0
 20
0.0
 30
0.0
 70
   128
 71
   16
 72
   13
 73
   12
  0
VERTEX
  8
front_attachment_snapon
 62
   254
 10
0.0
 20
0.0
 30
0.0
 70
   128
 71
   1
 72
   16
 73
   9
  0
VERTEX
  8
front_attachment_snapon
 62
   254
 10
0.0
 20
0.0
 30
0.0
 70
   128
 71
   12
 72
   11
 73
   10
  0
VERTEX
  8
front_attachment_snapon
 62
   254
 10
0.0
 20
0.0
 30
0.0
 70
   128
 71
   16
 72
   12
 73
   9
  0
VERTEX
  8
front_attachment_snapon
 62
   254
 10
0.0
 20
0.0
 30
0.0
 70
   128
 71
   12
 72
   10
 73
   9
  0
VERTEX
  8
front_attachment_snapon
 62
   254
 10
0.0
 20
0.0
 30
0.0
 70
   128
 71
   1
 72
   8
 73
   5
  0
VERTEX
  8
front_attachment_snapon
 62
   254
 10
0.0
 20
0.0
 30
0.0
 70
   128
 71
   8
 72
   7
 73
   6
  0
VERTEX
  8
front_attachment_snapon
 62
   254
 10
0.0
 20
0.0
 30
0.0
 70
   128
 71
   1
 72
   3
 73
   2
  0
VERTEX
  8
front_attachment_snapon
 62
   254
 10
0.0
 20
0.0
 30
0.0
 70
   128
 71
   8
 72
   6
 73
   5
  0
VERTEX
  8
front_attachment_snapon
 62
   254
 10
0.0
 20
0.0
 30
0.0
 70
   128
 71
   3
 72
   1
 73
   4
  0
VERTEX
  8
front_attachment_snapon
 62
   254
 10
0.0
 20
0.0
 30
0.0
 70
   128
 71
   19
 72
   14
 73
   18
  0
VERTEX
  8
front_attachment_snapon
 62
   254
 10
0.0
 20
0.0
 30
0.0
 70
   128
 71
   2
 72
   3
 73
   17
  0
VERTEX
  8
front_attachment_snapon
 62
   254
 10
0.0
 20
0.0
 30
0.0
 70
   128
 71
   20
 72
   19
 73
   18
  0
VERTEX
  8
front_attachment_snapon
 62
   254
 10
0.0
 20
0.0
 30
0.0
 70
   128
 71
   14
 72
   15
 73
   18
  0
VERTEX
  8
front_attachment_snapon
 62
   254
 10
0.0
 20
0.0
 30
0.0
 70
   128
 71
   3
 72
   20
 73
   17
  0
VERTEX
  8
front_attachment_snapon
 62
   254
 10
0.0
 20
0.0
 30
0.0
 70
   128
 71
   20
 72
   18
 73
   17
  0
VERTEX
  8
front_attachment_snapon
 62
   254
 10
0.0
 20
0.0
 30
0.0
 70
   128
 71
   22
 72
   21
 73
   64
  0
VERTEX
  8
front_attachment_snapon
 62
   254
 10
0.0
 20
0.0
 30
0.0
 70
   128
 71
   22
 72
   64
 73
   65
  0
VERTEX
  8
front_attachment_snapon
 62
   254
 10
0.0
 20
0.0
 30
0.0
 70
   128
 71
   64
 72
   63
 73
   66
  0
VERTEX
  8
front_attachment_snapon
 62
   254
 10
0.0
 20
0.0
 30
0.0
 70
   128
 71
   63
 72
   62
 73
   67
  0
VERTEX
  8
front_attachment_snapon
 62
   254
 10
0.0
 20
0.0
 30
0.0
 70
   128
 71
   62
 72
   61
 73
   68
  0
VERTEX
  8
front_attachment_snapon
 62
   254
 10
0.0
 20
0.0
 30
0.0
 70
   128
 71
   60
 72
   59
 73
   70
  0
VERTEX
  8
front_attachment_snapon
 62
   254
 10
0.0
 20
0.0
 30
0.0
 70
   128
 71
   59
 72
   58
 73
   71
  0
VERTEX
  8
front_attachment_snapon
 62
   254
 10
0.0
 20
0.0
 30
0.0
 70
   128
 71
   58
 72
   57
 73
   72
  0
VERTEX
  8
front_attachment_snapon
 62
   254
 10
0.0
 20
0.0
 30
0.0
 70
   128
 71
   57
 72
   23
 73
   24
  0
VERTEX
  8
front_attachment_snapon
 62
   254
 10
0.0
 20
0.0
 30
0.0
 70
   128
 71
   57
 72
   24
 73
   72
  0
VERTEX
  8
front_attachment_snapon
 62
   254
 10
0.0
 20
0.0
 30
0.0
 70
   128
 71
   58
 72
   72
 73
   71
  0
VERTEX
  8
front_attachment_snapon
 62
   254
 10
0.0
 20
0.0
 30
0.0
 70
   128
 71
   59
 72
   71
 73
   70
  0
VERTEX
  8
front_attachment_snapon
 62
   254
 10
0.0
 20
0.0
 30
0.0
 70
   128
 71
   60
 72
   70
 73
   69
  0
VERTEX
  8
front_attachment_snapon
 62
   254
 10
0.0
 20
0.0
 30
0.0
 70
   128
 71
   62
 72
   68
 73
   67
  0
VERTEX
  8
front_attachment_snapon
 62
   254
 10
0.0
 20
0.0
 30
0.0
 70
   128
 71
   63
 72
   67
 73
   66
  0
VERTEX
  8
front_attachment_snapon
 62
   254
 10
0.0
 20
0.0
 30
0.0
 70
   128
 71
   64
 72
   66
 73
   65
  0
VERTEX
  8
front_attachment_snapon
 62
   254
 10
0.0
 20
0.0
 30
0.0
 70
   128
 71
   60
 72
   69
 73
   68
  0
VERTEX
  8
front_attachment_snapon
 62
   254
 10
0.0
 20
0.0
 30
0.0
 70
   128
 71
   68
 72
   61
 73
   60
  0
VERTEX
  8
front_attachment_snapon
 62
   254
 10
0.0
 20
0.0
 30
0.0
 70
   128
 71
   25
 72
   26
 73
   27
  0
VERTEX
  8
front_attachment_snapon
 62
   254
 10
0.0
 20
0.0
 30
0.0
 70
   128
 71
   27
 72
   26
 73
   28
  0
VERTEX
  8
front_attachment_snapon
 62
   254
 10
0.0
 20
0.0
 30
0.0
 70
   128
 71
   31
 72
   26
 73
   32
  0
VERTEX
  8
front_attachment_snapon
 62
   254
 10
0.0
 20
0.0
 30
0.0
 70
   128
 71
   32
 72
   25
 73
   13
  0
VERTEX
  8
front_attachment_snapon
 62
   254
 10
0.0
 20
0.0
 30
0.0
 70
   128
 71
   25
 72
   12
 73
   13
  0
VERTEX
  8
front_attachment_snapon
 62
   254
 10
0.0
 20
0.0
 30
0.0
 70
   128
 71
   26
 72
   25
 73
   32
  0
VERTEX
  8
front_attachment_snapon
 62
   254
 10
0.0
 20
0.0
 30
0.0
 70
   128
 71
   31
 72
   4
 73
   30
  0
VERTEX
  8
front_attachment_snapon
 62
   254
 10
0.0
 20
0.0
 30
0.0
 70
   128
 71
   31
 72
   30
 73
   29
  0
VERTEX
  8
front_attachment_snapon
 62
   254
 10
0.0
 20
0.0
 30
0.0
 70
   128
 71
   4
 72
   5
 73
   30
  0
VERTEX
  8
front_attachment_snapon
 62
   254
 10
0.0
 20
0.0
 30
0.0
 70
   128
 71
   8
 72
   26
 73
   29
  0
VERTEX
  8
front_attachment_snapon
 62
   254
 10
0.0
 20
0.0
 30
0.0
 70
   128
 71
   26
 72
   31
 73
   29
  0
VERTEX
  8
front_attachment_snapon
 62
   254
 10
0.0
 20
0.0
 30
0.0
 70
   128
 71
   26
 72
   8
 73
   9
  0
VERTEX
  8
front_attachment_snapon
 62
   254
 10
0.0
 20
0.0
 30
0.0
 70
   128
 71
   141
 72
   142
 73
   79
  0
VERTEX
  8
front_attachment_snapon
 62
   254
 10
0.0
 20
0.0
 30
0.0
 70
   128
 71
   146
 72
   147
 73
   116
  0
VERTEX
  8
front_attachment_snapon
 62
   254
 10
0.0
 20
0.0
 30
0.0
 70
   128
 71
   147
 72
   148
 73
   115
  0
VERTEX
  8
front_attachment_snapon
 62
   254
 10
0.0
 20
0.0
 30
0.0
 70
   128
 71
   148
 72
   36
 73
   115
  0
VERTEX
  8
front_attachment_snapon
 62
   254
 10
0.0
 20
0.0
 30
0.0
 70
   128
 71
   145
 72
   146
 73
   117
  0
VERTEX
  8
front_attachment_snapon
 62
   254
 10
0.0
 20
0.0
 30
0.0
 70
   128
 71
   147
 72
   115
 73
   116
  0
VERTEX
  8
front_attachment_snapon
 62
   254
 10
0.0
 20
0.0
 30
0.0
 70
   128
 71
   146
 72
   116
 73
   117
  0
VERTEX
  8
front_attachment_snapon
 62
   254
 10
0.0
 20
0.0
 30
0.0
 70
   128
 71
   145
 72
   117
 73
   118
  0
VERTEX
  8
front_attachment_snapon
 62
   254
 10
0.0
 20
0.0
 30
0.0
 70
   128
 71
   40
 72
   119
 73
   120
  0
VERTEX
  8
front_attachment_snapon
 62
   254
 10
0.0
 20
0.0
 30
0.0
 70
   128
 71
   40
 72
   120
 73
   121
  0
VERTEX
  8
front_attachment_snapon
 62
   254
 10
0.0
 20
0.0
 30
0.0
 70
   128
 71
   40
 72
   121
 73
   122
  0
VERTEX
  8
front_attachment_snapon
 62
   254
 10
0.0
 20
0.0
 30
0.0
 70
   128
 71
   40
 72
   122
 73
   123
  0
VERTEX
  8
front_attachment_snapon
 62
   254
 10
0.0
 20
0.0
 30
0.0
 70
   128
 71
   40
 72
   123
 73
   124
  0
VERTEX
  8
front_attachment_snapon
 62
   254
 10
0.0
 20
0.0
 30
0.0
 70
   128
 71
   40
 72
   127
 73
   38
  0
VERTEX
  8
front_attachment_snapon
 62
   254
 10
0.0
 20
0.0
 30
0.0
 70
   128
 71
   124
 72
   125
 73
   40
  0
VERTEX
  8
front_attachment_snapon
 62
   254
 10
0.0
 20
0.0
 30
0.0
 70
   128
 71
   125
 72
   126
 73
   40
  0
VERTEX
  8
front_attachment_snapon
 62
   254
 10
0.0
 20
0.0
 30
0.0
 70
   128
 71
   126
 72
   127
 73
   40
  0
VERTEX
  8
front_attachment_snapon
 62
   254
 10
0.0
 20
0.0
 30
0.0
 70
   128
 71
   127
 72
   128
 73
   38
  0
VERTEX
  8
front_attachment_snapon
 62
   254
 10
0.0
 20
0.0
 30
0.0
 70
   128
 71
   128
 72
   129
 73
   38
  0
VERTEX
  8
front_attachment_snapon
 62
   254
 10
0.0
 20
0.0
 30
0.0
 70
   128
 71
   129
 72
   130
 73
   38
  0
VERTEX
  8
front_attachment_snapon
 62
   254
 10
0.0
 20
0.0
 30
0.0
 70
   128
 71
   130
 72
   131
 73
   38
  0
VERTEX
  8
front_attachment_snapon
 62
   254
 10
0.0
 20
0.0
 30
0.0
 70
   128
 71
   131
 72
   132
 73
   38
  0
VERTEX
  8
front_attachment_snapon
 62
   254
 10
0.0
 20
0.0
 30
0.0
 70
   128
 71
   38
 72
   133
 73
   134
  0
VERTEX
  8
front_attachment_snapon
 62
   254
 10
0.0
 20
0.0
 30
0.0
 70
   128
 71
   38
 72
   134
 73
   135
  0
VERTEX
  8
front_attachment_snapon
 62
   254
 10
0.0
 20
0.0
 30
0.0
 70
   128
 71
   38
 72
   135
 73
   136
  0
VERTEX
  8
front_attachment_snapon
 62
   254
 10
0.0
 20
0.0
 30
0.0
 70
   128
 71
   38
 72
   136
 73
   137
  0
VERTEX
  8
front_attachment_snapon
 62
   254
 10
0.0
 20
0.0
 30
0.0
 70
   128
 71
   38
 72
   137
 73
   110
  0
VERTEX
  8
front_attachment_snapon
 62
   254
 10
0.0
 20
0.0
 30
0.0
 70
   128
 71
   137
 72
   138
 73
   110
  0
VERTEX
  8
front_attachment_snapon
 62
   254
 10
0.0
 20
0.0
 30
0.0
 70
   128
 71
   138
 72
   139
 73
   109
  0
VERTEX
  8
front_attachment_snapon
 62
   254
 10
0.0
 20
0.0
 30
0.0
 70
   128
 71
   139
 72
   140
 73
   108
  0
VERTEX
  8
front_attachment_snapon
 62
   254
 10
0.0
 20
0.0
 30
0.0
 70
   128
 71
   140
 72
   35
 73
   107
  0
VERTEX
  8
front_attachment_snapon
 62
   254
 10
0.0
 20
0.0
 30
0.0
 70
   128
 71
   140
 72
   107
 73
   108
  0
VERTEX
  8
front_attachment_snapon
 62
   254
 10
0.0
 20
0.0
 30
0.0
 70
   128
 71
   139
 72
   108
 73
   109
  0
VERTEX
  8
front_attachment_snapon
 62
   254
 10
0.0
 20
0.0
 30
0.0
 70
   128
 71
   138
 72
   109
 73
   110
  0
VERTEX
  8
front_attachment_snapon
 62
   254
 10
0.0
 20
0.0
 30
0.0
 70
   128
 71
   110
 72
   111
 73
   37
  0
VERTEX
  8
front_attachment_snapon
 62
   254
 10
0.0
 20
0.0
 30
0.0
 70
   128
 71
   111
 72
   112
 73
   67
  0
VERTEX
  8
front_attachment_snapon
 62
   254
 10
0.0
 20
0.0
 30
0.0
 70
   128
 71
   112
 72
   113
 73
   66
  0
VERTEX
  8
front_attachment_snapon
 62
   254
 10
0.0
 20
0.0
 30
0.0
 70
   128
 71
   113
 72
   114
 73
   65
  0
VERTEX
  8
front_attachment_snapon
 62
   254
 10
0.0
 20
0.0
 30
0.0
 70
   128
 71
   114
 72
   22
 73
   65
  0
VERTEX
  8
front_attachment_snapon
 62
   254
 10
0.0
 20
0.0
 30
0.0
 70
   128
 71
   113
 72
   65
 73
   66
  0
VERTEX
  8
front_attachment_snapon
 62
   254
 10
0.0
 20
0.0
 30
0.0
 70
   128
 71
   112
 72
   66
 73
   67
  0
VERTEX
  8
front_attachment_snapon
 62
   254
 10
0.0
 20
0.0
 30
0.0
 70
   128
 71
   111
 72
   67
 73
   68
  0
VERTEX
  8
front_attachment_snapon
 62
   254
 10
0.0
 20
0.0
 30
0.0
 70
   128
 71
   111
 72
   68
 73
   37
  0
VERTEX
  8
front_attachment_snapon
 62
   254
 10
0.0
 20
0.0
 30
0.0
 70
   128
 71
   68
 72
   69
 73
   37
  0
VERTEX
  8
front_attachment_snapon
 62
   254
 10
0.0
 20
0.0
 30
0.0
 70
   128
 71
   69
 72
   70
 73
   83
  0
VERTEX
  8
front_attachment_snapon
 62
   254
 10
0.0
 20
0.0
 30
0.0
 70
   128
 71
   70
 72
   71
 73
   82
  0
VERTEX
  8
front_attachment_snapon
 62
   254
 10
0.0
 20
0.0
 30
0.0
 70
   128
 71
   71
 72
   72
 73
   81
  0
VERTEX
  8
front_attachment_snapon
 62
   254
 10
0.0
 20
0.0
 30
0.0
 70
   128
 71
   72
 72
   24
 73
   81
  0
VERTEX
  8
front_attachment_snapon
 62
   254
 10
0.0
 20
0.0
 30
0.0
 70
   128
 71
   71
 72
   81
 73
   82
  0
VERTEX
  8
front_attachment_snapon
 62
   254
 10
0.0
 20
0.0
 30
0.0
 70
   128
 71
   70
 72
   82
 73
   83
  0
VERTEX
  8
front_attachment_snapon
 62
   254
 10
0.0
 20
0.0
 30
0.0
 70
   128
 71
   69
 72
   83
 73
   37
  0
VERTEX
  8
front_attachment_snapon
 62
   254
 10
0.0
 20
0.0
 30
0.0
 70
   128
 71
   83
 72
   84
 73
   37
  0
VERTEX
  8
front_attachment_snapon
 62
   254
 10
0.0
 20
0.0
 30
0.0
 70
   128
 71
   84
 72
   85
 73
   37
  0
VERTEX
  8
front_attachment_snapon
 62
   254
 10
0.0
 20
0.0
 30
0.0
 70
   128
 71
   85
 72
   86
 73
   37
  0
VERTEX
  8
front_attachment_snapon
 62
   254
 10
0.0
 20
0.0
 30
0.0
 70
   128
 71
   86
 72
   87
 73
   37
  0
VERTEX
  8
front_attachment_snapon
 62
   254
 10
0.0
 20
0.0
 30
0.0
 70
   128
 71
   87
 72
   88
 73
   37
  0
VERTEX
  8
front_attachment_snapon
 62
   254
 10
0.0
 20
0.0
 30
0.0
 70
   128
 71
   88
 72
   89
 73
   37
  0
VERTEX
  8
front_attachment_snapon
 62
   254
 10
0.0
 20
0.0
 30
0.0
 70
   128
 71
   89
 72
   90
 73
   37
  0
VERTEX
  8
front_attachment_snapon
 62
   254
 10
0.0
 20
0.0
 30
0.0
 70
   128
 71
   37
 72
   91
 73
   92
  0
VERTEX
  8
front_attachment_snapon
 62
   254
 10
0.0
 20
0.0
 30
0.0
 70
   128
 71
   37
 72
   92
 73
   93
  0
VERTEX
  8
front_attachment_snapon
 62
   254
 10
0.0
 20
0.0
 30
0.0
 70
   128
 71
   37
 72
   93
 73
   39
  0
VERTEX
  8
front_attachment_snapon
 62
   254
 10
0.0
 20
0.0
 30
0.0
 70
   128
 71
   93
 72
   94
 73
   39
  0
VERTEX
  8
front_attachment_snapon
 62
   254
 10
0.0
 20
0.0
 30
0.0
 70
   128
 71
   94
 72
   95
 73
   39
  0
VERTEX
  8
front_attachment_snapon
 62
   254
 10
0.0
 20
0.0
 30
0.0
 70
   128
 71
   95
 72
   96
 73
   39
  0
VERTEX
  8
front_attachment_snapon
 62
   254
 10
0.0
 20
0.0
 30
0.0
 70
   128
 71
   96
 72
   97
 73
   39
  0
VERTEX
  8
front_attachment_snapon
 62
   254
 10
0.0
 20
0.0
 30
0.0
 70
   128
 71
   39
 72
   104
 73
   76
  0
VERTEX
  8
front_attachment_snapon
 62
   254
 10
0.0
 20
0.0
 30
0.0
 70
   128
 71
   39
 72
   99
 73
   100
  0
VERTEX
  8
front_attachment_snapon
 62
   254
 10
0.0
 20
0.0
 30
0.0
 70
   128
 71
   39
 72
   100
 73
   101
  0
VERTEX
  8
front_attachment_snapon
 62
   254
 10
0.0
 20
0.0
 30
0.0
 70
   128
 71
   39
 72
   101
 73
   102
  0
VERTEX
  8
front_attachment_snapon
 62
   254
 10
0.0
 20
0.0
 30
0.0
 70
   128
 71
   39
 72
   102
 73
   103
  0
VERTEX
  8
front_attachment_snapon
 62
   254
 10
0.0
 20
0.0
 30
0.0
 70
   128
 71
   104
 72
   105
 73
   75
  0
VERTEX
  8
front_attachment_snapon
 62
   254
 10
0.0
 20
0.0
 30
0.0
 70
   128
 71
   105
 72
   106
 73
   74
  0
VERTEX
  8
front_attachment_snapon
 62
   254
 10
0.0
 20
0.0
 30
0.0
 70
   128
 71
   106
 72
   33
 73
   73
  0
VERTEX
  8
front_attachment_snapon
 62
   254
 10
0.0
 20
0.0
 30
0.0
 70
   128
 71
   103
 72
   104
 73
   39
  0
VERTEX
  8
front_attachment_snapon
 62
   254
 10
0.0
 20
0.0
 30
0.0
 70
   128
 71
   106
 72
   73
 73
   74
  0
VERTEX
  8
front_attachment_snapon
 62
   254
 10
0.0
 20
0.0
 30
0.0
 70
   128
 71
   143
 72
   144
 73
   77
  0
VERTEX
  8
front_attachment_snapon
 62
   254
 10
0.0
 20
0.0
 30
0.0
 70
   128
 71
   105
 72
   74
 73
   75
  0
VERTEX
  8
front_attachment_snapon
 62
   254
 10
0.0
 20
0.0
 30
0.0
 70
   128
 71
   104
 72
   75
 73
   76
  0
VERTEX
  8
front_attachment_snapon
 62
   254
 10
0.0
 20
0.0
 30
0.0
 70
   128
 71
   142
 72
   143
 73
   78
  0
VERTEX
  8
front_attachment_snapon
 62
   254
 10
0.0
 20
0.0
 30
0.0
 70
   128
 71
   143
 72
   77
 73
   78
  0
VERTEX
  8
front_attachment_snapon
 62
   254
 10
0.0
 20
0.0
 30
0.0
 70
   128
 71
   142
 72
   78
 73
   79
  0
VERTEX
  8
front_attachment_snapon
 62
   254
 10
0.0
 20
0.0
 30
0.0
 70
   128
 71
   34
 72
   141
 73
   80
  0
VERTEX
  8
front_attachment_snapon
 62
   254
 10
0.0
 20
0.0
 30
0.0
 70
   128
 71
   141
 72
   79
 73
   80
  0
VERTEX
  8
front_attachment_snapon
 62
   254
 10
0.0
 20
0.0
 30
0.0
 70
   128
 71
   132
 72
   133
 73
   38
  0
VERTEX
  8
front_attachment_snapon
 62
   254
 10
0.0
 20
0.0
 30
0.0
 70
   128
 71
   118
 72
   119
 73
   40
  0
VERTEX
  8
front_attachment_snapon
 62
   254
 10
0.0
 20
0.0
 30
0.0
 70
   128
 71
   97
 72
   98
 73
   39
  0
VERTEX
  8
front_attachment_snapon
 62
   254
 10
0.0
 20
0.0
 30
0.0
 70
   128
 71
   98
 72
   99
 73
   39
  0
VERTEX
  8
front_attachment_snapon
 62
   254
 10
0.0
 20
0.0
 30
0.0
 70
   128
 71
   145
 72
   118
 73
   40
  0
VERTEX
  8
front_attachment_snapon
 62
   254
 10
0.0
 20
0.0
 30
0.0
 70
   128
 71
   39
 72
   76
 73
   77
  0
VERTEX
  8
front_attachment_snapon
 62
   254
 10
0.0
 20
0.0
 30
0.0
 70
   128
 71
   144
 72
   145
 73
   39
  0
VERTEX
  8
front_attachment_snapon
 62
   254
 10
0.0
 20
0.0
 30
0.0
 70
   128
 71
   39
 72
   77
 73
   144
  0
VERTEX
  8
front_attachment_snapon
 62
   254
 10
0.0
 20
0.0
 30
0.0
 70
   128
 71
   39
 72
   145
 73
   40
  0
VERTEX
  8
front_attachment_snapon
 62
   254
 10
0.0
 20
0.0
 30
0.0
 70
   128
 71
   90
 72
   91
 73
   37
  0
VERTEX
  8
front_attachment_snapon
 62
   254
 10
0.0
 20
0.0
 30
0.0
 70
   128
 71
   38
 72
   110
 73
   37
  0
VERTEX
  8
front_attachment_snapon
 62
   254
 10
0.0
 20
0.0
 30
0.0
 70
   128
 71
   40
 72
   38
 73
   42
  0
VERTEX
  8
front_attachment_snapon
 62
   254
 10
0.0
 20
0.0
 30
0.0
 70
   128
 71
   40
 72
   42
 73
   41
  0
VERTEX
  8
front_attachment_snapon
 62
   254
 10
0.0
 20
0.0
 30
0.0
 70
   128
 71
   61
 72
   220
 73
   48
  0
VERTEX
  8
front_attachment_snapon
 62
   254
 10
0.0
 20
0.0
 30
0.0
 70
   128
 71
   222
 72
   223
 73
   192
  0
VERTEX
  8
front_attachment_snapon
 62
   254
 10
0.0
 20
0.0
 30
0.0
 70
   128
 71
   223
 72
   224
 73
   191
  0
VERTEX
  8
front_attachment_snapon
 62
   254
 10
0.0
 20
0.0
 30
0.0
 70
   128
 71
   224
 72
   46
 73
   191
  0
VERTEX
  8
front_attachment_snapon
 62
   254
 10
0.0
 20
0.0
 30
0.0
 70
   128
 71
   221
 72
   222
 73
   193
  0
VERTEX
  8
front_attachment_snapon
 62
   254
 10
0.0
 20
0.0
 30
0.0
 70
   128
 71
   223
 72
   191
 73
   192
  0
VERTEX
  8
front_attachment_snapon
 62
   254
 10
0.0
 20
0.0
 30
0.0
 70
   128
 71
   220
 72
   221
 73
   42
  0
VERTEX
  8
front_attachment_snapon
 62
   254
 10
0.0
 20
0.0
 30
0.0
 70
   128
 71
   222
 72
   192
 73
   193
  0
VERTEX
  8
front_attachment_snapon
 62
   254
 10
0.0
 20
0.0
 30
0.0
 70
   128
 71
   221
 72
   193
 73
   194
  0
VERTEX
  8
front_attachment_snapon
 62
   254
 10
0.0
 20
0.0
 30
0.0
 70
   128
 71
   221
 72
   194
 73
   42
  0
VERTEX
  8
front_attachment_snapon
 62
   254
 10
0.0
 20
0.0
 30
0.0
 70
   128
 71
   42
 72
   195
 73
   196
  0
VERTEX
  8
front_attachment_snapon
 62
   254
 10
0.0
 20
0.0
 30
0.0
 70
   128
 71
   42
 72
   196
 73
   197
  0
VERTEX
  8
front_attachment_snapon
 62
   254
 10
0.0
 20
0.0
 30
0.0
 70
   128
 71
   42
 72
   197
 73
   198
  0
VERTEX
  8
front_attachment_snapon
 62
   254
 10
0.0
 20
0.0
 30
0.0
 70
   128
 71
   42
 72
   198
 73
   199
  0
VERTEX
  8
front_attachment_snapon
 62
   254
 10
0.0
 20
0.0
 30
0.0
 70
   128
 71
   42
 72
   199
 73
   200
  0
VERTEX
  8
front_attachment_snapon
 62
   254
 10
0.0
 20
0.0
 30
0.0
 70
   128
 71
   42
 72
   203
 73
   41
  0
VERTEX
  8
front_attachment_snapon
 62
   254
 10
0.0
 20
0.0
 30
0.0
 70
   128
 71
   200
 72
   201
 73
   42
  0
VERTEX
  8
front_attachment_snapon
 62
   254
 10
0.0
 20
0.0
 30
0.0
 70
   128
 71
   201
 72
   202
 73
   42
  0
VERTEX
  8
front_attachment_snapon
 62
   254
 10
0.0
 20
0.0
 30
0.0
 70
   128
 71
   202
 72
   203
 73
   42
  0
VERTEX
  8
front_attachment_snapon
 62
   254
 10
0.0
 20
0.0
 30
0.0
 70
   128
 71
   203
 72
   204
 73
   41
  0
VERTEX
  8
front_attachment_snapon
 62
   254
 10
0.0
 20
0.0
 30
0.0
 70
   128
 71
   204
 72
   205
 73
   41
  0
VERTEX
  8
front_attachment_snapon
 62
   254
 10
0.0
 20
0.0
 30
0.0
 70
   128
 71
   205
 72
   206
 73
   41
  0
VERTEX
  8
front_attachment_snapon
 62
   254
 10
0.0
 20
0.0
 30
0.0
 70
   128
 71
   206
 72
   207
 73
   41
  0
VERTEX
  8
front_attachment_snapon
 62
   254
 10
0.0
 20
0.0
 30
0.0
 70
   128
 71
   207
 72
   208
 73
   41
  0
VERTEX
  8
front_attachment_snapon
 62
   254
 10
0.0
 20
0.0
 30
0.0
 70
   128
 71
   208
 72
   209
 73
   41
  0
VERTEX
  8
front_attachment_snapon
 62
   254
 10
0.0
 20
0.0
 30
0.0
 70
   128
 71
   41
 72
   210
 73
   211
  0
VERTEX
  8
front_attachment_snapon
 62
   254
 10
0.0
 20
0.0
 30
0.0
 70
   128
 71
   41
 72
   211
 73
   212
  0
VERTEX
  8
front_attachment_snapon
 62
   254
 10
0.0
 20
0.0
 30
0.0
 70
   128
 71
   41
 72
   212
 73
   213
  0
VERTEX
  8
front_attachment_snapon
 62
   254
 10
0.0
 20
0.0
 30
0.0
 70
   128
 71
   41
 72
   213
 73
   186
  0
VERTEX
  8
front_attachment_snapon
 62
   254
 10
0.0
 20
0.0
 30
0.0
 70
   128
 71
   213
 72
   214
 73
   186
  0
VERTEX
  8
front_attachment_snapon
 62
   254
 10
0.0
 20
0.0
 30
0.0
 70
   128
 71
   214
 72
   215
 73
   185
  0
VERTEX
  8
front_attachment_snapon
 62
   254
 10
0.0
 20
0.0
 30
0.0
 70
   128
 71
   183
 72
   216
 73
   45
  0
VERTEX
  8
front_attachment_snapon
 62
   254
 10
0.0
 20
0.0
 30
0.0
 70
   128
 71
   215
 72
   216
 73
   184
  0
VERTEX
  8
front_attachment_snapon
 62
   254
 10
0.0
 20
0.0
 30
0.0
 70
   128
 71
   216
 72
   183
 73
   184
  0
VERTEX
  8
front_attachment_snapon
 62
   254
 10
0.0
 20
0.0
 30
0.0
 70
   128
 71
   215
 72
   184
 73
   185
  0
VERTEX
  8
front_attachment_snapon
 62
   254
 10
0.0
 20
0.0
 30
0.0
 70
   128
 71
   214
 72
   185
 73
   186
  0
VERTEX
  8
front_attachment_snapon
 62
   254
 10
0.0
 20
0.0
 30
0.0
 70
   128
 71
   41
 72
   186
 73
   187
  0
VERTEX
  8
front_attachment_snapon
 62
   254
 10
0.0
 20
0.0
 30
0.0
 70
   128
 71
   41
 72
   187
 73
   47
  0
VERTEX
  8
front_attachment_snapon
 62
   254
 10
0.0
 20
0.0
 30
0.0
 70
   128
 71
   187
 72
   188
 73
   177
  0
VERTEX
  8
front_attachment_snapon
 62
   254
 10
0.0
 20
0.0
 30
0.0
 70
   128
 71
   188
 72
   189
 73
   176
  0
VERTEX
  8
front_attachment_snapon
 62
   254
 10
0.0
 20
0.0
 30
0.0
 70
   128
 71
   175
 72
   190
 73
   44
  0
VERTEX
  8
front_attachment_snapon
 62
   254
 10
0.0
 20
0.0
 30
0.0
 70
   128
 71
   189
 72
   190
 73
   175
  0
VERTEX
  8
front_attachment_snapon
 62
   254
 10
0.0
 20
0.0
 30
0.0
 70
   128
 71
   189
 72
   175
 73
   176
  0
VERTEX
  8
front_attachment_snapon
 62
   254
 10
0.0
 20
0.0
 30
0.0
 70
   128
 71
   188
 72
   176
 73
   177
  0
VERTEX
  8
front_attachment_snapon
 62
   254
 10
0.0
 20
0.0
 30
0.0
 70
   128
 71
   187
 72
   177
 73
   178
  0
VERTEX
  8
front_attachment_snapon
 62
   254
 10
0.0
 20
0.0
 30
0.0
 70
   128
 71
   187
 72
   178
 73
   47
  0
VERTEX
  8
front_attachment_snapon
 62
   254
 10
0.0
 20
0.0
 30
0.0
 70
   128
 71
   178
 72
   179
 73
   47
  0
VERTEX
  8
front_attachment_snapon
 62
   254
 10
0.0
 20
0.0
 30
0.0
 70
   128
 71
   179
 72
   180
 73
   151
  0
VERTEX
  8
front_attachment_snapon
 62
   254
 10
0.0
 20
0.0
 30
0.0
 70
   128
 71
   180
 72
   181
 73
   150
  0
VERTEX
  8
front_attachment_snapon
 62
   254
 10
0.0
 20
0.0
 30
0.0
 70
   128
 71
   149
 72
   182
 73
   43
  0
VERTEX
  8
front_attachment_snapon
 62
   254
 10
0.0
 20
0.0
 30
0.0
 70
   128
 71
   181
 72
   182
 73
   149
  0
VERTEX
  8
front_attachment_snapon
 62
   254
 10
0.0
 20
0.0
 30
0.0
 70
   128
 71
   181
 72
   149
 73
   150
  0
VERTEX
  8
front_attachment_snapon
 62
   254
 10
0.0
 20
0.0
 30
0.0
 70
   128
 71
   180
 72
   150
 73
   151
  0
VERTEX
  8
front_attachment_snapon
 62
   254
 10
0.0
 20
0.0
 30
0.0
 70
   128
 71
   179
 72
   151
 73
   152
  0
VERTEX
  8
front_attachment_snapon
 62
   254
 10
0.0
 20
0.0
 30
0.0
 70
   128
 71
   179
 72
   152
 73
   47
  0
VERTEX
  8
front_attachment_snapon
 62
   254
 10
0.0
 20
0.0
 30
0.0
 70
   128
 71
   152
 72
   153
 73
   47
  0
VERTEX
  8
front_attachment_snapon
 62
   254
 10
0.0
 20
0.0
 30
0.0
 70
   128
 71
   153
 72
   154
 73
   47
  0
VERTEX
  8
front_attachment_snapon
 62
   254
 10
0.0
 20
0.0
 30
0.0
 70
   128
 71
   154
 72
   155
 73
   47
  0
VERTEX
  8
front_attachment_snapon
 62
   254
 10
0.0
 20
0.0
 30
0.0
 70
   128
 71
   47
 72
   156
 73
   157
  0
VERTEX
  8
front_attachment_snapon
 62
   254
 10
0.0
 20
0.0
 30
0.0
 70
   128
 71
   47
 72
   157
 73
   158
  0
VERTEX
  8
front_attachment_snapon
 62
   254
 10
0.0
 20
0.0
 30
0.0
 70
   128
 71
   47
 72
   158
 73
   159
  0
VERTEX
  8
front_attachment_snapon
 62
   254
 10
0.0
 20
0.0
 30
0.0
 70
   128
 71
   47
 72
   159
 73
   160
  0
VERTEX
  8
front_attachment_snapon
 62
   254
 10
0.0
 20
0.0
 30
0.0
 70
   128
 71
   47
 72
   161
 73
   48
  0
VERTEX
  8
front_attachment_snapon
 62
   254
 10
0.0
 20
0.0
 30
0.0
 70
   128
 71
   160
 72
   161
 73
   47
  0
VERTEX
  8
front_attachment_snapon
 62
   254
 10
0.0
 20
0.0
 30
0.0
 70
   128
 71
   161
 72
   162
 73
   48
  0
VERTEX
  8
front_attachment_snapon
 62
   254
 10
0.0
 20
0.0
 30
0.0
 70
   128
 71
   162
 72
   163
 73
   48
  0
VERTEX
  8
front_attachment_snapon
 62
   254
 10
0.0
 20
0.0
 30
0.0
 70
   128
 71
   163
 72
   164
 73
   48
  0
VERTEX
  8
front_attachment_snapon
 62
   254
 10
0.0
 20
0.0
 30
0.0
 70
   128
 71
   164
 72
   165
 73
   48
  0
VERTEX
  8
front_attachment_snapon
 62
   254
 10
0.0
 20
0.0
 30
0.0
 70
   128
 71
   165
 72
   166
 73
   48
  0
VERTEX
  8
front_attachment_snapon
 62
   254
 10
0.0
 20
0.0
 30
0.0
 70
   128
 71
   166
 72
   167
 73
   48
  0
VERTEX
  8
front_attachment_snapon
 62
   254
 10
0.0
 20
0.0
 30
0.0
 70
   128
 71
   167
 72
   168
 73
   48
  0
VERTEX
  8
front_attachment_snapon
 62
   254
 10
0.0
 20
0.0
 30
0.0
 70
   128
 71
   168
 72
   169
 73
   48
  0
VERTEX
  8
front_attachment_snapon
 62
   254
 10
0.0
 20
0.0
 30
0.0
 70
   128
 71
   219
 72
   220
 73
   61
  0
VERTEX
  8
front_attachment_snapon
 62
   254
 10
0.0
 20
0.0
 30
0.0
 70
   128
 71
   169
 72
   170
 73
   48
  0
VERTEX
  8
front_attachment_snapon
 62
   254
 10
0.0
 20
0.0
 30
0.0
 70
   128
 71
   219
 72
   61
 73
   62
  0
VERTEX
  8
front_attachment_snapon
 62
   254
 10
0.0
 20
0.0
 30
0.0
 70
   128
 71
   172
 72
   173
 73
   59
  0
VERTEX
  8
front_attachment_snapon
 62
   254
 10
0.0
 20
0.0
 30
0.0
 70
   128
 71
   173
 72
   174
 73
   58
  0
VERTEX
  8
front_attachment_snapon
 62
   254
 10
0.0
 20
0.0
 30
0.0
 70
   128
 71
   174
 72
   23
 73
   57
  0
VERTEX
  8
front_attachment_snapon
 62
   254
 10
0.0
 20
0.0
 30
0.0
 70
   128
 71
   171
 72
   172
 73
   60
  0
VERTEX
  8
front_attachment_snapon
 62
   254
 10
0.0
 20
0.0
 30
0.0
 70
   128
 71
   174
 72
   57
 73
   58
  0
VERTEX
  8
front_attachment_snapon
 62
   254
 10
0.0
 20
0.0
 30
0.0
 70
   128
 71
   173
 72
   58
 73
   59
  0
VERTEX
  8
front_attachment_snapon
 62
   254
 10
0.0
 20
0.0
 30
0.0
 70
   128
 71
   42
 72
   48
 73
   220
  0
VERTEX
  8
front_attachment_snapon
 62
   254
 10
0.0
 20
0.0
 30
0.0
 70
   128
 71
   172
 72
   59
 73
   60
  0
VERTEX
  8
front_attachment_snapon
 62
   254
 10
0.0
 20
0.0
 30
0.0
 70
   128
 71
   48
 72
   60
 73
   61
  0
VERTEX
  8
front_attachment_snapon
 62
   254
 10
0.0
 20
0.0
 30
0.0
 70
   128
 71
   218
 72
   219
 73
   62
  0
VERTEX
  8
front_attachment_snapon
 62
   254
 10
0.0
 20
0.0
 30
0.0
 70
   128
 71
   217
 72
   218
 73
   63
  0
VERTEX
  8
front_attachment_snapon
 62
   254
 10
0.0
 20
0.0
 30
0.0
 70
   128
 71
   218
 72
   62
 73
   63
  0
VERTEX
  8
front_attachment_snapon
 62
   254
 10
0.0
 20
0.0
 30
0.0
 70
   128
 71
   21
 72
   217
 73
   64
  0
VERTEX
  8
front_attachment_snapon
 62
   254
 10
0.0
 20
0.0
 30
0.0
 70
   128
 71
   217
 72
   63
 73
   64
  0
VERTEX
  8
front_attachment_snapon
 62
   254
 10
0.0
 20
0.0
 30
0.0
 70
   128
 71
   209
 72
   210
 73
   41
  0
VERTEX
  8
front_attachment_snapon
 62
   254
 10
0.0
 20
0.0
 30
0.0
 70
   128
 71
   194
 72
   195
 73
   42
  0
VERTEX
  8
front_attachment_snapon
 62
   254
 10
0.0
 20
0.0
 30
0.0
 70
   128
 71
   170
 72
   171
 73
   48
  0
VERTEX
  8
front_attachment_snapon
 62
   254
 10
0.0
 20
0.0
 30
0.0
 70
   128
 71
   171
 72
   60
 73
   48
  0
VERTEX
  8
front_attachment_snapon
 62
   254
 10
0.0
 20
0.0
 30
0.0
 70
   128
 71
   155
 72
   156
 73
   47
  0
VERTEX
  8
front_attachment_snapon
 62
   254
 10
0.0
 20
0.0
 30
0.0
 70
   128
 71
   50
 72
   52
 73
   51
  0
VERTEX
  8
front_attachment_snapon
 62
   254
 10
0.0
 20
0.0
 30
0.0
 70
   128
 71
   50
 72
   51
 73
   49
  0
VERTEX
  8
front_attachment_snapon
 62
   254
 10
0.0
 20
0.0
 30
0.0
 70
   128
 71
   52
 72
   50
 73
   31
  0
VERTEX
  8
front_attachment_snapon
 62
   254
 10
0.0
 20
0.0
 30
0.0
 70
   128
 71
   52
 72
   31
 73
   32
  0
VERTEX
  8
front_attachment_snapon
 62
   254
 10
0.0
 20
0.0
 30
0.0
 70
   128
 71
   37
 72
   42
 73
   38
  0
VERTEX
  8
front_attachment_snapon
 62
   254
 10
0.0
 20
0.0
 30
0.0
 70
   128
 71
   49
 72
   20
 73
   50
  0
VERTEX
  8
front_attachment_snapon
 62
   254
 10
0.0
 20
0.0
 30
0.0
 70
   128
 71
   3
 72
   4
 73
   50
  0
VERTEX
  8
front_attachment_snapon
 62
   254
 10
0.0
 20
0.0
 30
0.0
 70
   128
 71
   20
 72
   3
 73
   50
  0
VERTEX
  8
front_attachment_snapon
 62
   254
 10
0.0
 20
0.0
 30
0.0
 70
   128
 71
   4
 72
   31
 73
   50
  0
VERTEX
  8
front_attachment_snapon
 62
   254
 10
0.0
 20
0.0
 30
0.0
 70
   128
 71
   42
 72
   37
 73
   48
  0
VERTEX
  8
front_attachment_snapon
 62
   254
 10
0.0
 20
0.0
 30
0.0
 70
   128
 71
   37
 72
   20
 73
   48
  0
VERTEX
  8
front_attachment_snapon
 62
   254
 10
0.0
 20
0.0
 30
0.0
 70
   128
 71
   20
 72
   49
 73
   48
  0
VERTEX
  8
front_attachment_snapon
 62
   254
 10
0.0
 20
0.0
 30
0.0
 70
   128
 71
   13
 72
   52
 73
   32
  0
VERTEX
  8
front_attachment_snapon
 62
   254
 10
0.0
 20
0.0
 30
0.0
 70
   128
 71
   52
 72
   14
 73
   19
  0
VERTEX
  8
front_attachment_snapon
 62
   254
 10
0.0
 20
0.0
 30
0.0
 70
   128
 71
   41
 72
   47
 73
   39
  0
VERTEX
  8
front_attachment_snapon
 62
   254
 10
0.0
 20
0.0
 30
0.0
 70
   128
 71
   47
 72
   51
 73
   19
  0
VERTEX
  8
front_attachment_snapon
 62
   254
 10
0.0
 20
0.0
 30
0.0
 70
   128
 71
   40
 72
   41
 73
   39
  0
VERTEX
  8
front_attachment_snapon
 62
   254
 10
0.0
 20
0.0
 30
0.0
 70
   128
 71
   51
 72
   52
 73
   19
  0
VERTEX
  8
front_attachment_snapon
 62
   254
 10
0.0
 20
0.0
 30
0.0
 70
   128
 71
   39
 72
   47
 73
   19
  0
VERTEX
  8
front_attachment_snapon
 62
   254
 10
0.0
 20
0.0
 30
0.0
 70
   128
 71
   14
 72
   52
 73
   13
  0
VERTEX
  8
front_attachment_snapon
 62
   254
 10
0.0
 20
0.0
 30
0.0
 70
   128
 71
   54
 72
   29
 73
   30
  0
VERTEX
  8
front_attachment_snapon
 62
   254
 10
0.0
 20
0.0
 30
0.0
 70
   128
 71
   54
 72
   30
 73
   53
  0
VERTEX
  8
front_attachment_snapon
 62
   254
 10
0.0
 20
0.0
 30
0.0
 70
   128
 71
   44
 72
   34
 73
   80
  0
VERTEX
  8
front_attachment_snapon
 62
   254
 10
0.0
 20
0.0
 30
0.0
 70
   128
 71
   80
 72
   176
 73
   175
  0
VERTEX
  8
front_attachment_snapon
 62
   254
 10
0.0
 20
0.0
 30
0.0
 70
   128
 71
   78
 72
   178
 73
   177
  0
VERTEX
  8
front_attachment_snapon
 62
   254
 10
0.0
 20
0.0
 30
0.0
 70
   128
 71
   76
 72
   180
 73
   179
  0
VERTEX
  8
front_attachment_snapon
 62
   254
 10
0.0
 20
0.0
 30
0.0
 70
   128
 71
   74
 72
   182
 73
   181
  0
VERTEX
  8
front_attachment_snapon
 62
   254
 10
0.0
 20
0.0
 30
0.0
 70
   128
 71
   73
 72
   43
 73
   182
  0
VERTEX
  8
front_attachment_snapon
 62
   254
 10
0.0
 20
0.0
 30
0.0
 70
   128
 71
   76
 72
   75
 73
   180
  0
VERTEX
  8
front_attachment_snapon
 62
   254
 10
0.0
 20
0.0
 30
0.0
 70
   128
 71
   75
 72
   74
 73
   181
  0
VERTEX
  8
front_attachment_snapon
 62
   254
 10
0.0
 20
0.0
 30
0.0
 70
   128
 71
   43
 72
   73
 73
   33
  0
VERTEX
  8
front_attachment_snapon
 62
   254
 10
0.0
 20
0.0
 30
0.0
 70
   128
 71
   74
 72
   73
 73
   182
  0
VERTEX
  8
front_attachment_snapon
 62
   254
 10
0.0
 20
0.0
 30
0.0
 70
   128
 71
   77
 72
   76
 73
   179
  0
VERTEX
  8
front_attachment_snapon
 62
   254
 10
0.0
 20
0.0
 30
0.0
 70
   128
 71
   75
 72
   181
 73
   180
  0
VERTEX
  8
front_attachment_snapon
 62
   254
 10
0.0
 20
0.0
 30
0.0
 70
   128
 71
   78
 72
   77
 73
   178
  0
VERTEX
  8
front_attachment_snapon
 62
   254
 10
0.0
 20
0.0
 30
0.0
 70
   128
 71
   77
 72
   179
 73
   178
  0
VERTEX
  8
front_attachment_snapon
 62
   254
 10
0.0
 20
0.0
 30
0.0
 70
   128
 71
   79
 72
   78
 73
   177
  0
VERTEX
  8
front_attachment_snapon
 62
   254
 10
0.0
 20
0.0
 30
0.0
 70
   128
 71
   79
 72
   177
 73
   176
  0
VERTEX
  8
front_attachment_snapon
 62
   254
 10
0.0
 20
0.0
 30
0.0
 70
   128
 71
   80
 72
   79
 73
   176
  0
VERTEX
  8
front_attachment_snapon
 62
   254
 10
0.0
 20
0.0
 30
0.0
 70
   128
 71
   44
 72
   80
 73
   175
  0
VERTEX
  8
front_attachment_snapon
 62
   254
 10
0.0
 20
0.0
 30
0.0
 70
   128
 71
   34
 72
   44
 73
   190
  0
VERTEX
  8
front_attachment_snapon
 62
   254
 10
0.0
 20
0.0
 30
0.0
 70
   128
 71
   34
 72
   190
 73
   141
  0
VERTEX
  8
front_attachment_snapon
 62
   254
 10
0.0
 20
0.0
 30
0.0
 70
   128
 71
   190
 72
   189
 73
   142
  0
VERTEX
  8
front_attachment_snapon
 62
   254
 10
0.0
 20
0.0
 30
0.0
 70
   128
 71
   189
 72
   188
 73
   143
  0
VERTEX
  8
front_attachment_snapon
 62
   254
 10
0.0
 20
0.0
 30
0.0
 70
   128
 71
   188
 72
   187
 73
   144
  0
VERTEX
  8
front_attachment_snapon
 62
   254
 10
0.0
 20
0.0
 30
0.0
 70
   128
 71
   186
 72
   185
 73
   146
  0
VERTEX
  8
front_attachment_snapon
 62
   254
 10
0.0
 20
0.0
 30
0.0
 70
   128
 71
   185
 72
   184
 73
   147
  0
VERTEX
  8
front_attachment_snapon
 62
   254
 10
0.0
 20
0.0
 30
0.0
 70
   128
 71
   184
 72
   183
 73
   148
  0
VERTEX
  8
front_attachment_snapon
 62
   254
 10
0.0
 20
0.0
 30
0.0
 70
   128
 71
   183
 72
   45
 73
   36
  0
VERTEX
  8
front_attachment_snapon
 62
   254
 10
0.0
 20
0.0
 30
0.0
 70
   128
 71
   183
 72
   36
 73
   148
  0
VERTEX
  8
front_attachment_snapon
 62
   254
 10
0.0
 20
0.0
 30
0.0
 70
   128
 71
   184
 72
   148
 73
   147
  0
VERTEX
  8
front_attachment_snapon
 62
   254
 10
0.0
 20
0.0
 30
0.0
 70
   128
 71
   185
 72
   147
 73
   146
  0
VERTEX
  8
front_attachment_snapon
 62
   254
 10
0.0
 20
0.0
 30
0.0
 70
   128
 71
   186
 72
   146
 73
   145
  0
VERTEX
  8
front_attachment_snapon
 62
   254
 10
0.0
 20
0.0
 30
0.0
 70
   128
 71
   188
 72
   144
 73
   143
  0
VERTEX
  8
front_attachment_snapon
 62
   254
 10
0.0
 20
0.0
 30
0.0
 70
   128
 71
   189
 72
   143
 73
   142
  0
VERTEX
  8
front_attachment_snapon
 62
   254
 10
0.0
 20
0.0
 30
0.0
 70
   128
 71
   190
 72
   142
 73
   141
  0
VERTEX
  8
front_attachment_snapon
 62
   254
 10
0.0
 20
0.0
 30
0.0
 70
   128
 71
   186
 72
   145
 73
   144
  0
VERTEX
  8
front_attachment_snapon
 62
   254
 10
0.0
 20
0.0
 30
0.0
 70
   128
 71
   144
 72
   187
 73
   186
  0
VERTEX
  8
front_attachment_snapon
 62
   254
 10
0.0
 20
0.0
 30
0.0
 70
   128
 71
   21
 72
   22
 73
   114
  0
VERTEX
  8
front_attachment_snapon
 62
   254
 10
0.0
 20
0.0
 30
0.0
 70
   128
 71
   114
 72
   218
 73
   217
  0
VERTEX
  8
front_attachment_snapon
 62
   254
 10
0.0
 20
0.0
 30
0.0
 70
   128
 71
   112
 72
   220
 73
   219
  0
VERTEX
  8
front_attachment_snapon
 62
   254
 10
0.0
 20
0.0
 30
0.0
 70
   128
 71
   110
 72
   222
 73
   221
  0
VERTEX
  8
front_attachment_snapon
 62
   254
 10
0.0
 20
0.0
 30
0.0
 70
   128
 71
   108
 72
   224
 73
   223
  0
VERTEX
  8
front_attachment_snapon
 62
   254
 10
0.0
 20
0.0
 30
0.0
 70
   128
 71
   107
 72
   46
 73
   224
  0
VERTEX
  8
front_attachment_snapon
 62
   254
 10
0.0
 20
0.0
 30
0.0
 70
   128
 71
   110
 72
   109
 73
   222
  0
VERTEX
  8
front_attachment_snapon
 62
   254
 10
0.0
 20
0.0
 30
0.0
 70
   128
 71
   109
 72
   108
 73
   223
  0
VERTEX
  8
front_attachment_snapon
 62
   254
 10
0.0
 20
0.0
 30
0.0
 70
   128
 71
   46
 72
   107
 73
   35
  0
VERTEX
  8
front_attachment_snapon
 62
   254
 10
0.0
 20
0.0
 30
0.0
 70
   128
 71
   108
 72
   107
 73
   224
  0
VERTEX
  8
front_attachment_snapon
 62
   254
 10
0.0
 20
0.0
 30
0.0
 70
   128
 71
   111
 72
   110
 73
   221
  0
VERTEX
  8
front_attachment_snapon
 62
   254
 10
0.0
 20
0.0
 30
0.0
 70
   128
 71
   109
 72
   223
 73
   222
  0
VERTEX
  8
front_attachment_snapon
 62
   254
 10
0.0
 20
0.0
 30
0.0
 70
   128
 71
   112
 72
   111
 73
   220
  0
VERTEX
  8
front_attachment_snapon
 62
   254
 10
0.0
 20
0.0
 30
0.0
 70
   128
 71
   111
 72
   221
 73
   220
  0
VERTEX
  8
front_attachment_snapon
 62
   254
 10
0.0
 20
0.0
 30
0.0
 70
   128
 71
   113
 72
   112
 73
   219
  0
VERTEX
  8
front_attachment_snapon
 62
   254
 10
0.0
 20
0.0
 30
0.0
 70
   128
 71
   113
 72
   219
 73
   218
  0
VERTEX
  8
front_attachment_snapon
 62
   254
 10
0.0
 20
0.0
 30
0.0
 70
   128
 71
   114
 72
   113
 73
   218
  0
VERTEX
  8
front_attachment_snapon
 62
   254
 10
0.0
 20
0.0
 30
0.0
 70
   128
 71
   21
 72
   114
 73
   217
  0
VERTEX
  8
front_attachment_snapon
 62
   254
 10
0.0
 20
0.0
 30
0.0
 70
   128
 71
   36
 72
   45
 73
   216
  0
VERTEX
  8
front_attachment_snapon
 62
   254
 10
0.0
 20
0.0
 30
0.0
 70
   128
 71
   36
 72
   216
 73
   115
  0
VERTEX
  8
front_attachment_snapon
 62
   254
 10
0.0
 20
0.0
 30
0.0
 70
   128
 71
   216
 72
   215
 73
   116
  0
VERTEX
  8
front_attachment_snapon
 62
   254
 10
0.0
 20
0.0
 30
0.0
 70
   128
 71
   215
 72
   214
 73
   117
  0
VERTEX
  8
front_attachment_snapon
 62
   254
 10
0.0
 20
0.0
 30
0.0
 70
   128
 71
   214
 72
   213
 73
   118
  0
VERTEX
  8
front_attachment_snapon
 62
   254
 10
0.0
 20
0.0
 30
0.0
 70
   128
 71
   213
 72
   212
 73
   119
  0
VERTEX
  8
front_attachment_snapon
 62
   254
 10
0.0
 20
0.0
 30
0.0
 70
   128
 71
   212
 72
   211
 73
   120
  0
VERTEX
  8
front_attachment_snapon
 62
   254
 10
0.0
 20
0.0
 30
0.0
 70
   128
 71
   211
 72
   210
 73
   121
  0
VERTEX
  8
front_attachment_snapon
 62
   254
 10
0.0
 20
0.0
 30
0.0
 70
   128
 71
   210
 72
   209
 73
   122
  0
VERTEX
  8
front_attachment_snapon
 62
   254
 10
0.0
 20
0.0
 30
0.0
 70
   128
 71
   209
 72
   208
 73
   123
  0
VERTEX
  8
front_attachment_snapon
 62
   254
 10
0.0
 20
0.0
 30
0.0
 70
   128
 71
   208
 72
   207
 73
   124
  0
VERTEX
  8
front_attachment_snapon
 62
   254
 10
0.0
 20
0.0
 30
0.0
 70
   128
 71
   207
 72
   206
 73
   125
  0
VERTEX
  8
front_attachment_snapon
 62
   254
 10
0.0
 20
0.0
 30
0.0
 70
   128
 71
   206
 72
   205
 73
   126
  0
VERTEX
  8
front_attachment_snapon
 62
   254
 10
0.0
 20
0.0
 30
0.0
 70
   128
 71
   205
 72
   204
 73
   127
  0
VERTEX
  8
front_attachment_snapon
 62
   254
 10
0.0
 20
0.0
 30
0.0
 70
   128
 71
   204
 72
   203
 73
   128
  0
VERTEX
  8
front_attachment_snapon
 62
   254
 10
0.0
 20
0.0
 30
0.0
 70
   128
 71
   203
 72
   202
 73
   129
  0
VERTEX
  8
front_attachment_snapon
 62
   254
 10
0.0
 20
0.0
 30
0.0
 70
   128
 71
   202
 72
   201
 73
   130
  0
VERTEX
  8
front_attachment_snapon
 62
   254
 10
0.0
 20
0.0
 30
0.0
 70
   128
 71
   201
 72
   200
 73
   131
  0
VERTEX
  8
front_attachment_snapon
 62
   254
 10
0.0
 20
0.0
 30
0.0
 70
   128
 71
   200
 72
   199
 73
   132
  0
VERTEX
  8
front_attachment_snapon
 62
   254
 10
0.0
 20
0.0
 30
0.0
 70
   128
 71
   199
 72
   198
 73
   133
  0
VERTEX
  8
front_attachment_snapon
 62
   254
 10
0.0
 20
0.0
 30
0.0
 70
   128
 71
   198
 72
   197
 73
   134
  0
VERTEX
  8
front_attachment_snapon
 62
   254
 10
0.0
 20
0.0
 30
0.0
 70
   128
 71
   197
 72
   196
 73
   135
  0
VERTEX
  8
front_attachment_snapon
 62
   254
 10
0.0
 20
0.0
 30
0.0
 70
   128
 71
   196
 72
   195
 73
   136
  0
VERTEX
  8
front_attachment_snapon
 62
   254
 10
0.0
 20
0.0
 30
0.0
 70
   128
 71
   195
 72
   194
 73
   137
  0
VERTEX
  8
front_attachment_snapon
 62
   254
 10
0.0
 20
0.0
 30
0.0
 70
   128
 71
   194
 72
   193
 73
   138
  0
VERTEX
  8
front_attachment_snapon
 62
   254
 10
0.0
 20
0.0
 30
0.0
 70
   128
 71
   193
 72
   192
 73
   139
  0
VERTEX
  8
front_attachment_snapon
 62
   254
 10
0.0
 20
0.0
 30
0.0
 70
   128
 71
   192
 72
   191
 73
   140
  0
VERTEX
  8
front_attachment_snapon
 62
   254
 10
0.0
 20
0.0
 30
0.0
 70
   128
 71
   191
 72
   46
 73
   35
  0
VERTEX
  8
front_attachment_snapon
 62
   254
 10
0.0
 20
0.0
 30
0.0
 70
   128
 71
   191
 72
   35
 73
   140
  0
VERTEX
  8
front_attachment_snapon
 62
   254
 10
0.0
 20
0.0
 30
0.0
 70
   128
 71
   192
 72
   140
 73
   139
  0
VERTEX
  8
front_attachment_snapon
 62
   254
 10
0.0
 20
0.0
 30
0.0
 70
   128
 71
   193
 72
   139
 73
   138
  0
VERTEX
  8
front_attachment_snapon
 62
   254
 10
0.0
 20
0.0
 30
0.0
 70
   128
 71
   194
 72
   138
 73
   137
  0
VERTEX
  8
front_attachment_snapon
 62
   254
 10
0.0
 20
0.0
 30
0.0
 70
   128
 71
   195
 72
   137
 73
   136
  0
VERTEX
  8
front_attachment_snapon
 62
   254
 10
0.0
 20
0.0
 30
0.0
 70
   128
 71
   196
 72
   136
 73
   135
  0
VERTEX
  8
front_attachment_snapon
 62
   254
 10
0.0
 20
0.0
 30
0.0
 70
   128
 71
   197
 72
   135
 73
   134
  0
VERTEX
  8
front_attachment_snapon
 62
   254
 10
0.0
 20
0.0
 30
0.0
 70
   128
 71
   198
 72
   134
 73
   133
  0
VERTEX
  8
front_attachment_snapon
 62
   254
 10
0.0
 20
0.0
 30
0.0
 70
   128
 71
   199
 72
   133
 73
   132
  0
VERTEX
  8
front_attachment_snapon
 62
   254
 10
0.0
 20
0.0
 30
0.0
 70
   128
 71
   200
 72
   132
 73
   131
  0
VERTEX
  8
front_attachment_snapon
 62
   254
 10
0.0
 20
0.0
 30
0.0
 70
   128
 71
   201
 72
   131
 73
   130
  0
VERTEX
  8
front_attachment_snapon
 62
   254
 10
0.0
 20
0.0
 30
0.0
 70
   128
 71
   202
 72
   130
 73
   129
  0
VERTEX
  8
front_attachment_snapon
 62
   254
 10
0.0
 20
0.0
 30
0.0
 70
   128
 71
   203
 72
   129
 73
   128
  0
VERTEX
  8
front_attachment_snapon
 62
   254
 10
0.0
 20
0.0
 30
0.0
 70
   128
 71
   204
 72
   128
 73
   127
  0
VERTEX
  8
front_attachment_snapon
 62
   254
 10
0.0
 20
0.0
 30
0.0
 70
   128
 71
   205
 72
   127
 73
   126
  0
VERTEX
  8
front_attachment_snapon
 62
   254
 10
0.0
 20
0.0
 30
0.0
 70
   128
 71
   206
 72
   126
 73
   125
  0
VERTEX
  8
front_attachment_snapon
 62
   254
 10
0.0
 20
0.0
 30
0.0
 70
   128
 71
   207
 72
   125
 73
   124
  0
VERTEX
  8
front_attachment_snapon
 62
   254
 10
0.0
 20
0.0
 30
0.0
 70
   128
 71
   208
 72
   124
 73
   123
  0
VERTEX
  8
front_attachment_snapon
 62
   254
 10
0.0
 20
0.0
 30
0.0
 70
   128
 71
   209
 72
   123
 73
   122
  0
VERTEX
  8
front_attachment_snapon
 62
   254
 10
0.0
 20
0.0
 30
0.0
 70
   128
 71
   210
 72
   122
 73
   121
  0
VERTEX
  8
front_attachment_snapon
 62
   254
 10
0.0
 20
0.0
 30
0.0
 70
   128
 71
   211
 72
   121
 73
   120
  0
VERTEX
  8
front_attachment_snapon
 62
   254
 10
0.0
 20
0.0
 30
0.0
 70
   128
 71
   212
 72
   120
 73
   119
  0
VERTEX
  8
front_attachment_snapon
 62
   254
 10
0.0
 20
0.0
 30
0.0
 70
   128
 71
   213
 72
   119
 73
   118
  0
VERTEX
  8
front_attachment_snapon
 62
   254
 10
0.0
 20
0.0
 30
0.0
 70
   128
 71
   214
 72
   118
 73
   117
  0
VERTEX
  8
front_attachment_snapon
 62
   254
 10
0.0
 20
0.0
 30
0.0
 70
   128
 71
   215
 72
   117
 73
   116
  0
VERTEX
  8
front_attachment_snapon
 62
   254
 10
0.0
 20
0.0
 30
0.0
 70
   128
 71
   216
 72
   116
 73
   115
  0
VERTEX
  8
front_attachment_snapon
 62
   254
 10
0.0
 20
0.0
 30
0.0
 70
   128
 71
   30
 72
   5
 73
   6
  0
VERTEX
  8
front_attachment_snapon
 62
   254
 10
0.0
 20
0.0
 30
0.0
 70
   128
 71
   30
 72
   6
 73
   53
  0
VERTEX
  8
front_attachment_snapon
 62
   254
 10
0.0
 20
0.0
 30
0.0
 70
   128
 71
   53
 72
   6
 73
   7
  0
VERTEX
  8
front_attachment_snapon
 62
   254
 10
0.0
 20
0.0
 30
0.0
 70
   128
 71
   53
 72
   7
 73
   54
  0
VERTEX
  8
front_attachment_snapon
 62
   254
 10
0.0
 20
0.0
 30
0.0
 70
   128
 71
   54
 72
   7
 73
   8
  0
VERTEX
  8
front_attachment_snapon
 62
   254
 10
0.0
 20
0.0
 30
0.0
 70
   128
 71
   54
 72
   8
 73
   29
  0
VERTEX
  8
front_attachment_snapon
 62
   254
 10
0.0
 20
0.0
 30
0.0
 70
   128
 71
   12
 72
   25
 73
   11
  0
VERTEX
  8
front_attachment_snapon
 62
   254
 10
0.0
 20
0.0
 30
0.0
 70
   128
 71
   11
 72
   25
 73
   27
  0
VERTEX
  8
front_attachment_snapon
 62
   254
 10
0.0
 20
0.0
 30
0.0
 70
   128
 71
   11
 72
   27
 73
   10
  0
VERTEX
  8
front_attachment_snapon
 62
   254
 10
0.0
 20
0.0
 30
0.0
 70
   128
 71
   10
 72
   27
 73
   28
  0
VERTEX
  8
front_attachment_snapon
 62
   254
 10
0.0
 20
0.0
 30
0.0
 70
   128
 71
   10
 72
   28
 73
   9
  0
VERTEX
  8
front_attachment_snapon
 62
   254
 10
0.0
 20
0.0
 30
0.0
 70
   128
 71
   9
 72
   28
 73
   26
  0
VERTEX
  8
front_attachment_snapon
 62
   254
 10
0.0
 20
0.0
 30
0.0
 70
   128
 71
   24
 72
   23
 73
   174
  0
VERTEX
  8
front_attachment_snapon
 62
   254
 10
0.0
 20
0.0
 30
0.0
 70
   128
 71
   24
 72
   174
 73
   81
  0
VERTEX
  8
front_attachment_snapon
 62
   254
 10
0.0
 20
0.0
 30
0.0
 70
   128
 71
   174
 72
   173
 73
   82
  0
VERTEX
  8
front_attachment_snapon
 62
   254
 10
0.0
 20
0.0
 30
0.0
 70
   128
 71
   173
 72
   172
 73
   83
  0
VERTEX
  8
front_attachment_snapon
 62
   254
 10
0.0
 20
0.0
 30
0.0
 70
   128
 71
   172
 72
   171
 73
   84
  0
VERTEX
  8
front_attachment_snapon
 62
   254
 10
0.0
 20
0.0
 30
0.0
 70
   128
 71
   171
 72
   170
 73
   85
  0
VERTEX
  8
front_attachment_snapon
 62
   254
 10
0.0
 20
0.0
 30
0.0
 70
   128
 71
   170
 72
   169
 73
   86
  0
VERTEX
  8
front_attachment_snapon
 62
   254
 10
0.0
 20
0.0
 30
0.0
 70
   128
 71
   169
 72
   168
 73
   87
  0
VERTEX
  8
front_attachment_snapon
 62
   254
 10
0.0
 20
0.0
 30
0.0
 70
   128
 71
   168
 72
   167
 73
   88
  0
VERTEX
  8
front_attachment_snapon
 62
   254
 10
0.0
 20
0.0
 30
0.0
 70
   128
 71
   167
 72
   166
 73
   89
  0
VERTEX
  8
front_attachment_snapon
 62
   254
 10
0.0
 20
0.0
 30
0.0
 70
   128
 71
   166
 72
   165
 73
   90
  0
VERTEX
  8
front_attachment_snapon
 62
   254
 10
0.0
 20
0.0
 30
0.0
 70
   128
 71
   165
 72
   164
 73
   91
  0
VERTEX
  8
front_attachment_snapon
 62
   254
 10
0.0
 20
0.0
 30
0.0
 70
   128
 71
   164
 72
   163
 73
   92
  0
VERTEX
  8
front_attachment_snapon
 62
   254
 10
0.0
 20
0.0
 30
0.0
 70
   128
 71
   163
 72
   162
 73
   93
  0
VERTEX
  8
front_attachment_snapon
 62
   254
 10
0.0
 20
0.0
 30
0.0
 70
   128
 71
   162
 72
   161
 73
   94
  0
VERTEX
  8
front_attachment_snapon
 62
   254
 10
0.0
 20
0.0
 30
0.0
 70
   128
 71
   161
 72
   160
 73
   95
  0
VERTEX
  8
front_attachment_snapon
 62
   254
 10
0.0
 20
0.0
 30
0.0
 70
   128
 71
   160
 72
   159
 73
   96
  0
VERTEX
  8
front_attachment_snapon
 62
   254
 10
0.0
 20
0.0
 30
0.0
 70
   128
 71
   159
 72
   158
 73
   97
  0
VERTEX
  8
front_attachment_snapon
 62
   254
 10
0.0
 20
0.0
 30
0.0
 70
   128
 71
   158
 72
   157
 73
   98
  0
VERTEX
  8
front_attachment_snapon
 62
   254
 10
0.0
 20
0.0
 30
0.0
 70
   128
 71
   157
 72
   156
 73
   99
  0
VERTEX
  8
front_attachment_snapon
 62
   254
 10
0.0
 20
0.0
 30
0.0
 70
   128
 71
   156
 72
   155
 73
   100
  0
VERTEX
  8
front_attachment_snapon
 62
   254
 10
0.0
 20
0.0
 30
0.0
 70
   128
 71
   155
 72
   154
 73
   101
  0
VERTEX
  8
front_attachment_snapon
 62
   254
 10
0.0
 20
0.0
 30
0.0
 70
   128
 71
   154
 72
   153
 73
   102
  0
VERTEX
  8
front_attachment_snapon
 62
   254
 10
0.0
 20
0.0
 30
0.0
 70
   128
 71
   153
 72
   152
 73
   103
  0
VERTEX
  8
front_attachment_snapon
 62
   254
 10
0.0
 20
0.0
 30
0.0
 70
   128
 71
   152
 72
   151
 73
   104
  0
VERTEX
  8
front_attachment_snapon
 62
   254
 10
0.0
 20
0.0
 30
0.0
 70
   128
 71
   151
 72
   150
 73
   105
  0
VERTEX
  8
front_attachment_snapon
 62
   254
 10
0.0
 20
0.0
 30
0.0
 70
   128
 71
   150
 72
   149
 73
   106
  0
VERTEX
  8
front_attachment_snapon
 62
   254
 10
0.0
 20
0.0
 30
0.0
 70
   128
 71
   149
 72
   43
 73
   33
  0
VERTEX
  8
front_attachment_snapon
 62
   254
 10
0.0
 20
0.0
 30
0.0
 70
   128
 71
   149
 72
   33
 73
   106
  0
VERTEX
  8
front_attachment_snapon
 62
   254
 10
0.0
 20
0.0
 30
0.0
 70
   128
 71
   150
 72
   106
 73
   105
  0
VERTEX
  8
front_attachment_snapon
 62
   254
 10
0.0
 20
0.0
 30
0.0
 70
   128
 71
   151
 72
   105
 73
   104
  0
VERTEX
  8
front_attachment_snapon
 62
   254
 10
0.0
 20
0.0
 30
0.0
 70
   128
 71
   152
 72
   104
 73
   103
  0
VERTEX
  8
front_attachment_snapon
 62
   254
 10
0.0
 20
0.0
 30
0.0
 70
   128
 71
   153
 72
   103
 73
   102
  0
VERTEX
  8
front_attachment_snapon
 62
   254
 10
0.0
 20
0.0
 30
0.0
 70
   128
 71
   154
 72
   102
 73
   101
  0
VERTEX
  8
front_attachment_snapon
 62
   254
 10
0.0
 20
0.0
 30
0.0
 70
   128
 71
   155
 72
   101
 73
   100
  0
VERTEX
  8
front_attachment_snapon
 62
   254
 10
0.0
 20
0.0
 30
0.0
 70
   128
 71
   156
 72
   100
 73
   99
  0
VERTEX
  8
front_attachment_snapon
 62
   254
 10
0.0
 20
0.0
 30
0.0
 70
   128
 71
   157
 72
   99
 73
   98
  0
VERTEX
  8
front_attachment_snapon
 62
   254
 10
0.0
 20
0.0
 30
0.0
 70
   128
 71
   158
 72
   98
 73
   97
  0
VERTEX
  8
front_attachment_snapon
 62
   254
 10
0.0
 20
0.0
 30
0.0
 70
   128
 71
   159
 72
   97
 73
   96
  0
VERTEX
  8
front_attachment_snapon
 62
   254
 10
0.0
 20
0.0
 30
0.0
 70
   128
 71
   160
 72
   96
 73
   95
  0
VERTEX
  8
front_attachment_snapon
 62
   254
 10
0.0
 20
0.0
 30
0.0
 70
   128
 71
   161
 72
   95
 73
   94
  0
VERTEX
  8
front_attachment_snapon
 62
   254
 10
0.0
 20
0.0
 30
0.0
 70
   128
 71
   162
 72
   94
 73
   93
  0
VERTEX
  8
front_attachment_snapon
 62
   254
 10
0.0
 20
0.0
 30
0.0
 70
   128
 71
   163
 72
   93
 73
   92
  0
VERTEX
  8
front_attachment_snapon
 62
   254
 10
0.0
 20
0.0
 30
0.0
 70
   128
 71
   164
 72
   92
 73
   91
  0
VERTEX
  8
front_attachment_snapon
 62
   254
 10
0.0
 20
0.0
 30
0.0
 70
   128
 71
   165
 72
   91
 73
   90
  0
VERTEX
  8
front_attachment_snapon
 62
   254
 10
0.0
 20
0.0
 30
0.0
 70
   128
 71
   166
 72
   90
 73
   89
  0
VERTEX
  8
front_attachment_snapon
 62
   254
 10
0.0
 20
0.0
 30
0.0
 70
   128
 71
   167
 72
   89
 73
   88
  0
VERTEX
  8
front_attachment_snapon
 62
   254
 10
0.0
 20
0.0
 30
0.0
 70
   128
 71
   168
 72
   88
 73
   87
  0
VERTEX
  8
front_attachment_snapon
 62
   254
 10
0.0
 20
0.0
 30
0.0
 70
   128
 71
   169
 72
   87
 73
   86
  0
VERTEX
  8
front_attachment_snapon
 62
   254
 10
0.0
 20
0.0
 30
0.0
 70
   128
 71
   170
 72
   86
 73
   85
  0
VERTEX
  8
front_attachment_snapon
 62
   254
 10
0.0
 20
0.0
 30
0.0
 70
   128
 71
   171
 72
   85
 73
   84
  0
VERTEX
  8
front_attachment_snapon
 62
   254
 10
0.0
 20
0.0
 30
0.0
 70
   128
 71
   172
 72
   84
 73
   83
  0
VERTEX
  8
front_attachment_snapon
 62
   254
 10
0.0
 20
0.0
 30
0.0
 70
   128
 71
   173
 72
   83
 73
   82
  0
VERTEX
  8
front_attachment_snapon
 62
   254
 10
0.0
 20
0.0
 30
0.0
 70
   128
 71
   174
 72
   82
 73
   81
  0
VERTEX
  8
front_attachment_snapon
 62
   254
 10
0.0
 20
0.0
 30
0.0
 70
   128
 71
   20
 72
   37
 73
   19
  0
VERTEX
  8
front_attachment_snapon
 62
   254
 10
0.0
 20
0.0
 30
0.0
 70
   128
 71
   19
 72
   37
 73
   39
  0
VERTEX
  8
front_attachment_snapon
 62
   254
 10
0.0
 20
0.0
 30
0.0
 70
   128
 71
   49
 72
   51
 73
   47
  0
VERTEX
  8
front_attachment_snapon
 62
   254
 10
0.0
 20
0.0
 30
0.0
 70
   128
 71
   49
 72
   47
 73
   48
  0
VERTEX
  8
front_attachment_snapon
 62
   254
 10
0.0
 20
0.0
 30
0.0
 70
   128
 71
   2
 72
   17
 73
   1
  0
VERTEX
  8
front_attachment_snapon
 62
   254
 10
0.0
 20
0.0
 30
0.0
 70
   128
 71
   1
 72
   17
 73
   55
  0
VERTEX
  8
front_attachment_snapon
 62
   254
 10
0.0
 20
0.0
 30
0.0
 70
   128
 71
   17
 72
   18
 73
   55
  0
VERTEX
  8
front_attachment_snapon
 62
   254
 10
0.0
 20
0.0
 30
0.0
 70
   128
 71
   55
 72
   18
 73
   56
  0
VERTEX
  8
front_attachment_snapon
 62
   254
 10
0.0
 20
0.0
 30
0.0
 70
   128
 71
   15
 72
   16
 73
   56
  0
VERTEX
  8
front_attachment_snapon
 62
   254
 10
0.0
 20
0.0
 30
0.0
 70
   128
 71
   15
 72
   56
 73
   18
  0
VERTEX
  8
front_attachment_snapon
 62
   254
 10
0.0
 20
0.0
 30
0.0
 70
   128
 71
   16
 72
   1
 73
   56
  0
VERTEX
  8
front_attachment_snapon
 62
   254
 10
0.0
 20
0.0
 30
0.0
 70
   128
 71
   56
 72
   1
 73
   55
  0
SEQEND
  0
ENDSEC
  0
EOF
