999
FBX AutoCAD (*.DXF) exporter
  0
SECTION
  2
HEADER
  9
$ACADVER
  1
AC1008
  9
$UCSORG
 10
0.0
 20
0.0
 30
0.0
  9
$UCSXDIR
 10
1.0
 20
0.0
 30
0.0
  9
$TILEMODE
 70
   1
  9
$UCSYDIR
 10
0.0
 20
1.0
 30
0.0
  0
ENDSEC
  0
SECTION
  2
TABLES
  0
TABLE
  2
LTYPE
 70
   1
  0
LTYPE
  2
CONTINUOUS
 70
   64
  3
Solid line
 72
   65
 73
   0
 40
0.0
  0
ENDTAB
  0
TABLE
  2
LAYER
 70
   1
  0
LAYER
  2
Female_Zip_Tie
 70
   0
 62
   253
  6
CONTINUOUS
  0
ENDTAB
  0
ENDSEC
  0
SECTION
  2
BLOCKS
  0
ENDSEC
  0
SECTION
  2
ENTITIES
  0
POLYLINE
  8
Female_Zip_Tie
 62
   253
 66
   1
 10
0.0
 20
0.0
 30
0.0
 70
   64
 71
   254
 72
   508
  0
VERTEX
  8
Female_Zip_Tie
 10
2.159000
 20
0.128766
 30
0.219710
 70
   192
  0
VERTEX
  8
Female_Zip_Tie
 10
2.159000
 20
-0.005898
 30
0.219710
 70
   192
  0
VERTEX
  8
Female_Zip_Tie
 10
1.498600
 20
0.134620
 30
0.219710
 70
   192
  0
VERTEX
  8
Female_Zip_Tie
 10
1.066800
 20
0.134620
 30
0.219710
 70
   192
  0
VERTEX
  8
Female_Zip_Tie
 10
1.066800
 20
-0.000000
 30
0.219710
 70
   192
  0
VERTEX
  8
Female_Zip_Tie
 10
1.498600
 20
-0.000000
 30
0.219710
 70
   192
  0
VERTEX
  8
Female_Zip_Tie
 10
2.159000
 20
-0.005898
 30
-0.219710
 70
   192
  0
VERTEX
  8
Female_Zip_Tie
 10
2.159000
 20
0.128766
 30
-0.219710
 70
   192
  0
VERTEX
  8
Female_Zip_Tie
 10
1.498600
 20
-0.000000
 30
-0.219710
 70
   192
  0
VERTEX
  8
Female_Zip_Tie
 10
1.066800
 20
-0.000000
 30
-0.219710
 70
   192
  0
VERTEX
  8
Female_Zip_Tie
 10
1.066800
 20
0.134620
 30
-0.219710
 70
   192
  0
VERTEX
  8
Female_Zip_Tie
 10
1.498600
 20
0.134620
 30
-0.219710
 70
   192
  0
VERTEX
  8
Female_Zip_Tie
 10
1.676031
 20
-0.000338
 30
0.152400
 70
   192
  0
VERTEX
  8
Female_Zip_Tie
 10
1.676031
 20
-0.000338
 30
-0.152400
 70
   192
  0
VERTEX
  8
Female_Zip_Tie
 10
1.574431
 20
-0.000058
 30
-0.152400
 70
   192
  0
VERTEX
  8
Female_Zip_Tie
 10
1.574431
 20
-0.000058
 30
0.152400
 70
   192
  0
VERTEX
  8
Female_Zip_Tie
 10
1.802562
 20
-0.001061
 30
0.152400
 70
   192
  0
VERTEX
  8
Female_Zip_Tie
 10
1.802562
 20
-0.001061
 30
-0.152400
 70
   192
  0
VERTEX
  8
Female_Zip_Tie
 10
1.700964
 20
-0.000445
 30
-0.152400
 70
   192
  0
VERTEX
  8
Female_Zip_Tie
 10
1.700964
 20
-0.000445
 30
0.152400
 70
   192
  0
VERTEX
  8
Female_Zip_Tie
 10
1.929012
 20
-0.002266
 30
0.152400
 70
   192
  0
VERTEX
  8
Female_Zip_Tie
 10
1.929012
 20
-0.002266
 30
-0.152400
 70
   192
  0
VERTEX
  8
Female_Zip_Tie
 10
1.827417
 20
-0.001258
 30
-0.152400
 70
   192
  0
VERTEX
  8
Female_Zip_Tie
 10
1.827417
 20
-0.001258
 30
0.152400
 70
   192
  0
VERTEX
  8
Female_Zip_Tie
 10
2.055382
 20
-0.004014
 30
0.152400
 70
   192
  0
VERTEX
  8
Female_Zip_Tie
 10
2.055382
 20
-0.004014
 30
-0.152400
 70
   192
  0
VERTEX
  8
Female_Zip_Tie
 10
1.953792
 20
-0.002564
 30
-0.152400
 70
   192
  0
VERTEX
  8
Female_Zip_Tie
 10
1.953792
 20
-0.002564
 30
0.152400
 70
   192
  0
VERTEX
  8
Female_Zip_Tie
 10
2.159000
 20
-0.005898
 30
0.152400
 70
   192
  0
VERTEX
  8
Female_Zip_Tie
 10
1.498600
 20
-0.000000
 30
0.152400
 70
   192
  0
VERTEX
  8
Female_Zip_Tie
 10
1.549389
 20
-0.000026
 30
0.152400
 70
   192
  0
VERTEX
  8
Female_Zip_Tie
 10
1.549389
 20
-0.000026
 30
-0.152400
 70
   192
  0
VERTEX
  8
Female_Zip_Tie
 10
1.498600
 20
-0.000000
 30
-0.152400
 70
   192
  0
VERTEX
  8
Female_Zip_Tie
 10
2.159000
 20
-0.005898
 30
-0.152400
 70
   192
  0
VERTEX
  8
Female_Zip_Tie
 10
2.080090
 20
-0.004425
 30
-0.152400
 70
   192
  0
VERTEX
  8
Female_Zip_Tie
 10
2.080090
 20
-0.004425
 30
0.152400
 70
   192
  0
VERTEX
  8
Female_Zip_Tie
 10
1.676229
 20
0.134285
 30
-0.152400
 70
   192
  0
VERTEX
  8
Female_Zip_Tie
 10
1.574780
 20
0.134562
 30
-0.152400
 70
   192
  0
VERTEX
  8
Female_Zip_Tie
 10
1.676229
 20
0.134285
 30
0.152400
 70
   192
  0
VERTEX
  8
Female_Zip_Tie
 10
1.574780
 20
0.134562
 30
0.152400
 70
   192
  0
VERTEX
  8
Female_Zip_Tie
 10
1.803175
 20
0.133564
 30
-0.152400
 70
   192
  0
VERTEX
  8
Female_Zip_Tie
 10
1.701755
 20
0.134176
 30
-0.152400
 70
   192
  0
VERTEX
  8
Female_Zip_Tie
 10
1.803175
 20
0.133564
 30
0.152400
 70
   192
  0
VERTEX
  8
Female_Zip_Tie
 10
1.701755
 20
0.134176
 30
0.152400
 70
   192
  0
VERTEX
  8
Female_Zip_Tie
 10
1.930116
 20
0.132361
 30
-0.152400
 70
   192
  0
VERTEX
  8
Female_Zip_Tie
 10
1.828723
 20
0.133363
 30
-0.152400
 70
   192
  0
VERTEX
  8
Female_Zip_Tie
 10
1.930116
 20
0.132361
 30
0.152400
 70
   192
  0
VERTEX
  8
Female_Zip_Tie
 10
1.828723
 20
0.133363
 30
0.152400
 70
   192
  0
VERTEX
  8
Female_Zip_Tie
 10
2.057049
 20
0.130611
 30
-0.152400
 70
   192
  0
VERTEX
  8
Female_Zip_Tie
 10
1.955683
 20
0.132054
 30
-0.152400
 70
   192
  0
VERTEX
  8
Female_Zip_Tie
 10
2.057049
 20
0.130611
 30
0.152400
 70
   192
  0
VERTEX
  8
Female_Zip_Tie
 10
1.955683
 20
0.132054
 30
0.152400
 70
   192
  0
VERTEX
  8
Female_Zip_Tie
 10
2.159000
 20
0.128766
 30
0.152400
 70
   192
  0
VERTEX
  8
Female_Zip_Tie
 10
2.082633
 20
0.130186
 30
0.152400
 70
   192
  0
VERTEX
  8
Female_Zip_Tie
 10
2.082633
 20
0.130186
 30
-0.152400
 70
   192
  0
VERTEX
  8
Female_Zip_Tie
 10
2.159000
 20
0.128766
 30
-0.152400
 70
   192
  0
VERTEX
  8
Female_Zip_Tie
 10
1.498600
 20
0.134620
 30
-0.152400
 70
   192
  0
VERTEX
  8
Female_Zip_Tie
 10
1.549308
 20
0.134595
 30
-0.152400
 70
   192
  0
VERTEX
  8
Female_Zip_Tie
 10
1.549308
 20
0.134595
 30
0.152400
 70
   192
  0
VERTEX
  8
Female_Zip_Tie
 10
1.498600
 20
0.134620
 30
0.152400
 70
   192
  0
VERTEX
  8
Female_Zip_Tie
 10
2.159000
 20
0.122507
 30
-0.152400
 70
   192
  0
VERTEX
  8
Female_Zip_Tie
 10
2.159000
 20
0.122507
 30
0.152400
 70
   192
  0
VERTEX
  8
Female_Zip_Tie
 10
2.082154
 20
0.104831
 30
-0.152400
 70
   192
  0
VERTEX
  8
Female_Zip_Tie
 10
2.082154
 20
0.104831
 30
0.152400
 70
   192
  0
VERTEX
  8
Female_Zip_Tie
 10
2.159000
 20
-0.000163
 30
-0.152400
 70
   192
  0
VERTEX
  8
Female_Zip_Tie
 10
2.080571
 20
0.021026
 30
-0.152400
 70
   192
  0
VERTEX
  8
Female_Zip_Tie
 10
2.159000
 20
-0.000163
 30
0.152400
 70
   192
  0
VERTEX
  8
Female_Zip_Tie
 10
2.080571
 20
0.021026
 30
0.152400
 70
   192
  0
VERTEX
  8
Female_Zip_Tie
 10
0.107353
 20
0.134620
 30
0.181011
 70
   192
  0
VERTEX
  8
Female_Zip_Tie
 10
-0.068623
 20
0.439420
 30
0.181011
 70
   192
  0
VERTEX
  8
Female_Zip_Tie
 10
0.254000
 20
0.134620
 30
0.054011
 70
   192
  0
VERTEX
  8
Female_Zip_Tie
 10
0.078024
 20
0.439420
 30
0.054011
 70
   192
  0
VERTEX
  8
Female_Zip_Tie
 10
0.254000
 20
0.134620
 30
-0.054011
 70
   192
  0
VERTEX
  8
Female_Zip_Tie
 10
0.078024
 20
0.439420
 30
-0.054011
 70
   192
  0
VERTEX
  8
Female_Zip_Tie
 10
0.107353
 20
0.134620
 30
-0.181011
 70
   192
  0
VERTEX
  8
Female_Zip_Tie
 10
-0.068623
 20
0.439420
 30
-0.181011
 70
   192
  0
VERTEX
  8
Female_Zip_Tie
 10
1.320800
 20
0.134620
 30
0.152400
 70
   192
  0
VERTEX
  8
Female_Zip_Tie
 10
1.320800
 20
0.134620
 30
-0.152400
 70
   192
  0
VERTEX
  8
Female_Zip_Tie
 10
1.422400
 20
0.134620
 30
-0.152400
 70
   192
  0
VERTEX
  8
Female_Zip_Tie
 10
1.422400
 20
0.134620
 30
0.152400
 70
   192
  0
VERTEX
  8
Female_Zip_Tie
 10
1.193800
 20
0.134620
 30
0.152400
 70
   192
  0
VERTEX
  8
Female_Zip_Tie
 10
1.193800
 20
0.134620
 30
-0.152400
 70
   192
  0
VERTEX
  8
Female_Zip_Tie
 10
1.295400
 20
0.134620
 30
-0.152400
 70
   192
  0
VERTEX
  8
Female_Zip_Tie
 10
1.295400
 20
0.134620
 30
0.152400
 70
   192
  0
VERTEX
  8
Female_Zip_Tie
 10
1.066800
 20
0.134620
 30
0.152400
 70
   192
  0
VERTEX
  8
Female_Zip_Tie
 10
1.066800
 20
0.134620
 30
-0.152400
 70
   192
  0
VERTEX
  8
Female_Zip_Tie
 10
1.168400
 20
0.134620
 30
-0.152400
 70
   192
  0
VERTEX
  8
Female_Zip_Tie
 10
1.168400
 20
0.134620
 30
0.152400
 70
   192
  0
VERTEX
  8
Female_Zip_Tie
 10
1.447799
 20
0.134620
 30
0.152400
 70
   192
  0
VERTEX
  8
Female_Zip_Tie
 10
1.447799
 20
0.134620
 30
-0.152400
 70
   192
  0
VERTEX
  8
Female_Zip_Tie
 10
0.381000
 20
0.134620
 30
-0.393700
 70
   192
  0
VERTEX
  8
Female_Zip_Tie
 10
0.381000
 20
0.134620
 30
-0.257211
 70
   192
  0
VERTEX
  8
Female_Zip_Tie
 10
0.254000
 20
0.134620
 30
-0.257211
 70
   192
  0
VERTEX
  8
Female_Zip_Tie
 10
0.254000
 20
0.134620
 30
-0.181011
 70
   192
  0
VERTEX
  8
Female_Zip_Tie
 10
0.254000
 20
0.134620
 30
0.181011
 70
   192
  0
VERTEX
  8
Female_Zip_Tie
 10
0.254000
 20
0.134620
 30
0.257211
 70
   192
  0
VERTEX
  8
Female_Zip_Tie
 10
0.381000
 20
0.134620
 30
0.257211
 70
   192
  0
VERTEX
  8
Female_Zip_Tie
 10
0.381000
 20
0.134620
 30
0.393700
 70
   192
  0
VERTEX
  8
Female_Zip_Tie
 10
0.317500
 20
0.533400
 30
-0.257211
 70
   192
  0
VERTEX
  8
Female_Zip_Tie
 10
0.317500
 20
0.533400
 30
-0.358811
 70
   192
  0
VERTEX
  8
Female_Zip_Tie
 10
0.317500
 20
0.533400
 30
0.257211
 70
   192
  0
VERTEX
  8
Female_Zip_Tie
 10
0.317500
 20
0.533400
 30
0.358811
 70
   192
  0
VERTEX
  8
Female_Zip_Tie
 10
-0.139700
 20
0.533400
 30
-0.257211
 70
   192
  0
VERTEX
  8
Female_Zip_Tie
 10
-0.317500
 20
0.533400
 30
-0.358811
 70
   192
  0
VERTEX
  8
Female_Zip_Tie
 10
-0.317500
 20
0.533400
 30
0.358811
 70
   192
  0
VERTEX
  8
Female_Zip_Tie
 10
-0.139700
 20
0.533400
 30
0.257211
 70
   192
  0
VERTEX
  8
Female_Zip_Tie
 10
-0.215900
 20
0.533400
 30
0.181011
 70
   192
  0
VERTEX
  8
Female_Zip_Tie
 10
-0.215900
 20
0.533400
 30
-0.181011
 70
   192
  0
VERTEX
  8
Female_Zip_Tie
 10
-0.381000
 20
0.134620
 30
-0.393700
 70
   192
  0
VERTEX
  8
Female_Zip_Tie
 10
-0.381000
 20
0.134620
 30
0.393700
 70
   192
  0
VERTEX
  8
Female_Zip_Tie
 10
-0.381000
 20
0.000000
 30
-0.393700
 70
   192
  0
VERTEX
  8
Female_Zip_Tie
 10
-0.381000
 20
0.000000
 30
0.393700
 70
   192
  0
VERTEX
  8
Female_Zip_Tie
 10
1.422400
 20
-0.000000
 30
-0.152400
 70
   192
  0
VERTEX
  8
Female_Zip_Tie
 10
1.422400
 20
0.000000
 30
0.152400
 70
   192
  0
VERTEX
  8
Female_Zip_Tie
 10
1.320800
 20
0.000000
 30
-0.152400
 70
   192
  0
VERTEX
  8
Female_Zip_Tie
 10
1.320800
 20
0.000000
 30
0.152400
 70
   192
  0
VERTEX
  8
Female_Zip_Tie
 10
1.295400
 20
-0.000000
 30
-0.152400
 70
   192
  0
VERTEX
  8
Female_Zip_Tie
 10
1.295400
 20
0.000000
 30
0.152400
 70
   192
  0
VERTEX
  8
Female_Zip_Tie
 10
1.193800
 20
0.000000
 30
-0.152400
 70
   192
  0
VERTEX
  8
Female_Zip_Tie
 10
1.193800
 20
0.000000
 30
0.152400
 70
   192
  0
VERTEX
  8
Female_Zip_Tie
 10
1.168400
 20
-0.000000
 30
-0.152400
 70
   192
  0
VERTEX
  8
Female_Zip_Tie
 10
1.168400
 20
0.000000
 30
0.152400
 70
   192
  0
VERTEX
  8
Female_Zip_Tie
 10
1.066800
 20
0.000000
 30
-0.152400
 70
   192
  0
VERTEX
  8
Female_Zip_Tie
 10
1.066800
 20
0.000000
 30
0.152400
 70
   192
  0
VERTEX
  8
Female_Zip_Tie
 10
-0.139700
 20
-0.000000
 30
-0.181011
 70
   192
  0
VERTEX
  8
Female_Zip_Tie
 10
0.254000
 20
0.000000
 30
-0.181011
 70
   192
  0
VERTEX
  8
Female_Zip_Tie
 10
0.254000
 20
-0.000000
 30
-0.257211
 70
   192
  0
VERTEX
  8
Female_Zip_Tie
 10
-0.139700
 20
-0.000000
 30
-0.257211
 70
   192
  0
VERTEX
  8
Female_Zip_Tie
 10
-0.215900
 20
-0.000000
 30
-0.181011
 70
   192
  0
VERTEX
  8
Female_Zip_Tie
 10
-0.215900
 20
-0.000000
 30
0.181011
 70
   192
  0
VERTEX
  8
Female_Zip_Tie
 10
-0.139700
 20
-0.000000
 30
0.257211
 70
   192
  0
VERTEX
  8
Female_Zip_Tie
 10
0.254000
 20
0.000000
 30
0.257211
 70
   192
  0
VERTEX
  8
Female_Zip_Tie
 10
0.254000
 20
0.000000
 30
0.181011
 70
   192
  0
VERTEX
  8
Female_Zip_Tie
 10
-0.139700
 20
-0.000000
 30
0.181011
 70
   192
  0
VERTEX
  8
Female_Zip_Tie
 10
1.447789
 20
-0.000000
 30
-0.152400
 70
   192
  0
VERTEX
  8
Female_Zip_Tie
 10
1.447789
 20
0.000000
 30
0.152400
 70
   192
  0
VERTEX
  8
Female_Zip_Tie
 10
0.381000
 20
-0.000000
 30
0.393700
 70
   192
  0
VERTEX
  8
Female_Zip_Tie
 10
0.381000
 20
0.000000
 30
-0.393700
 70
   192
  0
VERTEX
  8
Female_Zip_Tie
 10
-0.139700
 20
0.439420
 30
-0.181011
 70
   192
  0
VERTEX
  8
Female_Zip_Tie
 10
-0.139700
 20
0.439420
 30
0.181011
 70
   192
  0
VERTEX
  8
Female_Zip_Tie
 10
1.066800
 20
0.109220
 30
0.152400
 70
   192
  0
VERTEX
  8
Female_Zip_Tie
 10
1.066800
 20
0.109220
 30
-0.152400
 70
   192
  0
VERTEX
  8
Female_Zip_Tie
 10
1.066800
 20
0.025400
 30
-0.152400
 70
   192
  0
VERTEX
  8
Female_Zip_Tie
 10
1.066800
 20
0.025400
 30
0.152400
 70
   192
  0
VERTEX
  8
Female_Zip_Tie
 10
1.193800
 20
0.109220
 30
0.152400
 70
   192
  0
VERTEX
  8
Female_Zip_Tie
 10
1.193800
 20
0.109220
 30
-0.152400
 70
   192
  0
VERTEX
  8
Female_Zip_Tie
 10
1.193800
 20
0.025400
 30
-0.152400
 70
   192
  0
VERTEX
  8
Female_Zip_Tie
 10
1.193800
 20
0.025400
 30
0.152400
 70
   192
  0
VERTEX
  8
Female_Zip_Tie
 10
1.320800
 20
0.109220
 30
0.152400
 70
   192
  0
VERTEX
  8
Female_Zip_Tie
 10
1.320800
 20
0.109220
 30
-0.152400
 70
   192
  0
VERTEX
  8
Female_Zip_Tie
 10
1.320800
 20
0.025400
 30
-0.152400
 70
   192
  0
VERTEX
  8
Female_Zip_Tie
 10
1.320800
 20
0.025400
 30
0.152400
 70
   192
  0
VERTEX
  8
Female_Zip_Tie
 10
1.447798
 20
0.109225
 30
0.152400
 70
   192
  0
VERTEX
  8
Female_Zip_Tie
 10
1.447798
 20
0.109225
 30
-0.152400
 70
   192
  0
VERTEX
  8
Female_Zip_Tie
 10
1.447791
 20
0.025405
 30
-0.152400
 70
   192
  0
VERTEX
  8
Female_Zip_Tie
 10
1.447791
 20
0.025405
 30
0.152400
 70
   192
  0
VERTEX
  8
Female_Zip_Tie
 10
1.549389
 20
-0.000002
 30
0.152400
 70
   192
  0
VERTEX
  8
Female_Zip_Tie
 10
1.549389
 20
-0.000002
 30
-0.152400
 70
   192
  0
VERTEX
  8
Female_Zip_Tie
 10
1.574714
 20
0.109186
 30
-0.152400
 70
   192
  0
VERTEX
  8
Female_Zip_Tie
 10
1.574714
 20
0.109186
 30
0.152400
 70
   192
  0
VERTEX
  8
Female_Zip_Tie
 10
1.574497
 20
0.025367
 30
-0.152400
 70
   192
  0
VERTEX
  8
Female_Zip_Tie
 10
1.574497
 20
0.025367
 30
0.152400
 70
   192
  0
VERTEX
  8
Female_Zip_Tie
 10
1.676031
 20
-0.000297
 30
0.152400
 70
   192
  0
VERTEX
  8
Female_Zip_Tie
 10
1.676031
 20
-0.000297
 30
-0.152400
 70
   192
  0
VERTEX
  8
Female_Zip_Tie
 10
1.701606
 20
0.108805
 30
-0.152400
 70
   192
  0
VERTEX
  8
Female_Zip_Tie
 10
1.701606
 20
0.108805
 30
0.152400
 70
   192
  0
VERTEX
  8
Female_Zip_Tie
 10
1.701113
 20
0.024986
 30
-0.152400
 70
   192
  0
VERTEX
  8
Female_Zip_Tie
 10
1.701113
 20
0.024986
 30
0.152400
 70
   192
  0
VERTEX
  8
Female_Zip_Tie
 10
1.802562
 20
-0.001011
 30
0.152400
 70
   192
  0
VERTEX
  8
Female_Zip_Tie
 10
1.802562
 20
-0.001011
 30
-0.152400
 70
   192
  0
VERTEX
  8
Female_Zip_Tie
 10
1.828477
 20
0.107997
 30
-0.152400
 70
   192
  0
VERTEX
  8
Female_Zip_Tie
 10
1.828477
 20
0.107997
 30
0.152400
 70
   192
  0
VERTEX
  8
Female_Zip_Tie
 10
1.827663
 20
0.024181
 30
-0.152400
 70
   192
  0
VERTEX
  8
Female_Zip_Tie
 10
1.827663
 20
0.024181
 30
0.152400
 70
   192
  0
VERTEX
  8
Female_Zip_Tie
 10
1.929012
 20
-0.002204
 30
0.152400
 70
   192
  0
VERTEX
  8
Female_Zip_Tie
 10
1.929012
 20
-0.002204
 30
-0.152400
 70
   192
  0
VERTEX
  8
Female_Zip_Tie
 10
1.955327
 20
0.106694
 30
-0.152400
 70
   192
  0
VERTEX
  8
Female_Zip_Tie
 10
1.955327
 20
0.106694
 30
0.152400
 70
   192
  0
VERTEX
  8
Female_Zip_Tie
 10
1.954149
 20
0.022882
 30
-0.152400
 70
   192
  0
VERTEX
  8
Female_Zip_Tie
 10
1.954149
 20
0.022882
 30
0.152400
 70
   192
  0
VERTEX
  8
Female_Zip_Tie
 10
2.055383
 20
-0.003943
 30
0.152400
 70
   192
  0
VERTEX
  8
Female_Zip_Tie
 10
2.055383
 20
-0.003943
 30
-0.152400
 70
   192
  0
VERTEX
  8
Female_Zip_Tie
 10
0.135171
 20
0.134620
 30
0.178705
 70
   192
  0
VERTEX
  8
Female_Zip_Tie
 10
0.161979
 20
0.134620
 30
0.171871
 70
   192
  0
VERTEX
  8
Female_Zip_Tie
 10
0.186804
 20
0.134620
 30
0.160757
 70
   192
  0
VERTEX
  8
Female_Zip_Tie
 10
0.206702
 20
0.134620
 30
0.147426
 70
   192
  0
VERTEX
  8
Female_Zip_Tie
 10
0.222126
 20
0.134620
 30
0.133064
 70
   192
  0
VERTEX
  8
Female_Zip_Tie
 10
0.234813
 20
0.134620
 30
0.116817
 70
   192
  0
VERTEX
  8
Female_Zip_Tie
 10
0.244459
 20
0.134620
 30
0.099071
 70
   192
  0
VERTEX
  8
Female_Zip_Tie
 10
0.250836
 20
0.134620
 30
0.080251
 70
   192
  0
VERTEX
  8
Female_Zip_Tie
 10
0.253207
 20
0.134620
 30
0.067203
 70
   192
  0
VERTEX
  8
Female_Zip_Tie
 10
-0.040805
 20
0.439420
 30
0.178705
 70
   192
  0
VERTEX
  8
Female_Zip_Tie
 10
-0.013997
 20
0.439420
 30
0.171871
 70
   192
  0
VERTEX
  8
Female_Zip_Tie
 10
0.010827
 20
0.439420
 30
0.160757
 70
   192
  0
VERTEX
  8
Female_Zip_Tie
 10
0.030726
 20
0.439420
 30
0.147426
 70
   192
  0
VERTEX
  8
Female_Zip_Tie
 10
0.046150
 20
0.439420
 30
0.133064
 70
   192
  0
VERTEX
  8
Female_Zip_Tie
 10
0.058836
 20
0.439420
 30
0.116817
 70
   192
  0
VERTEX
  8
Female_Zip_Tie
 10
0.068483
 20
0.439420
 30
0.099071
 70
   192
  0
VERTEX
  8
Female_Zip_Tie
 10
0.074859
 20
0.439420
 30
0.080251
 70
   192
  0
VERTEX
  8
Female_Zip_Tie
 10
0.077230
 20
0.439420
 30
0.067203
 70
   192
  0
VERTEX
  8
Female_Zip_Tie
 10
0.252745
 20
0.134620
 30
-0.070588
 70
   192
  0
VERTEX
  8
Female_Zip_Tie
 10
0.249003
 20
0.134620
 30
-0.086881
 70
   192
  0
VERTEX
  8
Female_Zip_Tie
 10
0.242837
 20
0.134620
 30
-0.102612
 70
   192
  0
VERTEX
  8
Female_Zip_Tie
 10
0.234353
 20
0.134620
 30
-0.117511
 70
   192
  0
VERTEX
  8
Female_Zip_Tie
 10
0.223696
 20
0.134620
 30
-0.131324
 70
   192
  0
VERTEX
  8
Female_Zip_Tie
 10
0.211048
 20
0.134620
 30
-0.143814
 70
   192
  0
VERTEX
  8
Female_Zip_Tie
 10
0.196626
 20
0.134620
 30
-0.154767
 70
   192
  0
VERTEX
  8
Female_Zip_Tie
 10
0.180677
 20
0.134620
 30
-0.163996
 70
   192
  0
VERTEX
  8
Female_Zip_Tie
 10
0.163472
 20
0.134620
 30
-0.171344
 70
   192
  0
VERTEX
  8
Female_Zip_Tie
 10
0.145308
 20
0.134620
 30
-0.176684
 70
   192
  0
VERTEX
  8
Female_Zip_Tie
 10
0.126494
 20
0.134620
 30
-0.179925
 70
   192
  0
VERTEX
  8
Female_Zip_Tie
 10
0.076769
 20
0.439420
 30
-0.070588
 70
   192
  0
VERTEX
  8
Female_Zip_Tie
 10
0.073027
 20
0.439420
 30
-0.086881
 70
   192
  0
VERTEX
  8
Female_Zip_Tie
 10
0.066861
 20
0.439420
 30
-0.102612
 70
   192
  0
VERTEX
  8
Female_Zip_Tie
 10
0.058377
 20
0.439420
 30
-0.117511
 70
   192
  0
VERTEX
  8
Female_Zip_Tie
 10
0.047720
 20
0.439420
 30
-0.131324
 70
   192
  0
VERTEX
  8
Female_Zip_Tie
 10
0.035072
 20
0.439420
 30
-0.143814
 70
   192
  0
VERTEX
  8
Female_Zip_Tie
 10
0.020650
 20
0.439420
 30
-0.154767
 70
   192
  0
VERTEX
  8
Female_Zip_Tie
 10
0.004700
 20
0.439420
 30
-0.163996
 70
   192
  0
VERTEX
  8
Female_Zip_Tie
 10
-0.012504
 20
0.439420
 30
-0.171344
 70
   192
  0
VERTEX
  8
Female_Zip_Tie
 10
-0.030668
 20
0.439420
 30
-0.176684
 70
   192
  0
VERTEX
  8
Female_Zip_Tie
 10
-0.049482
 20
0.439420
 30
-0.179925
 70
   192
  0
VERTEX
  8
Female_Zip_Tie
 10
-0.152932
 20
0.533400
 30
0.256054
 70
   192
  0
VERTEX
  8
Female_Zip_Tie
 10
-0.165762
 20
0.533400
 30
0.252616
 70
   192
  0
VERTEX
  8
Female_Zip_Tie
 10
-0.177800
 20
0.533400
 30
0.247002
 70
   192
  0
VERTEX
  8
Female_Zip_Tie
 10
-0.188680
 20
0.533400
 30
0.239384
 70
   192
  0
VERTEX
  8
Female_Zip_Tie
 10
-0.198073
 20
0.533400
 30
0.229992
 70
   192
  0
VERTEX
  8
Female_Zip_Tie
 10
-0.205691
 20
0.533400
 30
0.219111
 70
   192
  0
VERTEX
  8
Female_Zip_Tie
 10
-0.211305
 20
0.533400
 30
0.207073
 70
   192
  0
VERTEX
  8
Female_Zip_Tie
 10
-0.214742
 20
0.533400
 30
0.194243
 70
   192
  0
VERTEX
  8
Female_Zip_Tie
 10
-0.214742
 20
0.533400
 30
-0.194243
 70
   192
  0
VERTEX
  8
Female_Zip_Tie
 10
-0.211305
 20
0.533400
 30
-0.207073
 70
   192
  0
VERTEX
  8
Female_Zip_Tie
 10
-0.205691
 20
0.533400
 30
-0.219111
 70
   192
  0
VERTEX
  8
Female_Zip_Tie
 10
-0.198073
 20
0.533400
 30
-0.229992
 70
   192
  0
VERTEX
  8
Female_Zip_Tie
 10
-0.188680
 20
0.533400
 30
-0.239384
 70
   192
  0
VERTEX
  8
Female_Zip_Tie
 10
-0.177800
 20
0.533400
 30
-0.247002
 70
   192
  0
VERTEX
  8
Female_Zip_Tie
 10
-0.165762
 20
0.533400
 30
-0.252616
 70
   192
  0
VERTEX
  8
Female_Zip_Tie
 10
-0.152932
 20
0.533400
 30
-0.256054
 70
   192
  0
VERTEX
  8
Female_Zip_Tie
 10
-0.152932
 20
0.000000
 30
-0.256054
 70
   192
  0
VERTEX
  8
Female_Zip_Tie
 10
-0.165762
 20
0.000000
 30
-0.252616
 70
   192
  0
VERTEX
  8
Female_Zip_Tie
 10
-0.177800
 20
0.000000
 30
-0.247002
 70
   192
  0
VERTEX
  8
Female_Zip_Tie
 10
-0.188680
 20
0.000000
 30
-0.239384
 70
   192
  0
VERTEX
  8
Female_Zip_Tie
 10
-0.198073
 20
0.000000
 30
-0.229992
 70
   192
  0
VERTEX
  8
Female_Zip_Tie
 10
-0.205691
 20
0.000000
 30
-0.219111
 70
   192
  0
VERTEX
  8
Female_Zip_Tie
 10
-0.211305
 20
0.000000
 30
-0.207073
 70
   192
  0
VERTEX
  8
Female_Zip_Tie
 10
-0.214742
 20
0.000000
 30
-0.194243
 70
   192
  0
VERTEX
  8
Female_Zip_Tie
 10
-0.214742
 20
0.000000
 30
0.194243
 70
   192
  0
VERTEX
  8
Female_Zip_Tie
 10
-0.211305
 20
0.000000
 30
0.207073
 70
   192
  0
VERTEX
  8
Female_Zip_Tie
 10
-0.205691
 20
0.000000
 30
0.219111
 70
   192
  0
VERTEX
  8
Female_Zip_Tie
 10
-0.198073
 20
0.000000
 30
0.229992
 70
   192
  0
VERTEX
  8
Female_Zip_Tie
 10
-0.188680
 20
0.000000
 30
0.239384
 70
   192
  0
VERTEX
  8
Female_Zip_Tie
 10
-0.177800
 20
0.000000
 30
0.247002
 70
   192
  0
VERTEX
  8
Female_Zip_Tie
 10
-0.165762
 20
0.000000
 30
0.252616
 70
   192
  0
VERTEX
  8
Female_Zip_Tie
 10
-0.152932
 20
0.000000
 30
0.256054
 70
   192
  0
VERTEX
  8
Female_Zip_Tie
 62
   253
 10
0.0
 20
0.0
 30
0.0
 70
   128
 71
   6
 72
   5
 73
   4
  0
VERTEX
  8
Female_Zip_Tie
 62
   253
 10
0.0
 20
0.0
 30
0.0
 70
   128
 71
   2
 72
   6
 73
   1
  0
VERTEX
  8
Female_Zip_Tie
 62
   253
 10
0.0
 20
0.0
 30
0.0
 70
   128
 71
   6
 72
   4
 73
   3
  0
VERTEX
  8
Female_Zip_Tie
 62
   253
 10
0.0
 20
0.0
 30
0.0
 70
   128
 71
   6
 72
   3
 73
   1
  0
VERTEX
  8
Female_Zip_Tie
 62
   253
 10
0.0
 20
0.0
 30
0.0
 70
   128
 71
   9
 72
   8
 73
   12
  0
VERTEX
  8
Female_Zip_Tie
 62
   253
 10
0.0
 20
0.0
 30
0.0
 70
   128
 71
   9
 72
   12
 73
   10
  0
VERTEX
  8
Female_Zip_Tie
 62
   253
 10
0.0
 20
0.0
 30
0.0
 70
   128
 71
   12
 72
   11
 73
   10
  0
VERTEX
  8
Female_Zip_Tie
 62
   253
 10
0.0
 20
0.0
 30
0.0
 70
   128
 71
   8
 72
   9
 73
   7
  0
VERTEX
  8
Female_Zip_Tie
 62
   253
 10
0.0
 20
0.0
 30
0.0
 70
   128
 71
   6
 72
   17
 73
   20
  0
VERTEX
  8
Female_Zip_Tie
 62
   253
 10
0.0
 20
0.0
 30
0.0
 70
   128
 71
   20
 72
   13
 73
   6
  0
VERTEX
  8
Female_Zip_Tie
 62
   253
 10
0.0
 20
0.0
 30
0.0
 70
   128
 71
   14
 72
   13
 73
   20
  0
VERTEX
  8
Female_Zip_Tie
 62
   253
 10
0.0
 20
0.0
 30
0.0
 70
   128
 71
   9
 72
   15
 73
   7
  0
VERTEX
  8
Female_Zip_Tie
 62
   253
 10
0.0
 20
0.0
 30
0.0
 70
   128
 71
   6
 72
   21
 73
   24
  0
VERTEX
  8
Female_Zip_Tie
 62
   253
 10
0.0
 20
0.0
 30
0.0
 70
   128
 71
   24
 72
   17
 73
   6
  0
VERTEX
  8
Female_Zip_Tie
 62
   253
 10
0.0
 20
0.0
 30
0.0
 70
   128
 71
   18
 72
   17
 73
   24
  0
VERTEX
  8
Female_Zip_Tie
 62
   253
 10
0.0
 20
0.0
 30
0.0
 70
   128
 71
   15
 72
   14
 73
   7
  0
VERTEX
  8
Female_Zip_Tie
 62
   253
 10
0.0
 20
0.0
 30
0.0
 70
   128
 71
   19
 72
   14
 73
   20
  0
VERTEX
  8
Female_Zip_Tie
 62
   253
 10
0.0
 20
0.0
 30
0.0
 70
   128
 71
   14
 72
   19
 73
   7
  0
VERTEX
  8
Female_Zip_Tie
 62
   253
 10
0.0
 20
0.0
 30
0.0
 70
   128
 71
   6
 72
   25
 73
   28
  0
VERTEX
  8
Female_Zip_Tie
 62
   253
 10
0.0
 20
0.0
 30
0.0
 70
   128
 71
   28
 72
   21
 73
   6
  0
VERTEX
  8
Female_Zip_Tie
 62
   253
 10
0.0
 20
0.0
 30
0.0
 70
   128
 71
   22
 72
   21
 73
   28
  0
VERTEX
  8
Female_Zip_Tie
 62
   253
 10
0.0
 20
0.0
 30
0.0
 70
   128
 71
   19
 72
   18
 73
   7
  0
VERTEX
  8
Female_Zip_Tie
 62
   253
 10
0.0
 20
0.0
 30
0.0
 70
   128
 71
   23
 72
   18
 73
   24
  0
VERTEX
  8
Female_Zip_Tie
 62
   253
 10
0.0
 20
0.0
 30
0.0
 70
   128
 71
   18
 72
   23
 73
   7
  0
VERTEX
  8
Female_Zip_Tie
 62
   253
 10
0.0
 20
0.0
 30
0.0
 70
   128
 71
   6
 72
   29
 73
   36
  0
VERTEX
  8
Female_Zip_Tie
 62
   253
 10
0.0
 20
0.0
 30
0.0
 70
   128
 71
   36
 72
   25
 73
   6
  0
VERTEX
  8
Female_Zip_Tie
 62
   253
 10
0.0
 20
0.0
 30
0.0
 70
   128
 71
   26
 72
   25
 73
   36
  0
VERTEX
  8
Female_Zip_Tie
 62
   253
 10
0.0
 20
0.0
 30
0.0
 70
   128
 71
   23
 72
   22
 73
   7
  0
VERTEX
  8
Female_Zip_Tie
 62
   253
 10
0.0
 20
0.0
 30
0.0
 70
   128
 71
   27
 72
   22
 73
   28
  0
VERTEX
  8
Female_Zip_Tie
 62
   253
 10
0.0
 20
0.0
 30
0.0
 70
   128
 71
   22
 72
   27
 73
   7
  0
VERTEX
  8
Female_Zip_Tie
 62
   253
 10
0.0
 20
0.0
 30
0.0
 70
   128
 71
   27
 72
   26
 73
   7
  0
VERTEX
  8
Female_Zip_Tie
 62
   253
 10
0.0
 20
0.0
 30
0.0
 70
   128
 71
   35
 72
   26
 73
   36
  0
VERTEX
  8
Female_Zip_Tie
 62
   253
 10
0.0
 20
0.0
 30
0.0
 70
   128
 71
   26
 72
   35
 73
   7
  0
VERTEX
  8
Female_Zip_Tie
 62
   253
 10
0.0
 20
0.0
 30
0.0
 70
   128
 71
   35
 72
   34
 73
   7
  0
VERTEX
  8
Female_Zip_Tie
 62
   253
 10
0.0
 20
0.0
 30
0.0
 70
   128
 71
   16
 72
   15
 73
   32
  0
VERTEX
  8
Female_Zip_Tie
 62
   253
 10
0.0
 20
0.0
 30
0.0
 70
   128
 71
   15
 72
   9
 73
   32
  0
VERTEX
  8
Female_Zip_Tie
 62
   253
 10
0.0
 20
0.0
 30
0.0
 70
   128
 71
   9
 72
   33
 73
   32
  0
VERTEX
  8
Female_Zip_Tie
 62
   253
 10
0.0
 20
0.0
 30
0.0
 70
   128
 71
   13
 72
   16
 73
   6
  0
VERTEX
  8
Female_Zip_Tie
 62
   253
 10
0.0
 20
0.0
 30
0.0
 70
   128
 71
   31
 72
   16
 73
   32
  0
VERTEX
  8
Female_Zip_Tie
 62
   253
 10
0.0
 20
0.0
 30
0.0
 70
   128
 71
   16
 72
   31
 73
   6
  0
VERTEX
  8
Female_Zip_Tie
 62
   253
 10
0.0
 20
0.0
 30
0.0
 70
   128
 71
   31
 72
   30
 73
   6
  0
VERTEX
  8
Female_Zip_Tie
 62
   253
 10
0.0
 20
0.0
 30
0.0
 70
   128
 71
   29
 72
   6
 73
   2
  0
VERTEX
  8
Female_Zip_Tie
 62
   253
 10
0.0
 20
0.0
 30
0.0
 70
   128
 71
   57
 72
   12
 73
   58
  0
VERTEX
  8
Female_Zip_Tie
 62
   253
 10
0.0
 20
0.0
 30
0.0
 70
   128
 71
   38
 72
   12
 73
   8
  0
VERTEX
  8
Female_Zip_Tie
 62
   253
 10
0.0
 20
0.0
 30
0.0
 70
   128
 71
   43
 72
   3
 73
   44
  0
VERTEX
  8
Female_Zip_Tie
 62
   253
 10
0.0
 20
0.0
 30
0.0
 70
   128
 71
   37
 72
   42
 73
   39
  0
VERTEX
  8
Female_Zip_Tie
 62
   253
 10
0.0
 20
0.0
 30
0.0
 70
   128
 71
   39
 72
   3
 73
   40
  0
VERTEX
  8
Female_Zip_Tie
 62
   253
 10
0.0
 20
0.0
 30
0.0
 70
   128
 71
   39
 72
   44
 73
   3
  0
VERTEX
  8
Female_Zip_Tie
 62
   253
 10
0.0
 20
0.0
 30
0.0
 70
   128
 71
   37
 72
   38
 73
   8
  0
VERTEX
  8
Female_Zip_Tie
 62
   253
 10
0.0
 20
0.0
 30
0.0
 70
   128
 71
   42
 72
   37
 73
   8
  0
VERTEX
  8
Female_Zip_Tie
 62
   253
 10
0.0
 20
0.0
 30
0.0
 70
   128
 71
   47
 72
   3
 73
   48
  0
VERTEX
  8
Female_Zip_Tie
 62
   253
 10
0.0
 20
0.0
 30
0.0
 70
   128
 71
   41
 72
   46
 73
   43
  0
VERTEX
  8
Female_Zip_Tie
 62
   253
 10
0.0
 20
0.0
 30
0.0
 70
   128
 71
   43
 72
   48
 73
   3
  0
VERTEX
  8
Female_Zip_Tie
 62
   253
 10
0.0
 20
0.0
 30
0.0
 70
   128
 71
   39
 72
   42
 73
   44
  0
VERTEX
  8
Female_Zip_Tie
 62
   253
 10
0.0
 20
0.0
 30
0.0
 70
   128
 71
   41
 72
   42
 73
   8
  0
VERTEX
  8
Female_Zip_Tie
 62
   253
 10
0.0
 20
0.0
 30
0.0
 70
   128
 71
   46
 72
   41
 73
   8
  0
VERTEX
  8
Female_Zip_Tie
 62
   253
 10
0.0
 20
0.0
 30
0.0
 70
   128
 71
   51
 72
   3
 73
   52
  0
VERTEX
  8
Female_Zip_Tie
 62
   253
 10
0.0
 20
0.0
 30
0.0
 70
   128
 71
   45
 72
   50
 73
   47
  0
VERTEX
  8
Female_Zip_Tie
 62
   253
 10
0.0
 20
0.0
 30
0.0
 70
   128
 71
   47
 72
   52
 73
   3
  0
VERTEX
  8
Female_Zip_Tie
 62
   253
 10
0.0
 20
0.0
 30
0.0
 70
   128
 71
   43
 72
   46
 73
   48
  0
VERTEX
  8
Female_Zip_Tie
 62
   253
 10
0.0
 20
0.0
 30
0.0
 70
   128
 71
   45
 72
   46
 73
   8
  0
VERTEX
  8
Female_Zip_Tie
 62
   253
 10
0.0
 20
0.0
 30
0.0
 70
   128
 71
   50
 72
   45
 73
   8
  0
VERTEX
  8
Female_Zip_Tie
 62
   253
 10
0.0
 20
0.0
 30
0.0
 70
   128
 71
   47
 72
   50
 73
   52
  0
VERTEX
  8
Female_Zip_Tie
 62
   253
 10
0.0
 20
0.0
 30
0.0
 70
   128
 71
   40
 72
   3
 73
   59
  0
VERTEX
  8
Female_Zip_Tie
 62
   253
 10
0.0
 20
0.0
 30
0.0
 70
   128
 71
   53
 72
   1
 73
   54
  0
VERTEX
  8
Female_Zip_Tie
 62
   253
 10
0.0
 20
0.0
 30
0.0
 70
   128
 71
   3
 72
   51
 73
   1
  0
VERTEX
  8
Female_Zip_Tie
 62
   253
 10
0.0
 20
0.0
 30
0.0
 70
   128
 71
   51
 72
   49
 73
   54
  0
VERTEX
  8
Female_Zip_Tie
 62
   253
 10
0.0
 20
0.0
 30
0.0
 70
   128
 71
   1
 72
   51
 73
   54
  0
VERTEX
  8
Female_Zip_Tie
 62
   253
 10
0.0
 20
0.0
 30
0.0
 70
   128
 71
   49
 72
   50
 73
   8
  0
VERTEX
  8
Female_Zip_Tie
 62
   253
 10
0.0
 20
0.0
 30
0.0
 70
   128
 71
   49
 72
   55
 73
   54
  0
VERTEX
  8
Female_Zip_Tie
 62
   253
 10
0.0
 20
0.0
 30
0.0
 70
   128
 71
   55
 72
   49
 73
   8
  0
VERTEX
  8
Female_Zip_Tie
 62
   253
 10
0.0
 20
0.0
 30
0.0
 70
   128
 71
   56
 72
   55
 73
   8
  0
VERTEX
  8
Female_Zip_Tie
 62
   253
 10
0.0
 20
0.0
 30
0.0
 70
   128
 71
   38
 72
   40
 73
   58
  0
VERTEX
  8
Female_Zip_Tie
 62
   253
 10
0.0
 20
0.0
 30
0.0
 70
   128
 71
   12
 72
   38
 73
   58
  0
VERTEX
  8
Female_Zip_Tie
 62
   253
 10
0.0
 20
0.0
 30
0.0
 70
   128
 71
   59
 72
   3
 73
   60
  0
VERTEX
  8
Female_Zip_Tie
 62
   253
 10
0.0
 20
0.0
 30
0.0
 70
   128
 71
   40
 72
   59
 73
   58
  0
VERTEX
  8
Female_Zip_Tie
 62
   253
 10
0.0
 20
0.0
 30
0.0
 70
   128
 71
   63
 72
   62
 73
   64
  0
VERTEX
  8
Female_Zip_Tie
 62
   253
 10
0.0
 20
0.0
 30
0.0
 70
   128
 71
   62
 72
   63
 73
   61
  0
VERTEX
  8
Female_Zip_Tie
 62
   253
 10
0.0
 20
0.0
 30
0.0
 70
   128
 71
   61
 72
   63
 73
   55
  0
VERTEX
  8
Female_Zip_Tie
 62
   253
 10
0.0
 20
0.0
 30
0.0
 70
   128
 71
   61
 72
   55
 73
   56
  0
VERTEX
  8
Female_Zip_Tie
 62
   253
 10
0.0
 20
0.0
 30
0.0
 70
   128
 71
   54
 72
   64
 73
   62
  0
VERTEX
  8
Female_Zip_Tie
 62
   253
 10
0.0
 20
0.0
 30
0.0
 70
   128
 71
   53
 72
   54
 73
   62
  0
VERTEX
  8
Female_Zip_Tie
 62
   253
 10
0.0
 20
0.0
 30
0.0
 70
   128
 71
   34
 72
   35
 73
   65
  0
VERTEX
  8
Female_Zip_Tie
 62
   253
 10
0.0
 20
0.0
 30
0.0
 70
   128
 71
   35
 72
   66
 73
   65
  0
VERTEX
  8
Female_Zip_Tie
 62
   253
 10
0.0
 20
0.0
 30
0.0
 70
   128
 71
   67
 72
   36
 73
   29
  0
VERTEX
  8
Female_Zip_Tie
 62
   253
 10
0.0
 20
0.0
 30
0.0
 70
   128
 71
   67
 72
   68
 73
   36
  0
VERTEX
  8
Female_Zip_Tie
 62
   253
 10
0.0
 20
0.0
 30
0.0
 70
   128
 71
   65
 72
   66
 73
   68
  0
VERTEX
  8
Female_Zip_Tie
 62
   253
 10
0.0
 20
0.0
 30
0.0
 70
   128
 71
   65
 72
   68
 73
   67
  0
VERTEX
  8
Female_Zip_Tie
 62
   253
 10
0.0
 20
0.0
 30
0.0
 70
   128
 71
   187
 72
   186
 73
   197
  0
VERTEX
  8
Female_Zip_Tie
 62
   253
 10
0.0
 20
0.0
 30
0.0
 70
   128
 71
   69
 72
   70
 73
   192
  0
VERTEX
  8
Female_Zip_Tie
 62
   253
 10
0.0
 20
0.0
 30
0.0
 70
   128
 71
   69
 72
   192
 73
   183
  0
VERTEX
  8
Female_Zip_Tie
 62
   253
 10
0.0
 20
0.0
 30
0.0
 70
   128
 71
   193
 72
   183
 73
   192
  0
VERTEX
  8
Female_Zip_Tie
 62
   253
 10
0.0
 20
0.0
 30
0.0
 70
   128
 71
   183
 72
   193
 73
   184
  0
VERTEX
  8
Female_Zip_Tie
 62
   253
 10
0.0
 20
0.0
 30
0.0
 70
   128
 71
   194
 72
   184
 73
   193
  0
VERTEX
  8
Female_Zip_Tie
 62
   253
 10
0.0
 20
0.0
 30
0.0
 70
   128
 71
   184
 72
   194
 73
   185
  0
VERTEX
  8
Female_Zip_Tie
 62
   253
 10
0.0
 20
0.0
 30
0.0
 70
   128
 71
   195
 72
   185
 73
   194
  0
VERTEX
  8
Female_Zip_Tie
 62
   253
 10
0.0
 20
0.0
 30
0.0
 70
   128
 71
   185
 72
   195
 73
   186
  0
VERTEX
  8
Female_Zip_Tie
 62
   253
 10
0.0
 20
0.0
 30
0.0
 70
   128
 71
   197
 72
   186
 73
   196
  0
VERTEX
  8
Female_Zip_Tie
 62
   253
 10
0.0
 20
0.0
 30
0.0
 70
   128
 71
   196
 72
   186
 73
   195
  0
VERTEX
  8
Female_Zip_Tie
 62
   253
 10
0.0
 20
0.0
 30
0.0
 70
   128
 71
   187
 72
   197
 73
   188
  0
VERTEX
  8
Female_Zip_Tie
 62
   253
 10
0.0
 20
0.0
 30
0.0
 70
   128
 71
   191
 72
   190
 73
   71
  0
VERTEX
  8
Female_Zip_Tie
 62
   253
 10
0.0
 20
0.0
 30
0.0
 70
   128
 71
   198
 72
   188
 73
   197
  0
VERTEX
  8
Female_Zip_Tie
 62
   253
 10
0.0
 20
0.0
 30
0.0
 70
   128
 71
   188
 72
   198
 73
   189
  0
VERTEX
  8
Female_Zip_Tie
 62
   253
 10
0.0
 20
0.0
 30
0.0
 70
   128
 71
   199
 72
   189
 73
   198
  0
VERTEX
  8
Female_Zip_Tie
 62
   253
 10
0.0
 20
0.0
 30
0.0
 70
   128
 71
   189
 72
   199
 73
   190
  0
VERTEX
  8
Female_Zip_Tie
 62
   253
 10
0.0
 20
0.0
 30
0.0
 70
   128
 71
   72
 72
   71
 73
   190
  0
VERTEX
  8
Female_Zip_Tie
 62
   253
 10
0.0
 20
0.0
 30
0.0
 70
   128
 71
   200
 72
   72
 73
   190
  0
VERTEX
  8
Female_Zip_Tie
 62
   253
 10
0.0
 20
0.0
 30
0.0
 70
   128
 71
   200
 72
   190
 73
   199
  0
VERTEX
  8
Female_Zip_Tie
 62
   253
 10
0.0
 20
0.0
 30
0.0
 70
   128
 71
   201
 72
   73
 73
   202
  0
VERTEX
  8
Female_Zip_Tie
 62
   253
 10
0.0
 20
0.0
 30
0.0
 70
   128
 71
   76
 72
   75
 73
   222
  0
VERTEX
  8
Female_Zip_Tie
 62
   253
 10
0.0
 20
0.0
 30
0.0
 70
   128
 71
   73
 72
   74
 73
   202
  0
VERTEX
  8
Female_Zip_Tie
 62
   253
 10
0.0
 20
0.0
 30
0.0
 70
   128
 71
   74
 72
   212
 73
   202
  0
VERTEX
  8
Female_Zip_Tie
 62
   253
 10
0.0
 20
0.0
 30
0.0
 70
   128
 71
   212
 72
   213
 73
   202
  0
VERTEX
  8
Female_Zip_Tie
 62
   253
 10
0.0
 20
0.0
 30
0.0
 70
   128
 71
   202
 72
   213
 73
   203
  0
VERTEX
  8
Female_Zip_Tie
 62
   253
 10
0.0
 20
0.0
 30
0.0
 70
   128
 71
   213
 72
   214
 73
   203
  0
VERTEX
  8
Female_Zip_Tie
 62
   253
 10
0.0
 20
0.0
 30
0.0
 70
   128
 71
   204
 72
   203
 73
   214
  0
VERTEX
  8
Female_Zip_Tie
 62
   253
 10
0.0
 20
0.0
 30
0.0
 70
   128
 71
   205
 72
   204
 73
   214
  0
VERTEX
  8
Female_Zip_Tie
 62
   253
 10
0.0
 20
0.0
 30
0.0
 70
   128
 71
   214
 72
   215
 73
   205
  0
VERTEX
  8
Female_Zip_Tie
 62
   253
 10
0.0
 20
0.0
 30
0.0
 70
   128
 71
   215
 72
   216
 73
   205
  0
VERTEX
  8
Female_Zip_Tie
 62
   253
 10
0.0
 20
0.0
 30
0.0
 70
   128
 71
   206
 72
   205
 73
   216
  0
VERTEX
  8
Female_Zip_Tie
 62
   253
 10
0.0
 20
0.0
 30
0.0
 70
   128
 71
   216
 72
   217
 73
   206
  0
VERTEX
  8
Female_Zip_Tie
 62
   253
 10
0.0
 20
0.0
 30
0.0
 70
   128
 71
   208
 72
   207
 73
   217
  0
VERTEX
  8
Female_Zip_Tie
 62
   253
 10
0.0
 20
0.0
 30
0.0
 70
   128
 71
   207
 72
   206
 73
   217
  0
VERTEX
  8
Female_Zip_Tie
 62
   253
 10
0.0
 20
0.0
 30
0.0
 70
   128
 71
   217
 72
   218
 73
   208
  0
VERTEX
  8
Female_Zip_Tie
 62
   253
 10
0.0
 20
0.0
 30
0.0
 70
   128
 71
   218
 72
   219
 73
   208
  0
VERTEX
  8
Female_Zip_Tie
 62
   253
 10
0.0
 20
0.0
 30
0.0
 70
   128
 71
   209
 72
   208
 73
   219
  0
VERTEX
  8
Female_Zip_Tie
 62
   253
 10
0.0
 20
0.0
 30
0.0
 70
   128
 71
   219
 72
   220
 73
   209
  0
VERTEX
  8
Female_Zip_Tie
 62
   253
 10
0.0
 20
0.0
 30
0.0
 70
   128
 71
   210
 72
   209
 73
   220
  0
VERTEX
  8
Female_Zip_Tie
 62
   253
 10
0.0
 20
0.0
 30
0.0
 70
   128
 71
   211
 72
   210
 73
   220
  0
VERTEX
  8
Female_Zip_Tie
 62
   253
 10
0.0
 20
0.0
 30
0.0
 70
   128
 71
   220
 72
   221
 73
   211
  0
VERTEX
  8
Female_Zip_Tie
 62
   253
 10
0.0
 20
0.0
 30
0.0
 70
   128
 71
   221
 72
   222
 73
   211
  0
VERTEX
  8
Female_Zip_Tie
 62
   253
 10
0.0
 20
0.0
 30
0.0
 70
   128
 71
   75
 72
   211
 73
   222
  0
VERTEX
  8
Female_Zip_Tie
 62
   253
 10
0.0
 20
0.0
 30
0.0
 70
   128
 71
   88
 72
   81
 73
   4
  0
VERTEX
  8
Female_Zip_Tie
 62
   253
 10
0.0
 20
0.0
 30
0.0
 70
   128
 71
   84
 72
   77
 73
   3
  0
VERTEX
  8
Female_Zip_Tie
 62
   253
 10
0.0
 20
0.0
 30
0.0
 70
   128
 71
   89
 72
   80
 73
   79
  0
VERTEX
  8
Female_Zip_Tie
 62
   253
 10
0.0
 20
0.0
 30
0.0
 70
   128
 71
   83
 72
   78
 73
   84
  0
VERTEX
  8
Female_Zip_Tie
 62
   253
 10
0.0
 20
0.0
 30
0.0
 70
   128
 71
   78
 72
   77
 73
   84
  0
VERTEX
  8
Female_Zip_Tie
 62
   253
 10
0.0
 20
0.0
 30
0.0
 70
   128
 71
   4
 72
   81
 73
   84
  0
VERTEX
  8
Female_Zip_Tie
 62
   253
 10
0.0
 20
0.0
 30
0.0
 70
   128
 71
   12
 72
   83
 73
   11
  0
VERTEX
  8
Female_Zip_Tie
 62
   253
 10
0.0
 20
0.0
 30
0.0
 70
   128
 71
   78
 72
   83
 73
   12
  0
VERTEX
  8
Female_Zip_Tie
 62
   253
 10
0.0
 20
0.0
 30
0.0
 70
   128
 71
   87
 72
   82
 73
   88
  0
VERTEX
  8
Female_Zip_Tie
 62
   253
 10
0.0
 20
0.0
 30
0.0
 70
   128
 71
   82
 72
   81
 73
   88
  0
VERTEX
  8
Female_Zip_Tie
 62
   253
 10
0.0
 20
0.0
 30
0.0
 70
   128
 71
   4
 72
   85
 73
   88
  0
VERTEX
  8
Female_Zip_Tie
 62
   253
 10
0.0
 20
0.0
 30
0.0
 70
   128
 71
   83
 72
   82
 73
   11
  0
VERTEX
  8
Female_Zip_Tie
 62
   253
 10
0.0
 20
0.0
 30
0.0
 70
   128
 71
   4
 72
   98
 73
   97
  0
VERTEX
  8
Female_Zip_Tie
 62
   253
 10
0.0
 20
0.0
 30
0.0
 70
   128
 71
   82
 72
   87
 73
   11
  0
VERTEX
  8
Female_Zip_Tie
 62
   253
 10
0.0
 20
0.0
 30
0.0
 70
   128
 71
   77
 72
   80
 73
   3
  0
VERTEX
  8
Female_Zip_Tie
 62
   253
 10
0.0
 20
0.0
 30
0.0
 70
   128
 71
   80
 72
   89
 73
   3
  0
VERTEX
  8
Female_Zip_Tie
 62
   253
 10
0.0
 20
0.0
 30
0.0
 70
   128
 71
   89
 72
   60
 73
   3
  0
VERTEX
  8
Female_Zip_Tie
 62
   253
 10
0.0
 20
0.0
 30
0.0
 70
   128
 71
   86
 72
   85
 73
   97
  0
VERTEX
  8
Female_Zip_Tie
 62
   253
 10
0.0
 20
0.0
 30
0.0
 70
   128
 71
   84
 72
   3
 73
   4
  0
VERTEX
  8
Female_Zip_Tie
 62
   253
 10
0.0
 20
0.0
 30
0.0
 70
   128
 71
   85
 72
   4
 73
   97
  0
VERTEX
  8
Female_Zip_Tie
 62
   253
 10
0.0
 20
0.0
 30
0.0
 70
   128
 71
   97
 72
   96
 73
   95
  0
VERTEX
  8
Female_Zip_Tie
 62
   253
 10
0.0
 20
0.0
 30
0.0
 70
   128
 71
   95
 72
   69
 73
   183
  0
VERTEX
  8
Female_Zip_Tie
 62
   253
 10
0.0
 20
0.0
 30
0.0
 70
   128
 71
   86
 72
   97
 73
   92
  0
VERTEX
  8
Female_Zip_Tie
 62
   253
 10
0.0
 20
0.0
 30
0.0
 70
   128
 71
   95
 72
   183
 73
   184
  0
VERTEX
  8
Female_Zip_Tie
 62
   253
 10
0.0
 20
0.0
 30
0.0
 70
   128
 71
   97
 72
   95
 73
   190
  0
VERTEX
  8
Female_Zip_Tie
 62
   253
 10
0.0
 20
0.0
 30
0.0
 70
   128
 71
   95
 72
   184
 73
   185
  0
VERTEX
  8
Female_Zip_Tie
 62
   253
 10
0.0
 20
0.0
 30
0.0
 70
   128
 71
   95
 72
   185
 73
   186
  0
VERTEX
  8
Female_Zip_Tie
 62
   253
 10
0.0
 20
0.0
 30
0.0
 70
   128
 71
   95
 72
   186
 73
   187
  0
VERTEX
  8
Female_Zip_Tie
 62
   253
 10
0.0
 20
0.0
 30
0.0
 70
   128
 71
   95
 72
   187
 73
   188
  0
VERTEX
  8
Female_Zip_Tie
 62
   253
 10
0.0
 20
0.0
 30
0.0
 70
   128
 71
   95
 72
   188
 73
   189
  0
VERTEX
  8
Female_Zip_Tie
 62
   253
 10
0.0
 20
0.0
 30
0.0
 70
   128
 71
   95
 72
   189
 73
   190
  0
VERTEX
  8
Female_Zip_Tie
 62
   253
 10
0.0
 20
0.0
 30
0.0
 70
   128
 71
   97
 72
   190
 73
   191
  0
VERTEX
  8
Female_Zip_Tie
 62
   253
 10
0.0
 20
0.0
 30
0.0
 70
   128
 71
   97
 72
   191
 73
   71
  0
VERTEX
  8
Female_Zip_Tie
 62
   253
 10
0.0
 20
0.0
 30
0.0
 70
   128
 71
   97
 72
   71
 73
   73
  0
VERTEX
  8
Female_Zip_Tie
 62
   253
 10
0.0
 20
0.0
 30
0.0
 70
   128
 71
   97
 72
   73
 73
   92
  0
VERTEX
  8
Female_Zip_Tie
 62
   253
 10
0.0
 20
0.0
 30
0.0
 70
   128
 71
   73
 72
   201
 73
   92
  0
VERTEX
  8
Female_Zip_Tie
 62
   253
 10
0.0
 20
0.0
 30
0.0
 70
   128
 71
   201
 72
   202
 73
   92
  0
VERTEX
  8
Female_Zip_Tie
 62
   253
 10
0.0
 20
0.0
 30
0.0
 70
   128
 71
   202
 72
   203
 73
   94
  0
VERTEX
  8
Female_Zip_Tie
 62
   253
 10
0.0
 20
0.0
 30
0.0
 70
   128
 71
   203
 72
   204
 73
   94
  0
VERTEX
  8
Female_Zip_Tie
 62
   253
 10
0.0
 20
0.0
 30
0.0
 70
   128
 71
   204
 72
   205
 73
   94
  0
VERTEX
  8
Female_Zip_Tie
 62
   253
 10
0.0
 20
0.0
 30
0.0
 70
   128
 71
   205
 72
   206
 73
   94
  0
VERTEX
  8
Female_Zip_Tie
 62
   253
 10
0.0
 20
0.0
 30
0.0
 70
   128
 71
   206
 72
   207
 73
   94
  0
VERTEX
  8
Female_Zip_Tie
 62
   253
 10
0.0
 20
0.0
 30
0.0
 70
   128
 71
   94
 72
   208
 73
   209
  0
VERTEX
  8
Female_Zip_Tie
 62
   253
 10
0.0
 20
0.0
 30
0.0
 70
   128
 71
   94
 72
   209
 73
   210
  0
VERTEX
  8
Female_Zip_Tie
 62
   253
 10
0.0
 20
0.0
 30
0.0
 70
   128
 71
   94
 72
   210
 73
   211
  0
VERTEX
  8
Female_Zip_Tie
 62
   253
 10
0.0
 20
0.0
 30
0.0
 70
   128
 71
   207
 72
   208
 73
   94
  0
VERTEX
  8
Female_Zip_Tie
 62
   253
 10
0.0
 20
0.0
 30
0.0
 70
   128
 71
   94
 72
   211
 73
   75
  0
VERTEX
  8
Female_Zip_Tie
 62
   253
 10
0.0
 20
0.0
 30
0.0
 70
   128
 71
   202
 72
   94
 73
   92
  0
VERTEX
  8
Female_Zip_Tie
 62
   253
 10
0.0
 20
0.0
 30
0.0
 70
   128
 71
   94
 72
   93
 73
   92
  0
VERTEX
  8
Female_Zip_Tie
 62
   253
 10
0.0
 20
0.0
 30
0.0
 70
   128
 71
   87
 72
   86
 73
   11
  0
VERTEX
  8
Female_Zip_Tie
 62
   253
 10
0.0
 20
0.0
 30
0.0
 70
   128
 71
   86
 72
   92
 73
   11
  0
VERTEX
  8
Female_Zip_Tie
 62
   253
 10
0.0
 20
0.0
 30
0.0
 70
   128
 71
   79
 72
   78
 73
   12
  0
VERTEX
  8
Female_Zip_Tie
 62
   253
 10
0.0
 20
0.0
 30
0.0
 70
   128
 71
   92
 72
   91
 73
   11
  0
VERTEX
  8
Female_Zip_Tie
 62
   253
 10
0.0
 20
0.0
 30
0.0
 70
   128
 71
   12
 72
   57
 73
   90
  0
VERTEX
  8
Female_Zip_Tie
 62
   253
 10
0.0
 20
0.0
 30
0.0
 70
   128
 71
   89
 72
   79
 73
   90
  0
VERTEX
  8
Female_Zip_Tie
 62
   253
 10
0.0
 20
0.0
 30
0.0
 70
   128
 71
   79
 72
   12
 73
   90
  0
VERTEX
  8
Female_Zip_Tie
 62
   253
 10
0.0
 20
0.0
 30
0.0
 70
   128
 71
   99
 72
   100
 73
   92
  0
VERTEX
  8
Female_Zip_Tie
 62
   253
 10
0.0
 20
0.0
 30
0.0
 70
   128
 71
   100
 72
   91
 73
   92
  0
VERTEX
  8
Female_Zip_Tie
 62
   253
 10
0.0
 20
0.0
 30
0.0
 70
   128
 71
   97
 72
   98
 73
   102
  0
VERTEX
  8
Female_Zip_Tie
 62
   253
 10
0.0
 20
0.0
 30
0.0
 70
   128
 71
   97
 72
   102
 73
   101
  0
VERTEX
  8
Female_Zip_Tie
 62
   253
 10
0.0
 20
0.0
 30
0.0
 70
   128
 71
   100
 72
   103
 73
   104
  0
VERTEX
  8
Female_Zip_Tie
 62
   253
 10
0.0
 20
0.0
 30
0.0
 70
   128
 71
   103
 72
   238
 73
   104
  0
VERTEX
  8
Female_Zip_Tie
 62
   253
 10
0.0
 20
0.0
 30
0.0
 70
   128
 71
   238
 72
   237
 73
   104
  0
VERTEX
  8
Female_Zip_Tie
 62
   253
 10
0.0
 20
0.0
 30
0.0
 70
   128
 71
   237
 72
   236
 73
   104
  0
VERTEX
  8
Female_Zip_Tie
 62
   253
 10
0.0
 20
0.0
 30
0.0
 70
   128
 71
   236
 72
   235
 73
   104
  0
VERTEX
  8
Female_Zip_Tie
 62
   253
 10
0.0
 20
0.0
 30
0.0
 70
   128
 71
   235
 72
   234
 73
   104
  0
VERTEX
  8
Female_Zip_Tie
 62
   253
 10
0.0
 20
0.0
 30
0.0
 70
   128
 71
   234
 72
   233
 73
   104
  0
VERTEX
  8
Female_Zip_Tie
 62
   253
 10
0.0
 20
0.0
 30
0.0
 70
   128
 71
   233
 72
   232
 73
   104
  0
VERTEX
  8
Female_Zip_Tie
 62
   253
 10
0.0
 20
0.0
 30
0.0
 70
   128
 71
   104
 72
   231
 73
   108
  0
VERTEX
  8
Female_Zip_Tie
 62
   253
 10
0.0
 20
0.0
 30
0.0
 70
   128
 71
   104
 72
   108
 73
   105
  0
VERTEX
  8
Female_Zip_Tie
 62
   253
 10
0.0
 20
0.0
 30
0.0
 70
   128
 71
   108
 72
   107
 73
   105
  0
VERTEX
  8
Female_Zip_Tie
 62
   253
 10
0.0
 20
0.0
 30
0.0
 70
   128
 71
   107
 72
   230
 73
   105
  0
VERTEX
  8
Female_Zip_Tie
 62
   253
 10
0.0
 20
0.0
 30
0.0
 70
   128
 71
   230
 72
   229
 73
   105
  0
VERTEX
  8
Female_Zip_Tie
 62
   253
 10
0.0
 20
0.0
 30
0.0
 70
   128
 71
   105
 72
   227
 73
   226
  0
VERTEX
  8
Female_Zip_Tie
 62
   253
 10
0.0
 20
0.0
 30
0.0
 70
   128
 71
   105
 72
   226
 73
   225
  0
VERTEX
  8
Female_Zip_Tie
 62
   253
 10
0.0
 20
0.0
 30
0.0
 70
   128
 71
   105
 72
   225
 73
   224
  0
VERTEX
  8
Female_Zip_Tie
 62
   253
 10
0.0
 20
0.0
 30
0.0
 70
   128
 71
   105
 72
   224
 73
   223
  0
VERTEX
  8
Female_Zip_Tie
 62
   253
 10
0.0
 20
0.0
 30
0.0
 70
   128
 71
   105
 72
   223
 73
   106
  0
VERTEX
  8
Female_Zip_Tie
 62
   253
 10
0.0
 20
0.0
 30
0.0
 70
   128
 71
   105
 72
   106
 73
   102
  0
VERTEX
  8
Female_Zip_Tie
 62
   253
 10
0.0
 20
0.0
 30
0.0
 70
   128
 71
   106
 72
   101
 73
   102
  0
VERTEX
  8
Female_Zip_Tie
 62
   253
 10
0.0
 20
0.0
 30
0.0
 70
   128
 71
   229
 72
   228
 73
   105
  0
VERTEX
  8
Female_Zip_Tie
 62
   253
 10
0.0
 20
0.0
 30
0.0
 70
   128
 71
   228
 72
   227
 73
   105
  0
VERTEX
  8
Female_Zip_Tie
 62
   253
 10
0.0
 20
0.0
 30
0.0
 70
   128
 71
   232
 72
   231
 73
   104
  0
VERTEX
  8
Female_Zip_Tie
 62
   253
 10
0.0
 20
0.0
 30
0.0
 70
   128
 71
   103
 72
   100
 73
   99
  0
VERTEX
  8
Female_Zip_Tie
 62
   253
 10
0.0
 20
0.0
 30
0.0
 70
   128
 71
   100
 72
   109
 73
   91
  0
VERTEX
  8
Female_Zip_Tie
 62
   253
 10
0.0
 20
0.0
 30
0.0
 70
   128
 71
   109
 72
   100
 73
   104
  0
VERTEX
  8
Female_Zip_Tie
 62
   253
 10
0.0
 20
0.0
 30
0.0
 70
   128
 71
   98
 72
   110
 73
   102
  0
VERTEX
  8
Female_Zip_Tie
 62
   253
 10
0.0
 20
0.0
 30
0.0
 70
   128
 71
   102
 72
   110
 73
   105
  0
VERTEX
  8
Female_Zip_Tie
 62
   253
 10
0.0
 20
0.0
 30
0.0
 70
   128
 71
   104
 72
   105
 73
   110
  0
VERTEX
  8
Female_Zip_Tie
 62
   253
 10
0.0
 20
0.0
 30
0.0
 70
   128
 71
   104
 72
   110
 73
   109
  0
VERTEX
  8
Female_Zip_Tie
 62
   253
 10
0.0
 20
0.0
 30
0.0
 70
   128
 71
   109
 72
   110
 73
   112
  0
VERTEX
  8
Female_Zip_Tie
 62
   253
 10
0.0
 20
0.0
 30
0.0
 70
   128
 71
   109
 72
   112
 73
   111
  0
VERTEX
  8
Female_Zip_Tie
 62
   253
 10
0.0
 20
0.0
 30
0.0
 70
   128
 71
   9
 72
   117
 73
   115
  0
VERTEX
  8
Female_Zip_Tie
 62
   253
 10
0.0
 20
0.0
 30
0.0
 70
   128
 71
   118
 72
   116
 73
   115
  0
VERTEX
  8
Female_Zip_Tie
 62
   253
 10
0.0
 20
0.0
 30
0.0
 70
   128
 71
   9
 72
   115
 73
   113
  0
VERTEX
  8
Female_Zip_Tie
 62
   253
 10
0.0
 20
0.0
 30
0.0
 70
   128
 71
   118
 72
   115
 73
   117
  0
VERTEX
  8
Female_Zip_Tie
 62
   253
 10
0.0
 20
0.0
 30
0.0
 70
   128
 71
   6
 72
   118
 73
   5
  0
VERTEX
  8
Female_Zip_Tie
 62
   253
 10
0.0
 20
0.0
 30
0.0
 70
   128
 71
   116
 72
   118
 73
   6
  0
VERTEX
  8
Female_Zip_Tie
 62
   253
 10
0.0
 20
0.0
 30
0.0
 70
   128
 71
   122
 72
   120
 73
   119
  0
VERTEX
  8
Female_Zip_Tie
 62
   253
 10
0.0
 20
0.0
 30
0.0
 70
   128
 71
   121
 72
   119
 73
   10
  0
VERTEX
  8
Female_Zip_Tie
 62
   253
 10
0.0
 20
0.0
 30
0.0
 70
   128
 71
   122
 72
   119
 73
   121
  0
VERTEX
  8
Female_Zip_Tie
 62
   253
 10
0.0
 20
0.0
 30
0.0
 70
   128
 71
   118
 72
   120
 73
   5
  0
VERTEX
  8
Female_Zip_Tie
 62
   253
 10
0.0
 20
0.0
 30
0.0
 70
   128
 71
   120
 72
   122
 73
   5
  0
VERTEX
  8
Female_Zip_Tie
 62
   253
 10
0.0
 20
0.0
 30
0.0
 70
   128
 71
   10
 72
   123
 73
   121
  0
VERTEX
  8
Female_Zip_Tie
 62
   253
 10
0.0
 20
0.0
 30
0.0
 70
   128
 71
   133
 72
   124
 73
   123
  0
VERTEX
  8
Female_Zip_Tie
 62
   253
 10
0.0
 20
0.0
 30
0.0
 70
   128
 71
   125
 72
   134
 73
   133
  0
VERTEX
  8
Female_Zip_Tie
 62
   253
 10
0.0
 20
0.0
 30
0.0
 70
   128
 71
   124
 72
   133
 73
   137
  0
VERTEX
  8
Female_Zip_Tie
 62
   253
 10
0.0
 20
0.0
 30
0.0
 70
   128
 71
   137
 72
   131
 73
   112
  0
VERTEX
  8
Female_Zip_Tie
 62
   253
 10
0.0
 20
0.0
 30
0.0
 70
   128
 71
   132
 72
   131
 73
   137
  0
VERTEX
  8
Female_Zip_Tie
 62
   253
 10
0.0
 20
0.0
 30
0.0
 70
   128
 71
   131
 72
   254
 73
   112
  0
VERTEX
  8
Female_Zip_Tie
 62
   253
 10
0.0
 20
0.0
 30
0.0
 70
   128
 71
   254
 72
   253
 73
   112
  0
VERTEX
  8
Female_Zip_Tie
 62
   253
 10
0.0
 20
0.0
 30
0.0
 70
   128
 71
   253
 72
   252
 73
   112
  0
VERTEX
  8
Female_Zip_Tie
 62
   253
 10
0.0
 20
0.0
 30
0.0
 70
   128
 71
   252
 72
   251
 73
   112
  0
VERTEX
  8
Female_Zip_Tie
 62
   253
 10
0.0
 20
0.0
 30
0.0
 70
   128
 71
   251
 72
   250
 73
   112
  0
VERTEX
  8
Female_Zip_Tie
 62
   253
 10
0.0
 20
0.0
 30
0.0
 70
   128
 71
   250
 72
   249
 73
   112
  0
VERTEX
  8
Female_Zip_Tie
 62
   253
 10
0.0
 20
0.0
 30
0.0
 70
   128
 71
   112
 72
   248
 73
   247
  0
VERTEX
  8
Female_Zip_Tie
 62
   253
 10
0.0
 20
0.0
 30
0.0
 70
   128
 71
   112
 72
   247
 73
   130
  0
VERTEX
  8
Female_Zip_Tie
 62
   253
 10
0.0
 20
0.0
 30
0.0
 70
   128
 71
   112
 72
   130
 73
   111
  0
VERTEX
  8
Female_Zip_Tie
 62
   253
 10
0.0
 20
0.0
 30
0.0
 70
   128
 71
   130
 72
   129
 73
   111
  0
VERTEX
  8
Female_Zip_Tie
 62
   253
 10
0.0
 20
0.0
 30
0.0
 70
   128
 71
   129
 72
   246
 73
   111
  0
VERTEX
  8
Female_Zip_Tie
 62
   253
 10
0.0
 20
0.0
 30
0.0
 70
   128
 71
   111
 72
   244
 73
   243
  0
VERTEX
  8
Female_Zip_Tie
 62
   253
 10
0.0
 20
0.0
 30
0.0
 70
   128
 71
   111
 72
   243
 73
   242
  0
VERTEX
  8
Female_Zip_Tie
 62
   253
 10
0.0
 20
0.0
 30
0.0
 70
   128
 71
   111
 72
   242
 73
   241
  0
VERTEX
  8
Female_Zip_Tie
 62
   253
 10
0.0
 20
0.0
 30
0.0
 70
   128
 71
   111
 72
   241
 73
   240
  0
VERTEX
  8
Female_Zip_Tie
 62
   253
 10
0.0
 20
0.0
 30
0.0
 70
   128
 71
   111
 72
   240
 73
   239
  0
VERTEX
  8
Female_Zip_Tie
 62
   253
 10
0.0
 20
0.0
 30
0.0
 70
   128
 71
   138
 72
   127
 73
   126
  0
VERTEX
  8
Female_Zip_Tie
 62
   253
 10
0.0
 20
0.0
 30
0.0
 70
   128
 71
   111
 72
   239
 73
   128
  0
VERTEX
  8
Female_Zip_Tie
 62
   253
 10
0.0
 20
0.0
 30
0.0
 70
   128
 71
   111
 72
   128
 73
   138
  0
VERTEX
  8
Female_Zip_Tie
 62
   253
 10
0.0
 20
0.0
 30
0.0
 70
   128
 71
   125
 72
   133
 73
   126
  0
VERTEX
  8
Female_Zip_Tie
 62
   253
 10
0.0
 20
0.0
 30
0.0
 70
   128
 71
   133
 72
   123
 73
   126
  0
VERTEX
  8
Female_Zip_Tie
 62
   253
 10
0.0
 20
0.0
 30
0.0
 70
   128
 71
   119
 72
   117
 73
   10
  0
VERTEX
  8
Female_Zip_Tie
 62
   253
 10
0.0
 20
0.0
 30
0.0
 70
   128
 71
   126
 72
   123
 73
   138
  0
VERTEX
  8
Female_Zip_Tie
 62
   253
 10
0.0
 20
0.0
 30
0.0
 70
   128
 71
   117
 72
   9
 73
   10
  0
VERTEX
  8
Female_Zip_Tie
 62
   253
 10
0.0
 20
0.0
 30
0.0
 70
   128
 71
   128
 72
   127
 73
   138
  0
VERTEX
  8
Female_Zip_Tie
 62
   253
 10
0.0
 20
0.0
 30
0.0
 70
   128
 71
   123
 72
   10
 73
   138
  0
VERTEX
  8
Female_Zip_Tie
 62
   253
 10
0.0
 20
0.0
 30
0.0
 70
   128
 71
   246
 72
   245
 73
   111
  0
VERTEX
  8
Female_Zip_Tie
 62
   253
 10
0.0
 20
0.0
 30
0.0
 70
   128
 71
   245
 72
   244
 73
   111
  0
VERTEX
  8
Female_Zip_Tie
 62
   253
 10
0.0
 20
0.0
 30
0.0
 70
   128
 71
   249
 72
   248
 73
   112
  0
VERTEX
  8
Female_Zip_Tie
 62
   253
 10
0.0
 20
0.0
 30
0.0
 70
   128
 71
   122
 72
   124
 73
   5
  0
VERTEX
  8
Female_Zip_Tie
 62
   253
 10
0.0
 20
0.0
 30
0.0
 70
   128
 71
   133
 72
   132
 73
   137
  0
VERTEX
  8
Female_Zip_Tie
 62
   253
 10
0.0
 20
0.0
 30
0.0
 70
   128
 71
   114
 72
   116
 73
   6
  0
VERTEX
  8
Female_Zip_Tie
 62
   253
 10
0.0
 20
0.0
 30
0.0
 70
   128
 71
   124
 72
   137
 73
   5
  0
VERTEX
  8
Female_Zip_Tie
 62
   253
 10
0.0
 20
0.0
 30
0.0
 70
   128
 71
   6
 72
   30
 73
   136
  0
VERTEX
  8
Female_Zip_Tie
 62
   253
 10
0.0
 20
0.0
 30
0.0
 70
   128
 71
   135
 72
   113
 73
   136
  0
VERTEX
  8
Female_Zip_Tie
 62
   253
 10
0.0
 20
0.0
 30
0.0
 70
   128
 71
   113
 72
   114
 73
   136
  0
VERTEX
  8
Female_Zip_Tie
 62
   253
 10
0.0
 20
0.0
 30
0.0
 70
   128
 71
   114
 72
   6
 73
   136
  0
VERTEX
  8
Female_Zip_Tie
 62
   253
 10
0.0
 20
0.0
 30
0.0
 70
   128
 71
   9
 72
   113
 73
   135
  0
VERTEX
  8
Female_Zip_Tie
 62
   253
 10
0.0
 20
0.0
 30
0.0
 70
   128
 71
   9
 72
   135
 73
   33
  0
VERTEX
  8
Female_Zip_Tie
 62
   253
 10
0.0
 20
0.0
 30
0.0
 70
   128
 71
   112
 72
   110
 73
   98
  0
VERTEX
  8
Female_Zip_Tie
 62
   253
 10
0.0
 20
0.0
 30
0.0
 70
   128
 71
   112
 72
   98
 73
   137
  0
VERTEX
  8
Female_Zip_Tie
 62
   253
 10
0.0
 20
0.0
 30
0.0
 70
   128
 71
   138
 72
   91
 73
   111
  0
VERTEX
  8
Female_Zip_Tie
 62
   253
 10
0.0
 20
0.0
 30
0.0
 70
   128
 71
   111
 72
   91
 73
   109
  0
VERTEX
  8
Female_Zip_Tie
 62
   253
 10
0.0
 20
0.0
 30
0.0
 70
   128
 71
   127
 72
   128
 73
   93
  0
VERTEX
  8
Female_Zip_Tie
 62
   253
 10
0.0
 20
0.0
 30
0.0
 70
   128
 71
   128
 72
   103
 73
   93
  0
VERTEX
  8
Female_Zip_Tie
 62
   253
 10
0.0
 20
0.0
 30
0.0
 70
   128
 71
   103
 72
   99
 73
   93
  0
VERTEX
  8
Female_Zip_Tie
 62
   253
 10
0.0
 20
0.0
 30
0.0
 70
   128
 71
   93
 72
   99
 73
   92
  0
VERTEX
  8
Female_Zip_Tie
 62
   253
 10
0.0
 20
0.0
 30
0.0
 70
   128
 71
   131
 72
   132
 73
   96
  0
VERTEX
  8
Female_Zip_Tie
 62
   253
 10
0.0
 20
0.0
 30
0.0
 70
   128
 71
   101
 72
   106
 73
   96
  0
VERTEX
  8
Female_Zip_Tie
 62
   253
 10
0.0
 20
0.0
 30
0.0
 70
   128
 71
   106
 72
   131
 73
   96
  0
VERTEX
  8
Female_Zip_Tie
 62
   253
 10
0.0
 20
0.0
 30
0.0
 70
   128
 71
   97
 72
   101
 73
   96
  0
VERTEX
  8
Female_Zip_Tie
 62
   253
 10
0.0
 20
0.0
 30
0.0
 70
   128
 71
   107
 72
   108
 73
   130
  0
VERTEX
  8
Female_Zip_Tie
 62
   253
 10
0.0
 20
0.0
 30
0.0
 70
   128
 71
   130
 72
   108
 73
   129
  0
VERTEX
  8
Female_Zip_Tie
 62
   253
 10
0.0
 20
0.0
 30
0.0
 70
   128
 71
   127
 72
   93
 73
   94
  0
VERTEX
  8
Female_Zip_Tie
 62
   253
 10
0.0
 20
0.0
 30
0.0
 70
   128
 71
   127
 72
   94
 73
   126
  0
VERTEX
  8
Female_Zip_Tie
 62
   253
 10
0.0
 20
0.0
 30
0.0
 70
   128
 71
   125
 72
   126
 73
   75
  0
VERTEX
  8
Female_Zip_Tie
 62
   253
 10
0.0
 20
0.0
 30
0.0
 70
   128
 71
   126
 72
   94
 73
   75
  0
VERTEX
  8
Female_Zip_Tie
 62
   253
 10
0.0
 20
0.0
 30
0.0
 70
   128
 71
   125
 72
   75
 73
   76
  0
VERTEX
  8
Female_Zip_Tie
 62
   253
 10
0.0
 20
0.0
 30
0.0
 70
   128
 71
   125
 72
   76
 73
   139
  0
VERTEX
  8
Female_Zip_Tie
 62
   253
 10
0.0
 20
0.0
 30
0.0
 70
   128
 71
   134
 72
   125
 73
   139
  0
VERTEX
  8
Female_Zip_Tie
 62
   253
 10
0.0
 20
0.0
 30
0.0
 70
   128
 71
   134
 72
   139
 73
   140
  0
VERTEX
  8
Female_Zip_Tie
 62
   253
 10
0.0
 20
0.0
 30
0.0
 70
   128
 71
   134
 72
   140
 73
   70
  0
VERTEX
  8
Female_Zip_Tie
 62
   253
 10
0.0
 20
0.0
 30
0.0
 70
   128
 71
   134
 72
   70
 73
   69
  0
VERTEX
  8
Female_Zip_Tie
 62
   253
 10
0.0
 20
0.0
 30
0.0
 70
   128
 71
   134
 72
   69
 73
   133
  0
VERTEX
  8
Female_Zip_Tie
 62
   253
 10
0.0
 20
0.0
 30
0.0
 70
   128
 71
   69
 72
   95
 73
   133
  0
VERTEX
  8
Female_Zip_Tie
 62
   253
 10
0.0
 20
0.0
 30
0.0
 70
   128
 71
   95
 72
   96
 73
   133
  0
VERTEX
  8
Female_Zip_Tie
 62
   253
 10
0.0
 20
0.0
 30
0.0
 70
   128
 71
   96
 72
   132
 73
   133
  0
VERTEX
  8
Female_Zip_Tie
 62
   253
 10
0.0
 20
0.0
 30
0.0
 70
   128
 71
   72
 72
   74
 73
   71
  0
VERTEX
  8
Female_Zip_Tie
 62
   253
 10
0.0
 20
0.0
 30
0.0
 70
   128
 71
   71
 72
   74
 73
   73
  0
VERTEX
  8
Female_Zip_Tie
 62
   253
 10
0.0
 20
0.0
 30
0.0
 70
   128
 71
   140
 72
   139
 73
   76
  0
VERTEX
  8
Female_Zip_Tie
 62
   253
 10
0.0
 20
0.0
 30
0.0
 70
   128
 71
   140
 72
   76
 73
   70
  0
VERTEX
  8
Female_Zip_Tie
 62
   253
 10
0.0
 20
0.0
 30
0.0
 70
   128
 71
   76
 72
   222
 73
   74
  0
VERTEX
  8
Female_Zip_Tie
 62
   253
 10
0.0
 20
0.0
 30
0.0
 70
   128
 71
   222
 72
   221
 73
   74
  0
VERTEX
  8
Female_Zip_Tie
 62
   253
 10
0.0
 20
0.0
 30
0.0
 70
   128
 71
   221
 72
   220
 73
   74
  0
VERTEX
  8
Female_Zip_Tie
 62
   253
 10
0.0
 20
0.0
 30
0.0
 70
   128
 71
   220
 72
   219
 73
   74
  0
VERTEX
  8
Female_Zip_Tie
 62
   253
 10
0.0
 20
0.0
 30
0.0
 70
   128
 71
   219
 72
   218
 73
   74
  0
VERTEX
  8
Female_Zip_Tie
 62
   253
 10
0.0
 20
0.0
 30
0.0
 70
   128
 71
   218
 72
   217
 73
   74
  0
VERTEX
  8
Female_Zip_Tie
 62
   253
 10
0.0
 20
0.0
 30
0.0
 70
   128
 71
   217
 72
   216
 73
   74
  0
VERTEX
  8
Female_Zip_Tie
 62
   253
 10
0.0
 20
0.0
 30
0.0
 70
   128
 71
   216
 72
   215
 73
   213
  0
VERTEX
  8
Female_Zip_Tie
 62
   253
 10
0.0
 20
0.0
 30
0.0
 70
   128
 71
   215
 72
   214
 73
   213
  0
VERTEX
  8
Female_Zip_Tie
 62
   253
 10
0.0
 20
0.0
 30
0.0
 70
   128
 71
   216
 72
   213
 73
   212
  0
VERTEX
  8
Female_Zip_Tie
 62
   253
 10
0.0
 20
0.0
 30
0.0
 70
   128
 71
   216
 72
   212
 73
   74
  0
VERTEX
  8
Female_Zip_Tie
 62
   253
 10
0.0
 20
0.0
 30
0.0
 70
   128
 71
   76
 72
   74
 73
   72
  0
VERTEX
  8
Female_Zip_Tie
 62
   253
 10
0.0
 20
0.0
 30
0.0
 70
   128
 71
   76
 72
   72
 73
   70
  0
VERTEX
  8
Female_Zip_Tie
 62
   253
 10
0.0
 20
0.0
 30
0.0
 70
   128
 71
   72
 72
   200
 73
   199
  0
VERTEX
  8
Female_Zip_Tie
 62
   253
 10
0.0
 20
0.0
 30
0.0
 70
   128
 71
   72
 72
   199
 73
   198
  0
VERTEX
  8
Female_Zip_Tie
 62
   253
 10
0.0
 20
0.0
 30
0.0
 70
   128
 71
   72
 72
   198
 73
   197
  0
VERTEX
  8
Female_Zip_Tie
 62
   253
 10
0.0
 20
0.0
 30
0.0
 70
   128
 71
   72
 72
   197
 73
   196
  0
VERTEX
  8
Female_Zip_Tie
 62
   253
 10
0.0
 20
0.0
 30
0.0
 70
   128
 71
   72
 72
   196
 73
   195
  0
VERTEX
  8
Female_Zip_Tie
 62
   253
 10
0.0
 20
0.0
 30
0.0
 70
   128
 71
   72
 72
   195
 73
   194
  0
VERTEX
  8
Female_Zip_Tie
 62
   253
 10
0.0
 20
0.0
 30
0.0
 70
   128
 71
   72
 72
   194
 73
   193
  0
VERTEX
  8
Female_Zip_Tie
 62
   253
 10
0.0
 20
0.0
 30
0.0
 70
   128
 71
   72
 72
   193
 73
   192
  0
VERTEX
  8
Female_Zip_Tie
 62
   253
 10
0.0
 20
0.0
 30
0.0
 70
   128
 71
   72
 72
   192
 73
   70
  0
VERTEX
  8
Female_Zip_Tie
 62
   253
 10
0.0
 20
0.0
 30
0.0
 70
   128
 71
   107
 72
   130
 73
   247
  0
VERTEX
  8
Female_Zip_Tie
 62
   253
 10
0.0
 20
0.0
 30
0.0
 70
   128
 71
   247
 72
   229
 73
   230
  0
VERTEX
  8
Female_Zip_Tie
 62
   253
 10
0.0
 20
0.0
 30
0.0
 70
   128
 71
   249
 72
   227
 73
   228
  0
VERTEX
  8
Female_Zip_Tie
 62
   253
 10
0.0
 20
0.0
 30
0.0
 70
   128
 71
   251
 72
   225
 73
   226
  0
VERTEX
  8
Female_Zip_Tie
 62
   253
 10
0.0
 20
0.0
 30
0.0
 70
   128
 71
   253
 72
   223
 73
   224
  0
VERTEX
  8
Female_Zip_Tie
 62
   253
 10
0.0
 20
0.0
 30
0.0
 70
   128
 71
   254
 72
   106
 73
   223
  0
VERTEX
  8
Female_Zip_Tie
 62
   253
 10
0.0
 20
0.0
 30
0.0
 70
   128
 71
   251
 72
   252
 73
   225
  0
VERTEX
  8
Female_Zip_Tie
 62
   253
 10
0.0
 20
0.0
 30
0.0
 70
   128
 71
   252
 72
   253
 73
   224
  0
VERTEX
  8
Female_Zip_Tie
 62
   253
 10
0.0
 20
0.0
 30
0.0
 70
   128
 71
   106
 72
   254
 73
   131
  0
VERTEX
  8
Female_Zip_Tie
 62
   253
 10
0.0
 20
0.0
 30
0.0
 70
   128
 71
   253
 72
   254
 73
   223
  0
VERTEX
  8
Female_Zip_Tie
 62
   253
 10
0.0
 20
0.0
 30
0.0
 70
   128
 71
   252
 72
   224
 73
   225
  0
VERTEX
  8
Female_Zip_Tie
 62
   253
 10
0.0
 20
0.0
 30
0.0
 70
   128
 71
   249
 72
   250
 73
   227
  0
VERTEX
  8
Female_Zip_Tie
 62
   253
 10
0.0
 20
0.0
 30
0.0
 70
   128
 71
   248
 72
   249
 73
   228
  0
VERTEX
  8
Female_Zip_Tie
 62
   253
 10
0.0
 20
0.0
 30
0.0
 70
   128
 71
   248
 72
   228
 73
   229
  0
VERTEX
  8
Female_Zip_Tie
 62
   253
 10
0.0
 20
0.0
 30
0.0
 70
   128
 71
   247
 72
   248
 73
   229
  0
VERTEX
  8
Female_Zip_Tie
 62
   253
 10
0.0
 20
0.0
 30
0.0
 70
   128
 71
   107
 72
   247
 73
   230
  0
VERTEX
  8
Female_Zip_Tie
 62
   253
 10
0.0
 20
0.0
 30
0.0
 70
   128
 71
   227
 72
   250
 73
   251
  0
VERTEX
  8
Female_Zip_Tie
 62
   253
 10
0.0
 20
0.0
 30
0.0
 70
   128
 71
   251
 72
   226
 73
   227
  0
VERTEX
  8
Female_Zip_Tie
 62
   253
 10
0.0
 20
0.0
 30
0.0
 70
   128
 71
   103
 72
   128
 73
   239
  0
VERTEX
  8
Female_Zip_Tie
 62
   253
 10
0.0
 20
0.0
 30
0.0
 70
   128
 71
   103
 72
   239
 73
   238
  0
VERTEX
  8
Female_Zip_Tie
 62
   253
 10
0.0
 20
0.0
 30
0.0
 70
   128
 71
   239
 72
   240
 73
   237
  0
VERTEX
  8
Female_Zip_Tie
 62
   253
 10
0.0
 20
0.0
 30
0.0
 70
   128
 71
   240
 72
   241
 73
   236
  0
VERTEX
  8
Female_Zip_Tie
 62
   253
 10
0.0
 20
0.0
 30
0.0
 70
   128
 71
   241
 72
   242
 73
   235
  0
VERTEX
  8
Female_Zip_Tie
 62
   253
 10
0.0
 20
0.0
 30
0.0
 70
   128
 71
   246
 72
   108
 73
   231
  0
VERTEX
  8
Female_Zip_Tie
 62
   253
 10
0.0
 20
0.0
 30
0.0
 70
   128
 71
   243
 72
   244
 73
   233
  0
VERTEX
  8
Female_Zip_Tie
 62
   253
 10
0.0
 20
0.0
 30
0.0
 70
   128
 71
   244
 72
   245
 73
   232
  0
VERTEX
  8
Female_Zip_Tie
 62
   253
 10
0.0
 20
0.0
 30
0.0
 70
   128
 71
   108
 72
   246
 73
   129
  0
VERTEX
  8
Female_Zip_Tie
 62
   253
 10
0.0
 20
0.0
 30
0.0
 70
   128
 71
   245
 72
   246
 73
   231
  0
VERTEX
  8
Female_Zip_Tie
 62
   253
 10
0.0
 20
0.0
 30
0.0
 70
   128
 71
   245
 72
   231
 73
   232
  0
VERTEX
  8
Female_Zip_Tie
 62
   253
 10
0.0
 20
0.0
 30
0.0
 70
   128
 71
   244
 72
   232
 73
   233
  0
VERTEX
  8
Female_Zip_Tie
 62
   253
 10
0.0
 20
0.0
 30
0.0
 70
   128
 71
   243
 72
   233
 73
   234
  0
VERTEX
  8
Female_Zip_Tie
 62
   253
 10
0.0
 20
0.0
 30
0.0
 70
   128
 71
   241
 72
   235
 73
   236
  0
VERTEX
  8
Female_Zip_Tie
 62
   253
 10
0.0
 20
0.0
 30
0.0
 70
   128
 71
   240
 72
   236
 73
   237
  0
VERTEX
  8
Female_Zip_Tie
 62
   253
 10
0.0
 20
0.0
 30
0.0
 70
   128
 71
   239
 72
   237
 73
   238
  0
VERTEX
  8
Female_Zip_Tie
 62
   253
 10
0.0
 20
0.0
 30
0.0
 70
   128
 71
   235
 72
   242
 73
   243
  0
VERTEX
  8
Female_Zip_Tie
 62
   253
 10
0.0
 20
0.0
 30
0.0
 70
   128
 71
   243
 72
   234
 73
   235
  0
VERTEX
  8
Female_Zip_Tie
 62
   253
 10
0.0
 20
0.0
 30
0.0
 70
   128
 71
   4
 72
   5
 73
   137
  0
VERTEX
  8
Female_Zip_Tie
 62
   253
 10
0.0
 20
0.0
 30
0.0
 70
   128
 71
   4
 72
   137
 73
   98
  0
VERTEX
  8
Female_Zip_Tie
 62
   253
 10
0.0
 20
0.0
 30
0.0
 70
   128
 71
   91
 72
   138
 73
   10
  0
VERTEX
  8
Female_Zip_Tie
 62
   253
 10
0.0
 20
0.0
 30
0.0
 70
   128
 71
   91
 72
   10
 73
   11
  0
VERTEX
  8
Female_Zip_Tie
 62
   253
 10
0.0
 20
0.0
 30
0.0
 70
   128
 71
   141
 72
   85
 73
   142
  0
VERTEX
  8
Female_Zip_Tie
 62
   253
 10
0.0
 20
0.0
 30
0.0
 70
   128
 71
   85
 72
   86
 73
   142
  0
VERTEX
  8
Female_Zip_Tie
 62
   253
 10
0.0
 20
0.0
 30
0.0
 70
   128
 71
   142
 72
   86
 73
   87
  0
VERTEX
  8
Female_Zip_Tie
 62
   253
 10
0.0
 20
0.0
 30
0.0
 70
   128
 71
   85
 72
   141
 73
   88
  0
VERTEX
  8
Female_Zip_Tie
 62
   253
 10
0.0
 20
0.0
 30
0.0
 70
   128
 71
   88
 72
   141
 73
   87
  0
VERTEX
  8
Female_Zip_Tie
 62
   253
 10
0.0
 20
0.0
 30
0.0
 70
   128
 71
   141
 72
   142
 73
   87
  0
VERTEX
  8
Female_Zip_Tie
 62
   253
 10
0.0
 20
0.0
 30
0.0
 70
   128
 71
   123
 72
   124
 73
   144
  0
VERTEX
  8
Female_Zip_Tie
 62
   253
 10
0.0
 20
0.0
 30
0.0
 70
   128
 71
   123
 72
   144
 73
   143
  0
VERTEX
  8
Female_Zip_Tie
 62
   253
 10
0.0
 20
0.0
 30
0.0
 70
   128
 71
   121
 72
   123
 73
   143
  0
VERTEX
  8
Female_Zip_Tie
 62
   253
 10
0.0
 20
0.0
 30
0.0
 70
   128
 71
   124
 72
   122
 73
   144
  0
VERTEX
  8
Female_Zip_Tie
 62
   253
 10
0.0
 20
0.0
 30
0.0
 70
   128
 71
   144
 72
   122
 73
   143
  0
VERTEX
  8
Female_Zip_Tie
 62
   253
 10
0.0
 20
0.0
 30
0.0
 70
   128
 71
   122
 72
   121
 73
   143
  0
VERTEX
  8
Female_Zip_Tie
 62
   253
 10
0.0
 20
0.0
 30
0.0
 70
   128
 71
   145
 72
   81
 73
   146
  0
VERTEX
  8
Female_Zip_Tie
 62
   253
 10
0.0
 20
0.0
 30
0.0
 70
   128
 71
   81
 72
   82
 73
   146
  0
VERTEX
  8
Female_Zip_Tie
 62
   253
 10
0.0
 20
0.0
 30
0.0
 70
   128
 71
   146
 72
   82
 73
   83
  0
VERTEX
  8
Female_Zip_Tie
 62
   253
 10
0.0
 20
0.0
 30
0.0
 70
   128
 71
   81
 72
   145
 73
   84
  0
VERTEX
  8
Female_Zip_Tie
 62
   253
 10
0.0
 20
0.0
 30
0.0
 70
   128
 71
   84
 72
   145
 73
   83
  0
VERTEX
  8
Female_Zip_Tie
 62
   253
 10
0.0
 20
0.0
 30
0.0
 70
   128
 71
   145
 72
   146
 73
   83
  0
VERTEX
  8
Female_Zip_Tie
 62
   253
 10
0.0
 20
0.0
 30
0.0
 70
   128
 71
   119
 72
   120
 73
   148
  0
VERTEX
  8
Female_Zip_Tie
 62
   253
 10
0.0
 20
0.0
 30
0.0
 70
   128
 71
   119
 72
   148
 73
   147
  0
VERTEX
  8
Female_Zip_Tie
 62
   253
 10
0.0
 20
0.0
 30
0.0
 70
   128
 71
   117
 72
   119
 73
   147
  0
VERTEX
  8
Female_Zip_Tie
 62
   253
 10
0.0
 20
0.0
 30
0.0
 70
   128
 71
   120
 72
   118
 73
   148
  0
VERTEX
  8
Female_Zip_Tie
 62
   253
 10
0.0
 20
0.0
 30
0.0
 70
   128
 71
   148
 72
   118
 73
   147
  0
VERTEX
  8
Female_Zip_Tie
 62
   253
 10
0.0
 20
0.0
 30
0.0
 70
   128
 71
   118
 72
   117
 73
   147
  0
VERTEX
  8
Female_Zip_Tie
 62
   253
 10
0.0
 20
0.0
 30
0.0
 70
   128
 71
   149
 72
   77
 73
   150
  0
VERTEX
  8
Female_Zip_Tie
 62
   253
 10
0.0
 20
0.0
 30
0.0
 70
   128
 71
   77
 72
   78
 73
   150
  0
VERTEX
  8
Female_Zip_Tie
 62
   253
 10
0.0
 20
0.0
 30
0.0
 70
   128
 71
   150
 72
   78
 73
   79
  0
VERTEX
  8
Female_Zip_Tie
 62
   253
 10
0.0
 20
0.0
 30
0.0
 70
   128
 71
   77
 72
   149
 73
   80
  0
VERTEX
  8
Female_Zip_Tie
 62
   253
 10
0.0
 20
0.0
 30
0.0
 70
   128
 71
   80
 72
   149
 73
   79
  0
VERTEX
  8
Female_Zip_Tie
 62
   253
 10
0.0
 20
0.0
 30
0.0
 70
   128
 71
   149
 72
   150
 73
   79
  0
VERTEX
  8
Female_Zip_Tie
 62
   253
 10
0.0
 20
0.0
 30
0.0
 70
   128
 71
   115
 72
   116
 73
   152
  0
VERTEX
  8
Female_Zip_Tie
 62
   253
 10
0.0
 20
0.0
 30
0.0
 70
   128
 71
   115
 72
   152
 73
   151
  0
VERTEX
  8
Female_Zip_Tie
 62
   253
 10
0.0
 20
0.0
 30
0.0
 70
   128
 71
   113
 72
   115
 73
   151
  0
VERTEX
  8
Female_Zip_Tie
 62
   253
 10
0.0
 20
0.0
 30
0.0
 70
   128
 71
   116
 72
   114
 73
   152
  0
VERTEX
  8
Female_Zip_Tie
 62
   253
 10
0.0
 20
0.0
 30
0.0
 70
   128
 71
   152
 72
   114
 73
   151
  0
VERTEX
  8
Female_Zip_Tie
 62
   253
 10
0.0
 20
0.0
 30
0.0
 70
   128
 71
   114
 72
   113
 73
   151
  0
VERTEX
  8
Female_Zip_Tie
 62
   253
 10
0.0
 20
0.0
 30
0.0
 70
   128
 71
   153
 72
   89
 73
   154
  0
VERTEX
  8
Female_Zip_Tie
 62
   253
 10
0.0
 20
0.0
 30
0.0
 70
   128
 71
   89
 72
   90
 73
   154
  0
VERTEX
  8
Female_Zip_Tie
 62
   253
 10
0.0
 20
0.0
 30
0.0
 70
   128
 71
   154
 72
   90
 73
   57
  0
VERTEX
  8
Female_Zip_Tie
 62
   253
 10
0.0
 20
0.0
 30
0.0
 70
   128
 71
   154
 72
   57
 73
   58
  0
VERTEX
  8
Female_Zip_Tie
 62
   253
 10
0.0
 20
0.0
 30
0.0
 70
   128
 71
   89
 72
   153
 73
   60
  0
VERTEX
  8
Female_Zip_Tie
 62
   253
 10
0.0
 20
0.0
 30
0.0
 70
   128
 71
   60
 72
   153
 73
   59
  0
VERTEX
  8
Female_Zip_Tie
 62
   253
 10
0.0
 20
0.0
 30
0.0
 70
   128
 71
   154
 72
   59
 73
   153
  0
VERTEX
  8
Female_Zip_Tie
 62
   253
 10
0.0
 20
0.0
 30
0.0
 70
   128
 71
   59
 72
   154
 73
   58
  0
VERTEX
  8
Female_Zip_Tie
 62
   253
 10
0.0
 20
0.0
 30
0.0
 70
   128
 71
   135
 72
   136
 73
   156
  0
VERTEX
  8
Female_Zip_Tie
 62
   253
 10
0.0
 20
0.0
 30
0.0
 70
   128
 71
   135
 72
   156
 73
   155
  0
VERTEX
  8
Female_Zip_Tie
 62
   253
 10
0.0
 20
0.0
 30
0.0
 70
   128
 71
   157
 72
   31
 73
   158
  0
VERTEX
  8
Female_Zip_Tie
 62
   253
 10
0.0
 20
0.0
 30
0.0
 70
   128
 71
   31
 72
   32
 73
   158
  0
VERTEX
  8
Female_Zip_Tie
 62
   253
 10
0.0
 20
0.0
 30
0.0
 70
   128
 71
   33
 72
   135
 73
   155
  0
VERTEX
  8
Female_Zip_Tie
 62
   253
 10
0.0
 20
0.0
 30
0.0
 70
   128
 71
   158
 72
   33
 73
   155
  0
VERTEX
  8
Female_Zip_Tie
 62
   253
 10
0.0
 20
0.0
 30
0.0
 70
   128
 71
   33
 72
   158
 73
   32
  0
VERTEX
  8
Female_Zip_Tie
 62
   253
 10
0.0
 20
0.0
 30
0.0
 70
   128
 71
   136
 72
   30
 73
   156
  0
VERTEX
  8
Female_Zip_Tie
 62
   253
 10
0.0
 20
0.0
 30
0.0
 70
   128
 71
   30
 72
   157
 73
   156
  0
VERTEX
  8
Female_Zip_Tie
 62
   253
 10
0.0
 20
0.0
 30
0.0
 70
   128
 71
   157
 72
   30
 73
   31
  0
VERTEX
  8
Female_Zip_Tie
 62
   253
 10
0.0
 20
0.0
 30
0.0
 70
   128
 71
   156
 72
   157
 73
   155
  0
VERTEX
  8
Female_Zip_Tie
 62
   253
 10
0.0
 20
0.0
 30
0.0
 70
   128
 71
   157
 72
   158
 73
   155
  0
VERTEX
  8
Female_Zip_Tie
 62
   253
 10
0.0
 20
0.0
 30
0.0
 70
   128
 71
   159
 72
   39
 73
   160
  0
VERTEX
  8
Female_Zip_Tie
 62
   253
 10
0.0
 20
0.0
 30
0.0
 70
   128
 71
   39
 72
   159
 73
   37
  0
VERTEX
  8
Female_Zip_Tie
 62
   253
 10
0.0
 20
0.0
 30
0.0
 70
   128
 71
   38
 72
   159
 73
   160
  0
VERTEX
  8
Female_Zip_Tie
 62
   253
 10
0.0
 20
0.0
 30
0.0
 70
   128
 71
   38
 72
   160
 73
   40
  0
VERTEX
  8
Female_Zip_Tie
 62
   253
 10
0.0
 20
0.0
 30
0.0
 70
   128
 71
   37
 72
   159
 73
   38
  0
VERTEX
  8
Female_Zip_Tie
 62
   253
 10
0.0
 20
0.0
 30
0.0
 70
   128
 71
   160
 72
   39
 73
   40
  0
VERTEX
  8
Female_Zip_Tie
 62
   253
 10
0.0
 20
0.0
 30
0.0
 70
   128
 71
   15
 72
   16
 73
   162
  0
VERTEX
  8
Female_Zip_Tie
 62
   253
 10
0.0
 20
0.0
 30
0.0
 70
   128
 71
   15
 72
   162
 73
   161
  0
VERTEX
  8
Female_Zip_Tie
 62
   253
 10
0.0
 20
0.0
 30
0.0
 70
   128
 71
   163
 72
   13
 73
   164
  0
VERTEX
  8
Female_Zip_Tie
 62
   253
 10
0.0
 20
0.0
 30
0.0
 70
   128
 71
   13
 72
   14
 73
   164
  0
VERTEX
  8
Female_Zip_Tie
 62
   253
 10
0.0
 20
0.0
 30
0.0
 70
   128
 71
   14
 72
   15
 73
   161
  0
VERTEX
  8
Female_Zip_Tie
 62
   253
 10
0.0
 20
0.0
 30
0.0
 70
   128
 71
   14
 72
   161
 73
   164
  0
VERTEX
  8
Female_Zip_Tie
 62
   253
 10
0.0
 20
0.0
 30
0.0
 70
   128
 71
   16
 72
   13
 73
   162
  0
VERTEX
  8
Female_Zip_Tie
 62
   253
 10
0.0
 20
0.0
 30
0.0
 70
   128
 71
   162
 72
   13
 73
   163
  0
VERTEX
  8
Female_Zip_Tie
 62
   253
 10
0.0
 20
0.0
 30
0.0
 70
   128
 71
   162
 72
   163
 73
   161
  0
VERTEX
  8
Female_Zip_Tie
 62
   253
 10
0.0
 20
0.0
 30
0.0
 70
   128
 71
   163
 72
   164
 73
   161
  0
VERTEX
  8
Female_Zip_Tie
 62
   253
 10
0.0
 20
0.0
 30
0.0
 70
   128
 71
   165
 72
   43
 73
   166
  0
VERTEX
  8
Female_Zip_Tie
 62
   253
 10
0.0
 20
0.0
 30
0.0
 70
   128
 71
   43
 72
   165
 73
   41
  0
VERTEX
  8
Female_Zip_Tie
 62
   253
 10
0.0
 20
0.0
 30
0.0
 70
   128
 71
   42
 72
   165
 73
   166
  0
VERTEX
  8
Female_Zip_Tie
 62
   253
 10
0.0
 20
0.0
 30
0.0
 70
   128
 71
   42
 72
   166
 73
   44
  0
VERTEX
  8
Female_Zip_Tie
 62
   253
 10
0.0
 20
0.0
 30
0.0
 70
   128
 71
   41
 72
   165
 73
   42
  0
VERTEX
  8
Female_Zip_Tie
 62
   253
 10
0.0
 20
0.0
 30
0.0
 70
   128
 71
   166
 72
   43
 73
   44
  0
VERTEX
  8
Female_Zip_Tie
 62
   253
 10
0.0
 20
0.0
 30
0.0
 70
   128
 71
   19
 72
   20
 73
   168
  0
VERTEX
  8
Female_Zip_Tie
 62
   253
 10
0.0
 20
0.0
 30
0.0
 70
   128
 71
   19
 72
   168
 73
   167
  0
VERTEX
  8
Female_Zip_Tie
 62
   253
 10
0.0
 20
0.0
 30
0.0
 70
   128
 71
   169
 72
   17
 73
   170
  0
VERTEX
  8
Female_Zip_Tie
 62
   253
 10
0.0
 20
0.0
 30
0.0
 70
   128
 71
   17
 72
   18
 73
   170
  0
VERTEX
  8
Female_Zip_Tie
 62
   253
 10
0.0
 20
0.0
 30
0.0
 70
   128
 71
   18
 72
   19
 73
   167
  0
VERTEX
  8
Female_Zip_Tie
 62
   253
 10
0.0
 20
0.0
 30
0.0
 70
   128
 71
   18
 72
   167
 73
   170
  0
VERTEX
  8
Female_Zip_Tie
 62
   253
 10
0.0
 20
0.0
 30
0.0
 70
   128
 71
   20
 72
   17
 73
   168
  0
VERTEX
  8
Female_Zip_Tie
 62
   253
 10
0.0
 20
0.0
 30
0.0
 70
   128
 71
   168
 72
   17
 73
   169
  0
VERTEX
  8
Female_Zip_Tie
 62
   253
 10
0.0
 20
0.0
 30
0.0
 70
   128
 71
   168
 72
   169
 73
   167
  0
VERTEX
  8
Female_Zip_Tie
 62
   253
 10
0.0
 20
0.0
 30
0.0
 70
   128
 71
   169
 72
   170
 73
   167
  0
VERTEX
  8
Female_Zip_Tie
 62
   253
 10
0.0
 20
0.0
 30
0.0
 70
   128
 71
   171
 72
   47
 73
   172
  0
VERTEX
  8
Female_Zip_Tie
 62
   253
 10
0.0
 20
0.0
 30
0.0
 70
   128
 71
   47
 72
   171
 73
   45
  0
VERTEX
  8
Female_Zip_Tie
 62
   253
 10
0.0
 20
0.0
 30
0.0
 70
   128
 71
   46
 72
   171
 73
   172
  0
VERTEX
  8
Female_Zip_Tie
 62
   253
 10
0.0
 20
0.0
 30
0.0
 70
   128
 71
   46
 72
   172
 73
   48
  0
VERTEX
  8
Female_Zip_Tie
 62
   253
 10
0.0
 20
0.0
 30
0.0
 70
   128
 71
   45
 72
   171
 73
   46
  0
VERTEX
  8
Female_Zip_Tie
 62
   253
 10
0.0
 20
0.0
 30
0.0
 70
   128
 71
   172
 72
   47
 73
   48
  0
VERTEX
  8
Female_Zip_Tie
 62
   253
 10
0.0
 20
0.0
 30
0.0
 70
   128
 71
   23
 72
   24
 73
   174
  0
VERTEX
  8
Female_Zip_Tie
 62
   253
 10
0.0
 20
0.0
 30
0.0
 70
   128
 71
   23
 72
   174
 73
   173
  0
VERTEX
  8
Female_Zip_Tie
 62
   253
 10
0.0
 20
0.0
 30
0.0
 70
   128
 71
   175
 72
   21
 73
   176
  0
VERTEX
  8
Female_Zip_Tie
 62
   253
 10
0.0
 20
0.0
 30
0.0
 70
   128
 71
   21
 72
   22
 73
   176
  0
VERTEX
  8
Female_Zip_Tie
 62
   253
 10
0.0
 20
0.0
 30
0.0
 70
   128
 71
   22
 72
   23
 73
   173
  0
VERTEX
  8
Female_Zip_Tie
 62
   253
 10
0.0
 20
0.0
 30
0.0
 70
   128
 71
   22
 72
   173
 73
   176
  0
VERTEX
  8
Female_Zip_Tie
 62
   253
 10
0.0
 20
0.0
 30
0.0
 70
   128
 71
   24
 72
   21
 73
   174
  0
VERTEX
  8
Female_Zip_Tie
 62
   253
 10
0.0
 20
0.0
 30
0.0
 70
   128
 71
   174
 72
   21
 73
   175
  0
VERTEX
  8
Female_Zip_Tie
 62
   253
 10
0.0
 20
0.0
 30
0.0
 70
   128
 71
   174
 72
   175
 73
   173
  0
VERTEX
  8
Female_Zip_Tie
 62
   253
 10
0.0
 20
0.0
 30
0.0
 70
   128
 71
   175
 72
   176
 73
   173
  0
VERTEX
  8
Female_Zip_Tie
 62
   253
 10
0.0
 20
0.0
 30
0.0
 70
   128
 71
   177
 72
   51
 73
   178
  0
VERTEX
  8
Female_Zip_Tie
 62
   253
 10
0.0
 20
0.0
 30
0.0
 70
   128
 71
   51
 72
   177
 73
   49
  0
VERTEX
  8
Female_Zip_Tie
 62
   253
 10
0.0
 20
0.0
 30
0.0
 70
   128
 71
   50
 72
   177
 73
   178
  0
VERTEX
  8
Female_Zip_Tie
 62
   253
 10
0.0
 20
0.0
 30
0.0
 70
   128
 71
   50
 72
   178
 73
   52
  0
VERTEX
  8
Female_Zip_Tie
 62
   253
 10
0.0
 20
0.0
 30
0.0
 70
   128
 71
   49
 72
   177
 73
   50
  0
VERTEX
  8
Female_Zip_Tie
 62
   253
 10
0.0
 20
0.0
 30
0.0
 70
   128
 71
   178
 72
   51
 73
   52
  0
VERTEX
  8
Female_Zip_Tie
 62
   253
 10
0.0
 20
0.0
 30
0.0
 70
   128
 71
   27
 72
   28
 73
   180
  0
VERTEX
  8
Female_Zip_Tie
 62
   253
 10
0.0
 20
0.0
 30
0.0
 70
   128
 71
   27
 72
   180
 73
   179
  0
VERTEX
  8
Female_Zip_Tie
 62
   253
 10
0.0
 20
0.0
 30
0.0
 70
   128
 71
   181
 72
   25
 73
   182
  0
VERTEX
  8
Female_Zip_Tie
 62
   253
 10
0.0
 20
0.0
 30
0.0
 70
   128
 71
   25
 72
   26
 73
   182
  0
VERTEX
  8
Female_Zip_Tie
 62
   253
 10
0.0
 20
0.0
 30
0.0
 70
   128
 71
   26
 72
   27
 73
   179
  0
VERTEX
  8
Female_Zip_Tie
 62
   253
 10
0.0
 20
0.0
 30
0.0
 70
   128
 71
   26
 72
   179
 73
   182
  0
VERTEX
  8
Female_Zip_Tie
 62
   253
 10
0.0
 20
0.0
 30
0.0
 70
   128
 71
   28
 72
   25
 73
   180
  0
VERTEX
  8
Female_Zip_Tie
 62
   253
 10
0.0
 20
0.0
 30
0.0
 70
   128
 71
   180
 72
   25
 73
   181
  0
VERTEX
  8
Female_Zip_Tie
 62
   253
 10
0.0
 20
0.0
 30
0.0
 70
   128
 71
   180
 72
   181
 73
   179
  0
VERTEX
  8
Female_Zip_Tie
 62
   253
 10
0.0
 20
0.0
 30
0.0
 70
   128
 71
   181
 72
   182
 73
   179
  0
VERTEX
  8
Female_Zip_Tie
 62
   253
 10
0.0
 20
0.0
 30
0.0
 70
   128
 71
   55
 72
   63
 73
   64
  0
VERTEX
  8
Female_Zip_Tie
 62
   253
 10
0.0
 20
0.0
 30
0.0
 70
   128
 71
   55
 72
   64
 73
   54
  0
VERTEX
  8
Female_Zip_Tie
 62
   253
 10
0.0
 20
0.0
 30
0.0
 70
   128
 71
   35
 72
   36
 73
   68
  0
VERTEX
  8
Female_Zip_Tie
 62
   253
 10
0.0
 20
0.0
 30
0.0
 70
   128
 71
   35
 72
   68
 73
   66
  0
VERTEX
  8
Female_Zip_Tie
 62
   253
 10
0.0
 20
0.0
 30
0.0
 70
   128
 71
   62
 72
   2
 73
   1
  0
VERTEX
  8
Female_Zip_Tie
 62
   253
 10
0.0
 20
0.0
 30
0.0
 70
   128
 71
   53
 72
   62
 73
   1
  0
VERTEX
  8
Female_Zip_Tie
 62
   253
 10
0.0
 20
0.0
 30
0.0
 70
   128
 71
   62
 72
   61
 73
   67
  0
VERTEX
  8
Female_Zip_Tie
 62
   253
 10
0.0
 20
0.0
 30
0.0
 70
   128
 71
   2
 72
   62
 73
   67
  0
VERTEX
  8
Female_Zip_Tie
 62
   253
 10
0.0
 20
0.0
 30
0.0
 70
   128
 71
   29
 72
   2
 73
   67
  0
VERTEX
  8
Female_Zip_Tie
 62
   253
 10
0.0
 20
0.0
 30
0.0
 70
   128
 71
   61
 72
   65
 73
   67
  0
VERTEX
  8
Female_Zip_Tie
 62
   253
 10
0.0
 20
0.0
 30
0.0
 70
   128
 71
   65
 72
   7
 73
   34
  0
VERTEX
  8
Female_Zip_Tie
 62
   253
 10
0.0
 20
0.0
 30
0.0
 70
   128
 71
   61
 72
   8
 73
   7
  0
VERTEX
  8
Female_Zip_Tie
 62
   253
 10
0.0
 20
0.0
 30
0.0
 70
   128
 71
   65
 72
   61
 73
   7
  0
VERTEX
  8
Female_Zip_Tie
 62
   253
 10
0.0
 20
0.0
 30
0.0
 70
   128
 71
   61
 72
   56
 73
   8
  0
SEQEND
  0
ENDSEC
  0
EOF
