999
FBX AutoCAD (*.DXF) exporter
  0
SECTION
  2
HEADER
  9
$ACADVER
  1
AC1008
  9
$UCSORG
 10
0.0
 20
0.0
 30
0.0
  9
$UCSXDIR
 10
1.0
 20
0.0
 30
0.0
  9
$TILEMODE
 70
   1
  9
$UCSYDIR
 10
0.0
 20
1.0
 30
0.0
  0
ENDSEC
  0
SECTION
  2
TABLES
  0
TABLE
  2
LTYPE
 70
   1
  0
LTYPE
  2
CONTINUOUS
 70
   64
  3
Solid line
 72
   65
 73
   0
 40
0.0
  0
ENDTAB
  0
TABLE
  2
LAYER
 70
   1
  0
LAYER
  2
back_holder_pat_3
 70
   0
 62
   254
  6
CONTINUOUS
  0
ENDTAB
  0
ENDSEC
  0
SECTION
  2
BLOCKS
  0
ENDSEC
  0
SECTION
  2
ENTITIES
  0
POLYLINE
  8
back_holder_pat_3
 62
   254
 66
   1
 10
0.0
 20
0.0
 30
0.0
 70
   64
 71
   24
 72
   44
  0
VERTEX
  8
back_holder_pat_3
 10
-1.270000
 20
2.095000
 30
-0.977900
 70
   192
  0
VERTEX
  8
back_holder_pat_3
 10
-1.270000
 20
0.000000
 30
-0.977900
 70
   192
  0
VERTEX
  8
back_holder_pat_3
 10
1.270000
 20
2.095000
 30
-0.977900
 70
   192
  0
VERTEX
  8
back_holder_pat_3
 10
1.270000
 20
0.000000
 30
-0.977900
 70
   192
  0
VERTEX
  8
back_holder_pat_3
 10
-1.270000
 20
2.095000
 30
0.977900
 70
   192
  0
VERTEX
  8
back_holder_pat_3
 10
-1.270000
 20
0.000000
 30
0.977900
 70
   192
  0
VERTEX
  8
back_holder_pat_3
 10
1.270000
 20
0.000000
 30
0.977900
 70
   192
  0
VERTEX
  8
back_holder_pat_3
 10
1.270000
 20
2.095000
 30
0.977900
 70
   192
  0
VERTEX
  8
back_holder_pat_3
 10
-1.308100
 20
4.000000
 30
14.998700
 70
   192
  0
VERTEX
  8
back_holder_pat_3
 10
-1.308100
 20
2.095000
 30
14.998700
 70
   192
  0
VERTEX
  8
back_holder_pat_3
 10
1.308100
 20
2.095000
 30
14.998700
 70
   192
  0
VERTEX
  8
back_holder_pat_3
 10
1.308100
 20
4.000000
 30
14.998700
 70
   192
  0
VERTEX
  8
back_holder_pat_3
 10
0.762000
 20
2.539500
 30
14.998700
 70
   192
  0
VERTEX
  8
back_holder_pat_3
 10
-0.762000
 20
2.539500
 30
14.998700
 70
   192
  0
VERTEX
  8
back_holder_pat_3
 10
-0.762000
 20
3.555500
 30
14.998700
 70
   192
  0
VERTEX
  8
back_holder_pat_3
 10
0.762000
 20
3.555500
 30
14.998700
 70
   192
  0
VERTEX
  8
back_holder_pat_3
 10
1.308100
 20
2.095000
 30
-1.231900
 70
   192
  0
VERTEX
  8
back_holder_pat_3
 10
1.308100
 20
4.000000
 30
-1.231900
 70
   192
  0
VERTEX
  8
back_holder_pat_3
 10
-1.308100
 20
2.095000
 30
-1.231900
 70
   192
  0
VERTEX
  8
back_holder_pat_3
 10
-1.308100
 20
4.000000
 30
-1.231900
 70
   192
  0
VERTEX
  8
back_holder_pat_3
 10
-0.762000
 20
2.539500
 30
12.458700
 70
   192
  0
VERTEX
  8
back_holder_pat_3
 10
-0.762000
 20
3.555500
 30
12.458700
 70
   192
  0
VERTEX
  8
back_holder_pat_3
 10
0.762000
 20
3.555500
 30
12.458700
 70
   192
  0
VERTEX
  8
back_holder_pat_3
 10
0.762000
 20
2.539500
 30
12.458700
 70
   192
  0
VERTEX
  8
back_holder_pat_3
 62
   254
 10
0.0
 20
0.0
 30
0.0
 70
   128
 71
   2
 72
   4
 73
   3
  0
VERTEX
  8
back_holder_pat_3
 62
   254
 10
0.0
 20
0.0
 30
0.0
 70
   128
 71
   2
 72
   3
 73
   1
  0
VERTEX
  8
back_holder_pat_3
 62
   254
 10
0.0
 20
0.0
 30
0.0
 70
   128
 71
   5
 72
   8
 73
   7
  0
VERTEX
  8
back_holder_pat_3
 62
   254
 10
0.0
 20
0.0
 30
0.0
 70
   128
 71
   5
 72
   7
 73
   6
  0
VERTEX
  8
back_holder_pat_3
 62
   254
 10
0.0
 20
0.0
 30
0.0
 70
   128
 71
   7
 72
   4
 73
   2
  0
VERTEX
  8
back_holder_pat_3
 62
   254
 10
0.0
 20
0.0
 30
0.0
 70
   128
 71
   6
 72
   7
 73
   2
  0
VERTEX
  8
back_holder_pat_3
 62
   254
 10
0.0
 20
0.0
 30
0.0
 70
   128
 71
   12
 72
   13
 73
   16
  0
VERTEX
  8
back_holder_pat_3
 62
   254
 10
0.0
 20
0.0
 30
0.0
 70
   128
 71
   11
 72
   10
 73
   13
  0
VERTEX
  8
back_holder_pat_3
 62
   254
 10
0.0
 20
0.0
 30
0.0
 70
   128
 71
   12
 72
   11
 73
   13
  0
VERTEX
  8
back_holder_pat_3
 62
   254
 10
0.0
 20
0.0
 30
0.0
 70
   128
 71
   10
 72
   9
 73
   14
  0
VERTEX
  8
back_holder_pat_3
 62
   254
 10
0.0
 20
0.0
 30
0.0
 70
   128
 71
   13
 72
   10
 73
   14
  0
VERTEX
  8
back_holder_pat_3
 62
   254
 10
0.0
 20
0.0
 30
0.0
 70
   128
 71
   9
 72
   12
 73
   15
  0
VERTEX
  8
back_holder_pat_3
 62
   254
 10
0.0
 20
0.0
 30
0.0
 70
   128
 71
   14
 72
   9
 73
   15
  0
VERTEX
  8
back_holder_pat_3
 62
   254
 10
0.0
 20
0.0
 30
0.0
 70
   128
 71
   15
 72
   12
 73
   16
  0
VERTEX
  8
back_holder_pat_3
 62
   254
 10
0.0
 20
0.0
 30
0.0
 70
   128
 71
   11
 72
   12
 73
   18
  0
VERTEX
  8
back_holder_pat_3
 62
   254
 10
0.0
 20
0.0
 30
0.0
 70
   128
 71
   11
 72
   18
 73
   17
  0
VERTEX
  8
back_holder_pat_3
 62
   254
 10
0.0
 20
0.0
 30
0.0
 70
   128
 71
   19
 72
   20
 73
   10
  0
VERTEX
  8
back_holder_pat_3
 62
   254
 10
0.0
 20
0.0
 30
0.0
 70
   128
 71
   20
 72
   9
 73
   10
  0
VERTEX
  8
back_holder_pat_3
 62
   254
 10
0.0
 20
0.0
 30
0.0
 70
   128
 71
   12
 72
   9
 73
   20
  0
VERTEX
  8
back_holder_pat_3
 62
   254
 10
0.0
 20
0.0
 30
0.0
 70
   128
 71
   12
 72
   20
 73
   18
  0
VERTEX
  8
back_holder_pat_3
 62
   254
 10
0.0
 20
0.0
 30
0.0
 70
   128
 71
   17
 72
   3
 73
   8
  0
VERTEX
  8
back_holder_pat_3
 62
   254
 10
0.0
 20
0.0
 30
0.0
 70
   128
 71
   8
 72
   5
 73
   10
  0
VERTEX
  8
back_holder_pat_3
 62
   254
 10
0.0
 20
0.0
 30
0.0
 70
   128
 71
   8
 72
   10
 73
   11
  0
VERTEX
  8
back_holder_pat_3
 62
   254
 10
0.0
 20
0.0
 30
0.0
 70
   128
 71
   1
 72
   3
 73
   17
  0
VERTEX
  8
back_holder_pat_3
 62
   254
 10
0.0
 20
0.0
 30
0.0
 70
   128
 71
   17
 72
   8
 73
   11
  0
VERTEX
  8
back_holder_pat_3
 62
   254
 10
0.0
 20
0.0
 30
0.0
 70
   128
 71
   1
 72
   17
 73
   19
  0
VERTEX
  8
back_holder_pat_3
 62
   254
 10
0.0
 20
0.0
 30
0.0
 70
   128
 71
   5
 72
   1
 73
   19
  0
VERTEX
  8
back_holder_pat_3
 62
   254
 10
0.0
 20
0.0
 30
0.0
 70
   128
 71
   10
 72
   5
 73
   19
  0
VERTEX
  8
back_holder_pat_3
 62
   254
 10
0.0
 20
0.0
 30
0.0
 70
   128
 71
   14
 72
   15
 73
   21
  0
VERTEX
  8
back_holder_pat_3
 62
   254
 10
0.0
 20
0.0
 30
0.0
 70
   128
 71
   21
 72
   15
 73
   22
  0
VERTEX
  8
back_holder_pat_3
 62
   254
 10
0.0
 20
0.0
 30
0.0
 70
   128
 71
   15
 72
   16
 73
   22
  0
VERTEX
  8
back_holder_pat_3
 62
   254
 10
0.0
 20
0.0
 30
0.0
 70
   128
 71
   22
 72
   16
 73
   23
  0
VERTEX
  8
back_holder_pat_3
 62
   254
 10
0.0
 20
0.0
 30
0.0
 70
   128
 71
   16
 72
   13
 73
   23
  0
VERTEX
  8
back_holder_pat_3
 62
   254
 10
0.0
 20
0.0
 30
0.0
 70
   128
 71
   23
 72
   13
 73
   24
  0
VERTEX
  8
back_holder_pat_3
 62
   254
 10
0.0
 20
0.0
 30
0.0
 70
   128
 71
   13
 72
   14
 73
   24
  0
VERTEX
  8
back_holder_pat_3
 62
   254
 10
0.0
 20
0.0
 30
0.0
 70
   128
 71
   24
 72
   14
 73
   21
  0
VERTEX
  8
back_holder_pat_3
 62
   254
 10
0.0
 20
0.0
 30
0.0
 70
   128
 71
   21
 72
   22
 73
   24
  0
VERTEX
  8
back_holder_pat_3
 62
   254
 10
0.0
 20
0.0
 30
0.0
 70
   128
 71
   24
 72
   22
 73
   23
  0
VERTEX
  8
back_holder_pat_3
 62
   254
 10
0.0
 20
0.0
 30
0.0
 70
   128
 71
   19
 72
   17
 73
   18
  0
VERTEX
  8
back_holder_pat_3
 62
   254
 10
0.0
 20
0.0
 30
0.0
 70
   128
 71
   19
 72
   18
 73
   20
  0
VERTEX
  8
back_holder_pat_3
 62
   254
 10
0.0
 20
0.0
 30
0.0
 70
   128
 71
   4
 72
   8
 73
   3
  0
VERTEX
  8
back_holder_pat_3
 62
   254
 10
0.0
 20
0.0
 30
0.0
 70
   128
 71
   8
 72
   4
 73
   7
  0
VERTEX
  8
back_holder_pat_3
 62
   254
 10
0.0
 20
0.0
 30
0.0
 70
   128
 71
   5
 72
   2
 73
   1
  0
VERTEX
  8
back_holder_pat_3
 62
   254
 10
0.0
 20
0.0
 30
0.0
 70
   128
 71
   2
 72
   5
 73
   6
  0
SEQEND
  0
ENDSEC
  0
EOF
