999
FBX AutoCAD (*.DXF) exporter
  0
SECTION
  2
HEADER
  9
$ACADVER
  1
AC1008
  9
$UCSORG
 10
0.0
 20
0.0
 30
0.0
  9
$UCSXDIR
 10
1.0
 20
0.0
 30
0.0
  9
$TILEMODE
 70
   1
  9
$UCSYDIR
 10
0.0
 20
1.0
 30
0.0
  0
ENDSEC
  0
SECTION
  2
TABLES
  0
TABLE
  2
LTYPE
 70
   1
  0
LTYPE
  2
CONTINUOUS
 70
   64
  3
Solid line
 72
   65
 73
   0
 40
0.0
  0
ENDTAB
  0
TABLE
  2
LAYER
 70
   1
  0
LAYER
  2
back_piece
 70
   0
 62
   7
  6
CONTINUOUS
  0
ENDTAB
  0
ENDSEC
  0
SECTION
  2
BLOCKS
  0
ENDSEC
  0
SECTION
  2
ENTITIES
  0
POLYLINE
  8
back_piece
 62
   7
 66
   1
 10
0.0
 20
0.0
 30
0.0
 70
   64
 71
   144
 72
   288
  0
VERTEX
  8
back_piece
 10
1.524000
 20
-0.000000
 30
0.000000
 70
   192
  0
VERTEX
  8
back_piece
 10
3.556000
 20
-0.000000
 30
0.000000
 70
   192
  0
VERTEX
  8
back_piece
 10
2.063750
 20
-0.000000
 30
3.386426
 70
   192
  0
VERTEX
  8
back_piece
 10
1.524000
 20
-0.000000
 30
3.386426
 70
   192
  0
VERTEX
  8
back_piece
 10
1.500847
 20
0.264640
 30
0.000000
 70
   192
  0
VERTEX
  8
back_piece
 10
1.432092
 20
0.521239
 30
0.000000
 70
   192
  0
VERTEX
  8
back_piece
 10
1.319823
 20
0.762000
 30
0.000000
 70
   192
  0
VERTEX
  8
back_piece
 10
1.167452
 20
0.979608
 30
0.000000
 70
   192
  0
VERTEX
  8
back_piece
 10
0.979608
 20
1.167452
 30
0.000000
 70
   192
  0
VERTEX
  8
back_piece
 10
0.762000
 20
1.319823
 30
0.000000
 70
   192
  0
VERTEX
  8
back_piece
 10
0.521239
 20
1.432092
 30
0.000000
 70
   192
  0
VERTEX
  8
back_piece
 10
0.264640
 20
1.500847
 30
0.000000
 70
   192
  0
VERTEX
  8
back_piece
 10
0.000000
 20
1.524000
 30
0.000000
 70
   192
  0
VERTEX
  8
back_piece
 10
-0.264640
 20
1.500847
 30
0.000000
 70
   192
  0
VERTEX
  8
back_piece
 10
-0.521239
 20
1.432092
 30
0.000000
 70
   192
  0
VERTEX
  8
back_piece
 10
-0.762000
 20
1.319823
 30
0.000000
 70
   192
  0
VERTEX
  8
back_piece
 10
-0.979608
 20
1.167452
 30
0.000000
 70
   192
  0
VERTEX
  8
back_piece
 10
-1.167452
 20
0.979608
 30
0.000000
 70
   192
  0
VERTEX
  8
back_piece
 10
-1.319823
 20
0.762000
 30
0.000000
 70
   192
  0
VERTEX
  8
back_piece
 10
-1.432092
 20
0.521239
 30
0.000000
 70
   192
  0
VERTEX
  8
back_piece
 10
-1.500847
 20
0.264640
 30
0.000000
 70
   192
  0
VERTEX
  8
back_piece
 10
-1.524000
 20
0.000000
 30
0.000000
 70
   192
  0
VERTEX
  8
back_piece
 10
-1.500847
 20
-0.264640
 30
0.000000
 70
   192
  0
VERTEX
  8
back_piece
 10
-1.432092
 20
-0.521239
 30
0.000000
 70
   192
  0
VERTEX
  8
back_piece
 10
-1.319823
 20
-0.762000
 30
0.000000
 70
   192
  0
VERTEX
  8
back_piece
 10
-1.167452
 20
-0.979608
 30
0.000000
 70
   192
  0
VERTEX
  8
back_piece
 10
-0.979608
 20
-1.167452
 30
0.000000
 70
   192
  0
VERTEX
  8
back_piece
 10
-0.762000
 20
-1.319823
 30
0.000000
 70
   192
  0
VERTEX
  8
back_piece
 10
-0.521239
 20
-1.432092
 30
0.000000
 70
   192
  0
VERTEX
  8
back_piece
 10
-0.264640
 20
-1.500847
 30
0.000000
 70
   192
  0
VERTEX
  8
back_piece
 10
-0.000000
 20
-1.524000
 30
0.000000
 70
   192
  0
VERTEX
  8
back_piece
 10
0.264640
 20
-1.500847
 30
0.000000
 70
   192
  0
VERTEX
  8
back_piece
 10
0.521239
 20
-1.432092
 30
0.000000
 70
   192
  0
VERTEX
  8
back_piece
 10
0.762000
 20
-1.319823
 30
0.000000
 70
   192
  0
VERTEX
  8
back_piece
 10
0.979608
 20
-1.167452
 30
0.000000
 70
   192
  0
VERTEX
  8
back_piece
 10
1.167452
 20
-0.979608
 30
0.000000
 70
   192
  0
VERTEX
  8
back_piece
 10
1.319823
 20
-0.762000
 30
0.000000
 70
   192
  0
VERTEX
  8
back_piece
 10
1.432092
 20
-0.521239
 30
0.000000
 70
   192
  0
VERTEX
  8
back_piece
 10
1.500847
 20
-0.264640
 30
0.000000
 70
   192
  0
VERTEX
  8
back_piece
 10
3.501976
 20
0.617493
 30
0.000000
 70
   192
  0
VERTEX
  8
back_piece
 10
3.341547
 20
1.216224
 30
0.000000
 70
   192
  0
VERTEX
  8
back_piece
 10
3.079586
 20
1.778000
 30
0.000000
 70
   192
  0
VERTEX
  8
back_piece
 10
2.724054
 20
2.285753
 30
0.000000
 70
   192
  0
VERTEX
  8
back_piece
 10
2.285753
 20
2.724054
 30
0.000000
 70
   192
  0
VERTEX
  8
back_piece
 10
1.778000
 20
3.079586
 30
0.000000
 70
   192
  0
VERTEX
  8
back_piece
 10
1.216224
 20
3.341547
 30
0.000000
 70
   192
  0
VERTEX
  8
back_piece
 10
0.617493
 20
3.501976
 30
0.000000
 70
   192
  0
VERTEX
  8
back_piece
 10
0.000000
 20
3.556000
 30
0.000000
 70
   192
  0
VERTEX
  8
back_piece
 10
-0.617493
 20
3.501976
 30
0.000000
 70
   192
  0
VERTEX
  8
back_piece
 10
-1.216224
 20
3.341547
 30
0.000000
 70
   192
  0
VERTEX
  8
back_piece
 10
-1.778000
 20
3.079586
 30
0.000000
 70
   192
  0
VERTEX
  8
back_piece
 10
-2.285753
 20
2.724054
 30
0.000000
 70
   192
  0
VERTEX
  8
back_piece
 10
-2.724054
 20
2.285753
 30
0.000000
 70
   192
  0
VERTEX
  8
back_piece
 10
-3.079586
 20
1.778000
 30
0.000000
 70
   192
  0
VERTEX
  8
back_piece
 10
-3.341547
 20
1.216224
 30
0.000000
 70
   192
  0
VERTEX
  8
back_piece
 10
-3.501976
 20
0.617493
 30
0.000000
 70
   192
  0
VERTEX
  8
back_piece
 10
-3.556000
 20
0.000000
 30
0.000000
 70
   192
  0
VERTEX
  8
back_piece
 10
-3.501976
 20
-0.617493
 30
0.000000
 70
   192
  0
VERTEX
  8
back_piece
 10
-3.341547
 20
-1.216224
 30
0.000000
 70
   192
  0
VERTEX
  8
back_piece
 10
-3.079586
 20
-1.778000
 30
0.000000
 70
   192
  0
VERTEX
  8
back_piece
 10
-2.724054
 20
-2.285753
 30
0.000000
 70
   192
  0
VERTEX
  8
back_piece
 10
-2.285753
 20
-2.724054
 30
0.000000
 70
   192
  0
VERTEX
  8
back_piece
 10
-1.778000
 20
-3.079586
 30
0.000000
 70
   192
  0
VERTEX
  8
back_piece
 10
-1.216224
 20
-3.341547
 30
0.000000
 70
   192
  0
VERTEX
  8
back_piece
 10
-0.617493
 20
-3.501976
 30
0.000000
 70
   192
  0
VERTEX
  8
back_piece
 10
-0.000000
 20
-3.556000
 30
0.000000
 70
   192
  0
VERTEX
  8
back_piece
 10
0.617493
 20
-3.501976
 30
0.000000
 70
   192
  0
VERTEX
  8
back_piece
 10
1.216224
 20
-3.341547
 30
0.000000
 70
   192
  0
VERTEX
  8
back_piece
 10
1.778000
 20
-3.079586
 30
0.000000
 70
   192
  0
VERTEX
  8
back_piece
 10
2.285753
 20
-2.724054
 30
0.000000
 70
   192
  0
VERTEX
  8
back_piece
 10
2.724054
 20
-2.285753
 30
0.000000
 70
   192
  0
VERTEX
  8
back_piece
 10
3.079586
 20
-1.778000
 30
0.000000
 70
   192
  0
VERTEX
  8
back_piece
 10
3.341547
 20
-1.216224
 30
0.000000
 70
   192
  0
VERTEX
  8
back_piece
 10
3.501976
 20
-0.617493
 30
0.000000
 70
   192
  0
VERTEX
  8
back_piece
 10
2.032397
 20
0.358366
 30
3.386426
 70
   192
  0
VERTEX
  8
back_piece
 10
1.939291
 20
0.705844
 30
3.386426
 70
   192
  0
VERTEX
  8
back_piece
 10
1.787260
 20
1.031875
 30
3.386426
 70
   192
  0
VERTEX
  8
back_piece
 10
1.580924
 20
1.326553
 30
3.386426
 70
   192
  0
VERTEX
  8
back_piece
 10
1.326553
 20
1.580924
 30
3.386426
 70
   192
  0
VERTEX
  8
back_piece
 10
1.031875
 20
1.787260
 30
3.386426
 70
   192
  0
VERTEX
  8
back_piece
 10
0.705844
 20
1.939291
 30
3.386426
 70
   192
  0
VERTEX
  8
back_piece
 10
0.358366
 20
2.032397
 30
3.386426
 70
   192
  0
VERTEX
  8
back_piece
 10
0.000000
 20
2.063750
 30
3.386426
 70
   192
  0
VERTEX
  8
back_piece
 10
-0.358366
 20
2.032397
 30
3.386426
 70
   192
  0
VERTEX
  8
back_piece
 10
-0.705844
 20
1.939291
 30
3.386426
 70
   192
  0
VERTEX
  8
back_piece
 10
-1.031875
 20
1.787260
 30
3.386426
 70
   192
  0
VERTEX
  8
back_piece
 10
-1.326553
 20
1.580924
 30
3.386426
 70
   192
  0
VERTEX
  8
back_piece
 10
-1.580924
 20
1.326553
 30
3.386426
 70
   192
  0
VERTEX
  8
back_piece
 10
-1.787260
 20
1.031875
 30
3.386426
 70
   192
  0
VERTEX
  8
back_piece
 10
-1.939291
 20
0.705844
 30
3.386426
 70
   192
  0
VERTEX
  8
back_piece
 10
-2.032397
 20
0.358366
 30
3.386426
 70
   192
  0
VERTEX
  8
back_piece
 10
-2.063750
 20
0.000000
 30
3.386426
 70
   192
  0
VERTEX
  8
back_piece
 10
-2.032397
 20
-0.358366
 30
3.386426
 70
   192
  0
VERTEX
  8
back_piece
 10
-1.939291
 20
-0.705844
 30
3.386426
 70
   192
  0
VERTEX
  8
back_piece
 10
-1.787260
 20
-1.031875
 30
3.386426
 70
   192
  0
VERTEX
  8
back_piece
 10
-1.580924
 20
-1.326553
 30
3.386426
 70
   192
  0
VERTEX
  8
back_piece
 10
-1.326553
 20
-1.580924
 30
3.386426
 70
   192
  0
VERTEX
  8
back_piece
 10
-1.031875
 20
-1.787260
 30
3.386426
 70
   192
  0
VERTEX
  8
back_piece
 10
-0.705844
 20
-1.939291
 30
3.386426
 70
   192
  0
VERTEX
  8
back_piece
 10
-0.358366
 20
-2.032397
 30
3.386426
 70
   192
  0
VERTEX
  8
back_piece
 10
-0.000000
 20
-2.063750
 30
3.386426
 70
   192
  0
VERTEX
  8
back_piece
 10
0.358366
 20
-2.032397
 30
3.386426
 70
   192
  0
VERTEX
  8
back_piece
 10
0.705844
 20
-1.939291
 30
3.386426
 70
   192
  0
VERTEX
  8
back_piece
 10
1.031875
 20
-1.787260
 30
3.386426
 70
   192
  0
VERTEX
  8
back_piece
 10
1.326553
 20
-1.580924
 30
3.386426
 70
   192
  0
VERTEX
  8
back_piece
 10
1.580924
 20
-1.326553
 30
3.386426
 70
   192
  0
VERTEX
  8
back_piece
 10
1.787260
 20
-1.031875
 30
3.386426
 70
   192
  0
VERTEX
  8
back_piece
 10
1.939291
 20
-0.705844
 30
3.386426
 70
   192
  0
VERTEX
  8
back_piece
 10
2.032397
 20
-0.358366
 30
3.386426
 70
   192
  0
VERTEX
  8
back_piece
 10
1.500847
 20
0.264640
 30
3.386426
 70
   192
  0
VERTEX
  8
back_piece
 10
1.432092
 20
0.521239
 30
3.386426
 70
   192
  0
VERTEX
  8
back_piece
 10
1.319823
 20
0.762000
 30
3.386426
 70
   192
  0
VERTEX
  8
back_piece
 10
1.167452
 20
0.979608
 30
3.386426
 70
   192
  0
VERTEX
  8
back_piece
 10
0.979608
 20
1.167452
 30
3.386426
 70
   192
  0
VERTEX
  8
back_piece
 10
0.762000
 20
1.319823
 30
3.386426
 70
   192
  0
VERTEX
  8
back_piece
 10
0.521239
 20
1.432092
 30
3.386426
 70
   192
  0
VERTEX
  8
back_piece
 10
0.264640
 20
1.500847
 30
3.386426
 70
   192
  0
VERTEX
  8
back_piece
 10
0.000000
 20
1.524000
 30
3.386426
 70
   192
  0
VERTEX
  8
back_piece
 10
-0.264640
 20
1.500847
 30
3.386426
 70
   192
  0
VERTEX
  8
back_piece
 10
-0.521239
 20
1.432092
 30
3.386426
 70
   192
  0
VERTEX
  8
back_piece
 10
-0.762000
 20
1.319823
 30
3.386426
 70
   192
  0
VERTEX
  8
back_piece
 10
-0.979608
 20
1.167452
 30
3.386426
 70
   192
  0
VERTEX
  8
back_piece
 10
-1.167452
 20
0.979608
 30
3.386426
 70
   192
  0
VERTEX
  8
back_piece
 10
-1.319823
 20
0.762000
 30
3.386426
 70
   192
  0
VERTEX
  8
back_piece
 10
-1.432092
 20
0.521239
 30
3.386426
 70
   192
  0
VERTEX
  8
back_piece
 10
-1.500847
 20
0.264640
 30
3.386426
 70
   192
  0
VERTEX
  8
back_piece
 10
-1.524000
 20
0.000000
 30
3.386426
 70
   192
  0
VERTEX
  8
back_piece
 10
-1.500847
 20
-0.264640
 30
3.386426
 70
   192
  0
VERTEX
  8
back_piece
 10
-1.432092
 20
-0.521239
 30
3.386426
 70
   192
  0
VERTEX
  8
back_piece
 10
-1.319823
 20
-0.762000
 30
3.386426
 70
   192
  0
VERTEX
  8
back_piece
 10
-1.167452
 20
-0.979608
 30
3.386426
 70
   192
  0
VERTEX
  8
back_piece
 10
-0.979608
 20
-1.167452
 30
3.386426
 70
   192
  0
VERTEX
  8
back_piece
 10
-0.762000
 20
-1.319823
 30
3.386426
 70
   192
  0
VERTEX
  8
back_piece
 10
-0.521239
 20
-1.432092
 30
3.386426
 70
   192
  0
VERTEX
  8
back_piece
 10
-0.264640
 20
-1.500847
 30
3.386426
 70
   192
  0
VERTEX
  8
back_piece
 10
-0.000000
 20
-1.524000
 30
3.386426
 70
   192
  0
VERTEX
  8
back_piece
 10
0.264640
 20
-1.500847
 30
3.386426
 70
   192
  0
VERTEX
  8
back_piece
 10
0.521239
 20
-1.432092
 30
3.386426
 70
   192
  0
VERTEX
  8
back_piece
 10
0.762000
 20
-1.319823
 30
3.386426
 70
   192
  0
VERTEX
  8
back_piece
 10
0.979608
 20
-1.167452
 30
3.386426
 70
   192
  0
VERTEX
  8
back_piece
 10
1.167452
 20
-0.979608
 30
3.386426
 70
   192
  0
VERTEX
  8
back_piece
 10
1.319823
 20
-0.762000
 30
3.386426
 70
   192
  0
VERTEX
  8
back_piece
 10
1.432092
 20
-0.521239
 30
3.386426
 70
   192
  0
VERTEX
  8
back_piece
 10
1.500847
 20
-0.264640
 30
3.386426
 70
   192
  0
VERTEX
  8
back_piece
 62
   7
 10
0.0
 20
0.0
 30
0.0
 70
   128
 71
   49
 72
   13
 73
   48
  0
VERTEX
  8
back_piece
 62
   7
 10
0.0
 20
0.0
 30
0.0
 70
   128
 71
   1
 72
   39
 73
   2
  0
VERTEX
  8
back_piece
 62
   7
 10
0.0
 20
0.0
 30
0.0
 70
   128
 71
   5
 72
   2
 73
   40
  0
VERTEX
  8
back_piece
 62
   7
 10
0.0
 20
0.0
 30
0.0
 70
   128
 71
   6
 72
   5
 73
   41
  0
VERTEX
  8
back_piece
 62
   7
 10
0.0
 20
0.0
 30
0.0
 70
   128
 71
   7
 72
   6
 73
   42
  0
VERTEX
  8
back_piece
 62
   7
 10
0.0
 20
0.0
 30
0.0
 70
   128
 71
   8
 72
   7
 73
   43
  0
VERTEX
  8
back_piece
 62
   7
 10
0.0
 20
0.0
 30
0.0
 70
   128
 71
   9
 72
   8
 73
   44
  0
VERTEX
  8
back_piece
 62
   7
 10
0.0
 20
0.0
 30
0.0
 70
   128
 71
   13
 72
   12
 73
   48
  0
VERTEX
  8
back_piece
 62
   7
 10
0.0
 20
0.0
 30
0.0
 70
   128
 71
   14
 72
   13
 73
   49
  0
VERTEX
  8
back_piece
 62
   7
 10
0.0
 20
0.0
 30
0.0
 70
   128
 71
   15
 72
   14
 73
   50
  0
VERTEX
  8
back_piece
 62
   7
 10
0.0
 20
0.0
 30
0.0
 70
   128
 71
   16
 72
   15
 73
   51
  0
VERTEX
  8
back_piece
 62
   7
 10
0.0
 20
0.0
 30
0.0
 70
   128
 71
   17
 72
   16
 73
   52
  0
VERTEX
  8
back_piece
 62
   7
 10
0.0
 20
0.0
 30
0.0
 70
   128
 71
   27
 72
   26
 73
   62
  0
VERTEX
  8
back_piece
 62
   7
 10
0.0
 20
0.0
 30
0.0
 70
   128
 71
   28
 72
   27
 73
   63
  0
VERTEX
  8
back_piece
 62
   7
 10
0.0
 20
0.0
 30
0.0
 70
   128
 71
   31
 72
   30
 73
   66
  0
VERTEX
  8
back_piece
 62
   7
 10
0.0
 20
0.0
 30
0.0
 70
   128
 71
   36
 72
   35
 73
   71
  0
VERTEX
  8
back_piece
 62
   7
 10
0.0
 20
0.0
 30
0.0
 70
   128
 71
   37
 72
   36
 73
   72
  0
VERTEX
  8
back_piece
 62
   7
 10
0.0
 20
0.0
 30
0.0
 70
   128
 71
   38
 72
   74
 73
   39
  0
VERTEX
  8
back_piece
 62
   7
 10
0.0
 20
0.0
 30
0.0
 70
   128
 71
   38
 72
   37
 73
   73
  0
VERTEX
  8
back_piece
 62
   7
 10
0.0
 20
0.0
 30
0.0
 70
   128
 71
   5
 72
   1
 73
   2
  0
VERTEX
  8
back_piece
 62
   7
 10
0.0
 20
0.0
 30
0.0
 70
   128
 71
   35
 72
   34
 73
   70
  0
VERTEX
  8
back_piece
 62
   7
 10
0.0
 20
0.0
 30
0.0
 70
   128
 71
   2
 72
   39
 73
   74
  0
VERTEX
  8
back_piece
 62
   7
 10
0.0
 20
0.0
 30
0.0
 70
   128
 71
   34
 72
   33
 73
   69
  0
VERTEX
  8
back_piece
 62
   7
 10
0.0
 20
0.0
 30
0.0
 70
   128
 71
   74
 72
   38
 73
   73
  0
VERTEX
  8
back_piece
 62
   7
 10
0.0
 20
0.0
 30
0.0
 70
   128
 71
   33
 72
   32
 73
   68
  0
VERTEX
  8
back_piece
 62
   7
 10
0.0
 20
0.0
 30
0.0
 70
   128
 71
   73
 72
   37
 73
   72
  0
VERTEX
  8
back_piece
 62
   7
 10
0.0
 20
0.0
 30
0.0
 70
   128
 71
   32
 72
   31
 73
   67
  0
VERTEX
  8
back_piece
 62
   7
 10
0.0
 20
0.0
 30
0.0
 70
   128
 71
   72
 72
   36
 73
   71
  0
VERTEX
  8
back_piece
 62
   7
 10
0.0
 20
0.0
 30
0.0
 70
   128
 71
   30
 72
   29
 73
   65
  0
VERTEX
  8
back_piece
 62
   7
 10
0.0
 20
0.0
 30
0.0
 70
   128
 71
   71
 72
   35
 73
   70
  0
VERTEX
  8
back_piece
 62
   7
 10
0.0
 20
0.0
 30
0.0
 70
   128
 71
   29
 72
   28
 73
   64
  0
VERTEX
  8
back_piece
 62
   7
 10
0.0
 20
0.0
 30
0.0
 70
   128
 71
   70
 72
   34
 73
   69
  0
VERTEX
  8
back_piece
 62
   7
 10
0.0
 20
0.0
 30
0.0
 70
   128
 71
   69
 72
   33
 73
   68
  0
VERTEX
  8
back_piece
 62
   7
 10
0.0
 20
0.0
 30
0.0
 70
   128
 71
   68
 72
   32
 73
   67
  0
VERTEX
  8
back_piece
 62
   7
 10
0.0
 20
0.0
 30
0.0
 70
   128
 71
   26
 72
   25
 73
   61
  0
VERTEX
  8
back_piece
 62
   7
 10
0.0
 20
0.0
 30
0.0
 70
   128
 71
   67
 72
   31
 73
   66
  0
VERTEX
  8
back_piece
 62
   7
 10
0.0
 20
0.0
 30
0.0
 70
   128
 71
   25
 72
   24
 73
   60
  0
VERTEX
  8
back_piece
 62
   7
 10
0.0
 20
0.0
 30
0.0
 70
   128
 71
   66
 72
   30
 73
   65
  0
VERTEX
  8
back_piece
 62
   7
 10
0.0
 20
0.0
 30
0.0
 70
   128
 71
   24
 72
   23
 73
   59
  0
VERTEX
  8
back_piece
 62
   7
 10
0.0
 20
0.0
 30
0.0
 70
   128
 71
   65
 72
   29
 73
   64
  0
VERTEX
  8
back_piece
 62
   7
 10
0.0
 20
0.0
 30
0.0
 70
   128
 71
   23
 72
   22
 73
   58
  0
VERTEX
  8
back_piece
 62
   7
 10
0.0
 20
0.0
 30
0.0
 70
   128
 71
   64
 72
   28
 73
   63
  0
VERTEX
  8
back_piece
 62
   7
 10
0.0
 20
0.0
 30
0.0
 70
   128
 71
   22
 72
   21
 73
   57
  0
VERTEX
  8
back_piece
 62
   7
 10
0.0
 20
0.0
 30
0.0
 70
   128
 71
   63
 72
   27
 73
   62
  0
VERTEX
  8
back_piece
 62
   7
 10
0.0
 20
0.0
 30
0.0
 70
   128
 71
   21
 72
   20
 73
   56
  0
VERTEX
  8
back_piece
 62
   7
 10
0.0
 20
0.0
 30
0.0
 70
   128
 71
   62
 72
   26
 73
   61
  0
VERTEX
  8
back_piece
 62
   7
 10
0.0
 20
0.0
 30
0.0
 70
   128
 71
   20
 72
   19
 73
   55
  0
VERTEX
  8
back_piece
 62
   7
 10
0.0
 20
0.0
 30
0.0
 70
   128
 71
   61
 72
   25
 73
   60
  0
VERTEX
  8
back_piece
 62
   7
 10
0.0
 20
0.0
 30
0.0
 70
   128
 71
   19
 72
   18
 73
   54
  0
VERTEX
  8
back_piece
 62
   7
 10
0.0
 20
0.0
 30
0.0
 70
   128
 71
   60
 72
   24
 73
   59
  0
VERTEX
  8
back_piece
 62
   7
 10
0.0
 20
0.0
 30
0.0
 70
   128
 71
   18
 72
   17
 73
   53
  0
VERTEX
  8
back_piece
 62
   7
 10
0.0
 20
0.0
 30
0.0
 70
   128
 71
   59
 72
   23
 73
   58
  0
VERTEX
  8
back_piece
 62
   7
 10
0.0
 20
0.0
 30
0.0
 70
   128
 71
   58
 72
   22
 73
   57
  0
VERTEX
  8
back_piece
 62
   7
 10
0.0
 20
0.0
 30
0.0
 70
   128
 71
   57
 72
   21
 73
   56
  0
VERTEX
  8
back_piece
 62
   7
 10
0.0
 20
0.0
 30
0.0
 70
   128
 71
   56
 72
   20
 73
   55
  0
VERTEX
  8
back_piece
 62
   7
 10
0.0
 20
0.0
 30
0.0
 70
   128
 71
   55
 72
   19
 73
   54
  0
VERTEX
  8
back_piece
 62
   7
 10
0.0
 20
0.0
 30
0.0
 70
   128
 71
   54
 72
   18
 73
   53
  0
VERTEX
  8
back_piece
 62
   7
 10
0.0
 20
0.0
 30
0.0
 70
   128
 71
   53
 72
   17
 73
   52
  0
VERTEX
  8
back_piece
 62
   7
 10
0.0
 20
0.0
 30
0.0
 70
   128
 71
   12
 72
   11
 73
   47
  0
VERTEX
  8
back_piece
 62
   7
 10
0.0
 20
0.0
 30
0.0
 70
   128
 71
   52
 72
   16
 73
   51
  0
VERTEX
  8
back_piece
 62
   7
 10
0.0
 20
0.0
 30
0.0
 70
   128
 71
   11
 72
   10
 73
   46
  0
VERTEX
  8
back_piece
 62
   7
 10
0.0
 20
0.0
 30
0.0
 70
   128
 71
   51
 72
   15
 73
   50
  0
VERTEX
  8
back_piece
 62
   7
 10
0.0
 20
0.0
 30
0.0
 70
   128
 71
   10
 72
   9
 73
   45
  0
VERTEX
  8
back_piece
 62
   7
 10
0.0
 20
0.0
 30
0.0
 70
   128
 71
   50
 72
   14
 73
   49
  0
VERTEX
  8
back_piece
 62
   7
 10
0.0
 20
0.0
 30
0.0
 70
   128
 71
   48
 72
   12
 73
   47
  0
VERTEX
  8
back_piece
 62
   7
 10
0.0
 20
0.0
 30
0.0
 70
   128
 71
   47
 72
   11
 73
   46
  0
VERTEX
  8
back_piece
 62
   7
 10
0.0
 20
0.0
 30
0.0
 70
   128
 71
   46
 72
   10
 73
   45
  0
VERTEX
  8
back_piece
 62
   7
 10
0.0
 20
0.0
 30
0.0
 70
   128
 71
   45
 72
   9
 73
   44
  0
VERTEX
  8
back_piece
 62
   7
 10
0.0
 20
0.0
 30
0.0
 70
   128
 71
   44
 72
   8
 73
   43
  0
VERTEX
  8
back_piece
 62
   7
 10
0.0
 20
0.0
 30
0.0
 70
   128
 71
   43
 72
   7
 73
   42
  0
VERTEX
  8
back_piece
 62
   7
 10
0.0
 20
0.0
 30
0.0
 70
   128
 71
   42
 72
   6
 73
   41
  0
VERTEX
  8
back_piece
 62
   7
 10
0.0
 20
0.0
 30
0.0
 70
   128
 71
   41
 72
   5
 73
   40
  0
VERTEX
  8
back_piece
 62
   7
 10
0.0
 20
0.0
 30
0.0
 70
   128
 71
   2
 72
   75
 73
   40
  0
VERTEX
  8
back_piece
 62
   7
 10
0.0
 20
0.0
 30
0.0
 70
   128
 71
   40
 72
   76
 73
   41
  0
VERTEX
  8
back_piece
 62
   7
 10
0.0
 20
0.0
 30
0.0
 70
   128
 71
   41
 72
   77
 73
   42
  0
VERTEX
  8
back_piece
 62
   7
 10
0.0
 20
0.0
 30
0.0
 70
   128
 71
   42
 72
   78
 73
   43
  0
VERTEX
  8
back_piece
 62
   7
 10
0.0
 20
0.0
 30
0.0
 70
   128
 71
   43
 72
   79
 73
   44
  0
VERTEX
  8
back_piece
 62
   7
 10
0.0
 20
0.0
 30
0.0
 70
   128
 71
   44
 72
   80
 73
   45
  0
VERTEX
  8
back_piece
 62
   7
 10
0.0
 20
0.0
 30
0.0
 70
   128
 71
   45
 72
   81
 73
   46
  0
VERTEX
  8
back_piece
 62
   7
 10
0.0
 20
0.0
 30
0.0
 70
   128
 71
   46
 72
   82
 73
   47
  0
VERTEX
  8
back_piece
 62
   7
 10
0.0
 20
0.0
 30
0.0
 70
   128
 71
   47
 72
   83
 73
   48
  0
VERTEX
  8
back_piece
 62
   7
 10
0.0
 20
0.0
 30
0.0
 70
   128
 71
   48
 72
   84
 73
   49
  0
VERTEX
  8
back_piece
 62
   7
 10
0.0
 20
0.0
 30
0.0
 70
   128
 71
   49
 72
   85
 73
   50
  0
VERTEX
  8
back_piece
 62
   7
 10
0.0
 20
0.0
 30
0.0
 70
   128
 71
   50
 72
   86
 73
   51
  0
VERTEX
  8
back_piece
 62
   7
 10
0.0
 20
0.0
 30
0.0
 70
   128
 71
   51
 72
   87
 73
   52
  0
VERTEX
  8
back_piece
 62
   7
 10
0.0
 20
0.0
 30
0.0
 70
   128
 71
   52
 72
   88
 73
   53
  0
VERTEX
  8
back_piece
 62
   7
 10
0.0
 20
0.0
 30
0.0
 70
   128
 71
   53
 72
   89
 73
   54
  0
VERTEX
  8
back_piece
 62
   7
 10
0.0
 20
0.0
 30
0.0
 70
   128
 71
   54
 72
   90
 73
   55
  0
VERTEX
  8
back_piece
 62
   7
 10
0.0
 20
0.0
 30
0.0
 70
   128
 71
   55
 72
   91
 73
   56
  0
VERTEX
  8
back_piece
 62
   7
 10
0.0
 20
0.0
 30
0.0
 70
   128
 71
   56
 72
   92
 73
   57
  0
VERTEX
  8
back_piece
 62
   7
 10
0.0
 20
0.0
 30
0.0
 70
   128
 71
   57
 72
   93
 73
   58
  0
VERTEX
  8
back_piece
 62
   7
 10
0.0
 20
0.0
 30
0.0
 70
   128
 71
   58
 72
   94
 73
   59
  0
VERTEX
  8
back_piece
 62
   7
 10
0.0
 20
0.0
 30
0.0
 70
   128
 71
   59
 72
   95
 73
   60
  0
VERTEX
  8
back_piece
 62
   7
 10
0.0
 20
0.0
 30
0.0
 70
   128
 71
   60
 72
   96
 73
   61
  0
VERTEX
  8
back_piece
 62
   7
 10
0.0
 20
0.0
 30
0.0
 70
   128
 71
   61
 72
   97
 73
   62
  0
VERTEX
  8
back_piece
 62
   7
 10
0.0
 20
0.0
 30
0.0
 70
   128
 71
   62
 72
   98
 73
   63
  0
VERTEX
  8
back_piece
 62
   7
 10
0.0
 20
0.0
 30
0.0
 70
   128
 71
   63
 72
   99
 73
   64
  0
VERTEX
  8
back_piece
 62
   7
 10
0.0
 20
0.0
 30
0.0
 70
   128
 71
   64
 72
   100
 73
   65
  0
VERTEX
  8
back_piece
 62
   7
 10
0.0
 20
0.0
 30
0.0
 70
   128
 71
   65
 72
   101
 73
   66
  0
VERTEX
  8
back_piece
 62
   7
 10
0.0
 20
0.0
 30
0.0
 70
   128
 71
   66
 72
   102
 73
   67
  0
VERTEX
  8
back_piece
 62
   7
 10
0.0
 20
0.0
 30
0.0
 70
   128
 71
   67
 72
   103
 73
   68
  0
VERTEX
  8
back_piece
 62
   7
 10
0.0
 20
0.0
 30
0.0
 70
   128
 71
   68
 72
   104
 73
   69
  0
VERTEX
  8
back_piece
 62
   7
 10
0.0
 20
0.0
 30
0.0
 70
   128
 71
   69
 72
   105
 73
   70
  0
VERTEX
  8
back_piece
 62
   7
 10
0.0
 20
0.0
 30
0.0
 70
   128
 71
   70
 72
   106
 73
   71
  0
VERTEX
  8
back_piece
 62
   7
 10
0.0
 20
0.0
 30
0.0
 70
   128
 71
   71
 72
   107
 73
   72
  0
VERTEX
  8
back_piece
 62
   7
 10
0.0
 20
0.0
 30
0.0
 70
   128
 71
   72
 72
   108
 73
   73
  0
VERTEX
  8
back_piece
 62
   7
 10
0.0
 20
0.0
 30
0.0
 70
   128
 71
   73
 72
   109
 73
   74
  0
VERTEX
  8
back_piece
 62
   7
 10
0.0
 20
0.0
 30
0.0
 70
   128
 71
   74
 72
   3
 73
   2
  0
VERTEX
  8
back_piece
 62
   7
 10
0.0
 20
0.0
 30
0.0
 70
   128
 71
   3
 72
   74
 73
   109
  0
VERTEX
  8
back_piece
 62
   7
 10
0.0
 20
0.0
 30
0.0
 70
   128
 71
   109
 72
   73
 73
   108
  0
VERTEX
  8
back_piece
 62
   7
 10
0.0
 20
0.0
 30
0.0
 70
   128
 71
   108
 72
   72
 73
   107
  0
VERTEX
  8
back_piece
 62
   7
 10
0.0
 20
0.0
 30
0.0
 70
   128
 71
   107
 72
   71
 73
   106
  0
VERTEX
  8
back_piece
 62
   7
 10
0.0
 20
0.0
 30
0.0
 70
   128
 71
   106
 72
   70
 73
   105
  0
VERTEX
  8
back_piece
 62
   7
 10
0.0
 20
0.0
 30
0.0
 70
   128
 71
   105
 72
   69
 73
   104
  0
VERTEX
  8
back_piece
 62
   7
 10
0.0
 20
0.0
 30
0.0
 70
   128
 71
   104
 72
   68
 73
   103
  0
VERTEX
  8
back_piece
 62
   7
 10
0.0
 20
0.0
 30
0.0
 70
   128
 71
   103
 72
   67
 73
   102
  0
VERTEX
  8
back_piece
 62
   7
 10
0.0
 20
0.0
 30
0.0
 70
   128
 71
   102
 72
   66
 73
   101
  0
VERTEX
  8
back_piece
 62
   7
 10
0.0
 20
0.0
 30
0.0
 70
   128
 71
   101
 72
   65
 73
   100
  0
VERTEX
  8
back_piece
 62
   7
 10
0.0
 20
0.0
 30
0.0
 70
   128
 71
   100
 72
   64
 73
   99
  0
VERTEX
  8
back_piece
 62
   7
 10
0.0
 20
0.0
 30
0.0
 70
   128
 71
   99
 72
   63
 73
   98
  0
VERTEX
  8
back_piece
 62
   7
 10
0.0
 20
0.0
 30
0.0
 70
   128
 71
   98
 72
   62
 73
   97
  0
VERTEX
  8
back_piece
 62
   7
 10
0.0
 20
0.0
 30
0.0
 70
   128
 71
   97
 72
   61
 73
   96
  0
VERTEX
  8
back_piece
 62
   7
 10
0.0
 20
0.0
 30
0.0
 70
   128
 71
   96
 72
   60
 73
   95
  0
VERTEX
  8
back_piece
 62
   7
 10
0.0
 20
0.0
 30
0.0
 70
   128
 71
   95
 72
   59
 73
   94
  0
VERTEX
  8
back_piece
 62
   7
 10
0.0
 20
0.0
 30
0.0
 70
   128
 71
   94
 72
   58
 73
   93
  0
VERTEX
  8
back_piece
 62
   7
 10
0.0
 20
0.0
 30
0.0
 70
   128
 71
   93
 72
   57
 73
   92
  0
VERTEX
  8
back_piece
 62
   7
 10
0.0
 20
0.0
 30
0.0
 70
   128
 71
   92
 72
   56
 73
   91
  0
VERTEX
  8
back_piece
 62
   7
 10
0.0
 20
0.0
 30
0.0
 70
   128
 71
   91
 72
   55
 73
   90
  0
VERTEX
  8
back_piece
 62
   7
 10
0.0
 20
0.0
 30
0.0
 70
   128
 71
   90
 72
   54
 73
   89
  0
VERTEX
  8
back_piece
 62
   7
 10
0.0
 20
0.0
 30
0.0
 70
   128
 71
   89
 72
   53
 73
   88
  0
VERTEX
  8
back_piece
 62
   7
 10
0.0
 20
0.0
 30
0.0
 70
   128
 71
   88
 72
   52
 73
   87
  0
VERTEX
  8
back_piece
 62
   7
 10
0.0
 20
0.0
 30
0.0
 70
   128
 71
   87
 72
   51
 73
   86
  0
VERTEX
  8
back_piece
 62
   7
 10
0.0
 20
0.0
 30
0.0
 70
   128
 71
   86
 72
   50
 73
   85
  0
VERTEX
  8
back_piece
 62
   7
 10
0.0
 20
0.0
 30
0.0
 70
   128
 71
   85
 72
   49
 73
   84
  0
VERTEX
  8
back_piece
 62
   7
 10
0.0
 20
0.0
 30
0.0
 70
   128
 71
   84
 72
   48
 73
   83
  0
VERTEX
  8
back_piece
 62
   7
 10
0.0
 20
0.0
 30
0.0
 70
   128
 71
   83
 72
   47
 73
   82
  0
VERTEX
  8
back_piece
 62
   7
 10
0.0
 20
0.0
 30
0.0
 70
   128
 71
   82
 72
   46
 73
   81
  0
VERTEX
  8
back_piece
 62
   7
 10
0.0
 20
0.0
 30
0.0
 70
   128
 71
   81
 72
   45
 73
   80
  0
VERTEX
  8
back_piece
 62
   7
 10
0.0
 20
0.0
 30
0.0
 70
   128
 71
   80
 72
   44
 73
   79
  0
VERTEX
  8
back_piece
 62
   7
 10
0.0
 20
0.0
 30
0.0
 70
   128
 71
   79
 72
   43
 73
   78
  0
VERTEX
  8
back_piece
 62
   7
 10
0.0
 20
0.0
 30
0.0
 70
   128
 71
   78
 72
   42
 73
   77
  0
VERTEX
  8
back_piece
 62
   7
 10
0.0
 20
0.0
 30
0.0
 70
   128
 71
   77
 72
   41
 73
   76
  0
VERTEX
  8
back_piece
 62
   7
 10
0.0
 20
0.0
 30
0.0
 70
   128
 71
   76
 72
   40
 73
   75
  0
VERTEX
  8
back_piece
 62
   7
 10
0.0
 20
0.0
 30
0.0
 70
   128
 71
   75
 72
   2
 73
   3
  0
VERTEX
  8
back_piece
 62
   7
 10
0.0
 20
0.0
 30
0.0
 70
   128
 71
   4
 72
   3
 73
   144
  0
VERTEX
  8
back_piece
 62
   7
 10
0.0
 20
0.0
 30
0.0
 70
   128
 71
   144
 72
   3
 73
   109
  0
VERTEX
  8
back_piece
 62
   7
 10
0.0
 20
0.0
 30
0.0
 70
   128
 71
   143
 72
   144
 73
   108
  0
VERTEX
  8
back_piece
 62
   7
 10
0.0
 20
0.0
 30
0.0
 70
   128
 71
   142
 72
   143
 73
   107
  0
VERTEX
  8
back_piece
 62
   7
 10
0.0
 20
0.0
 30
0.0
 70
   128
 71
   138
 72
   139
 73
   103
  0
VERTEX
  8
back_piece
 62
   7
 10
0.0
 20
0.0
 30
0.0
 70
   128
 71
   136
 72
   137
 73
   101
  0
VERTEX
  8
back_piece
 62
   7
 10
0.0
 20
0.0
 30
0.0
 70
   128
 71
   127
 72
   128
 73
   92
  0
VERTEX
  8
back_piece
 62
   7
 10
0.0
 20
0.0
 30
0.0
 70
   128
 71
   125
 72
   126
 73
   90
  0
VERTEX
  8
back_piece
 62
   7
 10
0.0
 20
0.0
 30
0.0
 70
   128
 71
   117
 72
   118
 73
   82
  0
VERTEX
  8
back_piece
 62
   7
 10
0.0
 20
0.0
 30
0.0
 70
   128
 71
   116
 72
   117
 73
   81
  0
VERTEX
  8
back_piece
 62
   7
 10
0.0
 20
0.0
 30
0.0
 70
   128
 71
   115
 72
   116
 73
   80
  0
VERTEX
  8
back_piece
 62
   7
 10
0.0
 20
0.0
 30
0.0
 70
   128
 71
   112
 72
   113
 73
   77
  0
VERTEX
  8
back_piece
 62
   7
 10
0.0
 20
0.0
 30
0.0
 70
   128
 71
   4
 72
   110
 73
   3
  0
VERTEX
  8
back_piece
 62
   7
 10
0.0
 20
0.0
 30
0.0
 70
   128
 71
   111
 72
   112
 73
   76
  0
VERTEX
  8
back_piece
 62
   7
 10
0.0
 20
0.0
 30
0.0
 70
   128
 71
   103
 72
   139
 73
   104
  0
VERTEX
  8
back_piece
 62
   7
 10
0.0
 20
0.0
 30
0.0
 70
   128
 71
   110
 72
   111
 73
   75
  0
VERTEX
  8
back_piece
 62
   7
 10
0.0
 20
0.0
 30
0.0
 70
   128
 71
   113
 72
   114
 73
   78
  0
VERTEX
  8
back_piece
 62
   7
 10
0.0
 20
0.0
 30
0.0
 70
   128
 71
   3
 72
   110
 73
   75
  0
VERTEX
  8
back_piece
 62
   7
 10
0.0
 20
0.0
 30
0.0
 70
   128
 71
   114
 72
   115
 73
   79
  0
VERTEX
  8
back_piece
 62
   7
 10
0.0
 20
0.0
 30
0.0
 70
   128
 71
   75
 72
   111
 73
   76
  0
VERTEX
  8
back_piece
 62
   7
 10
0.0
 20
0.0
 30
0.0
 70
   128
 71
   76
 72
   112
 73
   77
  0
VERTEX
  8
back_piece
 62
   7
 10
0.0
 20
0.0
 30
0.0
 70
   128
 71
   77
 72
   113
 73
   78
  0
VERTEX
  8
back_piece
 62
   7
 10
0.0
 20
0.0
 30
0.0
 70
   128
 71
   78
 72
   114
 73
   79
  0
VERTEX
  8
back_piece
 62
   7
 10
0.0
 20
0.0
 30
0.0
 70
   128
 71
   79
 72
   115
 73
   80
  0
VERTEX
  8
back_piece
 62
   7
 10
0.0
 20
0.0
 30
0.0
 70
   128
 71
   118
 72
   119
 73
   83
  0
VERTEX
  8
back_piece
 62
   7
 10
0.0
 20
0.0
 30
0.0
 70
   128
 71
   80
 72
   116
 73
   81
  0
VERTEX
  8
back_piece
 62
   7
 10
0.0
 20
0.0
 30
0.0
 70
   128
 71
   119
 72
   120
 73
   84
  0
VERTEX
  8
back_piece
 62
   7
 10
0.0
 20
0.0
 30
0.0
 70
   128
 71
   81
 72
   117
 73
   82
  0
VERTEX
  8
back_piece
 62
   7
 10
0.0
 20
0.0
 30
0.0
 70
   128
 71
   120
 72
   121
 73
   85
  0
VERTEX
  8
back_piece
 62
   7
 10
0.0
 20
0.0
 30
0.0
 70
   128
 71
   82
 72
   118
 73
   83
  0
VERTEX
  8
back_piece
 62
   7
 10
0.0
 20
0.0
 30
0.0
 70
   128
 71
   121
 72
   122
 73
   86
  0
VERTEX
  8
back_piece
 62
   7
 10
0.0
 20
0.0
 30
0.0
 70
   128
 71
   83
 72
   119
 73
   84
  0
VERTEX
  8
back_piece
 62
   7
 10
0.0
 20
0.0
 30
0.0
 70
   128
 71
   122
 72
   123
 73
   87
  0
VERTEX
  8
back_piece
 62
   7
 10
0.0
 20
0.0
 30
0.0
 70
   128
 71
   84
 72
   120
 73
   85
  0
VERTEX
  8
back_piece
 62
   7
 10
0.0
 20
0.0
 30
0.0
 70
   128
 71
   123
 72
   124
 73
   88
  0
VERTEX
  8
back_piece
 62
   7
 10
0.0
 20
0.0
 30
0.0
 70
   128
 71
   85
 72
   121
 73
   86
  0
VERTEX
  8
back_piece
 62
   7
 10
0.0
 20
0.0
 30
0.0
 70
   128
 71
   124
 72
   125
 73
   89
  0
VERTEX
  8
back_piece
 62
   7
 10
0.0
 20
0.0
 30
0.0
 70
   128
 71
   86
 72
   122
 73
   87
  0
VERTEX
  8
back_piece
 62
   7
 10
0.0
 20
0.0
 30
0.0
 70
   128
 71
   126
 72
   127
 73
   91
  0
VERTEX
  8
back_piece
 62
   7
 10
0.0
 20
0.0
 30
0.0
 70
   128
 71
   87
 72
   123
 73
   88
  0
VERTEX
  8
back_piece
 62
   7
 10
0.0
 20
0.0
 30
0.0
 70
   128
 71
   88
 72
   124
 73
   89
  0
VERTEX
  8
back_piece
 62
   7
 10
0.0
 20
0.0
 30
0.0
 70
   128
 71
   89
 72
   125
 73
   90
  0
VERTEX
  8
back_piece
 62
   7
 10
0.0
 20
0.0
 30
0.0
 70
   128
 71
   128
 72
   129
 73
   93
  0
VERTEX
  8
back_piece
 62
   7
 10
0.0
 20
0.0
 30
0.0
 70
   128
 71
   90
 72
   126
 73
   91
  0
VERTEX
  8
back_piece
 62
   7
 10
0.0
 20
0.0
 30
0.0
 70
   128
 71
   129
 72
   130
 73
   94
  0
VERTEX
  8
back_piece
 62
   7
 10
0.0
 20
0.0
 30
0.0
 70
   128
 71
   91
 72
   127
 73
   92
  0
VERTEX
  8
back_piece
 62
   7
 10
0.0
 20
0.0
 30
0.0
 70
   128
 71
   130
 72
   131
 73
   95
  0
VERTEX
  8
back_piece
 62
   7
 10
0.0
 20
0.0
 30
0.0
 70
   128
 71
   92
 72
   128
 73
   93
  0
VERTEX
  8
back_piece
 62
   7
 10
0.0
 20
0.0
 30
0.0
 70
   128
 71
   131
 72
   132
 73
   96
  0
VERTEX
  8
back_piece
 62
   7
 10
0.0
 20
0.0
 30
0.0
 70
   128
 71
   93
 72
   129
 73
   94
  0
VERTEX
  8
back_piece
 62
   7
 10
0.0
 20
0.0
 30
0.0
 70
   128
 71
   132
 72
   133
 73
   97
  0
VERTEX
  8
back_piece
 62
   7
 10
0.0
 20
0.0
 30
0.0
 70
   128
 71
   94
 72
   130
 73
   95
  0
VERTEX
  8
back_piece
 62
   7
 10
0.0
 20
0.0
 30
0.0
 70
   128
 71
   133
 72
   134
 73
   98
  0
VERTEX
  8
back_piece
 62
   7
 10
0.0
 20
0.0
 30
0.0
 70
   128
 71
   95
 72
   131
 73
   96
  0
VERTEX
  8
back_piece
 62
   7
 10
0.0
 20
0.0
 30
0.0
 70
   128
 71
   134
 72
   135
 73
   99
  0
VERTEX
  8
back_piece
 62
   7
 10
0.0
 20
0.0
 30
0.0
 70
   128
 71
   96
 72
   132
 73
   97
  0
VERTEX
  8
back_piece
 62
   7
 10
0.0
 20
0.0
 30
0.0
 70
   128
 71
   135
 72
   136
 73
   100
  0
VERTEX
  8
back_piece
 62
   7
 10
0.0
 20
0.0
 30
0.0
 70
   128
 71
   97
 72
   133
 73
   98
  0
VERTEX
  8
back_piece
 62
   7
 10
0.0
 20
0.0
 30
0.0
 70
   128
 71
   137
 72
   138
 73
   102
  0
VERTEX
  8
back_piece
 62
   7
 10
0.0
 20
0.0
 30
0.0
 70
   128
 71
   98
 72
   134
 73
   99
  0
VERTEX
  8
back_piece
 62
   7
 10
0.0
 20
0.0
 30
0.0
 70
   128
 71
   99
 72
   135
 73
   100
  0
VERTEX
  8
back_piece
 62
   7
 10
0.0
 20
0.0
 30
0.0
 70
   128
 71
   139
 72
   140
 73
   104
  0
VERTEX
  8
back_piece
 62
   7
 10
0.0
 20
0.0
 30
0.0
 70
   128
 71
   100
 72
   136
 73
   101
  0
VERTEX
  8
back_piece
 62
   7
 10
0.0
 20
0.0
 30
0.0
 70
   128
 71
   140
 72
   141
 73
   105
  0
VERTEX
  8
back_piece
 62
   7
 10
0.0
 20
0.0
 30
0.0
 70
   128
 71
   101
 72
   137
 73
   102
  0
VERTEX
  8
back_piece
 62
   7
 10
0.0
 20
0.0
 30
0.0
 70
   128
 71
   141
 72
   142
 73
   106
  0
VERTEX
  8
back_piece
 62
   7
 10
0.0
 20
0.0
 30
0.0
 70
   128
 71
   102
 72
   138
 73
   103
  0
VERTEX
  8
back_piece
 62
   7
 10
0.0
 20
0.0
 30
0.0
 70
   128
 71
   104
 72
   140
 73
   105
  0
VERTEX
  8
back_piece
 62
   7
 10
0.0
 20
0.0
 30
0.0
 70
   128
 71
   105
 72
   141
 73
   106
  0
VERTEX
  8
back_piece
 62
   7
 10
0.0
 20
0.0
 30
0.0
 70
   128
 71
   106
 72
   142
 73
   107
  0
VERTEX
  8
back_piece
 62
   7
 10
0.0
 20
0.0
 30
0.0
 70
   128
 71
   107
 72
   143
 73
   108
  0
VERTEX
  8
back_piece
 62
   7
 10
0.0
 20
0.0
 30
0.0
 70
   128
 71
   108
 72
   144
 73
   109
  0
VERTEX
  8
back_piece
 62
   7
 10
0.0
 20
0.0
 30
0.0
 70
   128
 71
   1
 72
   5
 73
   110
  0
VERTEX
  8
back_piece
 62
   7
 10
0.0
 20
0.0
 30
0.0
 70
   128
 71
   5
 72
   6
 73
   111
  0
VERTEX
  8
back_piece
 62
   7
 10
0.0
 20
0.0
 30
0.0
 70
   128
 71
   6
 72
   7
 73
   112
  0
VERTEX
  8
back_piece
 62
   7
 10
0.0
 20
0.0
 30
0.0
 70
   128
 71
   7
 72
   8
 73
   113
  0
VERTEX
  8
back_piece
 62
   7
 10
0.0
 20
0.0
 30
0.0
 70
   128
 71
   8
 72
   9
 73
   114
  0
VERTEX
  8
back_piece
 62
   7
 10
0.0
 20
0.0
 30
0.0
 70
   128
 71
   9
 72
   10
 73
   115
  0
VERTEX
  8
back_piece
 62
   7
 10
0.0
 20
0.0
 30
0.0
 70
   128
 71
   10
 72
   11
 73
   116
  0
VERTEX
  8
back_piece
 62
   7
 10
0.0
 20
0.0
 30
0.0
 70
   128
 71
   11
 72
   12
 73
   117
  0
VERTEX
  8
back_piece
 62
   7
 10
0.0
 20
0.0
 30
0.0
 70
   128
 71
   12
 72
   13
 73
   118
  0
VERTEX
  8
back_piece
 62
   7
 10
0.0
 20
0.0
 30
0.0
 70
   128
 71
   13
 72
   14
 73
   119
  0
VERTEX
  8
back_piece
 62
   7
 10
0.0
 20
0.0
 30
0.0
 70
   128
 71
   14
 72
   15
 73
   120
  0
VERTEX
  8
back_piece
 62
   7
 10
0.0
 20
0.0
 30
0.0
 70
   128
 71
   15
 72
   16
 73
   121
  0
VERTEX
  8
back_piece
 62
   7
 10
0.0
 20
0.0
 30
0.0
 70
   128
 71
   16
 72
   17
 73
   122
  0
VERTEX
  8
back_piece
 62
   7
 10
0.0
 20
0.0
 30
0.0
 70
   128
 71
   17
 72
   18
 73
   123
  0
VERTEX
  8
back_piece
 62
   7
 10
0.0
 20
0.0
 30
0.0
 70
   128
 71
   18
 72
   19
 73
   124
  0
VERTEX
  8
back_piece
 62
   7
 10
0.0
 20
0.0
 30
0.0
 70
   128
 71
   19
 72
   20
 73
   125
  0
VERTEX
  8
back_piece
 62
   7
 10
0.0
 20
0.0
 30
0.0
 70
   128
 71
   20
 72
   21
 73
   126
  0
VERTEX
  8
back_piece
 62
   7
 10
0.0
 20
0.0
 30
0.0
 70
   128
 71
   21
 72
   22
 73
   127
  0
VERTEX
  8
back_piece
 62
   7
 10
0.0
 20
0.0
 30
0.0
 70
   128
 71
   22
 72
   23
 73
   128
  0
VERTEX
  8
back_piece
 62
   7
 10
0.0
 20
0.0
 30
0.0
 70
   128
 71
   23
 72
   24
 73
   129
  0
VERTEX
  8
back_piece
 62
   7
 10
0.0
 20
0.0
 30
0.0
 70
   128
 71
   24
 72
   25
 73
   130
  0
VERTEX
  8
back_piece
 62
   7
 10
0.0
 20
0.0
 30
0.0
 70
   128
 71
   25
 72
   26
 73
   131
  0
VERTEX
  8
back_piece
 62
   7
 10
0.0
 20
0.0
 30
0.0
 70
   128
 71
   26
 72
   27
 73
   132
  0
VERTEX
  8
back_piece
 62
   7
 10
0.0
 20
0.0
 30
0.0
 70
   128
 71
   27
 72
   28
 73
   133
  0
VERTEX
  8
back_piece
 62
   7
 10
0.0
 20
0.0
 30
0.0
 70
   128
 71
   28
 72
   29
 73
   134
  0
VERTEX
  8
back_piece
 62
   7
 10
0.0
 20
0.0
 30
0.0
 70
   128
 71
   29
 72
   30
 73
   135
  0
VERTEX
  8
back_piece
 62
   7
 10
0.0
 20
0.0
 30
0.0
 70
   128
 71
   30
 72
   31
 73
   136
  0
VERTEX
  8
back_piece
 62
   7
 10
0.0
 20
0.0
 30
0.0
 70
   128
 71
   31
 72
   32
 73
   137
  0
VERTEX
  8
back_piece
 62
   7
 10
0.0
 20
0.0
 30
0.0
 70
   128
 71
   32
 72
   33
 73
   138
  0
VERTEX
  8
back_piece
 62
   7
 10
0.0
 20
0.0
 30
0.0
 70
   128
 71
   33
 72
   34
 73
   139
  0
VERTEX
  8
back_piece
 62
   7
 10
0.0
 20
0.0
 30
0.0
 70
   128
 71
   34
 72
   35
 73
   140
  0
VERTEX
  8
back_piece
 62
   7
 10
0.0
 20
0.0
 30
0.0
 70
   128
 71
   35
 72
   36
 73
   141
  0
VERTEX
  8
back_piece
 62
   7
 10
0.0
 20
0.0
 30
0.0
 70
   128
 71
   36
 72
   37
 73
   142
  0
VERTEX
  8
back_piece
 62
   7
 10
0.0
 20
0.0
 30
0.0
 70
   128
 71
   37
 72
   38
 73
   143
  0
VERTEX
  8
back_piece
 62
   7
 10
0.0
 20
0.0
 30
0.0
 70
   128
 71
   38
 72
   39
 73
   144
  0
VERTEX
  8
back_piece
 62
   7
 10
0.0
 20
0.0
 30
0.0
 70
   128
 71
   39
 72
   1
 73
   4
  0
VERTEX
  8
back_piece
 62
   7
 10
0.0
 20
0.0
 30
0.0
 70
   128
 71
   39
 72
   4
 73
   144
  0
VERTEX
  8
back_piece
 62
   7
 10
0.0
 20
0.0
 30
0.0
 70
   128
 71
   38
 72
   144
 73
   143
  0
VERTEX
  8
back_piece
 62
   7
 10
0.0
 20
0.0
 30
0.0
 70
   128
 71
   37
 72
   143
 73
   142
  0
VERTEX
  8
back_piece
 62
   7
 10
0.0
 20
0.0
 30
0.0
 70
   128
 71
   36
 72
   142
 73
   141
  0
VERTEX
  8
back_piece
 62
   7
 10
0.0
 20
0.0
 30
0.0
 70
   128
 71
   35
 72
   141
 73
   140
  0
VERTEX
  8
back_piece
 62
   7
 10
0.0
 20
0.0
 30
0.0
 70
   128
 71
   34
 72
   140
 73
   139
  0
VERTEX
  8
back_piece
 62
   7
 10
0.0
 20
0.0
 30
0.0
 70
   128
 71
   33
 72
   139
 73
   138
  0
VERTEX
  8
back_piece
 62
   7
 10
0.0
 20
0.0
 30
0.0
 70
   128
 71
   32
 72
   138
 73
   137
  0
VERTEX
  8
back_piece
 62
   7
 10
0.0
 20
0.0
 30
0.0
 70
   128
 71
   31
 72
   137
 73
   136
  0
VERTEX
  8
back_piece
 62
   7
 10
0.0
 20
0.0
 30
0.0
 70
   128
 71
   30
 72
   136
 73
   135
  0
VERTEX
  8
back_piece
 62
   7
 10
0.0
 20
0.0
 30
0.0
 70
   128
 71
   29
 72
   135
 73
   134
  0
VERTEX
  8
back_piece
 62
   7
 10
0.0
 20
0.0
 30
0.0
 70
   128
 71
   28
 72
   134
 73
   133
  0
VERTEX
  8
back_piece
 62
   7
 10
0.0
 20
0.0
 30
0.0
 70
   128
 71
   27
 72
   133
 73
   132
  0
VERTEX
  8
back_piece
 62
   7
 10
0.0
 20
0.0
 30
0.0
 70
   128
 71
   26
 72
   132
 73
   131
  0
VERTEX
  8
back_piece
 62
   7
 10
0.0
 20
0.0
 30
0.0
 70
   128
 71
   25
 72
   131
 73
   130
  0
VERTEX
  8
back_piece
 62
   7
 10
0.0
 20
0.0
 30
0.0
 70
   128
 71
   24
 72
   130
 73
   129
  0
VERTEX
  8
back_piece
 62
   7
 10
0.0
 20
0.0
 30
0.0
 70
   128
 71
   23
 72
   129
 73
   128
  0
VERTEX
  8
back_piece
 62
   7
 10
0.0
 20
0.0
 30
0.0
 70
   128
 71
   22
 72
   128
 73
   127
  0
VERTEX
  8
back_piece
 62
   7
 10
0.0
 20
0.0
 30
0.0
 70
   128
 71
   21
 72
   127
 73
   126
  0
VERTEX
  8
back_piece
 62
   7
 10
0.0
 20
0.0
 30
0.0
 70
   128
 71
   20
 72
   126
 73
   125
  0
VERTEX
  8
back_piece
 62
   7
 10
0.0
 20
0.0
 30
0.0
 70
   128
 71
   19
 72
   125
 73
   124
  0
VERTEX
  8
back_piece
 62
   7
 10
0.0
 20
0.0
 30
0.0
 70
   128
 71
   18
 72
   124
 73
   123
  0
VERTEX
  8
back_piece
 62
   7
 10
0.0
 20
0.0
 30
0.0
 70
   128
 71
   17
 72
   123
 73
   122
  0
VERTEX
  8
back_piece
 62
   7
 10
0.0
 20
0.0
 30
0.0
 70
   128
 71
   16
 72
   122
 73
   121
  0
VERTEX
  8
back_piece
 62
   7
 10
0.0
 20
0.0
 30
0.0
 70
   128
 71
   15
 72
   121
 73
   120
  0
VERTEX
  8
back_piece
 62
   7
 10
0.0
 20
0.0
 30
0.0
 70
   128
 71
   14
 72
   120
 73
   119
  0
VERTEX
  8
back_piece
 62
   7
 10
0.0
 20
0.0
 30
0.0
 70
   128
 71
   13
 72
   119
 73
   118
  0
VERTEX
  8
back_piece
 62
   7
 10
0.0
 20
0.0
 30
0.0
 70
   128
 71
   12
 72
   118
 73
   117
  0
VERTEX
  8
back_piece
 62
   7
 10
0.0
 20
0.0
 30
0.0
 70
   128
 71
   11
 72
   117
 73
   116
  0
VERTEX
  8
back_piece
 62
   7
 10
0.0
 20
0.0
 30
0.0
 70
   128
 71
   10
 72
   116
 73
   115
  0
VERTEX
  8
back_piece
 62
   7
 10
0.0
 20
0.0
 30
0.0
 70
   128
 71
   9
 72
   115
 73
   114
  0
VERTEX
  8
back_piece
 62
   7
 10
0.0
 20
0.0
 30
0.0
 70
   128
 71
   8
 72
   114
 73
   113
  0
VERTEX
  8
back_piece
 62
   7
 10
0.0
 20
0.0
 30
0.0
 70
   128
 71
   7
 72
   113
 73
   112
  0
VERTEX
  8
back_piece
 62
   7
 10
0.0
 20
0.0
 30
0.0
 70
   128
 71
   6
 72
   112
 73
   111
  0
VERTEX
  8
back_piece
 62
   7
 10
0.0
 20
0.0
 30
0.0
 70
   128
 71
   5
 72
   111
 73
   110
  0
VERTEX
  8
back_piece
 62
   7
 10
0.0
 20
0.0
 30
0.0
 70
   128
 71
   1
 72
   110
 73
   4
  0
SEQEND
  0
ENDSEC
  0
EOF
