999
FBX AutoCAD (*.DXF) exporter
  0
SECTION
  2
HEADER
  9
$ACADVER
  1
AC1008
  9
$UCSORG
 10
0.0
 20
0.0
 30
0.0
  9
$UCSXDIR
 10
1.0
 20
0.0
 30
0.0
  9
$TILEMODE
 70
   1
  9
$UCSYDIR
 10
0.0
 20
1.0
 30
0.0
  0
ENDSEC
  0
SECTION
  2
TABLES
  0
TABLE
  2
LTYPE
 70
   1
  0
LTYPE
  2
CONTINUOUS
 70
   64
  3
Solid line
 72
   65
 73
   0
 40
0.0
  0
ENDTAB
  0
TABLE
  2
LAYER
 70
   1
  0
LAYER
  2
base_support
 70
   0
 62
   254
  6
CONTINUOUS
  0
ENDTAB
  0
ENDSEC
  0
SECTION
  2
BLOCKS
  0
ENDSEC
  0
SECTION
  2
ENTITIES
  0
POLYLINE
  8
base_support
 62
   254
 66
   1
 10
0.0
 20
0.0
 30
0.0
 70
   64
 71
   658
 72
   1320
  0
VERTEX
  8
base_support
 10
5.310514
 20
-1.622800
 30
-7.591594
 70
   192
  0
VERTEX
  8
base_support
 10
5.310514
 20
-1.622800
 30
-9.206594
 70
   192
  0
VERTEX
  8
base_support
 10
5.610514
 20
-1.622800
 30
-7.591594
 70
   192
  0
VERTEX
  8
base_support
 10
5.610514
 20
-1.622800
 30
-9.506594
 70
   192
  0
VERTEX
  8
base_support
 10
-1.241714
 20
-1.622800
 30
-9.506594
 70
   192
  0
VERTEX
  8
base_support
 10
-1.241714
 20
-1.622800
 30
-1.495594
 70
   192
  0
VERTEX
  8
base_support
 10
-0.941714
 20
-1.622800
 30
-1.495594
 70
   192
  0
VERTEX
  8
base_support
 10
-0.941714
 20
-1.622800
 30
-9.206594
 70
   192
  0
VERTEX
  8
base_support
 10
5.310514
 20
-4.422800
 30
-7.591594
 70
   192
  0
VERTEX
  8
base_support
 10
5.310514
 20
-4.422800
 30
-9.206594
 70
   192
  0
VERTEX
  8
base_support
 10
1.753398
 20
-4.422800
 30
-1.495594
 70
   192
  0
VERTEX
  8
base_support
 10
2.615402
 20
-4.422800
 30
-1.495594
 70
   192
  0
VERTEX
  8
base_support
 10
1.753398
 20
-4.622800
 30
-1.495594
 70
   192
  0
VERTEX
  8
base_support
 10
2.615402
 20
-4.622800
 30
-1.495594
 70
   192
  0
VERTEX
  8
base_support
 10
-1.241714
 20
0.605038
 30
-1.495594
 70
   192
  0
VERTEX
  8
base_support
 10
-1.219120
 20
0.610434
 30
-1.495594
 70
   192
  0
VERTEX
  8
base_support
 10
-1.020905
 20
0.610434
 30
-1.495594
 70
   192
  0
VERTEX
  8
base_support
 10
-0.971836
 20
0.546486
 30
-1.495594
 70
   192
  0
VERTEX
  8
base_support
 10
-1.031723
 20
0.322985
 30
-1.495594
 70
   192
  0
VERTEX
  8
base_support
 10
-1.054916
 20
0.308540
 30
-1.495594
 70
   192
  0
VERTEX
  8
base_support
 10
-1.078450
 20
0.292591
 30
-1.495594
 70
   192
  0
VERTEX
  8
base_support
 10
-1.083198
 20
0.241300
 30
-1.495594
 70
   192
  0
VERTEX
  8
base_support
 10
-0.817103
 20
-0.037783
 30
-1.495594
 70
   192
  0
VERTEX
  8
base_support
 10
-0.803798
 20
-0.025097
 30
-1.495594
 70
   192
  0
VERTEX
  8
base_support
 10
-0.803798
 20
-0.012700
 30
-1.495594
 70
   192
  0
VERTEX
  8
base_support
 10
-0.791098
 20
-0.000000
 30
-1.495594
 70
   192
  0
VERTEX
  8
base_support
 10
-0.562498
 20
0.000000
 30
-1.495594
 70
   192
  0
VERTEX
  8
base_support
 10
-0.549798
 20
-0.012700
 30
-1.495594
 70
   192
  0
VERTEX
  8
base_support
 10
-0.549798
 20
-0.032070
 30
-1.495594
 70
   192
  0
VERTEX
  8
base_support
 10
-0.545126
 20
-0.041911
 30
-1.495594
 70
   192
  0
VERTEX
  8
base_support
 10
-0.038100
 20
-0.041911
 30
-1.495594
 70
   192
  0
VERTEX
  8
base_support
 10
-0.038100
 20
-0.850681
 30
-1.495594
 70
   192
  0
VERTEX
  8
base_support
 10
4.406886
 20
-0.850681
 30
-1.495594
 70
   192
  0
VERTEX
  8
base_support
 10
4.406900
 20
-0.041911
 30
-1.495594
 70
   192
  0
VERTEX
  8
base_support
 10
4.913926
 20
-0.041911
 30
-1.495594
 70
   192
  0
VERTEX
  8
base_support
 10
4.918598
 20
-0.032070
 30
-1.495594
 70
   192
  0
VERTEX
  8
base_support
 10
4.918598
 20
-0.012700
 30
-1.495594
 70
   192
  0
VERTEX
  8
base_support
 10
4.931298
 20
0.000000
 30
-1.495594
 70
   192
  0
VERTEX
  8
base_support
 10
5.159898
 20
-0.000000
 30
-1.495594
 70
   192
  0
VERTEX
  8
base_support
 10
5.172598
 20
-0.012700
 30
-1.495594
 70
   192
  0
VERTEX
  8
base_support
 10
5.172598
 20
-0.025097
 30
-1.495594
 70
   192
  0
VERTEX
  8
base_support
 10
5.185903
 20
-0.037783
 30
-1.495594
 70
   192
  0
VERTEX
  8
base_support
 10
5.451998
 20
0.241300
 30
-1.495594
 70
   192
  0
VERTEX
  8
base_support
 10
5.447250
 20
0.292591
 30
-1.495594
 70
   192
  0
VERTEX
  8
base_support
 10
5.423716
 20
0.308540
 30
-1.495594
 70
   192
  0
VERTEX
  8
base_support
 10
5.400523
 20
0.322985
 30
-1.495594
 70
   192
  0
VERTEX
  8
base_support
 10
5.340636
 20
0.546486
 30
-1.495594
 70
   192
  0
VERTEX
  8
base_support
 10
5.389705
 20
0.610434
 30
-1.495594
 70
   192
  0
VERTEX
  8
base_support
 10
5.587920
 20
0.610434
 30
-1.495594
 70
   192
  0
VERTEX
  8
base_support
 10
5.610514
 20
0.605038
 30
-1.495594
 70
   192
  0
VERTEX
  8
base_support
 10
5.610514
 20
-1.622800
 30
-1.495594
 70
   192
  0
VERTEX
  8
base_support
 10
5.310514
 20
-1.622800
 30
-1.495594
 70
   192
  0
VERTEX
  8
base_support
 10
5.310514
 20
-4.422800
 30
-1.495594
 70
   192
  0
VERTEX
  8
base_support
 10
2.615402
 20
-1.955800
 30
-1.495594
 70
   192
  0
VERTEX
  8
base_support
 10
1.753398
 20
-1.955800
 30
-1.495594
 70
   192
  0
VERTEX
  8
base_support
 10
-0.941714
 20
-4.422800
 30
-1.495594
 70
   192
  0
VERTEX
  8
base_support
 10
5.610514
 20
-4.622800
 30
-9.506594
 70
   192
  0
VERTEX
  8
base_support
 10
-1.241714
 20
-4.622800
 30
-9.506594
 70
   192
  0
VERTEX
  8
base_support
 10
5.610514
 20
-4.622800
 30
0.044406
 70
   192
  0
VERTEX
  8
base_support
 10
4.975514
 20
-4.622800
 30
-0.082594
 70
   192
  0
VERTEX
  8
base_support
 10
4.975514
 20
-4.622800
 30
0.806406
 70
   192
  0
VERTEX
  8
base_support
 10
5.610514
 20
-4.622800
 30
0.679406
 70
   192
  0
VERTEX
  8
base_support
 10
5.610514
 20
-4.622800
 30
1.936793
 70
   192
  0
VERTEX
  8
base_support
 10
4.975514
 20
-4.622800
 30
1.809793
 70
   192
  0
VERTEX
  8
base_support
 10
4.975514
 20
-4.622800
 30
2.698793
 70
   192
  0
VERTEX
  8
base_support
 10
5.610514
 20
-4.622800
 30
2.571793
 70
   192
  0
VERTEX
  8
base_support
 10
5.610514
 20
-4.622800
 30
5.111793
 70
   192
  0
VERTEX
  8
base_support
 10
-1.241714
 20
-4.622800
 30
5.111793
 70
   192
  0
VERTEX
  8
base_support
 10
-1.241714
 20
-4.622800
 30
2.571793
 70
   192
  0
VERTEX
  8
base_support
 10
-0.606714
 20
-4.622800
 30
2.698793
 70
   192
  0
VERTEX
  8
base_support
 10
-0.606714
 20
-4.622800
 30
1.809793
 70
   192
  0
VERTEX
  8
base_support
 10
-1.241714
 20
-4.622800
 30
1.936793
 70
   192
  0
VERTEX
  8
base_support
 10
-1.241714
 20
-4.622800
 30
0.679406
 70
   192
  0
VERTEX
  8
base_support
 10
-0.606714
 20
-4.622800
 30
0.806406
 70
   192
  0
VERTEX
  8
base_support
 10
-0.606714
 20
-4.622800
 30
-0.082594
 70
   192
  0
VERTEX
  8
base_support
 10
-1.241714
 20
-4.622800
 30
0.044406
 70
   192
  0
VERTEX
  8
base_support
 10
2.615402
 20
-4.622800
 30
0.298406
 70
   192
  0
VERTEX
  8
base_support
 10
1.753398
 20
-4.622800
 30
0.298406
 70
   192
  0
VERTEX
  8
base_support
 10
1.118398
 20
-4.622800
 30
0.298406
 70
   192
  0
VERTEX
  8
base_support
 10
1.118398
 20
-4.622800
 30
4.412409
 70
   192
  0
VERTEX
  8
base_support
 10
3.250402
 20
-4.622800
 30
4.412409
 70
   192
  0
VERTEX
  8
base_support
 10
3.250402
 20
-4.622800
 30
0.298406
 70
   192
  0
VERTEX
  8
base_support
 10
-1.241714
 20
-3.733800
 30
0.044406
 70
   192
  0
VERTEX
  8
base_support
 10
-1.241714
 20
-3.733800
 30
0.679406
 70
   192
  0
VERTEX
  8
base_support
 10
-1.241714
 20
-3.733800
 30
1.936793
 70
   192
  0
VERTEX
  8
base_support
 10
-1.241714
 20
-3.733800
 30
2.571793
 70
   192
  0
VERTEX
  8
base_support
 10
-1.241714
 20
0.605038
 30
5.111793
 70
   192
  0
VERTEX
  8
base_support
 10
5.610514
 20
-4.422800
 30
-7.591594
 70
   192
  0
VERTEX
  8
base_support
 10
5.610514
 20
-4.422800
 30
-2.511594
 70
   192
  0
VERTEX
  8
base_support
 10
5.610514
 20
-1.622800
 30
-2.511594
 70
   192
  0
VERTEX
  8
base_support
 10
5.610514
 20
0.605038
 30
5.111793
 70
   192
  0
VERTEX
  8
base_support
 10
5.610514
 20
-3.733800
 30
2.571793
 70
   192
  0
VERTEX
  8
base_support
 10
5.610514
 20
-3.733800
 30
1.936793
 70
   192
  0
VERTEX
  8
base_support
 10
5.610514
 20
-3.733800
 30
0.679406
 70
   192
  0
VERTEX
  8
base_support
 10
5.610514
 20
-3.733800
 30
0.044406
 70
   192
  0
VERTEX
  8
base_support
 10
3.250402
 20
-0.850681
 30
0.298406
 70
   192
  0
VERTEX
  8
base_support
 10
2.615402
 20
-0.850681
 30
0.298406
 70
   192
  0
VERTEX
  8
base_support
 10
4.406900
 20
-0.041911
 30
5.111793
 70
   192
  0
VERTEX
  8
base_support
 10
4.913926
 20
-0.041911
 30
5.111793
 70
   192
  0
VERTEX
  8
base_support
 10
4.406886
 20
-0.850681
 30
5.111793
 70
   192
  0
VERTEX
  8
base_support
 10
-0.038100
 20
-0.850681
 30
5.111793
 70
   192
  0
VERTEX
  8
base_support
 10
-0.038100
 20
-0.041911
 30
5.111793
 70
   192
  0
VERTEX
  8
base_support
 10
-0.545126
 20
-0.041911
 30
5.111793
 70
   192
  0
VERTEX
  8
base_support
 10
-0.549798
 20
-0.032070
 30
5.111793
 70
   192
  0
VERTEX
  8
base_support
 10
-0.549798
 20
-0.012700
 30
5.111793
 70
   192
  0
VERTEX
  8
base_support
 10
-0.562498
 20
-0.000000
 30
5.111793
 70
   192
  0
VERTEX
  8
base_support
 10
-0.791098
 20
0.000000
 30
5.111793
 70
   192
  0
VERTEX
  8
base_support
 10
-0.803798
 20
-0.012700
 30
5.111793
 70
   192
  0
VERTEX
  8
base_support
 10
-0.803798
 20
-0.025097
 30
5.111793
 70
   192
  0
VERTEX
  8
base_support
 10
-0.817103
 20
-0.037783
 30
5.111793
 70
   192
  0
VERTEX
  8
base_support
 10
-1.078450
 20
0.292591
 30
5.111793
 70
   192
  0
VERTEX
  8
base_support
 10
-1.054916
 20
0.308540
 30
5.111793
 70
   192
  0
VERTEX
  8
base_support
 10
-1.031723
 20
0.322985
 30
5.111793
 70
   192
  0
VERTEX
  8
base_support
 10
-0.971836
 20
0.546486
 30
5.111793
 70
   192
  0
VERTEX
  8
base_support
 10
-1.020905
 20
0.610434
 30
5.111793
 70
   192
  0
VERTEX
  8
base_support
 10
-1.219120
 20
0.610434
 30
5.111793
 70
   192
  0
VERTEX
  8
base_support
 10
5.587920
 20
0.610434
 30
5.111793
 70
   192
  0
VERTEX
  8
base_support
 10
5.389705
 20
0.610434
 30
5.111793
 70
   192
  0
VERTEX
  8
base_support
 10
5.340636
 20
0.546486
 30
5.111793
 70
   192
  0
VERTEX
  8
base_support
 10
5.400523
 20
0.322985
 30
5.111793
 70
   192
  0
VERTEX
  8
base_support
 10
5.423716
 20
0.308540
 30
5.111793
 70
   192
  0
VERTEX
  8
base_support
 10
5.447250
 20
0.292591
 30
5.111793
 70
   192
  0
VERTEX
  8
base_support
 10
5.185903
 20
-0.037783
 30
5.111793
 70
   192
  0
VERTEX
  8
base_support
 10
5.172598
 20
-0.025097
 30
5.111793
 70
   192
  0
VERTEX
  8
base_support
 10
5.172598
 20
-0.012700
 30
5.111793
 70
   192
  0
VERTEX
  8
base_support
 10
5.159898
 20
0.000000
 30
5.111793
 70
   192
  0
VERTEX
  8
base_support
 10
4.931298
 20
-0.000000
 30
5.111793
 70
   192
  0
VERTEX
  8
base_support
 10
4.918598
 20
-0.012700
 30
5.111793
 70
   192
  0
VERTEX
  8
base_support
 10
4.918598
 20
-0.032070
 30
5.111793
 70
   192
  0
VERTEX
  8
base_support
 10
2.679700
 20
-0.850681
 30
4.577509
 70
   192
  0
VERTEX
  8
base_support
 10
1.689100
 20
-0.850681
 30
4.577509
 70
   192
  0
VERTEX
  8
base_support
 10
1.689100
 20
-0.850681
 30
4.959309
 70
   192
  0
VERTEX
  8
base_support
 10
2.615402
 20
-0.850681
 30
0.122152
 70
   192
  0
VERTEX
  8
base_support
 10
2.615402
 20
-0.850681
 30
-0.237340
 70
   192
  0
VERTEX
  8
base_support
 10
3.250402
 20
-0.850681
 30
4.412409
 70
   192
  0
VERTEX
  8
base_support
 10
1.118398
 20
-0.850681
 30
4.412409
 70
   192
  0
VERTEX
  8
base_support
 10
1.118398
 20
-0.850681
 30
0.298406
 70
   192
  0
VERTEX
  8
base_support
 10
1.753398
 20
-0.850681
 30
0.298406
 70
   192
  0
VERTEX
  8
base_support
 10
1.753398
 20
-0.850681
 30
0.122152
 70
   192
  0
VERTEX
  8
base_support
 10
1.753398
 20
-0.850681
 30
-0.237340
 70
   192
  0
VERTEX
  8
base_support
 10
1.753398
 20
-0.850681
 30
-0.971594
 70
   192
  0
VERTEX
  8
base_support
 10
2.615402
 20
-0.850681
 30
-0.971594
 70
   192
  0
VERTEX
  8
base_support
 10
1.753398
 20
-0.215681
 30
-0.225521
 70
   192
  0
VERTEX
  8
base_support
 10
1.753398
 20
-0.215681
 30
0.110334
 70
   192
  0
VERTEX
  8
base_support
 10
2.615402
 20
-0.215681
 30
-0.225521
 70
   192
  0
VERTEX
  8
base_support
 10
2.615402
 20
-0.215681
 30
0.110334
 70
   192
  0
VERTEX
  8
base_support
 10
1.689100
 20
-0.215681
 30
4.948225
 70
   192
  0
VERTEX
  8
base_support
 10
2.679700
 20
-0.215681
 30
4.588593
 70
   192
  0
VERTEX
  8
base_support
 10
2.615402
 20
-1.955800
 30
-0.971594
 70
   192
  0
VERTEX
  8
base_support
 10
1.753398
 20
-1.955800
 30
-0.971594
 70
   192
  0
VERTEX
  8
base_support
 10
4.975514
 20
-3.733800
 30
-0.082594
 70
   192
  0
VERTEX
  8
base_support
 10
4.975514
 20
-3.733800
 30
0.806406
 70
   192
  0
VERTEX
  8
base_support
 10
4.975514
 20
-3.733800
 30
1.809793
 70
   192
  0
VERTEX
  8
base_support
 10
4.975514
 20
-3.733800
 30
2.698793
 70
   192
  0
VERTEX
  8
base_support
 10
-0.606714
 20
-3.733800
 30
-0.082594
 70
   192
  0
VERTEX
  8
base_support
 10
-0.606714
 20
-3.733800
 30
0.806406
 70
   192
  0
VERTEX
  8
base_support
 10
-0.606714
 20
-3.733800
 30
2.698793
 70
   192
  0
VERTEX
  8
base_support
 10
-0.606714
 20
-3.733800
 30
1.809793
 70
   192
  0
VERTEX
  8
base_support
 10
5.310514
 20
-1.622800
 30
-2.511594
 70
   192
  0
VERTEX
  8
base_support
 10
-0.941714
 20
-4.422800
 30
-9.206594
 70
   192
  0
VERTEX
  8
base_support
 10
5.310514
 20
-4.422800
 30
-2.511594
 70
   192
  0
VERTEX
  8
base_support
 10
-1.234495
 20
0.608012
 30
-1.495594
 70
   192
  0
VERTEX
  8
base_support
 10
-1.226902
 20
0.609825
 30
-1.495594
 70
   192
  0
VERTEX
  8
base_support
 10
-1.012481
 20
0.609731
 30
-1.495594
 70
   192
  0
VERTEX
  8
base_support
 10
-1.004290
 20
0.607641
 30
-1.495594
 70
   192
  0
VERTEX
  8
base_support
 10
-0.996559
 20
0.604221
 30
-1.495594
 70
   192
  0
VERTEX
  8
base_support
 10
-0.989502
 20
0.599566
 30
-1.495594
 70
   192
  0
VERTEX
  8
base_support
 10
-0.983315
 20
0.593806
 30
-1.495594
 70
   192
  0
VERTEX
  8
base_support
 10
-0.978169
 20
0.587099
 30
-1.495594
 70
   192
  0
VERTEX
  8
base_support
 10
-0.974206
 20
0.579632
 30
-1.495594
 70
   192
  0
VERTEX
  8
base_support
 10
-0.971537
 20
0.571611
 30
-1.495594
 70
   192
  0
VERTEX
  8
base_support
 10
-0.970234
 20
0.563259
 30
-1.495594
 70
   192
  0
VERTEX
  8
base_support
 10
-0.970335
 20
0.554806
 30
-1.495594
 70
   192
  0
VERTEX
  8
base_support
 10
-1.032853
 20
0.319844
 30
-1.495594
 70
   192
  0
VERTEX
  8
base_support
 10
-1.034490
 20
0.316935
 30
-1.495594
 70
   192
  0
VERTEX
  8
base_support
 10
-1.036588
 20
0.314338
 30
-1.495594
 70
   192
  0
VERTEX
  8
base_support
 10
-1.039088
 20
0.312127
 30
-1.495594
 70
   192
  0
VERTEX
  8
base_support
 10
-1.041922
 20
0.310362
 30
-1.495594
 70
   192
  0
VERTEX
  8
base_support
 10
-1.045009
 20
0.309093
 30
-1.495594
 70
   192
  0
VERTEX
  8
base_support
 10
-1.048265
 20
0.308355
 30
-1.495594
 70
   192
  0
VERTEX
  8
base_support
 10
-1.051598
 20
0.308169
 30
-1.495594
 70
   192
  0
VERTEX
  8
base_support
 10
-1.077627
 20
0.295641
 30
-1.495594
 70
   192
  0
VERTEX
  8
base_support
 10
-1.076333
 20
0.298523
 30
-1.495594
 70
   192
  0
VERTEX
  8
base_support
 10
-1.074602
 20
0.301165
 30
-1.495594
 70
   192
  0
VERTEX
  8
base_support
 10
-1.072477
 20
0.303502
 30
-1.495594
 70
   192
  0
VERTEX
  8
base_support
 10
-1.070010
 20
0.305475
 30
-1.495594
 70
   192
  0
VERTEX
  8
base_support
 10
-1.067263
 20
0.307036
 30
-1.495594
 70
   192
  0
VERTEX
  8
base_support
 10
-1.064305
 20
0.308144
 30
-1.495594
 70
   192
  0
VERTEX
  8
base_support
 10
-1.061209
 20
0.308772
 30
-1.495594
 70
   192
  0
VERTEX
  8
base_support
 10
-1.058053
 20
0.308906
 30
-1.495594
 70
   192
  0
VERTEX
  8
base_support
 10
-1.082009
 20
0.267055
 30
-1.495594
 70
   192
  0
VERTEX
  8
base_support
 10
-0.863920
 20
-0.031555
 30
-1.495594
 70
   192
  0
VERTEX
  8
base_support
 10
-0.909019
 20
-0.017530
 30
-1.495594
 70
   192
  0
VERTEX
  8
base_support
 10
-0.951111
 20
0.003890
 30
-1.495594
 70
   192
  0
VERTEX
  8
base_support
 10
-0.988994
 20
0.032095
 30
-1.495594
 70
   192
  0
VERTEX
  8
base_support
 10
-1.021585
 20
0.066277
 30
-1.495594
 70
   192
  0
VERTEX
  8
base_support
 10
-1.047953
 20
0.105460
 30
-1.495594
 70
   192
  0
VERTEX
  8
base_support
 10
-1.067345
 20
0.148524
 30
-1.495594
 70
   192
  0
VERTEX
  8
base_support
 10
-1.079206
 20
0.194240
 30
-1.495594
 70
   192
  0
VERTEX
  8
base_support
 10
-0.803964
 20
-0.027144
 30
-1.495594
 70
   192
  0
VERTEX
  8
base_support
 10
-0.804458
 20
-0.029137
 30
-1.495594
 70
   192
  0
VERTEX
  8
base_support
 10
-0.805266
 20
-0.031024
 30
-1.495594
 70
   192
  0
VERTEX
  8
base_support
 10
-0.806368
 20
-0.032757
 30
-1.495594
 70
   192
  0
VERTEX
  8
base_support
 10
-0.807734
 20
-0.034289
 30
-1.495594
 70
   192
  0
VERTEX
  8
base_support
 10
-0.809330
 20
-0.035581
 30
-1.495594
 70
   192
  0
VERTEX
  8
base_support
 10
-0.811113
 20
-0.036599
 30
-1.495594
 70
   192
  0
VERTEX
  8
base_support
 10
-0.813037
 20
-0.037317
 30
-1.495594
 70
   192
  0
VERTEX
  8
base_support
 10
-0.815051
 20
-0.037715
 30
-1.495594
 70
   192
  0
VERTEX
  8
base_support
 10
-0.803605
 20
-0.010495
 30
-1.495594
 70
   192
  0
VERTEX
  8
base_support
 10
-0.803032
 20
-0.008356
 30
-1.495594
 70
   192
  0
VERTEX
  8
base_support
 10
-0.802097
 20
-0.006350
 30
-1.495594
 70
   192
  0
VERTEX
  8
base_support
 10
-0.800827
 20
-0.004537
 30
-1.495594
 70
   192
  0
VERTEX
  8
base_support
 10
-0.799262
 20
-0.002971
 30
-1.495594
 70
   192
  0
VERTEX
  8
base_support
 10
-0.797448
 20
-0.001701
 30
-1.495594
 70
   192
  0
VERTEX
  8
base_support
 10
-0.795442
 20
-0.000766
 30
-1.495594
 70
   192
  0
VERTEX
  8
base_support
 10
-0.793303
 20
-0.000193
 30
-1.495594
 70
   192
  0
VERTEX
  8
base_support
 10
-0.560293
 20
-0.000193
 30
-1.495594
 70
   192
  0
VERTEX
  8
base_support
 10
-0.558154
 20
-0.000766
 30
-1.495594
 70
   192
  0
VERTEX
  8
base_support
 10
-0.556148
 20
-0.001701
 30
-1.495594
 70
   192
  0
VERTEX
  8
base_support
 10
-0.554335
 20
-0.002971
 30
-1.495594
 70
   192
  0
VERTEX
  8
base_support
 10
-0.552769
 20
-0.004537
 30
-1.495594
 70
   192
  0
VERTEX
  8
base_support
 10
-0.551500
 20
-0.006350
 30
-1.495594
 70
   192
  0
VERTEX
  8
base_support
 10
-0.550564
 20
-0.008356
 30
-1.495594
 70
   192
  0
VERTEX
  8
base_support
 10
-0.549991
 20
-0.010495
 30
-1.495594
 70
   192
  0
VERTEX
  8
base_support
 10
-0.546487
 20
-0.040622
 30
-1.495594
 70
   192
  0
VERTEX
  8
base_support
 10
-0.547644
 20
-0.039147
 30
-1.495594
 70
   192
  0
VERTEX
  8
base_support
 10
-0.548571
 20
-0.037517
 30
-1.495594
 70
   192
  0
VERTEX
  8
base_support
 10
-0.549248
 20
-0.035769
 30
-1.495594
 70
   192
  0
VERTEX
  8
base_support
 10
-0.549660
 20
-0.033940
 30
-1.495594
 70
   192
  0
VERTEX
  8
base_support
 10
4.918460
 20
-0.033940
 30
-1.495594
 70
   192
  0
VERTEX
  8
base_support
 10
4.918048
 20
-0.035769
 30
-1.495594
 70
   192
  0
VERTEX
  8
base_support
 10
4.917371
 20
-0.037517
 30
-1.495594
 70
   192
  0
VERTEX
  8
base_support
 10
4.916444
 20
-0.039147
 30
-1.495594
 70
   192
  0
VERTEX
  8
base_support
 10
4.915288
 20
-0.040622
 30
-1.495594
 70
   192
  0
VERTEX
  8
base_support
 10
4.918791
 20
-0.010495
 30
-1.495594
 70
   192
  0
VERTEX
  8
base_support
 10
4.919364
 20
-0.008356
 30
-1.495594
 70
   192
  0
VERTEX
  8
base_support
 10
4.920300
 20
-0.006350
 30
-1.495594
 70
   192
  0
VERTEX
  8
base_support
 10
4.921570
 20
-0.004537
 30
-1.495594
 70
   192
  0
VERTEX
  8
base_support
 10
4.923135
 20
-0.002971
 30
-1.495594
 70
   192
  0
VERTEX
  8
base_support
 10
4.924948
 20
-0.001701
 30
-1.495594
 70
   192
  0
VERTEX
  8
base_support
 10
4.926955
 20
-0.000766
 30
-1.495594
 70
   192
  0
VERTEX
  8
base_support
 10
4.929093
 20
-0.000193
 30
-1.495594
 70
   192
  0
VERTEX
  8
base_support
 10
5.162104
 20
-0.000193
 30
-1.495594
 70
   192
  0
VERTEX
  8
base_support
 10
5.164242
 20
-0.000766
 30
-1.495594
 70
   192
  0
VERTEX
  8
base_support
 10
5.166248
 20
-0.001701
 30
-1.495594
 70
   192
  0
VERTEX
  8
base_support
 10
5.168062
 20
-0.002971
 30
-1.495594
 70
   192
  0
VERTEX
  8
base_support
 10
5.169627
 20
-0.004537
 30
-1.495594
 70
   192
  0
VERTEX
  8
base_support
 10
5.170897
 20
-0.006350
 30
-1.495594
 70
   192
  0
VERTEX
  8
base_support
 10
5.171833
 20
-0.008356
 30
-1.495594
 70
   192
  0
VERTEX
  8
base_support
 10
5.172406
 20
-0.010495
 30
-1.495594
 70
   192
  0
VERTEX
  8
base_support
 10
5.183851
 20
-0.037715
 30
-1.495594
 70
   192
  0
VERTEX
  8
base_support
 10
5.181837
 20
-0.037317
 30
-1.495594
 70
   192
  0
VERTEX
  8
base_support
 10
5.179913
 20
-0.036599
 30
-1.495594
 70
   192
  0
VERTEX
  8
base_support
 10
5.178130
 20
-0.035581
 30
-1.495594
 70
   192
  0
VERTEX
  8
base_support
 10
5.176535
 20
-0.034289
 30
-1.495594
 70
   192
  0
VERTEX
  8
base_support
 10
5.175168
 20
-0.032757
 30
-1.495594
 70
   192
  0
VERTEX
  8
base_support
 10
5.174066
 20
-0.031024
 30
-1.495594
 70
   192
  0
VERTEX
  8
base_support
 10
5.173258
 20
-0.029137
 30
-1.495594
 70
   192
  0
VERTEX
  8
base_support
 10
5.172764
 20
-0.027144
 30
-1.495594
 70
   192
  0
VERTEX
  8
base_support
 10
5.448007
 20
0.194240
 30
-1.495594
 70
   192
  0
VERTEX
  8
base_support
 10
5.436145
 20
0.148524
 30
-1.495594
 70
   192
  0
VERTEX
  8
base_support
 10
5.416754
 20
0.105460
 30
-1.495594
 70
   192
  0
VERTEX
  8
base_support
 10
5.390385
 20
0.066277
 30
-1.495594
 70
   192
  0
VERTEX
  8
base_support
 10
5.357794
 20
0.032095
 30
-1.495594
 70
   192
  0
VERTEX
  8
base_support
 10
5.319911
 20
0.003890
 30
-1.495594
 70
   192
  0
VERTEX
  8
base_support
 10
5.277819
 20
-0.017530
 30
-1.495594
 70
   192
  0
VERTEX
  8
base_support
 10
5.232720
 20
-0.031555
 30
-1.495594
 70
   192
  0
VERTEX
  8
base_support
 10
5.450809
 20
0.267055
 30
-1.495594
 70
   192
  0
VERTEX
  8
base_support
 10
5.426854
 20
0.308906
 30
-1.495594
 70
   192
  0
VERTEX
  8
base_support
 10
5.430010
 20
0.308772
 30
-1.495594
 70
   192
  0
VERTEX
  8
base_support
 10
5.433106
 20
0.308144
 30
-1.495594
 70
   192
  0
VERTEX
  8
base_support
 10
5.436064
 20
0.307036
 30
-1.495594
 70
   192
  0
VERTEX
  8
base_support
 10
5.438811
 20
0.305475
 30
-1.495594
 70
   192
  0
VERTEX
  8
base_support
 10
5.441277
 20
0.303502
 30
-1.495594
 70
   192
  0
VERTEX
  8
base_support
 10
5.443403
 20
0.301165
 30
-1.495594
 70
   192
  0
VERTEX
  8
base_support
 10
5.445134
 20
0.298523
 30
-1.495594
 70
   192
  0
VERTEX
  8
base_support
 10
5.446427
 20
0.295641
 30
-1.495594
 70
   192
  0
VERTEX
  8
base_support
 10
5.420398
 20
0.308169
 30
-1.495594
 70
   192
  0
VERTEX
  8
base_support
 10
5.417065
 20
0.308355
 30
-1.495594
 70
   192
  0
VERTEX
  8
base_support
 10
5.413810
 20
0.309093
 30
-1.495594
 70
   192
  0
VERTEX
  8
base_support
 10
5.410722
 20
0.310362
 30
-1.495594
 70
   192
  0
VERTEX
  8
base_support
 10
5.407888
 20
0.312127
 30
-1.495594
 70
   192
  0
VERTEX
  8
base_support
 10
5.405388
 20
0.314338
 30
-1.495594
 70
   192
  0
VERTEX
  8
base_support
 10
5.403290
 20
0.316935
 30
-1.495594
 70
   192
  0
VERTEX
  8
base_support
 10
5.401653
 20
0.319844
 30
-1.495594
 70
   192
  0
VERTEX
  8
base_support
 10
5.339135
 20
0.554806
 30
-1.495594
 70
   192
  0
VERTEX
  8
base_support
 10
5.339035
 20
0.563259
 30
-1.495594
 70
   192
  0
VERTEX
  8
base_support
 10
5.340337
 20
0.571611
 30
-1.495594
 70
   192
  0
VERTEX
  8
base_support
 10
5.343007
 20
0.579632
 30
-1.495594
 70
   192
  0
VERTEX
  8
base_support
 10
5.346969
 20
0.587099
 30
-1.495594
 70
   192
  0
VERTEX
  8
base_support
 10
5.352116
 20
0.593806
 30
-1.495594
 70
   192
  0
VERTEX
  8
base_support
 10
5.358303
 20
0.599566
 30
-1.495594
 70
   192
  0
VERTEX
  8
base_support
 10
5.365359
 20
0.604221
 30
-1.495594
 70
   192
  0
VERTEX
  8
base_support
 10
5.373090
 20
0.607641
 30
-1.495594
 70
   192
  0
VERTEX
  8
base_support
 10
5.381281
 20
0.609731
 30
-1.495594
 70
   192
  0
VERTEX
  8
base_support
 10
5.595703
 20
0.609825
 30
-1.495594
 70
   192
  0
VERTEX
  8
base_support
 10
5.603296
 20
0.608012
 30
-1.495594
 70
   192
  0
VERTEX
  8
base_support
 10
-0.546487
 20
-0.040622
 30
5.111793
 70
   192
  0
VERTEX
  8
base_support
 10
-0.547644
 20
-0.039147
 30
5.111793
 70
   192
  0
VERTEX
  8
base_support
 10
-0.548571
 20
-0.037517
 30
5.111793
 70
   192
  0
VERTEX
  8
base_support
 10
-0.549248
 20
-0.035769
 30
5.111793
 70
   192
  0
VERTEX
  8
base_support
 10
-0.549660
 20
-0.033940
 30
5.111793
 70
   192
  0
VERTEX
  8
base_support
 10
-0.549991
 20
-0.010495
 30
5.111793
 70
   192
  0
VERTEX
  8
base_support
 10
-0.550564
 20
-0.008356
 30
5.111793
 70
   192
  0
VERTEX
  8
base_support
 10
-0.551500
 20
-0.006350
 30
5.111793
 70
   192
  0
VERTEX
  8
base_support
 10
-0.552769
 20
-0.004537
 30
5.111793
 70
   192
  0
VERTEX
  8
base_support
 10
-0.554335
 20
-0.002971
 30
5.111793
 70
   192
  0
VERTEX
  8
base_support
 10
-0.556148
 20
-0.001701
 30
5.111793
 70
   192
  0
VERTEX
  8
base_support
 10
-0.558154
 20
-0.000766
 30
5.111793
 70
   192
  0
VERTEX
  8
base_support
 10
-0.560293
 20
-0.000193
 30
5.111793
 70
   192
  0
VERTEX
  8
base_support
 10
-0.793303
 20
-0.000193
 30
5.111793
 70
   192
  0
VERTEX
  8
base_support
 10
-0.795442
 20
-0.000766
 30
5.111793
 70
   192
  0
VERTEX
  8
base_support
 10
-0.797448
 20
-0.001701
 30
5.111793
 70
   192
  0
VERTEX
  8
base_support
 10
-0.799262
 20
-0.002971
 30
5.111793
 70
   192
  0
VERTEX
  8
base_support
 10
-0.800827
 20
-0.004537
 30
5.111793
 70
   192
  0
VERTEX
  8
base_support
 10
-0.802097
 20
-0.006350
 30
5.111793
 70
   192
  0
VERTEX
  8
base_support
 10
-0.803032
 20
-0.008356
 30
5.111793
 70
   192
  0
VERTEX
  8
base_support
 10
-0.803605
 20
-0.010495
 30
5.111793
 70
   192
  0
VERTEX
  8
base_support
 10
-0.803964
 20
-0.027144
 30
5.111793
 70
   192
  0
VERTEX
  8
base_support
 10
-0.804458
 20
-0.029137
 30
5.111793
 70
   192
  0
VERTEX
  8
base_support
 10
-0.805266
 20
-0.031024
 30
5.111793
 70
   192
  0
VERTEX
  8
base_support
 10
-0.806368
 20
-0.032757
 30
5.111793
 70
   192
  0
VERTEX
  8
base_support
 10
-0.807734
 20
-0.034289
 30
5.111793
 70
   192
  0
VERTEX
  8
base_support
 10
-0.809330
 20
-0.035581
 30
5.111793
 70
   192
  0
VERTEX
  8
base_support
 10
-0.811113
 20
-0.036599
 30
5.111793
 70
   192
  0
VERTEX
  8
base_support
 10
-0.813037
 20
-0.037317
 30
5.111793
 70
   192
  0
VERTEX
  8
base_support
 10
-0.815051
 20
-0.037715
 30
5.111793
 70
   192
  0
VERTEX
  8
base_support
 10
-0.864339
 20
-0.031462
 30
5.111793
 70
   192
  0
VERTEX
  8
base_support
 10
-0.909814
 20
-0.017205
 30
5.111793
 70
   192
  0
VERTEX
  8
base_support
 10
-0.952205
 20
0.004573
 30
5.111793
 70
   192
  0
VERTEX
  8
base_support
 10
-0.990277
 20
0.033238
 30
5.111793
 70
   192
  0
VERTEX
  8
base_support
 10
-1.022925
 20
0.067957
 30
5.111793
 70
   192
  0
VERTEX
  8
base_support
 10
-1.049197
 20
0.107719
 30
5.111793
 70
   192
  0
VERTEX
  8
base_support
 10
-1.068329
 20
0.151367
 30
5.111793
 70
   192
  0
VERTEX
  8
base_support
 10
-1.079765
 20
0.197632
 30
5.111793
 70
   192
  0
VERTEX
  8
base_support
 10
-1.083171
 20
0.245168
 30
5.111793
 70
   192
  0
VERTEX
  8
base_support
 10
-1.077627
 20
0.295641
 30
5.111793
 70
   192
  0
VERTEX
  8
base_support
 10
-1.076333
 20
0.298523
 30
5.111793
 70
   192
  0
VERTEX
  8
base_support
 10
-1.074602
 20
0.301165
 30
5.111793
 70
   192
  0
VERTEX
  8
base_support
 10
-1.072477
 20
0.303502
 30
5.111793
 70
   192
  0
VERTEX
  8
base_support
 10
-1.070010
 20
0.305475
 30
5.111793
 70
   192
  0
VERTEX
  8
base_support
 10
-1.067263
 20
0.307036
 30
5.111793
 70
   192
  0
VERTEX
  8
base_support
 10
-1.064305
 20
0.308144
 30
5.111793
 70
   192
  0
VERTEX
  8
base_support
 10
-1.061209
 20
0.308772
 30
5.111793
 70
   192
  0
VERTEX
  8
base_support
 10
-1.058053
 20
0.308906
 30
5.111793
 70
   192
  0
VERTEX
  8
base_support
 10
-1.051598
 20
0.308169
 30
5.111793
 70
   192
  0
VERTEX
  8
base_support
 10
-1.048265
 20
0.308355
 30
5.111793
 70
   192
  0
VERTEX
  8
base_support
 10
-1.045009
 20
0.309093
 30
5.111793
 70
   192
  0
VERTEX
  8
base_support
 10
-1.041922
 20
0.310362
 30
5.111793
 70
   192
  0
VERTEX
  8
base_support
 10
-1.039088
 20
0.312127
 30
5.111793
 70
   192
  0
VERTEX
  8
base_support
 10
-1.036588
 20
0.314338
 30
5.111793
 70
   192
  0
VERTEX
  8
base_support
 10
-1.034490
 20
0.316935
 30
5.111793
 70
   192
  0
VERTEX
  8
base_support
 10
-1.032853
 20
0.319844
 30
5.111793
 70
   192
  0
VERTEX
  8
base_support
 10
-0.970335
 20
0.554806
 30
5.111793
 70
   192
  0
VERTEX
  8
base_support
 10
-0.970234
 20
0.563259
 30
5.111793
 70
   192
  0
VERTEX
  8
base_support
 10
-0.971537
 20
0.571611
 30
5.111793
 70
   192
  0
VERTEX
  8
base_support
 10
-0.974206
 20
0.579632
 30
5.111793
 70
   192
  0
VERTEX
  8
base_support
 10
-0.978169
 20
0.587099
 30
5.111793
 70
   192
  0
VERTEX
  8
base_support
 10
-0.983315
 20
0.593806
 30
5.111793
 70
   192
  0
VERTEX
  8
base_support
 10
-0.989502
 20
0.599566
 30
5.111793
 70
   192
  0
VERTEX
  8
base_support
 10
-0.996559
 20
0.604221
 30
5.111793
 70
   192
  0
VERTEX
  8
base_support
 10
-1.004290
 20
0.607641
 30
5.111793
 70
   192
  0
VERTEX
  8
base_support
 10
-1.012481
 20
0.609731
 30
5.111793
 70
   192
  0
VERTEX
  8
base_support
 10
-1.226902
 20
0.609825
 30
5.111793
 70
   192
  0
VERTEX
  8
base_support
 10
-1.234495
 20
0.608012
 30
5.111793
 70
   192
  0
VERTEX
  8
base_support
 10
5.595703
 20
0.609825
 30
5.111793
 70
   192
  0
VERTEX
  8
base_support
 10
5.603296
 20
0.608012
 30
5.111793
 70
   192
  0
VERTEX
  8
base_support
 10
5.339135
 20
0.554806
 30
5.111793
 70
   192
  0
VERTEX
  8
base_support
 10
5.339035
 20
0.563259
 30
5.111793
 70
   192
  0
VERTEX
  8
base_support
 10
5.340337
 20
0.571611
 30
5.111793
 70
   192
  0
VERTEX
  8
base_support
 10
5.343007
 20
0.579632
 30
5.111793
 70
   192
  0
VERTEX
  8
base_support
 10
5.346969
 20
0.587099
 30
5.111793
 70
   192
  0
VERTEX
  8
base_support
 10
5.352116
 20
0.593806
 30
5.111793
 70
   192
  0
VERTEX
  8
base_support
 10
5.358303
 20
0.599566
 30
5.111793
 70
   192
  0
VERTEX
  8
base_support
 10
5.365359
 20
0.604221
 30
5.111793
 70
   192
  0
VERTEX
  8
base_support
 10
5.373090
 20
0.607641
 30
5.111793
 70
   192
  0
VERTEX
  8
base_support
 10
5.381281
 20
0.609731
 30
5.111793
 70
   192
  0
VERTEX
  8
base_support
 10
5.420398
 20
0.308169
 30
5.111793
 70
   192
  0
VERTEX
  8
base_support
 10
5.417065
 20
0.308355
 30
5.111793
 70
   192
  0
VERTEX
  8
base_support
 10
5.413810
 20
0.309093
 30
5.111793
 70
   192
  0
VERTEX
  8
base_support
 10
5.410722
 20
0.310362
 30
5.111793
 70
   192
  0
VERTEX
  8
base_support
 10
5.407888
 20
0.312127
 30
5.111793
 70
   192
  0
VERTEX
  8
base_support
 10
5.405388
 20
0.314338
 30
5.111793
 70
   192
  0
VERTEX
  8
base_support
 10
5.403290
 20
0.316935
 30
5.111793
 70
   192
  0
VERTEX
  8
base_support
 10
5.401653
 20
0.319844
 30
5.111793
 70
   192
  0
VERTEX
  8
base_support
 10
5.446427
 20
0.295641
 30
5.111793
 70
   192
  0
VERTEX
  8
base_support
 10
5.445134
 20
0.298523
 30
5.111793
 70
   192
  0
VERTEX
  8
base_support
 10
5.443403
 20
0.301165
 30
5.111793
 70
   192
  0
VERTEX
  8
base_support
 10
5.441277
 20
0.303502
 30
5.111793
 70
   192
  0
VERTEX
  8
base_support
 10
5.438811
 20
0.305475
 30
5.111793
 70
   192
  0
VERTEX
  8
base_support
 10
5.436064
 20
0.307036
 30
5.111793
 70
   192
  0
VERTEX
  8
base_support
 10
5.433106
 20
0.308144
 30
5.111793
 70
   192
  0
VERTEX
  8
base_support
 10
5.430010
 20
0.308772
 30
5.111793
 70
   192
  0
VERTEX
  8
base_support
 10
5.426854
 20
0.308906
 30
5.111793
 70
   192
  0
VERTEX
  8
base_support
 10
5.233140
 20
-0.031462
 30
5.111793
 70
   192
  0
VERTEX
  8
base_support
 10
5.278615
 20
-0.017205
 30
5.111793
 70
   192
  0
VERTEX
  8
base_support
 10
5.321005
 20
0.004573
 30
5.111793
 70
   192
  0
VERTEX
  8
base_support
 10
5.359078
 20
0.033238
 30
5.111793
 70
   192
  0
VERTEX
  8
base_support
 10
5.391725
 20
0.067957
 30
5.111793
 70
   192
  0
VERTEX
  8
base_support
 10
5.417997
 20
0.107719
 30
5.111793
 70
   192
  0
VERTEX
  8
base_support
 10
5.437129
 20
0.151367
 30
5.111793
 70
   192
  0
VERTEX
  8
base_support
 10
5.448565
 20
0.197632
 30
5.111793
 70
   192
  0
VERTEX
  8
base_support
 10
5.451972
 20
0.245168
 30
5.111793
 70
   192
  0
VERTEX
  8
base_support
 10
5.172764
 20
-0.027144
 30
5.111793
 70
   192
  0
VERTEX
  8
base_support
 10
5.173258
 20
-0.029137
 30
5.111793
 70
   192
  0
VERTEX
  8
base_support
 10
5.174066
 20
-0.031024
 30
5.111793
 70
   192
  0
VERTEX
  8
base_support
 10
5.175168
 20
-0.032757
 30
5.111793
 70
   192
  0
VERTEX
  8
base_support
 10
5.176535
 20
-0.034289
 30
5.111793
 70
   192
  0
VERTEX
  8
base_support
 10
5.178130
 20
-0.035581
 30
5.111793
 70
   192
  0
VERTEX
  8
base_support
 10
5.179913
 20
-0.036599
 30
5.111793
 70
   192
  0
VERTEX
  8
base_support
 10
5.181837
 20
-0.037317
 30
5.111793
 70
   192
  0
VERTEX
  8
base_support
 10
5.183851
 20
-0.037715
 30
5.111793
 70
   192
  0
VERTEX
  8
base_support
 10
5.162104
 20
-0.000193
 30
5.111793
 70
   192
  0
VERTEX
  8
base_support
 10
5.164242
 20
-0.000766
 30
5.111793
 70
   192
  0
VERTEX
  8
base_support
 10
5.166248
 20
-0.001701
 30
5.111793
 70
   192
  0
VERTEX
  8
base_support
 10
5.168062
 20
-0.002971
 30
5.111793
 70
   192
  0
VERTEX
  8
base_support
 10
5.169627
 20
-0.004537
 30
5.111793
 70
   192
  0
VERTEX
  8
base_support
 10
5.170897
 20
-0.006350
 30
5.111793
 70
   192
  0
VERTEX
  8
base_support
 10
5.171833
 20
-0.008356
 30
5.111793
 70
   192
  0
VERTEX
  8
base_support
 10
5.172406
 20
-0.010495
 30
5.111793
 70
   192
  0
VERTEX
  8
base_support
 10
4.918791
 20
-0.010495
 30
5.111793
 70
   192
  0
VERTEX
  8
base_support
 10
4.919364
 20
-0.008356
 30
5.111793
 70
   192
  0
VERTEX
  8
base_support
 10
4.920300
 20
-0.006350
 30
5.111793
 70
   192
  0
VERTEX
  8
base_support
 10
4.921570
 20
-0.004537
 30
5.111793
 70
   192
  0
VERTEX
  8
base_support
 10
4.923135
 20
-0.002971
 30
5.111793
 70
   192
  0
VERTEX
  8
base_support
 10
4.924948
 20
-0.001701
 30
5.111793
 70
   192
  0
VERTEX
  8
base_support
 10
4.926955
 20
-0.000766
 30
5.111793
 70
   192
  0
VERTEX
  8
base_support
 10
4.929093
 20
-0.000193
 30
5.111793
 70
   192
  0
VERTEX
  8
base_support
 10
4.915288
 20
-0.040622
 30
5.111793
 70
   192
  0
VERTEX
  8
base_support
 10
4.916444
 20
-0.039147
 30
5.111793
 70
   192
  0
VERTEX
  8
base_support
 10
4.917371
 20
-0.037517
 30
5.111793
 70
   192
  0
VERTEX
  8
base_support
 10
4.918048
 20
-0.035769
 30
5.111793
 70
   192
  0
VERTEX
  8
base_support
 10
4.918460
 20
-0.033940
 30
5.111793
 70
   192
  0
VERTEX
  8
base_support
 10
2.646551
 20
-0.850681
 30
4.580409
 70
   192
  0
VERTEX
  8
base_support
 10
2.614408
 20
-0.850681
 30
4.589021
 70
   192
  0
VERTEX
  8
base_support
 10
2.584250
 20
-0.850681
 30
4.603084
 70
   192
  0
VERTEX
  8
base_support
 10
2.556992
 20
-0.850681
 30
4.622171
 70
   192
  0
VERTEX
  8
base_support
 10
2.533462
 20
-0.850681
 30
4.645701
 70
   192
  0
VERTEX
  8
base_support
 10
2.514376
 20
-0.850681
 30
4.672959
 70
   192
  0
VERTEX
  8
base_support
 10
2.500313
 20
-0.850681
 30
4.703117
 70
   192
  0
VERTEX
  8
base_support
 10
2.491700
 20
-0.850681
 30
4.735259
 70
   192
  0
VERTEX
  8
base_support
 10
2.488800
 20
-0.850681
 30
4.768409
 70
   192
  0
VERTEX
  8
base_support
 10
2.491700
 20
-0.850681
 30
4.801558
 70
   192
  0
VERTEX
  8
base_support
 10
2.500313
 20
-0.850681
 30
4.833700
 70
   192
  0
VERTEX
  8
base_support
 10
2.514376
 20
-0.850681
 30
4.863859
 70
   192
  0
VERTEX
  8
base_support
 10
2.533462
 20
-0.850681
 30
4.891117
 70
   192
  0
VERTEX
  8
base_support
 10
2.556992
 20
-0.850681
 30
4.914647
 70
   192
  0
VERTEX
  8
base_support
 10
2.584250
 20
-0.850681
 30
4.933733
 70
   192
  0
VERTEX
  8
base_support
 10
2.614408
 20
-0.850681
 30
4.947796
 70
   192
  0
VERTEX
  8
base_support
 10
2.646551
 20
-0.850681
 30
4.956408
 70
   192
  0
VERTEX
  8
base_support
 10
2.679700
 20
-0.850681
 30
4.959309
 70
   192
  0
VERTEX
  8
base_support
 10
2.712849
 20
-0.850681
 30
4.956408
 70
   192
  0
VERTEX
  8
base_support
 10
2.744992
 20
-0.850681
 30
4.947796
 70
   192
  0
VERTEX
  8
base_support
 10
2.775150
 20
-0.850681
 30
4.933733
 70
   192
  0
VERTEX
  8
base_support
 10
2.802408
 20
-0.850681
 30
4.914647
 70
   192
  0
VERTEX
  8
base_support
 10
2.825938
 20
-0.850681
 30
4.891117
 70
   192
  0
VERTEX
  8
base_support
 10
2.845024
 20
-0.850681
 30
4.863859
 70
   192
  0
VERTEX
  8
base_support
 10
2.859087
 20
-0.850681
 30
4.833700
 70
   192
  0
VERTEX
  8
base_support
 10
2.867700
 20
-0.850681
 30
4.801558
 70
   192
  0
VERTEX
  8
base_support
 10
2.870600
 20
-0.850681
 30
4.768409
 70
   192
  0
VERTEX
  8
base_support
 10
2.867700
 20
-0.850681
 30
4.735259
 70
   192
  0
VERTEX
  8
base_support
 10
2.859087
 20
-0.850681
 30
4.703117
 70
   192
  0
VERTEX
  8
base_support
 10
2.845024
 20
-0.850681
 30
4.672959
 70
   192
  0
VERTEX
  8
base_support
 10
2.825938
 20
-0.850681
 30
4.645701
 70
   192
  0
VERTEX
  8
base_support
 10
2.802408
 20
-0.850681
 30
4.622171
 70
   192
  0
VERTEX
  8
base_support
 10
2.775150
 20
-0.850681
 30
4.603084
 70
   192
  0
VERTEX
  8
base_support
 10
2.744992
 20
-0.850681
 30
4.589021
 70
   192
  0
VERTEX
  8
base_support
 10
2.712849
 20
-0.850681
 30
4.580409
 70
   192
  0
VERTEX
  8
base_support
 10
1.655951
 20
-0.850681
 30
4.580409
 70
   192
  0
VERTEX
  8
base_support
 10
1.623809
 20
-0.850681
 30
4.589021
 70
   192
  0
VERTEX
  8
base_support
 10
1.593650
 20
-0.850681
 30
4.603084
 70
   192
  0
VERTEX
  8
base_support
 10
1.566392
 20
-0.850681
 30
4.622171
 70
   192
  0
VERTEX
  8
base_support
 10
1.542862
 20
-0.850681
 30
4.645701
 70
   192
  0
VERTEX
  8
base_support
 10
1.523776
 20
-0.850681
 30
4.672959
 70
   192
  0
VERTEX
  8
base_support
 10
1.509713
 20
-0.850681
 30
4.703117
 70
   192
  0
VERTEX
  8
base_support
 10
1.501101
 20
-0.850681
 30
4.735259
 70
   192
  0
VERTEX
  8
base_support
 10
1.498200
 20
-0.850681
 30
4.768409
 70
   192
  0
VERTEX
  8
base_support
 10
1.501101
 20
-0.850681
 30
4.801558
 70
   192
  0
VERTEX
  8
base_support
 10
1.509713
 20
-0.850681
 30
4.833700
 70
   192
  0
VERTEX
  8
base_support
 10
1.523776
 20
-0.850681
 30
4.863859
 70
   192
  0
VERTEX
  8
base_support
 10
1.542862
 20
-0.850681
 30
4.891117
 70
   192
  0
VERTEX
  8
base_support
 10
1.566392
 20
-0.850681
 30
4.914647
 70
   192
  0
VERTEX
  8
base_support
 10
1.593650
 20
-0.850681
 30
4.933733
 70
   192
  0
VERTEX
  8
base_support
 10
1.623809
 20
-0.850681
 30
4.947796
 70
   192
  0
VERTEX
  8
base_support
 10
1.655951
 20
-0.850681
 30
4.956408
 70
   192
  0
VERTEX
  8
base_support
 10
1.722250
 20
-0.850681
 30
4.956408
 70
   192
  0
VERTEX
  8
base_support
 10
1.754392
 20
-0.850681
 30
4.947796
 70
   192
  0
VERTEX
  8
base_support
 10
1.784550
 20
-0.850681
 30
4.933733
 70
   192
  0
VERTEX
  8
base_support
 10
1.811808
 20
-0.850681
 30
4.914647
 70
   192
  0
VERTEX
  8
base_support
 10
1.835338
 20
-0.850681
 30
4.891117
 70
   192
  0
VERTEX
  8
base_support
 10
1.854425
 20
-0.850681
 30
4.863859
 70
   192
  0
VERTEX
  8
base_support
 10
1.868488
 20
-0.850681
 30
4.833700
 70
   192
  0
VERTEX
  8
base_support
 10
1.877100
 20
-0.850681
 30
4.801558
 70
   192
  0
VERTEX
  8
base_support
 10
1.880000
 20
-0.850681
 30
4.768409
 70
   192
  0
VERTEX
  8
base_support
 10
1.877100
 20
-0.850681
 30
4.735259
 70
   192
  0
VERTEX
  8
base_support
 10
1.868488
 20
-0.850681
 30
4.703117
 70
   192
  0
VERTEX
  8
base_support
 10
1.854425
 20
-0.850681
 30
4.672959
 70
   192
  0
VERTEX
  8
base_support
 10
1.835338
 20
-0.850681
 30
4.645701
 70
   192
  0
VERTEX
  8
base_support
 10
1.811808
 20
-0.850681
 30
4.622171
 70
   192
  0
VERTEX
  8
base_support
 10
1.784550
 20
-0.850681
 30
4.603084
 70
   192
  0
VERTEX
  8
base_support
 10
1.754392
 20
-0.850681
 30
4.589021
 70
   192
  0
VERTEX
  8
base_support
 10
1.722250
 20
-0.850681
 30
4.580409
 70
   192
  0
VERTEX
  8
base_support
 10
2.647497
 20
-0.850681
 30
0.130571
 70
   192
  0
VERTEX
  8
base_support
 10
2.680565
 20
-0.850681
 30
0.133304
 70
   192
  0
VERTEX
  8
base_support
 10
2.713606
 20
-0.850681
 30
0.130271
 70
   192
  0
VERTEX
  8
base_support
 10
2.745623
 20
-0.850681
 30
0.121562
 70
   192
  0
VERTEX
  8
base_support
 10
2.775649
 20
-0.850681
 30
0.107442
 70
   192
  0
VERTEX
  8
base_support
 10
2.802776
 20
-0.850681
 30
0.088335
 70
   192
  0
VERTEX
  8
base_support
 10
2.826185
 20
-0.850681
 30
0.064820
 70
   192
  0
VERTEX
  8
base_support
 10
2.845168
 20
-0.850681
 30
0.037607
 70
   192
  0
VERTEX
  8
base_support
 10
2.859153
 20
-0.850681
 30
0.007517
 70
   192
  0
VERTEX
  8
base_support
 10
2.867716
 20
-0.850681
 30
-0.024539
 70
   192
  0
VERTEX
  8
base_support
 10
2.870600
 20
-0.850681
 30
-0.057594
 70
   192
  0
VERTEX
  8
base_support
 10
2.867716
 20
-0.850681
 30
-0.090649
 70
   192
  0
VERTEX
  8
base_support
 10
2.859153
 20
-0.850681
 30
-0.122705
 70
   192
  0
VERTEX
  8
base_support
 10
2.845168
 20
-0.850681
 30
-0.152794
 70
   192
  0
VERTEX
  8
base_support
 10
2.826185
 20
-0.850681
 30
-0.180007
 70
   192
  0
VERTEX
  8
base_support
 10
2.802776
 20
-0.850681
 30
-0.203522
 70
   192
  0
VERTEX
  8
base_support
 10
2.775649
 20
-0.850681
 30
-0.222629
 70
   192
  0
VERTEX
  8
base_support
 10
2.745623
 20
-0.850681
 30
-0.236750
 70
   192
  0
VERTEX
  8
base_support
 10
2.713606
 20
-0.850681
 30
-0.245459
 70
   192
  0
VERTEX
  8
base_support
 10
2.680565
 20
-0.850681
 30
-0.248492
 70
   192
  0
VERTEX
  8
base_support
 10
2.647497
 20
-0.850681
 30
-0.245758
 70
   192
  0
VERTEX
  8
base_support
 10
1.721303
 20
-0.850681
 30
-0.245758
 70
   192
  0
VERTEX
  8
base_support
 10
1.688236
 20
-0.850681
 30
-0.248492
 70
   192
  0
VERTEX
  8
base_support
 10
1.655194
 20
-0.850681
 30
-0.245459
 70
   192
  0
VERTEX
  8
base_support
 10
1.623177
 20
-0.850681
 30
-0.236750
 70
   192
  0
VERTEX
  8
base_support
 10
1.593152
 20
-0.850681
 30
-0.222629
 70
   192
  0
VERTEX
  8
base_support
 10
1.566025
 20
-0.850681
 30
-0.203522
 70
   192
  0
VERTEX
  8
base_support
 10
1.542616
 20
-0.850681
 30
-0.180007
 70
   192
  0
VERTEX
  8
base_support
 10
1.523632
 20
-0.850681
 30
-0.152794
 70
   192
  0
VERTEX
  8
base_support
 10
1.509647
 20
-0.850681
 30
-0.122705
 70
   192
  0
VERTEX
  8
base_support
 10
1.501084
 20
-0.850681
 30
-0.090649
 70
   192
  0
VERTEX
  8
base_support
 10
1.498200
 20
-0.850681
 30
-0.057594
 70
   192
  0
VERTEX
  8
base_support
 10
1.501084
 20
-0.850681
 30
-0.024539
 70
   192
  0
VERTEX
  8
base_support
 10
1.509647
 20
-0.850681
 30
0.007517
 70
   192
  0
VERTEX
  8
base_support
 10
1.523632
 20
-0.850681
 30
0.037607
 70
   192
  0
VERTEX
  8
base_support
 10
1.542616
 20
-0.850681
 30
0.064820
 70
   192
  0
VERTEX
  8
base_support
 10
1.566025
 20
-0.850681
 30
0.088335
 70
   192
  0
VERTEX
  8
base_support
 10
1.593152
 20
-0.850681
 30
0.107442
 70
   192
  0
VERTEX
  8
base_support
 10
1.623177
 20
-0.850681
 30
0.121562
 70
   192
  0
VERTEX
  8
base_support
 10
1.655194
 20
-0.850681
 30
0.130271
 70
   192
  0
VERTEX
  8
base_support
 10
1.688236
 20
-0.850681
 30
0.133304
 70
   192
  0
VERTEX
  8
base_support
 10
1.721303
 20
-0.850681
 30
0.130571
 70
   192
  0
VERTEX
  8
base_support
 10
1.724345
 20
-0.215681
 30
-0.233922
 70
   192
  0
VERTEX
  8
base_support
 10
1.694295
 20
-0.215681
 30
-0.237335
 70
   192
  0
VERTEX
  8
base_support
 10
1.664098
 20
-0.215681
 30
-0.235663
 70
   192
  0
VERTEX
  8
base_support
 10
1.634608
 20
-0.215681
 30
-0.228954
 70
   192
  0
VERTEX
  8
base_support
 10
1.606660
 20
-0.215681
 30
-0.217398
 70
   192
  0
VERTEX
  8
base_support
 10
1.581044
 20
-0.215681
 30
-0.201321
 70
   192
  0
VERTEX
  8
base_support
 10
1.558484
 20
-0.215681
 30
-0.181179
 70
   192
  0
VERTEX
  8
base_support
 10
1.539620
 20
-0.215681
 30
-0.157541
 70
   192
  0
VERTEX
  8
base_support
 10
1.524984
 20
-0.215681
 30
-0.131075
 70
   192
  0
VERTEX
  8
base_support
 10
1.514990
 20
-0.215681
 30
-0.102531
 70
   192
  0
VERTEX
  8
base_support
 10
1.509921
 20
-0.215681
 30
-0.072715
 70
   192
  0
VERTEX
  8
base_support
 10
1.509921
 20
-0.215681
 30
-0.042472
 70
   192
  0
VERTEX
  8
base_support
 10
1.514990
 20
-0.215681
 30
-0.012657
 70
   192
  0
VERTEX
  8
base_support
 10
1.524984
 20
-0.215681
 30
0.015887
 70
   192
  0
VERTEX
  8
base_support
 10
1.539620
 20
-0.215681
 30
0.042353
 70
   192
  0
VERTEX
  8
base_support
 10
1.558484
 20
-0.215681
 30
0.065991
 70
   192
  0
VERTEX
  8
base_support
 10
1.581044
 20
-0.215681
 30
0.086134
 70
   192
  0
VERTEX
  8
base_support
 10
1.606660
 20
-0.215681
 30
0.102211
 70
   192
  0
VERTEX
  8
base_support
 10
1.634608
 20
-0.215681
 30
0.113767
 70
   192
  0
VERTEX
  8
base_support
 10
1.664098
 20
-0.215681
 30
0.120476
 70
   192
  0
VERTEX
  8
base_support
 10
1.694295
 20
-0.215681
 30
0.122147
 70
   192
  0
VERTEX
  8
base_support
 10
1.724345
 20
-0.215681
 30
0.118734
 70
   192
  0
VERTEX
  8
base_support
 10
2.644455
 20
-0.215681
 30
0.118734
 70
   192
  0
VERTEX
  8
base_support
 10
2.674505
 20
-0.215681
 30
0.122147
 70
   192
  0
VERTEX
  8
base_support
 10
2.704702
 20
-0.215681
 30
0.120476
 70
   192
  0
VERTEX
  8
base_support
 10
2.734192
 20
-0.215681
 30
0.113767
 70
   192
  0
VERTEX
  8
base_support
 10
2.762140
 20
-0.215681
 30
0.102211
 70
   192
  0
VERTEX
  8
base_support
 10
2.787756
 20
-0.215681
 30
0.086134
 70
   192
  0
VERTEX
  8
base_support
 10
2.810316
 20
-0.215681
 30
0.065991
 70
   192
  0
VERTEX
  8
base_support
 10
2.829181
 20
-0.215681
 30
0.042353
 70
   192
  0
VERTEX
  8
base_support
 10
2.843817
 20
-0.215681
 30
0.015887
 70
   192
  0
VERTEX
  8
base_support
 10
2.853811
 20
-0.215681
 30
-0.012657
 70
   192
  0
VERTEX
  8
base_support
 10
2.858879
 20
-0.215681
 30
-0.042472
 70
   192
  0
VERTEX
  8
base_support
 10
2.858879
 20
-0.215681
 30
-0.072715
 70
   192
  0
VERTEX
  8
base_support
 10
2.853811
 20
-0.215681
 30
-0.102531
 70
   192
  0
VERTEX
  8
base_support
 10
2.843817
 20
-0.215681
 30
-0.131075
 70
   192
  0
VERTEX
  8
base_support
 10
2.829181
 20
-0.215681
 30
-0.157541
 70
   192
  0
VERTEX
  8
base_support
 10
2.810316
 20
-0.215681
 30
-0.181179
 70
   192
  0
VERTEX
  8
base_support
 10
2.787756
 20
-0.215681
 30
-0.201321
 70
   192
  0
VERTEX
  8
base_support
 10
2.762140
 20
-0.215681
 30
-0.217398
 70
   192
  0
VERTEX
  8
base_support
 10
2.734192
 20
-0.215681
 30
-0.228954
 70
   192
  0
VERTEX
  8
base_support
 10
2.704702
 20
-0.215681
 30
-0.235663
 70
   192
  0
VERTEX
  8
base_support
 10
2.674505
 20
-0.215681
 30
-0.237335
 70
   192
  0
VERTEX
  8
base_support
 10
2.644455
 20
-0.215681
 30
-0.233922
 70
   192
  0
VERTEX
  8
base_support
 10
1.720325
 20
-0.215681
 30
4.945493
 70
   192
  0
VERTEX
  8
base_support
 10
1.750601
 20
-0.215681
 30
4.937380
 70
   192
  0
VERTEX
  8
base_support
 10
1.779008
 20
-0.215681
 30
4.924134
 70
   192
  0
VERTEX
  8
base_support
 10
1.804684
 20
-0.215681
 30
4.906156
 70
   192
  0
VERTEX
  8
base_support
 10
1.826847
 20
-0.215681
 30
4.883992
 70
   192
  0
VERTEX
  8
base_support
 10
1.844826
 20
-0.215681
 30
4.858317
 70
   192
  0
VERTEX
  8
base_support
 10
1.858072
 20
-0.215681
 30
4.829909
 70
   192
  0
VERTEX
  8
base_support
 10
1.866185
 20
-0.215681
 30
4.799633
 70
   192
  0
VERTEX
  8
base_support
 10
1.868916
 20
-0.215681
 30
4.768409
 70
   192
  0
VERTEX
  8
base_support
 10
1.866185
 20
-0.215681
 30
4.737184
 70
   192
  0
VERTEX
  8
base_support
 10
1.858072
 20
-0.215681
 30
4.706908
 70
   192
  0
VERTEX
  8
base_support
 10
1.844826
 20
-0.215681
 30
4.678501
 70
   192
  0
VERTEX
  8
base_support
 10
1.826847
 20
-0.215681
 30
4.652825
 70
   192
  0
VERTEX
  8
base_support
 10
1.804684
 20
-0.215681
 30
4.630662
 70
   192
  0
VERTEX
  8
base_support
 10
1.779008
 20
-0.215681
 30
4.612683
 70
   192
  0
VERTEX
  8
base_support
 10
1.750601
 20
-0.215681
 30
4.599437
 70
   192
  0
VERTEX
  8
base_support
 10
1.720325
 20
-0.215681
 30
4.591324
 70
   192
  0
VERTEX
  8
base_support
 10
1.689100
 20
-0.215681
 30
4.588593
 70
   192
  0
VERTEX
  8
base_support
 10
1.657876
 20
-0.215681
 30
4.591324
 70
   192
  0
VERTEX
  8
base_support
 10
1.627600
 20
-0.215681
 30
4.599437
 70
   192
  0
VERTEX
  8
base_support
 10
1.599192
 20
-0.215681
 30
4.612683
 70
   192
  0
VERTEX
  8
base_support
 10
1.573517
 20
-0.215681
 30
4.630662
 70
   192
  0
VERTEX
  8
base_support
 10
1.551353
 20
-0.215681
 30
4.652825
 70
   192
  0
VERTEX
  8
base_support
 10
1.533375
 20
-0.215681
 30
4.678501
 70
   192
  0
VERTEX
  8
base_support
 10
1.520129
 20
-0.215681
 30
4.706908
 70
   192
  0
VERTEX
  8
base_support
 10
1.512016
 20
-0.215681
 30
4.737184
 70
   192
  0
VERTEX
  8
base_support
 10
1.509284
 20
-0.215681
 30
4.768409
 70
   192
  0
VERTEX
  8
base_support
 10
1.512016
 20
-0.215681
 30
4.799633
 70
   192
  0
VERTEX
  8
base_support
 10
1.520129
 20
-0.215681
 30
4.829909
 70
   192
  0
VERTEX
  8
base_support
 10
1.533375
 20
-0.215681
 30
4.858317
 70
   192
  0
VERTEX
  8
base_support
 10
1.551353
 20
-0.215681
 30
4.883992
 70
   192
  0
VERTEX
  8
base_support
 10
1.573517
 20
-0.215681
 30
4.906156
 70
   192
  0
VERTEX
  8
base_support
 10
1.599192
 20
-0.215681
 30
4.924134
 70
   192
  0
VERTEX
  8
base_support
 10
1.627600
 20
-0.215681
 30
4.937380
 70
   192
  0
VERTEX
  8
base_support
 10
1.657876
 20
-0.215681
 30
4.945493
 70
   192
  0
VERTEX
  8
base_support
 10
2.648475
 20
-0.215681
 30
4.591324
 70
   192
  0
VERTEX
  8
base_support
 10
2.618199
 20
-0.215681
 30
4.599437
 70
   192
  0
VERTEX
  8
base_support
 10
2.589792
 20
-0.215681
 30
4.612683
 70
   192
  0
VERTEX
  8
base_support
 10
2.564116
 20
-0.215681
 30
4.630662
 70
   192
  0
VERTEX
  8
base_support
 10
2.541953
 20
-0.215681
 30
4.652825
 70
   192
  0
VERTEX
  8
base_support
 10
2.523975
 20
-0.215681
 30
4.678501
 70
   192
  0
VERTEX
  8
base_support
 10
2.510728
 20
-0.215681
 30
4.706908
 70
   192
  0
VERTEX
  8
base_support
 10
2.502616
 20
-0.215681
 30
4.737184
 70
   192
  0
VERTEX
  8
base_support
 10
2.499884
 20
-0.215681
 30
4.768409
 70
   192
  0
VERTEX
  8
base_support
 10
2.502616
 20
-0.215681
 30
4.799633
 70
   192
  0
VERTEX
  8
base_support
 10
2.510728
 20
-0.215681
 30
4.829909
 70
   192
  0
VERTEX
  8
base_support
 10
2.523975
 20
-0.215681
 30
4.858317
 70
   192
  0
VERTEX
  8
base_support
 10
2.541953
 20
-0.215681
 30
4.883992
 70
   192
  0
VERTEX
  8
base_support
 10
2.564116
 20
-0.215681
 30
4.906156
 70
   192
  0
VERTEX
  8
base_support
 10
2.589792
 20
-0.215681
 30
4.924134
 70
   192
  0
VERTEX
  8
base_support
 10
2.618199
 20
-0.215681
 30
4.937380
 70
   192
  0
VERTEX
  8
base_support
 10
2.648475
 20
-0.215681
 30
4.945493
 70
   192
  0
VERTEX
  8
base_support
 10
2.679700
 20
-0.215681
 30
4.948225
 70
   192
  0
VERTEX
  8
base_support
 10
2.710925
 20
-0.215681
 30
4.945493
 70
   192
  0
VERTEX
  8
base_support
 10
2.741201
 20
-0.215681
 30
4.937380
 70
   192
  0
VERTEX
  8
base_support
 10
2.769608
 20
-0.215681
 30
4.924134
 70
   192
  0
VERTEX
  8
base_support
 10
2.795284
 20
-0.215681
 30
4.906156
 70
   192
  0
VERTEX
  8
base_support
 10
2.817447
 20
-0.215681
 30
4.883992
 70
   192
  0
VERTEX
  8
base_support
 10
2.835425
 20
-0.215681
 30
4.858317
 70
   192
  0
VERTEX
  8
base_support
 10
2.848672
 20
-0.215681
 30
4.829909
 70
   192
  0
VERTEX
  8
base_support
 10
2.856784
 20
-0.215681
 30
4.799633
 70
   192
  0
VERTEX
  8
base_support
 10
2.859516
 20
-0.215681
 30
4.768409
 70
   192
  0
VERTEX
  8
base_support
 10
2.856784
 20
-0.215681
 30
4.737184
 70
   192
  0
VERTEX
  8
base_support
 10
2.848672
 20
-0.215681
 30
4.706908
 70
   192
  0
VERTEX
  8
base_support
 10
2.835425
 20
-0.215681
 30
4.678501
 70
   192
  0
VERTEX
  8
base_support
 10
2.817447
 20
-0.215681
 30
4.652825
 70
   192
  0
VERTEX
  8
base_support
 10
2.795284
 20
-0.215681
 30
4.630662
 70
   192
  0
VERTEX
  8
base_support
 10
2.769608
 20
-0.215681
 30
4.612683
 70
   192
  0
VERTEX
  8
base_support
 10
2.741201
 20
-0.215681
 30
4.599437
 70
   192
  0
VERTEX
  8
base_support
 10
2.710925
 20
-0.215681
 30
4.591324
 70
   192
  0
VERTEX
  8
base_support
 62
   254
 10
0.0
 20
0.0
 30
0.0
 70
   128
 71
   2
 72
   8
 73
   5
  0
VERTEX
  8
base_support
 62
   254
 10
0.0
 20
0.0
 30
0.0
 70
   128
 71
   8
 72
   6
 73
   5
  0
VERTEX
  8
base_support
 62
   254
 10
0.0
 20
0.0
 30
0.0
 70
   128
 71
   8
 72
   7
 73
   6
  0
VERTEX
  8
base_support
 62
   254
 10
0.0
 20
0.0
 30
0.0
 70
   128
 71
   4
 72
   2
 73
   5
  0
VERTEX
  8
base_support
 62
   254
 10
0.0
 20
0.0
 30
0.0
 70
   128
 71
   3
 72
   2
 73
   4
  0
VERTEX
  8
base_support
 62
   254
 10
0.0
 20
0.0
 30
0.0
 70
   128
 71
   2
 72
   3
 73
   1
  0
VERTEX
  8
base_support
 62
   254
 10
0.0
 20
0.0
 30
0.0
 70
   128
 71
   10
 72
   2
 73
   1
  0
VERTEX
  8
base_support
 62
   254
 10
0.0
 20
0.0
 30
0.0
 70
   128
 71
   10
 72
   1
 73
   9
  0
VERTEX
  8
base_support
 62
   254
 10
0.0
 20
0.0
 30
0.0
 70
   128
 71
   12
 72
   14
 73
   13
  0
VERTEX
  8
base_support
 62
   254
 10
0.0
 20
0.0
 30
0.0
 70
   128
 71
   12
 72
   13
 73
   11
  0
VERTEX
  8
base_support
 62
   254
 10
0.0
 20
0.0
 30
0.0
 70
   128
 71
   7
 72
   56
 73
   55
  0
VERTEX
  8
base_support
 62
   254
 10
0.0
 20
0.0
 30
0.0
 70
   128
 71
   56
 72
   11
 73
   55
  0
VERTEX
  8
base_support
 62
   254
 10
0.0
 20
0.0
 30
0.0
 70
   128
 71
   52
 72
   54
 73
   53
  0
VERTEX
  8
base_support
 62
   254
 10
0.0
 20
0.0
 30
0.0
 70
   128
 71
   54
 72
   12
 73
   53
  0
VERTEX
  8
base_support
 62
   254
 10
0.0
 20
0.0
 30
0.0
 70
   128
 71
   50
 72
   297
 73
   296
  0
VERTEX
  8
base_support
 62
   254
 10
0.0
 20
0.0
 30
0.0
 70
   128
 71
   50
 72
   296
 73
   49
  0
VERTEX
  8
base_support
 62
   254
 10
0.0
 20
0.0
 30
0.0
 70
   128
 71
   50
 72
   49
 73
   274
  0
VERTEX
  8
base_support
 62
   254
 10
0.0
 20
0.0
 30
0.0
 70
   128
 71
   49
 72
   48
 73
   47
  0
VERTEX
  8
base_support
 62
   254
 10
0.0
 20
0.0
 30
0.0
 70
   128
 71
   48
 72
   295
 73
   294
  0
VERTEX
  8
base_support
 62
   254
 10
0.0
 20
0.0
 30
0.0
 70
   128
 71
   48
 72
   294
 73
   293
  0
VERTEX
  8
base_support
 62
   254
 10
0.0
 20
0.0
 30
0.0
 70
   128
 71
   48
 72
   293
 73
   292
  0
VERTEX
  8
base_support
 62
   254
 10
0.0
 20
0.0
 30
0.0
 70
   128
 71
   39
 72
   38
 73
   230
  0
VERTEX
  8
base_support
 62
   254
 10
0.0
 20
0.0
 30
0.0
 70
   128
 71
   48
 72
   292
 73
   291
  0
VERTEX
  8
base_support
 62
   254
 10
0.0
 20
0.0
 30
0.0
 70
   128
 71
   48
 72
   291
 73
   290
  0
VERTEX
  8
base_support
 62
   254
 10
0.0
 20
0.0
 30
0.0
 70
   128
 71
   48
 72
   290
 73
   289
  0
VERTEX
  8
base_support
 62
   254
 10
0.0
 20
0.0
 30
0.0
 70
   128
 71
   48
 72
   289
 73
   288
  0
VERTEX
  8
base_support
 62
   254
 10
0.0
 20
0.0
 30
0.0
 70
   128
 71
   48
 72
   288
 73
   287
  0
VERTEX
  8
base_support
 62
   254
 10
0.0
 20
0.0
 30
0.0
 70
   128
 71
   48
 72
   287
 73
   286
  0
VERTEX
  8
base_support
 62
   254
 10
0.0
 20
0.0
 30
0.0
 70
   128
 71
   48
 72
   286
 73
   47
  0
VERTEX
  8
base_support
 62
   254
 10
0.0
 20
0.0
 30
0.0
 70
   128
 71
   49
 72
   47
 73
   271
  0
VERTEX
  8
base_support
 62
   254
 10
0.0
 20
0.0
 30
0.0
 70
   128
 71
   47
 72
   46
 73
   271
  0
VERTEX
  8
base_support
 62
   254
 10
0.0
 20
0.0
 30
0.0
 70
   128
 71
   46
 72
   285
 73
   284
  0
VERTEX
  8
base_support
 62
   254
 10
0.0
 20
0.0
 30
0.0
 70
   128
 71
   46
 72
   284
 73
   283
  0
VERTEX
  8
base_support
 62
   254
 10
0.0
 20
0.0
 30
0.0
 70
   128
 71
   46
 72
   283
 73
   282
  0
VERTEX
  8
base_support
 62
   254
 10
0.0
 20
0.0
 30
0.0
 70
   128
 71
   46
 72
   282
 73
   281
  0
VERTEX
  8
base_support
 62
   254
 10
0.0
 20
0.0
 30
0.0
 70
   128
 71
   46
 72
   281
 73
   280
  0
VERTEX
  8
base_support
 62
   254
 10
0.0
 20
0.0
 30
0.0
 70
   128
 71
   46
 72
   280
 73
   279
  0
VERTEX
  8
base_support
 62
   254
 10
0.0
 20
0.0
 30
0.0
 70
   128
 71
   46
 72
   279
 73
   278
  0
VERTEX
  8
base_support
 62
   254
 10
0.0
 20
0.0
 30
0.0
 70
   128
 71
   46
 72
   278
 73
   45
  0
VERTEX
  8
base_support
 62
   254
 10
0.0
 20
0.0
 30
0.0
 70
   128
 71
   46
 72
   45
 73
   269
  0
VERTEX
  8
base_support
 62
   254
 10
0.0
 20
0.0
 30
0.0
 70
   128
 71
   46
 72
   269
 73
   270
  0
VERTEX
  8
base_support
 62
   254
 10
0.0
 20
0.0
 30
0.0
 70
   128
 71
   46
 72
   270
 73
   271
  0
VERTEX
  8
base_support
 62
   254
 10
0.0
 20
0.0
 30
0.0
 70
   128
 71
   49
 72
   271
 73
   272
  0
VERTEX
  8
base_support
 62
   254
 10
0.0
 20
0.0
 30
0.0
 70
   128
 71
   49
 72
   272
 73
   273
  0
VERTEX
  8
base_support
 62
   254
 10
0.0
 20
0.0
 30
0.0
 70
   128
 71
   49
 72
   273
 73
   274
  0
VERTEX
  8
base_support
 62
   254
 10
0.0
 20
0.0
 30
0.0
 70
   128
 71
   50
 72
   274
 73
   275
  0
VERTEX
  8
base_support
 62
   254
 10
0.0
 20
0.0
 30
0.0
 70
   128
 71
   50
 72
   275
 73
   276
  0
VERTEX
  8
base_support
 62
   254
 10
0.0
 20
0.0
 30
0.0
 70
   128
 71
   50
 72
   276
 73
   277
  0
VERTEX
  8
base_support
 62
   254
 10
0.0
 20
0.0
 30
0.0
 70
   128
 71
   50
 72
   277
 73
   44
  0
VERTEX
  8
base_support
 62
   254
 10
0.0
 20
0.0
 30
0.0
 70
   128
 71
   51
 72
   50
 73
   261
  0
VERTEX
  8
base_support
 62
   254
 10
0.0
 20
0.0
 30
0.0
 70
   128
 71
   50
 72
   44
 73
   268
  0
VERTEX
  8
base_support
 62
   254
 10
0.0
 20
0.0
 30
0.0
 70
   128
 71
   52
 72
   51
 73
   267
  0
VERTEX
  8
base_support
 62
   254
 10
0.0
 20
0.0
 30
0.0
 70
   128
 71
   50
 72
   268
 73
   43
  0
VERTEX
  8
base_support
 62
   254
 10
0.0
 20
0.0
 30
0.0
 70
   128
 71
   50
 72
   43
 73
   260
  0
VERTEX
  8
base_support
 62
   254
 10
0.0
 20
0.0
 30
0.0
 70
   128
 71
   50
 72
   260
 73
   261
  0
VERTEX
  8
base_support
 62
   254
 10
0.0
 20
0.0
 30
0.0
 70
   128
 71
   51
 72
   261
 73
   262
  0
VERTEX
  8
base_support
 62
   254
 10
0.0
 20
0.0
 30
0.0
 70
   128
 71
   51
 72
   262
 73
   263
  0
VERTEX
  8
base_support
 62
   254
 10
0.0
 20
0.0
 30
0.0
 70
   128
 71
   51
 72
   263
 73
   264
  0
VERTEX
  8
base_support
 62
   254
 10
0.0
 20
0.0
 30
0.0
 70
   128
 71
   51
 72
   264
 73
   265
  0
VERTEX
  8
base_support
 62
   254
 10
0.0
 20
0.0
 30
0.0
 70
   128
 71
   51
 72
   265
 73
   266
  0
VERTEX
  8
base_support
 62
   254
 10
0.0
 20
0.0
 30
0.0
 70
   128
 71
   51
 72
   266
 73
   267
  0
VERTEX
  8
base_support
 62
   254
 10
0.0
 20
0.0
 30
0.0
 70
   128
 71
   52
 72
   267
 73
   42
  0
VERTEX
  8
base_support
 62
   254
 10
0.0
 20
0.0
 30
0.0
 70
   128
 71
   52
 72
   42
 73
   33
  0
VERTEX
  8
base_support
 62
   254
 10
0.0
 20
0.0
 30
0.0
 70
   128
 71
   42
 72
   251
 73
   33
  0
VERTEX
  8
base_support
 62
   254
 10
0.0
 20
0.0
 30
0.0
 70
   128
 71
   251
 72
   252
 73
   35
  0
VERTEX
  8
base_support
 62
   254
 10
0.0
 20
0.0
 30
0.0
 70
   128
 71
   252
 72
   253
 73
   35
  0
VERTEX
  8
base_support
 62
   254
 10
0.0
 20
0.0
 30
0.0
 70
   128
 71
   253
 72
   254
 73
   35
  0
VERTEX
  8
base_support
 62
   254
 10
0.0
 20
0.0
 30
0.0
 70
   128
 71
   254
 72
   255
 73
   234
  0
VERTEX
  8
base_support
 62
   254
 10
0.0
 20
0.0
 30
0.0
 70
   128
 71
   255
 72
   256
 73
   233
  0
VERTEX
  8
base_support
 62
   254
 10
0.0
 20
0.0
 30
0.0
 70
   128
 71
   256
 72
   257
 73
   232
  0
VERTEX
  8
base_support
 62
   254
 10
0.0
 20
0.0
 30
0.0
 70
   128
 71
   257
 72
   258
 73
   231
  0
VERTEX
  8
base_support
 62
   254
 10
0.0
 20
0.0
 30
0.0
 70
   128
 71
   258
 72
   259
 73
   244
  0
VERTEX
  8
base_support
 62
   254
 10
0.0
 20
0.0
 30
0.0
 70
   128
 71
   259
 72
   41
 73
   248
  0
VERTEX
  8
base_support
 62
   254
 10
0.0
 20
0.0
 30
0.0
 70
   128
 71
   41
 72
   40
 73
   250
  0
VERTEX
  8
base_support
 62
   254
 10
0.0
 20
0.0
 30
0.0
 70
   128
 71
   41
 72
   250
 73
   249
  0
VERTEX
  8
base_support
 62
   254
 10
0.0
 20
0.0
 30
0.0
 70
   128
 71
   41
 72
   249
 73
   248
  0
VERTEX
  8
base_support
 62
   254
 10
0.0
 20
0.0
 30
0.0
 70
   128
 71
   259
 72
   248
 73
   247
  0
VERTEX
  8
base_support
 62
   254
 10
0.0
 20
0.0
 30
0.0
 70
   128
 71
   259
 72
   247
 73
   246
  0
VERTEX
  8
base_support
 62
   254
 10
0.0
 20
0.0
 30
0.0
 70
   128
 71
   259
 72
   246
 73
   245
  0
VERTEX
  8
base_support
 62
   254
 10
0.0
 20
0.0
 30
0.0
 70
   128
 71
   259
 72
   245
 73
   244
  0
VERTEX
  8
base_support
 62
   254
 10
0.0
 20
0.0
 30
0.0
 70
   128
 71
   258
 72
   244
 73
   243
  0
VERTEX
  8
base_support
 62
   254
 10
0.0
 20
0.0
 30
0.0
 70
   128
 71
   258
 72
   243
 73
   39
  0
VERTEX
  8
base_support
 62
   254
 10
0.0
 20
0.0
 30
0.0
 70
   128
 71
   258
 72
   39
 73
   231
  0
VERTEX
  8
base_support
 62
   254
 10
0.0
 20
0.0
 30
0.0
 70
   128
 71
   38
 72
   242
 73
   241
  0
VERTEX
  8
base_support
 62
   254
 10
0.0
 20
0.0
 30
0.0
 70
   128
 71
   38
 72
   241
 73
   240
  0
VERTEX
  8
base_support
 62
   254
 10
0.0
 20
0.0
 30
0.0
 70
   128
 71
   55
 72
   32
 73
   7
  0
VERTEX
  8
base_support
 62
   254
 10
0.0
 20
0.0
 30
0.0
 70
   128
 71
   38
 72
   240
 73
   239
  0
VERTEX
  8
base_support
 62
   254
 10
0.0
 20
0.0
 30
0.0
 70
   128
 71
   38
 72
   239
 73
   238
  0
VERTEX
  8
base_support
 62
   254
 10
0.0
 20
0.0
 30
0.0
 70
   128
 71
   38
 72
   238
 73
   237
  0
VERTEX
  8
base_support
 62
   254
 10
0.0
 20
0.0
 30
0.0
 70
   128
 71
   38
 72
   237
 73
   236
  0
VERTEX
  8
base_support
 62
   254
 10
0.0
 20
0.0
 30
0.0
 70
   128
 71
   38
 72
   236
 73
   235
  0
VERTEX
  8
base_support
 62
   254
 10
0.0
 20
0.0
 30
0.0
 70
   128
 71
   38
 72
   235
 73
   37
  0
VERTEX
  8
base_support
 62
   254
 10
0.0
 20
0.0
 30
0.0
 70
   128
 71
   38
 72
   37
 73
   36
  0
VERTEX
  8
base_support
 62
   254
 10
0.0
 20
0.0
 30
0.0
 70
   128
 71
   38
 72
   36
 73
   230
  0
VERTEX
  8
base_support
 62
   254
 10
0.0
 20
0.0
 30
0.0
 70
   128
 71
   39
 72
   230
 73
   231
  0
VERTEX
  8
base_support
 62
   254
 10
0.0
 20
0.0
 30
0.0
 70
   128
 71
   257
 72
   231
 73
   232
  0
VERTEX
  8
base_support
 62
   254
 10
0.0
 20
0.0
 30
0.0
 70
   128
 71
   256
 72
   232
 73
   233
  0
VERTEX
  8
base_support
 62
   254
 10
0.0
 20
0.0
 30
0.0
 70
   128
 71
   33
 72
   251
 73
   35
  0
VERTEX
  8
base_support
 62
   254
 10
0.0
 20
0.0
 30
0.0
 70
   128
 71
   255
 72
   233
 73
   234
  0
VERTEX
  8
base_support
 62
   254
 10
0.0
 20
0.0
 30
0.0
 70
   128
 71
   254
 72
   234
 73
   35
  0
VERTEX
  8
base_support
 62
   254
 10
0.0
 20
0.0
 30
0.0
 70
   128
 71
   54
 72
   52
 73
   33
  0
VERTEX
  8
base_support
 62
   254
 10
0.0
 20
0.0
 30
0.0
 70
   128
 71
   35
 72
   34
 73
   33
  0
VERTEX
  8
base_support
 62
   254
 10
0.0
 20
0.0
 30
0.0
 70
   128
 71
   55
 72
   54
 73
   33
  0
VERTEX
  8
base_support
 62
   254
 10
0.0
 20
0.0
 30
0.0
 70
   128
 71
   32
 72
   55
 73
   33
  0
VERTEX
  8
base_support
 62
   254
 10
0.0
 20
0.0
 30
0.0
 70
   128
 71
   32
 72
   31
 73
   30
  0
VERTEX
  8
base_support
 62
   254
 10
0.0
 20
0.0
 30
0.0
 70
   128
 71
   32
 72
   30
 73
   208
  0
VERTEX
  8
base_support
 62
   254
 10
0.0
 20
0.0
 30
0.0
 70
   128
 71
   30
 72
   225
 73
   204
  0
VERTEX
  8
base_support
 62
   254
 10
0.0
 20
0.0
 30
0.0
 70
   128
 71
   225
 72
   226
 73
   203
  0
VERTEX
  8
base_support
 62
   254
 10
0.0
 20
0.0
 30
0.0
 70
   128
 71
   226
 72
   227
 73
   202
  0
VERTEX
  8
base_support
 62
   254
 10
0.0
 20
0.0
 30
0.0
 70
   128
 71
   227
 72
   228
 73
   201
  0
VERTEX
  8
base_support
 62
   254
 10
0.0
 20
0.0
 30
0.0
 70
   128
 71
   228
 72
   229
 73
   218
  0
VERTEX
  8
base_support
 62
   254
 10
0.0
 20
0.0
 30
0.0
 70
   128
 71
   229
 72
   29
 73
   221
  0
VERTEX
  8
base_support
 62
   254
 10
0.0
 20
0.0
 30
0.0
 70
   128
 71
   29
 72
   28
 73
   224
  0
VERTEX
  8
base_support
 62
   254
 10
0.0
 20
0.0
 30
0.0
 70
   128
 71
   29
 72
   224
 73
   223
  0
VERTEX
  8
base_support
 62
   254
 10
0.0
 20
0.0
 30
0.0
 70
   128
 71
   29
 72
   223
 73
   222
  0
VERTEX
  8
base_support
 62
   254
 10
0.0
 20
0.0
 30
0.0
 70
   128
 71
   29
 72
   222
 73
   221
  0
VERTEX
  8
base_support
 62
   254
 10
0.0
 20
0.0
 30
0.0
 70
   128
 71
   229
 72
   221
 73
   220
  0
VERTEX
  8
base_support
 62
   254
 10
0.0
 20
0.0
 30
0.0
 70
   128
 71
   229
 72
   220
 73
   219
  0
VERTEX
  8
base_support
 62
   254
 10
0.0
 20
0.0
 30
0.0
 70
   128
 71
   229
 72
   219
 73
   218
  0
VERTEX
  8
base_support
 62
   254
 10
0.0
 20
0.0
 30
0.0
 70
   128
 71
   228
 72
   218
 73
   217
  0
VERTEX
  8
base_support
 62
   254
 10
0.0
 20
0.0
 30
0.0
 70
   128
 71
   228
 72
   217
 73
   27
  0
VERTEX
  8
base_support
 62
   254
 10
0.0
 20
0.0
 30
0.0
 70
   128
 71
   228
 72
   27
 73
   26
  0
VERTEX
  8
base_support
 62
   254
 10
0.0
 20
0.0
 30
0.0
 70
   128
 71
   228
 72
   26
 73
   201
  0
VERTEX
  8
base_support
 62
   254
 10
0.0
 20
0.0
 30
0.0
 70
   128
 71
   26
 72
   216
 73
   215
  0
VERTEX
  8
base_support
 62
   254
 10
0.0
 20
0.0
 30
0.0
 70
   128
 71
   26
 72
   215
 73
   214
  0
VERTEX
  8
base_support
 62
   254
 10
0.0
 20
0.0
 30
0.0
 70
   128
 71
   26
 72
   214
 73
   213
  0
VERTEX
  8
base_support
 62
   254
 10
0.0
 20
0.0
 30
0.0
 70
   128
 71
   26
 72
   213
 73
   212
  0
VERTEX
  8
base_support
 62
   254
 10
0.0
 20
0.0
 30
0.0
 70
   128
 71
   26
 72
   212
 73
   211
  0
VERTEX
  8
base_support
 62
   254
 10
0.0
 20
0.0
 30
0.0
 70
   128
 71
   26
 72
   211
 73
   210
  0
VERTEX
  8
base_support
 62
   254
 10
0.0
 20
0.0
 30
0.0
 70
   128
 71
   26
 72
   210
 73
   209
  0
VERTEX
  8
base_support
 62
   254
 10
0.0
 20
0.0
 30
0.0
 70
   128
 71
   26
 72
   209
 73
   25
  0
VERTEX
  8
base_support
 62
   254
 10
0.0
 20
0.0
 30
0.0
 70
   128
 71
   26
 72
   25
 73
   24
  0
VERTEX
  8
base_support
 62
   254
 10
0.0
 20
0.0
 30
0.0
 70
   128
 71
   7
 72
   32
 73
   23
  0
VERTEX
  8
base_support
 62
   254
 10
0.0
 20
0.0
 30
0.0
 70
   128
 71
   26
 72
   24
 73
   200
  0
VERTEX
  8
base_support
 62
   254
 10
0.0
 20
0.0
 30
0.0
 70
   128
 71
   26
 72
   200
 73
   201
  0
VERTEX
  8
base_support
 62
   254
 10
0.0
 20
0.0
 30
0.0
 70
   128
 71
   227
 72
   201
 73
   202
  0
VERTEX
  8
base_support
 62
   254
 10
0.0
 20
0.0
 30
0.0
 70
   128
 71
   226
 72
   202
 73
   203
  0
VERTEX
  8
base_support
 62
   254
 10
0.0
 20
0.0
 30
0.0
 70
   128
 71
   225
 72
   203
 73
   204
  0
VERTEX
  8
base_support
 62
   254
 10
0.0
 20
0.0
 30
0.0
 70
   128
 71
   30
 72
   204
 73
   205
  0
VERTEX
  8
base_support
 62
   254
 10
0.0
 20
0.0
 30
0.0
 70
   128
 71
   30
 72
   205
 73
   206
  0
VERTEX
  8
base_support
 62
   254
 10
0.0
 20
0.0
 30
0.0
 70
   128
 71
   30
 72
   206
 73
   207
  0
VERTEX
  8
base_support
 62
   254
 10
0.0
 20
0.0
 30
0.0
 70
   128
 71
   30
 72
   207
 73
   208
  0
VERTEX
  8
base_support
 62
   254
 10
0.0
 20
0.0
 30
0.0
 70
   128
 71
   32
 72
   208
 73
   23
  0
VERTEX
  8
base_support
 62
   254
 10
0.0
 20
0.0
 30
0.0
 70
   128
 71
   7
 72
   23
 73
   192
  0
VERTEX
  8
base_support
 62
   254
 10
0.0
 20
0.0
 30
0.0
 70
   128
 71
   7
 72
   192
 73
   6
  0
VERTEX
  8
base_support
 62
   254
 10
0.0
 20
0.0
 30
0.0
 70
   128
 71
   192
 72
   193
 73
   6
  0
VERTEX
  8
base_support
 62
   254
 10
0.0
 20
0.0
 30
0.0
 70
   128
 71
   193
 72
   194
 73
   6
  0
VERTEX
  8
base_support
 62
   254
 10
0.0
 20
0.0
 30
0.0
 70
   128
 71
   194
 72
   195
 73
   6
  0
VERTEX
  8
base_support
 62
   254
 10
0.0
 20
0.0
 30
0.0
 70
   128
 71
   195
 72
   196
 73
   6
  0
VERTEX
  8
base_support
 62
   254
 10
0.0
 20
0.0
 30
0.0
 70
   128
 71
   196
 72
   197
 73
   6
  0
VERTEX
  8
base_support
 62
   254
 10
0.0
 20
0.0
 30
0.0
 70
   128
 71
   197
 72
   198
 73
   6
  0
VERTEX
  8
base_support
 62
   254
 10
0.0
 20
0.0
 30
0.0
 70
   128
 71
   198
 72
   199
 73
   15
  0
VERTEX
  8
base_support
 62
   254
 10
0.0
 20
0.0
 30
0.0
 70
   128
 71
   15
 72
   191
 73
   21
  0
VERTEX
  8
base_support
 62
   254
 10
0.0
 20
0.0
 30
0.0
 70
   128
 71
   182
 72
   183
 73
   15
  0
VERTEX
  8
base_support
 62
   254
 10
0.0
 20
0.0
 30
0.0
 70
   128
 71
   183
 72
   184
 73
   15
  0
VERTEX
  8
base_support
 62
   254
 10
0.0
 20
0.0
 30
0.0
 70
   128
 71
   184
 72
   185
 73
   15
  0
VERTEX
  8
base_support
 62
   254
 10
0.0
 20
0.0
 30
0.0
 70
   128
 71
   185
 72
   186
 73
   16
  0
VERTEX
  8
base_support
 62
   254
 10
0.0
 20
0.0
 30
0.0
 70
   128
 71
   186
 72
   187
 73
   16
  0
VERTEX
  8
base_support
 62
   254
 10
0.0
 20
0.0
 30
0.0
 70
   128
 71
   187
 72
   188
 73
   16
  0
VERTEX
  8
base_support
 62
   254
 10
0.0
 20
0.0
 30
0.0
 70
   128
 71
   188
 72
   189
 73
   176
  0
VERTEX
  8
base_support
 62
   254
 10
0.0
 20
0.0
 30
0.0
 70
   128
 71
   189
 72
   190
 73
   178
  0
VERTEX
  8
base_support
 62
   254
 10
0.0
 20
0.0
 30
0.0
 70
   128
 71
   190
 72
   20
 73
   181
  0
VERTEX
  8
base_support
 62
   254
 10
0.0
 20
0.0
 30
0.0
 70
   128
 71
   190
 72
   181
 73
   180
  0
VERTEX
  8
base_support
 62
   254
 10
0.0
 20
0.0
 30
0.0
 70
   128
 71
   190
 72
   180
 73
   179
  0
VERTEX
  8
base_support
 62
   254
 10
0.0
 20
0.0
 30
0.0
 70
   128
 71
   190
 72
   179
 73
   178
  0
VERTEX
  8
base_support
 62
   254
 10
0.0
 20
0.0
 30
0.0
 70
   128
 71
   189
 72
   178
 73
   177
  0
VERTEX
  8
base_support
 62
   254
 10
0.0
 20
0.0
 30
0.0
 70
   128
 71
   189
 72
   177
 73
   176
  0
VERTEX
  8
base_support
 62
   254
 10
0.0
 20
0.0
 30
0.0
 70
   128
 71
   188
 72
   176
 73
   175
  0
VERTEX
  8
base_support
 62
   254
 10
0.0
 20
0.0
 30
0.0
 70
   128
 71
   188
 72
   175
 73
   174
  0
VERTEX
  8
base_support
 62
   254
 10
0.0
 20
0.0
 30
0.0
 70
   128
 71
   188
 72
   174
 73
   19
  0
VERTEX
  8
base_support
 62
   254
 10
0.0
 20
0.0
 30
0.0
 70
   128
 71
   188
 72
   19
 73
   18
  0
VERTEX
  8
base_support
 62
   254
 10
0.0
 20
0.0
 30
0.0
 70
   128
 71
   188
 72
   18
 73
   16
  0
VERTEX
  8
base_support
 62
   254
 10
0.0
 20
0.0
 30
0.0
 70
   128
 71
   18
 72
   173
 73
   172
  0
VERTEX
  8
base_support
 62
   254
 10
0.0
 20
0.0
 30
0.0
 70
   128
 71
   18
 72
   172
 73
   171
  0
VERTEX
  8
base_support
 62
   254
 10
0.0
 20
0.0
 30
0.0
 70
   128
 71
   18
 72
   171
 73
   170
  0
VERTEX
  8
base_support
 62
   254
 10
0.0
 20
0.0
 30
0.0
 70
   128
 71
   18
 72
   170
 73
   169
  0
VERTEX
  8
base_support
 62
   254
 10
0.0
 20
0.0
 30
0.0
 70
   128
 71
   18
 72
   169
 73
   168
  0
VERTEX
  8
base_support
 62
   254
 10
0.0
 20
0.0
 30
0.0
 70
   128
 71
   18
 72
   168
 73
   167
  0
VERTEX
  8
base_support
 62
   254
 10
0.0
 20
0.0
 30
0.0
 70
   128
 71
   18
 72
   167
 73
   166
  0
VERTEX
  8
base_support
 62
   254
 10
0.0
 20
0.0
 30
0.0
 70
   128
 71
   21
 72
   182
 73
   15
  0
VERTEX
  8
base_support
 62
   254
 10
0.0
 20
0.0
 30
0.0
 70
   128
 71
   18
 72
   166
 73
   165
  0
VERTEX
  8
base_support
 62
   254
 10
0.0
 20
0.0
 30
0.0
 70
   128
 71
   18
 72
   165
 73
   164
  0
VERTEX
  8
base_support
 62
   254
 10
0.0
 20
0.0
 30
0.0
 70
   128
 71
   16
 72
   18
 73
   17
  0
VERTEX
  8
base_support
 62
   254
 10
0.0
 20
0.0
 30
0.0
 70
   128
 71
   18
 72
   164
 73
   17
  0
VERTEX
  8
base_support
 62
   254
 10
0.0
 20
0.0
 30
0.0
 70
   128
 71
   199
 72
   22
 73
   15
  0
VERTEX
  8
base_support
 62
   254
 10
0.0
 20
0.0
 30
0.0
 70
   128
 71
   22
 72
   191
 73
   15
  0
VERTEX
  8
base_support
 62
   254
 10
0.0
 20
0.0
 30
0.0
 70
   128
 71
   185
 72
   16
 73
   15
  0
VERTEX
  8
base_support
 62
   254
 10
0.0
 20
0.0
 30
0.0
 70
   128
 71
   16
 72
   163
 73
   162
  0
VERTEX
  8
base_support
 62
   254
 10
0.0
 20
0.0
 30
0.0
 70
   128
 71
   16
 72
   162
 73
   15
  0
VERTEX
  8
base_support
 62
   254
 10
0.0
 20
0.0
 30
0.0
 70
   128
 71
   198
 72
   15
 73
   6
  0
VERTEX
  8
base_support
 62
   254
 10
0.0
 20
0.0
 30
0.0
 70
   128
 71
   58
 72
   76
 73
   75
  0
VERTEX
  8
base_support
 62
   254
 10
0.0
 20
0.0
 30
0.0
 70
   128
 71
   74
 72
   73
 73
   72
  0
VERTEX
  8
base_support
 62
   254
 10
0.0
 20
0.0
 30
0.0
 70
   128
 71
   74
 72
   72
 73
   71
  0
VERTEX
  8
base_support
 62
   254
 10
0.0
 20
0.0
 30
0.0
 70
   128
 71
   75
 72
   74
 73
   79
  0
VERTEX
  8
base_support
 62
   254
 10
0.0
 20
0.0
 30
0.0
 70
   128
 71
   71
 72
   79
 73
   74
  0
VERTEX
  8
base_support
 62
   254
 10
0.0
 20
0.0
 30
0.0
 70
   128
 71
   70
 72
   69
 73
   68
  0
VERTEX
  8
base_support
 62
   254
 10
0.0
 20
0.0
 30
0.0
 70
   128
 71
   70
 72
   80
 73
   79
  0
VERTEX
  8
base_support
 62
   254
 10
0.0
 20
0.0
 30
0.0
 70
   128
 71
   81
 72
   67
 73
   65
  0
VERTEX
  8
base_support
 62
   254
 10
0.0
 20
0.0
 30
0.0
 70
   128
 71
   67
 72
   66
 73
   65
  0
VERTEX
  8
base_support
 62
   254
 10
0.0
 20
0.0
 30
0.0
 70
   128
 71
   58
 72
   13
 73
   14
  0
VERTEX
  8
base_support
 62
   254
 10
0.0
 20
0.0
 30
0.0
 70
   128
 71
   64
 72
   63
 73
   62
  0
VERTEX
  8
base_support
 62
   254
 10
0.0
 20
0.0
 30
0.0
 70
   128
 71
   64
 72
   62
 73
   61
  0
VERTEX
  8
base_support
 62
   254
 10
0.0
 20
0.0
 30
0.0
 70
   128
 71
   82
 72
   14
 73
   77
  0
VERTEX
  8
base_support
 62
   254
 10
0.0
 20
0.0
 30
0.0
 70
   128
 71
   60
 72
   59
 73
   57
  0
VERTEX
  8
base_support
 62
   254
 10
0.0
 20
0.0
 30
0.0
 70
   128
 71
   64
 72
   82
 73
   65
  0
VERTEX
  8
base_support
 62
   254
 10
0.0
 20
0.0
 30
0.0
 70
   128
 71
   64
 72
   61
 73
   82
  0
VERTEX
  8
base_support
 62
   254
 10
0.0
 20
0.0
 30
0.0
 70
   128
 71
   61
 72
   60
 73
   82
  0
VERTEX
  8
base_support
 62
   254
 10
0.0
 20
0.0
 30
0.0
 70
   128
 71
   71
 72
   70
 73
   79
  0
VERTEX
  8
base_support
 62
   254
 10
0.0
 20
0.0
 30
0.0
 70
   128
 71
   68
 72
   67
 73
   81
  0
VERTEX
  8
base_support
 62
   254
 10
0.0
 20
0.0
 30
0.0
 70
   128
 71
   81
 72
   65
 73
   82
  0
VERTEX
  8
base_support
 62
   254
 10
0.0
 20
0.0
 30
0.0
 70
   128
 71
   70
 72
   68
 73
   80
  0
VERTEX
  8
base_support
 62
   254
 10
0.0
 20
0.0
 30
0.0
 70
   128
 71
   68
 72
   81
 73
   80
  0
VERTEX
  8
base_support
 62
   254
 10
0.0
 20
0.0
 30
0.0
 70
   128
 71
   58
 72
   75
 73
   13
  0
VERTEX
  8
base_support
 62
   254
 10
0.0
 20
0.0
 30
0.0
 70
   128
 71
   75
 72
   79
 73
   13
  0
VERTEX
  8
base_support
 62
   254
 10
0.0
 20
0.0
 30
0.0
 70
   128
 71
   57
 72
   58
 73
   14
  0
VERTEX
  8
base_support
 62
   254
 10
0.0
 20
0.0
 30
0.0
 70
   128
 71
   79
 72
   78
 73
   13
  0
VERTEX
  8
base_support
 62
   254
 10
0.0
 20
0.0
 30
0.0
 70
   128
 71
   82
 72
   60
 73
   14
  0
VERTEX
  8
base_support
 62
   254
 10
0.0
 20
0.0
 30
0.0
 70
   128
 71
   60
 72
   57
 73
   14
  0
VERTEX
  8
base_support
 62
   254
 10
0.0
 20
0.0
 30
0.0
 70
   128
 71
   5
 72
   6
 73
   58
  0
VERTEX
  8
base_support
 62
   254
 10
0.0
 20
0.0
 30
0.0
 70
   128
 71
   6
 72
   76
 73
   58
  0
VERTEX
  8
base_support
 62
   254
 10
0.0
 20
0.0
 30
0.0
 70
   128
 71
   6
 72
   15
 73
   85
  0
VERTEX
  8
base_support
 62
   254
 10
0.0
 20
0.0
 30
0.0
 70
   128
 71
   76
 72
   6
 73
   83
  0
VERTEX
  8
base_support
 62
   254
 10
0.0
 20
0.0
 30
0.0
 70
   128
 71
   83
 72
   6
 73
   84
  0
VERTEX
  8
base_support
 62
   254
 10
0.0
 20
0.0
 30
0.0
 70
   128
 71
   84
 72
   6
 73
   85
  0
VERTEX
  8
base_support
 62
   254
 10
0.0
 20
0.0
 30
0.0
 70
   128
 71
   73
 72
   84
 73
   72
  0
VERTEX
  8
base_support
 62
   254
 10
0.0
 20
0.0
 30
0.0
 70
   128
 71
   72
 72
   84
 73
   85
  0
VERTEX
  8
base_support
 62
   254
 10
0.0
 20
0.0
 30
0.0
 70
   128
 71
   86
 72
   87
 73
   68
  0
VERTEX
  8
base_support
 62
   254
 10
0.0
 20
0.0
 30
0.0
 70
   128
 71
   85
 72
   15
 73
   87
  0
VERTEX
  8
base_support
 62
   254
 10
0.0
 20
0.0
 30
0.0
 70
   128
 71
   86
 72
   85
 73
   87
  0
VERTEX
  8
base_support
 62
   254
 10
0.0
 20
0.0
 30
0.0
 70
   128
 71
   69
 72
   86
 73
   68
  0
VERTEX
  8
base_support
 62
   254
 10
0.0
 20
0.0
 30
0.0
 70
   128
 71
   3
 72
   4
 73
   88
  0
VERTEX
  8
base_support
 62
   254
 10
0.0
 20
0.0
 30
0.0
 70
   128
 71
   90
 72
   89
 73
   51
  0
VERTEX
  8
base_support
 62
   254
 10
0.0
 20
0.0
 30
0.0
 70
   128
 71
   51
 72
   93
 73
   50
  0
VERTEX
  8
base_support
 62
   254
 10
0.0
 20
0.0
 30
0.0
 70
   128
 71
   62
 72
   93
 73
   94
  0
VERTEX
  8
base_support
 62
   254
 10
0.0
 20
0.0
 30
0.0
 70
   128
 71
   67
 72
   91
 73
   92
  0
VERTEX
  8
base_support
 62
   254
 10
0.0
 20
0.0
 30
0.0
 70
   128
 71
   91
 72
   50
 73
   93
  0
VERTEX
  8
base_support
 62
   254
 10
0.0
 20
0.0
 30
0.0
 70
   128
 71
   66
 72
   67
 73
   92
  0
VERTEX
  8
base_support
 62
   254
 10
0.0
 20
0.0
 30
0.0
 70
   128
 71
   92
 72
   91
 73
   93
  0
VERTEX
  8
base_support
 62
   254
 10
0.0
 20
0.0
 30
0.0
 70
   128
 71
   63
 72
   93
 73
   62
  0
VERTEX
  8
base_support
 62
   254
 10
0.0
 20
0.0
 30
0.0
 70
   128
 71
   89
 72
   59
 73
   95
  0
VERTEX
  8
base_support
 62
   254
 10
0.0
 20
0.0
 30
0.0
 70
   128
 71
   93
 72
   51
 73
   94
  0
VERTEX
  8
base_support
 62
   254
 10
0.0
 20
0.0
 30
0.0
 70
   128
 71
   51
 72
   89
 73
   95
  0
VERTEX
  8
base_support
 62
   254
 10
0.0
 20
0.0
 30
0.0
 70
   128
 71
   94
 72
   51
 73
   95
  0
VERTEX
  8
base_support
 62
   254
 10
0.0
 20
0.0
 30
0.0
 70
   128
 71
   89
 72
   88
 73
   57
  0
VERTEX
  8
base_support
 62
   254
 10
0.0
 20
0.0
 30
0.0
 70
   128
 71
   89
 72
   57
 73
   59
  0
VERTEX
  8
base_support
 62
   254
 10
0.0
 20
0.0
 30
0.0
 70
   128
 71
   57
 72
   88
 73
   4
  0
VERTEX
  8
base_support
 62
   254
 10
0.0
 20
0.0
 30
0.0
 70
   128
 71
   97
 72
   96
 73
   77
  0
VERTEX
  8
base_support
 62
   254
 10
0.0
 20
0.0
 30
0.0
 70
   128
 71
   96
 72
   82
 73
   77
  0
VERTEX
  8
base_support
 62
   254
 10
0.0
 20
0.0
 30
0.0
 70
   128
 71
   118
 72
   117
 73
   119
  0
VERTEX
  8
base_support
 62
   254
 10
0.0
 20
0.0
 30
0.0
 70
   128
 71
   101
 72
   100
 73
   68
  0
VERTEX
  8
base_support
 62
   254
 10
0.0
 20
0.0
 30
0.0
 70
   128
 71
   99
 72
   100
 73
   98
  0
VERTEX
  8
base_support
 62
   254
 10
0.0
 20
0.0
 30
0.0
 70
   128
 71
   102
 72
   101
 73
   103
  0
VERTEX
  8
base_support
 62
   254
 10
0.0
 20
0.0
 30
0.0
 70
   128
 71
   103
 72
   101
 73
   327
  0
VERTEX
  8
base_support
 62
   254
 10
0.0
 20
0.0
 30
0.0
 70
   128
 71
   298
 72
   103
 73
   323
  0
VERTEX
  8
base_support
 62
   254
 10
0.0
 20
0.0
 30
0.0
 70
   128
 71
   299
 72
   298
 73
   322
  0
VERTEX
  8
base_support
 62
   254
 10
0.0
 20
0.0
 30
0.0
 70
   128
 71
   300
 72
   299
 73
   321
  0
VERTEX
  8
base_support
 62
   254
 10
0.0
 20
0.0
 30
0.0
 70
   128
 71
   301
 72
   300
 73
   320
  0
VERTEX
  8
base_support
 62
   254
 10
0.0
 20
0.0
 30
0.0
 70
   128
 71
   302
 72
   301
 73
   309
  0
VERTEX
  8
base_support
 62
   254
 10
0.0
 20
0.0
 30
0.0
 70
   128
 71
   104
 72
   302
 73
   306
  0
VERTEX
  8
base_support
 62
   254
 10
0.0
 20
0.0
 30
0.0
 70
   128
 71
   105
 72
   104
 73
   303
  0
VERTEX
  8
base_support
 62
   254
 10
0.0
 20
0.0
 30
0.0
 70
   128
 71
   303
 72
   104
 73
   304
  0
VERTEX
  8
base_support
 62
   254
 10
0.0
 20
0.0
 30
0.0
 70
   128
 71
   304
 72
   104
 73
   305
  0
VERTEX
  8
base_support
 62
   254
 10
0.0
 20
0.0
 30
0.0
 70
   128
 71
   305
 72
   104
 73
   306
  0
VERTEX
  8
base_support
 62
   254
 10
0.0
 20
0.0
 30
0.0
 70
   128
 71
   306
 72
   302
 73
   307
  0
VERTEX
  8
base_support
 62
   254
 10
0.0
 20
0.0
 30
0.0
 70
   128
 71
   307
 72
   302
 73
   308
  0
VERTEX
  8
base_support
 62
   254
 10
0.0
 20
0.0
 30
0.0
 70
   128
 71
   308
 72
   302
 73
   309
  0
VERTEX
  8
base_support
 62
   254
 10
0.0
 20
0.0
 30
0.0
 70
   128
 71
   309
 72
   301
 73
   310
  0
VERTEX
  8
base_support
 62
   254
 10
0.0
 20
0.0
 30
0.0
 70
   128
 71
   310
 72
   301
 73
   106
  0
VERTEX
  8
base_support
 62
   254
 10
0.0
 20
0.0
 30
0.0
 70
   128
 71
   106
 72
   301
 73
   107
  0
VERTEX
  8
base_support
 62
   254
 10
0.0
 20
0.0
 30
0.0
 70
   128
 71
   107
 72
   301
 73
   320
  0
VERTEX
  8
base_support
 62
   254
 10
0.0
 20
0.0
 30
0.0
 70
   128
 71
   311
 72
   107
 73
   312
  0
VERTEX
  8
base_support
 62
   254
 10
0.0
 20
0.0
 30
0.0
 70
   128
 71
   312
 72
   107
 73
   313
  0
VERTEX
  8
base_support
 62
   254
 10
0.0
 20
0.0
 30
0.0
 70
   128
 71
   313
 72
   107
 73
   314
  0
VERTEX
  8
base_support
 62
   254
 10
0.0
 20
0.0
 30
0.0
 70
   128
 71
   314
 72
   107
 73
   315
  0
VERTEX
  8
base_support
 62
   254
 10
0.0
 20
0.0
 30
0.0
 70
   128
 71
   315
 72
   107
 73
   316
  0
VERTEX
  8
base_support
 62
   254
 10
0.0
 20
0.0
 30
0.0
 70
   128
 71
   316
 72
   107
 73
   317
  0
VERTEX
  8
base_support
 62
   254
 10
0.0
 20
0.0
 30
0.0
 70
   128
 71
   317
 72
   107
 73
   318
  0
VERTEX
  8
base_support
 62
   254
 10
0.0
 20
0.0
 30
0.0
 70
   128
 71
   318
 72
   107
 73
   108
  0
VERTEX
  8
base_support
 62
   254
 10
0.0
 20
0.0
 30
0.0
 70
   128
 71
   108
 72
   107
 73
   109
  0
VERTEX
  8
base_support
 62
   254
 10
0.0
 20
0.0
 30
0.0
 70
   128
 71
   109
 72
   107
 73
   319
  0
VERTEX
  8
base_support
 62
   254
 10
0.0
 20
0.0
 30
0.0
 70
   128
 71
   101
 72
   68
 73
   330
  0
VERTEX
  8
base_support
 62
   254
 10
0.0
 20
0.0
 30
0.0
 70
   128
 71
   319
 72
   107
 73
   320
  0
VERTEX
  8
base_support
 62
   254
 10
0.0
 20
0.0
 30
0.0
 70
   128
 71
   320
 72
   300
 73
   321
  0
VERTEX
  8
base_support
 62
   254
 10
0.0
 20
0.0
 30
0.0
 70
   128
 71
   321
 72
   299
 73
   322
  0
VERTEX
  8
base_support
 62
   254
 10
0.0
 20
0.0
 30
0.0
 70
   128
 71
   322
 72
   298
 73
   323
  0
VERTEX
  8
base_support
 62
   254
 10
0.0
 20
0.0
 30
0.0
 70
   128
 71
   323
 72
   103
 73
   324
  0
VERTEX
  8
base_support
 62
   254
 10
0.0
 20
0.0
 30
0.0
 70
   128
 71
   324
 72
   103
 73
   325
  0
VERTEX
  8
base_support
 62
   254
 10
0.0
 20
0.0
 30
0.0
 70
   128
 71
   325
 72
   103
 73
   326
  0
VERTEX
  8
base_support
 62
   254
 10
0.0
 20
0.0
 30
0.0
 70
   128
 71
   326
 72
   103
 73
   327
  0
VERTEX
  8
base_support
 62
   254
 10
0.0
 20
0.0
 30
0.0
 70
   128
 71
   327
 72
   101
 73
   110
  0
VERTEX
  8
base_support
 62
   254
 10
0.0
 20
0.0
 30
0.0
 70
   128
 71
   110
 72
   101
 73
   328
  0
VERTEX
  8
base_support
 62
   254
 10
0.0
 20
0.0
 30
0.0
 70
   128
 71
   328
 72
   101
 73
   329
  0
VERTEX
  8
base_support
 62
   254
 10
0.0
 20
0.0
 30
0.0
 70
   128
 71
   329
 72
   101
 73
   330
  0
VERTEX
  8
base_support
 62
   254
 10
0.0
 20
0.0
 30
0.0
 70
   128
 71
   330
 72
   68
 73
   331
  0
VERTEX
  8
base_support
 62
   254
 10
0.0
 20
0.0
 30
0.0
 70
   128
 71
   331
 72
   68
 73
   332
  0
VERTEX
  8
base_support
 62
   254
 10
0.0
 20
0.0
 30
0.0
 70
   128
 71
   332
 72
   68
 73
   333
  0
VERTEX
  8
base_support
 62
   254
 10
0.0
 20
0.0
 30
0.0
 70
   128
 71
   333
 72
   68
 73
   334
  0
VERTEX
  8
base_support
 62
   254
 10
0.0
 20
0.0
 30
0.0
 70
   128
 71
   335
 72
   334
 73
   87
  0
VERTEX
  8
base_support
 62
   254
 10
0.0
 20
0.0
 30
0.0
 70
   128
 71
   338
 72
   337
 73
   87
  0
VERTEX
  8
base_support
 62
   254
 10
0.0
 20
0.0
 30
0.0
 70
   128
 71
   339
 72
   338
 73
   87
  0
VERTEX
  8
base_support
 62
   254
 10
0.0
 20
0.0
 30
0.0
 70
   128
 71
   340
 72
   339
 73
   87
  0
VERTEX
  8
base_support
 62
   254
 10
0.0
 20
0.0
 30
0.0
 70
   128
 71
   341
 72
   340
 73
   116
  0
VERTEX
  8
base_support
 62
   254
 10
0.0
 20
0.0
 30
0.0
 70
   128
 71
   342
 72
   341
 73
   116
  0
VERTEX
  8
base_support
 62
   254
 10
0.0
 20
0.0
 30
0.0
 70
   128
 71
   343
 72
   342
 73
   116
  0
VERTEX
  8
base_support
 62
   254
 10
0.0
 20
0.0
 30
0.0
 70
   128
 71
   344
 72
   343
 73
   351
  0
VERTEX
  8
base_support
 62
   254
 10
0.0
 20
0.0
 30
0.0
 70
   128
 71
   345
 72
   344
 73
   349
  0
VERTEX
  8
base_support
 62
   254
 10
0.0
 20
0.0
 30
0.0
 70
   128
 71
   112
 72
   345
 73
   346
  0
VERTEX
  8
base_support
 62
   254
 10
0.0
 20
0.0
 30
0.0
 70
   128
 71
   346
 72
   345
 73
   347
  0
VERTEX
  8
base_support
 62
   254
 10
0.0
 20
0.0
 30
0.0
 70
   128
 71
   347
 72
   345
 73
   348
  0
VERTEX
  8
base_support
 62
   254
 10
0.0
 20
0.0
 30
0.0
 70
   128
 71
   348
 72
   345
 73
   349
  0
VERTEX
  8
base_support
 62
   254
 10
0.0
 20
0.0
 30
0.0
 70
   128
 71
   349
 72
   344
 73
   350
  0
VERTEX
  8
base_support
 62
   254
 10
0.0
 20
0.0
 30
0.0
 70
   128
 71
   350
 72
   344
 73
   351
  0
VERTEX
  8
base_support
 62
   254
 10
0.0
 20
0.0
 30
0.0
 70
   128
 71
   351
 72
   343
 73
   352
  0
VERTEX
  8
base_support
 62
   254
 10
0.0
 20
0.0
 30
0.0
 70
   128
 71
   352
 72
   343
 73
   353
  0
VERTEX
  8
base_support
 62
   254
 10
0.0
 20
0.0
 30
0.0
 70
   128
 71
   353
 72
   343
 73
   113
  0
VERTEX
  8
base_support
 62
   254
 10
0.0
 20
0.0
 30
0.0
 70
   128
 71
   113
 72
   343
 73
   114
  0
VERTEX
  8
base_support
 62
   254
 10
0.0
 20
0.0
 30
0.0
 70
   128
 71
   114
 72
   343
 73
   116
  0
VERTEX
  8
base_support
 62
   254
 10
0.0
 20
0.0
 30
0.0
 70
   128
 71
   354
 72
   114
 73
   355
  0
VERTEX
  8
base_support
 62
   254
 10
0.0
 20
0.0
 30
0.0
 70
   128
 71
   355
 72
   114
 73
   356
  0
VERTEX
  8
base_support
 62
   254
 10
0.0
 20
0.0
 30
0.0
 70
   128
 71
   356
 72
   114
 73
   357
  0
VERTEX
  8
base_support
 62
   254
 10
0.0
 20
0.0
 30
0.0
 70
   128
 71
   357
 72
   114
 73
   358
  0
VERTEX
  8
base_support
 62
   254
 10
0.0
 20
0.0
 30
0.0
 70
   128
 71
   358
 72
   114
 73
   359
  0
VERTEX
  8
base_support
 62
   254
 10
0.0
 20
0.0
 30
0.0
 70
   128
 71
   359
 72
   114
 73
   360
  0
VERTEX
  8
base_support
 62
   254
 10
0.0
 20
0.0
 30
0.0
 70
   128
 71
   360
 72
   114
 73
   361
  0
VERTEX
  8
base_support
 62
   254
 10
0.0
 20
0.0
 30
0.0
 70
   128
 71
   337
 72
   111
 73
   87
  0
VERTEX
  8
base_support
 62
   254
 10
0.0
 20
0.0
 30
0.0
 70
   128
 71
   361
 72
   114
 73
   362
  0
VERTEX
  8
base_support
 62
   254
 10
0.0
 20
0.0
 30
0.0
 70
   128
 71
   362
 72
   114
 73
   363
  0
VERTEX
  8
base_support
 62
   254
 10
0.0
 20
0.0
 30
0.0
 70
   128
 71
   114
 72
   116
 73
   115
  0
VERTEX
  8
base_support
 62
   254
 10
0.0
 20
0.0
 30
0.0
 70
   128
 71
   363
 72
   114
 73
   115
  0
VERTEX
  8
base_support
 62
   254
 10
0.0
 20
0.0
 30
0.0
 70
   128
 71
   336
 72
   335
 73
   87
  0
VERTEX
  8
base_support
 62
   254
 10
0.0
 20
0.0
 30
0.0
 70
   128
 71
   111
 72
   336
 73
   87
  0
VERTEX
  8
base_support
 62
   254
 10
0.0
 20
0.0
 30
0.0
 70
   128
 71
   116
 72
   340
 73
   87
  0
VERTEX
  8
base_support
 62
   254
 10
0.0
 20
0.0
 30
0.0
 70
   128
 71
   364
 72
   116
 73
   365
  0
VERTEX
  8
base_support
 62
   254
 10
0.0
 20
0.0
 30
0.0
 70
   128
 71
   365
 72
   116
 73
   87
  0
VERTEX
  8
base_support
 62
   254
 10
0.0
 20
0.0
 30
0.0
 70
   128
 71
   334
 72
   68
 73
   87
  0
VERTEX
  8
base_support
 62
   254
 10
0.0
 20
0.0
 30
0.0
 70
   128
 71
   68
 72
   100
 73
   67
  0
VERTEX
  8
base_support
 62
   254
 10
0.0
 20
0.0
 30
0.0
 70
   128
 71
   367
 72
   91
 73
   366
  0
VERTEX
  8
base_support
 62
   254
 10
0.0
 20
0.0
 30
0.0
 70
   128
 71
   366
 72
   91
 73
   117
  0
VERTEX
  8
base_support
 62
   254
 10
0.0
 20
0.0
 30
0.0
 70
   128
 71
   117
 72
   91
 73
   389
  0
VERTEX
  8
base_support
 62
   254
 10
0.0
 20
0.0
 30
0.0
 70
   128
 71
   377
 72
   118
 73
   376
  0
VERTEX
  8
base_support
 62
   254
 10
0.0
 20
0.0
 30
0.0
 70
   128
 71
   376
 72
   118
 73
   375
  0
VERTEX
  8
base_support
 62
   254
 10
0.0
 20
0.0
 30
0.0
 70
   128
 71
   375
 72
   118
 73
   374
  0
VERTEX
  8
base_support
 62
   254
 10
0.0
 20
0.0
 30
0.0
 70
   128
 71
   374
 72
   118
 73
   373
  0
VERTEX
  8
base_support
 62
   254
 10
0.0
 20
0.0
 30
0.0
 70
   128
 71
   373
 72
   118
 73
   372
  0
VERTEX
  8
base_support
 62
   254
 10
0.0
 20
0.0
 30
0.0
 70
   128
 71
   372
 72
   118
 73
   371
  0
VERTEX
  8
base_support
 62
   254
 10
0.0
 20
0.0
 30
0.0
 70
   128
 71
   371
 72
   118
 73
   370
  0
VERTEX
  8
base_support
 62
   254
 10
0.0
 20
0.0
 30
0.0
 70
   128
 71
   370
 72
   118
 73
   369
  0
VERTEX
  8
base_support
 62
   254
 10
0.0
 20
0.0
 30
0.0
 70
   128
 71
   369
 72
   118
 73
   368
  0
VERTEX
  8
base_support
 62
   254
 10
0.0
 20
0.0
 30
0.0
 70
   128
 71
   117
 72
   392
 73
   119
  0
VERTEX
  8
base_support
 62
   254
 10
0.0
 20
0.0
 30
0.0
 70
   128
 71
   368
 72
   118
 73
   119
  0
VERTEX
  8
base_support
 62
   254
 10
0.0
 20
0.0
 30
0.0
 70
   128
 71
   120
 72
   119
 73
   392
  0
VERTEX
  8
base_support
 62
   254
 10
0.0
 20
0.0
 30
0.0
 70
   128
 71
   385
 72
   120
 73
   384
  0
VERTEX
  8
base_support
 62
   254
 10
0.0
 20
0.0
 30
0.0
 70
   128
 71
   384
 72
   120
 73
   383
  0
VERTEX
  8
base_support
 62
   254
 10
0.0
 20
0.0
 30
0.0
 70
   128
 71
   383
 72
   120
 73
   382
  0
VERTEX
  8
base_support
 62
   254
 10
0.0
 20
0.0
 30
0.0
 70
   128
 71
   382
 72
   120
 73
   381
  0
VERTEX
  8
base_support
 62
   254
 10
0.0
 20
0.0
 30
0.0
 70
   128
 71
   381
 72
   120
 73
   380
  0
VERTEX
  8
base_support
 62
   254
 10
0.0
 20
0.0
 30
0.0
 70
   128
 71
   380
 72
   120
 73
   379
  0
VERTEX
  8
base_support
 62
   254
 10
0.0
 20
0.0
 30
0.0
 70
   128
 71
   379
 72
   120
 73
   378
  0
VERTEX
  8
base_support
 62
   254
 10
0.0
 20
0.0
 30
0.0
 70
   128
 71
   378
 72
   120
 73
   121
  0
VERTEX
  8
base_support
 62
   254
 10
0.0
 20
0.0
 30
0.0
 70
   128
 71
   121
 72
   120
 73
   394
  0
VERTEX
  8
base_support
 62
   254
 10
0.0
 20
0.0
 30
0.0
 70
   128
 71
   394
 72
   120
 73
   393
  0
VERTEX
  8
base_support
 62
   254
 10
0.0
 20
0.0
 30
0.0
 70
   128
 71
   393
 72
   120
 73
   392
  0
VERTEX
  8
base_support
 62
   254
 10
0.0
 20
0.0
 30
0.0
 70
   128
 71
   392
 72
   117
 73
   391
  0
VERTEX
  8
base_support
 62
   254
 10
0.0
 20
0.0
 30
0.0
 70
   128
 71
   391
 72
   117
 73
   390
  0
VERTEX
  8
base_support
 62
   254
 10
0.0
 20
0.0
 30
0.0
 70
   128
 71
   390
 72
   117
 73
   389
  0
VERTEX
  8
base_support
 62
   254
 10
0.0
 20
0.0
 30
0.0
 70
   128
 71
   389
 72
   91
 73
   388
  0
VERTEX
  8
base_support
 62
   254
 10
0.0
 20
0.0
 30
0.0
 70
   128
 71
   388
 72
   91
 73
   387
  0
VERTEX
  8
base_support
 62
   254
 10
0.0
 20
0.0
 30
0.0
 70
   128
 71
   387
 72
   91
 73
   386
  0
VERTEX
  8
base_support
 62
   254
 10
0.0
 20
0.0
 30
0.0
 70
   128
 71
   386
 72
   91
 73
   122
  0
VERTEX
  8
base_support
 62
   254
 10
0.0
 20
0.0
 30
0.0
 70
   128
 71
   91
 72
   67
 73
   401
  0
VERTEX
  8
base_support
 62
   254
 10
0.0
 20
0.0
 30
0.0
 70
   128
 71
   122
 72
   91
 73
   403
  0
VERTEX
  8
base_support
 62
   254
 10
0.0
 20
0.0
 30
0.0
 70
   128
 71
   403
 72
   91
 73
   402
  0
VERTEX
  8
base_support
 62
   254
 10
0.0
 20
0.0
 30
0.0
 70
   128
 71
   402
 72
   91
 73
   401
  0
VERTEX
  8
base_support
 62
   254
 10
0.0
 20
0.0
 30
0.0
 70
   128
 71
   401
 72
   67
 73
   400
  0
VERTEX
  8
base_support
 62
   254
 10
0.0
 20
0.0
 30
0.0
 70
   128
 71
   400
 72
   67
 73
   399
  0
VERTEX
  8
base_support
 62
   254
 10
0.0
 20
0.0
 30
0.0
 70
   128
 71
   67
 72
   100
 73
   397
  0
VERTEX
  8
base_support
 62
   254
 10
0.0
 20
0.0
 30
0.0
 70
   128
 71
   399
 72
   67
 73
   398
  0
VERTEX
  8
base_support
 62
   254
 10
0.0
 20
0.0
 30
0.0
 70
   128
 71
   398
 72
   67
 73
   397
  0
VERTEX
  8
base_support
 62
   254
 10
0.0
 20
0.0
 30
0.0
 70
   128
 71
   397
 72
   100
 73
   396
  0
VERTEX
  8
base_support
 62
   254
 10
0.0
 20
0.0
 30
0.0
 70
   128
 71
   396
 72
   100
 73
   395
  0
VERTEX
  8
base_support
 62
   254
 10
0.0
 20
0.0
 30
0.0
 70
   128
 71
   100
 72
   99
 73
   412
  0
VERTEX
  8
base_support
 62
   254
 10
0.0
 20
0.0
 30
0.0
 70
   128
 71
   395
 72
   100
 73
   123
  0
VERTEX
  8
base_support
 62
   254
 10
0.0
 20
0.0
 30
0.0
 70
   128
 71
   123
 72
   100
 73
   412
  0
VERTEX
  8
base_support
 62
   254
 10
0.0
 20
0.0
 30
0.0
 70
   128
 71
   412
 72
   99
 73
   411
  0
VERTEX
  8
base_support
 62
   254
 10
0.0
 20
0.0
 30
0.0
 70
   128
 71
   411
 72
   99
 73
   410
  0
VERTEX
  8
base_support
 62
   254
 10
0.0
 20
0.0
 30
0.0
 70
   128
 71
   410
 72
   99
 73
   409
  0
VERTEX
  8
base_support
 62
   254
 10
0.0
 20
0.0
 30
0.0
 70
   128
 71
   409
 72
   99
 73
   408
  0
VERTEX
  8
base_support
 62
   254
 10
0.0
 20
0.0
 30
0.0
 70
   128
 71
   404
 72
   405
 73
   413
  0
VERTEX
  8
base_support
 62
   254
 10
0.0
 20
0.0
 30
0.0
 70
   128
 71
   124
 72
   404
 73
   416
  0
VERTEX
  8
base_support
 62
   254
 10
0.0
 20
0.0
 30
0.0
 70
   128
 71
   125
 72
   124
 73
   420
  0
VERTEX
  8
base_support
 62
   254
 10
0.0
 20
0.0
 30
0.0
 70
   128
 71
   420
 72
   124
 73
   419
  0
VERTEX
  8
base_support
 62
   254
 10
0.0
 20
0.0
 30
0.0
 70
   128
 71
   419
 72
   124
 73
   418
  0
VERTEX
  8
base_support
 62
   254
 10
0.0
 20
0.0
 30
0.0
 70
   128
 71
   418
 72
   124
 73
   417
  0
VERTEX
  8
base_support
 62
   254
 10
0.0
 20
0.0
 30
0.0
 70
   128
 71
   417
 72
   124
 73
   416
  0
VERTEX
  8
base_support
 62
   254
 10
0.0
 20
0.0
 30
0.0
 70
   128
 71
   416
 72
   404
 73
   415
  0
VERTEX
  8
base_support
 62
   254
 10
0.0
 20
0.0
 30
0.0
 70
   128
 71
   415
 72
   404
 73
   414
  0
VERTEX
  8
base_support
 62
   254
 10
0.0
 20
0.0
 30
0.0
 70
   128
 71
   414
 72
   404
 73
   413
  0
VERTEX
  8
base_support
 62
   254
 10
0.0
 20
0.0
 30
0.0
 70
   128
 71
   405
 72
   432
 73
   126
  0
VERTEX
  8
base_support
 62
   254
 10
0.0
 20
0.0
 30
0.0
 70
   128
 71
   413
 72
   405
 73
   126
  0
VERTEX
  8
base_support
 62
   254
 10
0.0
 20
0.0
 30
0.0
 70
   128
 71
   127
 72
   129
 73
   428
  0
VERTEX
  8
base_support
 62
   254
 10
0.0
 20
0.0
 30
0.0
 70
   128
 71
   428
 72
   129
 73
   427
  0
VERTEX
  8
base_support
 62
   254
 10
0.0
 20
0.0
 30
0.0
 70
   128
 71
   427
 72
   129
 73
   426
  0
VERTEX
  8
base_support
 62
   254
 10
0.0
 20
0.0
 30
0.0
 70
   128
 71
   426
 72
   129
 73
   425
  0
VERTEX
  8
base_support
 62
   254
 10
0.0
 20
0.0
 30
0.0
 70
   128
 71
   425
 72
   129
 73
   424
  0
VERTEX
  8
base_support
 62
   254
 10
0.0
 20
0.0
 30
0.0
 70
   128
 71
   424
 72
   129
 73
   423
  0
VERTEX
  8
base_support
 62
   254
 10
0.0
 20
0.0
 30
0.0
 70
   128
 71
   423
 72
   129
 73
   422
  0
VERTEX
  8
base_support
 62
   254
 10
0.0
 20
0.0
 30
0.0
 70
   128
 71
   422
 72
   129
 73
   128
  0
VERTEX
  8
base_support
 62
   254
 10
0.0
 20
0.0
 30
0.0
 70
   128
 71
   421
 72
   422
 73
   128
  0
VERTEX
  8
base_support
 62
   254
 10
0.0
 20
0.0
 30
0.0
 70
   128
 71
   405
 72
   406
 73
   432
  0
VERTEX
  8
base_support
 62
   254
 10
0.0
 20
0.0
 30
0.0
 70
   128
 71
   127
 72
   126
 73
   433
  0
VERTEX
  8
base_support
 62
   254
 10
0.0
 20
0.0
 30
0.0
 70
   128
 71
   129
 72
   127
 73
   433
  0
VERTEX
  8
base_support
 62
   254
 10
0.0
 20
0.0
 30
0.0
 70
   128
 71
   406
 72
   407
 73
   431
  0
VERTEX
  8
base_support
 62
   254
 10
0.0
 20
0.0
 30
0.0
 70
   128
 71
   433
 72
   126
 73
   432
  0
VERTEX
  8
base_support
 62
   254
 10
0.0
 20
0.0
 30
0.0
 70
   128
 71
   432
 72
   406
 73
   431
  0
VERTEX
  8
base_support
 62
   254
 10
0.0
 20
0.0
 30
0.0
 70
   128
 71
   407
 72
   408
 73
   430
  0
VERTEX
  8
base_support
 62
   254
 10
0.0
 20
0.0
 30
0.0
 70
   128
 71
   431
 72
   407
 73
   430
  0
VERTEX
  8
base_support
 62
   254
 10
0.0
 20
0.0
 30
0.0
 70
   128
 71
   408
 72
   99
 73
   429
  0
VERTEX
  8
base_support
 62
   254
 10
0.0
 20
0.0
 30
0.0
 70
   128
 71
   430
 72
   408
 73
   429
  0
VERTEX
  8
base_support
 62
   254
 10
0.0
 20
0.0
 30
0.0
 70
   128
 71
   99
 72
   98
 73
   34
  0
VERTEX
  8
base_support
 62
   254
 10
0.0
 20
0.0
 30
0.0
 70
   128
 71
   99
 72
   34
 73
   35
  0
VERTEX
  8
base_support
 62
   254
 10
0.0
 20
0.0
 30
0.0
 70
   128
 71
   16
 72
   115
 73
   116
  0
VERTEX
  8
base_support
 62
   254
 10
0.0
 20
0.0
 30
0.0
 70
   128
 71
   115
 72
   16
 73
   17
  0
VERTEX
  8
base_support
 62
   254
 10
0.0
 20
0.0
 30
0.0
 70
   128
 71
   18
 72
   354
 73
   173
  0
VERTEX
  8
base_support
 62
   254
 10
0.0
 20
0.0
 30
0.0
 70
   128
 71
   173
 72
   355
 73
   172
  0
VERTEX
  8
base_support
 62
   254
 10
0.0
 20
0.0
 30
0.0
 70
   128
 71
   172
 72
   356
 73
   171
  0
VERTEX
  8
base_support
 62
   254
 10
0.0
 20
0.0
 30
0.0
 70
   128
 71
   171
 72
   357
 73
   170
  0
VERTEX
  8
base_support
 62
   254
 10
0.0
 20
0.0
 30
0.0
 70
   128
 71
   170
 72
   358
 73
   169
  0
VERTEX
  8
base_support
 62
   254
 10
0.0
 20
0.0
 30
0.0
 70
   128
 71
   169
 72
   359
 73
   168
  0
VERTEX
  8
base_support
 62
   254
 10
0.0
 20
0.0
 30
0.0
 70
   128
 71
   168
 72
   360
 73
   167
  0
VERTEX
  8
base_support
 62
   254
 10
0.0
 20
0.0
 30
0.0
 70
   128
 71
   167
 72
   361
 73
   166
  0
VERTEX
  8
base_support
 62
   254
 10
0.0
 20
0.0
 30
0.0
 70
   128
 71
   166
 72
   362
 73
   165
  0
VERTEX
  8
base_support
 62
   254
 10
0.0
 20
0.0
 30
0.0
 70
   128
 71
   165
 72
   363
 73
   164
  0
VERTEX
  8
base_support
 62
   254
 10
0.0
 20
0.0
 30
0.0
 70
   128
 71
   164
 72
   115
 73
   17
  0
VERTEX
  8
base_support
 62
   254
 10
0.0
 20
0.0
 30
0.0
 70
   128
 71
   115
 72
   164
 73
   363
  0
VERTEX
  8
base_support
 62
   254
 10
0.0
 20
0.0
 30
0.0
 70
   128
 71
   363
 72
   165
 73
   362
  0
VERTEX
  8
base_support
 62
   254
 10
0.0
 20
0.0
 30
0.0
 70
   128
 71
   362
 72
   166
 73
   361
  0
VERTEX
  8
base_support
 62
   254
 10
0.0
 20
0.0
 30
0.0
 70
   128
 71
   361
 72
   167
 73
   360
  0
VERTEX
  8
base_support
 62
   254
 10
0.0
 20
0.0
 30
0.0
 70
   128
 71
   360
 72
   168
 73
   359
  0
VERTEX
  8
base_support
 62
   254
 10
0.0
 20
0.0
 30
0.0
 70
   128
 71
   359
 72
   169
 73
   358
  0
VERTEX
  8
base_support
 62
   254
 10
0.0
 20
0.0
 30
0.0
 70
   128
 71
   358
 72
   170
 73
   357
  0
VERTEX
  8
base_support
 62
   254
 10
0.0
 20
0.0
 30
0.0
 70
   128
 71
   357
 72
   171
 73
   356
  0
VERTEX
  8
base_support
 62
   254
 10
0.0
 20
0.0
 30
0.0
 70
   128
 71
   356
 72
   172
 73
   355
  0
VERTEX
  8
base_support
 62
   254
 10
0.0
 20
0.0
 30
0.0
 70
   128
 71
   355
 72
   173
 73
   354
  0
VERTEX
  8
base_support
 62
   254
 10
0.0
 20
0.0
 30
0.0
 70
   128
 71
   354
 72
   18
 73
   114
  0
VERTEX
  8
base_support
 62
   254
 10
0.0
 20
0.0
 30
0.0
 70
   128
 71
   113
 72
   114
 73
   18
  0
VERTEX
  8
base_support
 62
   254
 10
0.0
 20
0.0
 30
0.0
 70
   128
 71
   113
 72
   18
 73
   19
  0
VERTEX
  8
base_support
 62
   254
 10
0.0
 20
0.0
 30
0.0
 70
   128
 71
   181
 72
   20
 73
   346
  0
VERTEX
  8
base_support
 62
   254
 10
0.0
 20
0.0
 30
0.0
 70
   128
 71
   180
 72
   181
 73
   347
  0
VERTEX
  8
base_support
 62
   254
 10
0.0
 20
0.0
 30
0.0
 70
   128
 71
   179
 72
   180
 73
   348
  0
VERTEX
  8
base_support
 62
   254
 10
0.0
 20
0.0
 30
0.0
 70
   128
 71
   178
 72
   179
 73
   349
  0
VERTEX
  8
base_support
 62
   254
 10
0.0
 20
0.0
 30
0.0
 70
   128
 71
   177
 72
   178
 73
   350
  0
VERTEX
  8
base_support
 62
   254
 10
0.0
 20
0.0
 30
0.0
 70
   128
 71
   176
 72
   177
 73
   351
  0
VERTEX
  8
base_support
 62
   254
 10
0.0
 20
0.0
 30
0.0
 70
   128
 71
   175
 72
   176
 73
   352
  0
VERTEX
  8
base_support
 62
   254
 10
0.0
 20
0.0
 30
0.0
 70
   128
 71
   174
 72
   175
 73
   353
  0
VERTEX
  8
base_support
 62
   254
 10
0.0
 20
0.0
 30
0.0
 70
   128
 71
   19
 72
   174
 73
   113
  0
VERTEX
  8
base_support
 62
   254
 10
0.0
 20
0.0
 30
0.0
 70
   128
 71
   113
 72
   174
 73
   353
  0
VERTEX
  8
base_support
 62
   254
 10
0.0
 20
0.0
 30
0.0
 70
   128
 71
   353
 72
   175
 73
   352
  0
VERTEX
  8
base_support
 62
   254
 10
0.0
 20
0.0
 30
0.0
 70
   128
 71
   352
 72
   176
 73
   351
  0
VERTEX
  8
base_support
 62
   254
 10
0.0
 20
0.0
 30
0.0
 70
   128
 71
   351
 72
   177
 73
   350
  0
VERTEX
  8
base_support
 62
   254
 10
0.0
 20
0.0
 30
0.0
 70
   128
 71
   350
 72
   178
 73
   349
  0
VERTEX
  8
base_support
 62
   254
 10
0.0
 20
0.0
 30
0.0
 70
   128
 71
   349
 72
   179
 73
   348
  0
VERTEX
  8
base_support
 62
   254
 10
0.0
 20
0.0
 30
0.0
 70
   128
 71
   348
 72
   180
 73
   347
  0
VERTEX
  8
base_support
 62
   254
 10
0.0
 20
0.0
 30
0.0
 70
   128
 71
   347
 72
   181
 73
   346
  0
VERTEX
  8
base_support
 62
   254
 10
0.0
 20
0.0
 30
0.0
 70
   128
 71
   346
 72
   20
 73
   112
  0
VERTEX
  8
base_support
 62
   254
 10
0.0
 20
0.0
 30
0.0
 70
   128
 71
   111
 72
   337
 73
   182
  0
VERTEX
  8
base_support
 62
   254
 10
0.0
 20
0.0
 30
0.0
 70
   128
 71
   337
 72
   338
 73
   183
  0
VERTEX
  8
base_support
 62
   254
 10
0.0
 20
0.0
 30
0.0
 70
   128
 71
   338
 72
   339
 73
   184
  0
VERTEX
  8
base_support
 62
   254
 10
0.0
 20
0.0
 30
0.0
 70
   128
 71
   339
 72
   340
 73
   185
  0
VERTEX
  8
base_support
 62
   254
 10
0.0
 20
0.0
 30
0.0
 70
   128
 71
   340
 72
   341
 73
   186
  0
VERTEX
  8
base_support
 62
   254
 10
0.0
 20
0.0
 30
0.0
 70
   128
 71
   341
 72
   342
 73
   187
  0
VERTEX
  8
base_support
 62
   254
 10
0.0
 20
0.0
 30
0.0
 70
   128
 71
   342
 72
   343
 73
   188
  0
VERTEX
  8
base_support
 62
   254
 10
0.0
 20
0.0
 30
0.0
 70
   128
 71
   343
 72
   344
 73
   189
  0
VERTEX
  8
base_support
 62
   254
 10
0.0
 20
0.0
 30
0.0
 70
   128
 71
   344
 72
   345
 73
   190
  0
VERTEX
  8
base_support
 62
   254
 10
0.0
 20
0.0
 30
0.0
 70
   128
 71
   345
 72
   112
 73
   20
  0
VERTEX
  8
base_support
 62
   254
 10
0.0
 20
0.0
 30
0.0
 70
   128
 71
   345
 72
   20
 73
   190
  0
VERTEX
  8
base_support
 62
   254
 10
0.0
 20
0.0
 30
0.0
 70
   128
 71
   344
 72
   190
 73
   189
  0
VERTEX
  8
base_support
 62
   254
 10
0.0
 20
0.0
 30
0.0
 70
   128
 71
   343
 72
   189
 73
   188
  0
VERTEX
  8
base_support
 62
   254
 10
0.0
 20
0.0
 30
0.0
 70
   128
 71
   342
 72
   188
 73
   187
  0
VERTEX
  8
base_support
 62
   254
 10
0.0
 20
0.0
 30
0.0
 70
   128
 71
   341
 72
   187
 73
   186
  0
VERTEX
  8
base_support
 62
   254
 10
0.0
 20
0.0
 30
0.0
 70
   128
 71
   340
 72
   186
 73
   185
  0
VERTEX
  8
base_support
 62
   254
 10
0.0
 20
0.0
 30
0.0
 70
   128
 71
   339
 72
   185
 73
   184
  0
VERTEX
  8
base_support
 62
   254
 10
0.0
 20
0.0
 30
0.0
 70
   128
 71
   338
 72
   184
 73
   183
  0
VERTEX
  8
base_support
 62
   254
 10
0.0
 20
0.0
 30
0.0
 70
   128
 71
   337
 72
   183
 73
   182
  0
VERTEX
  8
base_support
 62
   254
 10
0.0
 20
0.0
 30
0.0
 70
   128
 71
   111
 72
   182
 73
   21
  0
VERTEX
  8
base_support
 62
   254
 10
0.0
 20
0.0
 30
0.0
 70
   128
 71
   110
 72
   328
 73
   192
  0
VERTEX
  8
base_support
 62
   254
 10
0.0
 20
0.0
 30
0.0
 70
   128
 71
   328
 72
   329
 73
   193
  0
VERTEX
  8
base_support
 62
   254
 10
0.0
 20
0.0
 30
0.0
 70
   128
 71
   329
 72
   330
 73
   194
  0
VERTEX
  8
base_support
 62
   254
 10
0.0
 20
0.0
 30
0.0
 70
   128
 71
   330
 72
   331
 73
   195
  0
VERTEX
  8
base_support
 62
   254
 10
0.0
 20
0.0
 30
0.0
 70
   128
 71
   331
 72
   332
 73
   196
  0
VERTEX
  8
base_support
 62
   254
 10
0.0
 20
0.0
 30
0.0
 70
   128
 71
   332
 72
   333
 73
   197
  0
VERTEX
  8
base_support
 62
   254
 10
0.0
 20
0.0
 30
0.0
 70
   128
 71
   333
 72
   334
 73
   198
  0
VERTEX
  8
base_support
 62
   254
 10
0.0
 20
0.0
 30
0.0
 70
   128
 71
   334
 72
   335
 73
   199
  0
VERTEX
  8
base_support
 62
   254
 10
0.0
 20
0.0
 30
0.0
 70
   128
 71
   335
 72
   336
 73
   22
  0
VERTEX
  8
base_support
 62
   254
 10
0.0
 20
0.0
 30
0.0
 70
   128
 71
   336
 72
   111
 73
   191
  0
VERTEX
  8
base_support
 62
   254
 10
0.0
 20
0.0
 30
0.0
 70
   128
 71
   111
 72
   21
 73
   191
  0
VERTEX
  8
base_support
 62
   254
 10
0.0
 20
0.0
 30
0.0
 70
   128
 71
   336
 72
   191
 73
   22
  0
VERTEX
  8
base_support
 62
   254
 10
0.0
 20
0.0
 30
0.0
 70
   128
 71
   335
 72
   22
 73
   199
  0
VERTEX
  8
base_support
 62
   254
 10
0.0
 20
0.0
 30
0.0
 70
   128
 71
   334
 72
   199
 73
   198
  0
VERTEX
  8
base_support
 62
   254
 10
0.0
 20
0.0
 30
0.0
 70
   128
 71
   333
 72
   198
 73
   197
  0
VERTEX
  8
base_support
 62
   254
 10
0.0
 20
0.0
 30
0.0
 70
   128
 71
   332
 72
   197
 73
   196
  0
VERTEX
  8
base_support
 62
   254
 10
0.0
 20
0.0
 30
0.0
 70
   128
 71
   331
 72
   196
 73
   195
  0
VERTEX
  8
base_support
 62
   254
 10
0.0
 20
0.0
 30
0.0
 70
   128
 71
   330
 72
   195
 73
   194
  0
VERTEX
  8
base_support
 62
   254
 10
0.0
 20
0.0
 30
0.0
 70
   128
 71
   329
 72
   194
 73
   193
  0
VERTEX
  8
base_support
 62
   254
 10
0.0
 20
0.0
 30
0.0
 70
   128
 71
   328
 72
   193
 73
   192
  0
VERTEX
  8
base_support
 62
   254
 10
0.0
 20
0.0
 30
0.0
 70
   128
 71
   110
 72
   192
 73
   23
  0
VERTEX
  8
base_support
 62
   254
 10
0.0
 20
0.0
 30
0.0
 70
   128
 71
   109
 72
   319
 73
   200
  0
VERTEX
  8
base_support
 62
   254
 10
0.0
 20
0.0
 30
0.0
 70
   128
 71
   319
 72
   320
 73
   201
  0
VERTEX
  8
base_support
 62
   254
 10
0.0
 20
0.0
 30
0.0
 70
   128
 71
   320
 72
   321
 73
   202
  0
VERTEX
  8
base_support
 62
   254
 10
0.0
 20
0.0
 30
0.0
 70
   128
 71
   321
 72
   322
 73
   203
  0
VERTEX
  8
base_support
 62
   254
 10
0.0
 20
0.0
 30
0.0
 70
   128
 71
   322
 72
   323
 73
   204
  0
VERTEX
  8
base_support
 62
   254
 10
0.0
 20
0.0
 30
0.0
 70
   128
 71
   323
 72
   324
 73
   205
  0
VERTEX
  8
base_support
 62
   254
 10
0.0
 20
0.0
 30
0.0
 70
   128
 71
   324
 72
   325
 73
   206
  0
VERTEX
  8
base_support
 62
   254
 10
0.0
 20
0.0
 30
0.0
 70
   128
 71
   325
 72
   326
 73
   207
  0
VERTEX
  8
base_support
 62
   254
 10
0.0
 20
0.0
 30
0.0
 70
   128
 71
   326
 72
   327
 73
   208
  0
VERTEX
  8
base_support
 62
   254
 10
0.0
 20
0.0
 30
0.0
 70
   128
 71
   327
 72
   110
 73
   23
  0
VERTEX
  8
base_support
 62
   254
 10
0.0
 20
0.0
 30
0.0
 70
   128
 71
   327
 72
   23
 73
   208
  0
VERTEX
  8
base_support
 62
   254
 10
0.0
 20
0.0
 30
0.0
 70
   128
 71
   326
 72
   208
 73
   207
  0
VERTEX
  8
base_support
 62
   254
 10
0.0
 20
0.0
 30
0.0
 70
   128
 71
   325
 72
   207
 73
   206
  0
VERTEX
  8
base_support
 62
   254
 10
0.0
 20
0.0
 30
0.0
 70
   128
 71
   324
 72
   206
 73
   205
  0
VERTEX
  8
base_support
 62
   254
 10
0.0
 20
0.0
 30
0.0
 70
   128
 71
   323
 72
   205
 73
   204
  0
VERTEX
  8
base_support
 62
   254
 10
0.0
 20
0.0
 30
0.0
 70
   128
 71
   322
 72
   204
 73
   203
  0
VERTEX
  8
base_support
 62
   254
 10
0.0
 20
0.0
 30
0.0
 70
   128
 71
   321
 72
   203
 73
   202
  0
VERTEX
  8
base_support
 62
   254
 10
0.0
 20
0.0
 30
0.0
 70
   128
 71
   320
 72
   202
 73
   201
  0
VERTEX
  8
base_support
 62
   254
 10
0.0
 20
0.0
 30
0.0
 70
   128
 71
   319
 72
   201
 73
   200
  0
VERTEX
  8
base_support
 62
   254
 10
0.0
 20
0.0
 30
0.0
 70
   128
 71
   109
 72
   200
 73
   24
  0
VERTEX
  8
base_support
 62
   254
 10
0.0
 20
0.0
 30
0.0
 70
   128
 71
   24
 72
   108
 73
   109
  0
VERTEX
  8
base_support
 62
   254
 10
0.0
 20
0.0
 30
0.0
 70
   128
 71
   108
 72
   24
 73
   25
  0
VERTEX
  8
base_support
 62
   254
 10
0.0
 20
0.0
 30
0.0
 70
   128
 71
   26
 72
   311
 73
   216
  0
VERTEX
  8
base_support
 62
   254
 10
0.0
 20
0.0
 30
0.0
 70
   128
 71
   216
 72
   312
 73
   215
  0
VERTEX
  8
base_support
 62
   254
 10
0.0
 20
0.0
 30
0.0
 70
   128
 71
   215
 72
   313
 73
   214
  0
VERTEX
  8
base_support
 62
   254
 10
0.0
 20
0.0
 30
0.0
 70
   128
 71
   214
 72
   314
 73
   213
  0
VERTEX
  8
base_support
 62
   254
 10
0.0
 20
0.0
 30
0.0
 70
   128
 71
   213
 72
   315
 73
   212
  0
VERTEX
  8
base_support
 62
   254
 10
0.0
 20
0.0
 30
0.0
 70
   128
 71
   212
 72
   316
 73
   211
  0
VERTEX
  8
base_support
 62
   254
 10
0.0
 20
0.0
 30
0.0
 70
   128
 71
   211
 72
   317
 73
   210
  0
VERTEX
  8
base_support
 62
   254
 10
0.0
 20
0.0
 30
0.0
 70
   128
 71
   210
 72
   318
 73
   209
  0
VERTEX
  8
base_support
 62
   254
 10
0.0
 20
0.0
 30
0.0
 70
   128
 71
   209
 72
   108
 73
   25
  0
VERTEX
  8
base_support
 62
   254
 10
0.0
 20
0.0
 30
0.0
 70
   128
 71
   108
 72
   209
 73
   318
  0
VERTEX
  8
base_support
 62
   254
 10
0.0
 20
0.0
 30
0.0
 70
   128
 71
   318
 72
   210
 73
   317
  0
VERTEX
  8
base_support
 62
   254
 10
0.0
 20
0.0
 30
0.0
 70
   128
 71
   317
 72
   211
 73
   316
  0
VERTEX
  8
base_support
 62
   254
 10
0.0
 20
0.0
 30
0.0
 70
   128
 71
   316
 72
   212
 73
   315
  0
VERTEX
  8
base_support
 62
   254
 10
0.0
 20
0.0
 30
0.0
 70
   128
 71
   315
 72
   213
 73
   314
  0
VERTEX
  8
base_support
 62
   254
 10
0.0
 20
0.0
 30
0.0
 70
   128
 71
   314
 72
   214
 73
   313
  0
VERTEX
  8
base_support
 62
   254
 10
0.0
 20
0.0
 30
0.0
 70
   128
 71
   313
 72
   215
 73
   312
  0
VERTEX
  8
base_support
 62
   254
 10
0.0
 20
0.0
 30
0.0
 70
   128
 71
   312
 72
   216
 73
   311
  0
VERTEX
  8
base_support
 62
   254
 10
0.0
 20
0.0
 30
0.0
 70
   128
 71
   311
 72
   26
 73
   107
  0
VERTEX
  8
base_support
 62
   254
 10
0.0
 20
0.0
 30
0.0
 70
   128
 71
   106
 72
   107
 73
   26
  0
VERTEX
  8
base_support
 62
   254
 10
0.0
 20
0.0
 30
0.0
 70
   128
 71
   106
 72
   26
 73
   27
  0
VERTEX
  8
base_support
 62
   254
 10
0.0
 20
0.0
 30
0.0
 70
   128
 71
   28
 72
   303
 73
   224
  0
VERTEX
  8
base_support
 62
   254
 10
0.0
 20
0.0
 30
0.0
 70
   128
 71
   224
 72
   304
 73
   223
  0
VERTEX
  8
base_support
 62
   254
 10
0.0
 20
0.0
 30
0.0
 70
   128
 71
   223
 72
   305
 73
   222
  0
VERTEX
  8
base_support
 62
   254
 10
0.0
 20
0.0
 30
0.0
 70
   128
 71
   222
 72
   306
 73
   221
  0
VERTEX
  8
base_support
 62
   254
 10
0.0
 20
0.0
 30
0.0
 70
   128
 71
   221
 72
   307
 73
   220
  0
VERTEX
  8
base_support
 62
   254
 10
0.0
 20
0.0
 30
0.0
 70
   128
 71
   220
 72
   308
 73
   219
  0
VERTEX
  8
base_support
 62
   254
 10
0.0
 20
0.0
 30
0.0
 70
   128
 71
   219
 72
   309
 73
   218
  0
VERTEX
  8
base_support
 62
   254
 10
0.0
 20
0.0
 30
0.0
 70
   128
 71
   218
 72
   310
 73
   217
  0
VERTEX
  8
base_support
 62
   254
 10
0.0
 20
0.0
 30
0.0
 70
   128
 71
   217
 72
   106
 73
   27
  0
VERTEX
  8
base_support
 62
   254
 10
0.0
 20
0.0
 30
0.0
 70
   128
 71
   106
 72
   217
 73
   310
  0
VERTEX
  8
base_support
 62
   254
 10
0.0
 20
0.0
 30
0.0
 70
   128
 71
   310
 72
   218
 73
   309
  0
VERTEX
  8
base_support
 62
   254
 10
0.0
 20
0.0
 30
0.0
 70
   128
 71
   309
 72
   219
 73
   308
  0
VERTEX
  8
base_support
 62
   254
 10
0.0
 20
0.0
 30
0.0
 70
   128
 71
   308
 72
   220
 73
   307
  0
VERTEX
  8
base_support
 62
   254
 10
0.0
 20
0.0
 30
0.0
 70
   128
 71
   307
 72
   221
 73
   306
  0
VERTEX
  8
base_support
 62
   254
 10
0.0
 20
0.0
 30
0.0
 70
   128
 71
   306
 72
   222
 73
   305
  0
VERTEX
  8
base_support
 62
   254
 10
0.0
 20
0.0
 30
0.0
 70
   128
 71
   305
 72
   223
 73
   304
  0
VERTEX
  8
base_support
 62
   254
 10
0.0
 20
0.0
 30
0.0
 70
   128
 71
   304
 72
   224
 73
   303
  0
VERTEX
  8
base_support
 62
   254
 10
0.0
 20
0.0
 30
0.0
 70
   128
 71
   303
 72
   28
 73
   105
  0
VERTEX
  8
base_support
 62
   254
 10
0.0
 20
0.0
 30
0.0
 70
   128
 71
   163
 72
   16
 73
   364
  0
VERTEX
  8
base_support
 62
   254
 10
0.0
 20
0.0
 30
0.0
 70
   128
 71
   162
 72
   163
 73
   365
  0
VERTEX
  8
base_support
 62
   254
 10
0.0
 20
0.0
 30
0.0
 70
   128
 71
   15
 72
   162
 73
   87
  0
VERTEX
  8
base_support
 62
   254
 10
0.0
 20
0.0
 30
0.0
 70
   128
 71
   87
 72
   162
 73
   365
  0
VERTEX
  8
base_support
 62
   254
 10
0.0
 20
0.0
 30
0.0
 70
   128
 71
   365
 72
   163
 73
   364
  0
VERTEX
  8
base_support
 62
   254
 10
0.0
 20
0.0
 30
0.0
 70
   128
 71
   364
 72
   16
 73
   116
  0
VERTEX
  8
base_support
 62
   254
 10
0.0
 20
0.0
 30
0.0
 70
   128
 71
   104
 72
   105
 73
   28
  0
VERTEX
  8
base_support
 62
   254
 10
0.0
 20
0.0
 30
0.0
 70
   128
 71
   104
 72
   28
 73
   29
  0
VERTEX
  8
base_support
 62
   254
 10
0.0
 20
0.0
 30
0.0
 70
   128
 71
   225
 72
   103
 73
   298
  0
VERTEX
  8
base_support
 62
   254
 10
0.0
 20
0.0
 30
0.0
 70
   128
 71
   226
 72
   298
 73
   299
  0
VERTEX
  8
base_support
 62
   254
 10
0.0
 20
0.0
 30
0.0
 70
   128
 71
   227
 72
   299
 73
   300
  0
VERTEX
  8
base_support
 62
   254
 10
0.0
 20
0.0
 30
0.0
 70
   128
 71
   228
 72
   300
 73
   301
  0
VERTEX
  8
base_support
 62
   254
 10
0.0
 20
0.0
 30
0.0
 70
   128
 71
   229
 72
   301
 73
   302
  0
VERTEX
  8
base_support
 62
   254
 10
0.0
 20
0.0
 30
0.0
 70
   128
 71
   29
 72
   302
 73
   104
  0
VERTEX
  8
base_support
 62
   254
 10
0.0
 20
0.0
 30
0.0
 70
   128
 71
   302
 72
   29
 73
   229
  0
VERTEX
  8
base_support
 62
   254
 10
0.0
 20
0.0
 30
0.0
 70
   128
 71
   301
 72
   229
 73
   228
  0
VERTEX
  8
base_support
 62
   254
 10
0.0
 20
0.0
 30
0.0
 70
   128
 71
   300
 72
   228
 73
   227
  0
VERTEX
  8
base_support
 62
   254
 10
0.0
 20
0.0
 30
0.0
 70
   128
 71
   299
 72
   227
 73
   226
  0
VERTEX
  8
base_support
 62
   254
 10
0.0
 20
0.0
 30
0.0
 70
   128
 71
   298
 72
   226
 73
   225
  0
VERTEX
  8
base_support
 62
   254
 10
0.0
 20
0.0
 30
0.0
 70
   128
 71
   103
 72
   225
 73
   30
  0
VERTEX
  8
base_support
 62
   254
 10
0.0
 20
0.0
 30
0.0
 70
   128
 71
   102
 72
   103
 73
   30
  0
VERTEX
  8
base_support
 62
   254
 10
0.0
 20
0.0
 30
0.0
 70
   128
 71
   102
 72
   30
 73
   31
  0
VERTEX
  8
base_support
 62
   254
 10
0.0
 20
0.0
 30
0.0
 70
   128
 71
   48
 72
   117
 73
   118
  0
VERTEX
  8
base_support
 62
   254
 10
0.0
 20
0.0
 30
0.0
 70
   128
 71
   117
 72
   48
 73
   49
  0
VERTEX
  8
base_support
 62
   254
 10
0.0
 20
0.0
 30
0.0
 70
   128
 71
   48
 72
   377
 73
   295
  0
VERTEX
  8
base_support
 62
   254
 10
0.0
 20
0.0
 30
0.0
 70
   128
 71
   295
 72
   376
 73
   294
  0
VERTEX
  8
base_support
 62
   254
 10
0.0
 20
0.0
 30
0.0
 70
   128
 71
   294
 72
   375
 73
   293
  0
VERTEX
  8
base_support
 62
   254
 10
0.0
 20
0.0
 30
0.0
 70
   128
 71
   293
 72
   374
 73
   292
  0
VERTEX
  8
base_support
 62
   254
 10
0.0
 20
0.0
 30
0.0
 70
   128
 71
   292
 72
   373
 73
   291
  0
VERTEX
  8
base_support
 62
   254
 10
0.0
 20
0.0
 30
0.0
 70
   128
 71
   290
 72
   371
 73
   289
  0
VERTEX
  8
base_support
 62
   254
 10
0.0
 20
0.0
 30
0.0
 70
   128
 71
   289
 72
   370
 73
   288
  0
VERTEX
  8
base_support
 62
   254
 10
0.0
 20
0.0
 30
0.0
 70
   128
 71
   288
 72
   369
 73
   287
  0
VERTEX
  8
base_support
 62
   254
 10
0.0
 20
0.0
 30
0.0
 70
   128
 71
   287
 72
   368
 73
   286
  0
VERTEX
  8
base_support
 62
   254
 10
0.0
 20
0.0
 30
0.0
 70
   128
 71
   286
 72
   119
 73
   47
  0
VERTEX
  8
base_support
 62
   254
 10
0.0
 20
0.0
 30
0.0
 70
   128
 71
   119
 72
   286
 73
   368
  0
VERTEX
  8
base_support
 62
   254
 10
0.0
 20
0.0
 30
0.0
 70
   128
 71
   368
 72
   287
 73
   369
  0
VERTEX
  8
base_support
 62
   254
 10
0.0
 20
0.0
 30
0.0
 70
   128
 71
   369
 72
   288
 73
   370
  0
VERTEX
  8
base_support
 62
   254
 10
0.0
 20
0.0
 30
0.0
 70
   128
 71
   370
 72
   289
 73
   371
  0
VERTEX
  8
base_support
 62
   254
 10
0.0
 20
0.0
 30
0.0
 70
   128
 71
   371
 72
   290
 73
   372
  0
VERTEX
  8
base_support
 62
   254
 10
0.0
 20
0.0
 30
0.0
 70
   128
 71
   373
 72
   292
 73
   374
  0
VERTEX
  8
base_support
 62
   254
 10
0.0
 20
0.0
 30
0.0
 70
   128
 71
   374
 72
   293
 73
   375
  0
VERTEX
  8
base_support
 62
   254
 10
0.0
 20
0.0
 30
0.0
 70
   128
 71
   375
 72
   294
 73
   376
  0
VERTEX
  8
base_support
 62
   254
 10
0.0
 20
0.0
 30
0.0
 70
   128
 71
   376
 72
   295
 73
   377
  0
VERTEX
  8
base_support
 62
   254
 10
0.0
 20
0.0
 30
0.0
 70
   128
 71
   377
 72
   48
 73
   118
  0
VERTEX
  8
base_support
 62
   254
 10
0.0
 20
0.0
 30
0.0
 70
   128
 71
   372
 72
   290
 73
   373
  0
VERTEX
  8
base_support
 62
   254
 10
0.0
 20
0.0
 30
0.0
 70
   128
 71
   291
 72
   373
 73
   290
  0
VERTEX
  8
base_support
 62
   254
 10
0.0
 20
0.0
 30
0.0
 70
   128
 71
   119
 72
   120
 73
   46
  0
VERTEX
  8
base_support
 62
   254
 10
0.0
 20
0.0
 30
0.0
 70
   128
 71
   119
 72
   46
 73
   47
  0
VERTEX
  8
base_support
 62
   254
 10
0.0
 20
0.0
 30
0.0
 70
   128
 71
   285
 72
   46
 73
   385
  0
VERTEX
  8
base_support
 62
   254
 10
0.0
 20
0.0
 30
0.0
 70
   128
 71
   284
 72
   285
 73
   384
  0
VERTEX
  8
base_support
 62
   254
 10
0.0
 20
0.0
 30
0.0
 70
   128
 71
   283
 72
   284
 73
   383
  0
VERTEX
  8
base_support
 62
   254
 10
0.0
 20
0.0
 30
0.0
 70
   128
 71
   282
 72
   283
 73
   382
  0
VERTEX
  8
base_support
 62
   254
 10
0.0
 20
0.0
 30
0.0
 70
   128
 71
   281
 72
   282
 73
   381
  0
VERTEX
  8
base_support
 62
   254
 10
0.0
 20
0.0
 30
0.0
 70
   128
 71
   280
 72
   281
 73
   380
  0
VERTEX
  8
base_support
 62
   254
 10
0.0
 20
0.0
 30
0.0
 70
   128
 71
   279
 72
   280
 73
   379
  0
VERTEX
  8
base_support
 62
   254
 10
0.0
 20
0.0
 30
0.0
 70
   128
 71
   278
 72
   279
 73
   378
  0
VERTEX
  8
base_support
 62
   254
 10
0.0
 20
0.0
 30
0.0
 70
   128
 71
   45
 72
   278
 73
   121
  0
VERTEX
  8
base_support
 62
   254
 10
0.0
 20
0.0
 30
0.0
 70
   128
 71
   121
 72
   278
 73
   378
  0
VERTEX
  8
base_support
 62
   254
 10
0.0
 20
0.0
 30
0.0
 70
   128
 71
   378
 72
   279
 73
   379
  0
VERTEX
  8
base_support
 62
   254
 10
0.0
 20
0.0
 30
0.0
 70
   128
 71
   379
 72
   280
 73
   380
  0
VERTEX
  8
base_support
 62
   254
 10
0.0
 20
0.0
 30
0.0
 70
   128
 71
   380
 72
   281
 73
   381
  0
VERTEX
  8
base_support
 62
   254
 10
0.0
 20
0.0
 30
0.0
 70
   128
 71
   381
 72
   282
 73
   382
  0
VERTEX
  8
base_support
 62
   254
 10
0.0
 20
0.0
 30
0.0
 70
   128
 71
   382
 72
   283
 73
   383
  0
VERTEX
  8
base_support
 62
   254
 10
0.0
 20
0.0
 30
0.0
 70
   128
 71
   383
 72
   284
 73
   384
  0
VERTEX
  8
base_support
 62
   254
 10
0.0
 20
0.0
 30
0.0
 70
   128
 71
   384
 72
   285
 73
   385
  0
VERTEX
  8
base_support
 62
   254
 10
0.0
 20
0.0
 30
0.0
 70
   128
 71
   385
 72
   46
 73
   120
  0
VERTEX
  8
base_support
 62
   254
 10
0.0
 20
0.0
 30
0.0
 70
   128
 71
   121
 72
   394
 73
   269
  0
VERTEX
  8
base_support
 62
   254
 10
0.0
 20
0.0
 30
0.0
 70
   128
 71
   394
 72
   393
 73
   270
  0
VERTEX
  8
base_support
 62
   254
 10
0.0
 20
0.0
 30
0.0
 70
   128
 71
   393
 72
   392
 73
   271
  0
VERTEX
  8
base_support
 62
   254
 10
0.0
 20
0.0
 30
0.0
 70
   128
 71
   392
 72
   391
 73
   272
  0
VERTEX
  8
base_support
 62
   254
 10
0.0
 20
0.0
 30
0.0
 70
   128
 71
   391
 72
   390
 73
   273
  0
VERTEX
  8
base_support
 62
   254
 10
0.0
 20
0.0
 30
0.0
 70
   128
 71
   390
 72
   389
 73
   274
  0
VERTEX
  8
base_support
 62
   254
 10
0.0
 20
0.0
 30
0.0
 70
   128
 71
   389
 72
   388
 73
   275
  0
VERTEX
  8
base_support
 62
   254
 10
0.0
 20
0.0
 30
0.0
 70
   128
 71
   387
 72
   386
 73
   277
  0
VERTEX
  8
base_support
 62
   254
 10
0.0
 20
0.0
 30
0.0
 70
   128
 71
   386
 72
   122
 73
   44
  0
VERTEX
  8
base_support
 62
   254
 10
0.0
 20
0.0
 30
0.0
 70
   128
 71
   386
 72
   44
 73
   277
  0
VERTEX
  8
base_support
 62
   254
 10
0.0
 20
0.0
 30
0.0
 70
   128
 71
   387
 72
   277
 73
   276
  0
VERTEX
  8
base_support
 62
   254
 10
0.0
 20
0.0
 30
0.0
 70
   128
 71
   389
 72
   275
 73
   274
  0
VERTEX
  8
base_support
 62
   254
 10
0.0
 20
0.0
 30
0.0
 70
   128
 71
   390
 72
   274
 73
   273
  0
VERTEX
  8
base_support
 62
   254
 10
0.0
 20
0.0
 30
0.0
 70
   128
 71
   391
 72
   273
 73
   272
  0
VERTEX
  8
base_support
 62
   254
 10
0.0
 20
0.0
 30
0.0
 70
   128
 71
   392
 72
   272
 73
   271
  0
VERTEX
  8
base_support
 62
   254
 10
0.0
 20
0.0
 30
0.0
 70
   128
 71
   393
 72
   271
 73
   270
  0
VERTEX
  8
base_support
 62
   254
 10
0.0
 20
0.0
 30
0.0
 70
   128
 71
   394
 72
   270
 73
   269
  0
VERTEX
  8
base_support
 62
   254
 10
0.0
 20
0.0
 30
0.0
 70
   128
 71
   121
 72
   269
 73
   45
  0
VERTEX
  8
base_support
 62
   254
 10
0.0
 20
0.0
 30
0.0
 70
   128
 71
   275
 72
   388
 73
   387
  0
VERTEX
  8
base_support
 62
   254
 10
0.0
 20
0.0
 30
0.0
 70
   128
 71
   387
 72
   276
 73
   275
  0
VERTEX
  8
base_support
 62
   254
 10
0.0
 20
0.0
 30
0.0
 70
   128
 71
   403
 72
   43
 73
   268
  0
VERTEX
  8
base_support
 62
   254
 10
0.0
 20
0.0
 30
0.0
 70
   128
 71
   122
 72
   268
 73
   44
  0
VERTEX
  8
base_support
 62
   254
 10
0.0
 20
0.0
 30
0.0
 70
   128
 71
   268
 72
   122
 73
   403
  0
VERTEX
  8
base_support
 62
   254
 10
0.0
 20
0.0
 30
0.0
 70
   128
 71
   43
 72
   403
 73
   402
  0
VERTEX
  8
base_support
 62
   254
 10
0.0
 20
0.0
 30
0.0
 70
   128
 71
   401
 72
   261
 73
   260
  0
VERTEX
  8
base_support
 62
   254
 10
0.0
 20
0.0
 30
0.0
 70
   128
 71
   399
 72
   263
 73
   262
  0
VERTEX
  8
base_support
 62
   254
 10
0.0
 20
0.0
 30
0.0
 70
   128
 71
   397
 72
   265
 73
   264
  0
VERTEX
  8
base_support
 62
   254
 10
0.0
 20
0.0
 30
0.0
 70
   128
 71
   395
 72
   267
 73
   266
  0
VERTEX
  8
base_support
 62
   254
 10
0.0
 20
0.0
 30
0.0
 70
   128
 71
   123
 72
   42
 73
   267
  0
VERTEX
  8
base_support
 62
   254
 10
0.0
 20
0.0
 30
0.0
 70
   128
 71
   398
 72
   397
 73
   264
  0
VERTEX
  8
base_support
 62
   254
 10
0.0
 20
0.0
 30
0.0
 70
   128
 71
   397
 72
   396
 73
   265
  0
VERTEX
  8
base_support
 62
   254
 10
0.0
 20
0.0
 30
0.0
 70
   128
 71
   267
 72
   395
 73
   123
  0
VERTEX
  8
base_support
 62
   254
 10
0.0
 20
0.0
 30
0.0
 70
   128
 71
   396
 72
   395
 73
   266
  0
VERTEX
  8
base_support
 62
   254
 10
0.0
 20
0.0
 30
0.0
 70
   128
 71
   399
 72
   398
 73
   263
  0
VERTEX
  8
base_support
 62
   254
 10
0.0
 20
0.0
 30
0.0
 70
   128
 71
   396
 72
   266
 73
   265
  0
VERTEX
  8
base_support
 62
   254
 10
0.0
 20
0.0
 30
0.0
 70
   128
 71
   400
 72
   399
 73
   262
  0
VERTEX
  8
base_support
 62
   254
 10
0.0
 20
0.0
 30
0.0
 70
   128
 71
   398
 72
   264
 73
   263
  0
VERTEX
  8
base_support
 62
   254
 10
0.0
 20
0.0
 30
0.0
 70
   128
 71
   401
 72
   400
 73
   261
  0
VERTEX
  8
base_support
 62
   254
 10
0.0
 20
0.0
 30
0.0
 70
   128
 71
   400
 72
   262
 73
   261
  0
VERTEX
  8
base_support
 62
   254
 10
0.0
 20
0.0
 30
0.0
 70
   128
 71
   402
 72
   401
 73
   260
  0
VERTEX
  8
base_support
 62
   254
 10
0.0
 20
0.0
 30
0.0
 70
   128
 71
   43
 72
   402
 73
   260
  0
VERTEX
  8
base_support
 62
   254
 10
0.0
 20
0.0
 30
0.0
 70
   128
 71
   123
 72
   412
 73
   251
  0
VERTEX
  8
base_support
 62
   254
 10
0.0
 20
0.0
 30
0.0
 70
   128
 71
   412
 72
   411
 73
   252
  0
VERTEX
  8
base_support
 62
   254
 10
0.0
 20
0.0
 30
0.0
 70
   128
 71
   411
 72
   410
 73
   253
  0
VERTEX
  8
base_support
 62
   254
 10
0.0
 20
0.0
 30
0.0
 70
   128
 71
   410
 72
   409
 73
   254
  0
VERTEX
  8
base_support
 62
   254
 10
0.0
 20
0.0
 30
0.0
 70
   128
 71
   409
 72
   408
 73
   255
  0
VERTEX
  8
base_support
 62
   254
 10
0.0
 20
0.0
 30
0.0
 70
   128
 71
   408
 72
   407
 73
   256
  0
VERTEX
  8
base_support
 62
   254
 10
0.0
 20
0.0
 30
0.0
 70
   128
 71
   407
 72
   406
 73
   257
  0
VERTEX
  8
base_support
 62
   254
 10
0.0
 20
0.0
 30
0.0
 70
   128
 71
   406
 72
   405
 73
   258
  0
VERTEX
  8
base_support
 62
   254
 10
0.0
 20
0.0
 30
0.0
 70
   128
 71
   405
 72
   404
 73
   259
  0
VERTEX
  8
base_support
 62
   254
 10
0.0
 20
0.0
 30
0.0
 70
   128
 71
   404
 72
   124
 73
   41
  0
VERTEX
  8
base_support
 62
   254
 10
0.0
 20
0.0
 30
0.0
 70
   128
 71
   404
 72
   41
 73
   259
  0
VERTEX
  8
base_support
 62
   254
 10
0.0
 20
0.0
 30
0.0
 70
   128
 71
   405
 72
   259
 73
   258
  0
VERTEX
  8
base_support
 62
   254
 10
0.0
 20
0.0
 30
0.0
 70
   128
 71
   406
 72
   258
 73
   257
  0
VERTEX
  8
base_support
 62
   254
 10
0.0
 20
0.0
 30
0.0
 70
   128
 71
   407
 72
   257
 73
   256
  0
VERTEX
  8
base_support
 62
   254
 10
0.0
 20
0.0
 30
0.0
 70
   128
 71
   408
 72
   256
 73
   255
  0
VERTEX
  8
base_support
 62
   254
 10
0.0
 20
0.0
 30
0.0
 70
   128
 71
   409
 72
   255
 73
   254
  0
VERTEX
  8
base_support
 62
   254
 10
0.0
 20
0.0
 30
0.0
 70
   128
 71
   410
 72
   254
 73
   253
  0
VERTEX
  8
base_support
 62
   254
 10
0.0
 20
0.0
 30
0.0
 70
   128
 71
   411
 72
   253
 73
   252
  0
VERTEX
  8
base_support
 62
   254
 10
0.0
 20
0.0
 30
0.0
 70
   128
 71
   412
 72
   252
 73
   251
  0
VERTEX
  8
base_support
 62
   254
 10
0.0
 20
0.0
 30
0.0
 70
   128
 71
   123
 72
   251
 73
   42
  0
VERTEX
  8
base_support
 62
   254
 10
0.0
 20
0.0
 30
0.0
 70
   128
 71
   124
 72
   125
 73
   40
  0
VERTEX
  8
base_support
 62
   254
 10
0.0
 20
0.0
 30
0.0
 70
   128
 71
   124
 72
   40
 73
   41
  0
VERTEX
  8
base_support
 62
   254
 10
0.0
 20
0.0
 30
0.0
 70
   128
 71
   40
 72
   420
 73
   250
  0
VERTEX
  8
base_support
 62
   254
 10
0.0
 20
0.0
 30
0.0
 70
   128
 71
   250
 72
   419
 73
   249
  0
VERTEX
  8
base_support
 62
   254
 10
0.0
 20
0.0
 30
0.0
 70
   128
 71
   249
 72
   418
 73
   248
  0
VERTEX
  8
base_support
 62
   254
 10
0.0
 20
0.0
 30
0.0
 70
   128
 71
   248
 72
   417
 73
   247
  0
VERTEX
  8
base_support
 62
   254
 10
0.0
 20
0.0
 30
0.0
 70
   128
 71
   246
 72
   415
 73
   245
  0
VERTEX
  8
base_support
 62
   254
 10
0.0
 20
0.0
 30
0.0
 70
   128
 71
   245
 72
   414
 73
   244
  0
VERTEX
  8
base_support
 62
   254
 10
0.0
 20
0.0
 30
0.0
 70
   128
 71
   244
 72
   413
 73
   243
  0
VERTEX
  8
base_support
 62
   254
 10
0.0
 20
0.0
 30
0.0
 70
   128
 71
   243
 72
   126
 73
   39
  0
VERTEX
  8
base_support
 62
   254
 10
0.0
 20
0.0
 30
0.0
 70
   128
 71
   126
 72
   243
 73
   413
  0
VERTEX
  8
base_support
 62
   254
 10
0.0
 20
0.0
 30
0.0
 70
   128
 71
   413
 72
   244
 73
   414
  0
VERTEX
  8
base_support
 62
   254
 10
0.0
 20
0.0
 30
0.0
 70
   128
 71
   414
 72
   245
 73
   415
  0
VERTEX
  8
base_support
 62
   254
 10
0.0
 20
0.0
 30
0.0
 70
   128
 71
   415
 72
   246
 73
   416
  0
VERTEX
  8
base_support
 62
   254
 10
0.0
 20
0.0
 30
0.0
 70
   128
 71
   417
 72
   248
 73
   418
  0
VERTEX
  8
base_support
 62
   254
 10
0.0
 20
0.0
 30
0.0
 70
   128
 71
   418
 72
   249
 73
   419
  0
VERTEX
  8
base_support
 62
   254
 10
0.0
 20
0.0
 30
0.0
 70
   128
 71
   419
 72
   250
 73
   420
  0
VERTEX
  8
base_support
 62
   254
 10
0.0
 20
0.0
 30
0.0
 70
   128
 71
   420
 72
   40
 73
   125
  0
VERTEX
  8
base_support
 62
   254
 10
0.0
 20
0.0
 30
0.0
 70
   128
 71
   416
 72
   246
 73
   417
  0
VERTEX
  8
base_support
 62
   254
 10
0.0
 20
0.0
 30
0.0
 70
   128
 71
   247
 72
   417
 73
   246
  0
VERTEX
  8
base_support
 62
   254
 10
0.0
 20
0.0
 30
0.0
 70
   128
 71
   126
 72
   127
 73
   38
  0
VERTEX
  8
base_support
 62
   254
 10
0.0
 20
0.0
 30
0.0
 70
   128
 71
   126
 72
   38
 73
   39
  0
VERTEX
  8
base_support
 62
   254
 10
0.0
 20
0.0
 30
0.0
 70
   128
 71
   38
 72
   428
 73
   242
  0
VERTEX
  8
base_support
 62
   254
 10
0.0
 20
0.0
 30
0.0
 70
   128
 71
   242
 72
   427
 73
   241
  0
VERTEX
  8
base_support
 62
   254
 10
0.0
 20
0.0
 30
0.0
 70
   128
 71
   241
 72
   426
 73
   240
  0
VERTEX
  8
base_support
 62
   254
 10
0.0
 20
0.0
 30
0.0
 70
   128
 71
   240
 72
   425
 73
   239
  0
VERTEX
  8
base_support
 62
   254
 10
0.0
 20
0.0
 30
0.0
 70
   128
 71
   239
 72
   424
 73
   238
  0
VERTEX
  8
base_support
 62
   254
 10
0.0
 20
0.0
 30
0.0
 70
   128
 71
   238
 72
   423
 73
   237
  0
VERTEX
  8
base_support
 62
   254
 10
0.0
 20
0.0
 30
0.0
 70
   128
 71
   237
 72
   422
 73
   236
  0
VERTEX
  8
base_support
 62
   254
 10
0.0
 20
0.0
 30
0.0
 70
   128
 71
   236
 72
   421
 73
   235
  0
VERTEX
  8
base_support
 62
   254
 10
0.0
 20
0.0
 30
0.0
 70
   128
 71
   235
 72
   128
 73
   37
  0
VERTEX
  8
base_support
 62
   254
 10
0.0
 20
0.0
 30
0.0
 70
   128
 71
   128
 72
   235
 73
   421
  0
VERTEX
  8
base_support
 62
   254
 10
0.0
 20
0.0
 30
0.0
 70
   128
 71
   421
 72
   236
 73
   422
  0
VERTEX
  8
base_support
 62
   254
 10
0.0
 20
0.0
 30
0.0
 70
   128
 71
   422
 72
   237
 73
   423
  0
VERTEX
  8
base_support
 62
   254
 10
0.0
 20
0.0
 30
0.0
 70
   128
 71
   423
 72
   238
 73
   424
  0
VERTEX
  8
base_support
 62
   254
 10
0.0
 20
0.0
 30
0.0
 70
   128
 71
   424
 72
   239
 73
   425
  0
VERTEX
  8
base_support
 62
   254
 10
0.0
 20
0.0
 30
0.0
 70
   128
 71
   425
 72
   240
 73
   426
  0
VERTEX
  8
base_support
 62
   254
 10
0.0
 20
0.0
 30
0.0
 70
   128
 71
   426
 72
   241
 73
   427
  0
VERTEX
  8
base_support
 62
   254
 10
0.0
 20
0.0
 30
0.0
 70
   128
 71
   427
 72
   242
 73
   428
  0
VERTEX
  8
base_support
 62
   254
 10
0.0
 20
0.0
 30
0.0
 70
   128
 71
   428
 72
   38
 73
   127
  0
VERTEX
  8
base_support
 62
   254
 10
0.0
 20
0.0
 30
0.0
 70
   128
 71
   297
 72
   50
 73
   367
  0
VERTEX
  8
base_support
 62
   254
 10
0.0
 20
0.0
 30
0.0
 70
   128
 71
   49
 72
   296
 73
   117
  0
VERTEX
  8
base_support
 62
   254
 10
0.0
 20
0.0
 30
0.0
 70
   128
 71
   117
 72
   296
 73
   366
  0
VERTEX
  8
base_support
 62
   254
 10
0.0
 20
0.0
 30
0.0
 70
   128
 71
   367
 72
   50
 73
   91
  0
VERTEX
  8
base_support
 62
   254
 10
0.0
 20
0.0
 30
0.0
 70
   128
 71
   297
 72
   367
 73
   296
  0
VERTEX
  8
base_support
 62
   254
 10
0.0
 20
0.0
 30
0.0
 70
   128
 71
   366
 72
   296
 73
   367
  0
VERTEX
  8
base_support
 62
   254
 10
0.0
 20
0.0
 30
0.0
 70
   128
 71
   128
 72
   129
 73
   36
  0
VERTEX
  8
base_support
 62
   254
 10
0.0
 20
0.0
 30
0.0
 70
   128
 71
   128
 72
   36
 73
   37
  0
VERTEX
  8
base_support
 62
   254
 10
0.0
 20
0.0
 30
0.0
 70
   128
 71
   230
 72
   129
 73
   433
  0
VERTEX
  8
base_support
 62
   254
 10
0.0
 20
0.0
 30
0.0
 70
   128
 71
   231
 72
   433
 73
   432
  0
VERTEX
  8
base_support
 62
   254
 10
0.0
 20
0.0
 30
0.0
 70
   128
 71
   232
 72
   432
 73
   431
  0
VERTEX
  8
base_support
 62
   254
 10
0.0
 20
0.0
 30
0.0
 70
   128
 71
   233
 72
   431
 73
   430
  0
VERTEX
  8
base_support
 62
   254
 10
0.0
 20
0.0
 30
0.0
 70
   128
 71
   234
 72
   430
 73
   429
  0
VERTEX
  8
base_support
 62
   254
 10
0.0
 20
0.0
 30
0.0
 70
   128
 71
   35
 72
   429
 73
   99
  0
VERTEX
  8
base_support
 62
   254
 10
0.0
 20
0.0
 30
0.0
 70
   128
 71
   429
 72
   35
 73
   234
  0
VERTEX
  8
base_support
 62
   254
 10
0.0
 20
0.0
 30
0.0
 70
   128
 71
   430
 72
   234
 73
   233
  0
VERTEX
  8
base_support
 62
   254
 10
0.0
 20
0.0
 30
0.0
 70
   128
 71
   431
 72
   233
 73
   232
  0
VERTEX
  8
base_support
 62
   254
 10
0.0
 20
0.0
 30
0.0
 70
   128
 71
   432
 72
   232
 73
   231
  0
VERTEX
  8
base_support
 62
   254
 10
0.0
 20
0.0
 30
0.0
 70
   128
 71
   433
 72
   231
 73
   230
  0
VERTEX
  8
base_support
 62
   254
 10
0.0
 20
0.0
 30
0.0
 70
   128
 71
   129
 72
   230
 73
   36
  0
VERTEX
  8
base_support
 62
   254
 10
0.0
 20
0.0
 30
0.0
 70
   128
 71
   101
 72
   102
 73
   31
  0
VERTEX
  8
base_support
 62
   254
 10
0.0
 20
0.0
 30
0.0
 70
   128
 71
   101
 72
   31
 73
   32
  0
VERTEX
  8
base_support
 62
   254
 10
0.0
 20
0.0
 30
0.0
 70
   128
 71
   33
 72
   34
 73
   98
  0
VERTEX
  8
base_support
 62
   254
 10
0.0
 20
0.0
 30
0.0
 70
   128
 71
   100
 72
   33
 73
   98
  0
VERTEX
  8
base_support
 62
   254
 10
0.0
 20
0.0
 30
0.0
 70
   128
 71
   446
 72
   489
 73
   490
  0
VERTEX
  8
base_support
 62
   254
 10
0.0
 20
0.0
 30
0.0
 70
   128
 71
   438
 72
   498
 73
   437
  0
VERTEX
  8
base_support
 62
   254
 10
0.0
 20
0.0
 30
0.0
 70
   128
 71
   439
 72
   497
 73
   438
  0
VERTEX
  8
base_support
 62
   254
 10
0.0
 20
0.0
 30
0.0
 70
   128
 71
   440
 72
   496
 73
   439
  0
VERTEX
  8
base_support
 62
   254
 10
0.0
 20
0.0
 30
0.0
 70
   128
 71
   440
 72
   441
 73
   495
  0
VERTEX
  8
base_support
 62
   254
 10
0.0
 20
0.0
 30
0.0
 70
   128
 71
   442
 72
   443
 73
   493
  0
VERTEX
  8
base_support
 62
   254
 10
0.0
 20
0.0
 30
0.0
 70
   128
 71
   443
 72
   444
 73
   492
  0
VERTEX
  8
base_support
 62
   254
 10
0.0
 20
0.0
 30
0.0
 70
   128
 71
   489
 72
   446
 73
   447
  0
VERTEX
  8
base_support
 62
   254
 10
0.0
 20
0.0
 30
0.0
 70
   128
 71
   488
 72
   447
 73
   448
  0
VERTEX
  8
base_support
 62
   254
 10
0.0
 20
0.0
 30
0.0
 70
   128
 71
   487
 72
   448
 73
   449
  0
VERTEX
  8
base_support
 62
   254
 10
0.0
 20
0.0
 30
0.0
 70
   128
 71
   486
 72
   449
 73
   450
  0
VERTEX
  8
base_support
 62
   254
 10
0.0
 20
0.0
 30
0.0
 70
   128
 71
   451
 72
   452
 73
   100
  0
VERTEX
  8
base_support
 62
   254
 10
0.0
 20
0.0
 30
0.0
 70
   128
 71
   452
 72
   453
 73
   100
  0
VERTEX
  8
base_support
 62
   254
 10
0.0
 20
0.0
 30
0.0
 70
   128
 71
   453
 72
   454
 73
   100
  0
VERTEX
  8
base_support
 62
   254
 10
0.0
 20
0.0
 30
0.0
 70
   128
 71
   454
 72
   455
 73
   100
  0
VERTEX
  8
base_support
 62
   254
 10
0.0
 20
0.0
 30
0.0
 70
   128
 71
   455
 72
   456
 73
   100
  0
VERTEX
  8
base_support
 62
   254
 10
0.0
 20
0.0
 30
0.0
 70
   128
 71
   456
 72
   457
 73
   100
  0
VERTEX
  8
base_support
 62
   254
 10
0.0
 20
0.0
 30
0.0
 70
   128
 71
   457
 72
   458
 73
   100
  0
VERTEX
  8
base_support
 62
   254
 10
0.0
 20
0.0
 30
0.0
 70
   128
 71
   458
 72
   459
 73
   135
  0
VERTEX
  8
base_support
 62
   254
 10
0.0
 20
0.0
 30
0.0
 70
   128
 71
   459
 72
   460
 73
   135
  0
VERTEX
  8
base_support
 62
   254
 10
0.0
 20
0.0
 30
0.0
 70
   128
 71
   460
 72
   461
 73
   135
  0
VERTEX
  8
base_support
 62
   254
 10
0.0
 20
0.0
 30
0.0
 70
   128
 71
   135
 72
   96
 73
   100
  0
VERTEX
  8
base_support
 62
   254
 10
0.0
 20
0.0
 30
0.0
 70
   128
 71
   462
 72
   463
 73
   135
  0
VERTEX
  8
base_support
 62
   254
 10
0.0
 20
0.0
 30
0.0
 70
   128
 71
   463
 72
   464
 73
   135
  0
VERTEX
  8
base_support
 62
   254
 10
0.0
 20
0.0
 30
0.0
 70
   128
 71
   135
 72
   465
 73
   466
  0
VERTEX
  8
base_support
 62
   254
 10
0.0
 20
0.0
 30
0.0
 70
   128
 71
   135
 72
   466
 73
   467
  0
VERTEX
  8
base_support
 62
   254
 10
0.0
 20
0.0
 30
0.0
 70
   128
 71
   540
 72
   541
 73
   138
  0
VERTEX
  8
base_support
 62
   254
 10
0.0
 20
0.0
 30
0.0
 70
   128
 71
   499
 72
   436
 73
   437
  0
VERTEX
  8
base_support
 62
   254
 10
0.0
 20
0.0
 30
0.0
 70
   128
 71
   444
 72
   445
 73
   491
  0
VERTEX
  8
base_support
 62
   254
 10
0.0
 20
0.0
 30
0.0
 70
   128
 71
   445
 72
   446
 73
   490
  0
VERTEX
  8
base_support
 62
   254
 10
0.0
 20
0.0
 30
0.0
 70
   128
 71
   441
 72
   442
 73
   494
  0
VERTEX
  8
base_support
 62
   254
 10
0.0
 20
0.0
 30
0.0
 70
   128
 71
   449
 72
   486
 73
   487
  0
VERTEX
  8
base_support
 62
   254
 10
0.0
 20
0.0
 30
0.0
 70
   128
 71
   448
 72
   487
 73
   488
  0
VERTEX
  8
base_support
 62
   254
 10
0.0
 20
0.0
 30
0.0
 70
   128
 71
   435
 72
   436
 73
   500
  0
VERTEX
  8
base_support
 62
   254
 10
0.0
 20
0.0
 30
0.0
 70
   128
 71
   447
 72
   488
 73
   489
  0
VERTEX
  8
base_support
 62
   254
 10
0.0
 20
0.0
 30
0.0
 70
   128
 71
   445
 72
   490
 73
   491
  0
VERTEX
  8
base_support
 62
   254
 10
0.0
 20
0.0
 30
0.0
 70
   128
 71
   444
 72
   491
 73
   492
  0
VERTEX
  8
base_support
 62
   254
 10
0.0
 20
0.0
 30
0.0
 70
   128
 71
   443
 72
   492
 73
   493
  0
VERTEX
  8
base_support
 62
   254
 10
0.0
 20
0.0
 30
0.0
 70
   128
 71
   434
 72
   435
 73
   501
  0
VERTEX
  8
base_support
 62
   254
 10
0.0
 20
0.0
 30
0.0
 70
   128
 71
   442
 72
   493
 73
   494
  0
VERTEX
  8
base_support
 62
   254
 10
0.0
 20
0.0
 30
0.0
 70
   128
 71
   441
 72
   494
 73
   495
  0
VERTEX
  8
base_support
 62
   254
 10
0.0
 20
0.0
 30
0.0
 70
   128
 71
   440
 72
   495
 73
   496
  0
VERTEX
  8
base_support
 62
   254
 10
0.0
 20
0.0
 30
0.0
 70
   128
 71
   439
 72
   496
 73
   497
  0
VERTEX
  8
base_support
 62
   254
 10
0.0
 20
0.0
 30
0.0
 70
   128
 71
   438
 72
   497
 73
   498
  0
VERTEX
  8
base_support
 62
   254
 10
0.0
 20
0.0
 30
0.0
 70
   128
 71
   437
 72
   498
 73
   499
  0
VERTEX
  8
base_support
 62
   254
 10
0.0
 20
0.0
 30
0.0
 70
   128
 71
   436
 72
   499
 73
   500
  0
VERTEX
  8
base_support
 62
   254
 10
0.0
 20
0.0
 30
0.0
 70
   128
 71
   435
 72
   500
 73
   501
  0
VERTEX
  8
base_support
 62
   254
 10
0.0
 20
0.0
 30
0.0
 70
   128
 71
   434
 72
   501
 73
   502
  0
VERTEX
  8
base_support
 62
   254
 10
0.0
 20
0.0
 30
0.0
 70
   128
 71
   136
 72
   476
 73
   477
  0
VERTEX
  8
base_support
 62
   254
 10
0.0
 20
0.0
 30
0.0
 70
   128
 71
   136
 72
   477
 73
   478
  0
VERTEX
  8
base_support
 62
   254
 10
0.0
 20
0.0
 30
0.0
 70
   128
 71
   136
 72
   478
 73
   479
  0
VERTEX
  8
base_support
 62
   254
 10
0.0
 20
0.0
 30
0.0
 70
   128
 71
   136
 72
   479
 73
   101
  0
VERTEX
  8
base_support
 62
   254
 10
0.0
 20
0.0
 30
0.0
 70
   128
 71
   479
 72
   480
 73
   101
  0
VERTEX
  8
base_support
 62
   254
 10
0.0
 20
0.0
 30
0.0
 70
   128
 71
   101
 72
   481
 73
   482
  0
VERTEX
  8
base_support
 62
   254
 10
0.0
 20
0.0
 30
0.0
 70
   128
 71
   101
 72
   482
 73
   483
  0
VERTEX
  8
base_support
 62
   254
 10
0.0
 20
0.0
 30
0.0
 70
   128
 71
   101
 72
   483
 73
   484
  0
VERTEX
  8
base_support
 62
   254
 10
0.0
 20
0.0
 30
0.0
 70
   128
 71
   101
 72
   484
 73
   485
  0
VERTEX
  8
base_support
 62
   254
 10
0.0
 20
0.0
 30
0.0
 70
   128
 71
   464
 72
   465
 73
   135
  0
VERTEX
  8
base_support
 62
   254
 10
0.0
 20
0.0
 30
0.0
 70
   128
 71
   33
 72
   100
 73
   96
  0
VERTEX
  8
base_support
 62
   254
 10
0.0
 20
0.0
 30
0.0
 70
   128
 71
   470
 72
   136
 73
   469
  0
VERTEX
  8
base_support
 62
   254
 10
0.0
 20
0.0
 30
0.0
 70
   128
 71
   33
 72
   141
 73
   32
  0
VERTEX
  8
base_support
 62
   254
 10
0.0
 20
0.0
 30
0.0
 70
   128
 71
   130
 72
   434
 73
   135
  0
VERTEX
  8
base_support
 62
   254
 10
0.0
 20
0.0
 30
0.0
 70
   128
 71
   141
 72
   140
 73
   524
  0
VERTEX
  8
base_support
 62
   254
 10
0.0
 20
0.0
 30
0.0
 70
   128
 71
   502
 72
   131
 73
   136
  0
VERTEX
  8
base_support
 62
   254
 10
0.0
 20
0.0
 30
0.0
 70
   128
 71
   141
 72
   524
 73
   525
  0
VERTEX
  8
base_support
 62
   254
 10
0.0
 20
0.0
 30
0.0
 70
   128
 71
   141
 72
   525
 73
   526
  0
VERTEX
  8
base_support
 62
   254
 10
0.0
 20
0.0
 30
0.0
 70
   128
 71
   136
 72
   131
 73
   469
  0
VERTEX
  8
base_support
 62
   254
 10
0.0
 20
0.0
 30
0.0
 70
   128
 71
   141
 72
   526
 73
   527
  0
VERTEX
  8
base_support
 62
   254
 10
0.0
 20
0.0
 30
0.0
 70
   128
 71
   142
 72
   141
 73
   33
  0
VERTEX
  8
base_support
 62
   254
 10
0.0
 20
0.0
 30
0.0
 70
   128
 71
   141
 72
   527
 73
   528
  0
VERTEX
  8
base_support
 62
   254
 10
0.0
 20
0.0
 30
0.0
 70
   128
 71
   470
 72
   471
 73
   136
  0
VERTEX
  8
base_support
 62
   254
 10
0.0
 20
0.0
 30
0.0
 70
   128
 71
   141
 72
   528
 73
   529
  0
VERTEX
  8
base_support
 62
   254
 10
0.0
 20
0.0
 30
0.0
 70
   128
 71
   136
 72
   471
 73
   472
  0
VERTEX
  8
base_support
 62
   254
 10
0.0
 20
0.0
 30
0.0
 70
   128
 71
   141
 72
   529
 73
   530
  0
VERTEX
  8
base_support
 62
   254
 10
0.0
 20
0.0
 30
0.0
 70
   128
 71
   472
 72
   473
 73
   136
  0
VERTEX
  8
base_support
 62
   254
 10
0.0
 20
0.0
 30
0.0
 70
   128
 71
   141
 72
   530
 73
   32
  0
VERTEX
  8
base_support
 62
   254
 10
0.0
 20
0.0
 30
0.0
 70
   128
 71
   475
 72
   476
 73
   136
  0
VERTEX
  8
base_support
 62
   254
 10
0.0
 20
0.0
 30
0.0
 70
   128
 71
   530
 72
   531
 73
   32
  0
VERTEX
  8
base_support
 62
   254
 10
0.0
 20
0.0
 30
0.0
 70
   128
 71
   136
 72
   473
 73
   474
  0
VERTEX
  8
base_support
 62
   254
 10
0.0
 20
0.0
 30
0.0
 70
   128
 71
   531
 72
   532
 73
   137
  0
VERTEX
  8
base_support
 62
   254
 10
0.0
 20
0.0
 30
0.0
 70
   128
 71
   136
 72
   474
 73
   475
  0
VERTEX
  8
base_support
 62
   254
 10
0.0
 20
0.0
 30
0.0
 70
   128
 71
   137
 72
   533
 73
   534
  0
VERTEX
  8
base_support
 62
   254
 10
0.0
 20
0.0
 30
0.0
 70
   128
 71
   137
 72
   534
 73
   535
  0
VERTEX
  8
base_support
 62
   254
 10
0.0
 20
0.0
 30
0.0
 70
   128
 71
   130
 72
   135
 73
   468
  0
VERTEX
  8
base_support
 62
   254
 10
0.0
 20
0.0
 30
0.0
 70
   128
 71
   137
 72
   535
 73
   536
  0
VERTEX
  8
base_support
 62
   254
 10
0.0
 20
0.0
 30
0.0
 70
   128
 71
   137
 72
   536
 73
   537
  0
VERTEX
  8
base_support
 62
   254
 10
0.0
 20
0.0
 30
0.0
 70
   128
 71
   137
 72
   537
 73
   538
  0
VERTEX
  8
base_support
 62
   254
 10
0.0
 20
0.0
 30
0.0
 70
   128
 71
   137
 72
   540
 73
   138
  0
VERTEX
  8
base_support
 62
   254
 10
0.0
 20
0.0
 30
0.0
 70
   128
 71
   538
 72
   539
 73
   137
  0
VERTEX
  8
base_support
 62
   254
 10
0.0
 20
0.0
 30
0.0
 70
   128
 71
   468
 72
   135
 73
   467
  0
VERTEX
  8
base_support
 62
   254
 10
0.0
 20
0.0
 30
0.0
 70
   128
 71
   539
 72
   540
 73
   137
  0
VERTEX
  8
base_support
 62
   254
 10
0.0
 20
0.0
 30
0.0
 70
   128
 71
   541
 72
   542
 73
   138
  0
VERTEX
  8
base_support
 62
   254
 10
0.0
 20
0.0
 30
0.0
 70
   128
 71
   542
 72
   543
 73
   138
  0
VERTEX
  8
base_support
 62
   254
 10
0.0
 20
0.0
 30
0.0
 70
   128
 71
   138
 72
   544
 73
   139
  0
VERTEX
  8
base_support
 62
   254
 10
0.0
 20
0.0
 30
0.0
 70
   128
 71
   543
 72
   544
 73
   138
  0
VERTEX
  8
base_support
 62
   254
 10
0.0
 20
0.0
 30
0.0
 70
   128
 71
   532
 72
   533
 73
   137
  0
VERTEX
  8
base_support
 62
   254
 10
0.0
 20
0.0
 30
0.0
 70
   128
 71
   481
 72
   101
 73
   480
  0
VERTEX
  8
base_support
 62
   254
 10
0.0
 20
0.0
 30
0.0
 70
   128
 71
   461
 72
   462
 73
   135
  0
VERTEX
  8
base_support
 62
   254
 10
0.0
 20
0.0
 30
0.0
 70
   128
 71
   434
 72
   502
 73
   136
  0
VERTEX
  8
base_support
 62
   254
 10
0.0
 20
0.0
 30
0.0
 70
   128
 71
   135
 72
   434
 73
   136
  0
VERTEX
  8
base_support
 62
   254
 10
0.0
 20
0.0
 30
0.0
 70
   128
 71
   96
 72
   97
 73
   507
  0
VERTEX
  8
base_support
 62
   254
 10
0.0
 20
0.0
 30
0.0
 70
   128
 71
   97
 72
   133
 73
   503
  0
VERTEX
  8
base_support
 62
   254
 10
0.0
 20
0.0
 30
0.0
 70
   128
 71
   97
 72
   503
 73
   504
  0
VERTEX
  8
base_support
 62
   254
 10
0.0
 20
0.0
 30
0.0
 70
   128
 71
   97
 72
   504
 73
   505
  0
VERTEX
  8
base_support
 62
   254
 10
0.0
 20
0.0
 30
0.0
 70
   128
 71
   97
 72
   505
 73
   506
  0
VERTEX
  8
base_support
 62
   254
 10
0.0
 20
0.0
 30
0.0
 70
   128
 71
   97
 72
   506
 73
   507
  0
VERTEX
  8
base_support
 62
   254
 10
0.0
 20
0.0
 30
0.0
 70
   128
 71
   96
 72
   507
 73
   508
  0
VERTEX
  8
base_support
 62
   254
 10
0.0
 20
0.0
 30
0.0
 70
   128
 71
   96
 72
   508
 73
   509
  0
VERTEX
  8
base_support
 62
   254
 10
0.0
 20
0.0
 30
0.0
 70
   128
 71
   96
 72
   509
 73
   510
  0
VERTEX
  8
base_support
 62
   254
 10
0.0
 20
0.0
 30
0.0
 70
   128
 71
   96
 72
   510
 73
   511
  0
VERTEX
  8
base_support
 62
   254
 10
0.0
 20
0.0
 30
0.0
 70
   128
 71
   96
 72
   511
 73
   512
  0
VERTEX
  8
base_support
 62
   254
 10
0.0
 20
0.0
 30
0.0
 70
   128
 71
   96
 72
   512
 73
   513
  0
VERTEX
  8
base_support
 62
   254
 10
0.0
 20
0.0
 30
0.0
 70
   128
 71
   96
 72
   513
 73
   514
  0
VERTEX
  8
base_support
 62
   254
 10
0.0
 20
0.0
 30
0.0
 70
   128
 71
   33
 72
   96
 73
   516
  0
VERTEX
  8
base_support
 62
   254
 10
0.0
 20
0.0
 30
0.0
 70
   128
 71
   96
 72
   514
 73
   515
  0
VERTEX
  8
base_support
 62
   254
 10
0.0
 20
0.0
 30
0.0
 70
   128
 71
   96
 72
   515
 73
   516
  0
VERTEX
  8
base_support
 62
   254
 10
0.0
 20
0.0
 30
0.0
 70
   128
 71
   33
 72
   516
 73
   517
  0
VERTEX
  8
base_support
 62
   254
 10
0.0
 20
0.0
 30
0.0
 70
   128
 71
   142
 72
   517
 73
   518
  0
VERTEX
  8
base_support
 62
   254
 10
0.0
 20
0.0
 30
0.0
 70
   128
 71
   142
 72
   518
 73
   519
  0
VERTEX
  8
base_support
 62
   254
 10
0.0
 20
0.0
 30
0.0
 70
   128
 71
   142
 72
   519
 73
   520
  0
VERTEX
  8
base_support
 62
   254
 10
0.0
 20
0.0
 30
0.0
 70
   128
 71
   142
 72
   520
 73
   521
  0
VERTEX
  8
base_support
 62
   254
 10
0.0
 20
0.0
 30
0.0
 70
   128
 71
   142
 72
   521
 73
   522
  0
VERTEX
  8
base_support
 62
   254
 10
0.0
 20
0.0
 30
0.0
 70
   128
 71
   134
 72
   142
 73
   523
  0
VERTEX
  8
base_support
 62
   254
 10
0.0
 20
0.0
 30
0.0
 70
   128
 71
   142
 72
   522
 73
   523
  0
VERTEX
  8
base_support
 62
   254
 10
0.0
 20
0.0
 30
0.0
 70
   128
 71
   458
 72
   135
 73
   100
  0
VERTEX
  8
base_support
 62
   254
 10
0.0
 20
0.0
 30
0.0
 70
   128
 71
   137
 72
   136
 73
   101
  0
VERTEX
  8
base_support
 62
   254
 10
0.0
 20
0.0
 30
0.0
 70
   128
 71
   450
 72
   451
 73
   132
  0
VERTEX
  8
base_support
 62
   254
 10
0.0
 20
0.0
 30
0.0
 70
   128
 71
   132
 72
   486
 73
   450
  0
VERTEX
  8
base_support
 62
   254
 10
0.0
 20
0.0
 30
0.0
 70
   128
 71
   101
 72
   485
 73
   132
  0
VERTEX
  8
base_support
 62
   254
 10
0.0
 20
0.0
 30
0.0
 70
   128
 71
   132
 72
   451
 73
   100
  0
VERTEX
  8
base_support
 62
   254
 10
0.0
 20
0.0
 30
0.0
 70
   128
 71
   101
 72
   132
 73
   100
  0
VERTEX
  8
base_support
 62
   254
 10
0.0
 20
0.0
 30
0.0
 70
   128
 71
   531
 72
   137
 73
   32
  0
VERTEX
  8
base_support
 62
   254
 10
0.0
 20
0.0
 30
0.0
 70
   128
 71
   137
 72
   101
 73
   32
  0
VERTEX
  8
base_support
 62
   254
 10
0.0
 20
0.0
 30
0.0
 70
   128
 71
   517
 72
   142
 73
   33
  0
VERTEX
  8
base_support
 62
   254
 10
0.0
 20
0.0
 30
0.0
 70
   128
 71
   79
 72
   80
 73
   136
  0
VERTEX
  8
base_support
 62
   254
 10
0.0
 20
0.0
 30
0.0
 70
   128
 71
   79
 72
   136
 73
   137
  0
VERTEX
  8
base_support
 62
   254
 10
0.0
 20
0.0
 30
0.0
 70
   128
 71
   78
 72
   79
 73
   137
  0
VERTEX
  8
base_support
 62
   254
 10
0.0
 20
0.0
 30
0.0
 70
   128
 71
   78
 72
   137
 73
   138
  0
VERTEX
  8
base_support
 62
   254
 10
0.0
 20
0.0
 30
0.0
 70
   128
 71
   81
 72
   82
 73
   96
  0
VERTEX
  8
base_support
 62
   254
 10
0.0
 20
0.0
 30
0.0
 70
   128
 71
   81
 72
   96
 73
   135
  0
VERTEX
  8
base_support
 62
   254
 10
0.0
 20
0.0
 30
0.0
 70
   128
 71
   80
 72
   81
 73
   135
  0
VERTEX
  8
base_support
 62
   254
 10
0.0
 20
0.0
 30
0.0
 70
   128
 71
   80
 72
   135
 73
   136
  0
VERTEX
  8
base_support
 62
   254
 10
0.0
 20
0.0
 30
0.0
 70
   128
 71
   566
 72
   144
 73
   139
  0
VERTEX
  8
base_support
 62
   254
 10
0.0
 20
0.0
 30
0.0
 70
   128
 71
   565
 72
   566
 73
   544
  0
VERTEX
  8
base_support
 62
   254
 10
0.0
 20
0.0
 30
0.0
 70
   128
 71
   564
 72
   565
 73
   543
  0
VERTEX
  8
base_support
 62
   254
 10
0.0
 20
0.0
 30
0.0
 70
   128
 71
   563
 72
   564
 73
   542
  0
VERTEX
  8
base_support
 62
   254
 10
0.0
 20
0.0
 30
0.0
 70
   128
 71
   562
 72
   563
 73
   541
  0
VERTEX
  8
base_support
 62
   254
 10
0.0
 20
0.0
 30
0.0
 70
   128
 71
   561
 72
   562
 73
   540
  0
VERTEX
  8
base_support
 62
   254
 10
0.0
 20
0.0
 30
0.0
 70
   128
 71
   560
 72
   561
 73
   539
  0
VERTEX
  8
base_support
 62
   254
 10
0.0
 20
0.0
 30
0.0
 70
   128
 71
   559
 72
   560
 73
   538
  0
VERTEX
  8
base_support
 62
   254
 10
0.0
 20
0.0
 30
0.0
 70
   128
 71
   558
 72
   559
 73
   537
  0
VERTEX
  8
base_support
 62
   254
 10
0.0
 20
0.0
 30
0.0
 70
   128
 71
   557
 72
   558
 73
   536
  0
VERTEX
  8
base_support
 62
   254
 10
0.0
 20
0.0
 30
0.0
 70
   128
 71
   556
 72
   557
 73
   535
  0
VERTEX
  8
base_support
 62
   254
 10
0.0
 20
0.0
 30
0.0
 70
   128
 71
   555
 72
   556
 73
   534
  0
VERTEX
  8
base_support
 62
   254
 10
0.0
 20
0.0
 30
0.0
 70
   128
 71
   554
 72
   555
 73
   533
  0
VERTEX
  8
base_support
 62
   254
 10
0.0
 20
0.0
 30
0.0
 70
   128
 71
   553
 72
   554
 73
   532
  0
VERTEX
  8
base_support
 62
   254
 10
0.0
 20
0.0
 30
0.0
 70
   128
 71
   552
 72
   553
 73
   531
  0
VERTEX
  8
base_support
 62
   254
 10
0.0
 20
0.0
 30
0.0
 70
   128
 71
   551
 72
   552
 73
   530
  0
VERTEX
  8
base_support
 62
   254
 10
0.0
 20
0.0
 30
0.0
 70
   128
 71
   550
 72
   551
 73
   529
  0
VERTEX
  8
base_support
 62
   254
 10
0.0
 20
0.0
 30
0.0
 70
   128
 71
   549
 72
   550
 73
   528
  0
VERTEX
  8
base_support
 62
   254
 10
0.0
 20
0.0
 30
0.0
 70
   128
 71
   548
 72
   549
 73
   527
  0
VERTEX
  8
base_support
 62
   254
 10
0.0
 20
0.0
 30
0.0
 70
   128
 71
   547
 72
   548
 73
   526
  0
VERTEX
  8
base_support
 62
   254
 10
0.0
 20
0.0
 30
0.0
 70
   128
 71
   546
 72
   547
 73
   525
  0
VERTEX
  8
base_support
 62
   254
 10
0.0
 20
0.0
 30
0.0
 70
   128
 71
   545
 72
   546
 73
   524
  0
VERTEX
  8
base_support
 62
   254
 10
0.0
 20
0.0
 30
0.0
 70
   128
 71
   143
 72
   545
 73
   140
  0
VERTEX
  8
base_support
 62
   254
 10
0.0
 20
0.0
 30
0.0
 70
   128
 71
   140
 72
   545
 73
   524
  0
VERTEX
  8
base_support
 62
   254
 10
0.0
 20
0.0
 30
0.0
 70
   128
 71
   524
 72
   546
 73
   525
  0
VERTEX
  8
base_support
 62
   254
 10
0.0
 20
0.0
 30
0.0
 70
   128
 71
   525
 72
   547
 73
   526
  0
VERTEX
  8
base_support
 62
   254
 10
0.0
 20
0.0
 30
0.0
 70
   128
 71
   526
 72
   548
 73
   527
  0
VERTEX
  8
base_support
 62
   254
 10
0.0
 20
0.0
 30
0.0
 70
   128
 71
   527
 72
   549
 73
   528
  0
VERTEX
  8
base_support
 62
   254
 10
0.0
 20
0.0
 30
0.0
 70
   128
 71
   528
 72
   550
 73
   529
  0
VERTEX
  8
base_support
 62
   254
 10
0.0
 20
0.0
 30
0.0
 70
   128
 71
   529
 72
   551
 73
   530
  0
VERTEX
  8
base_support
 62
   254
 10
0.0
 20
0.0
 30
0.0
 70
   128
 71
   530
 72
   552
 73
   531
  0
VERTEX
  8
base_support
 62
   254
 10
0.0
 20
0.0
 30
0.0
 70
   128
 71
   531
 72
   553
 73
   532
  0
VERTEX
  8
base_support
 62
   254
 10
0.0
 20
0.0
 30
0.0
 70
   128
 71
   532
 72
   554
 73
   533
  0
VERTEX
  8
base_support
 62
   254
 10
0.0
 20
0.0
 30
0.0
 70
   128
 71
   533
 72
   555
 73
   534
  0
VERTEX
  8
base_support
 62
   254
 10
0.0
 20
0.0
 30
0.0
 70
   128
 71
   534
 72
   556
 73
   535
  0
VERTEX
  8
base_support
 62
   254
 10
0.0
 20
0.0
 30
0.0
 70
   128
 71
   535
 72
   557
 73
   536
  0
VERTEX
  8
base_support
 62
   254
 10
0.0
 20
0.0
 30
0.0
 70
   128
 71
   536
 72
   558
 73
   537
  0
VERTEX
  8
base_support
 62
   254
 10
0.0
 20
0.0
 30
0.0
 70
   128
 71
   537
 72
   559
 73
   538
  0
VERTEX
  8
base_support
 62
   254
 10
0.0
 20
0.0
 30
0.0
 70
   128
 71
   538
 72
   560
 73
   539
  0
VERTEX
  8
base_support
 62
   254
 10
0.0
 20
0.0
 30
0.0
 70
   128
 71
   539
 72
   561
 73
   540
  0
VERTEX
  8
base_support
 62
   254
 10
0.0
 20
0.0
 30
0.0
 70
   128
 71
   540
 72
   562
 73
   541
  0
VERTEX
  8
base_support
 62
   254
 10
0.0
 20
0.0
 30
0.0
 70
   128
 71
   541
 72
   563
 73
   542
  0
VERTEX
  8
base_support
 62
   254
 10
0.0
 20
0.0
 30
0.0
 70
   128
 71
   542
 72
   564
 73
   543
  0
VERTEX
  8
base_support
 62
   254
 10
0.0
 20
0.0
 30
0.0
 70
   128
 71
   543
 72
   565
 73
   544
  0
VERTEX
  8
base_support
 62
   254
 10
0.0
 20
0.0
 30
0.0
 70
   128
 71
   544
 72
   566
 73
   139
  0
VERTEX
  8
base_support
 62
   254
 10
0.0
 20
0.0
 30
0.0
 70
   128
 71
   143
 72
   144
 73
   566
  0
VERTEX
  8
base_support
 62
   254
 10
0.0
 20
0.0
 30
0.0
 70
   128
 71
   143
 72
   566
 73
   565
  0
VERTEX
  8
base_support
 62
   254
 10
0.0
 20
0.0
 30
0.0
 70
   128
 71
   143
 72
   565
 73
   564
  0
VERTEX
  8
base_support
 62
   254
 10
0.0
 20
0.0
 30
0.0
 70
   128
 71
   143
 72
   564
 73
   563
  0
VERTEX
  8
base_support
 62
   254
 10
0.0
 20
0.0
 30
0.0
 70
   128
 71
   143
 72
   563
 73
   562
  0
VERTEX
  8
base_support
 62
   254
 10
0.0
 20
0.0
 30
0.0
 70
   128
 71
   143
 72
   562
 73
   561
  0
VERTEX
  8
base_support
 62
   254
 10
0.0
 20
0.0
 30
0.0
 70
   128
 71
   143
 72
   561
 73
   560
  0
VERTEX
  8
base_support
 62
   254
 10
0.0
 20
0.0
 30
0.0
 70
   128
 71
   143
 72
   560
 73
   559
  0
VERTEX
  8
base_support
 62
   254
 10
0.0
 20
0.0
 30
0.0
 70
   128
 71
   143
 72
   559
 73
   558
  0
VERTEX
  8
base_support
 62
   254
 10
0.0
 20
0.0
 30
0.0
 70
   128
 71
   143
 72
   558
 73
   557
  0
VERTEX
  8
base_support
 62
   254
 10
0.0
 20
0.0
 30
0.0
 70
   128
 71
   143
 72
   557
 73
   556
  0
VERTEX
  8
base_support
 62
   254
 10
0.0
 20
0.0
 30
0.0
 70
   128
 71
   143
 72
   556
 73
   555
  0
VERTEX
  8
base_support
 62
   254
 10
0.0
 20
0.0
 30
0.0
 70
   128
 71
   143
 72
   555
 73
   554
  0
VERTEX
  8
base_support
 62
   254
 10
0.0
 20
0.0
 30
0.0
 70
   128
 71
   143
 72
   554
 73
   553
  0
VERTEX
  8
base_support
 62
   254
 10
0.0
 20
0.0
 30
0.0
 70
   128
 71
   143
 72
   553
 73
   552
  0
VERTEX
  8
base_support
 62
   254
 10
0.0
 20
0.0
 30
0.0
 70
   128
 71
   143
 72
   552
 73
   551
  0
VERTEX
  8
base_support
 62
   254
 10
0.0
 20
0.0
 30
0.0
 70
   128
 71
   143
 72
   551
 73
   550
  0
VERTEX
  8
base_support
 62
   254
 10
0.0
 20
0.0
 30
0.0
 70
   128
 71
   143
 72
   550
 73
   549
  0
VERTEX
  8
base_support
 62
   254
 10
0.0
 20
0.0
 30
0.0
 70
   128
 71
   143
 72
   549
 73
   548
  0
VERTEX
  8
base_support
 62
   254
 10
0.0
 20
0.0
 30
0.0
 70
   128
 71
   143
 72
   548
 73
   547
  0
VERTEX
  8
base_support
 62
   254
 10
0.0
 20
0.0
 30
0.0
 70
   128
 71
   143
 72
   547
 73
   546
  0
VERTEX
  8
base_support
 62
   254
 10
0.0
 20
0.0
 30
0.0
 70
   128
 71
   143
 72
   546
 73
   545
  0
VERTEX
  8
base_support
 62
   254
 10
0.0
 20
0.0
 30
0.0
 70
   128
 71
   133
 72
   567
 73
   503
  0
VERTEX
  8
base_support
 62
   254
 10
0.0
 20
0.0
 30
0.0
 70
   128
 71
   503
 72
   568
 73
   504
  0
VERTEX
  8
base_support
 62
   254
 10
0.0
 20
0.0
 30
0.0
 70
   128
 71
   504
 72
   569
 73
   505
  0
VERTEX
  8
base_support
 62
   254
 10
0.0
 20
0.0
 30
0.0
 70
   128
 71
   505
 72
   570
 73
   506
  0
VERTEX
  8
base_support
 62
   254
 10
0.0
 20
0.0
 30
0.0
 70
   128
 71
   506
 72
   571
 73
   507
  0
VERTEX
  8
base_support
 62
   254
 10
0.0
 20
0.0
 30
0.0
 70
   128
 71
   507
 72
   572
 73
   508
  0
VERTEX
  8
base_support
 62
   254
 10
0.0
 20
0.0
 30
0.0
 70
   128
 71
   508
 72
   573
 73
   509
  0
VERTEX
  8
base_support
 62
   254
 10
0.0
 20
0.0
 30
0.0
 70
   128
 71
   509
 72
   574
 73
   510
  0
VERTEX
  8
base_support
 62
   254
 10
0.0
 20
0.0
 30
0.0
 70
   128
 71
   510
 72
   575
 73
   511
  0
VERTEX
  8
base_support
 62
   254
 10
0.0
 20
0.0
 30
0.0
 70
   128
 71
   511
 72
   576
 73
   512
  0
VERTEX
  8
base_support
 62
   254
 10
0.0
 20
0.0
 30
0.0
 70
   128
 71
   512
 72
   577
 73
   513
  0
VERTEX
  8
base_support
 62
   254
 10
0.0
 20
0.0
 30
0.0
 70
   128
 71
   513
 72
   578
 73
   514
  0
VERTEX
  8
base_support
 62
   254
 10
0.0
 20
0.0
 30
0.0
 70
   128
 71
   514
 72
   579
 73
   515
  0
VERTEX
  8
base_support
 62
   254
 10
0.0
 20
0.0
 30
0.0
 70
   128
 71
   515
 72
   580
 73
   516
  0
VERTEX
  8
base_support
 62
   254
 10
0.0
 20
0.0
 30
0.0
 70
   128
 71
   516
 72
   581
 73
   517
  0
VERTEX
  8
base_support
 62
   254
 10
0.0
 20
0.0
 30
0.0
 70
   128
 71
   517
 72
   582
 73
   518
  0
VERTEX
  8
base_support
 62
   254
 10
0.0
 20
0.0
 30
0.0
 70
   128
 71
   518
 72
   583
 73
   519
  0
VERTEX
  8
base_support
 62
   254
 10
0.0
 20
0.0
 30
0.0
 70
   128
 71
   519
 72
   584
 73
   520
  0
VERTEX
  8
base_support
 62
   254
 10
0.0
 20
0.0
 30
0.0
 70
   128
 71
   520
 72
   585
 73
   521
  0
VERTEX
  8
base_support
 62
   254
 10
0.0
 20
0.0
 30
0.0
 70
   128
 71
   521
 72
   586
 73
   522
  0
VERTEX
  8
base_support
 62
   254
 10
0.0
 20
0.0
 30
0.0
 70
   128
 71
   522
 72
   587
 73
   523
  0
VERTEX
  8
base_support
 62
   254
 10
0.0
 20
0.0
 30
0.0
 70
   128
 71
   523
 72
   588
 73
   134
  0
VERTEX
  8
base_support
 62
   254
 10
0.0
 20
0.0
 30
0.0
 70
   128
 71
   145
 72
   134
 73
   588
  0
VERTEX
  8
base_support
 62
   254
 10
0.0
 20
0.0
 30
0.0
 70
   128
 71
   588
 72
   523
 73
   587
  0
VERTEX
  8
base_support
 62
   254
 10
0.0
 20
0.0
 30
0.0
 70
   128
 71
   587
 72
   522
 73
   586
  0
VERTEX
  8
base_support
 62
   254
 10
0.0
 20
0.0
 30
0.0
 70
   128
 71
   586
 72
   521
 73
   585
  0
VERTEX
  8
base_support
 62
   254
 10
0.0
 20
0.0
 30
0.0
 70
   128
 71
   585
 72
   520
 73
   584
  0
VERTEX
  8
base_support
 62
   254
 10
0.0
 20
0.0
 30
0.0
 70
   128
 71
   584
 72
   519
 73
   583
  0
VERTEX
  8
base_support
 62
   254
 10
0.0
 20
0.0
 30
0.0
 70
   128
 71
   583
 72
   518
 73
   582
  0
VERTEX
  8
base_support
 62
   254
 10
0.0
 20
0.0
 30
0.0
 70
   128
 71
   582
 72
   517
 73
   581
  0
VERTEX
  8
base_support
 62
   254
 10
0.0
 20
0.0
 30
0.0
 70
   128
 71
   581
 72
   516
 73
   580
  0
VERTEX
  8
base_support
 62
   254
 10
0.0
 20
0.0
 30
0.0
 70
   128
 71
   580
 72
   515
 73
   579
  0
VERTEX
  8
base_support
 62
   254
 10
0.0
 20
0.0
 30
0.0
 70
   128
 71
   579
 72
   514
 73
   578
  0
VERTEX
  8
base_support
 62
   254
 10
0.0
 20
0.0
 30
0.0
 70
   128
 71
   578
 72
   513
 73
   577
  0
VERTEX
  8
base_support
 62
   254
 10
0.0
 20
0.0
 30
0.0
 70
   128
 71
   577
 72
   512
 73
   576
  0
VERTEX
  8
base_support
 62
   254
 10
0.0
 20
0.0
 30
0.0
 70
   128
 71
   576
 72
   511
 73
   575
  0
VERTEX
  8
base_support
 62
   254
 10
0.0
 20
0.0
 30
0.0
 70
   128
 71
   575
 72
   510
 73
   574
  0
VERTEX
  8
base_support
 62
   254
 10
0.0
 20
0.0
 30
0.0
 70
   128
 71
   574
 72
   509
 73
   573
  0
VERTEX
  8
base_support
 62
   254
 10
0.0
 20
0.0
 30
0.0
 70
   128
 71
   573
 72
   508
 73
   572
  0
VERTEX
  8
base_support
 62
   254
 10
0.0
 20
0.0
 30
0.0
 70
   128
 71
   572
 72
   507
 73
   571
  0
VERTEX
  8
base_support
 62
   254
 10
0.0
 20
0.0
 30
0.0
 70
   128
 71
   571
 72
   506
 73
   570
  0
VERTEX
  8
base_support
 62
   254
 10
0.0
 20
0.0
 30
0.0
 70
   128
 71
   570
 72
   505
 73
   569
  0
VERTEX
  8
base_support
 62
   254
 10
0.0
 20
0.0
 30
0.0
 70
   128
 71
   569
 72
   504
 73
   568
  0
VERTEX
  8
base_support
 62
   254
 10
0.0
 20
0.0
 30
0.0
 70
   128
 71
   568
 72
   503
 73
   567
  0
VERTEX
  8
base_support
 62
   254
 10
0.0
 20
0.0
 30
0.0
 70
   128
 71
   567
 72
   133
 73
   146
  0
VERTEX
  8
base_support
 62
   254
 10
0.0
 20
0.0
 30
0.0
 70
   128
 71
   146
 72
   145
 73
   567
  0
VERTEX
  8
base_support
 62
   254
 10
0.0
 20
0.0
 30
0.0
 70
   128
 71
   567
 72
   145
 73
   568
  0
VERTEX
  8
base_support
 62
   254
 10
0.0
 20
0.0
 30
0.0
 70
   128
 71
   568
 72
   145
 73
   569
  0
VERTEX
  8
base_support
 62
   254
 10
0.0
 20
0.0
 30
0.0
 70
   128
 71
   569
 72
   145
 73
   570
  0
VERTEX
  8
base_support
 62
   254
 10
0.0
 20
0.0
 30
0.0
 70
   128
 71
   570
 72
   145
 73
   571
  0
VERTEX
  8
base_support
 62
   254
 10
0.0
 20
0.0
 30
0.0
 70
   128
 71
   571
 72
   145
 73
   572
  0
VERTEX
  8
base_support
 62
   254
 10
0.0
 20
0.0
 30
0.0
 70
   128
 71
   572
 72
   145
 73
   573
  0
VERTEX
  8
base_support
 62
   254
 10
0.0
 20
0.0
 30
0.0
 70
   128
 71
   573
 72
   145
 73
   574
  0
VERTEX
  8
base_support
 62
   254
 10
0.0
 20
0.0
 30
0.0
 70
   128
 71
   574
 72
   145
 73
   575
  0
VERTEX
  8
base_support
 62
   254
 10
0.0
 20
0.0
 30
0.0
 70
   128
 71
   575
 72
   145
 73
   576
  0
VERTEX
  8
base_support
 62
   254
 10
0.0
 20
0.0
 30
0.0
 70
   128
 71
   576
 72
   145
 73
   577
  0
VERTEX
  8
base_support
 62
   254
 10
0.0
 20
0.0
 30
0.0
 70
   128
 71
   577
 72
   145
 73
   578
  0
VERTEX
  8
base_support
 62
   254
 10
0.0
 20
0.0
 30
0.0
 70
   128
 71
   578
 72
   145
 73
   579
  0
VERTEX
  8
base_support
 62
   254
 10
0.0
 20
0.0
 30
0.0
 70
   128
 71
   579
 72
   145
 73
   580
  0
VERTEX
  8
base_support
 62
   254
 10
0.0
 20
0.0
 30
0.0
 70
   128
 71
   580
 72
   145
 73
   581
  0
VERTEX
  8
base_support
 62
   254
 10
0.0
 20
0.0
 30
0.0
 70
   128
 71
   581
 72
   145
 73
   582
  0
VERTEX
  8
base_support
 62
   254
 10
0.0
 20
0.0
 30
0.0
 70
   128
 71
   582
 72
   145
 73
   583
  0
VERTEX
  8
base_support
 62
   254
 10
0.0
 20
0.0
 30
0.0
 70
   128
 71
   583
 72
   145
 73
   584
  0
VERTEX
  8
base_support
 62
   254
 10
0.0
 20
0.0
 30
0.0
 70
   128
 71
   584
 72
   145
 73
   585
  0
VERTEX
  8
base_support
 62
   254
 10
0.0
 20
0.0
 30
0.0
 70
   128
 71
   585
 72
   145
 73
   586
  0
VERTEX
  8
base_support
 62
   254
 10
0.0
 20
0.0
 30
0.0
 70
   128
 71
   586
 72
   145
 73
   587
  0
VERTEX
  8
base_support
 62
   254
 10
0.0
 20
0.0
 30
0.0
 70
   128
 71
   587
 72
   145
 73
   588
  0
VERTEX
  8
base_support
 62
   254
 10
0.0
 20
0.0
 30
0.0
 70
   128
 71
   623
 72
   147
 73
   485
  0
VERTEX
  8
base_support
 62
   254
 10
0.0
 20
0.0
 30
0.0
 70
   128
 71
   622
 72
   623
 73
   484
  0
VERTEX
  8
base_support
 62
   254
 10
0.0
 20
0.0
 30
0.0
 70
   128
 71
   621
 72
   622
 73
   483
  0
VERTEX
  8
base_support
 62
   254
 10
0.0
 20
0.0
 30
0.0
 70
   128
 71
   620
 72
   621
 73
   482
  0
VERTEX
  8
base_support
 62
   254
 10
0.0
 20
0.0
 30
0.0
 70
   128
 71
   619
 72
   620
 73
   481
  0
VERTEX
  8
base_support
 62
   254
 10
0.0
 20
0.0
 30
0.0
 70
   128
 71
   618
 72
   619
 73
   480
  0
VERTEX
  8
base_support
 62
   254
 10
0.0
 20
0.0
 30
0.0
 70
   128
 71
   617
 72
   618
 73
   479
  0
VERTEX
  8
base_support
 62
   254
 10
0.0
 20
0.0
 30
0.0
 70
   128
 71
   616
 72
   617
 73
   478
  0
VERTEX
  8
base_support
 62
   254
 10
0.0
 20
0.0
 30
0.0
 70
   128
 71
   615
 72
   616
 73
   477
  0
VERTEX
  8
base_support
 62
   254
 10
0.0
 20
0.0
 30
0.0
 70
   128
 71
   614
 72
   615
 73
   476
  0
VERTEX
  8
base_support
 62
   254
 10
0.0
 20
0.0
 30
0.0
 70
   128
 71
   613
 72
   614
 73
   475
  0
VERTEX
  8
base_support
 62
   254
 10
0.0
 20
0.0
 30
0.0
 70
   128
 71
   612
 72
   613
 73
   474
  0
VERTEX
  8
base_support
 62
   254
 10
0.0
 20
0.0
 30
0.0
 70
   128
 71
   611
 72
   612
 73
   473
  0
VERTEX
  8
base_support
 62
   254
 10
0.0
 20
0.0
 30
0.0
 70
   128
 71
   610
 72
   611
 73
   472
  0
VERTEX
  8
base_support
 62
   254
 10
0.0
 20
0.0
 30
0.0
 70
   128
 71
   609
 72
   610
 73
   471
  0
VERTEX
  8
base_support
 62
   254
 10
0.0
 20
0.0
 30
0.0
 70
   128
 71
   608
 72
   609
 73
   470
  0
VERTEX
  8
base_support
 62
   254
 10
0.0
 20
0.0
 30
0.0
 70
   128
 71
   607
 72
   608
 73
   469
  0
VERTEX
  8
base_support
 62
   254
 10
0.0
 20
0.0
 30
0.0
 70
   128
 71
   606
 72
   607
 73
   131
  0
VERTEX
  8
base_support
 62
   254
 10
0.0
 20
0.0
 30
0.0
 70
   128
 71
   605
 72
   606
 73
   502
  0
VERTEX
  8
base_support
 62
   254
 10
0.0
 20
0.0
 30
0.0
 70
   128
 71
   604
 72
   605
 73
   501
  0
VERTEX
  8
base_support
 62
   254
 10
0.0
 20
0.0
 30
0.0
 70
   128
 71
   603
 72
   604
 73
   500
  0
VERTEX
  8
base_support
 62
   254
 10
0.0
 20
0.0
 30
0.0
 70
   128
 71
   602
 72
   603
 73
   499
  0
VERTEX
  8
base_support
 62
   254
 10
0.0
 20
0.0
 30
0.0
 70
   128
 71
   601
 72
   602
 73
   498
  0
VERTEX
  8
base_support
 62
   254
 10
0.0
 20
0.0
 30
0.0
 70
   128
 71
   600
 72
   601
 73
   497
  0
VERTEX
  8
base_support
 62
   254
 10
0.0
 20
0.0
 30
0.0
 70
   128
 71
   599
 72
   600
 73
   496
  0
VERTEX
  8
base_support
 62
   254
 10
0.0
 20
0.0
 30
0.0
 70
   128
 71
   598
 72
   599
 73
   495
  0
VERTEX
  8
base_support
 62
   254
 10
0.0
 20
0.0
 30
0.0
 70
   128
 71
   597
 72
   598
 73
   494
  0
VERTEX
  8
base_support
 62
   254
 10
0.0
 20
0.0
 30
0.0
 70
   128
 71
   596
 72
   597
 73
   493
  0
VERTEX
  8
base_support
 62
   254
 10
0.0
 20
0.0
 30
0.0
 70
   128
 71
   595
 72
   596
 73
   492
  0
VERTEX
  8
base_support
 62
   254
 10
0.0
 20
0.0
 30
0.0
 70
   128
 71
   594
 72
   595
 73
   491
  0
VERTEX
  8
base_support
 62
   254
 10
0.0
 20
0.0
 30
0.0
 70
   128
 71
   593
 72
   594
 73
   490
  0
VERTEX
  8
base_support
 62
   254
 10
0.0
 20
0.0
 30
0.0
 70
   128
 71
   592
 72
   593
 73
   489
  0
VERTEX
  8
base_support
 62
   254
 10
0.0
 20
0.0
 30
0.0
 70
   128
 71
   591
 72
   592
 73
   488
  0
VERTEX
  8
base_support
 62
   254
 10
0.0
 20
0.0
 30
0.0
 70
   128
 71
   590
 72
   591
 73
   487
  0
VERTEX
  8
base_support
 62
   254
 10
0.0
 20
0.0
 30
0.0
 70
   128
 71
   589
 72
   590
 73
   486
  0
VERTEX
  8
base_support
 62
   254
 10
0.0
 20
0.0
 30
0.0
 70
   128
 71
   147
 72
   589
 73
   132
  0
VERTEX
  8
base_support
 62
   254
 10
0.0
 20
0.0
 30
0.0
 70
   128
 71
   132
 72
   589
 73
   486
  0
VERTEX
  8
base_support
 62
   254
 10
0.0
 20
0.0
 30
0.0
 70
   128
 71
   486
 72
   590
 73
   487
  0
VERTEX
  8
base_support
 62
   254
 10
0.0
 20
0.0
 30
0.0
 70
   128
 71
   487
 72
   591
 73
   488
  0
VERTEX
  8
base_support
 62
   254
 10
0.0
 20
0.0
 30
0.0
 70
   128
 71
   488
 72
   592
 73
   489
  0
VERTEX
  8
base_support
 62
   254
 10
0.0
 20
0.0
 30
0.0
 70
   128
 71
   489
 72
   593
 73
   490
  0
VERTEX
  8
base_support
 62
   254
 10
0.0
 20
0.0
 30
0.0
 70
   128
 71
   490
 72
   594
 73
   491
  0
VERTEX
  8
base_support
 62
   254
 10
0.0
 20
0.0
 30
0.0
 70
   128
 71
   491
 72
   595
 73
   492
  0
VERTEX
  8
base_support
 62
   254
 10
0.0
 20
0.0
 30
0.0
 70
   128
 71
   492
 72
   596
 73
   493
  0
VERTEX
  8
base_support
 62
   254
 10
0.0
 20
0.0
 30
0.0
 70
   128
 71
   493
 72
   597
 73
   494
  0
VERTEX
  8
base_support
 62
   254
 10
0.0
 20
0.0
 30
0.0
 70
   128
 71
   494
 72
   598
 73
   495
  0
VERTEX
  8
base_support
 62
   254
 10
0.0
 20
0.0
 30
0.0
 70
   128
 71
   495
 72
   599
 73
   496
  0
VERTEX
  8
base_support
 62
   254
 10
0.0
 20
0.0
 30
0.0
 70
   128
 71
   496
 72
   600
 73
   497
  0
VERTEX
  8
base_support
 62
   254
 10
0.0
 20
0.0
 30
0.0
 70
   128
 71
   497
 72
   601
 73
   498
  0
VERTEX
  8
base_support
 62
   254
 10
0.0
 20
0.0
 30
0.0
 70
   128
 71
   498
 72
   602
 73
   499
  0
VERTEX
  8
base_support
 62
   254
 10
0.0
 20
0.0
 30
0.0
 70
   128
 71
   499
 72
   603
 73
   500
  0
VERTEX
  8
base_support
 62
   254
 10
0.0
 20
0.0
 30
0.0
 70
   128
 71
   500
 72
   604
 73
   501
  0
VERTEX
  8
base_support
 62
   254
 10
0.0
 20
0.0
 30
0.0
 70
   128
 71
   501
 72
   605
 73
   502
  0
VERTEX
  8
base_support
 62
   254
 10
0.0
 20
0.0
 30
0.0
 70
   128
 71
   502
 72
   606
 73
   131
  0
VERTEX
  8
base_support
 62
   254
 10
0.0
 20
0.0
 30
0.0
 70
   128
 71
   131
 72
   607
 73
   469
  0
VERTEX
  8
base_support
 62
   254
 10
0.0
 20
0.0
 30
0.0
 70
   128
 71
   469
 72
   608
 73
   470
  0
VERTEX
  8
base_support
 62
   254
 10
0.0
 20
0.0
 30
0.0
 70
   128
 71
   470
 72
   609
 73
   471
  0
VERTEX
  8
base_support
 62
   254
 10
0.0
 20
0.0
 30
0.0
 70
   128
 71
   471
 72
   610
 73
   472
  0
VERTEX
  8
base_support
 62
   254
 10
0.0
 20
0.0
 30
0.0
 70
   128
 71
   472
 72
   611
 73
   473
  0
VERTEX
  8
base_support
 62
   254
 10
0.0
 20
0.0
 30
0.0
 70
   128
 71
   473
 72
   612
 73
   474
  0
VERTEX
  8
base_support
 62
   254
 10
0.0
 20
0.0
 30
0.0
 70
   128
 71
   474
 72
   613
 73
   475
  0
VERTEX
  8
base_support
 62
   254
 10
0.0
 20
0.0
 30
0.0
 70
   128
 71
   475
 72
   614
 73
   476
  0
VERTEX
  8
base_support
 62
   254
 10
0.0
 20
0.0
 30
0.0
 70
   128
 71
   476
 72
   615
 73
   477
  0
VERTEX
  8
base_support
 62
   254
 10
0.0
 20
0.0
 30
0.0
 70
   128
 71
   477
 72
   616
 73
   478
  0
VERTEX
  8
base_support
 62
   254
 10
0.0
 20
0.0
 30
0.0
 70
   128
 71
   478
 72
   617
 73
   479
  0
VERTEX
  8
base_support
 62
   254
 10
0.0
 20
0.0
 30
0.0
 70
   128
 71
   479
 72
   618
 73
   480
  0
VERTEX
  8
base_support
 62
   254
 10
0.0
 20
0.0
 30
0.0
 70
   128
 71
   480
 72
   619
 73
   481
  0
VERTEX
  8
base_support
 62
   254
 10
0.0
 20
0.0
 30
0.0
 70
   128
 71
   481
 72
   620
 73
   482
  0
VERTEX
  8
base_support
 62
   254
 10
0.0
 20
0.0
 30
0.0
 70
   128
 71
   482
 72
   621
 73
   483
  0
VERTEX
  8
base_support
 62
   254
 10
0.0
 20
0.0
 30
0.0
 70
   128
 71
   483
 72
   622
 73
   484
  0
VERTEX
  8
base_support
 62
   254
 10
0.0
 20
0.0
 30
0.0
 70
   128
 71
   484
 72
   623
 73
   485
  0
VERTEX
  8
base_support
 62
   254
 10
0.0
 20
0.0
 30
0.0
 70
   128
 71
   485
 72
   147
 73
   132
  0
VERTEX
  8
base_support
 62
   254
 10
0.0
 20
0.0
 30
0.0
 70
   128
 71
   589
 72
   147
 73
   590
  0
VERTEX
  8
base_support
 62
   254
 10
0.0
 20
0.0
 30
0.0
 70
   128
 71
   590
 72
   147
 73
   591
  0
VERTEX
  8
base_support
 62
   254
 10
0.0
 20
0.0
 30
0.0
 70
   128
 71
   591
 72
   147
 73
   592
  0
VERTEX
  8
base_support
 62
   254
 10
0.0
 20
0.0
 30
0.0
 70
   128
 71
   592
 72
   147
 73
   593
  0
VERTEX
  8
base_support
 62
   254
 10
0.0
 20
0.0
 30
0.0
 70
   128
 71
   593
 72
   147
 73
   594
  0
VERTEX
  8
base_support
 62
   254
 10
0.0
 20
0.0
 30
0.0
 70
   128
 71
   594
 72
   147
 73
   595
  0
VERTEX
  8
base_support
 62
   254
 10
0.0
 20
0.0
 30
0.0
 70
   128
 71
   595
 72
   147
 73
   596
  0
VERTEX
  8
base_support
 62
   254
 10
0.0
 20
0.0
 30
0.0
 70
   128
 71
   596
 72
   147
 73
   597
  0
VERTEX
  8
base_support
 62
   254
 10
0.0
 20
0.0
 30
0.0
 70
   128
 71
   597
 72
   147
 73
   598
  0
VERTEX
  8
base_support
 62
   254
 10
0.0
 20
0.0
 30
0.0
 70
   128
 71
   598
 72
   147
 73
   599
  0
VERTEX
  8
base_support
 62
   254
 10
0.0
 20
0.0
 30
0.0
 70
   128
 71
   599
 72
   147
 73
   600
  0
VERTEX
  8
base_support
 62
   254
 10
0.0
 20
0.0
 30
0.0
 70
   128
 71
   600
 72
   147
 73
   601
  0
VERTEX
  8
base_support
 62
   254
 10
0.0
 20
0.0
 30
0.0
 70
   128
 71
   601
 72
   147
 73
   602
  0
VERTEX
  8
base_support
 62
   254
 10
0.0
 20
0.0
 30
0.0
 70
   128
 71
   602
 72
   147
 73
   603
  0
VERTEX
  8
base_support
 62
   254
 10
0.0
 20
0.0
 30
0.0
 70
   128
 71
   603
 72
   147
 73
   604
  0
VERTEX
  8
base_support
 62
   254
 10
0.0
 20
0.0
 30
0.0
 70
   128
 71
   604
 72
   147
 73
   605
  0
VERTEX
  8
base_support
 62
   254
 10
0.0
 20
0.0
 30
0.0
 70
   128
 71
   605
 72
   147
 73
   606
  0
VERTEX
  8
base_support
 62
   254
 10
0.0
 20
0.0
 30
0.0
 70
   128
 71
   606
 72
   147
 73
   607
  0
VERTEX
  8
base_support
 62
   254
 10
0.0
 20
0.0
 30
0.0
 70
   128
 71
   607
 72
   147
 73
   608
  0
VERTEX
  8
base_support
 62
   254
 10
0.0
 20
0.0
 30
0.0
 70
   128
 71
   608
 72
   147
 73
   609
  0
VERTEX
  8
base_support
 62
   254
 10
0.0
 20
0.0
 30
0.0
 70
   128
 71
   609
 72
   147
 73
   610
  0
VERTEX
  8
base_support
 62
   254
 10
0.0
 20
0.0
 30
0.0
 70
   128
 71
   610
 72
   147
 73
   611
  0
VERTEX
  8
base_support
 62
   254
 10
0.0
 20
0.0
 30
0.0
 70
   128
 71
   611
 72
   147
 73
   612
  0
VERTEX
  8
base_support
 62
   254
 10
0.0
 20
0.0
 30
0.0
 70
   128
 71
   612
 72
   147
 73
   613
  0
VERTEX
  8
base_support
 62
   254
 10
0.0
 20
0.0
 30
0.0
 70
   128
 71
   613
 72
   147
 73
   614
  0
VERTEX
  8
base_support
 62
   254
 10
0.0
 20
0.0
 30
0.0
 70
   128
 71
   614
 72
   147
 73
   615
  0
VERTEX
  8
base_support
 62
   254
 10
0.0
 20
0.0
 30
0.0
 70
   128
 71
   615
 72
   147
 73
   616
  0
VERTEX
  8
base_support
 62
   254
 10
0.0
 20
0.0
 30
0.0
 70
   128
 71
   616
 72
   147
 73
   617
  0
VERTEX
  8
base_support
 62
   254
 10
0.0
 20
0.0
 30
0.0
 70
   128
 71
   617
 72
   147
 73
   618
  0
VERTEX
  8
base_support
 62
   254
 10
0.0
 20
0.0
 30
0.0
 70
   128
 71
   618
 72
   147
 73
   619
  0
VERTEX
  8
base_support
 62
   254
 10
0.0
 20
0.0
 30
0.0
 70
   128
 71
   619
 72
   147
 73
   620
  0
VERTEX
  8
base_support
 62
   254
 10
0.0
 20
0.0
 30
0.0
 70
   128
 71
   620
 72
   147
 73
   621
  0
VERTEX
  8
base_support
 62
   254
 10
0.0
 20
0.0
 30
0.0
 70
   128
 71
   621
 72
   147
 73
   622
  0
VERTEX
  8
base_support
 62
   254
 10
0.0
 20
0.0
 30
0.0
 70
   128
 71
   622
 72
   147
 73
   623
  0
VERTEX
  8
base_support
 62
   254
 10
0.0
 20
0.0
 30
0.0
 70
   128
 71
   658
 72
   148
 73
   468
  0
VERTEX
  8
base_support
 62
   254
 10
0.0
 20
0.0
 30
0.0
 70
   128
 71
   657
 72
   658
 73
   467
  0
VERTEX
  8
base_support
 62
   254
 10
0.0
 20
0.0
 30
0.0
 70
   128
 71
   656
 72
   657
 73
   466
  0
VERTEX
  8
base_support
 62
   254
 10
0.0
 20
0.0
 30
0.0
 70
   128
 71
   655
 72
   656
 73
   465
  0
VERTEX
  8
base_support
 62
   254
 10
0.0
 20
0.0
 30
0.0
 70
   128
 71
   654
 72
   655
 73
   464
  0
VERTEX
  8
base_support
 62
   254
 10
0.0
 20
0.0
 30
0.0
 70
   128
 71
   653
 72
   654
 73
   463
  0
VERTEX
  8
base_support
 62
   254
 10
0.0
 20
0.0
 30
0.0
 70
   128
 71
   652
 72
   653
 73
   462
  0
VERTEX
  8
base_support
 62
   254
 10
0.0
 20
0.0
 30
0.0
 70
   128
 71
   651
 72
   652
 73
   461
  0
VERTEX
  8
base_support
 62
   254
 10
0.0
 20
0.0
 30
0.0
 70
   128
 71
   650
 72
   651
 73
   460
  0
VERTEX
  8
base_support
 62
   254
 10
0.0
 20
0.0
 30
0.0
 70
   128
 71
   649
 72
   650
 73
   459
  0
VERTEX
  8
base_support
 62
   254
 10
0.0
 20
0.0
 30
0.0
 70
   128
 71
   648
 72
   649
 73
   458
  0
VERTEX
  8
base_support
 62
   254
 10
0.0
 20
0.0
 30
0.0
 70
   128
 71
   647
 72
   648
 73
   457
  0
VERTEX
  8
base_support
 62
   254
 10
0.0
 20
0.0
 30
0.0
 70
   128
 71
   646
 72
   647
 73
   456
  0
VERTEX
  8
base_support
 62
   254
 10
0.0
 20
0.0
 30
0.0
 70
   128
 71
   645
 72
   646
 73
   455
  0
VERTEX
  8
base_support
 62
   254
 10
0.0
 20
0.0
 30
0.0
 70
   128
 71
   644
 72
   645
 73
   454
  0
VERTEX
  8
base_support
 62
   254
 10
0.0
 20
0.0
 30
0.0
 70
   128
 71
   643
 72
   644
 73
   453
  0
VERTEX
  8
base_support
 62
   254
 10
0.0
 20
0.0
 30
0.0
 70
   128
 71
   642
 72
   643
 73
   452
  0
VERTEX
  8
base_support
 62
   254
 10
0.0
 20
0.0
 30
0.0
 70
   128
 71
   641
 72
   642
 73
   451
  0
VERTEX
  8
base_support
 62
   254
 10
0.0
 20
0.0
 30
0.0
 70
   128
 71
   640
 72
   641
 73
   450
  0
VERTEX
  8
base_support
 62
   254
 10
0.0
 20
0.0
 30
0.0
 70
   128
 71
   639
 72
   640
 73
   449
  0
VERTEX
  8
base_support
 62
   254
 10
0.0
 20
0.0
 30
0.0
 70
   128
 71
   638
 72
   639
 73
   448
  0
VERTEX
  8
base_support
 62
   254
 10
0.0
 20
0.0
 30
0.0
 70
   128
 71
   637
 72
   638
 73
   447
  0
VERTEX
  8
base_support
 62
   254
 10
0.0
 20
0.0
 30
0.0
 70
   128
 71
   636
 72
   637
 73
   446
  0
VERTEX
  8
base_support
 62
   254
 10
0.0
 20
0.0
 30
0.0
 70
   128
 71
   635
 72
   636
 73
   445
  0
VERTEX
  8
base_support
 62
   254
 10
0.0
 20
0.0
 30
0.0
 70
   128
 71
   634
 72
   635
 73
   444
  0
VERTEX
  8
base_support
 62
   254
 10
0.0
 20
0.0
 30
0.0
 70
   128
 71
   633
 72
   634
 73
   443
  0
VERTEX
  8
base_support
 62
   254
 10
0.0
 20
0.0
 30
0.0
 70
   128
 71
   632
 72
   633
 73
   442
  0
VERTEX
  8
base_support
 62
   254
 10
0.0
 20
0.0
 30
0.0
 70
   128
 71
   631
 72
   632
 73
   441
  0
VERTEX
  8
base_support
 62
   254
 10
0.0
 20
0.0
 30
0.0
 70
   128
 71
   630
 72
   631
 73
   440
  0
VERTEX
  8
base_support
 62
   254
 10
0.0
 20
0.0
 30
0.0
 70
   128
 71
   629
 72
   630
 73
   439
  0
VERTEX
  8
base_support
 62
   254
 10
0.0
 20
0.0
 30
0.0
 70
   128
 71
   628
 72
   629
 73
   438
  0
VERTEX
  8
base_support
 62
   254
 10
0.0
 20
0.0
 30
0.0
 70
   128
 71
   627
 72
   628
 73
   437
  0
VERTEX
  8
base_support
 62
   254
 10
0.0
 20
0.0
 30
0.0
 70
   128
 71
   626
 72
   627
 73
   436
  0
VERTEX
  8
base_support
 62
   254
 10
0.0
 20
0.0
 30
0.0
 70
   128
 71
   625
 72
   626
 73
   435
  0
VERTEX
  8
base_support
 62
   254
 10
0.0
 20
0.0
 30
0.0
 70
   128
 71
   624
 72
   625
 73
   434
  0
VERTEX
  8
base_support
 62
   254
 10
0.0
 20
0.0
 30
0.0
 70
   128
 71
   148
 72
   624
 73
   130
  0
VERTEX
  8
base_support
 62
   254
 10
0.0
 20
0.0
 30
0.0
 70
   128
 71
   130
 72
   624
 73
   434
  0
VERTEX
  8
base_support
 62
   254
 10
0.0
 20
0.0
 30
0.0
 70
   128
 71
   434
 72
   625
 73
   435
  0
VERTEX
  8
base_support
 62
   254
 10
0.0
 20
0.0
 30
0.0
 70
   128
 71
   435
 72
   626
 73
   436
  0
VERTEX
  8
base_support
 62
   254
 10
0.0
 20
0.0
 30
0.0
 70
   128
 71
   436
 72
   627
 73
   437
  0
VERTEX
  8
base_support
 62
   254
 10
0.0
 20
0.0
 30
0.0
 70
   128
 71
   437
 72
   628
 73
   438
  0
VERTEX
  8
base_support
 62
   254
 10
0.0
 20
0.0
 30
0.0
 70
   128
 71
   438
 72
   629
 73
   439
  0
VERTEX
  8
base_support
 62
   254
 10
0.0
 20
0.0
 30
0.0
 70
   128
 71
   439
 72
   630
 73
   440
  0
VERTEX
  8
base_support
 62
   254
 10
0.0
 20
0.0
 30
0.0
 70
   128
 71
   440
 72
   631
 73
   441
  0
VERTEX
  8
base_support
 62
   254
 10
0.0
 20
0.0
 30
0.0
 70
   128
 71
   441
 72
   632
 73
   442
  0
VERTEX
  8
base_support
 62
   254
 10
0.0
 20
0.0
 30
0.0
 70
   128
 71
   442
 72
   633
 73
   443
  0
VERTEX
  8
base_support
 62
   254
 10
0.0
 20
0.0
 30
0.0
 70
   128
 71
   443
 72
   634
 73
   444
  0
VERTEX
  8
base_support
 62
   254
 10
0.0
 20
0.0
 30
0.0
 70
   128
 71
   444
 72
   635
 73
   445
  0
VERTEX
  8
base_support
 62
   254
 10
0.0
 20
0.0
 30
0.0
 70
   128
 71
   445
 72
   636
 73
   446
  0
VERTEX
  8
base_support
 62
   254
 10
0.0
 20
0.0
 30
0.0
 70
   128
 71
   446
 72
   637
 73
   447
  0
VERTEX
  8
base_support
 62
   254
 10
0.0
 20
0.0
 30
0.0
 70
   128
 71
   447
 72
   638
 73
   448
  0
VERTEX
  8
base_support
 62
   254
 10
0.0
 20
0.0
 30
0.0
 70
   128
 71
   448
 72
   639
 73
   449
  0
VERTEX
  8
base_support
 62
   254
 10
0.0
 20
0.0
 30
0.0
 70
   128
 71
   449
 72
   640
 73
   450
  0
VERTEX
  8
base_support
 62
   254
 10
0.0
 20
0.0
 30
0.0
 70
   128
 71
   450
 72
   641
 73
   451
  0
VERTEX
  8
base_support
 62
   254
 10
0.0
 20
0.0
 30
0.0
 70
   128
 71
   451
 72
   642
 73
   452
  0
VERTEX
  8
base_support
 62
   254
 10
0.0
 20
0.0
 30
0.0
 70
   128
 71
   452
 72
   643
 73
   453
  0
VERTEX
  8
base_support
 62
   254
 10
0.0
 20
0.0
 30
0.0
 70
   128
 71
   453
 72
   644
 73
   454
  0
VERTEX
  8
base_support
 62
   254
 10
0.0
 20
0.0
 30
0.0
 70
   128
 71
   454
 72
   645
 73
   455
  0
VERTEX
  8
base_support
 62
   254
 10
0.0
 20
0.0
 30
0.0
 70
   128
 71
   455
 72
   646
 73
   456
  0
VERTEX
  8
base_support
 62
   254
 10
0.0
 20
0.0
 30
0.0
 70
   128
 71
   456
 72
   647
 73
   457
  0
VERTEX
  8
base_support
 62
   254
 10
0.0
 20
0.0
 30
0.0
 70
   128
 71
   457
 72
   648
 73
   458
  0
VERTEX
  8
base_support
 62
   254
 10
0.0
 20
0.0
 30
0.0
 70
   128
 71
   458
 72
   649
 73
   459
  0
VERTEX
  8
base_support
 62
   254
 10
0.0
 20
0.0
 30
0.0
 70
   128
 71
   459
 72
   650
 73
   460
  0
VERTEX
  8
base_support
 62
   254
 10
0.0
 20
0.0
 30
0.0
 70
   128
 71
   460
 72
   651
 73
   461
  0
VERTEX
  8
base_support
 62
   254
 10
0.0
 20
0.0
 30
0.0
 70
   128
 71
   461
 72
   652
 73
   462
  0
VERTEX
  8
base_support
 62
   254
 10
0.0
 20
0.0
 30
0.0
 70
   128
 71
   462
 72
   653
 73
   463
  0
VERTEX
  8
base_support
 62
   254
 10
0.0
 20
0.0
 30
0.0
 70
   128
 71
   463
 72
   654
 73
   464
  0
VERTEX
  8
base_support
 62
   254
 10
0.0
 20
0.0
 30
0.0
 70
   128
 71
   464
 72
   655
 73
   465
  0
VERTEX
  8
base_support
 62
   254
 10
0.0
 20
0.0
 30
0.0
 70
   128
 71
   465
 72
   656
 73
   466
  0
VERTEX
  8
base_support
 62
   254
 10
0.0
 20
0.0
 30
0.0
 70
   128
 71
   466
 72
   657
 73
   467
  0
VERTEX
  8
base_support
 62
   254
 10
0.0
 20
0.0
 30
0.0
 70
   128
 71
   467
 72
   658
 73
   468
  0
VERTEX
  8
base_support
 62
   254
 10
0.0
 20
0.0
 30
0.0
 70
   128
 71
   468
 72
   148
 73
   130
  0
VERTEX
  8
base_support
 62
   254
 10
0.0
 20
0.0
 30
0.0
 70
   128
 71
   148
 72
   658
 73
   657
  0
VERTEX
  8
base_support
 62
   254
 10
0.0
 20
0.0
 30
0.0
 70
   128
 71
   148
 72
   657
 73
   656
  0
VERTEX
  8
base_support
 62
   254
 10
0.0
 20
0.0
 30
0.0
 70
   128
 71
   148
 72
   656
 73
   655
  0
VERTEX
  8
base_support
 62
   254
 10
0.0
 20
0.0
 30
0.0
 70
   128
 71
   148
 72
   655
 73
   654
  0
VERTEX
  8
base_support
 62
   254
 10
0.0
 20
0.0
 30
0.0
 70
   128
 71
   148
 72
   654
 73
   653
  0
VERTEX
  8
base_support
 62
   254
 10
0.0
 20
0.0
 30
0.0
 70
   128
 71
   148
 72
   653
 73
   652
  0
VERTEX
  8
base_support
 62
   254
 10
0.0
 20
0.0
 30
0.0
 70
   128
 71
   148
 72
   652
 73
   651
  0
VERTEX
  8
base_support
 62
   254
 10
0.0
 20
0.0
 30
0.0
 70
   128
 71
   148
 72
   651
 73
   650
  0
VERTEX
  8
base_support
 62
   254
 10
0.0
 20
0.0
 30
0.0
 70
   128
 71
   148
 72
   650
 73
   649
  0
VERTEX
  8
base_support
 62
   254
 10
0.0
 20
0.0
 30
0.0
 70
   128
 71
   148
 72
   649
 73
   648
  0
VERTEX
  8
base_support
 62
   254
 10
0.0
 20
0.0
 30
0.0
 70
   128
 71
   148
 72
   648
 73
   647
  0
VERTEX
  8
base_support
 62
   254
 10
0.0
 20
0.0
 30
0.0
 70
   128
 71
   148
 72
   647
 73
   646
  0
VERTEX
  8
base_support
 62
   254
 10
0.0
 20
0.0
 30
0.0
 70
   128
 71
   148
 72
   646
 73
   645
  0
VERTEX
  8
base_support
 62
   254
 10
0.0
 20
0.0
 30
0.0
 70
   128
 71
   148
 72
   645
 73
   644
  0
VERTEX
  8
base_support
 62
   254
 10
0.0
 20
0.0
 30
0.0
 70
   128
 71
   148
 72
   644
 73
   643
  0
VERTEX
  8
base_support
 62
   254
 10
0.0
 20
0.0
 30
0.0
 70
   128
 71
   148
 72
   643
 73
   642
  0
VERTEX
  8
base_support
 62
   254
 10
0.0
 20
0.0
 30
0.0
 70
   128
 71
   148
 72
   642
 73
   641
  0
VERTEX
  8
base_support
 62
   254
 10
0.0
 20
0.0
 30
0.0
 70
   128
 71
   148
 72
   641
 73
   640
  0
VERTEX
  8
base_support
 62
   254
 10
0.0
 20
0.0
 30
0.0
 70
   128
 71
   148
 72
   640
 73
   639
  0
VERTEX
  8
base_support
 62
   254
 10
0.0
 20
0.0
 30
0.0
 70
   128
 71
   148
 72
   639
 73
   638
  0
VERTEX
  8
base_support
 62
   254
 10
0.0
 20
0.0
 30
0.0
 70
   128
 71
   148
 72
   638
 73
   637
  0
VERTEX
  8
base_support
 62
   254
 10
0.0
 20
0.0
 30
0.0
 70
   128
 71
   148
 72
   637
 73
   636
  0
VERTEX
  8
base_support
 62
   254
 10
0.0
 20
0.0
 30
0.0
 70
   128
 71
   148
 72
   636
 73
   635
  0
VERTEX
  8
base_support
 62
   254
 10
0.0
 20
0.0
 30
0.0
 70
   128
 71
   148
 72
   635
 73
   634
  0
VERTEX
  8
base_support
 62
   254
 10
0.0
 20
0.0
 30
0.0
 70
   128
 71
   148
 72
   634
 73
   633
  0
VERTEX
  8
base_support
 62
   254
 10
0.0
 20
0.0
 30
0.0
 70
   128
 71
   148
 72
   633
 73
   632
  0
VERTEX
  8
base_support
 62
   254
 10
0.0
 20
0.0
 30
0.0
 70
   128
 71
   148
 72
   632
 73
   631
  0
VERTEX
  8
base_support
 62
   254
 10
0.0
 20
0.0
 30
0.0
 70
   128
 71
   148
 72
   631
 73
   630
  0
VERTEX
  8
base_support
 62
   254
 10
0.0
 20
0.0
 30
0.0
 70
   128
 71
   148
 72
   630
 73
   629
  0
VERTEX
  8
base_support
 62
   254
 10
0.0
 20
0.0
 30
0.0
 70
   128
 71
   148
 72
   629
 73
   628
  0
VERTEX
  8
base_support
 62
   254
 10
0.0
 20
0.0
 30
0.0
 70
   128
 71
   148
 72
   628
 73
   627
  0
VERTEX
  8
base_support
 62
   254
 10
0.0
 20
0.0
 30
0.0
 70
   128
 71
   148
 72
   627
 73
   626
  0
VERTEX
  8
base_support
 62
   254
 10
0.0
 20
0.0
 30
0.0
 70
   128
 71
   148
 72
   626
 73
   625
  0
VERTEX
  8
base_support
 62
   254
 10
0.0
 20
0.0
 30
0.0
 70
   128
 71
   148
 72
   625
 73
   624
  0
VERTEX
  8
base_support
 62
   254
 10
0.0
 20
0.0
 30
0.0
 70
   128
 71
   77
 72
   149
 73
   97
  0
VERTEX
  8
base_support
 62
   254
 10
0.0
 20
0.0
 30
0.0
 70
   128
 71
   149
 72
   142
 73
   134
  0
VERTEX
  8
base_support
 62
   254
 10
0.0
 20
0.0
 30
0.0
 70
   128
 71
   146
 72
   134
 73
   145
  0
VERTEX
  8
base_support
 62
   254
 10
0.0
 20
0.0
 30
0.0
 70
   128
 71
   149
 72
   134
 73
   133
  0
VERTEX
  8
base_support
 62
   254
 10
0.0
 20
0.0
 30
0.0
 70
   128
 71
   134
 72
   146
 73
   133
  0
VERTEX
  8
base_support
 62
   254
 10
0.0
 20
0.0
 30
0.0
 70
   128
 71
   149
 72
   133
 73
   97
  0
VERTEX
  8
base_support
 62
   254
 10
0.0
 20
0.0
 30
0.0
 70
   128
 71
   149
 72
   77
 73
   12
  0
VERTEX
  8
base_support
 62
   254
 10
0.0
 20
0.0
 30
0.0
 70
   128
 71
   54
 72
   149
 73
   12
  0
VERTEX
  8
base_support
 62
   254
 10
0.0
 20
0.0
 30
0.0
 70
   128
 71
   77
 72
   14
 73
   12
  0
VERTEX
  8
base_support
 62
   254
 10
0.0
 20
0.0
 30
0.0
 70
   128
 71
   139
 72
   144
 73
   143
  0
VERTEX
  8
base_support
 62
   254
 10
0.0
 20
0.0
 30
0.0
 70
   128
 71
   78
 72
   138
 73
   150
  0
VERTEX
  8
base_support
 62
   254
 10
0.0
 20
0.0
 30
0.0
 70
   128
 71
   138
 72
   139
 73
   150
  0
VERTEX
  8
base_support
 62
   254
 10
0.0
 20
0.0
 30
0.0
 70
   128
 71
   139
 72
   143
 73
   140
  0
VERTEX
  8
base_support
 62
   254
 10
0.0
 20
0.0
 30
0.0
 70
   128
 71
   139
 72
   140
 73
   150
  0
VERTEX
  8
base_support
 62
   254
 10
0.0
 20
0.0
 30
0.0
 70
   128
 71
   140
 72
   141
 73
   150
  0
VERTEX
  8
base_support
 62
   254
 10
0.0
 20
0.0
 30
0.0
 70
   128
 71
   78
 72
   150
 73
   11
  0
VERTEX
  8
base_support
 62
   254
 10
0.0
 20
0.0
 30
0.0
 70
   128
 71
   150
 72
   55
 73
   11
  0
VERTEX
  8
base_support
 62
   254
 10
0.0
 20
0.0
 30
0.0
 70
   128
 71
   78
 72
   11
 73
   13
  0
VERTEX
  8
base_support
 62
   254
 10
0.0
 20
0.0
 30
0.0
 70
   128
 71
   150
 72
   149
 73
   54
  0
VERTEX
  8
base_support
 62
   254
 10
0.0
 20
0.0
 30
0.0
 70
   128
 71
   150
 72
   54
 73
   55
  0
VERTEX
  8
base_support
 62
   254
 10
0.0
 20
0.0
 30
0.0
 70
   128
 71
   149
 72
   141
 73
   142
  0
VERTEX
  8
base_support
 62
   254
 10
0.0
 20
0.0
 30
0.0
 70
   128
 71
   141
 72
   149
 73
   150
  0
VERTEX
  8
base_support
 62
   254
 10
0.0
 20
0.0
 30
0.0
 70
   128
 71
   59
 72
   60
 73
   95
  0
VERTEX
  8
base_support
 62
   254
 10
0.0
 20
0.0
 30
0.0
 70
   128
 71
   95
 72
   60
 73
   151
  0
VERTEX
  8
base_support
 62
   254
 10
0.0
 20
0.0
 30
0.0
 70
   128
 71
   60
 72
   61
 73
   151
  0
VERTEX
  8
base_support
 62
   254
 10
0.0
 20
0.0
 30
0.0
 70
   128
 71
   151
 72
   61
 73
   152
  0
VERTEX
  8
base_support
 62
   254
 10
0.0
 20
0.0
 30
0.0
 70
   128
 71
   61
 72
   62
 73
   152
  0
VERTEX
  8
base_support
 62
   254
 10
0.0
 20
0.0
 30
0.0
 70
   128
 71
   152
 72
   62
 73
   94
  0
VERTEX
  8
base_support
 62
   254
 10
0.0
 20
0.0
 30
0.0
 70
   128
 71
   95
 72
   151
 73
   94
  0
VERTEX
  8
base_support
 62
   254
 10
0.0
 20
0.0
 30
0.0
 70
   128
 71
   94
 72
   151
 73
   152
  0
VERTEX
  8
base_support
 62
   254
 10
0.0
 20
0.0
 30
0.0
 70
   128
 71
   65
 72
   154
 73
   153
  0
VERTEX
  8
base_support
 62
   254
 10
0.0
 20
0.0
 30
0.0
 70
   128
 71
   65
 72
   153
 73
   64
  0
VERTEX
  8
base_support
 62
   254
 10
0.0
 20
0.0
 30
0.0
 70
   128
 71
   66
 72
   92
 73
   154
  0
VERTEX
  8
base_support
 62
   254
 10
0.0
 20
0.0
 30
0.0
 70
   128
 71
   66
 72
   154
 73
   65
  0
VERTEX
  8
base_support
 62
   254
 10
0.0
 20
0.0
 30
0.0
 70
   128
 71
   64
 72
   153
 73
   93
  0
VERTEX
  8
base_support
 62
   254
 10
0.0
 20
0.0
 30
0.0
 70
   128
 71
   64
 72
   93
 73
   63
  0
VERTEX
  8
base_support
 62
   254
 10
0.0
 20
0.0
 30
0.0
 70
   128
 71
   153
 72
   154
 73
   93
  0
VERTEX
  8
base_support
 62
   254
 10
0.0
 20
0.0
 30
0.0
 70
   128
 71
   93
 72
   154
 73
   92
  0
VERTEX
  8
base_support
 62
   254
 10
0.0
 20
0.0
 30
0.0
 70
   128
 71
   76
 72
   83
 73
   155
  0
VERTEX
  8
base_support
 62
   254
 10
0.0
 20
0.0
 30
0.0
 70
   128
 71
   76
 72
   155
 73
   75
  0
VERTEX
  8
base_support
 62
   254
 10
0.0
 20
0.0
 30
0.0
 70
   128
 71
   74
 72
   156
 73
   84
  0
VERTEX
  8
base_support
 62
   254
 10
0.0
 20
0.0
 30
0.0
 70
   128
 71
   74
 72
   84
 73
   73
  0
VERTEX
  8
base_support
 62
   254
 10
0.0
 20
0.0
 30
0.0
 70
   128
 71
   75
 72
   155
 73
   156
  0
VERTEX
  8
base_support
 62
   254
 10
0.0
 20
0.0
 30
0.0
 70
   128
 71
   75
 72
   156
 73
   74
  0
VERTEX
  8
base_support
 62
   254
 10
0.0
 20
0.0
 30
0.0
 70
   128
 71
   155
 72
   83
 73
   156
  0
VERTEX
  8
base_support
 62
   254
 10
0.0
 20
0.0
 30
0.0
 70
   128
 71
   156
 72
   83
 73
   84
  0
VERTEX
  8
base_support
 62
   254
 10
0.0
 20
0.0
 30
0.0
 70
   128
 71
   70
 72
   71
 73
   157
  0
VERTEX
  8
base_support
 62
   254
 10
0.0
 20
0.0
 30
0.0
 70
   128
 71
   157
 72
   71
 73
   158
  0
VERTEX
  8
base_support
 62
   254
 10
0.0
 20
0.0
 30
0.0
 70
   128
 71
   71
 72
   72
 73
   158
  0
VERTEX
  8
base_support
 62
   254
 10
0.0
 20
0.0
 30
0.0
 70
   128
 71
   158
 72
   72
 73
   85
  0
VERTEX
  8
base_support
 62
   254
 10
0.0
 20
0.0
 30
0.0
 70
   128
 71
   69
 72
   70
 73
   86
  0
VERTEX
  8
base_support
 62
   254
 10
0.0
 20
0.0
 30
0.0
 70
   128
 71
   86
 72
   70
 73
   157
  0
VERTEX
  8
base_support
 62
   254
 10
0.0
 20
0.0
 30
0.0
 70
   128
 71
   157
 72
   158
 73
   86
  0
VERTEX
  8
base_support
 62
   254
 10
0.0
 20
0.0
 30
0.0
 70
   128
 71
   86
 72
   158
 73
   85
  0
VERTEX
  8
base_support
 62
   254
 10
0.0
 20
0.0
 30
0.0
 70
   128
 71
   159
 72
   51
 73
   52
  0
VERTEX
  8
base_support
 62
   254
 10
0.0
 20
0.0
 30
0.0
 70
   128
 71
   51
 72
   159
 73
   90
  0
VERTEX
  8
base_support
 62
   254
 10
0.0
 20
0.0
 30
0.0
 70
   128
 71
   5
 72
   58
 73
   4
  0
VERTEX
  8
base_support
 62
   254
 10
0.0
 20
0.0
 30
0.0
 70
   128
 71
   4
 72
   58
 73
   57
  0
VERTEX
  8
base_support
 62
   254
 10
0.0
 20
0.0
 30
0.0
 70
   128
 71
   8
 72
   160
 73
   56
  0
VERTEX
  8
base_support
 62
   254
 10
0.0
 20
0.0
 30
0.0
 70
   128
 71
   8
 72
   56
 73
   7
  0
VERTEX
  8
base_support
 62
   254
 10
0.0
 20
0.0
 30
0.0
 70
   128
 71
   160
 72
   2
 73
   10
  0
VERTEX
  8
base_support
 62
   254
 10
0.0
 20
0.0
 30
0.0
 70
   128
 71
   2
 72
   160
 73
   8
  0
VERTEX
  8
base_support
 62
   254
 10
0.0
 20
0.0
 30
0.0
 70
   128
 71
   159
 72
   52
 73
   161
  0
VERTEX
  8
base_support
 62
   254
 10
0.0
 20
0.0
 30
0.0
 70
   128
 71
   52
 72
   53
 73
   161
  0
VERTEX
  8
base_support
 62
   254
 10
0.0
 20
0.0
 30
0.0
 70
   128
 71
   56
 72
   160
 73
   11
  0
VERTEX
  8
base_support
 62
   254
 10
0.0
 20
0.0
 30
0.0
 70
   128
 71
   12
 72
   11
 73
   9
  0
VERTEX
  8
base_support
 62
   254
 10
0.0
 20
0.0
 30
0.0
 70
   128
 71
   53
 72
   12
 73
   161
  0
VERTEX
  8
base_support
 62
   254
 10
0.0
 20
0.0
 30
0.0
 70
   128
 71
   161
 72
   88
 73
   89
  0
VERTEX
  8
base_support
 62
   254
 10
0.0
 20
0.0
 30
0.0
 70
   128
 71
   161
 72
   12
 73
   9
  0
VERTEX
  8
base_support
 62
   254
 10
0.0
 20
0.0
 30
0.0
 70
   128
 71
   11
 72
   160
 73
   9
  0
VERTEX
  8
base_support
 62
   254
 10
0.0
 20
0.0
 30
0.0
 70
   128
 71
   88
 72
   161
 73
   9
  0
VERTEX
  8
base_support
 62
   254
 10
0.0
 20
0.0
 30
0.0
 70
   128
 71
   9
 72
   160
 73
   10
  0
VERTEX
  8
base_support
 62
   254
 10
0.0
 20
0.0
 30
0.0
 70
   128
 71
   88
 72
   1
 73
   3
  0
VERTEX
  8
base_support
 62
   254
 10
0.0
 20
0.0
 30
0.0
 70
   128
 71
   1
 72
   88
 73
   9
  0
VERTEX
  8
base_support
 62
   254
 10
0.0
 20
0.0
 30
0.0
 70
   128
 71
   90
 72
   161
 73
   89
  0
VERTEX
  8
base_support
 62
   254
 10
0.0
 20
0.0
 30
0.0
 70
   128
 71
   161
 72
   90
 73
   159
  0
SEQEND
  0
ENDSEC
  0
EOF
